<?xml version="1.0" encoding="UTF-8" standalone="no"?>
<!DOCTYPE svg PUBLIC "-//W3C//DTD SVG 1.1//EN"
 "http://www.w3.org/Graphics/SVG/1.1/DTD/svg11.dtd">
<!-- Generated by graphviz version 2.38.0 (20140413.2041)
 -->
<!-- Title: xmm::Attribute&lt; T &gt; Pages: 1 -->
<svg width="177pt" height="112pt"
 viewBox="0.00 0.00 177.41 112.00" xmlns="http://www.w3.org/2000/svg" xmlns:xlink="http://www.w3.org/1999/xlink">
<g id="graph0" class="graph" transform="scale(1 1) rotate(0) translate(4 108)">
<title>xmm::Attribute&lt; T &gt;</title>
<polygon fill="white" stroke="none" points="-4,4 -4,-108 173.414,-108 173.414,4 -4,4"/>
<!-- Node1 -->
<g id="node1" class="node"><title>Node1</title>
<polygon fill="#bfbfbf" stroke="black" points="41.8999,-0.5 41.8999,-18.5 145.351,-18.5 145.351,-0.5 41.8999,-0.5"/>
<text text-anchor="middle" x="93.6255" y="-6.5" font-family="Helvetica,sans-Serif" font-size="10.00">xmm::Attribute&lt; T &gt;</text>
</g>
<!-- Node2 -->
<g id="node2" class="node"><title>Node2</title>
<g id="a_node2"><a xlink:href="classxmm_1_1_attribute_base.html" target="_top" xlink:title="Base Class for Generic Attributes. ">
<polygon fill="white" stroke="black" points="0,-85.5 0,-103.5 103.251,-103.5 103.251,-85.5 0,-85.5"/>
<text text-anchor="middle" x="51.6255" y="-91.5" font-family="Helvetica,sans-Serif" font-size="10.00">xmm::AttributeBase</text>
</a>
</g>
</g>
<!-- Node2&#45;&gt;Node1 -->
<g id="edge1" class="edge"><title>Node2&#45;&gt;Node1</title>
<path fill="none" stroke="midnightblue" d="M60.4529,-76.0553C69.3646,-58.4441 82.7431,-32.0056 89.4617,-18.7284"/>
<polygon fill="midnightblue" stroke="midnightblue" points="57.1984,-74.7352 55.8062,-85.2382 63.4442,-77.8958 57.1984,-74.7352"/>
</g>
<!-- Node3 -->
<g id="node3" class="node"><title>Node3</title>
<polygon fill="white" stroke="#bfbfbf" points="121.125,-85.5 121.125,-103.5 150.125,-103.5 150.125,-85.5 121.125,-85.5"/>
<text text-anchor="middle" x="135.18" y="-91.5" font-family="Helvetica,sans-Serif" font-size="10.00">T</text>
</g>
<!-- Node3&#45;&gt;Node1 -->
<g id="edge2" class="edge"><title>Node3&#45;&gt;Node1</title>
<path fill="none" stroke="#9a32cd" stroke-dasharray="5,2" d="M126.798,-76.0553C117.886,-58.4441 104.508,-32.0056 97.7893,-18.7284"/>
<polygon fill="#9a32cd" stroke="#9a32cd" points="123.807,-77.8958 131.445,-85.2382 130.053,-74.7352 123.807,-77.8958"/>
<text text-anchor="middle" x="145.52" y="-59" font-family="Helvetica,sans-Serif" font-size="10.00"> limit_min_</text>
<text text-anchor="middle" x="145.52" y="-49" font-family="Helvetica,sans-Serif" font-size="10.00">limit_max_</text>
<text text-anchor="middle" x="145.52" y="-39" font-family="Helvetica,sans-Serif" font-size="10.00">value_</text>
</g>
</g>
</svg>
