<?xml version="1.0" encoding="UTF-8" standalone="no"?>
<!DOCTYPE svg PUBLIC "-//W3C//DTD SVG 1.1//EN"
 "http://www.w3.org/Graphics/SVG/1.1/DTD/svg11.dtd">
<!-- Generated by graphviz version 2.38.0 (20140413.2041)
 -->
<!-- Title: xmm::KMeans Pages: 1 -->
<svg width="285pt" height="224pt"
 viewBox="0.00 0.00 285.06 224.00" xmlns="http://www.w3.org/2000/svg" xmlns:xlink="http://www.w3.org/1999/xlink">
<g id="graph0" class="graph" transform="scale(1 1) rotate(0) translate(4 220)">
<title>xmm::KMeans</title>
<polygon fill="white" stroke="none" points="-4,4 -4,-220 281.056,-220 281.056,4 -4,4"/>
<!-- Node1 -->
<g id="node1" class="node"><title>Node1</title>
<polygon fill="#bfbfbf" stroke="black" points="54.9072,-0.5 54.9072,-18.5 134.809,-18.5 134.809,-0.5 54.9072,-0.5"/>
<text text-anchor="middle" x="94.8579" y="-6.5" font-family="Helvetica,sans-Serif" font-size="10.00">xmm::KMeans</text>
</g>
<!-- Node2 -->
<g id="node2" class="node"><title>Node2</title>
<g id="a_node2"><a xlink:href="classxmm_1_1_writable.html" target="_top" xlink:title="Abstract class for handling JSON + File I/O. ">
<polygon fill="white" stroke="black" points="0,-197.5 0,-215.5 79.7158,-215.5 79.7158,-197.5 0,-197.5"/>
<text text-anchor="middle" x="39.8579" y="-203.5" font-family="Helvetica,sans-Serif" font-size="10.00">xmm::Writable</text>
</a>
</g>
</g>
<!-- Node2&#45;&gt;Node1 -->
<g id="edge1" class="edge"><title>Node2&#45;&gt;Node1</title>
<path fill="none" stroke="midnightblue" d="M34.1366,-187.482C26.3802,-159.655 15.5716,-105.237 34.8579,-65 44.7724,-44.3153 66.3861,-27.8764 80.7813,-18.6623"/>
<polygon fill="midnightblue" stroke="midnightblue" points="30.8711,-188.779 37.0821,-197.362 37.5794,-186.779 30.8711,-188.779"/>
</g>
<!-- Node5 -->
<g id="node5" class="node"><title>Node5</title>
<g id="a_node5"><a xlink:href="classxmm_1_1_class_parameters.html" target="_top" xlink:title="xmm::ClassParameters\l\&lt; xmm::KMeans \&gt;">
<polygon fill="white" stroke="black" points="39.9048,-131.5 39.9048,-159.5 159.811,-159.5 159.811,-131.5 39.9048,-131.5"/>
<text text-anchor="start" x="47.9048" y="-147.5" font-family="Helvetica,sans-Serif" font-size="10.00">xmm::ClassParameters</text>
<text text-anchor="middle" x="99.8579" y="-137.5" font-family="Helvetica,sans-Serif" font-size="10.00">&lt; xmm::KMeans &gt;</text>
</a>
</g>
</g>
<!-- Node2&#45;&gt;Node5 -->
<g id="edge5" class="edge"><title>Node2&#45;&gt;Node5</title>
<path fill="none" stroke="midnightblue" d="M55.557,-190.063C65.1779,-180.602 77.3603,-168.623 86.514,-159.621"/>
<polygon fill="midnightblue" stroke="midnightblue" points="52.8769,-187.789 48.2007,-197.296 57.7849,-192.78 52.8769,-187.789"/>
</g>
<!-- Node3 -->
<g id="node3" class="node"><title>Node3</title>
<g id="a_node3"><a xlink:href="structxmm_1_1_results.html" target="_top" xlink:title="xmm::Results\&lt; xmm::\lKMeans \&gt;">
<polygon fill="white" stroke="black" points="164.66,-65.5 164.66,-93.5 277.056,-93.5 277.056,-65.5 164.66,-65.5"/>
<text text-anchor="start" x="172.66" y="-81.5" font-family="Helvetica,sans-Serif" font-size="10.00">xmm::Results&lt; xmm::</text>
<text text-anchor="middle" x="220.858" y="-71.5" font-family="Helvetica,sans-Serif" font-size="10.00">KMeans &gt;</text>
</a>
</g>
</g>
<!-- Node3&#45;&gt;Node1 -->
<g id="edge2" class="edge"><title>Node3&#45;&gt;Node1</title>
<path fill="none" stroke="#9a32cd" stroke-dasharray="5,2" d="M195.05,-59.5638C184.179,-52.0315 171.204,-43.6047 158.858,-37 145.497,-29.8525 129.784,-23.3212 117.271,-18.5311"/>
<polygon fill="#9a32cd" stroke="#9a32cd" points="193.077,-62.4548 203.265,-65.3609 197.113,-56.7355 193.077,-62.4548"/>
<text text-anchor="middle" x="190.974" y="-39" font-family="Helvetica,sans-Serif" font-size="10.00"> results</text>
</g>
<!-- Node4 -->
<g id="node4" class="node"><title>Node4</title>
<g id="a_node4"><a xlink:href="classxmm_1_1_configuration.html" target="_top" xlink:title="xmm::Configuration\l\&lt; xmm::KMeans \&gt;">
<polygon fill="white" stroke="black" points="43.5083,-65.5 43.5083,-93.5 146.208,-93.5 146.208,-65.5 43.5083,-65.5"/>
<text text-anchor="start" x="51.5083" y="-81.5" font-family="Helvetica,sans-Serif" font-size="10.00">xmm::Configuration</text>
<text text-anchor="middle" x="94.8579" y="-71.5" font-family="Helvetica,sans-Serif" font-size="10.00">&lt; xmm::KMeans &gt;</text>
</a>
</g>
</g>
<!-- Node4&#45;&gt;Node1 -->
<g id="edge3" class="edge"><title>Node4&#45;&gt;Node1</title>
<path fill="none" stroke="#9a32cd" stroke-dasharray="5,2" d="M94.8579,-55.1036C94.8579,-42.547 94.8579,-27.8462 94.8579,-18.8552"/>
<polygon fill="#9a32cd" stroke="#9a32cd" points="91.358,-55.3889 94.8579,-65.3889 98.358,-55.389 91.358,-55.3889"/>
<text text-anchor="middle" x="124.877" y="-39" font-family="Helvetica,sans-Serif" font-size="10.00"> configuration</text>
</g>
<!-- Node5&#45;&gt;Node4 -->
<g id="edge4" class="edge"><title>Node5&#45;&gt;Node4</title>
<path fill="none" stroke="midnightblue" d="M98.0294,-121.095C97.3094,-111.879 96.5091,-101.635 95.8926,-93.7439"/>
<polygon fill="midnightblue" stroke="midnightblue" points="94.5536,-121.542 98.8219,-131.239 101.532,-120.997 94.5536,-121.542"/>
</g>
</g>
</svg>
