<?xml version="1.0" encoding="UTF-8" standalone="no"?>
<!DOCTYPE svg PUBLIC "-//W3C//DTD SVG 1.1//EN"
 "http://www.w3.org/Graphics/SVG/1.1/DTD/svg11.dtd">
<!-- Generated by graphviz version 2.38.0 (20140413.2041)
 -->
<!-- Title: xmm::SingleClassProbabilisticModel Pages: 1 -->
<svg width="266pt" height="147pt"
 viewBox="0.00 0.00 266.18 147.00" xmlns="http://www.w3.org/2000/svg" xmlns:xlink="http://www.w3.org/1999/xlink">
<g id="graph0" class="graph" transform="scale(1 1) rotate(0) translate(4 143)">
<title>xmm::SingleClassProbabilisticModel</title>
<polygon fill="white" stroke="none" points="-4,4 -4,-143 262.18,-143 262.18,4 -4,4"/>
<!-- Node1 -->
<g id="node1" class="node"><title>Node1</title>
<polygon fill="#bfbfbf" stroke="black" points="54.2637,-55.5 54.2637,-83.5 204.194,-83.5 204.194,-55.5 54.2637,-55.5"/>
<text text-anchor="start" x="62.2637" y="-71.5" font-family="Helvetica,sans-Serif" font-size="10.00">xmm::SingleClassProbabilistic</text>
<text text-anchor="middle" x="129.229" y="-61.5" font-family="Helvetica,sans-Serif" font-size="10.00">Model</text>
</g>
<!-- Node3 -->
<g id="node3" class="node"><title>Node3</title>
<g id="a_node3"><a xlink:href="classxmm_1_1_single_class_g_m_m.html" target="_top" xlink:title="Single&#45;Class Gaussian Mixture Model. ">
<polygon fill="white" stroke="black" points="0,-0.5 0,-18.5 120.458,-18.5 120.458,-0.5 0,-0.5"/>
<text text-anchor="middle" x="60.229" y="-6.5" font-family="Helvetica,sans-Serif" font-size="10.00">xmm::SingleClassGMM</text>
</a>
</g>
</g>
<!-- Node1&#45;&gt;Node3 -->
<g id="edge2" class="edge"><title>Node1&#45;&gt;Node3</title>
<path fill="none" stroke="midnightblue" d="M105.568,-48.6113C93.4248,-38.4037 79.2869,-26.5197 70.0692,-18.7715"/>
<polygon fill="midnightblue" stroke="midnightblue" points="103.665,-51.5836 113.572,-55.3389 108.169,-46.2251 103.665,-51.5836"/>
</g>
<!-- Node4 -->
<g id="node4" class="node"><title>Node4</title>
<g id="a_node4"><a xlink:href="classxmm_1_1_single_class_h_m_m.html" target="_top" xlink:title="Single&#45;Class Hidden Markov Model. ">
<polygon fill="white" stroke="black" points="138.278,-0.5 138.278,-18.5 258.18,-18.5 258.18,-0.5 138.278,-0.5"/>
<text text-anchor="middle" x="198.229" y="-6.5" font-family="Helvetica,sans-Serif" font-size="10.00">xmm::SingleClassHMM</text>
</a>
</g>
</g>
<!-- Node1&#45;&gt;Node4 -->
<g id="edge3" class="edge"><title>Node1&#45;&gt;Node4</title>
<path fill="none" stroke="midnightblue" d="M152.89,-48.6113C165.033,-38.4037 179.171,-26.5197 188.389,-18.7715"/>
<polygon fill="midnightblue" stroke="midnightblue" points="150.289,-46.2251 144.886,-55.3389 154.793,-51.5836 150.289,-46.2251"/>
</g>
<!-- Node2 -->
<g id="node2" class="node"><title>Node2</title>
<g id="a_node2"><a xlink:href="classxmm_1_1_writable.html" target="_top" xlink:title="Abstract class for handling JSON + File I/O. ">
<polygon fill="white" stroke="black" points="89.3711,-120.5 89.3711,-138.5 169.087,-138.5 169.087,-120.5 89.3711,-120.5"/>
<text text-anchor="middle" x="129.229" y="-126.5" font-family="Helvetica,sans-Serif" font-size="10.00">xmm::Writable</text>
</a>
</g>
</g>
<!-- Node2&#45;&gt;Node1 -->
<g id="edge1" class="edge"><title>Node2&#45;&gt;Node1</title>
<path fill="none" stroke="midnightblue" d="M129.229,-110.321C129.229,-101.747 129.229,-91.6999 129.229,-83.8428"/>
<polygon fill="midnightblue" stroke="midnightblue" points="125.729,-110.435 129.229,-120.435 132.729,-110.435 125.729,-110.435"/>
</g>
</g>
</svg>
