<?xml version="1.0" encoding="UTF-8" standalone="no"?>
<!DOCTYPE svg PUBLIC "-//W3C//DTD SVG 1.1//EN"
 "http://www.w3.org/Graphics/SVG/1.1/DTD/svg11.dtd">
<!-- Generated by graphviz version 2.38.0 (20140413.2041)
 -->
<!-- Title: xmm::SingleClassProbabilisticModel Pages: 1 -->
<svg width="397pt" height="158pt"
 viewBox="0.00 0.00 396.71 158.00" xmlns="http://www.w3.org/2000/svg" xmlns:xlink="http://www.w3.org/1999/xlink">
<g id="graph0" class="graph" transform="scale(1 1) rotate(0) translate(4 154)">
<title>xmm::SingleClassProbabilisticModel</title>
<polygon fill="white" stroke="none" points="-4,4 -4,-154 392.708,-154 392.708,4 -4,4"/>
<!-- Node1 -->
<g id="node1" class="node"><title>Node1</title>
<polygon fill="#bfbfbf" stroke="black" points="238.777,-63.5 238.777,-91.5 388.708,-91.5 388.708,-63.5 238.777,-63.5"/>
<text text-anchor="start" x="246.777" y="-79.5" font-family="Helvetica,sans-Serif" font-size="10.00">xmm::SingleClassProbabilistic</text>
<text text-anchor="middle" x="313.743" y="-69.5" font-family="Helvetica,sans-Serif" font-size="10.00">Model</text>
</g>
<!-- Node2 -->
<g id="node2" class="node"><title>Node2</title>
<g id="a_node2"><a xlink:href="classxmm_1_1_writable.html" target="_top" xlink:title="Abstract class for handling JSON + File I/O. ">
<polygon fill="white" stroke="black" points="21.0352,-131.5 21.0352,-149.5 100.751,-149.5 100.751,-131.5 21.0352,-131.5"/>
<text text-anchor="middle" x="60.8931" y="-137.5" font-family="Helvetica,sans-Serif" font-size="10.00">xmm::Writable</text>
</a>
</g>
</g>
<!-- Node2&#45;&gt;Node1 -->
<g id="edge1" class="edge"><title>Node2&#45;&gt;Node1</title>
<path fill="none" stroke="midnightblue" d="M110.809,-130.764C142.349,-124.23 184.164,-115.09 220.777,-105.5 236.6,-101.356 253.785,-96.2809 268.971,-91.5956"/>
<polygon fill="midnightblue" stroke="midnightblue" points="110.039,-127.349 100.949,-132.791 111.449,-134.205 110.039,-127.349"/>
</g>
<!-- Node3 -->
<g id="node3" class="node"><title>Node3</title>
<g id="a_node3"><a xlink:href="classxmm_1_1_circular_buffer.html" target="_top" xlink:title="xmm::CircularBuffer\l\&lt; double \&gt;">
<polygon fill="white" stroke="black" points="8.80859,-84.5 8.80859,-112.5 112.978,-112.5 112.978,-84.5 8.80859,-84.5"/>
<text text-anchor="start" x="16.8086" y="-100.5" font-family="Helvetica,sans-Serif" font-size="10.00">xmm::CircularBuffer</text>
<text text-anchor="middle" x="60.8931" y="-90.5" font-family="Helvetica,sans-Serif" font-size="10.00">&lt; double &gt;</text>
</a>
</g>
</g>
<!-- Node3&#45;&gt;Node1 -->
<g id="edge2" class="edge"><title>Node3&#45;&gt;Node1</title>
<path fill="none" stroke="#9a32cd" stroke-dasharray="5,2" d="M123.291,-93.36C158.098,-90.4461 201.895,-86.7796 238.609,-83.7062"/>
<polygon fill="#9a32cd" stroke="#9a32cd" points="122.935,-89.8775 113.262,-94.1997 123.519,-96.8531 122.935,-89.8775"/>
<text text-anchor="middle" x="180.282" y="-93.5" font-family="Helvetica,sans-Serif" font-size="10.00"> likelihood_buffer_</text>
</g>
<!-- Node4 -->
<g id="node4" class="node"><title>Node4</title>
<g id="a_node4"><a xlink:href="classxmm_1_1_training_event.html" target="_top" xlink:title="Event for monitoring the training process. ">
<polygon fill="white" stroke="black" points="8.61816,-47.5 8.61816,-65.5 113.168,-65.5 113.168,-47.5 8.61816,-47.5"/>
<text text-anchor="middle" x="60.8931" y="-53.5" font-family="Helvetica,sans-Serif" font-size="10.00">xmm::TrainingEvent</text>
</a>
</g>
</g>
<!-- Node4&#45;&gt;Node1 -->
<g id="edge3" class="edge"><title>Node4&#45;&gt;Node1</title>
<path fill="none" stroke="#9a32cd" stroke-dasharray="5,2" d="M123.291,-61.64C158.098,-64.5539 201.895,-68.2204 238.609,-71.2938"/>
<polygon fill="#9a32cd" stroke="#9a32cd" points="123.519,-58.1469 113.262,-60.8003 122.935,-65.1225 123.519,-58.1469"/>
<text text-anchor="middle" x="180.282" y="-70.5" font-family="Helvetica,sans-Serif" font-size="10.00"> training_status</text>
</g>
<!-- Node5 -->
<g id="node5" class="node"><title>Node5</title>
<g id="a_node5"><a xlink:href="classxmm_1_1_event_generator.html" target="_top" xlink:title="xmm::EventGenerator\l\&lt; xmm::TrainingEvent \&gt;">
<polygon fill="white" stroke="black" points="0,-0.5 0,-28.5 121.786,-28.5 121.786,-0.5 0,-0.5"/>
<text text-anchor="start" x="8" y="-16.5" font-family="Helvetica,sans-Serif" font-size="10.00">xmm::EventGenerator</text>
<text text-anchor="middle" x="60.8931" y="-6.5" font-family="Helvetica,sans-Serif" font-size="10.00">&lt; xmm::TrainingEvent &gt;</text>
</a>
</g>
</g>
<!-- Node5&#45;&gt;Node1 -->
<g id="edge4" class="edge"><title>Node5&#45;&gt;Node1</title>
<path fill="none" stroke="#9a32cd" stroke-dasharray="5,2" d="M131.85,-27.9802C159.667,-33.7277 191.871,-40.8679 220.777,-48.5 237.288,-52.8592 255.241,-58.3485 270.866,-63.3753"/>
<polygon fill="#9a32cd" stroke="#9a32cd" points="132.313,-24.5025 121.815,-25.9274 130.91,-31.3605 132.313,-24.5025"/>
<text text-anchor="middle" x="180.282" y="-50.5" font-family="Helvetica,sans-Serif" font-size="10.00"> training_events</text>
</g>
</g>
</svg>
