<?xml version="1.0" encoding="UTF-8" standalone="no"?>
<!DOCTYPE svg PUBLIC "-//W3C//DTD SVG 1.1//EN"
 "http://www.w3.org/Graphics/SVG/1.1/DTD/svg11.dtd">
<!-- Generated by graphviz version 2.38.0 (20140413.2041)
 -->
<!-- Title: xmm::TrainingSet Pages: 1 -->
<svg width="484pt" height="121pt"
 viewBox="0.00 0.00 483.51 121.00" xmlns="http://www.w3.org/2000/svg" xmlns:xlink="http://www.w3.org/1999/xlink">
<g id="graph0" class="graph" transform="scale(1 1) rotate(0) translate(4 117)">
<title>xmm::TrainingSet</title>
<polygon fill="white" stroke="none" points="-4,4 -4,-117 479.512,-117 479.512,4 -4,4"/>
<!-- Node1 -->
<g id="node1" class="node"><title>Node1</title>
<polygon fill="#bfbfbf" stroke="black" points="381.523,-52.5 381.523,-70.5 475.512,-70.5 475.512,-52.5 381.523,-52.5"/>
<text text-anchor="middle" x="428.518" y="-58.5" font-family="Helvetica,sans-Serif" font-size="10.00">xmm::TrainingSet</text>
</g>
<!-- Node2 -->
<g id="node2" class="node"><title>Node2</title>
<g id="a_node2"><a xlink:href="classxmm_1_1_writable.html" target="_top" xlink:title="Abstract class for handling JSON + File I/O. ">
<polygon fill="white" stroke="black" points="165.227,-94.5 165.227,-112.5 244.942,-112.5 244.942,-94.5 165.227,-94.5"/>
<text text-anchor="middle" x="205.084" y="-100.5" font-family="Helvetica,sans-Serif" font-size="10.00">xmm::Writable</text>
</a>
</g>
</g>
<!-- Node2&#45;&gt;Node1 -->
<g id="edge1" class="edge"><title>Node2&#45;&gt;Node1</title>
<path fill="none" stroke="midnightblue" d="M255.132,-95.2884C286.244,-89.9533 327.313,-82.6779 363.523,-75.5 371.221,-73.9741 379.418,-72.2538 387.286,-70.5546"/>
<polygon fill="midnightblue" stroke="midnightblue" points="254.253,-91.8877 244.985,-97.0203 255.431,-98.7879 254.253,-91.8877"/>
</g>
<!-- Node3 -->
<g id="node3" class="node"><title>Node3</title>
<g id="a_node3"><a xlink:href="classxmm_1_1_attribute_3_01std_1_1vector_3_01std_1_1string_01_4_01_4.html" target="_top" xlink:title="Generic Attribute (Vector Specialization) ">
<polygon fill="white" stroke="black" points="146.088,-47.5 146.088,-75.5 264.081,-75.5 264.081,-47.5 146.088,-47.5"/>
<text text-anchor="start" x="154.088" y="-63.5" font-family="Helvetica,sans-Serif" font-size="10.00">xmm::Attribute&lt; std</text>
<text text-anchor="middle" x="205.084" y="-53.5" font-family="Helvetica,sans-Serif" font-size="10.00">::vector&lt; std::string &gt; &gt;</text>
</a>
</g>
</g>
<!-- Node3&#45;&gt;Node1 -->
<g id="edge2" class="edge"><title>Node3&#45;&gt;Node1</title>
<path fill="none" stroke="#9a32cd" stroke-dasharray="5,2" d="M274.331,-61.5C309.028,-61.5 350.285,-61.5 381.237,-61.5"/>
<polygon fill="#9a32cd" stroke="#9a32cd" points="274.263,-58.0001 264.263,-61.5 274.263,-65.0001 274.263,-58.0001"/>
<text text-anchor="middle" x="325.721" y="-63.5" font-family="Helvetica,sans-Serif" font-size="10.00"> column_names</text>
</g>
<!-- Node4 -->
<g id="node4" class="node"><title>Node4</title>
<g id="a_node4"><a xlink:href="classxmm_1_1_attribute_base.html" target="_top" xlink:title="Base Class for Generic Attributes. ">
<polygon fill="white" stroke="black" points="0,-31.5 0,-49.5 103.251,-49.5 103.251,-31.5 0,-31.5"/>
<text text-anchor="middle" x="51.6255" y="-37.5" font-family="Helvetica,sans-Serif" font-size="10.00">xmm::AttributeBase</text>
</a>
</g>
</g>
<!-- Node4&#45;&gt;Node3 -->
<g id="edge3" class="edge"><title>Node4&#45;&gt;Node3</title>
<path fill="none" stroke="midnightblue" d="M113.593,-48.9532C124.302,-50.438 135.42,-51.9796 146.047,-53.453"/>
<polygon fill="midnightblue" stroke="midnightblue" points="113.866,-45.4577 103.48,-47.5511 112.905,-52.3914 113.866,-45.4577"/>
</g>
<!-- Node5 -->
<g id="node5" class="node"><title>Node5</title>
<g id="a_node5"><a xlink:href="classxmm_1_1_attribute.html" target="_top" xlink:title="xmm::Attribute\&lt; unsigned\l int \&gt;">
<polygon fill="white" stroke="black" points="140.251,-0.5 140.251,-28.5 269.918,-28.5 269.918,-0.5 140.251,-0.5"/>
<text text-anchor="start" x="148.251" y="-16.5" font-family="Helvetica,sans-Serif" font-size="10.00">xmm::Attribute&lt; unsigned</text>
<text text-anchor="middle" x="205.084" y="-6.5" font-family="Helvetica,sans-Serif" font-size="10.00"> int &gt;</text>
</a>
</g>
</g>
<!-- Node4&#45;&gt;Node5 -->
<g id="edge5" class="edge"><title>Node4&#45;&gt;Node5</title>
<path fill="none" stroke="midnightblue" d="M113.599,-30.0331C122.351,-28.5307 131.376,-26.9814 140.182,-25.4697"/>
<polygon fill="midnightblue" stroke="midnightblue" points="112.744,-26.6285 103.48,-31.77 113.929,-33.5276 112.744,-26.6285"/>
</g>
<!-- Node5&#45;&gt;Node1 -->
<g id="edge4" class="edge"><title>Node5&#45;&gt;Node1</title>
<path fill="none" stroke="#9a32cd" stroke-dasharray="5,2" d="M280.262,-22.0211C306.778,-25.5784 336.719,-30.6005 363.523,-37.5 378.347,-41.3156 394.481,-47.3799 406.84,-52.4578"/>
<polygon fill="#9a32cd" stroke="#9a32cd" points="280.648,-18.542 270.281,-20.7286 279.749,-25.484 280.648,-18.542"/>
<text text-anchor="middle" x="325.721" y="-49.5" font-family="Helvetica,sans-Serif" font-size="10.00"> dimension_input</text>
<text text-anchor="middle" x="325.721" y="-39.5" font-family="Helvetica,sans-Serif" font-size="10.00">dimension</text>
</g>
</g>
</svg>
