<?xml version="1.0" encoding="UTF-8" standalone="no"?>
<!DOCTYPE svg PUBLIC "-//W3C//DTD SVG 1.1//EN"
 "http://www.w3.org/Graphics/SVG/1.1/DTD/svg11.dtd">
<!-- Generated by graphviz version 2.38.0 (20140413.2041)
 -->
<!-- Title: xmm::GMM Pages: 1 -->
<svg width="1098pt" height="172pt"
 viewBox="0.00 0.00 1097.59 172.00" xmlns="http://www.w3.org/2000/svg" xmlns:xlink="http://www.w3.org/1999/xlink">
<g id="graph0" class="graph" transform="scale(1 1) rotate(0) translate(4 168)">
<title>xmm::GMM</title>
<polygon fill="white" stroke="none" points="-4,4 -4,-168 1093.59,-168 1093.59,4 -4,4"/>
<!-- Node1 -->
<g id="node1" class="node"><title>Node1</title>
<polygon fill="#bfbfbf" stroke="black" points="1021.94,-73.5 1021.94,-91.5 1089.59,-91.5 1089.59,-73.5 1021.94,-73.5"/>
<text text-anchor="middle" x="1055.76" y="-79.5" font-family="Helvetica,sans-Serif" font-size="10.00">xmm::GMM</text>
</g>
<!-- Node2 -->
<g id="node2" class="node"><title>Node2</title>
<g id="a_node2"><a xlink:href="classxmm_1_1_model.html" target="_top" xlink:title="xmm::Model\&lt; SingleClassGMM,\l GMM \&gt;">
<polygon fill="white" stroke="black" points="794.614,-97.5 794.614,-125.5 953.705,-125.5 953.705,-97.5 794.614,-97.5"/>
<text text-anchor="start" x="802.614" y="-113.5" font-family="Helvetica,sans-Serif" font-size="10.00">xmm::Model&lt; SingleClassGMM,</text>
<text text-anchor="middle" x="874.16" y="-103.5" font-family="Helvetica,sans-Serif" font-size="10.00"> GMM &gt;</text>
</a>
</g>
</g>
<!-- Node2&#45;&gt;Node1 -->
<g id="edge1" class="edge"><title>Node2&#45;&gt;Node1</title>
<path fill="none" stroke="midnightblue" d="M964,-97.1553C984.549,-93.8373 1005.17,-90.5086 1021.54,-87.8639"/>
<polygon fill="midnightblue" stroke="midnightblue" points="963.251,-93.7308 953.937,-98.7802 964.367,-100.641 963.251,-93.7308"/>
</g>
<!-- Node3 -->
<g id="node3" class="node"><title>Node3</title>
<g id="a_node3"><a xlink:href="classxmm_1_1_writable.html" target="_top" xlink:title="Abstract class for handling JSON + File I/O. ">
<polygon fill="white" stroke="black" points="165.227,-145.5 165.227,-163.5 244.942,-163.5 244.942,-145.5 165.227,-145.5"/>
<text text-anchor="middle" x="205.084" y="-151.5" font-family="Helvetica,sans-Serif" font-size="10.00">xmm::Writable</text>
</a>
</g>
</g>
<!-- Node3&#45;&gt;Node2 -->
<g id="edge2" class="edge"><title>Node3&#45;&gt;Node2</title>
<path fill="none" stroke="midnightblue" d="M255.308,-153.428C342.573,-151.311 530.093,-145.787 688.014,-134.5 727.494,-131.678 737.331,-130.341 776.614,-125.5 782.414,-124.785 788.403,-124.009 794.427,-123.201"/>
<polygon fill="midnightblue" stroke="midnightblue" points="255.085,-149.932 245.172,-153.67 255.252,-156.93 255.085,-149.932"/>
</g>
<!-- Node5 -->
<g id="node5" class="node"><title>Node5</title>
<g id="a_node5"><a xlink:href="classxmm_1_1_class_parameters_3_01_g_m_m_01_4.html" target="_top" xlink:title="Parameters specific to each class of a Gaussian Mixture Model. ">
<polygon fill="white" stroke="black" points="409.321,-85.5 409.321,-113.5 529.228,-113.5 529.228,-85.5 409.321,-85.5"/>
<text text-anchor="start" x="417.321" y="-101.5" font-family="Helvetica,sans-Serif" font-size="10.00">xmm::ClassParameters</text>
<text text-anchor="middle" x="469.274" y="-91.5" font-family="Helvetica,sans-Serif" font-size="10.00">&lt; GMM &gt;</text>
</a>
</g>
</g>
<!-- Node3&#45;&gt;Node5 -->
<g id="edge5" class="edge"><title>Node3&#45;&gt;Node5</title>
<path fill="none" stroke="midnightblue" d="M255.094,-146.671C292.568,-140.403 345.426,-130.955 391.321,-120.5 400.368,-118.439 409.95,-116.019 419.168,-113.568"/>
<polygon fill="midnightblue" stroke="midnightblue" points="254.244,-143.264 244.951,-148.353 255.389,-150.17 254.244,-143.264"/>
</g>
<!-- Node4 -->
<g id="node4" class="node"><title>Node4</title>
<g id="a_node4"><a xlink:href="classxmm_1_1_configuration.html" target="_top" xlink:title="xmm::Configuration\l\&lt; GMM \&gt;">
<polygon fill="white" stroke="black" points="575.771,-97.5 575.771,-125.5 678.47,-125.5 678.47,-97.5 575.771,-97.5"/>
<text text-anchor="start" x="583.771" y="-113.5" font-family="Helvetica,sans-Serif" font-size="10.00">xmm::Configuration</text>
<text text-anchor="middle" x="627.121" y="-103.5" font-family="Helvetica,sans-Serif" font-size="10.00">&lt; GMM &gt;</text>
</a>
</g>
</g>
<!-- Node4&#45;&gt;Node2 -->
<g id="edge3" class="edge"><title>Node4&#45;&gt;Node2</title>
<path fill="none" stroke="#9a32cd" stroke-dasharray="5,2" d="M688.664,-111.5C720.548,-111.5 760.032,-111.5 794.283,-111.5"/>
<polygon fill="#9a32cd" stroke="#9a32cd" points="688.596,-108 678.596,-111.5 688.596,-115 688.596,-108"/>
<text text-anchor="middle" x="741.314" y="-113.5" font-family="Helvetica,sans-Serif" font-size="10.00"> configuration</text>
</g>
<!-- Node5&#45;&gt;Node4 -->
<g id="edge4" class="edge"><title>Node5&#45;&gt;Node4</title>
<path fill="none" stroke="midnightblue" d="M539.69,-104.845C551.764,-105.775 564.114,-106.726 575.562,-107.607"/>
<polygon fill="midnightblue" stroke="midnightblue" points="539.877,-101.349 529.638,-104.071 539.34,-108.328 539.877,-101.349"/>
</g>
<!-- Node6 -->
<g id="node6" class="node"><title>Node6</title>
<g id="a_node6"><a xlink:href="classxmm_1_1_attribute.html" target="_top" xlink:title="xmm::Attribute\&lt; double \&gt;">
<polygon fill="white" stroke="black" points="141.223,-104.5 141.223,-122.5 268.946,-122.5 268.946,-104.5 141.223,-104.5"/>
<text text-anchor="middle" x="205.084" y="-110.5" font-family="Helvetica,sans-Serif" font-size="10.00">xmm::Attribute&lt; double &gt;</text>
</a>
</g>
</g>
<!-- Node6&#45;&gt;Node5 -->
<g id="edge6" class="edge"><title>Node6&#45;&gt;Node5</title>
<path fill="none" stroke="#9a32cd" stroke-dasharray="5,2" d="M265.2,-103.019C272.823,-101.989 280.541,-101.103 287.918,-100.5 328.333,-97.1971 374.011,-96.9799 409.286,-97.5718"/>
<polygon fill="#9a32cd" stroke="#9a32cd" points="264.671,-99.5591 255.27,-104.445 265.666,-106.488 264.671,-99.5591"/>
<text text-anchor="middle" x="339.62" y="-112.5" font-family="Helvetica,sans-Serif" font-size="10.00"> relative_regularization</text>
<text text-anchor="middle" x="339.62" y="-102.5" font-family="Helvetica,sans-Serif" font-size="10.00">absolute_regularization</text>
</g>
<!-- Node7 -->
<g id="node7" class="node"><title>Node7</title>
<g id="a_node7"><a xlink:href="classxmm_1_1_attribute_base.html" target="_top" xlink:title="Base Class for Generic Attributes. ">
<polygon fill="white" stroke="black" points="0,-57.5 0,-75.5 103.251,-75.5 103.251,-57.5 0,-57.5"/>
<text text-anchor="middle" x="51.6255" y="-63.5" font-family="Helvetica,sans-Serif" font-size="10.00">xmm::AttributeBase</text>
</a>
</g>
</g>
<!-- Node7&#45;&gt;Node6 -->
<g id="edge7" class="edge"><title>Node7&#45;&gt;Node6</title>
<path fill="none" stroke="midnightblue" d="M90.3299,-78.73C105.78,-83.6941 123.852,-89.4398 140.251,-94.5 150.968,-97.8069 162.728,-101.336 173.202,-104.443"/>
<polygon fill="midnightblue" stroke="midnightblue" points="91.1908,-75.3303 80.5993,-75.5958 89.0447,-81.9932 91.1908,-75.3303"/>
</g>
<!-- Node8 -->
<g id="node8" class="node"><title>Node8</title>
<g id="a_node8"><a xlink:href="classxmm_1_1_attribute.html" target="_top" xlink:title="xmm::Attribute\&lt; xmm\l::GaussianDistribution\l::CovarianceMode \&gt;">
<polygon fill="white" stroke="black" points="148.173,-47.5 148.173,-85.5 261.996,-85.5 261.996,-47.5 148.173,-47.5"/>
<text text-anchor="start" x="156.173" y="-73.5" font-family="Helvetica,sans-Serif" font-size="10.00">xmm::Attribute&lt; xmm</text>
<text text-anchor="start" x="156.173" y="-63.5" font-family="Helvetica,sans-Serif" font-size="10.00">::GaussianDistribution</text>
<text text-anchor="middle" x="205.084" y="-53.5" font-family="Helvetica,sans-Serif" font-size="10.00">::CovarianceMode &gt;</text>
</a>
</g>
</g>
<!-- Node7&#45;&gt;Node8 -->
<g id="edge9" class="edge"><title>Node7&#45;&gt;Node8</title>
<path fill="none" stroke="midnightblue" d="M113.762,-66.5C125.13,-66.5 136.954,-66.5 148.157,-66.5"/>
<polygon fill="midnightblue" stroke="midnightblue" points="113.481,-63.0001 103.48,-66.5 113.48,-70.0001 113.481,-63.0001"/>
</g>
<!-- Node9 -->
<g id="node9" class="node"><title>Node9</title>
<g id="a_node9"><a xlink:href="classxmm_1_1_attribute.html" target="_top" xlink:title="xmm::Attribute\&lt; unsigned\l int \&gt;">
<polygon fill="white" stroke="black" points="140.251,-0.5 140.251,-28.5 269.918,-28.5 269.918,-0.5 140.251,-0.5"/>
<text text-anchor="start" x="148.251" y="-16.5" font-family="Helvetica,sans-Serif" font-size="10.00">xmm::Attribute&lt; unsigned</text>
<text text-anchor="middle" x="205.084" y="-6.5" font-family="Helvetica,sans-Serif" font-size="10.00"> int &gt;</text>
</a>
</g>
</g>
<!-- Node7&#45;&gt;Node9 -->
<g id="edge11" class="edge"><title>Node7&#45;&gt;Node9</title>
<path fill="none" stroke="midnightblue" d="M88.4955,-54.1849C110.921,-46.4856 139.869,-36.547 163.185,-28.542"/>
<polygon fill="midnightblue" stroke="midnightblue" points="87.3292,-50.8847 79.0076,-57.4423 89.6023,-57.5053 87.3292,-50.8847"/>
</g>
<!-- Node8&#45;&gt;Node5 -->
<g id="edge8" class="edge"><title>Node8&#45;&gt;Node5</title>
<path fill="none" stroke="#9a32cd" stroke-dasharray="5,2" d="M272.427,-70.7552C307.831,-73.4875 352.076,-77.6386 391.321,-83.5 397.125,-84.3667 403.149,-85.3937 409.158,-86.5027"/>
<polygon fill="#9a32cd" stroke="#9a32cd" points="272.448,-67.247 262.214,-69.9873 271.923,-74.2273 272.448,-67.247"/>
<text text-anchor="middle" x="339.62" y="-85.5" font-family="Helvetica,sans-Serif" font-size="10.00"> covariance_mode</text>
</g>
<!-- Node9&#45;&gt;Node5 -->
<g id="edge10" class="edge"><title>Node9&#45;&gt;Node5</title>
<path fill="none" stroke="#9a32cd" stroke-dasharray="5,2" d="M280.284,-27.5837C314.677,-34.7924 355.723,-45.0447 391.321,-58.5 410.296,-65.6719 430.491,-76.5691 445.429,-85.3268"/>
<polygon fill="#9a32cd" stroke="#9a32cd" points="280.804,-24.1176 270.305,-25.5377 279.398,-30.975 280.804,-24.1176"/>
<text text-anchor="middle" x="339.62" y="-60.5" font-family="Helvetica,sans-Serif" font-size="10.00"> gaussians</text>
</g>
<!-- Node10 -->
<g id="node10" class="node"><title>Node10</title>
<g id="a_node10"><a xlink:href="classxmm_1_1_event_generator.html" target="_top" xlink:title="xmm::EventGenerator\l\&lt; xmm::TrainingEvent \&gt;">
<polygon fill="white" stroke="black" points="566.228,-50.5 566.228,-78.5 688.014,-78.5 688.014,-50.5 566.228,-50.5"/>
<text text-anchor="start" x="574.228" y="-66.5" font-family="Helvetica,sans-Serif" font-size="10.00">xmm::EventGenerator</text>
<text text-anchor="middle" x="627.121" y="-56.5" font-family="Helvetica,sans-Serif" font-size="10.00">&lt; xmm::TrainingEvent &gt;</text>
</a>
</g>
</g>
<!-- Node10&#45;&gt;Node2 -->
<g id="edge12" class="edge"><title>Node10&#45;&gt;Node2</title>
<path fill="none" stroke="#9a32cd" stroke-dasharray="5,2" d="M698.176,-77.9371C729.996,-84.0404 767.637,-91.2601 799.84,-97.4368"/>
<polygon fill="#9a32cd" stroke="#9a32cd" points="698.544,-74.444 688.064,-75.9975 697.226,-81.3186 698.544,-74.444"/>
<text text-anchor="middle" x="741.314" y="-94.5" font-family="Helvetica,sans-Serif" font-size="10.00"> training_events</text>
</g>
<!-- Node11 -->
<g id="node11" class="node"><title>Node11</title>
<g id="a_node11"><a xlink:href="structxmm_1_1_results.html" target="_top" xlink:title="xmm::Results\&lt; xmm::\lGMM \&gt;">
<polygon fill="white" stroke="black" points="817.961,-50.5 817.961,-78.5 930.358,-78.5 930.358,-50.5 817.961,-50.5"/>
<text text-anchor="start" x="825.961" y="-66.5" font-family="Helvetica,sans-Serif" font-size="10.00">xmm::Results&lt; xmm::</text>
<text text-anchor="middle" x="874.16" y="-56.5" font-family="Helvetica,sans-Serif" font-size="10.00">GMM &gt;</text>
</a>
</g>
</g>
<!-- Node11&#45;&gt;Node1 -->
<g id="edge13" class="edge"><title>Node11&#45;&gt;Node1</title>
<path fill="none" stroke="#9a32cd" stroke-dasharray="5,2" d="M940.727,-70.2959C961.002,-72.1724 983.401,-74.3315 1003.94,-76.5 1009.68,-77.1065 1015.78,-77.7919 1021.69,-78.4769"/>
<polygon fill="#9a32cd" stroke="#9a32cd" points="940.931,-66.7999 930.652,-69.3702 940.29,-73.7705 940.931,-66.7999"/>
<text text-anchor="middle" x="987.821" y="-78.5" font-family="Helvetica,sans-Serif" font-size="10.00"> results</text>
</g>
</g>
</svg>
