<?xml version="1.0" encoding="UTF-8" standalone="no"?>
<!DOCTYPE svg PUBLIC "-//W3C//DTD SVG 1.1//EN"
 "http://www.w3.org/Graphics/SVG/1.1/DTD/svg11.dtd">
<!-- Generated by graphviz version 2.38.0 (20140413.2041)
 -->
<!-- Title: xmm::ClassParameters&lt; KMeans &gt; Pages: 1 -->
<svg width="370pt" height="178pt"
 viewBox="0.00 0.00 369.69 178.00" xmlns="http://www.w3.org/2000/svg" xmlns:xlink="http://www.w3.org/1999/xlink">
<g id="graph0" class="graph" transform="scale(1 1) rotate(0) translate(4 174)">
<title>xmm::ClassParameters&lt; KMeans &gt;</title>
<polygon fill="white" stroke="none" points="-4,4 -4,-174 365.691,-174 365.691,4 -4,4"/>
<!-- Node1 -->
<g id="node1" class="node"><title>Node1</title>
<polygon fill="#bfbfbf" stroke="black" points="88.9048,-0.5 88.9048,-28.5 208.811,-28.5 208.811,-0.5 88.9048,-0.5"/>
<text text-anchor="start" x="96.9048" y="-16.5" font-family="Helvetica,sans-Serif" font-size="10.00">xmm::ClassParameters</text>
<text text-anchor="middle" x="148.858" y="-6.5" font-family="Helvetica,sans-Serif" font-size="10.00">&lt; KMeans &gt;</text>
</g>
<!-- Node2 -->
<g id="node2" class="node"><title>Node2</title>
<g id="a_node2"><a xlink:href="classxmm_1_1_writable.html" target="_top" xlink:title="Abstract class for handling JSON + File I/O. ">
<polygon fill="white" stroke="black" points="0,-90.5 0,-108.5 79.7158,-108.5 79.7158,-90.5 0,-90.5"/>
<text text-anchor="middle" x="39.8579" y="-96.5" font-family="Helvetica,sans-Serif" font-size="10.00">xmm::Writable</text>
</a>
</g>
</g>
<!-- Node2&#45;&gt;Node1 -->
<g id="edge1" class="edge"><title>Node2&#45;&gt;Node1</title>
<path fill="none" stroke="midnightblue" d="M58.6965,-84.155C79.224,-68.524 111.783,-43.7312 131.647,-28.6058"/>
<polygon fill="midnightblue" stroke="midnightblue" points="56.5434,-81.3953 50.7077,-90.2382 60.7842,-86.9645 56.5434,-81.3953"/>
</g>
<!-- Node3 -->
<g id="node3" class="node"><title>Node3</title>
<g id="a_node3"><a xlink:href="classxmm_1_1_attribute.html" target="_top" xlink:title="xmm::Attribute\&lt; float \&gt;">
<polygon fill="white" stroke="black" points="97.5601,-90.5 97.5601,-108.5 214.156,-108.5 214.156,-90.5 97.5601,-90.5"/>
<text text-anchor="middle" x="155.858" y="-96.5" font-family="Helvetica,sans-Serif" font-size="10.00">xmm::Attribute&lt; float &gt;</text>
</a>
</g>
</g>
<!-- Node3&#45;&gt;Node1 -->
<g id="edge2" class="edge"><title>Node3&#45;&gt;Node1</title>
<path fill="none" stroke="#9a32cd" stroke-dasharray="5,2" d="M152.217,-80.3645C151.47,-76.0045 150.778,-71.35 150.336,-67 149.018,-54.0075 148.723,-39.0839 148.712,-28.6577"/>
<polygon fill="#9a32cd" stroke="#9a32cd" points="148.789,-81.0735 154.076,-90.2552 155.669,-79.7809 148.789,-81.0735"/>
<text text-anchor="middle" x="213.119" y="-54" font-family="Helvetica,sans-Serif" font-size="10.00"> relative_distance_threshold</text>
</g>
<!-- Node4 -->
<g id="node4" class="node"><title>Node4</title>
<g id="a_node4"><a xlink:href="classxmm_1_1_attribute_base.html" target="_top" xlink:title="Base Class for Generic Attributes. ">
<polygon fill="white" stroke="black" points="189.232,-151.5 189.232,-169.5 292.483,-169.5 292.483,-151.5 189.232,-151.5"/>
<text text-anchor="middle" x="240.858" y="-157.5" font-family="Helvetica,sans-Serif" font-size="10.00">xmm::AttributeBase</text>
</a>
</g>
</g>
<!-- Node4&#45;&gt;Node3 -->
<g id="edge3" class="edge"><title>Node4&#45;&gt;Node3</title>
<path fill="none" stroke="midnightblue" d="M220.587,-145.43C204.039,-133.944 181.234,-118.114 167.576,-108.634"/>
<polygon fill="midnightblue" stroke="midnightblue" points="218.828,-148.469 229.039,-151.296 222.82,-142.719 218.828,-148.469"/>
</g>
<!-- Node5 -->
<g id="node5" class="node"><title>Node5</title>
<g id="a_node5"><a xlink:href="classxmm_1_1_attribute.html" target="_top" xlink:title="xmm::Attribute\&lt; unsigned\l int \&gt;">
<polygon fill="white" stroke="black" points="232.024,-85.5 232.024,-113.5 361.691,-113.5 361.691,-85.5 232.024,-85.5"/>
<text text-anchor="start" x="240.024" y="-101.5" font-family="Helvetica,sans-Serif" font-size="10.00">xmm::Attribute&lt; unsigned</text>
<text text-anchor="middle" x="296.858" y="-91.5" font-family="Helvetica,sans-Serif" font-size="10.00"> int &gt;</text>
</a>
</g>
</g>
<!-- Node4&#45;&gt;Node5 -->
<g id="edge5" class="edge"><title>Node4&#45;&gt;Node5</title>
<path fill="none" stroke="midnightblue" d="M255.78,-143.778C264.717,-134.363 275.946,-122.533 284.404,-113.621"/>
<polygon fill="midnightblue" stroke="midnightblue" points="252.99,-141.634 248.644,-151.296 258.067,-146.453 252.99,-141.634"/>
</g>
<!-- Node5&#45;&gt;Node1 -->
<g id="edge4" class="edge"><title>Node5&#45;&gt;Node1</title>
<path fill="none" stroke="#9a32cd" stroke-dasharray="5,2" d="M291.871,-75.2581C288.605,-65.2478 283.314,-54.2101 274.858,-47 256.585,-31.4194 231.709,-23.3507 208.886,-19.2402"/>
<polygon fill="#9a32cd" stroke="#9a32cd" points="288.557,-76.4051 294.59,-85.1145 295.305,-74.5438 288.557,-76.4051"/>
<text text-anchor="middle" x="321.373" y="-59" font-family="Helvetica,sans-Serif" font-size="10.00"> clusters</text>
<text text-anchor="middle" x="321.373" y="-49" font-family="Helvetica,sans-Serif" font-size="10.00">max_iterations</text>
</g>
</g>
</svg>
