<?xml version="1.0" encoding="UTF-8" standalone="no"?>
<!DOCTYPE svg PUBLIC "-//W3C//DTD SVG 1.1//EN"
 "http://www.w3.org/Graphics/SVG/1.1/DTD/svg11.dtd">
<!-- Generated by graphviz version 2.38.0 (20140413.2041)
 -->
<!-- Title: xmm::SingleClassHMM Pages: 1 -->
<svg width="606pt" height="167pt"
 viewBox="0.00 0.00 605.96 167.00" xmlns="http://www.w3.org/2000/svg" xmlns:xlink="http://www.w3.org/1999/xlink">
<g id="graph0" class="graph" transform="scale(1 1) rotate(0) translate(4 163)">
<title>xmm::SingleClassHMM</title>
<polygon fill="white" stroke="none" points="-4,4 -4,-163 601.964,-163 601.964,4 -4,4"/>
<!-- Node1 -->
<g id="node1" class="node"><title>Node1</title>
<polygon fill="#bfbfbf" stroke="black" points="478.062,-87.5 478.062,-105.5 597.964,-105.5 597.964,-87.5 478.062,-87.5"/>
<text text-anchor="middle" x="538.013" y="-93.5" font-family="Helvetica,sans-Serif" font-size="10.00">xmm::SingleClassHMM</text>
</g>
<!-- Node2 -->
<g id="node2" class="node"><title>Node2</title>
<g id="a_node2"><a xlink:href="classxmm_1_1_single_class_probabilistic_model.html" target="_top" xlink:title="Generic Template for Machine Learning Probabilistic models based on the EM algorithm. ">
<polygon fill="white" stroke="black" points="238.777,-82.5 238.777,-110.5 388.708,-110.5 388.708,-82.5 238.777,-82.5"/>
<text text-anchor="start" x="246.777" y="-98.5" font-family="Helvetica,sans-Serif" font-size="10.00">xmm::SingleClassProbabilistic</text>
<text text-anchor="middle" x="313.743" y="-88.5" font-family="Helvetica,sans-Serif" font-size="10.00">Model</text>
</a>
</g>
</g>
<!-- Node2&#45;&gt;Node1 -->
<g id="edge1" class="edge"><title>Node2&#45;&gt;Node1</title>
<path fill="none" stroke="midnightblue" d="M399.064,-96.5C425.267,-96.5 453.586,-96.5 477.707,-96.5"/>
<polygon fill="midnightblue" stroke="midnightblue" points="398.756,-93.0001 388.756,-96.5 398.756,-100 398.756,-93.0001"/>
</g>
<!-- Node3 -->
<g id="node3" class="node"><title>Node3</title>
<g id="a_node3"><a xlink:href="classxmm_1_1_writable.html" target="_top" xlink:title="Abstract class for handling JSON + File I/O. ">
<polygon fill="white" stroke="black" points="21.0352,-133.5 21.0352,-151.5 100.751,-151.5 100.751,-133.5 21.0352,-133.5"/>
<text text-anchor="middle" x="60.8931" y="-139.5" font-family="Helvetica,sans-Serif" font-size="10.00">xmm::Writable</text>
</a>
</g>
</g>
<!-- Node3&#45;&gt;Node2 -->
<g id="edge2" class="edge"><title>Node3&#45;&gt;Node2</title>
<path fill="none" stroke="midnightblue" d="M110.675,-133.554C147.018,-126.89 197.284,-117.672 238.589,-110.098"/>
<polygon fill="midnightblue" stroke="midnightblue" points="110.018,-130.117 100.813,-135.363 111.28,-137.002 110.018,-130.117"/>
</g>
<!-- Node7 -->
<g id="node7" class="node"><title>Node7</title>
<g id="a_node7"><a xlink:href="classxmm_1_1_class_parameters.html" target="_top" xlink:title="xmm::ClassParameters\l\&lt; xmm::HMM \&gt;">
<polygon fill="white" stroke="black" points="253.79,-130.5 253.79,-158.5 373.696,-158.5 373.696,-130.5 253.79,-130.5"/>
<text text-anchor="start" x="261.79" y="-146.5" font-family="Helvetica,sans-Serif" font-size="10.00">xmm::ClassParameters</text>
<text text-anchor="middle" x="313.743" y="-136.5" font-family="Helvetica,sans-Serif" font-size="10.00">&lt; xmm::HMM &gt;</text>
</a>
</g>
</g>
<!-- Node3&#45;&gt;Node7 -->
<g id="edge7" class="edge"><title>Node3&#45;&gt;Node7</title>
<path fill="none" stroke="midnightblue" d="M111.07,-142.892C151.945,-143.218 210.23,-143.683 253.638,-144.029"/>
<polygon fill="midnightblue" stroke="midnightblue" points="110.841,-139.39 100.813,-142.81 110.785,-146.39 110.841,-139.39"/>
</g>
<!-- Node4 -->
<g id="node4" class="node"><title>Node4</title>
<g id="a_node4"><a xlink:href="classxmm_1_1_circular_buffer.html" target="_top" xlink:title="xmm::CircularBuffer\l\&lt; double \&gt;">
<polygon fill="white" stroke="black" points="8.80859,-84.5 8.80859,-112.5 112.978,-112.5 112.978,-84.5 8.80859,-84.5"/>
<text text-anchor="start" x="16.8086" y="-100.5" font-family="Helvetica,sans-Serif" font-size="10.00">xmm::CircularBuffer</text>
<text text-anchor="middle" x="60.8931" y="-90.5" font-family="Helvetica,sans-Serif" font-size="10.00">&lt; double &gt;</text>
</a>
</g>
</g>
<!-- Node4&#45;&gt;Node2 -->
<g id="edge3" class="edge"><title>Node4&#45;&gt;Node2</title>
<path fill="none" stroke="#9a32cd" stroke-dasharray="5,2" d="M123.122,-97.6732C128.756,-97.6094 134.377,-97.5504 139.786,-97.5 172.215,-97.1981 208.064,-96.9729 238.677,-96.8135"/>
<polygon fill="#9a32cd" stroke="#9a32cd" points="122.968,-94.1746 113.01,-97.7922 123.05,-101.174 122.968,-94.1746"/>
<text text-anchor="middle" x="180.282" y="-99.5" font-family="Helvetica,sans-Serif" font-size="10.00"> likelihood_buffer_</text>
</g>
<!-- Node5 -->
<g id="node5" class="node"><title>Node5</title>
<g id="a_node5"><a xlink:href="classxmm_1_1_training_event.html" target="_top" xlink:title="Event for monitoring the training process. ">
<polygon fill="white" stroke="black" points="8.61816,-47.5 8.61816,-65.5 113.168,-65.5 113.168,-47.5 8.61816,-47.5"/>
<text text-anchor="middle" x="60.8931" y="-53.5" font-family="Helvetica,sans-Serif" font-size="10.00">xmm::TrainingEvent</text>
</a>
</g>
</g>
<!-- Node5&#45;&gt;Node2 -->
<g id="edge4" class="edge"><title>Node5&#45;&gt;Node2</title>
<path fill="none" stroke="#9a32cd" stroke-dasharray="5,2" d="M123.291,-66.2904C158.098,-71.8407 201.895,-78.8245 238.609,-84.6788"/>
<polygon fill="#9a32cd" stroke="#9a32cd" points="123.688,-62.8096 113.262,-64.6911 122.586,-69.7222 123.688,-62.8096"/>
<text text-anchor="middle" x="180.282" y="-82.5" font-family="Helvetica,sans-Serif" font-size="10.00"> training_status</text>
</g>
<!-- Node6 -->
<g id="node6" class="node"><title>Node6</title>
<g id="a_node6"><a xlink:href="classxmm_1_1_event_generator.html" target="_top" xlink:title="xmm::EventGenerator\l\&lt; xmm::TrainingEvent \&gt;">
<polygon fill="white" stroke="black" points="0,-0.5 0,-28.5 121.786,-28.5 121.786,-0.5 0,-0.5"/>
<text text-anchor="start" x="8" y="-16.5" font-family="Helvetica,sans-Serif" font-size="10.00">xmm::EventGenerator</text>
<text text-anchor="middle" x="60.8931" y="-6.5" font-family="Helvetica,sans-Serif" font-size="10.00">&lt; xmm::TrainingEvent &gt;</text>
</a>
</g>
</g>
<!-- Node6&#45;&gt;Node2 -->
<g id="edge5" class="edge"><title>Node6&#45;&gt;Node2</title>
<path fill="none" stroke="#9a32cd" stroke-dasharray="5,2" d="M131.965,-23.3358C160.894,-29.1607 193.876,-38.7554 220.777,-54.5 230.817,-60.3757 228.903,-67.3512 238.777,-73.5 244.257,-76.912 250.282,-79.8532 256.455,-82.38"/>
<polygon fill="#9a32cd" stroke="#9a32cd" points="132.395,-19.8551 121.918,-21.4287 131.09,-26.7323 132.395,-19.8551"/>
<text text-anchor="middle" x="180.282" y="-56.5" font-family="Helvetica,sans-Serif" font-size="10.00"> training_events</text>
</g>
<!-- Node7&#45;&gt;Node1 -->
<g id="edge6" class="edge"><title>Node7&#45;&gt;Node1</title>
<path fill="none" stroke="#9a32cd" stroke-dasharray="5,2" d="M383.791,-129.589C420.206,-121.725 463.694,-112.333 495.021,-105.568"/>
<polygon fill="#9a32cd" stroke="#9a32cd" points="382.759,-126.231 373.724,-131.763 384.237,-133.073 382.759,-126.231"/>
<text text-anchor="middle" x="433.385" y="-124.5" font-family="Helvetica,sans-Serif" font-size="10.00"> parameters</text>
</g>
<!-- Node8 -->
<g id="node8" class="node"><title>Node8</title>
<g id="a_node8"><a xlink:href="structxmm_1_1_class_results.html" target="_top" xlink:title="xmm::ClassResults\&lt;\l xmm::HMM \&gt;">
<polygon fill="white" stroke="black" points="260.04,-35.5 260.04,-63.5 367.446,-63.5 367.446,-35.5 260.04,-35.5"/>
<text text-anchor="start" x="268.04" y="-51.5" font-family="Helvetica,sans-Serif" font-size="10.00">xmm::ClassResults&lt;</text>
<text text-anchor="middle" x="313.743" y="-41.5" font-family="Helvetica,sans-Serif" font-size="10.00"> xmm::HMM &gt;</text>
</a>
</g>
</g>
<!-- Node8&#45;&gt;Node1 -->
<g id="edge8" class="edge"><title>Node8&#45;&gt;Node1</title>
<path fill="none" stroke="#9a32cd" stroke-dasharray="5,2" d="M377.935,-62.8624C415.124,-70.726 461.172,-80.4631 494.14,-87.4343"/>
<polygon fill="#9a32cd" stroke="#9a32cd" points="378.207,-59.3425 367.7,-60.698 376.759,-66.1911 378.207,-59.3425"/>
<text text-anchor="middle" x="433.385" y="-81.5" font-family="Helvetica,sans-Serif" font-size="10.00"> results</text>
</g>
</g>
</svg>
