<?xml version="1.0" encoding="UTF-8" standalone="no"?>
<!DOCTYPE svg PUBLIC "-//W3C//DTD SVG 1.1//EN"
 "http://www.w3.org/Graphics/SVG/1.1/DTD/svg11.dtd">
<!-- Generated by graphviz version 2.38.0 (20140413.2041)
 -->
<!-- Title: xmm::ClassParameters&lt; GMM &gt; Pages: 1 -->
<svg width="537pt" height="168pt"
 viewBox="0.00 0.00 537.23 168.00" xmlns="http://www.w3.org/2000/svg" xmlns:xlink="http://www.w3.org/1999/xlink">
<g id="graph0" class="graph" transform="scale(1 1) rotate(0) translate(4 164)">
<title>xmm::ClassParameters&lt; GMM &gt;</title>
<polygon fill="white" stroke="none" points="-4,4 -4,-164 533.228,-164 533.228,4 -4,4"/>
<!-- Node1 -->
<g id="node1" class="node"><title>Node1</title>
<polygon fill="#bfbfbf" stroke="black" points="409.321,-73.5 409.321,-101.5 529.228,-101.5 529.228,-73.5 409.321,-73.5"/>
<text text-anchor="start" x="417.321" y="-89.5" font-family="Helvetica,sans-Serif" font-size="10.00">xmm::ClassParameters</text>
<text text-anchor="middle" x="469.274" y="-79.5" font-family="Helvetica,sans-Serif" font-size="10.00">&lt; GMM &gt;</text>
</g>
<!-- Node2 -->
<g id="node2" class="node"><title>Node2</title>
<g id="a_node2"><a xlink:href="classxmm_1_1_writable.html" target="_top" xlink:title="Abstract class for handling JSON + File I/O. ">
<polygon fill="white" stroke="black" points="165.227,-141.5 165.227,-159.5 244.942,-159.5 244.942,-141.5 165.227,-141.5"/>
<text text-anchor="middle" x="205.084" y="-147.5" font-family="Helvetica,sans-Serif" font-size="10.00">xmm::Writable</text>
</a>
</g>
</g>
<!-- Node2&#45;&gt;Node1 -->
<g id="edge1" class="edge"><title>Node2&#45;&gt;Node1</title>
<path fill="none" stroke="midnightblue" d="M255.543,-149.581C293.464,-147.701 346.693,-142.495 391.321,-128.5 411.254,-122.249 432.059,-110.823 447.003,-101.618"/>
<polygon fill="midnightblue" stroke="midnightblue" points="255.112,-146.096 245.273,-150.027 255.416,-153.09 255.112,-146.096"/>
</g>
<!-- Node3 -->
<g id="node3" class="node"><title>Node3</title>
<g id="a_node3"><a xlink:href="classxmm_1_1_attribute.html" target="_top" xlink:title="xmm::Attribute\&lt; double \&gt;">
<polygon fill="white" stroke="black" points="141.223,-104.5 141.223,-122.5 268.946,-122.5 268.946,-104.5 141.223,-104.5"/>
<text text-anchor="middle" x="205.084" y="-110.5" font-family="Helvetica,sans-Serif" font-size="10.00">xmm::Attribute&lt; double &gt;</text>
</a>
</g>
</g>
<!-- Node3&#45;&gt;Node1 -->
<g id="edge2" class="edge"><title>Node3&#45;&gt;Node1</title>
<path fill="none" stroke="#9a32cd" stroke-dasharray="5,2" d="M279.428,-106.227C320.431,-102.161 370.854,-97.1606 409.281,-93.35"/>
<polygon fill="#9a32cd" stroke="#9a32cd" points="278.825,-102.769 269.219,-107.239 279.516,-109.735 278.825,-102.769"/>
<text text-anchor="middle" x="339.62" y="-116.5" font-family="Helvetica,sans-Serif" font-size="10.00"> relative_regularization</text>
<text text-anchor="middle" x="339.62" y="-106.5" font-family="Helvetica,sans-Serif" font-size="10.00">absolute_regularization</text>
</g>
<!-- Node4 -->
<g id="node4" class="node"><title>Node4</title>
<g id="a_node4"><a xlink:href="classxmm_1_1_attribute_base.html" target="_top" xlink:title="Base Class for Generic Attributes. ">
<polygon fill="white" stroke="black" points="0,-57.5 0,-75.5 103.251,-75.5 103.251,-57.5 0,-57.5"/>
<text text-anchor="middle" x="51.6255" y="-63.5" font-family="Helvetica,sans-Serif" font-size="10.00">xmm::AttributeBase</text>
</a>
</g>
</g>
<!-- Node4&#45;&gt;Node3 -->
<g id="edge3" class="edge"><title>Node4&#45;&gt;Node3</title>
<path fill="none" stroke="midnightblue" d="M88.8568,-78.8949C104.598,-84.1753 123.283,-90.3028 140.251,-95.5 150.16,-98.535 160.991,-101.661 170.871,-104.438"/>
<polygon fill="midnightblue" stroke="midnightblue" points="89.5792,-75.4449 78.985,-75.5655 87.3421,-82.0778 89.5792,-75.4449"/>
</g>
<!-- Node5 -->
<g id="node5" class="node"><title>Node5</title>
<g id="a_node5"><a xlink:href="classxmm_1_1_attribute.html" target="_top" xlink:title="xmm::Attribute\&lt; xmm\l::GaussianDistribution\l::CovarianceMode \&gt;">
<polygon fill="white" stroke="black" points="148.173,-47.5 148.173,-85.5 261.996,-85.5 261.996,-47.5 148.173,-47.5"/>
<text text-anchor="start" x="156.173" y="-73.5" font-family="Helvetica,sans-Serif" font-size="10.00">xmm::Attribute&lt; xmm</text>
<text text-anchor="start" x="156.173" y="-63.5" font-family="Helvetica,sans-Serif" font-size="10.00">::GaussianDistribution</text>
<text text-anchor="middle" x="205.084" y="-53.5" font-family="Helvetica,sans-Serif" font-size="10.00">::CovarianceMode &gt;</text>
</a>
</g>
</g>
<!-- Node4&#45;&gt;Node5 -->
<g id="edge5" class="edge"><title>Node4&#45;&gt;Node5</title>
<path fill="none" stroke="midnightblue" d="M113.762,-66.5C125.13,-66.5 136.954,-66.5 148.157,-66.5"/>
<polygon fill="midnightblue" stroke="midnightblue" points="113.481,-63.0001 103.48,-66.5 113.48,-70.0001 113.481,-63.0001"/>
</g>
<!-- Node6 -->
<g id="node6" class="node"><title>Node6</title>
<g id="a_node6"><a xlink:href="classxmm_1_1_attribute.html" target="_top" xlink:title="xmm::Attribute\&lt; unsigned\l int \&gt;">
<polygon fill="white" stroke="black" points="140.251,-0.5 140.251,-28.5 269.918,-28.5 269.918,-0.5 140.251,-0.5"/>
<text text-anchor="start" x="148.251" y="-16.5" font-family="Helvetica,sans-Serif" font-size="10.00">xmm::Attribute&lt; unsigned</text>
<text text-anchor="middle" x="205.084" y="-6.5" font-family="Helvetica,sans-Serif" font-size="10.00"> int &gt;</text>
</a>
</g>
</g>
<!-- Node4&#45;&gt;Node6 -->
<g id="edge7" class="edge"><title>Node4&#45;&gt;Node6</title>
<path fill="none" stroke="midnightblue" d="M88.4955,-54.1849C110.921,-46.4856 139.869,-36.547 163.185,-28.542"/>
<polygon fill="midnightblue" stroke="midnightblue" points="87.3292,-50.8847 79.0076,-57.4423 89.6023,-57.5053 87.3292,-50.8847"/>
</g>
<!-- Node5&#45;&gt;Node1 -->
<g id="edge4" class="edge"><title>Node5&#45;&gt;Node1</title>
<path fill="none" stroke="#9a32cd" stroke-dasharray="5,2" d="M272.356,-67.369C307.741,-68.3352 351.989,-70.3446 391.321,-74.5 397.115,-75.1121 403.134,-75.8854 409.138,-76.7484"/>
<polygon fill="#9a32cd" stroke="#9a32cd" points="272.235,-63.8649 262.15,-67.1123 272.059,-70.8627 272.235,-63.8649"/>
<text text-anchor="middle" x="339.62" y="-76.5" font-family="Helvetica,sans-Serif" font-size="10.00"> covariance_mode</text>
</g>
<!-- Node6&#45;&gt;Node1 -->
<g id="edge6" class="edge"><title>Node6&#45;&gt;Node1</title>
<path fill="none" stroke="#9a32cd" stroke-dasharray="5,2" d="M279.906,-26.3871C314.22,-32.8381 355.307,-41.8933 391.321,-53.5 408.003,-58.8764 425.955,-66.6831 440.32,-73.4604"/>
<polygon fill="#9a32cd" stroke="#9a32cd" points="280.423,-22.9235 269.954,-24.5529 279.154,-29.8076 280.423,-22.9235"/>
<text text-anchor="middle" x="339.62" y="-55.5" font-family="Helvetica,sans-Serif" font-size="10.00"> gaussians</text>
</g>
</g>
</svg>
