<?xml version="1.0" encoding="UTF-8" standalone="no"?>
<!DOCTYPE svg PUBLIC "-//W3C//DTD SVG 1.1//EN"
 "http://www.w3.org/Graphics/SVG/1.1/DTD/svg11.dtd">
<!-- Generated by graphviz version 2.38.0 (20140413.2041)
 -->
<!-- Title: xmm::HierarchicalHMM Pages: 1 -->
<svg width="1172pt" height="262pt"
 viewBox="0.00 0.00 1172.03 262.00" xmlns="http://www.w3.org/2000/svg" xmlns:xlink="http://www.w3.org/1999/xlink">
<g id="graph0" class="graph" transform="scale(1 1) rotate(0) translate(4 258)">
<title>xmm::HierarchicalHMM</title>
<polygon fill="white" stroke="none" points="-4,4 -4,-258 1168.03,-258 1168.03,4 -4,4"/>
<!-- Node1 -->
<g id="node1" class="node"><title>Node1</title>
<polygon fill="#bfbfbf" stroke="black" points="1044.14,-94.5 1044.14,-112.5 1164.03,-112.5 1164.03,-94.5 1044.14,-94.5"/>
<text text-anchor="middle" x="1104.08" y="-100.5" font-family="Helvetica,sans-Serif" font-size="10.00">xmm::HierarchicalHMM</text>
</g>
<!-- Node2 -->
<g id="node2" class="node"><title>Node2</title>
<g id="a_node2"><a xlink:href="classxmm_1_1_model.html" target="_top" xlink:title="xmm::Model\&lt; SingleClassHMM,\l HMM \&gt;">
<polygon fill="white" stroke="black" points="817.373,-118.5 817.373,-146.5 975.907,-146.5 975.907,-118.5 817.373,-118.5"/>
<text text-anchor="start" x="825.373" y="-134.5" font-family="Helvetica,sans-Serif" font-size="10.00">xmm::Model&lt; SingleClassHMM,</text>
<text text-anchor="middle" x="896.64" y="-124.5" font-family="Helvetica,sans-Serif" font-size="10.00"> HMM &gt;</text>
</a>
</g>
</g>
<!-- Node2&#45;&gt;Node1 -->
<g id="edge1" class="edge"><title>Node2&#45;&gt;Node1</title>
<path fill="none" stroke="midnightblue" d="M986.321,-119.982C1005.85,-117.226 1026.06,-114.373 1044.07,-111.83"/>
<polygon fill="midnightblue" stroke="midnightblue" points="985.602,-116.549 976.189,-121.412 986.58,-123.48 985.602,-116.549"/>
</g>
<!-- Node3 -->
<g id="node3" class="node"><title>Node3</title>
<g id="a_node3"><a xlink:href="classxmm_1_1_writable.html" target="_top" xlink:title="Abstract class for handling JSON + File I/O. ">
<polygon fill="white" stroke="black" points="610.021,-165.5 610.021,-183.5 689.737,-183.5 689.737,-165.5 610.021,-165.5"/>
<text text-anchor="middle" x="649.879" y="-171.5" font-family="Helvetica,sans-Serif" font-size="10.00">xmm::Writable</text>
</a>
</g>
</g>
<!-- Node3&#45;&gt;Node2 -->
<g id="edge2" class="edge"><title>Node3&#45;&gt;Node2</title>
<path fill="none" stroke="midnightblue" d="M699.951,-166.079C733.501,-160.322 778.691,-152.568 817.192,-145.961"/>
<polygon fill="midnightblue" stroke="midnightblue" points="699.197,-162.658 689.933,-167.799 700.381,-169.557 699.197,-162.658"/>
</g>
<!-- Node4 -->
<g id="node4" class="node"><title>Node4</title>
<g id="a_node4"><a xlink:href="classxmm_1_1_configuration.html" target="_top" xlink:title="xmm::Configuration\l\&lt; HMM \&gt;">
<polygon fill="white" stroke="black" points="598.53,-118.5 598.53,-146.5 701.229,-146.5 701.229,-118.5 598.53,-118.5"/>
<text text-anchor="start" x="606.53" y="-134.5" font-family="Helvetica,sans-Serif" font-size="10.00">xmm::Configuration</text>
<text text-anchor="middle" x="649.879" y="-124.5" font-family="Helvetica,sans-Serif" font-size="10.00">&lt; HMM &gt;</text>
</a>
</g>
</g>
<!-- Node4&#45;&gt;Node2 -->
<g id="edge3" class="edge"><title>Node4&#45;&gt;Node2</title>
<path fill="none" stroke="#9a32cd" stroke-dasharray="5,2" d="M711.398,-132.5C743.386,-132.5 783.024,-132.5 817.331,-132.5"/>
<polygon fill="#9a32cd" stroke="#9a32cd" points="711.297,-129 701.297,-132.5 711.297,-136 711.297,-129"/>
<text text-anchor="middle" x="764.073" y="-134.5" font-family="Helvetica,sans-Serif" font-size="10.00"> configuration</text>
</g>
<!-- Node5 -->
<g id="node5" class="node"><title>Node5</title>
<g id="a_node5"><a xlink:href="classxmm_1_1_class_parameters_3_01_h_m_m_01_4.html" target="_top" xlink:title="Parameters specific to each class of a Hidden Markov Model. ">
<polygon fill="white" stroke="black" points="432.08,-118.5 432.08,-146.5 551.986,-146.5 551.986,-118.5 432.08,-118.5"/>
<text text-anchor="start" x="440.08" y="-134.5" font-family="Helvetica,sans-Serif" font-size="10.00">xmm::ClassParameters</text>
<text text-anchor="middle" x="492.033" y="-124.5" font-family="Helvetica,sans-Serif" font-size="10.00">&lt; HMM &gt;</text>
</a>
</g>
</g>
<!-- Node5&#45;&gt;Node4 -->
<g id="edge4" class="edge"><title>Node5&#45;&gt;Node4</title>
<path fill="none" stroke="midnightblue" d="M562.448,-132.5C574.523,-132.5 586.873,-132.5 598.321,-132.5"/>
<polygon fill="midnightblue" stroke="midnightblue" points="562.397,-129 552.397,-132.5 562.397,-136 562.397,-129"/>
</g>
<!-- Node6 -->
<g id="node6" class="node"><title>Node6</title>
<g id="a_node6"><a xlink:href="classxmm_1_1_attribute.html" target="_top" xlink:title="xmm::Attribute\&lt; double \&gt;">
<polygon fill="white" stroke="black" points="152.602,-235.5 152.602,-253.5 280.326,-253.5 280.326,-235.5 152.602,-235.5"/>
<text text-anchor="middle" x="216.464" y="-241.5" font-family="Helvetica,sans-Serif" font-size="10.00">xmm::Attribute&lt; double &gt;</text>
</a>
</g>
</g>
<!-- Node6&#45;&gt;Node5 -->
<g id="edge5" class="edge"><title>Node6&#45;&gt;Node5</title>
<path fill="none" stroke="#9a32cd" stroke-dasharray="5,2" d="M290.544,-237.6C328.934,-231.777 375.821,-221.085 414.08,-201.5 440.755,-187.845 465.375,-162.642 479.269,-146.769"/>
<polygon fill="#9a32cd" stroke="#9a32cd" points="289.869,-234.161 280.468,-239.047 290.864,-241.09 289.869,-234.161"/>
<text text-anchor="middle" x="362.378" y="-244.5" font-family="Helvetica,sans-Serif" font-size="10.00"> relative_regularization</text>
<text text-anchor="middle" x="362.378" y="-234.5" font-family="Helvetica,sans-Serif" font-size="10.00">absolute_regularization</text>
</g>
<!-- Node7 -->
<g id="node7" class="node"><title>Node7</title>
<g id="a_node7"><a xlink:href="classxmm_1_1_attribute_base.html" target="_top" xlink:title="Base Class for Generic Attributes. ">
<polygon fill="white" stroke="black" points="0,-127.5 0,-145.5 103.251,-145.5 103.251,-127.5 0,-127.5"/>
<text text-anchor="middle" x="51.6255" y="-133.5" font-family="Helvetica,sans-Serif" font-size="10.00">xmm::AttributeBase</text>
</a>
</g>
</g>
<!-- Node7&#45;&gt;Node6 -->
<g id="edge6" class="edge"><title>Node7&#45;&gt;Node6</title>
<path fill="none" stroke="midnightblue" d="M64.5395,-153.679C79.7126,-174.213 107.881,-208.102 140.251,-226.5 146.671,-230.149 153.804,-233.061 161.048,-235.384"/>
<polygon fill="midnightblue" stroke="midnightblue" points="67.3639,-151.611 58.6856,-145.534 61.6796,-155.697 67.3639,-151.611"/>
</g>
<!-- Node8 -->
<g id="node8" class="node"><title>Node8</title>
<g id="a_node8"><a xlink:href="classxmm_1_1_attribute.html" target="_top" xlink:title="xmm::Attribute\&lt; xmm\l::HMM::TransitionMode \&gt;">
<polygon fill="white" stroke="black" points="152.38,-188.5 152.38,-216.5 280.548,-216.5 280.548,-188.5 152.38,-188.5"/>
<text text-anchor="start" x="160.38" y="-204.5" font-family="Helvetica,sans-Serif" font-size="10.00">xmm::Attribute&lt; xmm</text>
<text text-anchor="middle" x="216.464" y="-194.5" font-family="Helvetica,sans-Serif" font-size="10.00">::HMM::TransitionMode &gt;</text>
</a>
</g>
</g>
<!-- Node7&#45;&gt;Node8 -->
<g id="edge8" class="edge"><title>Node7&#45;&gt;Node8</title>
<path fill="none" stroke="midnightblue" d="M77.9478,-150.265C95.1916,-159.303 118.711,-170.984 140.251,-179.5 148.251,-182.663 156.868,-185.662 165.315,-188.386"/>
<polygon fill="midnightblue" stroke="midnightblue" points="79.5401,-147.148 69.066,-145.553 76.2592,-153.331 79.5401,-147.148"/>
</g>
<!-- Node9 -->
<g id="node9" class="node"><title>Node9</title>
<g id="a_node9"><a xlink:href="classxmm_1_1_attribute.html" target="_top" xlink:title="xmm::Attribute\&lt; bool \&gt;">
<polygon fill="white" stroke="black" points="158.164,-151.5 158.164,-169.5 274.764,-169.5 274.764,-151.5 158.164,-151.5"/>
<text text-anchor="middle" x="216.464" y="-157.5" font-family="Helvetica,sans-Serif" font-size="10.00">xmm::Attribute&lt; bool &gt;</text>
</a>
</g>
</g>
<!-- Node7&#45;&gt;Node9 -->
<g id="edge10" class="edge"><title>Node7&#45;&gt;Node9</title>
<path fill="none" stroke="midnightblue" d="M113.23,-145.432C127.896,-147.594 143.528,-149.898 158.042,-152.037"/>
<polygon fill="midnightblue" stroke="midnightblue" points="113.659,-141.958 103.256,-143.962 112.639,-148.883 113.659,-141.958"/>
</g>
<!-- Node10 -->
<g id="node10" class="node"><title>Node10</title>
<g id="a_node10"><a xlink:href="classxmm_1_1_attribute.html" target="_top" xlink:title="xmm::Attribute\&lt; xmm\l::GaussianDistribution\l::CovarianceMode \&gt;">
<polygon fill="white" stroke="black" points="159.553,-94.5 159.553,-132.5 273.375,-132.5 273.375,-94.5 159.553,-94.5"/>
<text text-anchor="start" x="167.553" y="-120.5" font-family="Helvetica,sans-Serif" font-size="10.00">xmm::Attribute&lt; xmm</text>
<text text-anchor="start" x="167.553" y="-110.5" font-family="Helvetica,sans-Serif" font-size="10.00">::GaussianDistribution</text>
<text text-anchor="middle" x="216.464" y="-100.5" font-family="Helvetica,sans-Serif" font-size="10.00">::CovarianceMode &gt;</text>
</a>
</g>
</g>
<!-- Node7&#45;&gt;Node10 -->
<g id="edge12" class="edge"><title>Node7&#45;&gt;Node10</title>
<path fill="none" stroke="midnightblue" d="M113.503,-127.901C128.575,-125.773 144.653,-123.502 159.479,-121.407"/>
<polygon fill="midnightblue" stroke="midnightblue" points="112.668,-124.484 103.256,-129.349 113.647,-131.416 112.668,-124.484"/>
</g>
<!-- Node11 -->
<g id="node11" class="node"><title>Node11</title>
<g id="a_node11"><a xlink:href="classxmm_1_1_attribute.html" target="_top" xlink:title="xmm::Attribute\&lt; xmm\l::HMM::RegressionEstimator \&gt;">
<polygon fill="white" stroke="black" points="140.251,-47.5 140.251,-75.5 292.677,-75.5 292.677,-47.5 140.251,-47.5"/>
<text text-anchor="start" x="148.251" y="-63.5" font-family="Helvetica,sans-Serif" font-size="10.00">xmm::Attribute&lt; xmm</text>
<text text-anchor="middle" x="216.464" y="-53.5" font-family="Helvetica,sans-Serif" font-size="10.00">::HMM::RegressionEstimator &gt;</text>
</a>
</g>
</g>
<!-- Node7&#45;&gt;Node11 -->
<g id="edge14" class="edge"><title>Node7&#45;&gt;Node11</title>
<path fill="none" stroke="midnightblue" d="M74.4845,-121.527C91.7513,-110.201 116.77,-94.8784 140.251,-84.5 147.62,-81.2431 155.587,-78.2658 163.485,-75.6122"/>
<polygon fill="midnightblue" stroke="midnightblue" points="72.1273,-118.892 65.7483,-127.351 76.0103,-124.716 72.1273,-118.892"/>
</g>
<!-- Node12 -->
<g id="node12" class="node"><title>Node12</title>
<g id="a_node12"><a xlink:href="classxmm_1_1_attribute.html" target="_top" xlink:title="xmm::Attribute\&lt; unsigned\l int \&gt;">
<polygon fill="white" stroke="black" points="151.63,-0.5 151.63,-28.5 281.297,-28.5 281.297,-0.5 151.63,-0.5"/>
<text text-anchor="start" x="159.63" y="-16.5" font-family="Helvetica,sans-Serif" font-size="10.00">xmm::Attribute&lt; unsigned</text>
<text text-anchor="middle" x="216.464" y="-6.5" font-family="Helvetica,sans-Serif" font-size="10.00"> int &gt;</text>
</a>
</g>
</g>
<!-- Node7&#45;&gt;Node12 -->
<g id="edge16" class="edge"><title>Node7&#45;&gt;Node12</title>
<path fill="none" stroke="midnightblue" d="M63.6893,-118.897C78.4958,-96.7479 106.805,-59.0099 140.251,-37.5 145.649,-34.0286 151.6,-31.0566 157.719,-28.5176"/>
<polygon fill="midnightblue" stroke="midnightblue" points="60.7144,-117.052 58.1947,-127.343 66.5819,-120.87 60.7144,-117.052"/>
</g>
<!-- Node8&#45;&gt;Node5 -->
<g id="edge7" class="edge"><title>Node8&#45;&gt;Node5</title>
<path fill="none" stroke="#9a32cd" stroke-dasharray="5,2" d="M290.968,-191.938C328.282,-185.661 374.066,-176.55 414.08,-164.5 430.013,-159.702 447.16,-152.757 461.215,-146.563"/>
<polygon fill="#9a32cd" stroke="#9a32cd" points="289.978,-188.554 280.68,-193.633 291.116,-195.46 289.978,-188.554"/>
<text text-anchor="middle" x="362.378" y="-189.5" font-family="Helvetica,sans-Serif" font-size="10.00"> transition_mode</text>
</g>
<!-- Node9&#45;&gt;Node5 -->
<g id="edge9" class="edge"><title>Node9&#45;&gt;Node5</title>
<path fill="none" stroke="#9a32cd" stroke-dasharray="5,2" d="M284.79,-153.609C329.852,-148.997 388.605,-142.984 431.87,-138.555"/>
<polygon fill="#9a32cd" stroke="#9a32cd" points="284.405,-150.13 274.813,-154.63 285.117,-157.094 284.405,-150.13"/>
<text text-anchor="middle" x="362.378" y="-152.5" font-family="Helvetica,sans-Serif" font-size="10.00"> hierarchical</text>
</g>
<!-- Node10&#45;&gt;Node5 -->
<g id="edge11" class="edge"><title>Node10&#45;&gt;Node5</title>
<path fill="none" stroke="#9a32cd" stroke-dasharray="5,2" d="M283.905,-116.427C322.03,-118.305 370.78,-121.04 414.08,-124.5 419.837,-124.96 425.832,-125.491 431.821,-126.057"/>
<polygon fill="#9a32cd" stroke="#9a32cd" points="283.604,-112.909 273.447,-115.921 283.266,-119.901 283.604,-112.909"/>
<text text-anchor="middle" x="362.378" y="-126.5" font-family="Helvetica,sans-Serif" font-size="10.00"> covariance_mode</text>
</g>
<!-- Node11&#45;&gt;Node5 -->
<g id="edge13" class="edge"><title>Node11&#45;&gt;Node5</title>
<path fill="none" stroke="#9a32cd" stroke-dasharray="5,2" d="M302.867,-77.5846C337.631,-84.8026 378.037,-94.0522 414.08,-104.5 427.735,-108.458 442.464,-113.596 455.344,-118.389"/>
<polygon fill="#9a32cd" stroke="#9a32cd" points="303.246,-74.0895 292.746,-75.5073 301.838,-80.9466 303.246,-74.0895"/>
<text text-anchor="middle" x="362.378" y="-106.5" font-family="Helvetica,sans-Serif" font-size="10.00"> regression_estimator</text>
</g>
<!-- Node12&#45;&gt;Node5 -->
<g id="edge15" class="edge"><title>Node12&#45;&gt;Node5</title>
<path fill="none" stroke="#9a32cd" stroke-dasharray="5,2" d="M291.79,-20.3422C330.125,-25.7764 376.576,-36.2635 414.08,-56.5 442.503,-71.8365 467.471,-100.872 480.795,-118.276"/>
<polygon fill="#9a32cd" stroke="#9a32cd" points="292.094,-16.8518 281.72,-19.003 291.172,-23.7908 292.094,-16.8518"/>
<text text-anchor="middle" x="362.378" y="-68.5" font-family="Helvetica,sans-Serif" font-size="10.00"> states</text>
<text text-anchor="middle" x="362.378" y="-58.5" font-family="Helvetica,sans-Serif" font-size="10.00">gaussians</text>
</g>
<!-- Node13 -->
<g id="node13" class="node"><title>Node13</title>
<g id="a_node13"><a xlink:href="classxmm_1_1_event_generator.html" target="_top" xlink:title="xmm::EventGenerator\l\&lt; xmm::TrainingEvent \&gt;">
<polygon fill="white" stroke="black" points="588.986,-71.5 588.986,-99.5 710.772,-99.5 710.772,-71.5 588.986,-71.5"/>
<text text-anchor="start" x="596.986" y="-87.5" font-family="Helvetica,sans-Serif" font-size="10.00">xmm::EventGenerator</text>
<text text-anchor="middle" x="649.879" y="-77.5" font-family="Helvetica,sans-Serif" font-size="10.00">&lt; xmm::TrainingEvent &gt;</text>
</a>
</g>
</g>
<!-- Node13&#45;&gt;Node2 -->
<g id="edge17" class="edge"><title>Node13&#45;&gt;Node2</title>
<path fill="none" stroke="#9a32cd" stroke-dasharray="5,2" d="M721.168,-98.9972C752.944,-105.099 790.481,-112.307 822.581,-118.471"/>
<polygon fill="#9a32cd" stroke="#9a32cd" points="721.549,-95.5064 711.068,-97.0577 720.229,-102.381 721.549,-95.5064"/>
<text text-anchor="middle" x="764.073" y="-115.5" font-family="Helvetica,sans-Serif" font-size="10.00"> training_events</text>
</g>
<!-- Node14 -->
<g id="node14" class="node"><title>Node14</title>
<g id="a_node14"><a xlink:href="structxmm_1_1_results.html" target="_top" xlink:title="xmm::Results\&lt; xmm::\lHMM \&gt;">
<polygon fill="white" stroke="black" points="840.442,-71.5 840.442,-99.5 952.838,-99.5 952.838,-71.5 840.442,-71.5"/>
<text text-anchor="start" x="848.442" y="-87.5" font-family="Helvetica,sans-Serif" font-size="10.00">xmm::Results&lt; xmm::</text>
<text text-anchor="middle" x="896.64" y="-77.5" font-family="Helvetica,sans-Serif" font-size="10.00">HMM &gt;</text>
</a>
</g>
</g>
<!-- Node14&#45;&gt;Node1 -->
<g id="edge18" class="edge"><title>Node14&#45;&gt;Node1</title>
<path fill="none" stroke="#9a32cd" stroke-dasharray="5,2" d="M963.1,-91.2353C989.084,-93.5119 1018.75,-96.1109 1044.06,-98.3287"/>
<polygon fill="#9a32cd" stroke="#9a32cd" points="963.233,-87.7336 952.966,-90.3473 962.622,-94.7069 963.233,-87.7336"/>
<text text-anchor="middle" x="1010.02" y="-99.5" font-family="Helvetica,sans-Serif" font-size="10.00"> results</text>
</g>
</g>
</svg>
