<?xml version="1.0" encoding="UTF-8" standalone="no"?>
<!DOCTYPE svg PUBLIC "-//W3C//DTD SVG 1.1//EN"
 "http://www.w3.org/Graphics/SVG/1.1/DTD/svg11.dtd">
<!-- Generated by graphviz version 2.38.0 (20140413.2041)
 -->
<!-- Title: xmm::SingleClassGMM Pages: 1 -->
<svg width="158pt" height="147pt"
 viewBox="0.00 0.00 157.93 147.00" xmlns="http://www.w3.org/2000/svg" xmlns:xlink="http://www.w3.org/1999/xlink">
<g id="graph0" class="graph" transform="scale(1 1) rotate(0) translate(4 143)">
<title>xmm::SingleClassGMM</title>
<polygon fill="white" stroke="none" points="-4,4 -4,-143 153.931,-143 153.931,4 -4,4"/>
<!-- Node1 -->
<g id="node1" class="node"><title>Node1</title>
<polygon fill="#bfbfbf" stroke="black" points="14.7363,-0.5 14.7363,-18.5 135.194,-18.5 135.194,-0.5 14.7363,-0.5"/>
<text text-anchor="middle" x="74.9653" y="-6.5" font-family="Helvetica,sans-Serif" font-size="10.00">xmm::SingleClassGMM</text>
</g>
<!-- Node2 -->
<g id="node2" class="node"><title>Node2</title>
<g id="a_node2"><a xlink:href="classxmm_1_1_single_class_probabilistic_model.html" target="_top" xlink:title="Generic Template for Machine Learning Probabilistic models based on the EM algorithm. ">
<polygon fill="white" stroke="black" points="0,-55.5 0,-83.5 149.931,-83.5 149.931,-55.5 0,-55.5"/>
<text text-anchor="start" x="8" y="-71.5" font-family="Helvetica,sans-Serif" font-size="10.00">xmm::SingleClassProbabilistic</text>
<text text-anchor="middle" x="74.9653" y="-61.5" font-family="Helvetica,sans-Serif" font-size="10.00">Model</text>
</a>
</g>
</g>
<!-- Node2&#45;&gt;Node1 -->
<g id="edge1" class="edge"><title>Node2&#45;&gt;Node1</title>
<path fill="none" stroke="midnightblue" d="M74.9653,-45.323C74.9653,-35.936 74.9653,-25.7002 74.9653,-18.7715"/>
<polygon fill="midnightblue" stroke="midnightblue" points="71.4654,-45.3389 74.9653,-55.3389 78.4654,-45.3389 71.4654,-45.3389"/>
</g>
<!-- Node3 -->
<g id="node3" class="node"><title>Node3</title>
<g id="a_node3"><a xlink:href="classxmm_1_1_writable.html" target="_top" xlink:title="Abstract class for handling JSON + File I/O. ">
<polygon fill="white" stroke="black" points="35.1074,-120.5 35.1074,-138.5 114.823,-138.5 114.823,-120.5 35.1074,-120.5"/>
<text text-anchor="middle" x="74.9653" y="-126.5" font-family="Helvetica,sans-Serif" font-size="10.00">xmm::Writable</text>
</a>
</g>
</g>
<!-- Node3&#45;&gt;Node2 -->
<g id="edge2" class="edge"><title>Node3&#45;&gt;Node2</title>
<path fill="none" stroke="midnightblue" d="M74.9653,-110.321C74.9653,-101.747 74.9653,-91.6999 74.9653,-83.8428"/>
<polygon fill="midnightblue" stroke="midnightblue" points="71.4654,-110.435 74.9653,-120.435 78.4654,-110.435 71.4654,-110.435"/>
</g>
</g>
</svg>
