<?xml version="1.0" encoding="UTF-8" standalone="no"?>
<!DOCTYPE svg PUBLIC "-//W3C//DTD SVG 1.1//EN"
 "http://www.w3.org/Graphics/SVG/1.1/DTD/svg11.dtd">
<!-- Generated by graphviz version 2.38.0 (20140413.2041)
 -->
<!-- Title: xmm::HierarchicalHMM Pages: 1 -->
<svg width="167pt" height="147pt"
 viewBox="0.00 0.00 166.53 147.00" xmlns="http://www.w3.org/2000/svg" xmlns:xlink="http://www.w3.org/1999/xlink">
<g id="graph0" class="graph" transform="scale(1 1) rotate(0) translate(4 143)">
<title>xmm::HierarchicalHMM</title>
<polygon fill="white" stroke="none" points="-4,4 -4,-143 162.534,-143 162.534,4 -4,4"/>
<!-- Node1 -->
<g id="node1" class="node"><title>Node1</title>
<polygon fill="#bfbfbf" stroke="black" points="19.3213,-0.5 19.3213,-18.5 139.213,-18.5 139.213,-0.5 19.3213,-0.5"/>
<text text-anchor="middle" x="79.2671" y="-6.5" font-family="Helvetica,sans-Serif" font-size="10.00">xmm::HierarchicalHMM</text>
</g>
<!-- Node2 -->
<g id="node2" class="node"><title>Node2</title>
<g id="a_node2"><a xlink:href="classxmm_1_1_model.html" target="_top" xlink:title="xmm::Model\&lt; SingleClassHMM,\l HMM \&gt;">
<polygon fill="white" stroke="black" points="0,-55.5 0,-83.5 158.534,-83.5 158.534,-55.5 0,-55.5"/>
<text text-anchor="start" x="8" y="-71.5" font-family="Helvetica,sans-Serif" font-size="10.00">xmm::Model&lt; SingleClassHMM,</text>
<text text-anchor="middle" x="79.2671" y="-61.5" font-family="Helvetica,sans-Serif" font-size="10.00"> HMM &gt;</text>
</a>
</g>
</g>
<!-- Node2&#45;&gt;Node1 -->
<g id="edge1" class="edge"><title>Node2&#45;&gt;Node1</title>
<path fill="none" stroke="midnightblue" d="M79.2671,-45.323C79.2671,-35.936 79.2671,-25.7002 79.2671,-18.7715"/>
<polygon fill="midnightblue" stroke="midnightblue" points="75.7672,-45.3389 79.2671,-55.3389 82.7672,-45.3389 75.7672,-45.3389"/>
</g>
<!-- Node3 -->
<g id="node3" class="node"><title>Node3</title>
<g id="a_node3"><a xlink:href="classxmm_1_1_writable.html" target="_top" xlink:title="Abstract class for handling JSON + File I/O. ">
<polygon fill="white" stroke="black" points="39.4092,-120.5 39.4092,-138.5 119.125,-138.5 119.125,-120.5 39.4092,-120.5"/>
<text text-anchor="middle" x="79.2671" y="-126.5" font-family="Helvetica,sans-Serif" font-size="10.00">xmm::Writable</text>
</a>
</g>
</g>
<!-- Node3&#45;&gt;Node2 -->
<g id="edge2" class="edge"><title>Node3&#45;&gt;Node2</title>
<path fill="none" stroke="midnightblue" d="M79.2671,-110.321C79.2671,-101.747 79.2671,-91.6999 79.2671,-83.8428"/>
<polygon fill="midnightblue" stroke="midnightblue" points="75.7672,-110.435 79.2671,-120.435 82.7672,-110.435 75.7672,-110.435"/>
</g>
</g>
</svg>
