<?xml version="1.0" encoding="UTF-8" standalone="no"?>
<!DOCTYPE svg PUBLIC "-//W3C//DTD SVG 1.1//EN"
 "http://www.w3.org/Graphics/SVG/1.1/DTD/svg11.dtd">
<!-- Generated by graphviz version 2.38.0 (20140413.2041)
 -->
<!-- Title: xmm::ClassParameters&lt; HMM &gt; Pages: 1 -->
<svg width="560pt" height="262pt"
 viewBox="0.00 0.00 559.99 262.00" xmlns="http://www.w3.org/2000/svg" xmlns:xlink="http://www.w3.org/1999/xlink">
<g id="graph0" class="graph" transform="scale(1 1) rotate(0) translate(4 258)">
<title>xmm::ClassParameters&lt; HMM &gt;</title>
<polygon fill="white" stroke="none" points="-4,4 -4,-258 555.986,-258 555.986,4 -4,4"/>
<!-- Node1 -->
<g id="node1" class="node"><title>Node1</title>
<polygon fill="#bfbfbf" stroke="black" points="432.08,-122.5 432.08,-150.5 551.986,-150.5 551.986,-122.5 432.08,-122.5"/>
<text text-anchor="start" x="440.08" y="-138.5" font-family="Helvetica,sans-Serif" font-size="10.00">xmm::ClassParameters</text>
<text text-anchor="middle" x="492.033" y="-128.5" font-family="Helvetica,sans-Serif" font-size="10.00">&lt; HMM &gt;</text>
</g>
<!-- Node2 -->
<g id="node2" class="node"><title>Node2</title>
<g id="a_node2"><a xlink:href="classxmm_1_1_attribute.html" target="_top" xlink:title="xmm::Attribute\&lt; double \&gt;">
<polygon fill="white" stroke="black" points="152.602,-235.5 152.602,-253.5 280.326,-253.5 280.326,-235.5 152.602,-235.5"/>
<text text-anchor="middle" x="216.464" y="-241.5" font-family="Helvetica,sans-Serif" font-size="10.00">xmm::Attribute&lt; double &gt;</text>
</a>
</g>
</g>
<!-- Node2&#45;&gt;Node1 -->
<g id="edge1" class="edge"><title>Node2&#45;&gt;Node1</title>
<path fill="none" stroke="#9a32cd" stroke-dasharray="5,2" d="M290.742,-237.074C328.987,-231.108 375.679,-220.447 414.08,-201.5 439.8,-188.81 464.148,-165.703 478.326,-150.734"/>
<polygon fill="#9a32cd" stroke="#9a32cd" points="290.082,-233.633 280.704,-238.563 291.109,-240.557 290.082,-233.633"/>
<text text-anchor="middle" x="362.378" y="-244.5" font-family="Helvetica,sans-Serif" font-size="10.00"> relative_regularization</text>
<text text-anchor="middle" x="362.378" y="-234.5" font-family="Helvetica,sans-Serif" font-size="10.00">absolute_regularization</text>
</g>
<!-- Node3 -->
<g id="node3" class="node"><title>Node3</title>
<g id="a_node3"><a xlink:href="classxmm_1_1_attribute_base.html" target="_top" xlink:title="Base Class for Generic Attributes. ">
<polygon fill="white" stroke="black" points="0,-127.5 0,-145.5 103.251,-145.5 103.251,-127.5 0,-127.5"/>
<text text-anchor="middle" x="51.6255" y="-133.5" font-family="Helvetica,sans-Serif" font-size="10.00">xmm::AttributeBase</text>
</a>
</g>
</g>
<!-- Node3&#45;&gt;Node2 -->
<g id="edge2" class="edge"><title>Node3&#45;&gt;Node2</title>
<path fill="none" stroke="midnightblue" d="M64.5395,-153.679C79.7126,-174.213 107.881,-208.102 140.251,-226.5 146.671,-230.149 153.804,-233.061 161.048,-235.384"/>
<polygon fill="midnightblue" stroke="midnightblue" points="67.3639,-151.611 58.6856,-145.534 61.6796,-155.697 67.3639,-151.611"/>
</g>
<!-- Node4 -->
<g id="node4" class="node"><title>Node4</title>
<g id="a_node4"><a xlink:href="classxmm_1_1_attribute.html" target="_top" xlink:title="xmm::Attribute\&lt; xmm\l::HMM::TransitionMode \&gt;">
<polygon fill="white" stroke="black" points="152.38,-188.5 152.38,-216.5 280.548,-216.5 280.548,-188.5 152.38,-188.5"/>
<text text-anchor="start" x="160.38" y="-204.5" font-family="Helvetica,sans-Serif" font-size="10.00">xmm::Attribute&lt; xmm</text>
<text text-anchor="middle" x="216.464" y="-194.5" font-family="Helvetica,sans-Serif" font-size="10.00">::HMM::TransitionMode &gt;</text>
</a>
</g>
</g>
<!-- Node3&#45;&gt;Node4 -->
<g id="edge4" class="edge"><title>Node3&#45;&gt;Node4</title>
<path fill="none" stroke="midnightblue" d="M77.9478,-150.265C95.1916,-159.303 118.711,-170.984 140.251,-179.5 148.251,-182.663 156.868,-185.662 165.315,-188.386"/>
<polygon fill="midnightblue" stroke="midnightblue" points="79.5401,-147.148 69.066,-145.553 76.2592,-153.331 79.5401,-147.148"/>
</g>
<!-- Node5 -->
<g id="node5" class="node"><title>Node5</title>
<g id="a_node5"><a xlink:href="classxmm_1_1_attribute.html" target="_top" xlink:title="xmm::Attribute\&lt; bool \&gt;">
<polygon fill="white" stroke="black" points="158.164,-151.5 158.164,-169.5 274.764,-169.5 274.764,-151.5 158.164,-151.5"/>
<text text-anchor="middle" x="216.464" y="-157.5" font-family="Helvetica,sans-Serif" font-size="10.00">xmm::Attribute&lt; bool &gt;</text>
</a>
</g>
</g>
<!-- Node3&#45;&gt;Node5 -->
<g id="edge6" class="edge"><title>Node3&#45;&gt;Node5</title>
<path fill="none" stroke="midnightblue" d="M113.23,-145.432C127.896,-147.594 143.528,-149.898 158.042,-152.037"/>
<polygon fill="midnightblue" stroke="midnightblue" points="113.659,-141.958 103.256,-143.962 112.639,-148.883 113.659,-141.958"/>
</g>
<!-- Node6 -->
<g id="node6" class="node"><title>Node6</title>
<g id="a_node6"><a xlink:href="classxmm_1_1_attribute.html" target="_top" xlink:title="xmm::Attribute\&lt; xmm\l::GaussianDistribution\l::CovarianceMode \&gt;">
<polygon fill="white" stroke="black" points="159.553,-94.5 159.553,-132.5 273.375,-132.5 273.375,-94.5 159.553,-94.5"/>
<text text-anchor="start" x="167.553" y="-120.5" font-family="Helvetica,sans-Serif" font-size="10.00">xmm::Attribute&lt; xmm</text>
<text text-anchor="start" x="167.553" y="-110.5" font-family="Helvetica,sans-Serif" font-size="10.00">::GaussianDistribution</text>
<text text-anchor="middle" x="216.464" y="-100.5" font-family="Helvetica,sans-Serif" font-size="10.00">::CovarianceMode &gt;</text>
</a>
</g>
</g>
<!-- Node3&#45;&gt;Node6 -->
<g id="edge8" class="edge"><title>Node3&#45;&gt;Node6</title>
<path fill="none" stroke="midnightblue" d="M113.503,-127.901C128.575,-125.773 144.653,-123.502 159.479,-121.407"/>
<polygon fill="midnightblue" stroke="midnightblue" points="112.668,-124.484 103.256,-129.349 113.647,-131.416 112.668,-124.484"/>
</g>
<!-- Node7 -->
<g id="node7" class="node"><title>Node7</title>
<g id="a_node7"><a xlink:href="classxmm_1_1_attribute.html" target="_top" xlink:title="xmm::Attribute\&lt; xmm\l::HMM::RegressionEstimator \&gt;">
<polygon fill="white" stroke="black" points="140.251,-47.5 140.251,-75.5 292.677,-75.5 292.677,-47.5 140.251,-47.5"/>
<text text-anchor="start" x="148.251" y="-63.5" font-family="Helvetica,sans-Serif" font-size="10.00">xmm::Attribute&lt; xmm</text>
<text text-anchor="middle" x="216.464" y="-53.5" font-family="Helvetica,sans-Serif" font-size="10.00">::HMM::RegressionEstimator &gt;</text>
</a>
</g>
</g>
<!-- Node3&#45;&gt;Node7 -->
<g id="edge10" class="edge"><title>Node3&#45;&gt;Node7</title>
<path fill="none" stroke="midnightblue" d="M74.8634,-121.729C92.1598,-110.697 117.041,-95.8089 140.251,-85.5 148.393,-81.8836 157.249,-78.5563 165.932,-75.6046"/>
<polygon fill="midnightblue" stroke="midnightblue" points="72.5854,-119.034 66.0935,-127.407 76.3899,-124.91 72.5854,-119.034"/>
</g>
<!-- Node8 -->
<g id="node8" class="node"><title>Node8</title>
<g id="a_node8"><a xlink:href="classxmm_1_1_attribute.html" target="_top" xlink:title="xmm::Attribute\&lt; unsigned\l int \&gt;">
<polygon fill="white" stroke="black" points="151.63,-0.5 151.63,-28.5 281.297,-28.5 281.297,-0.5 151.63,-0.5"/>
<text text-anchor="start" x="159.63" y="-16.5" font-family="Helvetica,sans-Serif" font-size="10.00">xmm::Attribute&lt; unsigned</text>
<text text-anchor="middle" x="216.464" y="-6.5" font-family="Helvetica,sans-Serif" font-size="10.00"> int &gt;</text>
</a>
</g>
</g>
<!-- Node3&#45;&gt;Node8 -->
<g id="edge12" class="edge"><title>Node3&#45;&gt;Node8</title>
<path fill="none" stroke="midnightblue" d="M63.9726,-118.848C78.9207,-96.9547 107.218,-59.9097 140.251,-38.5 146.232,-34.6236 152.886,-31.3317 159.694,-28.5469"/>
<polygon fill="midnightblue" stroke="midnightblue" points="60.861,-117.207 58.2414,-127.473 66.6911,-121.081 60.861,-117.207"/>
</g>
<!-- Node4&#45;&gt;Node1 -->
<g id="edge3" class="edge"><title>Node4&#45;&gt;Node1</title>
<path fill="none" stroke="#9a32cd" stroke-dasharray="5,2" d="M291.235,-191.75C328.431,-185.541 374.031,-176.722 414.08,-165.5 428.515,-161.455 444.055,-155.85 457.364,-150.644"/>
<polygon fill="#9a32cd" stroke="#9a32cd" points="290.28,-188.359 280.978,-193.431 291.413,-195.267 290.28,-188.359"/>
<text text-anchor="middle" x="362.378" y="-189.5" font-family="Helvetica,sans-Serif" font-size="10.00"> transition_mode</text>
</g>
<!-- Node5&#45;&gt;Node1 -->
<g id="edge5" class="edge"><title>Node5&#45;&gt;Node1</title>
<path fill="none" stroke="#9a32cd" stroke-dasharray="5,2" d="M284.79,-154.594C329.852,-150.64 388.605,-145.486 431.87,-141.69"/>
<polygon fill="#9a32cd" stroke="#9a32cd" points="284.469,-151.108 274.813,-155.469 285.081,-158.081 284.469,-151.108"/>
<text text-anchor="middle" x="362.378" y="-153.5" font-family="Helvetica,sans-Serif" font-size="10.00"> hierarchical</text>
</g>
<!-- Node6&#45;&gt;Node1 -->
<g id="edge7" class="edge"><title>Node6&#45;&gt;Node1</title>
<path fill="none" stroke="#9a32cd" stroke-dasharray="5,2" d="M283.983,-115.586C322.133,-117.192 370.883,-119.935 414.08,-124.5 419.862,-125.111 425.873,-125.855 431.872,-126.671"/>
<polygon fill="#9a32cd" stroke="#9a32cd" points="283.65,-112.07 273.517,-115.163 283.367,-119.064 283.65,-112.07"/>
<text text-anchor="middle" x="362.378" y="-126.5" font-family="Helvetica,sans-Serif" font-size="10.00"> covariance_mode</text>
</g>
<!-- Node7&#45;&gt;Node1 -->
<g id="edge9" class="edge"><title>Node7&#45;&gt;Node1</title>
<path fill="none" stroke="#9a32cd" stroke-dasharray="5,2" d="M303.26,-75.3292C338.082,-81.9877 378.426,-91.0471 414.08,-102.5 430.767,-107.86 448.719,-115.666 463.083,-122.447"/>
<polygon fill="#9a32cd" stroke="#9a32cd" points="303.592,-71.8307 293.118,-73.4276 302.302,-78.7108 303.592,-71.8307"/>
<text text-anchor="middle" x="362.378" y="-104.5" font-family="Helvetica,sans-Serif" font-size="10.00"> regression_estimator</text>
</g>
<!-- Node8&#45;&gt;Node1 -->
<g id="edge11" class="edge"><title>Node8&#45;&gt;Node1</title>
<path fill="none" stroke="#9a32cd" stroke-dasharray="5,2" d="M291.735,-17.7556C330.257,-22.1056 376.897,-31.6995 414.08,-52.5 444.631,-69.5905 469.723,-103.204 482.3,-122.322"/>
<polygon fill="#9a32cd" stroke="#9a32cd" points="291.921,-14.2563 281.615,-16.7108 291.202,-21.2193 291.921,-14.2563"/>
<text text-anchor="middle" x="362.378" y="-64.5" font-family="Helvetica,sans-Serif" font-size="10.00"> states</text>
<text text-anchor="middle" x="362.378" y="-54.5" font-family="Helvetica,sans-Serif" font-size="10.00">gaussians</text>
</g>
</g>
</svg>
