<?xml version="1.0" encoding="UTF-8" standalone="no"?>
<!DOCTYPE svg PUBLIC "-//W3C//DTD SVG 1.1//EN"
 "http://www.w3.org/Graphics/SVG/1.1/DTD/svg11.dtd">
<!-- Generated by graphviz version 2.38.0 (20140413.2041)
 -->
<!-- Title: xmm::GaussianDistribution Pages: 1 -->
<svg width="394pt" height="168pt"
 viewBox="0.00 0.00 393.69 168.00" xmlns="http://www.w3.org/2000/svg" xmlns:xlink="http://www.w3.org/1999/xlink">
<g id="graph0" class="graph" transform="scale(1 1) rotate(0) translate(4 164)">
<title>xmm::GaussianDistribution</title>
<polygon fill="white" stroke="none" points="-4,4 -4,-164 389.691,-164 389.691,4 -4,4"/>
<!-- Node1 -->
<g id="node1" class="node"><title>Node1</title>
<polygon fill="#bfbfbf" stroke="black" points="100.117,-0.5 100.117,-18.5 235.599,-18.5 235.599,-0.5 100.117,-0.5"/>
<text text-anchor="middle" x="167.858" y="-6.5" font-family="Helvetica,sans-Serif" font-size="10.00">xmm::GaussianDistribution</text>
</g>
<!-- Node2 -->
<g id="node2" class="node"><title>Node2</title>
<g id="a_node2"><a xlink:href="classxmm_1_1_writable.html" target="_top" xlink:title="Abstract class for handling JSON + File I/O. ">
<polygon fill="white" stroke="black" points="0,-80.5 0,-98.5 79.7158,-98.5 79.7158,-80.5 0,-80.5"/>
<text text-anchor="middle" x="39.8579" y="-86.5" font-family="Helvetica,sans-Serif" font-size="10.00">xmm::Writable</text>
</a>
</g>
</g>
<!-- Node2&#45;&gt;Node1 -->
<g id="edge1" class="edge"><title>Node2&#45;&gt;Node1</title>
<path fill="none" stroke="midnightblue" d="M61.6966,-75.192C88.3264,-58.9645 132.5,-32.046 154.522,-18.6266"/>
<polygon fill="midnightblue" stroke="midnightblue" points="59.7922,-72.2539 53.0741,-80.4464 63.4348,-78.2315 59.7922,-72.2539"/>
</g>
<!-- Node3 -->
<g id="node3" class="node"><title>Node3</title>
<g id="a_node3"><a xlink:href="classxmm_1_1_attribute.html" target="_top" xlink:title="xmm::Attribute\&lt; Covariance\lMode \&gt;">
<polygon fill="white" stroke="black" points="98.0293,-75.5 98.0293,-103.5 237.687,-103.5 237.687,-75.5 98.0293,-75.5"/>
<text text-anchor="start" x="106.029" y="-91.5" font-family="Helvetica,sans-Serif" font-size="10.00">xmm::Attribute&lt; Covariance</text>
<text text-anchor="middle" x="167.858" y="-81.5" font-family="Helvetica,sans-Serif" font-size="10.00">Mode &gt;</text>
</a>
</g>
</g>
<!-- Node3&#45;&gt;Node1 -->
<g id="edge2" class="edge"><title>Node3&#45;&gt;Node1</title>
<path fill="none" stroke="#9a32cd" stroke-dasharray="5,2" d="M167.858,-65.2041C167.858,-49.496 167.858,-29.7073 167.858,-18.7528"/>
<polygon fill="#9a32cd" stroke="#9a32cd" points="164.358,-65.2683 167.858,-75.2684 171.358,-65.2684 164.358,-65.2683"/>
<text text-anchor="middle" x="208.715" y="-44" font-family="Helvetica,sans-Serif" font-size="10.00"> covariance_mode</text>
</g>
<!-- Node4 -->
<g id="node4" class="node"><title>Node4</title>
<g id="a_node4"><a xlink:href="classxmm_1_1_attribute_base.html" target="_top" xlink:title="Base Class for Generic Attributes. ">
<polygon fill="white" stroke="black" points="208.232,-141.5 208.232,-159.5 311.483,-159.5 311.483,-141.5 208.232,-141.5"/>
<text text-anchor="middle" x="259.858" y="-147.5" font-family="Helvetica,sans-Serif" font-size="10.00">xmm::AttributeBase</text>
</a>
</g>
</g>
<!-- Node4&#45;&gt;Node3 -->
<g id="edge3" class="edge"><title>Node4&#45;&gt;Node3</title>
<path fill="none" stroke="midnightblue" d="M238.397,-135.737C223.292,-126.05 203.196,-113.163 188.319,-103.621"/>
<polygon fill="midnightblue" stroke="midnightblue" points="236.759,-138.844 247.066,-141.296 240.537,-132.952 236.759,-138.844"/>
</g>
<!-- Node5 -->
<g id="node5" class="node"><title>Node5</title>
<g id="a_node5"><a xlink:href="classxmm_1_1_attribute.html" target="_top" xlink:title="xmm::Attribute\&lt; unsigned\l int \&gt;">
<polygon fill="white" stroke="black" points="256.024,-75.5 256.024,-103.5 385.691,-103.5 385.691,-75.5 256.024,-75.5"/>
<text text-anchor="start" x="264.024" y="-91.5" font-family="Helvetica,sans-Serif" font-size="10.00">xmm::Attribute&lt; unsigned</text>
<text text-anchor="middle" x="320.858" y="-81.5" font-family="Helvetica,sans-Serif" font-size="10.00"> int &gt;</text>
</a>
</g>
</g>
<!-- Node4&#45;&gt;Node5 -->
<g id="edge5" class="edge"><title>Node4&#45;&gt;Node5</title>
<path fill="none" stroke="midnightblue" d="M275.819,-134.063C285.6,-124.602 297.985,-112.623 307.292,-103.621"/>
<polygon fill="midnightblue" stroke="midnightblue" points="273.094,-131.828 268.34,-141.296 277.961,-136.86 273.094,-131.828"/>
</g>
<!-- Node5&#45;&gt;Node1 -->
<g id="edge4" class="edge"><title>Node5&#45;&gt;Node1</title>
<path fill="none" stroke="#9a32cd" stroke-dasharray="5,2" d="M299.374,-68.7967C286.852,-58.1632 270.322,-45.5112 253.858,-37 238.314,-28.9645 219.91,-22.8877 204.124,-18.5939"/>
<polygon fill="#9a32cd" stroke="#9a32cd" points="297.145,-71.4968 306.983,-75.4292 301.745,-66.22 297.145,-71.4968"/>
<text text-anchor="middle" x="321.661" y="-49" font-family="Helvetica,sans-Serif" font-size="10.00"> dimension_input</text>
<text text-anchor="middle" x="321.661" y="-39" font-family="Helvetica,sans-Serif" font-size="10.00">dimension</text>
</g>
</g>
</svg>
