<?xml version="1.0" encoding="UTF-8" standalone="no"?>
<!DOCTYPE svg PUBLIC "-//W3C//DTD SVG 1.1//EN"
 "http://www.w3.org/Graphics/SVG/1.1/DTD/svg11.dtd">
<!-- Generated by graphviz version 2.38.0 (20140413.2041)
 -->
<!-- Title: xmm::SharedParameters Pages: 1 -->
<svg width="575pt" height="203pt"
 viewBox="0.00 0.00 575.02 202.76" xmlns="http://www.w3.org/2000/svg" xmlns:xlink="http://www.w3.org/1999/xlink">
<g id="graph0" class="graph" transform="scale(1 1) rotate(0) translate(4 198.763)">
<title>xmm::SharedParameters</title>
<polygon fill="white" stroke="none" points="-4,4 -4,-198.763 571.016,-198.763 571.016,4 -4,4"/>
<!-- Node1 -->
<g id="node1" class="node"><title>Node1</title>
<polygon fill="#bfbfbf" stroke="black" points="439.868,-106.263 439.868,-124.263 567.016,-124.263 567.016,-106.263 439.868,-106.263"/>
<text text-anchor="middle" x="503.442" y="-112.263" font-family="Helvetica,sans-Serif" font-size="10.00">xmm::SharedParameters</text>
</g>
<!-- Node2 -->
<g id="node2" class="node"><title>Node2</title>
<g id="a_node2"><a xlink:href="classxmm_1_1_writable.html" target="_top" xlink:title="Abstract class for handling JSON + File I/O. ">
<polygon fill="white" stroke="black" points="165.227,-176.263 165.227,-194.263 244.942,-194.263 244.942,-176.263 165.227,-176.263"/>
<text text-anchor="middle" x="205.084" y="-182.263" font-family="Helvetica,sans-Serif" font-size="10.00">xmm::Writable</text>
</a>
</g>
</g>
<!-- Node2&#45;&gt;Node1 -->
<g id="edge1" class="edge"><title>Node2&#45;&gt;Node1</title>
<path fill="none" stroke="midnightblue" d="M255.287,-182.516C299.643,-179.03 366.247,-171.27 421.868,-154.263 445.796,-146.947 471.496,-133.408 487.275,-124.367"/>
<polygon fill="midnightblue" stroke="midnightblue" points="254.779,-179.044 245.065,-183.274 255.297,-186.025 254.779,-179.044"/>
</g>
<!-- Node3 -->
<g id="node3" class="node"><title>Node3</title>
<g id="a_node3"><a xlink:href="classxmm_1_1_attribute.html" target="_top" xlink:title="xmm::Attribute\&lt; double \&gt;">
<polygon fill="white" stroke="black" points="141.223,-139.263 141.223,-157.263 268.946,-157.263 268.946,-139.263 141.223,-139.263"/>
<text text-anchor="middle" x="205.084" y="-145.263" font-family="Helvetica,sans-Serif" font-size="10.00">xmm::Attribute&lt; double &gt;</text>
</a>
</g>
</g>
<!-- Node3&#45;&gt;Node1 -->
<g id="edge2" class="edge"><title>Node3&#45;&gt;Node1</title>
<path fill="none" stroke="#9a32cd" stroke-dasharray="5,2" d="M279.497,-141.405C321.27,-137.345 374.543,-131.904 421.868,-126.263 427.616,-125.578 433.589,-124.83 439.569,-124.057"/>
<polygon fill="#9a32cd" stroke="#9a32cd" points="279.025,-137.934 269.409,-142.38 279.699,-144.901 279.025,-137.934"/>
<text text-anchor="middle" x="354.893" y="-142.263" font-family="Helvetica,sans-Serif" font-size="10.00"> em_algorithm_percent_chg</text>
</g>
<!-- Node4 -->
<g id="node4" class="node"><title>Node4</title>
<g id="a_node4"><a xlink:href="classxmm_1_1_attribute_base.html" target="_top" xlink:title="Base Class for Generic Attributes. ">
<polygon fill="white" stroke="black" points="0,-75.2633 0,-93.2633 103.251,-93.2633 103.251,-75.2633 0,-75.2633"/>
<text text-anchor="middle" x="51.6255" y="-81.2633" font-family="Helvetica,sans-Serif" font-size="10.00">xmm::AttributeBase</text>
</a>
</g>
</g>
<!-- Node4&#45;&gt;Node3 -->
<g id="edge3" class="edge"><title>Node4&#45;&gt;Node3</title>
<path fill="none" stroke="midnightblue" d="M76.5076,-98.5413C93.772,-108.426 117.895,-121.356 140.251,-130.263 148.701,-133.63 158.015,-136.633 166.855,-139.176"/>
<polygon fill="midnightblue" stroke="midnightblue" points="78.0811,-95.4076 67.6766,-93.4079 74.5631,-101.459 78.0811,-95.4076"/>
</g>
<!-- Node5 -->
<g id="node5" class="node"><title>Node5</title>
<g id="a_node5"><a xlink:href="classxmm_1_1_attribute_3_01std_1_1vector_3_01std_1_1string_01_4_01_4.html" target="_top" xlink:title="Generic Attribute (Vector Specialization) ">
<polygon fill="white" stroke="black" points="146.088,-92.2633 146.088,-120.263 264.081,-120.263 264.081,-92.2633 146.088,-92.2633"/>
<text text-anchor="start" x="154.088" y="-108.263" font-family="Helvetica,sans-Serif" font-size="10.00">xmm::Attribute&lt; std</text>
<text text-anchor="middle" x="205.084" y="-98.2633" font-family="Helvetica,sans-Serif" font-size="10.00">::vector&lt; std::string &gt; &gt;</text>
</a>
</g>
</g>
<!-- Node4&#45;&gt;Node5 -->
<g id="edge5" class="edge"><title>Node4&#45;&gt;Node5</title>
<path fill="none" stroke="midnightblue" d="M113.593,-93.119C124.302,-94.6745 135.42,-96.2895 146.047,-97.8331"/>
<polygon fill="midnightblue" stroke="midnightblue" points="113.88,-89.624 103.48,-91.6501 112.873,-96.5513 113.88,-89.624"/>
</g>
<!-- Node6 -->
<g id="node6" class="node"><title>Node6</title>
<g id="a_node6"><a xlink:href="classxmm_1_1_attribute.html" target="_top" xlink:title="xmm::Attribute\&lt; bool \&gt;">
<polygon fill="white" stroke="black" points="146.784,-55.2633 146.784,-73.2633 263.385,-73.2633 263.385,-55.2633 146.784,-55.2633"/>
<text text-anchor="middle" x="205.084" y="-61.2633" font-family="Helvetica,sans-Serif" font-size="10.00">xmm::Attribute&lt; bool &gt;</text>
</a>
</g>
</g>
<!-- Node4&#45;&gt;Node6 -->
<g id="edge7" class="edge"><title>Node4&#45;&gt;Node6</title>
<path fill="none" stroke="midnightblue" d="M113.722,-76.1955C124.569,-74.7632 135.832,-73.2759 146.575,-71.8573"/>
<polygon fill="midnightblue" stroke="midnightblue" points="112.936,-72.7688 103.48,-77.5479 113.853,-79.7086 112.936,-72.7688"/>
</g>
<!-- Node7 -->
<g id="node7" class="node"><title>Node7</title>
<g id="a_node7"><a xlink:href="classxmm_1_1_attribute.html" target="_top" xlink:title="xmm::Attribute\&lt; unsigned\l int \&gt;">
<polygon fill="white" stroke="black" points="140.251,-2.26326 140.251,-30.2633 269.918,-30.2633 269.918,-2.26326 140.251,-2.26326"/>
<text text-anchor="start" x="148.251" y="-18.2633" font-family="Helvetica,sans-Serif" font-size="10.00">xmm::Attribute&lt; unsigned</text>
<text text-anchor="middle" x="205.084" y="-8.26326" font-family="Helvetica,sans-Serif" font-size="10.00"> int &gt;</text>
</a>
</g>
</g>
<!-- Node4&#45;&gt;Node7 -->
<g id="edge9" class="edge"><title>Node4&#45;&gt;Node7</title>
<path fill="none" stroke="midnightblue" d="M82.1128,-71.0245C108.217,-59.3045 146.199,-42.2519 172.824,-30.2981"/>
<polygon fill="midnightblue" stroke="midnightblue" points="80.4273,-67.9446 72.7381,-75.2334 83.2944,-74.3305 80.4273,-67.9446"/>
</g>
<!-- Node5&#45;&gt;Node1 -->
<g id="edge4" class="edge"><title>Node5&#45;&gt;Node1</title>
<path fill="none" stroke="#9a32cd" stroke-dasharray="5,2" d="M274.329,-108.336C324.184,-109.85 391.268,-111.887 439.77,-113.36"/>
<polygon fill="#9a32cd" stroke="#9a32cd" points="274.383,-104.836 264.282,-108.031 274.171,-111.833 274.383,-104.836"/>
<text text-anchor="middle" x="354.893" y="-114.263" font-family="Helvetica,sans-Serif" font-size="10.00"> column_names</text>
</g>
<!-- Node6&#45;&gt;Node1 -->
<g id="edge6" class="edge"><title>Node6&#45;&gt;Node1</title>
<path fill="none" stroke="#9a32cd" stroke-dasharray="5,2" d="M273.635,-71.5988C316.344,-76.7433 372.588,-84.4506 421.868,-94.2633 438.314,-97.538 456.399,-102.157 471.262,-106.229"/>
<polygon fill="#9a32cd" stroke="#9a32cd" points="273.978,-68.115 263.635,-70.4111 273.152,-75.0661 273.978,-68.115"/>
<text text-anchor="middle" x="354.893" y="-96.2633" font-family="Helvetica,sans-Serif" font-size="10.00"> bimodal</text>
</g>
<!-- Node7&#45;&gt;Node1 -->
<g id="edge8" class="edge"><title>Node7&#45;&gt;Node1</title>
<path fill="none" stroke="#9a32cd" stroke-dasharray="5,2" d="M280.328,-2.45779C323.632,2.06486 378.157,1.48722 421.868,-19.2633 461.181,-37.9261 488.246,-86.022 498.206,-106.171"/>
<polygon fill="#9a32cd" stroke="#9a32cd" points="279.673,0.989809 270.141,-3.63609 280.477,-5.96383 279.673,0.989809"/>
<text text-anchor="middle" x="354.893" y="-61.2633" font-family="Helvetica,sans-Serif" font-size="10.00"> em_algorithm_max_iterations</text>
<text text-anchor="middle" x="354.893" y="-51.2633" font-family="Helvetica,sans-Serif" font-size="10.00">likelihood_window</text>
<text text-anchor="middle" x="354.893" y="-41.2633" font-family="Helvetica,sans-Serif" font-size="10.00">dimension_input</text>
<text text-anchor="middle" x="354.893" y="-31.2633" font-family="Helvetica,sans-Serif" font-size="10.00">dimension</text>
<text text-anchor="middle" x="354.893" y="-21.2633" font-family="Helvetica,sans-Serif" font-size="10.00">em_algorithm_min_iterations</text>
</g>
</g>
</svg>
