<?xml version="1.0" encoding="UTF-8" standalone="no"?>
<!DOCTYPE svg PUBLIC "-//W3C//DTD SVG 1.1//EN"
 "http://www.w3.org/Graphics/SVG/1.1/DTD/svg11.dtd">
<!-- Generated by graphviz version 2.38.0 (20140413.2041)
 -->
<!-- Title: xmm::ClassParameters&lt; HMM &gt; Pages: 1 -->
<svg width="128pt" height="102pt"
 viewBox="0.00 0.00 127.91 102.00" xmlns="http://www.w3.org/2000/svg" xmlns:xlink="http://www.w3.org/1999/xlink">
<g id="graph0" class="graph" transform="scale(1 1) rotate(0) translate(4 98)">
<title>xmm::ClassParameters&lt; HMM &gt;</title>
<polygon fill="white" stroke="none" points="-4,4 -4,-98 123.906,-98 123.906,4 -4,4"/>
<!-- Node1 -->
<g id="node1" class="node"><title>Node1</title>
<polygon fill="#bfbfbf" stroke="black" points="0,-65.5 0,-93.5 119.906,-93.5 119.906,-65.5 0,-65.5"/>
<text text-anchor="start" x="8" y="-81.5" font-family="Helvetica,sans-Serif" font-size="10.00">xmm::ClassParameters</text>
<text text-anchor="middle" x="59.9531" y="-71.5" font-family="Helvetica,sans-Serif" font-size="10.00">&lt; HMM &gt;</text>
</g>
<!-- Node2 -->
<g id="node2" class="node"><title>Node2</title>
<g id="a_node2"><a xlink:href="classxmm_1_1_configuration.html" target="_top" xlink:title="xmm::Configuration\l\&lt; HMM \&gt;">
<polygon fill="white" stroke="black" points="8.60352,-0.5 8.60352,-28.5 111.303,-28.5 111.303,-0.5 8.60352,-0.5"/>
<text text-anchor="start" x="16.6035" y="-16.5" font-family="Helvetica,sans-Serif" font-size="10.00">xmm::Configuration</text>
<text text-anchor="middle" x="59.9531" y="-6.5" font-family="Helvetica,sans-Serif" font-size="10.00">&lt; HMM &gt;</text>
</a>
</g>
</g>
<!-- Node1&#45;&gt;Node2 -->
<g id="edge1" class="edge"><title>Node1&#45;&gt;Node2</title>
<path fill="none" stroke="midnightblue" d="M59.9531,-55.1641C59.9531,-46.1693 59.9531,-36.2205 59.9531,-28.5369"/>
<polygon fill="midnightblue" stroke="midnightblue" points="56.4532,-55.4463 59.9531,-65.4464 63.4532,-55.4464 56.4532,-55.4463"/>
</g>
</g>
</svg>
