<?xml version="1.0" encoding="UTF-8" standalone="no"?>
<!DOCTYPE svg PUBLIC "-//W3C//DTD SVG 1.1//EN"
 "http://www.w3.org/Graphics/SVG/1.1/DTD/svg11.dtd">
<!-- Generated by graphviz version 2.38.0 (20140413.2041)
 -->
<!-- Title: xmm::Phrase Pages: 1 -->
<svg width="464pt" height="168pt"
 viewBox="0.00 0.00 464.42 168.00" xmlns="http://www.w3.org/2000/svg" xmlns:xlink="http://www.w3.org/1999/xlink">
<g id="graph0" class="graph" transform="scale(1 1) rotate(0) translate(4 164)">
<title>xmm::Phrase</title>
<polygon fill="white" stroke="none" points="-4,4 -4,-164 460.425,-164 460.425,4 -4,4"/>
<!-- Node1 -->
<g id="node1" class="node"><title>Node1</title>
<polygon fill="#bfbfbf" stroke="black" points="381.523,-73.5 381.523,-91.5 456.425,-91.5 456.425,-73.5 381.523,-73.5"/>
<text text-anchor="middle" x="418.974" y="-79.5" font-family="Helvetica,sans-Serif" font-size="10.00">xmm::Phrase</text>
</g>
<!-- Node2 -->
<g id="node2" class="node"><title>Node2</title>
<g id="a_node2"><a xlink:href="classxmm_1_1_writable.html" target="_top" xlink:title="Abstract class for handling JSON + File I/O. ">
<polygon fill="white" stroke="black" points="165.227,-141.5 165.227,-159.5 244.942,-159.5 244.942,-141.5 165.227,-141.5"/>
<text text-anchor="middle" x="205.084" y="-147.5" font-family="Helvetica,sans-Serif" font-size="10.00">xmm::Writable</text>
</a>
</g>
</g>
<!-- Node2&#45;&gt;Node1 -->
<g id="edge1" class="edge"><title>Node2&#45;&gt;Node1</title>
<path fill="none" stroke="midnightblue" d="M254.961,-147.052C286.88,-143.475 328.902,-136.213 363.523,-121.5 380.646,-114.223 397.635,-100.808 407.969,-91.77"/>
<polygon fill="midnightblue" stroke="midnightblue" points="254.56,-143.574 244.974,-148.088 255.282,-150.537 254.56,-143.574"/>
</g>
<!-- Node3 -->
<g id="node3" class="node"><title>Node3</title>
<g id="a_node3"><a xlink:href="classxmm_1_1_attribute.html" target="_top" xlink:title="xmm::Attribute\&lt; unsigned\l int \&gt;">
<polygon fill="white" stroke="black" points="140.251,-94.5 140.251,-122.5 269.918,-122.5 269.918,-94.5 140.251,-94.5"/>
<text text-anchor="start" x="148.251" y="-110.5" font-family="Helvetica,sans-Serif" font-size="10.00">xmm::Attribute&lt; unsigned</text>
<text text-anchor="middle" x="205.084" y="-100.5" font-family="Helvetica,sans-Serif" font-size="10.00"> int &gt;</text>
</a>
</g>
</g>
<!-- Node3&#45;&gt;Node1 -->
<g id="edge2" class="edge"><title>Node3&#45;&gt;Node1</title>
<path fill="none" stroke="#9a32cd" stroke-dasharray="5,2" d="M279.942,-99.4373C314.241,-95.2287 353.493,-90.4121 381.35,-86.994"/>
<polygon fill="#9a32cd" stroke="#9a32cd" points="279.445,-95.9719 269.946,-100.664 280.298,-102.92 279.445,-95.9719"/>
<text text-anchor="middle" x="325.721" y="-109.5" font-family="Helvetica,sans-Serif" font-size="10.00"> dimension_input</text>
<text text-anchor="middle" x="325.721" y="-99.5" font-family="Helvetica,sans-Serif" font-size="10.00">dimension</text>
</g>
<!-- Node4 -->
<g id="node4" class="node"><title>Node4</title>
<g id="a_node4"><a xlink:href="classxmm_1_1_attribute_base.html" target="_top" xlink:title="Base Class for Generic Attributes. ">
<polygon fill="white" stroke="black" points="0,-78.5 0,-96.5 103.251,-96.5 103.251,-78.5 0,-78.5"/>
<text text-anchor="middle" x="51.6255" y="-84.5" font-family="Helvetica,sans-Serif" font-size="10.00">xmm::AttributeBase</text>
</a>
</g>
</g>
<!-- Node4&#45;&gt;Node3 -->
<g id="edge3" class="edge"><title>Node4&#45;&gt;Node3</title>
<path fill="none" stroke="midnightblue" d="M113.599,-95.9541C122.351,-97.1675 131.376,-98.4189 140.182,-99.6399"/>
<polygon fill="midnightblue" stroke="midnightblue" points="113.866,-92.4577 103.48,-94.5511 112.905,-99.3914 113.866,-92.4577"/>
</g>
<!-- Node6 -->
<g id="node6" class="node"><title>Node6</title>
<g id="a_node6"><a xlink:href="classxmm_1_1_attribute.html" target="_top" xlink:title="xmm::Attribute\&lt; std\l::string \&gt;">
<polygon fill="white" stroke="black" points="153.876,-47.5 153.876,-75.5 256.292,-75.5 256.292,-47.5 153.876,-47.5"/>
<text text-anchor="start" x="161.876" y="-63.5" font-family="Helvetica,sans-Serif" font-size="10.00">xmm::Attribute&lt; std</text>
<text text-anchor="middle" x="205.084" y="-53.5" font-family="Helvetica,sans-Serif" font-size="10.00">::string &gt;</text>
</a>
</g>
</g>
<!-- Node4&#45;&gt;Node6 -->
<g id="edge6" class="edge"><title>Node4&#45;&gt;Node6</title>
<path fill="none" stroke="midnightblue" d="M113.507,-77.0488C126.819,-74.7636 140.769,-72.369 153.621,-70.1627"/>
<polygon fill="midnightblue" stroke="midnightblue" points="112.744,-73.6285 103.48,-78.77 113.929,-80.5276 112.744,-73.6285"/>
</g>
<!-- Node5 -->
<g id="node5" class="node"><title>Node5</title>
<g id="a_node5"><a xlink:href="classxmm_1_1_event_generator.html" target="_top" xlink:title="xmm::EventGenerator\l\&lt; xmm::PhraseEvent \&gt;">
<polygon fill="white" stroke="black" points="146.23,-0.5 146.23,-28.5 263.939,-28.5 263.939,-0.5 146.23,-0.5"/>
<text text-anchor="start" x="154.23" y="-16.5" font-family="Helvetica,sans-Serif" font-size="10.00">xmm::EventGenerator</text>
<text text-anchor="middle" x="205.084" y="-6.5" font-family="Helvetica,sans-Serif" font-size="10.00">&lt; xmm::PhraseEvent &gt;</text>
</a>
</g>
</g>
<!-- Node5&#45;&gt;Node1 -->
<g id="edge4" class="edge"><title>Node5&#45;&gt;Node1</title>
<path fill="none" stroke="#9a32cd" stroke-dasharray="5,2" d="M274.185,-23.9073C302.484,-29.1612 335.253,-37.03 363.523,-48.5 379.221,-54.8688 395.473,-65.661 406.088,-73.3785"/>
<polygon fill="#9a32cd" stroke="#9a32cd" points="274.437,-20.3972 263.978,-22.0882 273.209,-27.2886 274.437,-20.3972"/>
<text text-anchor="middle" x="325.721" y="-50.5" font-family="Helvetica,sans-Serif" font-size="10.00"> events</text>
</g>
<!-- Node6&#45;&gt;Node1 -->
<g id="edge5" class="edge"><title>Node6&#45;&gt;Node1</title>
<path fill="none" stroke="#9a32cd" stroke-dasharray="5,2" d="M266.419,-61.976C295.834,-62.8662 331.656,-64.9258 363.523,-69.5 370.354,-70.4804 377.584,-71.917 384.466,-73.4812"/>
<polygon fill="#9a32cd" stroke="#9a32cd" points="266.388,-58.4741 256.299,-61.7077 266.203,-65.4716 266.388,-58.4741"/>
<text text-anchor="middle" x="325.721" y="-71.5" font-family="Helvetica,sans-Serif" font-size="10.00"> label</text>
</g>
</g>
</svg>
