<?xml version="1.0" encoding="UTF-8" standalone="no"?>
<!DOCTYPE svg PUBLIC "-//W3C//DTD SVG 1.1//EN"
 "http://www.w3.org/Graphics/SVG/1.1/DTD/svg11.dtd">
<!-- Generated by graphviz version 2.38.0 (20140413.2041)
 -->
<!-- Title: xmm::Writable Pages: 1 -->
<svg width="442pt" height="645pt"
 viewBox="0.00 0.00 442.06 645.00" xmlns="http://www.w3.org/2000/svg" xmlns:xlink="http://www.w3.org/1999/xlink">
<g id="graph0" class="graph" transform="scale(1 1) rotate(0) translate(4 641)">
<title>xmm::Writable</title>
<polygon fill="white" stroke="none" points="-4,4 -4,-641 438.062,-641 438.062,4 -4,4"/>
<!-- Node1 -->
<g id="node1" class="node"><title>Node1</title>
<polygon fill="#bfbfbf" stroke="black" points="0,-284.5 0,-302.5 79.7158,-302.5 79.7158,-284.5 0,-284.5"/>
<text text-anchor="middle" x="39.8579" y="-290.5" font-family="Helvetica,sans-Serif" font-size="10.00">xmm::Writable</text>
</g>
<!-- Node2 -->
<g id="node2" class="node"><title>Node2</title>
<g id="a_node2"><a xlink:href="classxmm_1_1_class_parameters.html" target="_top" xlink:title="xmm::ClassParameters\l\&lt; xmm::GMM \&gt;">
<polygon fill="white" stroke="black" points="136.707,-608.5 136.707,-636.5 256.613,-636.5 256.613,-608.5 136.707,-608.5"/>
<text text-anchor="start" x="144.707" y="-624.5" font-family="Helvetica,sans-Serif" font-size="10.00">xmm::ClassParameters</text>
<text text-anchor="middle" x="196.66" y="-614.5" font-family="Helvetica,sans-Serif" font-size="10.00">&lt; xmm::GMM &gt;</text>
</a>
</g>
</g>
<!-- Node1&#45;&gt;Node2 -->
<g id="edge1" class="edge"><title>Node1&#45;&gt;Node2</title>
<path fill="none" stroke="midnightblue" d="M43.043,-312.726C50.2783,-373.11 75.3172,-557.443 115.716,-599.5 121.519,-605.541 128.796,-610.025 136.581,-613.348"/>
<polygon fill="midnightblue" stroke="midnightblue" points="46.5046,-312.193 41.8666,-302.667 39.552,-313.006 46.5046,-312.193"/>
</g>
<!-- Node3 -->
<g id="node3" class="node"><title>Node3</title>
<g id="a_node3"><a xlink:href="classxmm_1_1_class_parameters.html" target="_top" xlink:title="xmm::ClassParameters\l\&lt; xmm::HMM \&gt;">
<polygon fill="white" stroke="black" points="136.707,-561.5 136.707,-589.5 256.613,-589.5 256.613,-561.5 136.707,-561.5"/>
<text text-anchor="start" x="144.707" y="-577.5" font-family="Helvetica,sans-Serif" font-size="10.00">xmm::ClassParameters</text>
<text text-anchor="middle" x="196.66" y="-567.5" font-family="Helvetica,sans-Serif" font-size="10.00">&lt; xmm::HMM &gt;</text>
</a>
</g>
</g>
<!-- Node1&#45;&gt;Node3 -->
<g id="edge2" class="edge"><title>Node1&#45;&gt;Node3</title>
<path fill="none" stroke="midnightblue" d="M40.5061,-312.749C40.7226,-360.418 48.1023,-484.969 115.716,-552.5 121.54,-558.317 128.734,-562.684 136.399,-565.959"/>
<polygon fill="midnightblue" stroke="midnightblue" points="44.0069,-312.622 40.5689,-302.601 37.007,-312.579 44.0069,-312.622"/>
</g>
<!-- Node4 -->
<g id="node4" class="node"><title>Node4</title>
<g id="a_node4"><a xlink:href="classxmm_1_1_class_parameters.html" target="_top" xlink:title="xmm::ClassParameters\l\&lt; xmm::KMeans \&gt;">
<polygon fill="white" stroke="black" points="136.707,-514.5 136.707,-542.5 256.613,-542.5 256.613,-514.5 136.707,-514.5"/>
<text text-anchor="start" x="144.707" y="-530.5" font-family="Helvetica,sans-Serif" font-size="10.00">xmm::ClassParameters</text>
<text text-anchor="middle" x="196.66" y="-520.5" font-family="Helvetica,sans-Serif" font-size="10.00">&lt; xmm::KMeans &gt;</text>
</a>
</g>
</g>
<!-- Node1&#45;&gt;Node4 -->
<g id="edge3" class="edge"><title>Node1&#45;&gt;Node4</title>
<path fill="none" stroke="midnightblue" d="M41.9647,-312.832C45.3999,-354.315 59.3713,-452.402 115.716,-505.5 121.707,-511.146 128.993,-515.418 136.701,-518.648"/>
<polygon fill="midnightblue" stroke="midnightblue" points="45.4461,-312.445 41.2487,-302.717 38.4636,-312.939 45.4461,-312.445"/>
</g>
<!-- Node6 -->
<g id="node6" class="node"><title>Node6</title>
<g id="a_node6"><a xlink:href="classxmm_1_1_model.html" target="_top" xlink:title="xmm::Model\&lt; SingleClassGMM,\l GMM \&gt;">
<polygon fill="white" stroke="black" points="117.115,-467.5 117.115,-495.5 276.206,-495.5 276.206,-467.5 117.115,-467.5"/>
<text text-anchor="start" x="125.115" y="-483.5" font-family="Helvetica,sans-Serif" font-size="10.00">xmm::Model&lt; SingleClassGMM,</text>
<text text-anchor="middle" x="196.66" y="-473.5" font-family="Helvetica,sans-Serif" font-size="10.00"> GMM &gt;</text>
</a>
</g>
</g>
<!-- Node1&#45;&gt;Node6 -->
<g id="edge5" class="edge"><title>Node1&#45;&gt;Node6</title>
<path fill="none" stroke="midnightblue" d="M44.1496,-312.701C51.0656,-347.11 70.3775,-419.332 115.716,-458.5 119.759,-461.993 124.304,-464.957 129.121,-467.472"/>
<polygon fill="midnightblue" stroke="midnightblue" points="47.5365,-311.771 42.2597,-302.584 40.6555,-313.056 47.5365,-311.771"/>
</g>
<!-- Node8 -->
<g id="node8" class="node"><title>Node8</title>
<g id="a_node8"><a xlink:href="classxmm_1_1_model.html" target="_top" xlink:title="xmm::Model\&lt; SingleClassHMM,\l HMM \&gt;">
<polygon fill="white" stroke="black" points="117.393,-420.5 117.393,-448.5 275.927,-448.5 275.927,-420.5 117.393,-420.5"/>
<text text-anchor="start" x="125.393" y="-436.5" font-family="Helvetica,sans-Serif" font-size="10.00">xmm::Model&lt; SingleClassHMM,</text>
<text text-anchor="middle" x="196.66" y="-426.5" font-family="Helvetica,sans-Serif" font-size="10.00"> HMM &gt;</text>
</a>
</g>
</g>
<!-- Node1&#45;&gt;Node8 -->
<g id="edge7" class="edge"><title>Node1&#45;&gt;Node8</title>
<path fill="none" stroke="midnightblue" d="M47.7702,-312.294C58.3554,-338.457 81.0694,-385.553 115.716,-411.5 120.34,-414.963 125.47,-417.905 130.837,-420.405"/>
<polygon fill="midnightblue" stroke="midnightblue" points="50.9617,-310.844 44.0862,-302.783 44.4342,-313.372 50.9617,-310.844"/>
</g>
<!-- Node10 -->
<g id="node10" class="node"><title>Node10</title>
<g id="a_node10"><a xlink:href="classxmm_1_1_class_parameters.html" target="_top" xlink:title="Class&#45;specific Model Parameters. ">
<polygon fill="white" stroke="black" points="136.707,-373.5 136.707,-401.5 256.613,-401.5 256.613,-373.5 136.707,-373.5"/>
<text text-anchor="start" x="144.707" y="-389.5" font-family="Helvetica,sans-Serif" font-size="10.00">xmm::ClassParameters</text>
<text text-anchor="middle" x="196.66" y="-379.5" font-family="Helvetica,sans-Serif" font-size="10.00">&lt; ModelType &gt;</text>
</a>
</g>
</g>
<!-- Node1&#45;&gt;Node10 -->
<g id="edge9" class="edge"><title>Node1&#45;&gt;Node10</title>
<path fill="none" stroke="midnightblue" d="M54.8489,-310.897C68.6983,-327.016 91.3145,-350.543 115.716,-364.5 122.235,-368.229 129.404,-371.391 136.69,-374.064"/>
<polygon fill="midnightblue" stroke="midnightblue" points="57.1959,-308.247 48.1011,-302.812 51.8218,-312.732 57.1959,-308.247"/>
</g>
<!-- Node12 -->
<g id="node12" class="node"><title>Node12</title>
<g id="a_node12"><a xlink:href="classxmm_1_1_class_parameters_3_01_g_m_m_01_4.html" target="_top" xlink:title="Parameters specific to each class of a Gaussian Mixture Model. ">
<polygon fill="white" stroke="black" points="136.707,-326.5 136.707,-354.5 256.613,-354.5 256.613,-326.5 136.707,-326.5"/>
<text text-anchor="start" x="144.707" y="-342.5" font-family="Helvetica,sans-Serif" font-size="10.00">xmm::ClassParameters</text>
<text text-anchor="middle" x="196.66" y="-332.5" font-family="Helvetica,sans-Serif" font-size="10.00">&lt; GMM &gt;</text>
</a>
</g>
</g>
<!-- Node1&#45;&gt;Node12 -->
<g id="edge11" class="edge"><title>Node1&#45;&gt;Node12</title>
<path fill="none" stroke="midnightblue" d="M78.1995,-305.716C90.1597,-309.563 103.474,-313.778 115.716,-317.5 125.526,-320.483 136.044,-323.581 146.123,-326.5"/>
<polygon fill="midnightblue" stroke="midnightblue" points="79.1165,-302.334 68.5247,-302.589 76.964,-308.995 79.1165,-302.334"/>
</g>
<!-- Node14 -->
<g id="node14" class="node"><title>Node14</title>
<g id="a_node14"><a xlink:href="classxmm_1_1_class_parameters_3_01_k_means_01_4.html" target="_top" xlink:title="Parameters specific to each class of a K&#45;Means Algorithm. ">
<polygon fill="white" stroke="black" points="136.707,-279.5 136.707,-307.5 256.613,-307.5 256.613,-279.5 136.707,-279.5"/>
<text text-anchor="start" x="144.707" y="-295.5" font-family="Helvetica,sans-Serif" font-size="10.00">xmm::ClassParameters</text>
<text text-anchor="middle" x="196.66" y="-285.5" font-family="Helvetica,sans-Serif" font-size="10.00">&lt; KMeans &gt;</text>
</a>
</g>
</g>
<!-- Node1&#45;&gt;Node14 -->
<g id="edge13" class="edge"><title>Node1&#45;&gt;Node14</title>
<path fill="none" stroke="midnightblue" d="M90.3472,-293.5C105.095,-293.5 121.404,-293.5 136.694,-293.5"/>
<polygon fill="midnightblue" stroke="midnightblue" points="89.9211,-290 79.9211,-293.5 89.921,-297 89.9211,-290"/>
</g>
<!-- Node15 -->
<g id="node15" class="node"><title>Node15</title>
<g id="a_node15"><a xlink:href="classxmm_1_1_gaussian_distribution.html" target="_top" xlink:title="Multivariate Gaussian Distribution. ">
<polygon fill="white" stroke="black" points="128.919,-242.5 128.919,-260.5 264.401,-260.5 264.401,-242.5 128.919,-242.5"/>
<text text-anchor="middle" x="196.66" y="-248.5" font-family="Helvetica,sans-Serif" font-size="10.00">xmm::GaussianDistribution</text>
</a>
</g>
</g>
<!-- Node1&#45;&gt;Node15 -->
<g id="edge14" class="edge"><title>Node1&#45;&gt;Node15</title>
<path fill="none" stroke="midnightblue" d="M78.4295,-281.435C90.3091,-277.761 103.52,-273.819 115.716,-270.5 128.517,-267.016 142.568,-263.556 155.271,-260.562"/>
<polygon fill="midnightblue" stroke="midnightblue" points="77.3163,-278.116 68.8152,-284.439 79.404,-284.798 77.3163,-278.116"/>
</g>
<!-- Node16 -->
<g id="node16" class="node"><title>Node16</title>
<g id="a_node16"><a xlink:href="classxmm_1_1_k_means.html" target="_top" xlink:title="K&#45;Means Clustering algorithm. ">
<polygon fill="white" stroke="black" points="156.709,-205.5 156.709,-223.5 236.611,-223.5 236.611,-205.5 156.709,-205.5"/>
<text text-anchor="middle" x="196.66" y="-211.5" font-family="Helvetica,sans-Serif" font-size="10.00">xmm::KMeans</text>
</a>
</g>
</g>
<!-- Node1&#45;&gt;Node16 -->
<g id="edge15" class="edge"><title>Node1&#45;&gt;Node16</title>
<path fill="none" stroke="midnightblue" d="M57.0535,-276.927C71.29,-263.299 93.1987,-244.502 115.716,-233.5 128.405,-227.3 143.236,-223.054 156.654,-220.177"/>
<polygon fill="midnightblue" stroke="midnightblue" points="54.2808,-274.745 49.6112,-284.256 59.1923,-279.733 54.2808,-274.745"/>
</g>
<!-- Node17 -->
<g id="node17" class="node"><title>Node17</title>
<g id="a_node17"><a xlink:href="classxmm_1_1_model.html" target="_top" xlink:title="Probabilistic machine learning model for multiclass recognition and regression. ">
<polygon fill="white" stroke="black" points="115.716,-158.5 115.716,-186.5 277.604,-186.5 277.604,-158.5 115.716,-158.5"/>
<text text-anchor="start" x="123.716" y="-174.5" font-family="Helvetica,sans-Serif" font-size="10.00">xmm::Model&lt; SingleClassModel,</text>
<text text-anchor="middle" x="196.66" y="-164.5" font-family="Helvetica,sans-Serif" font-size="10.00"> ModelType &gt;</text>
</a>
</g>
</g>
<!-- Node1&#45;&gt;Node17 -->
<g id="edge16" class="edge"><title>Node1&#45;&gt;Node17</title>
<path fill="none" stroke="midnightblue" d="M50.0743,-275.608C62.223,-253.77 85.6243,-217.201 115.716,-196.5 121.327,-192.64 127.573,-189.388 134.03,-186.651"/>
<polygon fill="midnightblue" stroke="midnightblue" points="46.9493,-274.029 45.3007,-284.495 53.116,-277.342 46.9493,-274.029"/>
</g>
<!-- Node18 -->
<g id="node18" class="node"><title>Node18</title>
<g id="a_node18"><a xlink:href="classxmm_1_1_phrase.html" target="_top" xlink:title="Data phrase. ">
<polygon fill="white" stroke="black" points="159.209,-121.5 159.209,-139.5 234.111,-139.5 234.111,-121.5 159.209,-121.5"/>
<text text-anchor="middle" x="196.66" y="-127.5" font-family="Helvetica,sans-Serif" font-size="10.00">xmm::Phrase</text>
</a>
</g>
</g>
<!-- Node1&#45;&gt;Node18 -->
<g id="edge17" class="edge"><title>Node1&#45;&gt;Node18</title>
<path fill="none" stroke="midnightblue" d="M45.2997,-274.388C53.5675,-243.235 74.359,-181.754 115.716,-149.5 127.977,-139.937 144.291,-135.073 158.982,-132.64"/>
<polygon fill="midnightblue" stroke="midnightblue" points="41.831,-273.833 42.8055,-284.383 48.6227,-275.528 41.831,-273.833"/>
</g>
<!-- Node19 -->
<g id="node19" class="node"><title>Node19</title>
<g id="a_node19"><a xlink:href="classxmm_1_1_shared_parameters.html" target="_top" xlink:title="Shared Parameters for models with multiple classes. ">
<polygon fill="white" stroke="black" points="133.086,-84.5 133.086,-102.5 260.234,-102.5 260.234,-84.5 133.086,-84.5"/>
<text text-anchor="middle" x="196.66" y="-90.5" font-family="Helvetica,sans-Serif" font-size="10.00">xmm::SharedParameters</text>
</a>
</g>
</g>
<!-- Node1&#45;&gt;Node19 -->
<g id="edge18" class="edge"><title>Node1&#45;&gt;Node19</title>
<path fill="none" stroke="midnightblue" d="M43.075,-274.288C48.4213,-237.123 65.5309,-155.286 115.716,-112.5 120.818,-108.15 126.742,-104.757 133.013,-102.116"/>
<polygon fill="midnightblue" stroke="midnightblue" points="39.5926,-273.927 41.7699,-284.295 46.5338,-274.832 39.5926,-273.927"/>
</g>
<!-- Node20 -->
<g id="node20" class="node"><title>Node20</title>
<g id="a_node20"><a xlink:href="classxmm_1_1_single_class_probabilistic_model.html" target="_top" xlink:title="Generic Template for Machine Learning Probabilistic models based on the EM algorithm. ">
<polygon fill="white" stroke="black" points="121.695,-37.5 121.695,-65.5 271.625,-65.5 271.625,-37.5 121.695,-37.5"/>
<text text-anchor="start" x="129.695" y="-53.5" font-family="Helvetica,sans-Serif" font-size="10.00">xmm::SingleClassProbabilistic</text>
<text text-anchor="middle" x="196.66" y="-43.5" font-family="Helvetica,sans-Serif" font-size="10.00">Model</text>
</a>
</g>
</g>
<!-- Node1&#45;&gt;Node20 -->
<g id="edge19" class="edge"><title>Node1&#45;&gt;Node20</title>
<path fill="none" stroke="midnightblue" d="M41.8125,-273.956C44.9516,-231.581 58.3812,-130.634 115.716,-75.5 119.789,-71.5827 124.477,-68.3019 129.498,-65.5546"/>
<polygon fill="midnightblue" stroke="midnightblue" points="38.312,-273.855 41.1826,-284.054 45.2984,-274.291 38.312,-273.855"/>
</g>
<!-- Node23 -->
<g id="node23" class="node"><title>Node23</title>
<g id="a_node23"><a xlink:href="classxmm_1_1_training_set.html" target="_top" xlink:title="Base class for the definition of training sets. ">
<polygon fill="white" stroke="black" points="149.666,-0.5 149.666,-18.5 243.654,-18.5 243.654,-0.5 149.666,-0.5"/>
<text text-anchor="middle" x="196.66" y="-6.5" font-family="Helvetica,sans-Serif" font-size="10.00">xmm::TrainingSet</text>
</a>
</g>
</g>
<!-- Node1&#45;&gt;Node23 -->
<g id="edge22" class="edge"><title>Node1&#45;&gt;Node23</title>
<path fill="none" stroke="midnightblue" d="M40.1651,-274.258C39.5249,-225.534 44.9559,-96.3505 115.716,-28.5 124.777,-19.8113 137.055,-14.8509 149.268,-12.0824"/>
<polygon fill="midnightblue" stroke="midnightblue" points="36.6684,-274.438 40.4057,-284.352 43.6664,-274.271 36.6684,-274.438"/>
</g>
<!-- Node5 -->
<g id="node5" class="node"><title>Node5</title>
<g id="a_node5"><a xlink:href="classxmm_1_1_configuration.html" target="_top" xlink:title="xmm::Configuration\l\&lt; xmm::KMeans \&gt;">
<polygon fill="white" stroke="black" points="322.484,-514.5 322.484,-542.5 425.183,-542.5 425.183,-514.5 322.484,-514.5"/>
<text text-anchor="start" x="330.484" y="-530.5" font-family="Helvetica,sans-Serif" font-size="10.00">xmm::Configuration</text>
<text text-anchor="middle" x="373.833" y="-520.5" font-family="Helvetica,sans-Serif" font-size="10.00">&lt; xmm::KMeans &gt;</text>
</a>
</g>
</g>
<!-- Node4&#45;&gt;Node5 -->
<g id="edge4" class="edge"><title>Node4&#45;&gt;Node5</title>
<path fill="none" stroke="midnightblue" d="M267.082,-528.5C285.541,-528.5 305.125,-528.5 322.357,-528.5"/>
<polygon fill="midnightblue" stroke="midnightblue" points="266.966,-525 256.966,-528.5 266.966,-532 266.966,-525"/>
</g>
<!-- Node7 -->
<g id="node7" class="node"><title>Node7</title>
<g id="a_node7"><a xlink:href="classxmm_1_1_g_m_m.html" target="_top" xlink:title="Gaussian Mixture Model for Continuous Recognition and Regression (Multi&#45;class) ">
<polygon fill="white" stroke="black" points="340.006,-472.5 340.006,-490.5 407.661,-490.5 407.661,-472.5 340.006,-472.5"/>
<text text-anchor="middle" x="373.833" y="-478.5" font-family="Helvetica,sans-Serif" font-size="10.00">xmm::GMM</text>
</a>
</g>
</g>
<!-- Node6&#45;&gt;Node7 -->
<g id="edge6" class="edge"><title>Node6&#45;&gt;Node7</title>
<path fill="none" stroke="midnightblue" d="M286.54,-481.5C305.593,-481.5 324.564,-481.5 339.847,-481.5"/>
<polygon fill="midnightblue" stroke="midnightblue" points="286.28,-478 276.28,-481.5 286.28,-485 286.28,-478"/>
</g>
<!-- Node9 -->
<g id="node9" class="node"><title>Node9</title>
<g id="a_node9"><a xlink:href="classxmm_1_1_hierarchical_h_m_m.html" target="_top" xlink:title="Hierarchical Hidden Markov Model for Continuous Recognition and Regression (Multi&#45;class) ...">
<polygon fill="white" stroke="black" points="313.888,-425.5 313.888,-443.5 433.779,-443.5 433.779,-425.5 313.888,-425.5"/>
<text text-anchor="middle" x="373.833" y="-431.5" font-family="Helvetica,sans-Serif" font-size="10.00">xmm::HierarchicalHMM</text>
</a>
</g>
</g>
<!-- Node8&#45;&gt;Node9 -->
<g id="edge8" class="edge"><title>Node8&#45;&gt;Node9</title>
<path fill="none" stroke="midnightblue" d="M286.15,-434.5C295.494,-434.5 304.825,-434.5 313.717,-434.5"/>
<polygon fill="midnightblue" stroke="midnightblue" points="286.024,-431 276.024,-434.5 286.024,-438 286.024,-431"/>
</g>
<!-- Node11 -->
<g id="node11" class="node"><title>Node11</title>
<g id="a_node11"><a xlink:href="classxmm_1_1_configuration.html" target="_top" xlink:title="Model configuration. ">
<polygon fill="white" stroke="black" points="322.484,-373.5 322.484,-401.5 425.183,-401.5 425.183,-373.5 322.484,-373.5"/>
<text text-anchor="start" x="330.484" y="-389.5" font-family="Helvetica,sans-Serif" font-size="10.00">xmm::Configuration</text>
<text text-anchor="middle" x="373.833" y="-379.5" font-family="Helvetica,sans-Serif" font-size="10.00">&lt; ModelType &gt;</text>
</a>
</g>
</g>
<!-- Node10&#45;&gt;Node11 -->
<g id="edge10" class="edge"><title>Node10&#45;&gt;Node11</title>
<path fill="none" stroke="midnightblue" d="M267.082,-387.5C285.541,-387.5 305.125,-387.5 322.357,-387.5"/>
<polygon fill="midnightblue" stroke="midnightblue" points="266.966,-384 256.966,-387.5 266.966,-391 266.966,-384"/>
</g>
<!-- Node13 -->
<g id="node13" class="node"><title>Node13</title>
<g id="a_node13"><a xlink:href="classxmm_1_1_configuration.html" target="_top" xlink:title="xmm::Configuration\l\&lt; GMM \&gt;">
<polygon fill="white" stroke="black" points="322.484,-326.5 322.484,-354.5 425.183,-354.5 425.183,-326.5 322.484,-326.5"/>
<text text-anchor="start" x="330.484" y="-342.5" font-family="Helvetica,sans-Serif" font-size="10.00">xmm::Configuration</text>
<text text-anchor="middle" x="373.833" y="-332.5" font-family="Helvetica,sans-Serif" font-size="10.00">&lt; GMM &gt;</text>
</a>
</g>
</g>
<!-- Node12&#45;&gt;Node13 -->
<g id="edge12" class="edge"><title>Node12&#45;&gt;Node13</title>
<path fill="none" stroke="midnightblue" d="M267.082,-340.5C285.541,-340.5 305.125,-340.5 322.357,-340.5"/>
<polygon fill="midnightblue" stroke="midnightblue" points="266.966,-337 256.966,-340.5 266.966,-344 266.966,-337"/>
</g>
<!-- Node21 -->
<g id="node21" class="node"><title>Node21</title>
<g id="a_node21"><a xlink:href="classxmm_1_1_single_class_g_m_m.html" target="_top" xlink:title="Single&#45;Class Gaussian Mixture Model. ">
<polygon fill="white" stroke="black" points="313.604,-60.5 313.604,-78.5 434.062,-78.5 434.062,-60.5 313.604,-60.5"/>
<text text-anchor="middle" x="373.833" y="-66.5" font-family="Helvetica,sans-Serif" font-size="10.00">xmm::SingleClassGMM</text>
</a>
</g>
</g>
<!-- Node20&#45;&gt;Node21 -->
<g id="edge20" class="edge"><title>Node20&#45;&gt;Node21</title>
<path fill="none" stroke="midnightblue" d="M281.866,-60.1526C292.517,-61.247 303.234,-62.3483 313.387,-63.3916"/>
<polygon fill="midnightblue" stroke="midnightblue" points="282.001,-56.6481 271.696,-59.1075 281.285,-63.6115 282.001,-56.6481"/>
</g>
<!-- Node22 -->
<g id="node22" class="node"><title>Node22</title>
<g id="a_node22"><a xlink:href="classxmm_1_1_single_class_h_m_m.html" target="_top" xlink:title="Single&#45;Class Hidden Markov Model. ">
<polygon fill="white" stroke="black" points="313.883,-23.5 313.883,-41.5 433.784,-41.5 433.784,-23.5 313.883,-23.5"/>
<text text-anchor="middle" x="373.833" y="-29.5" font-family="Helvetica,sans-Serif" font-size="10.00">xmm::SingleClassHMM</text>
</a>
</g>
</g>
<!-- Node20&#45;&gt;Node22 -->
<g id="edge21" class="edge"><title>Node20&#45;&gt;Node22</title>
<path fill="none" stroke="midnightblue" d="M281.934,-42.3593C292.657,-41.1963 303.446,-40.0261 313.657,-38.9186"/>
<polygon fill="midnightblue" stroke="midnightblue" points="281.26,-38.9118 271.696,-43.4698 282.015,-45.871 281.26,-38.9118"/>
</g>
</g>
</svg>
