<?xml version="1.0" encoding="UTF-8" standalone="no"?>
<!DOCTYPE svg PUBLIC "-//W3C//DTD SVG 1.1//EN"
 "http://www.w3.org/Graphics/SVG/1.1/DTD/svg11.dtd">
<!-- Generated by graphviz version 2.38.0 (20140413.2041)
 -->
<!-- Title: xmm::Model&lt; SingleClassModel, ModelType &gt; Pages: 1 -->
<svg width="228pt" height="112pt"
 viewBox="0.00 0.00 227.75 112.00" xmlns="http://www.w3.org/2000/svg" xmlns:xlink="http://www.w3.org/1999/xlink">
<g id="graph0" class="graph" transform="scale(1 1) rotate(0) translate(4 108)">
<title>xmm::Model&lt; SingleClassModel, ModelType &gt;</title>
<polygon fill="white" stroke="none" points="-4,4 -4,-108 223.751,-108 223.751,4 -4,4"/>
<!-- Node1 -->
<g id="node1" class="node"><title>Node1</title>
<polygon fill="#bfbfbf" stroke="black" points="17.9136,-0.5 17.9136,-28.5 179.802,-28.5 179.802,-0.5 17.9136,-0.5"/>
<text text-anchor="start" x="25.9136" y="-16.5" font-family="Helvetica,sans-Serif" font-size="10.00">xmm::Model&lt; SingleClassModel,</text>
<text text-anchor="middle" x="98.8579" y="-6.5" font-family="Helvetica,sans-Serif" font-size="10.00"> ModelType &gt;</text>
</g>
<!-- Node2 -->
<g id="node2" class="node"><title>Node2</title>
<g id="a_node2"><a xlink:href="classxmm_1_1_writable.html" target="_top" xlink:title="Abstract class for handling JSON + File I/O. ">
<polygon fill="white" stroke="black" points="0,-80.5 0,-98.5 79.7158,-98.5 79.7158,-80.5 0,-80.5"/>
<text text-anchor="middle" x="39.8579" y="-86.5" font-family="Helvetica,sans-Serif" font-size="10.00">xmm::Writable</text>
</a>
</g>
</g>
<!-- Node2&#45;&gt;Node1 -->
<g id="edge1" class="edge"><title>Node2&#45;&gt;Node1</title>
<path fill="none" stroke="midnightblue" d="M52.6834,-72.6312C63.3465,-59.4378 78.3377,-40.8894 88.3131,-28.547"/>
<polygon fill="midnightblue" stroke="midnightblue" points="49.9612,-70.4313 46.3974,-80.4088 55.4054,-74.8314 49.9612,-70.4313"/>
</g>
<!-- Node3 -->
<g id="node3" class="node"><title>Node3</title>
<g id="a_node3"><a xlink:href="classxmm_1_1_event_generator.html" target="_top" xlink:title="xmm::EventGenerator\l\&lt; xmm::TrainingEvent \&gt;">
<polygon fill="white" stroke="black" points="97.9648,-75.5 97.9648,-103.5 219.751,-103.5 219.751,-75.5 97.9648,-75.5"/>
<text text-anchor="start" x="105.965" y="-91.5" font-family="Helvetica,sans-Serif" font-size="10.00">xmm::EventGenerator</text>
<text text-anchor="middle" x="158.858" y="-81.5" font-family="Helvetica,sans-Serif" font-size="10.00">&lt; xmm::TrainingEvent &gt;</text>
</a>
</g>
</g>
<!-- Node3&#45;&gt;Node1 -->
<g id="edge2" class="edge"><title>Node3&#45;&gt;Node1</title>
<path fill="none" stroke="#9a32cd" stroke-dasharray="5,2" d="M141.531,-67.4191C131.337,-55.0163 118.751,-39.7032 109.898,-28.9318"/>
<polygon fill="#9a32cd" stroke="#9a32cd" points="139.078,-69.946 148.131,-75.4491 144.485,-65.5012 139.078,-69.946"/>
<text text-anchor="middle" x="168.158" y="-49" font-family="Helvetica,sans-Serif" font-size="10.00"> training_events</text>
</g>
</g>
</svg>
