<?xml version="1.0" encoding="UTF-8" standalone="no"?>
<!DOCTYPE svg PUBLIC "-//W3C//DTD SVG 1.1//EN"
 "http://www.w3.org/Graphics/SVG/1.1/DTD/svg11.dtd">
<!-- Generated by graphviz version 2.38.0 (20140413.2041)
 -->
<!-- Title: distributions Pages: 1 -->
<svg width="110pt" height="150pt"
 viewBox="0.00 0.00 110.00 150.00" xmlns="http://www.w3.org/2000/svg" xmlns:xlink="http://www.w3.org/1999/xlink">
<g id="graph0" class="graph" transform="scale(1 1) rotate(0) translate(4 146)">
<title>distributions</title>
<polygon fill="white" stroke="none" points="-4,4 -4,-146 106,-146 106,4 -4,4"/>
<g id="clust1" class="cluster"><title>clusterdir_aebb8dcc11953d78e620bbef0b9e2183</title>
<g id="a_clust1"><a xlink:href="dir_aebb8dcc11953d78e620bbef0b9e2183.html" target="_top" xlink:title="core">
<polygon fill="#ddddee" stroke="black" points="8,-64 8,-134 94,-134 94,-64 8,-64"/>
<text text-anchor="middle" x="51" y="-122" font-family="Helvetica,sans-Serif" font-size="10.00">core</text>
</a>
</g>
</g>
<!-- dir_32e037f58a61c807d5ca7d55bede9c07 -->
<g id="node1" class="node"><title>dir_32e037f58a61c807d5ca7d55bede9c07</title>
<g id="a_node1"><a xlink:href="dir_32e037f58a61c807d5ca7d55bede9c07.html" target="_top" xlink:title="distributions">
<polygon fill="#eeeeff" stroke="black" points="85.8603,-108 16.1397,-108 16.1397,-72 85.8603,-72 85.8603,-108"/>
<text text-anchor="middle" x="51" y="-87" font-family="Helvetica,sans-Serif" font-size="10.00">distributions</text>
</a>
</g>
</g>
<!-- dir_34b4cee2b5900b653deb3438fc906cf4 -->
<g id="node2" class="node"><title>dir_34b4cee2b5900b653deb3438fc906cf4</title>
<g id="a_node2"><a xlink:href="dir_34b4cee2b5900b653deb3438fc906cf4.html" target="_top" xlink:title="common">
<polygon fill="none" stroke="black" points="78.3458,-36 23.6542,-36 23.6542,-0 78.3458,-0 78.3458,-36"/>
<text text-anchor="middle" x="51" y="-15" font-family="Helvetica,sans-Serif" font-size="10.00">common</text>
</a>
</g>
</g>
<!-- dir_32e037f58a61c807d5ca7d55bede9c07&#45;&gt;dir_34b4cee2b5900b653deb3438fc906cf4 -->
<g id="edge1" class="edge"><title>dir_32e037f58a61c807d5ca7d55bede9c07&#45;&gt;dir_34b4cee2b5900b653deb3438fc906cf4</title>
<path fill="none" stroke="black" d="M51,-71.6966C51,-63.9827 51,-54.7125 51,-46.1124"/>
<polygon fill="black" stroke="black" points="54.5001,-46.1043 51,-36.1043 47.5001,-46.1044 54.5001,-46.1043"/>
<g id="a_edge1&#45;headlabel"><a xlink:href="dir_000003_000002.html" target="_top" xlink:title="3">
<text text-anchor="middle" x="57.3393" y="-46.699" font-family="Helvetica,sans-Serif" font-size="10.00">3</text>
</a>
</g>
</g>
</g>
</svg>
