<?xml version="1.0" encoding="UTF-8" standalone="no"?>
<!DOCTYPE svg PUBLIC "-//W3C//DTD SVG 1.1//EN"
 "http://www.w3.org/Graphics/SVG/1.1/DTD/svg11.dtd">
<!-- Generated by graphviz version 2.38.0 (20140413.2041)
 -->
<!-- Title: trainingset Pages: 1 -->
<svg width="102pt" height="150pt"
 viewBox="0.00 0.00 102.00 150.00" xmlns="http://www.w3.org/2000/svg" xmlns:xlink="http://www.w3.org/1999/xlink">
<g id="graph0" class="graph" transform="scale(1 1) rotate(0) translate(4 146)">
<title>trainingset</title>
<polygon fill="white" stroke="none" points="-4,4 -4,-146 98,-146 98,4 -4,4"/>
<g id="clust1" class="cluster"><title>clusterdir_aebb8dcc11953d78e620bbef0b9e2183</title>
<g id="a_clust1"><a xlink:href="dir_aebb8dcc11953d78e620bbef0b9e2183.html" target="_top" xlink:title="core">
<polygon fill="#ddddee" stroke="black" points="8,-64 8,-134 86,-134 86,-64 8,-64"/>
<text text-anchor="middle" x="47" y="-122" font-family="Helvetica,sans-Serif" font-size="10.00">core</text>
</a>
</g>
</g>
<!-- dir_6f14c849811cbcad3670c743991fe725 -->
<g id="node1" class="node"><title>dir_6f14c849811cbcad3670c743991fe725</title>
<g id="a_node1"><a xlink:href="dir_6f14c849811cbcad3670c743991fe725.html" target="_top" xlink:title="trainingset">
<polygon fill="#eeeeff" stroke="black" points="78.1378,-108 15.8622,-108 15.8622,-72 78.1378,-72 78.1378,-108"/>
<text text-anchor="middle" x="47" y="-87" font-family="Helvetica,sans-Serif" font-size="10.00">trainingset</text>
</a>
</g>
</g>
<!-- dir_34b4cee2b5900b653deb3438fc906cf4 -->
<g id="node2" class="node"><title>dir_34b4cee2b5900b653deb3438fc906cf4</title>
<g id="a_node2"><a xlink:href="dir_34b4cee2b5900b653deb3438fc906cf4.html" target="_top" xlink:title="common">
<polygon fill="none" stroke="black" points="74.3458,-36 19.6542,-36 19.6542,-0 74.3458,-0 74.3458,-36"/>
<text text-anchor="middle" x="47" y="-15" font-family="Helvetica,sans-Serif" font-size="10.00">common</text>
</a>
</g>
</g>
<!-- dir_6f14c849811cbcad3670c743991fe725&#45;&gt;dir_34b4cee2b5900b653deb3438fc906cf4 -->
<g id="edge1" class="edge"><title>dir_6f14c849811cbcad3670c743991fe725&#45;&gt;dir_34b4cee2b5900b653deb3438fc906cf4</title>
<path fill="none" stroke="black" d="M47,-71.6966C47,-63.9827 47,-54.7125 47,-46.1124"/>
<polygon fill="black" stroke="black" points="50.5001,-46.1043 47,-36.1043 43.5001,-46.1044 50.5001,-46.1043"/>
<g id="a_edge1&#45;headlabel"><a xlink:href="dir_000009_000002.html" target="_top" xlink:title="3">
<text text-anchor="middle" x="53.3393" y="-46.699" font-family="Helvetica,sans-Serif" font-size="10.00">3</text>
</a>
</g>
</g>
</g>
</svg>
