<?xml version="1.0" encoding="UTF-8" standalone="no"?>
<!DOCTYPE svg PUBLIC "-//W3C//DTD SVG 1.1//EN"
 "http://www.w3.org/Graphics/SVG/1.1/DTD/svg11.dtd">
<!-- Generated by graphviz version 2.38.0 (20140413.2041)
 -->
<!-- Title: model Pages: 1 -->
<svg width="112pt" height="222pt"
 viewBox="0.00 0.00 112.07 222.00" xmlns="http://www.w3.org/2000/svg" xmlns:xlink="http://www.w3.org/1999/xlink">
<g id="graph0" class="graph" transform="scale(1 1) rotate(0) translate(4 218)">
<title>model</title>
<polygon fill="white" stroke="none" points="-4,4 -4,-218 108.069,-218 108.069,4 -4,4"/>
<g id="clust1" class="cluster"><title>clusterdir_aebb8dcc11953d78e620bbef0b9e2183</title>
<g id="a_clust1"><a xlink:href="dir_aebb8dcc11953d78e620bbef0b9e2183.html" target="_top" xlink:title="core">
<polygon fill="#ddddee" stroke="black" points="8,-136 8,-206 78,-206 78,-136 8,-136"/>
<text text-anchor="middle" x="43" y="-194" font-family="Helvetica,sans-Serif" font-size="10.00">core</text>
</a>
</g>
</g>
<!-- dir_db6209eff64d15a114e6ff7aefbf1abd -->
<g id="node1" class="node"><title>dir_db6209eff64d15a114e6ff7aefbf1abd</title>
<g id="a_node1"><a xlink:href="dir_db6209eff64d15a114e6ff7aefbf1abd.html" target="_top" xlink:title="model">
<polygon fill="#eeeeff" stroke="black" points="70,-180 16,-180 16,-144 70,-144 70,-180"/>
<text text-anchor="middle" x="43" y="-159" font-family="Helvetica,sans-Serif" font-size="10.00">model</text>
</a>
</g>
</g>
<!-- dir_34b4cee2b5900b653deb3438fc906cf4 -->
<g id="node2" class="node"><title>dir_34b4cee2b5900b653deb3438fc906cf4</title>
<g id="a_node2"><a xlink:href="dir_34b4cee2b5900b653deb3438fc906cf4.html" target="_top" xlink:title="common">
<polygon fill="none" stroke="black" points="70.3458,-36 15.6542,-36 15.6542,-0 70.3458,-0 70.3458,-36"/>
<text text-anchor="middle" x="43" y="-15" font-family="Helvetica,sans-Serif" font-size="10.00">common</text>
</a>
</g>
</g>
<!-- dir_db6209eff64d15a114e6ff7aefbf1abd&#45;&gt;dir_34b4cee2b5900b653deb3438fc906cf4 -->
<g id="edge2" class="edge"><title>dir_db6209eff64d15a114e6ff7aefbf1abd&#45;&gt;dir_34b4cee2b5900b653deb3438fc906cf4</title>
<path fill="none" stroke="black" d="M38.9409,-143.929C36.6944,-133.598 34.1334,-120.12 33,-108 31.5103,-92.0695 31.5103,-87.9305 33,-72 33.7969,-63.4781 35.2996,-54.2849 36.9025,-45.9862"/>
<polygon fill="black" stroke="black" points="40.3555,-46.5708 38.9409,-36.0708 33.4989,-45.1612 40.3555,-46.5708"/>
<g id="a_edge2&#45;headlabel"><a xlink:href="dir_000008_000002.html" target="_top" xlink:title="5">
<text text-anchor="middle" x="42.4129" y="-47.6635" font-family="Helvetica,sans-Serif" font-size="10.00">5</text>
</a>
</g>
</g>
<!-- dir_6f14c849811cbcad3670c743991fe725 -->
<g id="node3" class="node"><title>dir_6f14c849811cbcad3670c743991fe725</title>
<g id="a_node3"><a xlink:href="dir_6f14c849811cbcad3670c743991fe725.html" target="_top" xlink:title="trainingset">
<polygon fill="none" stroke="black" points="104.138,-108 41.8622,-108 41.8622,-72 104.138,-72 104.138,-108"/>
<text text-anchor="middle" x="73" y="-87" font-family="Helvetica,sans-Serif" font-size="10.00">trainingset</text>
</a>
</g>
</g>
<!-- dir_db6209eff64d15a114e6ff7aefbf1abd&#45;&gt;dir_6f14c849811cbcad3670c743991fe725 -->
<g id="edge3" class="edge"><title>dir_db6209eff64d15a114e6ff7aefbf1abd&#45;&gt;dir_6f14c849811cbcad3670c743991fe725</title>
<path fill="none" stroke="black" d="M50.4157,-143.697C53.7944,-135.813 57.8696,-126.304 61.623,-117.546"/>
<polygon fill="black" stroke="black" points="64.9473,-118.675 65.6696,-108.104 58.5133,-115.917 64.9473,-118.675"/>
<g id="a_edge3&#45;headlabel"><a xlink:href="dir_000008_000009.html" target="_top" xlink:title="2">
<text text-anchor="middle" x="66.1411" y="-120.097" font-family="Helvetica,sans-Serif" font-size="10.00">2</text>
</a>
</g>
</g>
<!-- dir_6f14c849811cbcad3670c743991fe725&#45;&gt;dir_34b4cee2b5900b653deb3438fc906cf4 -->
<g id="edge1" class="edge"><title>dir_6f14c849811cbcad3670c743991fe725&#45;&gt;dir_34b4cee2b5900b653deb3438fc906cf4</title>
<path fill="none" stroke="black" d="M65.5843,-71.6966C62.2056,-63.8132 58.1304,-54.3042 54.377,-45.5464"/>
<polygon fill="black" stroke="black" points="57.4867,-43.9171 50.3304,-36.1043 51.0527,-46.6745 57.4867,-43.9171"/>
<g id="a_edge1&#45;headlabel"><a xlink:href="dir_000009_000002.html" target="_top" xlink:title="3">
<text text-anchor="middle" x="61.5123" y="-43.1026" font-family="Helvetica,sans-Serif" font-size="10.00">3</text>
</a>
</g>
</g>
</g>
</svg>
