<?xml version="1.0" encoding="UTF-8" standalone="no"?>
<!DOCTYPE svg PUBLIC "-//W3C//DTD SVG 1.1//EN"
 "http://www.w3.org/Graphics/SVG/1.1/DTD/svg11.dtd">
<!-- Generated by graphviz version 2.38.0 (20140413.2041)
 -->
<!-- Title: models Pages: 1 -->
<svg width="182pt" height="302pt"
 viewBox="0.00 0.00 182.00 302.00" xmlns="http://www.w3.org/2000/svg" xmlns:xlink="http://www.w3.org/1999/xlink">
<g id="graph0" class="graph" transform="scale(1 1) rotate(0) translate(4 298)">
<title>models</title>
<polygon fill="white" stroke="none" points="-4,4 -4,-298 178,-298 178,4 -4,4"/>
<g id="clust1" class="cluster"><title>clusterdir_68267d1309a1af8e8297ef4c3efbcdba</title>
<g id="a_clust1"><a xlink:href="dir_68267d1309a1af8e8297ef4c3efbcdba.html" target="_top" xlink:title="src">
<polygon fill="#ddddee" stroke="black" points="8,-56 8,-286 166,-286 166,-56 8,-56"/>
<text text-anchor="middle" x="87" y="-274" font-family="Helvetica,sans-Serif" font-size="10.00">src</text>
</a>
</g>
</g>
<g id="clust2" class="cluster"><title>clusterdir_bdeba5f06b852fec80257c0bf4c3c36e</title>
<g id="a_clust2"><a xlink:href="dir_bdeba5f06b852fec80257c0bf4c3c36e.html" target="_top">
<polygon fill="#eeeeff" stroke="black" points="16,-64 16,-260 158,-260 158,-64 16,-64"/>
</a>
</g>
</g>
<!-- dir_bdeba5f06b852fec80257c0bf4c3c36e -->
<g id="node1" class="node"><title>dir_bdeba5f06b852fec80257c0bf4c3c36e</title>
<text text-anchor="middle" x="123" y="-231" font-family="Helvetica,sans-Serif" font-size="10.00">models</text>
</g>
<!-- dir_c8cd97c787c1db5d9bf50ebd707babb5 -->
<g id="node2" class="node"><title>dir_c8cd97c787c1db5d9bf50ebd707babb5</title>
<g id="a_node2"><a xlink:href="dir_c8cd97c787c1db5d9bf50ebd707babb5.html" target="_top" xlink:title="gmm">
<polygon fill="white" stroke="black" points="78,-180 24,-180 24,-144 78,-144 78,-180"/>
<text text-anchor="middle" x="51" y="-159" font-family="Helvetica,sans-Serif" font-size="10.00">gmm</text>
</a>
</g>
</g>
<!-- dir_68f989e4ba2f8a2040aa15250fa76f39 -->
<g id="node4" class="node"><title>dir_68f989e4ba2f8a2040aa15250fa76f39</title>
<g id="a_node4"><a xlink:href="dir_68f989e4ba2f8a2040aa15250fa76f39.html" target="_top" xlink:title="kmeans">
<polygon fill="white" stroke="black" points="78,-108 24,-108 24,-72 78,-72 78,-108"/>
<text text-anchor="middle" x="51" y="-87" font-family="Helvetica,sans-Serif" font-size="10.00">kmeans</text>
</a>
</g>
</g>
<!-- dir_c8cd97c787c1db5d9bf50ebd707babb5&#45;&gt;dir_68f989e4ba2f8a2040aa15250fa76f39 -->
<g id="edge2" class="edge"><title>dir_c8cd97c787c1db5d9bf50ebd707babb5&#45;&gt;dir_68f989e4ba2f8a2040aa15250fa76f39</title>
<path fill="none" stroke="black" d="M51,-143.697C51,-135.983 51,-126.712 51,-118.112"/>
<polygon fill="black" stroke="black" points="54.5001,-118.104 51,-108.104 47.5001,-118.104 54.5001,-118.104"/>
<g id="a_edge2&#45;headlabel"><a xlink:href="dir_000005_000007.html" target="_top" xlink:title="2">
<text text-anchor="middle" x="57.3393" y="-118.699" font-family="Helvetica,sans-Serif" font-size="10.00">2</text>
</a>
</g>
</g>
<!-- dir_aebb8dcc11953d78e620bbef0b9e2183 -->
<g id="node5" class="node"><title>dir_aebb8dcc11953d78e620bbef0b9e2183</title>
<g id="a_node5"><a xlink:href="dir_aebb8dcc11953d78e620bbef0b9e2183.html" target="_top" xlink:title="core">
<polygon fill="white" stroke="red" points="133,-36 79,-36 79,-0 133,-0 133,-36"/>
<text text-anchor="middle" x="106" y="-15" font-family="Helvetica,sans-Serif" font-size="10.00">core</text>
</a>
</g>
</g>
<!-- dir_c8cd97c787c1db5d9bf50ebd707babb5&#45;&gt;dir_aebb8dcc11953d78e620bbef0b9e2183 -->
<g id="edge3" class="edge"><title>dir_c8cd97c787c1db5d9bf50ebd707babb5&#45;&gt;dir_aebb8dcc11953d78e620bbef0b9e2183</title>
<path fill="none" stroke="black" d="M65.1647,-143.851C72.6902,-133.93 81.4971,-120.89 87,-108 95.4132,-88.2932 100.245,-64.4881 102.928,-46.4579"/>
<polygon fill="black" stroke="black" points="106.427,-46.7052 104.303,-36.3255 99.4903,-45.7643 106.427,-46.7052"/>
<g id="a_edge3&#45;headlabel"><a xlink:href="dir_000005_000001.html" target="_top" xlink:title="6">
<text text-anchor="middle" x="108.757" y="-47.6489" font-family="Helvetica,sans-Serif" font-size="10.00">6</text>
</a>
</g>
</g>
<!-- dir_6df20f04f167befbc7fe4d34b533d782 -->
<g id="node3" class="node"><title>dir_6df20f04f167befbc7fe4d34b533d782</title>
<g id="a_node3"><a xlink:href="dir_6df20f04f167befbc7fe4d34b533d782.html" target="_top" xlink:title="hmm">
<polygon fill="white" stroke="black" points="78,-252 24,-252 24,-216 78,-216 78,-252"/>
<text text-anchor="middle" x="51" y="-231" font-family="Helvetica,sans-Serif" font-size="10.00">hmm</text>
</a>
</g>
</g>
<!-- dir_6df20f04f167befbc7fe4d34b533d782&#45;&gt;dir_c8cd97c787c1db5d9bf50ebd707babb5 -->
<g id="edge4" class="edge"><title>dir_6df20f04f167befbc7fe4d34b533d782&#45;&gt;dir_c8cd97c787c1db5d9bf50ebd707babb5</title>
<path fill="none" stroke="black" d="M51,-215.697C51,-207.983 51,-198.712 51,-190.112"/>
<polygon fill="black" stroke="black" points="54.5001,-190.104 51,-180.104 47.5001,-190.104 54.5001,-190.104"/>
<g id="a_edge4&#45;headlabel"><a xlink:href="dir_000006_000005.html" target="_top" xlink:title="2">
<text text-anchor="middle" x="57.3393" y="-190.699" font-family="Helvetica,sans-Serif" font-size="10.00">2</text>
</a>
</g>
</g>
<!-- dir_6df20f04f167befbc7fe4d34b533d782&#45;&gt;dir_aebb8dcc11953d78e620bbef0b9e2183 -->
<g id="edge5" class="edge"><title>dir_6df20f04f167befbc7fe4d34b533d782&#45;&gt;dir_aebb8dcc11953d78e620bbef0b9e2183</title>
<path fill="none" stroke="black" d="M64.7389,-215.658C72.1312,-205.677 80.9467,-192.641 87,-180 111.174,-129.518 111.264,-111.926 109,-56 108.874,-52.8809 108.688,-49.6175 108.469,-46.3761"/>
<polygon fill="black" stroke="black" points="111.951,-46.0018 107.694,-36.2999 104.972,-46.539 111.951,-46.0018"/>
<g id="a_edge5&#45;headlabel"><a xlink:href="dir_000006_000001.html" target="_top" xlink:title="4">
<text text-anchor="middle" x="115.058" y="-46.368" font-family="Helvetica,sans-Serif" font-size="10.00">4</text>
</a>
</g>
</g>
<!-- dir_68f989e4ba2f8a2040aa15250fa76f39&#45;&gt;dir_aebb8dcc11953d78e620bbef0b9e2183 -->
<g id="edge1" class="edge"><title>dir_68f989e4ba2f8a2040aa15250fa76f39&#45;&gt;dir_aebb8dcc11953d78e620bbef0b9e2183</title>
<path fill="none" stroke="black" d="M64.5955,-71.6966C71.1227,-63.3893 79.068,-53.2771 86.2466,-44.1407"/>
<polygon fill="black" stroke="black" points="89.1347,-46.1299 92.5609,-36.1043 83.6305,-41.8051 89.1347,-46.1299"/>
<g id="a_edge1&#45;headlabel"><a xlink:href="dir_000007_000001.html" target="_top" xlink:title="4">
<text text-anchor="middle" x="89.1465" y="-47.7106" font-family="Helvetica,sans-Serif" font-size="10.00">4</text>
</a>
</g>
</g>
</g>
</svg>
