<?xml version="1.0" encoding="UTF-8" standalone="no"?>
<!DOCTYPE svg PUBLIC "-//W3C//DTD SVG 1.1//EN"
 "http://www.w3.org/Graphics/SVG/1.1/DTD/svg11.dtd">
<!-- Generated by graphviz version 2.38.0 (20140413.2041)
 -->
<!-- Title: core Pages: 1 -->
<svg width="226pt" height="254pt"
 viewBox="0.00 0.00 226.00 254.00" xmlns="http://www.w3.org/2000/svg" xmlns:xlink="http://www.w3.org/1999/xlink">
<g id="graph0" class="graph" transform="scale(1 1) rotate(0) translate(4 250)">
<title>core</title>
<polygon fill="white" stroke="none" points="-4,4 -4,-250 222,-250 222,4 -4,4"/>
<g id="clust1" class="cluster"><title>clusterdir_68267d1309a1af8e8297ef4c3efbcdba</title>
<g id="a_clust1"><a xlink:href="dir_68267d1309a1af8e8297ef4c3efbcdba.html" target="_top" xlink:title="src">
<polygon fill="#ddddee" stroke="black" points="8,-8 8,-238 210,-238 210,-8 8,-8"/>
<text text-anchor="middle" x="109" y="-226" font-family="Helvetica,sans-Serif" font-size="10.00">src</text>
</a>
</g>
</g>
<g id="clust2" class="cluster"><title>clusterdir_aebb8dcc11953d78e620bbef0b9e2183</title>
<g id="a_clust2"><a xlink:href="dir_aebb8dcc11953d78e620bbef0b9e2183.html" target="_top">
<polygon fill="#eeeeff" stroke="black" points="16,-16 16,-212 202,-212 202,-16 16,-16"/>
</a>
</g>
</g>
<!-- dir_aebb8dcc11953d78e620bbef0b9e2183 -->
<g id="node1" class="node"><title>dir_aebb8dcc11953d78e620bbef0b9e2183</title>
<text text-anchor="middle" x="151" y="-183" font-family="Helvetica,sans-Serif" font-size="10.00">core</text>
</g>
<!-- dir_34b4cee2b5900b653deb3438fc906cf4 -->
<g id="node2" class="node"><title>dir_34b4cee2b5900b653deb3438fc906cf4</title>
<g id="a_node2"><a xlink:href="dir_34b4cee2b5900b653deb3438fc906cf4.html" target="_top" xlink:title="common">
<polygon fill="white" stroke="black" points="102.346,-60 47.6542,-60 47.6542,-24 102.346,-24 102.346,-60"/>
<text text-anchor="middle" x="75" y="-39" font-family="Helvetica,sans-Serif" font-size="10.00">common</text>
</a>
</g>
</g>
<!-- dir_32e037f58a61c807d5ca7d55bede9c07 -->
<g id="node3" class="node"><title>dir_32e037f58a61c807d5ca7d55bede9c07</title>
<g id="a_node3"><a xlink:href="dir_32e037f58a61c807d5ca7d55bede9c07.html" target="_top" xlink:title="distributions">
<polygon fill="white" stroke="black" points="193.86,-132 124.14,-132 124.14,-96 193.86,-96 193.86,-132"/>
<text text-anchor="middle" x="159" y="-111" font-family="Helvetica,sans-Serif" font-size="10.00">distributions</text>
</a>
</g>
</g>
<!-- dir_32e037f58a61c807d5ca7d55bede9c07&#45;&gt;dir_34b4cee2b5900b653deb3438fc906cf4 -->
<g id="edge4" class="edge"><title>dir_32e037f58a61c807d5ca7d55bede9c07&#45;&gt;dir_34b4cee2b5900b653deb3438fc906cf4</title>
<path fill="none" stroke="black" d="M138.236,-95.6966C127.759,-86.9655 114.889,-76.2405 103.5,-66.7503"/>
<polygon fill="black" stroke="black" points="105.448,-63.8174 95.5252,-60.1043 100.967,-69.195 105.448,-63.8174"/>
<g id="a_edge4&#45;headlabel"><a xlink:href="dir_000003_000002.html" target="_top" xlink:title="3">
<text text-anchor="middle" x="110.027" y="-60.9374" font-family="Helvetica,sans-Serif" font-size="10.00">3</text>
</a>
</g>
</g>
<!-- dir_db6209eff64d15a114e6ff7aefbf1abd -->
<g id="node4" class="node"><title>dir_db6209eff64d15a114e6ff7aefbf1abd</title>
<g id="a_node4"><a xlink:href="dir_db6209eff64d15a114e6ff7aefbf1abd.html" target="_top" xlink:title="model">
<polygon fill="white" stroke="black" points="90,-204 36,-204 36,-168 90,-168 90,-204"/>
<text text-anchor="middle" x="63" y="-183" font-family="Helvetica,sans-Serif" font-size="10.00">model</text>
</a>
</g>
</g>
<!-- dir_db6209eff64d15a114e6ff7aefbf1abd&#45;&gt;dir_34b4cee2b5900b653deb3438fc906cf4 -->
<g id="edge2" class="edge"><title>dir_db6209eff64d15a114e6ff7aefbf1abd&#45;&gt;dir_34b4cee2b5900b653deb3438fc906cf4</title>
<path fill="none" stroke="black" d="M51.1128,-167.725C44.9875,-157.765 38.1552,-144.727 35,-132 31.1499,-116.47 29.9175,-111.171 35,-96 38.3506,-85.9984 44.4161,-76.3756 50.8277,-68.1385"/>
<polygon fill="black" stroke="black" points="53.5606,-70.3261 57.2669,-60.4006 48.18,-65.8485 53.5606,-70.3261"/>
<g id="a_edge2&#45;headlabel"><a xlink:href="dir_000008_000002.html" target="_top" xlink:title="5">
<text text-anchor="middle" x="53.4437" y="-71.9052" font-family="Helvetica,sans-Serif" font-size="10.00">5</text>
</a>
</g>
</g>
<!-- dir_6f14c849811cbcad3670c743991fe725 -->
<g id="node5" class="node"><title>dir_6f14c849811cbcad3670c743991fe725</title>
<g id="a_node5"><a xlink:href="dir_6f14c849811cbcad3670c743991fe725.html" target="_top" xlink:title="trainingset">
<polygon fill="white" stroke="black" points="106.138,-132 43.8622,-132 43.8622,-96 106.138,-96 106.138,-132"/>
<text text-anchor="middle" x="75" y="-111" font-family="Helvetica,sans-Serif" font-size="10.00">trainingset</text>
</a>
</g>
</g>
<!-- dir_db6209eff64d15a114e6ff7aefbf1abd&#45;&gt;dir_6f14c849811cbcad3670c743991fe725 -->
<g id="edge3" class="edge"><title>dir_db6209eff64d15a114e6ff7aefbf1abd&#45;&gt;dir_6f14c849811cbcad3670c743991fe725</title>
<path fill="none" stroke="black" d="M65.9663,-167.697C67.2887,-159.983 68.8779,-150.712 70.3522,-142.112"/>
<polygon fill="black" stroke="black" points="73.8278,-142.552 72.0678,-132.104 66.9284,-141.369 73.8278,-142.552"/>
<g id="a_edge3&#45;headlabel"><a xlink:href="dir_000008_000009.html" target="_top" xlink:title="2">
<text text-anchor="middle" x="76.019" y="-143.575" font-family="Helvetica,sans-Serif" font-size="10.00">2</text>
</a>
</g>
</g>
<!-- dir_6f14c849811cbcad3670c743991fe725&#45;&gt;dir_34b4cee2b5900b653deb3438fc906cf4 -->
<g id="edge1" class="edge"><title>dir_6f14c849811cbcad3670c743991fe725&#45;&gt;dir_34b4cee2b5900b653deb3438fc906cf4</title>
<path fill="none" stroke="black" d="M75,-95.6966C75,-87.9827 75,-78.7125 75,-70.1124"/>
<polygon fill="black" stroke="black" points="78.5001,-70.1043 75,-60.1043 71.5001,-70.1044 78.5001,-70.1043"/>
<g id="a_edge1&#45;headlabel"><a xlink:href="dir_000009_000002.html" target="_top" xlink:title="3">
<text text-anchor="middle" x="81.3393" y="-70.699" font-family="Helvetica,sans-Serif" font-size="10.00">3</text>
</a>
</g>
</g>
</g>
</svg>
