<?xml version="1.0" encoding="UTF-8" standalone="no"?>
<!DOCTYPE svg PUBLIC "-//W3C//DTD SVG 1.1//EN"
 "http://www.w3.org/Graphics/SVG/1.1/DTD/svg11.dtd">
<!-- Generated by graphviz version 2.38.0 (20140413.2041)
 -->
<!-- Title: Graphical Class Hierarchy Pages: 1 -->
<svg width="267pt" height="37pt"
 viewBox="0.00 0.00 266.61 37.00" xmlns="http://www.w3.org/2000/svg" xmlns:xlink="http://www.w3.org/1999/xlink">
<g id="graph0" class="graph" transform="scale(1 1) rotate(0) translate(4 33)">
<title>Graphical Class Hierarchy</title>
<polygon fill="white" stroke="none" points="-4,4 -4,-33 262.605,-33 262.605,4 -4,4"/>
<!-- Node1 -->
<g id="node1" class="node"><title>Node1</title>
<g id="a_node1"><a xlink:href="classxmm_1_1_class_parameters_3_01_h_m_m_01_4.html" target="_top" xlink:title="Parameters specific to each class of a Hidden Markov Model. ">
<polygon fill="white" stroke="black" points="0,-0.5 0,-28.5 119.906,-28.5 119.906,-0.5 0,-0.5"/>
<text text-anchor="start" x="8" y="-16.5" font-family="Helvetica,sans-Serif" font-size="10.00">xmm::ClassParameters</text>
<text text-anchor="middle" x="59.9531" y="-6.5" font-family="Helvetica,sans-Serif" font-size="10.00">&lt; HMM &gt;</text>
</a>
</g>
</g>
<!-- Node2 -->
<g id="node2" class="node"><title>Node2</title>
<g id="a_node2"><a xlink:href="classxmm_1_1_configuration.html" target="_top" xlink:title="xmm::Configuration\l\&lt; HMM \&gt;">
<polygon fill="white" stroke="black" points="155.906,-0.5 155.906,-28.5 258.605,-28.5 258.605,-0.5 155.906,-0.5"/>
<text text-anchor="start" x="163.906" y="-16.5" font-family="Helvetica,sans-Serif" font-size="10.00">xmm::Configuration</text>
<text text-anchor="middle" x="207.256" y="-6.5" font-family="Helvetica,sans-Serif" font-size="10.00">&lt; HMM &gt;</text>
</a>
</g>
</g>
<!-- Node1&#45;&gt;Node2 -->
<g id="edge1" class="edge"><title>Node1&#45;&gt;Node2</title>
<path fill="none" stroke="midnightblue" d="M130.085,-14.5C138.682,-14.5 147.344,-14.5 155.589,-14.5"/>
<polygon fill="midnightblue" stroke="midnightblue" points="130.053,-11.0001 120.053,-14.5 130.053,-18.0001 130.053,-11.0001"/>
</g>
</g>
</svg>
