<?xml version="1.0" encoding="UTF-8" standalone="no"?>
<!DOCTYPE svg PUBLIC "-//W3C//DTD SVG 1.1//EN"
 "http://www.w3.org/Graphics/SVG/1.1/DTD/svg11.dtd">
<!-- Generated by graphviz version 2.38.0 (20140413.2041)
 -->
<!-- Title: Graphical Class Hierarchy Pages: 1 -->
<svg width="300pt" height="524pt"
 viewBox="0.00 0.00 299.68 524.00" xmlns="http://www.w3.org/2000/svg" xmlns:xlink="http://www.w3.org/1999/xlink">
<g id="graph0" class="graph" transform="scale(1 1) rotate(0) translate(4 520)">
<title>Graphical Class Hierarchy</title>
<polygon fill="white" stroke="none" points="-4,4 -4,-520 295.677,-520 295.677,4 -4,4"/>
<!-- Node1 -->
<g id="node1" class="node"><title>Node1</title>
<g id="a_node1"><a xlink:href="classxmm_1_1_attribute_base.html" target="_top" xlink:title="Base Class for Generic Attributes. ">
<polygon fill="white" stroke="black" points="0,-261.5 0,-279.5 103.251,-279.5 103.251,-261.5 0,-261.5"/>
<text text-anchor="middle" x="51.6255" y="-267.5" font-family="Helvetica,sans-Serif" font-size="10.00">xmm::AttributeBase</text>
</a>
</g>
</g>
<!-- Node2 -->
<g id="node2" class="node"><title>Node2</title>
<g id="a_node2"><a xlink:href="classxmm_1_1_attribute.html" target="_top" xlink:title="xmm::Attribute\&lt; bool \&gt;">
<polygon fill="white" stroke="black" points="157.164,-497.5 157.164,-515.5 273.764,-515.5 273.764,-497.5 157.164,-497.5"/>
<text text-anchor="middle" x="215.464" y="-503.5" font-family="Helvetica,sans-Serif" font-size="10.00">xmm::Attribute&lt; bool &gt;</text>
</a>
</g>
</g>
<!-- Node1&#45;&gt;Node2 -->
<g id="edge1" class="edge"><title>Node1&#45;&gt;Node2</title>
<path fill="none" stroke="midnightblue" d="M54.432,-289.774C59.498,-332.432 77.7749,-435.259 139.251,-488.5 144.427,-492.983 150.526,-496.394 156.975,-498.982"/>
<polygon fill="midnightblue" stroke="midnightblue" points="57.8922,-289.213 53.3487,-279.642 50.9318,-289.958 57.8922,-289.213"/>
</g>
<!-- Node3 -->
<g id="node3" class="node"><title>Node3</title>
<g id="a_node3"><a xlink:href="classxmm_1_1_attribute.html" target="_top" xlink:title="xmm::Attribute\&lt; Covariance\lMode \&gt;">
<polygon fill="white" stroke="black" points="145.635,-450.5 145.635,-478.5 285.292,-478.5 285.292,-450.5 145.635,-450.5"/>
<text text-anchor="start" x="153.635" y="-466.5" font-family="Helvetica,sans-Serif" font-size="10.00">xmm::Attribute&lt; Covariance</text>
<text text-anchor="middle" x="215.464" y="-456.5" font-family="Helvetica,sans-Serif" font-size="10.00">Mode &gt;</text>
</a>
</g>
</g>
<!-- Node1&#45;&gt;Node3 -->
<g id="edge2" class="edge"><title>Node1&#45;&gt;Node3</title>
<path fill="none" stroke="midnightblue" d="M57.0927,-289.896C66.2531,-325.301 90.5318,-400.52 139.251,-441.5 143.326,-444.928 147.906,-447.845 152.74,-450.328"/>
<polygon fill="midnightblue" stroke="midnightblue" points="60.4206,-288.771 54.6379,-279.893 53.6223,-290.439 60.4206,-288.771"/>
</g>
<!-- Node4 -->
<g id="node4" class="node"><title>Node4</title>
<g id="a_node4"><a xlink:href="classxmm_1_1_attribute.html" target="_top" xlink:title="xmm::Attribute\&lt; double \&gt;">
<polygon fill="white" stroke="black" points="151.602,-413.5 151.602,-431.5 279.326,-431.5 279.326,-413.5 151.602,-413.5"/>
<text text-anchor="middle" x="215.464" y="-419.5" font-family="Helvetica,sans-Serif" font-size="10.00">xmm::Attribute&lt; double &gt;</text>
</a>
</g>
</g>
<!-- Node1&#45;&gt;Node4 -->
<g id="edge3" class="edge"><title>Node1&#45;&gt;Node4</title>
<path fill="none" stroke="midnightblue" d="M59.3866,-289.177C70.9936,-318.492 97.5646,-374.996 139.251,-404.5 144.402,-408.146 150.197,-411.059 156.225,-413.387"/>
<polygon fill="midnightblue" stroke="midnightblue" points="62.6119,-287.811 55.7871,-279.708 56.0686,-290.299 62.6119,-287.811"/>
</g>
<!-- Node5 -->
<g id="node5" class="node"><title>Node5</title>
<g id="a_node5"><a xlink:href="classxmm_1_1_attribute.html" target="_top" xlink:title="xmm::Attribute\&lt; float \&gt;">
<polygon fill="white" stroke="black" points="157.166,-376.5 157.166,-394.5 273.762,-394.5 273.762,-376.5 157.166,-376.5"/>
<text text-anchor="middle" x="215.464" y="-382.5" font-family="Helvetica,sans-Serif" font-size="10.00">xmm::Attribute&lt; float &gt;</text>
</a>
</g>
</g>
<!-- Node1&#45;&gt;Node5 -->
<g id="edge4" class="edge"><title>Node1&#45;&gt;Node5</title>
<path fill="none" stroke="midnightblue" d="M63.595,-288.362C78.1136,-310.441 105.818,-347.533 139.251,-367.5 145.36,-371.149 152.164,-374.058 159.112,-376.378"/>
<polygon fill="midnightblue" stroke="midnightblue" points="66.3678,-286.201 58.0399,-279.651 60.4657,-289.965 66.3678,-286.201"/>
</g>
<!-- Node6 -->
<g id="node6" class="node"><title>Node6</title>
<g id="a_node6"><a xlink:href="classxmm_1_1_attribute.html" target="_top" xlink:title="xmm::Attribute\&lt; std\l::string \&gt;">
<polygon fill="white" stroke="black" points="164.256,-329.5 164.256,-357.5 266.672,-357.5 266.672,-329.5 164.256,-329.5"/>
<text text-anchor="start" x="172.256" y="-345.5" font-family="Helvetica,sans-Serif" font-size="10.00">xmm::Attribute&lt; std</text>
<text text-anchor="middle" x="215.464" y="-335.5" font-family="Helvetica,sans-Serif" font-size="10.00">::string &gt;</text>
</a>
</g>
</g>
<!-- Node1&#45;&gt;Node6 -->
<g id="edge5" class="edge"><title>Node1&#45;&gt;Node6</title>
<path fill="none" stroke="midnightblue" d="M74.8924,-285.239C91.9689,-296.07 116.409,-310.569 139.251,-320.5 147.14,-323.93 155.701,-327.065 164.126,-329.842"/>
<polygon fill="midnightblue" stroke="midnightblue" points="76.5219,-282.126 66.2199,-279.652 72.7308,-288.01 76.5219,-282.126"/>
</g>
<!-- Node7 -->
<g id="node7" class="node"><title>Node7</title>
<g id="a_node7"><a xlink:href="classxmm_1_1_attribute.html" target="_top" xlink:title="xmm::Attribute\&lt; unsigned\l int \&gt;">
<polygon fill="white" stroke="black" points="150.63,-282.5 150.63,-310.5 280.297,-310.5 280.297,-282.5 150.63,-282.5"/>
<text text-anchor="start" x="158.63" y="-298.5" font-family="Helvetica,sans-Serif" font-size="10.00">xmm::Attribute&lt; unsigned</text>
<text text-anchor="middle" x="215.464" y="-288.5" font-family="Helvetica,sans-Serif" font-size="10.00"> int &gt;</text>
</a>
</g>
</g>
<!-- Node1&#45;&gt;Node7 -->
<g id="edge6" class="edge"><title>Node1&#45;&gt;Node7</title>
<path fill="none" stroke="midnightblue" d="M113.386,-280.261C125.499,-282.207 138.255,-284.257 150.473,-286.22"/>
<polygon fill="midnightblue" stroke="midnightblue" points="113.817,-276.786 103.388,-278.655 112.706,-283.697 113.817,-276.786"/>
</g>
<!-- Node8 -->
<g id="node8" class="node"><title>Node8</title>
<g id="a_node8"><a xlink:href="classxmm_1_1_attribute.html" target="_top" xlink:title="xmm::Attribute\&lt; xmm\l::GaussianDistribution\l::CovarianceMode \&gt;">
<polygon fill="white" stroke="black" points="158.553,-225.5 158.553,-263.5 272.375,-263.5 272.375,-225.5 158.553,-225.5"/>
<text text-anchor="start" x="166.553" y="-251.5" font-family="Helvetica,sans-Serif" font-size="10.00">xmm::Attribute&lt; xmm</text>
<text text-anchor="start" x="166.553" y="-241.5" font-family="Helvetica,sans-Serif" font-size="10.00">::GaussianDistribution</text>
<text text-anchor="middle" x="215.464" y="-231.5" font-family="Helvetica,sans-Serif" font-size="10.00">::CovarianceMode &gt;</text>
</a>
</g>
</g>
<!-- Node1&#45;&gt;Node8 -->
<g id="edge7" class="edge"><title>Node1&#45;&gt;Node8</title>
<path fill="none" stroke="midnightblue" d="M113.449,-260.728C128.24,-258.352 143.987,-255.822 158.539,-253.485"/>
<polygon fill="midnightblue" stroke="midnightblue" points="112.706,-257.303 103.388,-262.345 113.817,-264.214 112.706,-257.303"/>
</g>
<!-- Node9 -->
<g id="node9" class="node"><title>Node9</title>
<g id="a_node9"><a xlink:href="classxmm_1_1_attribute.html" target="_top" xlink:title="xmm::Attribute\&lt; xmm\l::HMM::RegressionEstimator \&gt;">
<polygon fill="white" stroke="black" points="139.251,-178.5 139.251,-206.5 291.677,-206.5 291.677,-178.5 139.251,-178.5"/>
<text text-anchor="start" x="147.251" y="-194.5" font-family="Helvetica,sans-Serif" font-size="10.00">xmm::Attribute&lt; xmm</text>
<text text-anchor="middle" x="215.464" y="-184.5" font-family="Helvetica,sans-Serif" font-size="10.00">::HMM::RegressionEstimator &gt;</text>
</a>
</g>
</g>
<!-- Node1&#45;&gt;Node9 -->
<g id="edge8" class="edge"><title>Node1&#45;&gt;Node9</title>
<path fill="none" stroke="midnightblue" d="M73.5705,-255.369C90.6167,-243.576 115.636,-227.421 139.251,-216.5 147.213,-212.818 155.895,-209.477 164.439,-206.537"/>
<polygon fill="midnightblue" stroke="midnightblue" points="71.1458,-252.796 64.9803,-261.412 75.1732,-258.521 71.1458,-252.796"/>
</g>
<!-- Node10 -->
<g id="node10" class="node"><title>Node10</title>
<g id="a_node10"><a xlink:href="classxmm_1_1_attribute.html" target="_top" xlink:title="xmm::Attribute\&lt; xmm\l::HMM::TransitionMode \&gt;">
<polygon fill="white" stroke="black" points="151.38,-131.5 151.38,-159.5 279.548,-159.5 279.548,-131.5 151.38,-131.5"/>
<text text-anchor="start" x="159.38" y="-147.5" font-family="Helvetica,sans-Serif" font-size="10.00">xmm::Attribute&lt; xmm</text>
<text text-anchor="middle" x="215.464" y="-137.5" font-family="Helvetica,sans-Serif" font-size="10.00">::HMM::TransitionMode &gt;</text>
</a>
</g>
</g>
<!-- Node1&#45;&gt;Node10 -->
<g id="edge9" class="edge"><title>Node1&#45;&gt;Node10</title>
<path fill="none" stroke="midnightblue" d="M63.2517,-252.935C77.7291,-230.442 105.724,-191.724 139.251,-169.5 145.077,-165.638 151.567,-162.362 158.225,-159.592"/>
<polygon fill="midnightblue" stroke="midnightblue" points="60.2381,-251.153 57.8979,-261.486 66.1712,-254.867 60.2381,-251.153"/>
</g>
<!-- Node11 -->
<g id="node11" class="node"><title>Node11</title>
<g id="a_node11"><a xlink:href="classxmm_1_1_attribute.html" target="_top" xlink:title="Generic Attribute. ">
<polygon fill="white" stroke="black" points="163.738,-94.5 163.738,-112.5 267.189,-112.5 267.189,-94.5 163.738,-94.5"/>
<text text-anchor="middle" x="215.464" y="-100.5" font-family="Helvetica,sans-Serif" font-size="10.00">xmm::Attribute&lt; T &gt;</text>
</a>
</g>
</g>
<!-- Node1&#45;&gt;Node11 -->
<g id="edge10" class="edge"><title>Node1&#45;&gt;Node11</title>
<path fill="none" stroke="midnightblue" d="M58.4189,-251.307C69.0466,-219.469 94.7503,-155.934 139.251,-122.5 146.358,-117.161 154.799,-113.312 163.415,-110.539"/>
<polygon fill="midnightblue" stroke="midnightblue" points="54.9852,-250.555 55.2825,-261.145 61.6545,-252.681 54.9852,-250.555"/>
</g>
<!-- Node12 -->
<g id="node12" class="node"><title>Node12</title>
<g id="a_node12"><a xlink:href="classxmm_1_1_attribute_3_01std_1_1vector_3_01std_1_1string_01_4_01_4.html" target="_top" xlink:title="Generic Attribute (Vector Specialization) ">
<polygon fill="white" stroke="black" points="156.468,-47.5 156.468,-75.5 274.46,-75.5 274.46,-47.5 156.468,-47.5"/>
<text text-anchor="start" x="164.468" y="-63.5" font-family="Helvetica,sans-Serif" font-size="10.00">xmm::Attribute&lt; std</text>
<text text-anchor="middle" x="215.464" y="-53.5" font-family="Helvetica,sans-Serif" font-size="10.00">::vector&lt; std::string &gt; &gt;</text>
</a>
</g>
</g>
<!-- Node1&#45;&gt;Node12 -->
<g id="edge11" class="edge"><title>Node1&#45;&gt;Node12</title>
<path fill="none" stroke="midnightblue" d="M56.3204,-251.157C64.4834,-213.685 87.5821,-130.897 139.251,-85.5 144.296,-81.067 150.166,-77.4518 156.359,-74.5036"/>
<polygon fill="midnightblue" stroke="midnightblue" points="52.833,-250.741 54.2515,-261.24 59.6902,-252.148 52.833,-250.741"/>
</g>
<!-- Node13 -->
<g id="node13" class="node"><title>Node13</title>
<g id="a_node13"><a xlink:href="classxmm_1_1_attribute_3_01std_1_1vector_3_01_t_01_4_01_4.html" target="_top" xlink:title="Generic Attribute (Vector Specialization) ">
<polygon fill="white" stroke="black" points="164.256,-0.5 164.256,-28.5 266.672,-28.5 266.672,-0.5 164.256,-0.5"/>
<text text-anchor="start" x="172.256" y="-16.5" font-family="Helvetica,sans-Serif" font-size="10.00">xmm::Attribute&lt; std</text>
<text text-anchor="middle" x="215.464" y="-6.5" font-family="Helvetica,sans-Serif" font-size="10.00">::vector&lt; T &gt; &gt;</text>
</a>
</g>
</g>
<!-- Node1&#45;&gt;Node13 -->
<g id="edge12" class="edge"><title>Node1&#45;&gt;Node13</title>
<path fill="none" stroke="midnightblue" d="M54.236,-251.253C58.9574,-207.172 76.6705,-98.1182 139.251,-38.5 146.198,-31.8821 154.969,-27.0889 164.048,-23.6173"/>
<polygon fill="midnightblue" stroke="midnightblue" points="50.7306,-251.143 53.2588,-261.432 57.6985,-251.812 50.7306,-251.143"/>
</g>
</g>
</svg>
