<?xml version="1.0" encoding="UTF-8" standalone="no"?>
<!DOCTYPE svg PUBLIC "-//W3C//DTD SVG 1.1//EN"
 "http://www.w3.org/Graphics/SVG/1.1/DTD/svg11.dtd">
<!-- Generated by graphviz version 2.38.0 (20140413.2041)
 -->
<!-- Title: xmmGmmSingleClass.cpp Pages: 1 -->
<svg width="1023pt" height="462pt"
 viewBox="0.00 0.00 1023.08 462.00" xmlns="http://www.w3.org/2000/svg" xmlns:xlink="http://www.w3.org/1999/xlink">
<g id="graph0" class="graph" transform="scale(1 1) rotate(0) translate(4 458)">
<title>xmmGmmSingleClass.cpp</title>
<polygon fill="white" stroke="none" points="-4,4 -4,-458 1019.08,-458 1019.08,4 -4,4"/>
<!-- Node1 -->
<g id="node1" class="node"><title>Node1</title>
<polygon fill="#bfbfbf" stroke="black" points="521.005,-435.5 521.005,-453.5 654.808,-453.5 654.808,-435.5 521.005,-435.5"/>
<text text-anchor="middle" x="587.906" y="-441.5" font-family="Helvetica,sans-Serif" font-size="10.00">xmmGmmSingleClass.cpp</text>
</g>
<!-- Node2 -->
<g id="node2" class="node"><title>Node2</title>
<g id="a_node2"><a xlink:href="xmm_k_means_8hpp.html" target="_top" xlink:title="../kmeans/xmmKMeans.hpp">
<polygon fill="white" stroke="black" points="440.938,-380.5 440.938,-398.5 580.874,-398.5 580.874,-380.5 440.938,-380.5"/>
<text text-anchor="middle" x="510.906" y="-386.5" font-family="Helvetica,sans-Serif" font-size="10.00">../kmeans/xmmKMeans.hpp</text>
</a>
</g>
</g>
<!-- Node1&#45;&gt;Node2 -->
<g id="edge1" class="edge"><title>Node1&#45;&gt;Node2</title>
<path fill="none" stroke="midnightblue" d="M576.212,-435.45C564.227,-427.201 545.361,-414.216 530.982,-404.319"/>
<polygon fill="midnightblue" stroke="midnightblue" points="532.933,-401.412 522.711,-398.625 528.964,-407.178 532.933,-401.412"/>
</g>
<!-- Node29 -->
<g id="node29" class="node"><title>Node29</title>
<g id="a_node29"><a xlink:href="xmm_gmm_single_class_8hpp.html" target="_top" xlink:title="xmmGmmSingleClass.hpp">
<polygon fill="white" stroke="black" points="598.724,-380.5 598.724,-398.5 733.088,-398.5 733.088,-380.5 598.724,-380.5"/>
<text text-anchor="middle" x="665.906" y="-386.5" font-family="Helvetica,sans-Serif" font-size="10.00">xmmGmmSingleClass.hpp</text>
</a>
</g>
</g>
<!-- Node1&#45;&gt;Node29 -->
<g id="edge44" class="edge"><title>Node1&#45;&gt;Node29</title>
<path fill="none" stroke="midnightblue" d="M599.753,-435.45C611.893,-427.201 631.004,-414.216 645.569,-404.319"/>
<polygon fill="midnightblue" stroke="midnightblue" points="647.644,-407.14 653.948,-398.625 643.71,-401.351 647.644,-407.14"/>
</g>
<!-- Node3 -->
<g id="node3" class="node"><title>Node3</title>
<g id="a_node3"><a xlink:href="xmm_model_configuration_8hpp.html" target="_top" xlink:title="../../core/model/xmmModel\lConfiguration.hpp">
<polygon fill="white" stroke="black" points="0,-185.5 0,-213.5 133.812,-213.5 133.812,-185.5 0,-185.5"/>
<text text-anchor="start" x="8" y="-201.5" font-family="Helvetica,sans-Serif" font-size="10.00">../../core/model/xmmModel</text>
<text text-anchor="middle" x="66.9062" y="-191.5" font-family="Helvetica,sans-Serif" font-size="10.00">Configuration.hpp</text>
</a>
</g>
</g>
<!-- Node2&#45;&gt;Node3 -->
<g id="edge2" class="edge"><title>Node2&#45;&gt;Node3</title>
<path fill="none" stroke="midnightblue" d="M446.5,-380.459C370.017,-368.467 241.096,-340.356 147.906,-279 123.449,-262.897 99.9273,-238.823 84.5927,-221.584"/>
<polygon fill="midnightblue" stroke="midnightblue" points="86.9622,-218.976 77.7542,-213.735 81.6844,-223.574 86.9622,-218.976"/>
</g>
<!-- Node15 -->
<g id="node15" class="node"><title>Node15</title>
<g id="a_node15"><a xlink:href="xmm_model_single_class_8hpp.html" target="_top" xlink:title="../../core/model/xmmModel\lSingleClass.hpp">
<polygon fill="white" stroke="black" points="313,-315.5 313,-343.5 446.812,-343.5 446.812,-315.5 313,-315.5"/>
<text text-anchor="start" x="321" y="-331.5" font-family="Helvetica,sans-Serif" font-size="10.00">../../core/model/xmmModel</text>
<text text-anchor="middle" x="379.906" y="-321.5" font-family="Helvetica,sans-Serif" font-size="10.00">SingleClass.hpp</text>
</a>
</g>
</g>
<!-- Node2&#45;&gt;Node15 -->
<g id="edge15" class="edge"><title>Node2&#45;&gt;Node15</title>
<path fill="none" stroke="midnightblue" d="M492.691,-380.435C473.7,-372.027 443.351,-358.59 418.917,-347.772"/>
<polygon fill="midnightblue" stroke="midnightblue" points="420.101,-344.468 409.54,-343.62 417.267,-350.869 420.101,-344.468"/>
</g>
<!-- Node26 -->
<g id="node26" class="node"><title>Node26</title>
<g id="a_node26"><a xlink:href="xmm_k_means_parameters_8hpp.html" target="_top" xlink:title="xmmKMeansParameters.hpp">
<polygon fill="white" stroke="black" points="465.16,-320.5 465.16,-338.5 610.652,-338.5 610.652,-320.5 465.16,-320.5"/>
<text text-anchor="middle" x="537.906" y="-326.5" font-family="Helvetica,sans-Serif" font-size="10.00">xmmKMeansParameters.hpp</text>
</a>
</g>
</g>
<!-- Node2&#45;&gt;Node26 -->
<g id="edge38" class="edge"><title>Node2&#45;&gt;Node26</title>
<path fill="none" stroke="midnightblue" d="M514.66,-380.435C518.526,-372.132 524.673,-358.927 529.676,-348.181"/>
<polygon fill="midnightblue" stroke="midnightblue" points="532.962,-349.415 534.009,-338.872 526.616,-346.46 532.962,-349.415"/>
</g>
<!-- Node27 -->
<g id="node27" class="node"><title>Node27</title>
<g id="a_node27"><a xlink:href="xmm_k_means_results_8hpp.html" target="_top" xlink:title="xmmKMeansResults.hpp">
<polygon fill="white" stroke="black" points="667.33,-320.5 667.33,-338.5 794.482,-338.5 794.482,-320.5 667.33,-320.5"/>
<text text-anchor="middle" x="730.906" y="-326.5" font-family="Helvetica,sans-Serif" font-size="10.00">xmmKMeansResults.hpp</text>
</a>
</g>
</g>
<!-- Node2&#45;&gt;Node27 -->
<g id="edge40" class="edge"><title>Node2&#45;&gt;Node27</title>
<path fill="none" stroke="midnightblue" d="M541.496,-380.435C580.299,-370.206 647.33,-352.534 690.362,-341.189"/>
<polygon fill="midnightblue" stroke="midnightblue" points="691.445,-344.523 700.222,-338.589 689.66,-337.754 691.445,-344.523"/>
</g>
<!-- Node4 -->
<g id="node4" class="node"><title>Node4</title>
<g id="a_node4"><a xlink:href="xmm_model_parameters_8hpp.html" target="_top" xlink:title="xmmModelParameters.hpp">
<polygon fill="white" stroke="black" points="469.884,-125.5 469.884,-143.5 605.928,-143.5 605.928,-125.5 469.884,-125.5"/>
<text text-anchor="middle" x="537.906" y="-131.5" font-family="Helvetica,sans-Serif" font-size="10.00">xmmModelParameters.hpp</text>
</a>
</g>
</g>
<!-- Node3&#45;&gt;Node4 -->
<g id="edge3" class="edge"><title>Node3&#45;&gt;Node4</title>
<path fill="none" stroke="midnightblue" d="M133.843,-190.49C229.216,-179.008 399.465,-158.24 460.906,-149 468.55,-147.85 476.604,-146.544 484.507,-145.208"/>
<polygon fill="midnightblue" stroke="midnightblue" points="485.132,-148.652 494.394,-143.509 483.946,-141.753 485.132,-148.652"/>
</g>
<!-- Node14 -->
<g id="node14" class="node"><title>Node14</title>
<polygon fill="white" stroke="#bfbfbf" points="182.18,-5.5 182.18,-23.5 217.633,-23.5 217.633,-5.5 182.18,-5.5"/>
<text text-anchor="middle" x="199.906" y="-11.5" font-family="Helvetica,sans-Serif" font-size="10.00">map</text>
</g>
<!-- Node3&#45;&gt;Node14 -->
<g id="edge14" class="edge"><title>Node3&#45;&gt;Node14</title>
<path fill="none" stroke="midnightblue" d="M76.4713,-185.339C100.201,-152.689 161.738,-68.0173 187.877,-32.0511"/>
<polygon fill="midnightblue" stroke="midnightblue" points="190.937,-33.7947 193.985,-23.6478 185.274,-29.6793 190.937,-33.7947"/>
</g>
<!-- Node5 -->
<g id="node5" class="node"><title>Node5</title>
<g id="a_node5"><a xlink:href="xmm_attribute_8hpp.html" target="_top" xlink:title="../common/xmmAttribute.hpp">
<polygon fill="white" stroke="black" points="627.995,-65.5 627.995,-83.5 771.817,-83.5 771.817,-65.5 627.995,-65.5"/>
<text text-anchor="middle" x="699.906" y="-71.5" font-family="Helvetica,sans-Serif" font-size="10.00">../common/xmmAttribute.hpp</text>
</a>
</g>
</g>
<!-- Node4&#45;&gt;Node5 -->
<g id="edge4" class="edge"><title>Node4&#45;&gt;Node5</title>
<path fill="none" stroke="midnightblue" d="M560.432,-125.435C588.281,-115.465 635.878,-98.4237 667.611,-87.0624"/>
<polygon fill="midnightblue" stroke="midnightblue" points="669.077,-90.2554 677.312,-83.5894 666.717,-83.6651 669.077,-90.2554"/>
</g>
<!-- Node11 -->
<g id="node11" class="node"><title>Node11</title>
<g id="a_node11"><a xlink:href="xmm_json_8hpp.html" target="_top" xlink:title="../common/xmmJson.hpp">
<polygon fill="white" stroke="black" points="482.054,-65.5 482.054,-83.5 609.758,-83.5 609.758,-65.5 482.054,-65.5"/>
<text text-anchor="middle" x="545.906" y="-71.5" font-family="Helvetica,sans-Serif" font-size="10.00">../common/xmmJson.hpp</text>
</a>
</g>
</g>
<!-- Node4&#45;&gt;Node11 -->
<g id="edge10" class="edge"><title>Node4&#45;&gt;Node11</title>
<path fill="none" stroke="midnightblue" d="M539.019,-125.435C540.14,-117.304 541.911,-104.469 543.375,-93.8485"/>
<polygon fill="midnightblue" stroke="midnightblue" points="546.852,-94.2562 544.752,-83.8718 539.918,-93.2997 546.852,-94.2562"/>
</g>
<!-- Node6 -->
<g id="node6" class="node"><title>Node6</title>
<polygon fill="white" stroke="#bfbfbf" points="597.502,-5.5 597.502,-23.5 656.31,-23.5 656.31,-5.5 597.502,-5.5"/>
<text text-anchor="middle" x="626.906" y="-11.5" font-family="Helvetica,sans-Serif" font-size="10.00">functional</text>
</g>
<!-- Node5&#45;&gt;Node6 -->
<g id="edge5" class="edge"><title>Node5&#45;&gt;Node6</title>
<path fill="none" stroke="midnightblue" d="M689.756,-65.4353C678.336,-56.3619 659.547,-41.434 645.482,-30.2589"/>
<polygon fill="midnightblue" stroke="midnightblue" points="647.45,-27.3522 637.443,-23.8718 643.095,-32.8329 647.45,-27.3522"/>
</g>
<!-- Node7 -->
<g id="node7" class="node"><title>Node7</title>
<polygon fill="white" stroke="#bfbfbf" points="678.52,-5.5 678.52,-23.5 717.293,-23.5 717.293,-5.5 678.52,-5.5"/>
<text text-anchor="middle" x="697.906" y="-11.5" font-family="Helvetica,sans-Serif" font-size="10.00">limits</text>
</g>
<!-- Node5&#45;&gt;Node7 -->
<g id="edge6" class="edge"><title>Node5&#45;&gt;Node7</title>
<path fill="none" stroke="midnightblue" d="M699.628,-65.4353C699.351,-57.3891 698.914,-44.7388 698.551,-34.1846"/>
<polygon fill="midnightblue" stroke="midnightblue" points="702.038,-33.7452 698.195,-23.8718 695.042,-33.9865 702.038,-33.7452"/>
</g>
<!-- Node8 -->
<g id="node8" class="node"><title>Node8</title>
<polygon fill="white" stroke="#bfbfbf" points="796.505,-5.5 796.505,-23.5 855.308,-23.5 855.308,-5.5 796.505,-5.5"/>
<text text-anchor="middle" x="825.906" y="-11.5" font-family="Helvetica,sans-Serif" font-size="10.00">stdexcept</text>
</g>
<!-- Node5&#45;&gt;Node8 -->
<g id="edge7" class="edge"><title>Node5&#45;&gt;Node8</title>
<path fill="none" stroke="midnightblue" d="M717.426,-65.4353C738.558,-55.7078 774.309,-39.2511 798.96,-27.9041"/>
<polygon fill="midnightblue" stroke="midnightblue" points="800.509,-31.044 808.129,-23.6831 797.582,-24.6853 800.509,-31.044"/>
</g>
<!-- Node9 -->
<g id="node9" class="node"><title>Node9</title>
<polygon fill="white" stroke="#bfbfbf" points="873.68,-5.5 873.68,-23.5 914.133,-23.5 914.133,-5.5 873.68,-5.5"/>
<text text-anchor="middle" x="893.906" y="-11.5" font-family="Helvetica,sans-Serif" font-size="10.00">string</text>
</g>
<!-- Node5&#45;&gt;Node9 -->
<g id="edge8" class="edge"><title>Node5&#45;&gt;Node9</title>
<path fill="none" stroke="midnightblue" d="M735.919,-65.4616C769.486,-57.5633 820.717,-44.4677 863.906,-29 865.146,-28.5559 866.406,-28.0822 867.673,-27.5879"/>
<polygon fill="midnightblue" stroke="midnightblue" points="869.421,-30.6497 877.279,-23.5435 866.704,-24.1982 869.421,-30.6497"/>
</g>
<!-- Node10 -->
<g id="node10" class="node"><title>Node10</title>
<polygon fill="white" stroke="#bfbfbf" points="735.291,-5.5 735.291,-23.5 778.522,-23.5 778.522,-5.5 735.291,-5.5"/>
<text text-anchor="middle" x="756.906" y="-11.5" font-family="Helvetica,sans-Serif" font-size="10.00">vector</text>
</g>
<!-- Node5&#45;&gt;Node10 -->
<g id="edge9" class="edge"><title>Node5&#45;&gt;Node10</title>
<path fill="none" stroke="midnightblue" d="M707.832,-65.4353C716.496,-56.6187 730.594,-42.2743 741.461,-31.2165"/>
<polygon fill="midnightblue" stroke="midnightblue" points="744.166,-33.4573 748.679,-23.8718 739.173,-28.5508 744.166,-33.4573"/>
</g>
<!-- Node11&#45;&gt;Node10 -->
<g id="edge13" class="edge"><title>Node11&#45;&gt;Node10</title>
<path fill="none" stroke="midnightblue" d="M586.859,-65.4339C623.713,-57.6916 679.104,-44.8501 725.906,-29 727.331,-28.5175 728.781,-27.9963 730.237,-27.4491"/>
<polygon fill="midnightblue" stroke="midnightblue" points="731.782,-30.5992 739.729,-23.5921 729.147,-24.1141 731.782,-30.5992"/>
</g>
<!-- Node12 -->
<g id="node12" class="node"><title>Node12</title>
<polygon fill="white" stroke="#bfbfbf" points="388.318,-0.5 388.318,-28.5 505.495,-28.5 505.495,-0.5 388.318,-0.5"/>
<text text-anchor="start" x="396.318" y="-16.5" font-family="Helvetica,sans-Serif" font-size="10.00">../../../dependencies</text>
<text text-anchor="middle" x="446.906" y="-6.5" font-family="Helvetica,sans-Serif" font-size="10.00">/jsoncpp/include/json.h</text>
</g>
<!-- Node11&#45;&gt;Node12 -->
<g id="edge11" class="edge"><title>Node11&#45;&gt;Node12</title>
<path fill="none" stroke="midnightblue" d="M532.141,-65.4353C518.296,-57.3244 496.466,-44.5352 478.365,-33.9304"/>
<polygon fill="midnightblue" stroke="midnightblue" points="479.699,-30.6554 469.301,-28.6203 476.16,-36.6952 479.699,-30.6554"/>
</g>
<!-- Node13 -->
<g id="node13" class="node"><title>Node13</title>
<polygon fill="white" stroke="#bfbfbf" points="523.236,-5.5 523.236,-23.5 572.576,-23.5 572.576,-5.5 523.236,-5.5"/>
<text text-anchor="middle" x="547.906" y="-11.5" font-family="Helvetica,sans-Serif" font-size="10.00">fstream</text>
</g>
<!-- Node11&#45;&gt;Node13 -->
<g id="edge12" class="edge"><title>Node11&#45;&gt;Node13</title>
<path fill="none" stroke="midnightblue" d="M546.184,-65.4353C546.462,-57.3891 546.898,-44.7388 547.262,-34.1846"/>
<polygon fill="midnightblue" stroke="midnightblue" points="550.771,-33.9865 547.618,-23.8718 543.775,-33.7452 550.771,-33.9865"/>
</g>
<!-- Node16 -->
<g id="node16" class="node"><title>Node16</title>
<g id="a_node16"><a xlink:href="xmm_circularbuffer_8hpp.html" target="_top" xlink:title="../common/xmmCircularbuffer.hpp">
<polygon fill="white" stroke="black" points="827.967,-65.5 827.967,-83.5 993.845,-83.5 993.845,-65.5 827.967,-65.5"/>
<text text-anchor="middle" x="910.906" y="-71.5" font-family="Helvetica,sans-Serif" font-size="10.00">../common/xmmCircularbuffer.hpp</text>
</a>
</g>
</g>
<!-- Node15&#45;&gt;Node16 -->
<g id="edge16" class="edge"><title>Node15&#45;&gt;Node16</title>
<path fill="none" stroke="midnightblue" d="M438.577,-315.438C534.159,-293.515 718.584,-248.347 775.906,-214 830.486,-181.296 878.232,-121.123 899.357,-92.0647"/>
<polygon fill="midnightblue" stroke="midnightblue" points="902.296,-93.9711 905.255,-83.7978 896.598,-89.9055 902.296,-93.9711"/>
</g>
<!-- Node18 -->
<g id="node18" class="node"><title>Node18</title>
<g id="a_node18"><a xlink:href="xmm_events_8hpp.html" target="_top" xlink:title="../common/xmmEvents.hpp">
<polygon fill="white" stroke="black" points="266.33,-65.5 266.33,-83.5 403.482,-83.5 403.482,-65.5 266.33,-65.5"/>
<text text-anchor="middle" x="334.906" y="-71.5" font-family="Helvetica,sans-Serif" font-size="10.00">../common/xmmEvents.hpp</text>
</a>
</g>
</g>
<!-- Node15&#45;&gt;Node18 -->
<g id="edge20" class="edge"><title>Node15&#45;&gt;Node18</title>
<path fill="none" stroke="midnightblue" d="M322.377,-315.438C272.747,-300.536 205.319,-270.537 180.906,-214 154.391,-152.594 247.714,-107.302 300.723,-87.1264"/>
<polygon fill="midnightblue" stroke="midnightblue" points="302.26,-90.2899 310.427,-83.541 299.834,-83.7238 302.26,-90.2899"/>
</g>
<!-- Node20 -->
<g id="node20" class="node"><title>Node20</title>
<g id="a_node20"><a xlink:href="xmm_training_set_8hpp.html" target="_top" xlink:title="../trainingset/xmmTraining\lSet.hpp">
<polygon fill="white" stroke="black" points="189.57,-185.5 189.57,-213.5 320.243,-213.5 320.243,-185.5 189.57,-185.5"/>
<text text-anchor="start" x="197.57" y="-201.5" font-family="Helvetica,sans-Serif" font-size="10.00">../trainingset/xmmTraining</text>
<text text-anchor="middle" x="254.906" y="-191.5" font-family="Helvetica,sans-Serif" font-size="10.00">Set.hpp</text>
</a>
</g>
</g>
<!-- Node15&#45;&gt;Node20 -->
<g id="edge24" class="edge"><title>Node15&#45;&gt;Node20</title>
<path fill="none" stroke="midnightblue" d="M319.308,-315.43C299.005,-308.053 278.179,-296.623 264.906,-279 253.109,-263.336 251.358,-240.736 252.118,-223.804"/>
<polygon fill="midnightblue" stroke="midnightblue" points="255.624,-223.864 252.9,-213.625 248.645,-223.328 255.624,-223.864"/>
</g>
<!-- Node23 -->
<g id="node23" class="node"><title>Node23</title>
<g id="a_node23"><a xlink:href="xmm_model_shared_parameters_8hpp.html" target="_top" xlink:title="xmmModelSharedParameters.hpp">
<polygon fill="white" stroke="black" points="273.761,-255.5 273.761,-273.5 442.051,-273.5 442.051,-255.5 273.761,-255.5"/>
<text text-anchor="middle" x="357.906" y="-261.5" font-family="Helvetica,sans-Serif" font-size="10.00">xmmModelSharedParameters.hpp</text>
</a>
</g>
</g>
<!-- Node15&#45;&gt;Node23 -->
<g id="edge32" class="edge"><title>Node15&#45;&gt;Node23</title>
<path fill="none" stroke="midnightblue" d="M375.348,-315.446C372.097,-306.138 367.688,-293.51 364.116,-283.282"/>
<polygon fill="midnightblue" stroke="midnightblue" points="367.381,-282.017 360.78,-273.73 360.773,-284.325 367.381,-282.017"/>
</g>
<!-- Node24 -->
<g id="node24" class="node"><title>Node24</title>
<polygon fill="white" stroke="#bfbfbf" points="408.291,-190.5 408.291,-208.5 451.522,-208.5 451.522,-190.5 408.291,-190.5"/>
<text text-anchor="middle" x="429.906" y="-196.5" font-family="Helvetica,sans-Serif" font-size="10.00">mutex</text>
</g>
<!-- Node15&#45;&gt;Node24 -->
<g id="edge37" class="edge"><title>Node15&#45;&gt;Node24</title>
<path fill="none" stroke="midnightblue" d="M410.929,-315.37C425.902,-307.256 442.425,-295.252 450.906,-279 461.273,-259.135 450.693,-233.703 441.167,-217.258"/>
<polygon fill="midnightblue" stroke="midnightblue" points="444.107,-215.359 435.847,-208.724 438.167,-219.062 444.107,-215.359"/>
</g>
<!-- Node25 -->
<g id="node25" class="node"><title>Node25</title>
<polygon fill="white" stroke="#bfbfbf" points="742.85,-255.5 742.85,-273.5 794.963,-273.5 794.963,-255.5 742.85,-255.5"/>
<text text-anchor="middle" x="768.906" y="-261.5" font-family="Helvetica,sans-Serif" font-size="10.00">memory</text>
</g>
<!-- Node15&#45;&gt;Node25 -->
<g id="edge36" class="edge"><title>Node15&#45;&gt;Node25</title>
<path fill="none" stroke="midnightblue" d="M447.016,-316.412C450.019,-315.924 452.993,-315.451 455.906,-315 576.852,-296.293 609.698,-306.699 728.906,-279 731.88,-278.309 734.945,-277.485 737.993,-276.591"/>
<polygon fill="midnightblue" stroke="midnightblue" points="739.063,-279.923 747.538,-273.566 736.948,-273.251 739.063,-279.923"/>
</g>
<!-- Node16&#45;&gt;Node8 -->
<g id="edge18" class="edge"><title>Node16&#45;&gt;Node8</title>
<path fill="none" stroke="midnightblue" d="M899.087,-65.4353C885.462,-56.1382 862.829,-40.6942 846.335,-29.4393"/>
<polygon fill="midnightblue" stroke="midnightblue" points="848.132,-26.4285 837.899,-23.6831 844.186,-32.2106 848.132,-26.4285"/>
</g>
<!-- Node16&#45;&gt;Node10 -->
<g id="edge19" class="edge"><title>Node16&#45;&gt;Node10</title>
<path fill="none" stroke="midnightblue" d="M887.158,-65.4112C862.262,-56.8141 822.085,-42.6088 787.906,-29 786.71,-28.5236 785.491,-28.0298 784.262,-27.5249"/>
<polygon fill="midnightblue" stroke="midnightblue" points="785.43,-24.2189 774.857,-23.5473 782.704,-30.666 785.43,-24.2189"/>
</g>
<!-- Node17 -->
<g id="node17" class="node"><title>Node17</title>
<polygon fill="white" stroke="#bfbfbf" points="932.502,-5.5 932.502,-23.5 991.31,-23.5 991.31,-5.5 932.502,-5.5"/>
<text text-anchor="middle" x="961.906" y="-11.5" font-family="Helvetica,sans-Serif" font-size="10.00">exception</text>
</g>
<!-- Node16&#45;&gt;Node17 -->
<g id="edge17" class="edge"><title>Node16&#45;&gt;Node17</title>
<path fill="none" stroke="midnightblue" d="M917.998,-65.4353C925.675,-56.7043 938.119,-42.5523 947.803,-31.5395"/>
<polygon fill="midnightblue" stroke="midnightblue" points="950.57,-33.6927 954.545,-23.8718 945.313,-29.0703 950.57,-33.6927"/>
</g>
<!-- Node18&#45;&gt;Node6 -->
<g id="edge21" class="edge"><title>Node18&#45;&gt;Node6</title>
<path fill="none" stroke="midnightblue" d="M389.725,-65.4487C440.025,-57.6303 516.435,-44.6652 581.906,-29 585.26,-28.1975 588.734,-27.2918 592.196,-26.3389"/>
<polygon fill="midnightblue" stroke="midnightblue" points="593.17,-29.7008 601.815,-23.575 591.237,-22.973 593.17,-29.7008"/>
</g>
<!-- Node18&#45;&gt;Node14 -->
<g id="edge22" class="edge"><title>Node18&#45;&gt;Node14</title>
<path fill="none" stroke="midnightblue" d="M316.135,-65.4353C293.008,-55.4992 253.539,-38.542 227.095,-27.1811"/>
<polygon fill="midnightblue" stroke="midnightblue" points="228.229,-23.8589 217.659,-23.1272 225.466,-30.2904 228.229,-23.8589"/>
</g>
<!-- Node19 -->
<g id="node19" class="node"><title>Node19</title>
<polygon fill="white" stroke="#bfbfbf" points="278.236,-5.5 278.236,-23.5 307.576,-23.5 307.576,-5.5 278.236,-5.5"/>
<text text-anchor="middle" x="292.906" y="-11.5" font-family="Helvetica,sans-Serif" font-size="10.00">set</text>
</g>
<!-- Node18&#45;&gt;Node19 -->
<g id="edge23" class="edge"><title>Node18&#45;&gt;Node19</title>
<path fill="none" stroke="midnightblue" d="M329.066,-65.4353C322.868,-56.8755 312.896,-43.1052 304.993,-32.1909"/>
<polygon fill="midnightblue" stroke="midnightblue" points="307.668,-29.9184 298.969,-23.8718 301.999,-34.024 307.668,-29.9184"/>
</g>
<!-- Node20&#45;&gt;Node14 -->
<g id="edge30" class="edge"><title>Node20&#45;&gt;Node14</title>
<path fill="none" stroke="midnightblue" d="M250.951,-185.339C241.263,-153.106 216.337,-70.1706 205.302,-33.4521"/>
<polygon fill="midnightblue" stroke="midnightblue" points="208.585,-32.2172 202.355,-23.6478 201.881,-34.232 208.585,-32.2172"/>
</g>
<!-- Node20&#45;&gt;Node19 -->
<g id="edge31" class="edge"><title>Node20&#45;&gt;Node19</title>
<path fill="none" stroke="midnightblue" d="M252.519,-185.174C248.68,-160.641 242.9,-106.999 256.906,-65 261.127,-52.3428 269.868,-40.1936 277.68,-31.099"/>
<polygon fill="midnightblue" stroke="midnightblue" points="280.291,-33.4292 284.436,-23.6786 275.115,-28.7165 280.291,-33.4292"/>
</g>
<!-- Node21 -->
<g id="node21" class="node"><title>Node21</title>
<g id="a_node21"><a xlink:href="xmm_phrase_8hpp.html" target="_top" xlink:title="xmmPhrase.hpp">
<polygon fill="white" stroke="black" points="363.502,-125.5 363.502,-143.5 452.31,-143.5 452.31,-125.5 363.502,-125.5"/>
<text text-anchor="middle" x="407.906" y="-131.5" font-family="Helvetica,sans-Serif" font-size="10.00">xmmPhrase.hpp</text>
</a>
</g>
</g>
<!-- Node20&#45;&gt;Node21 -->
<g id="edge25" class="edge"><title>Node20&#45;&gt;Node21</title>
<path fill="none" stroke="midnightblue" d="M286.608,-185.446C313.773,-174.261 352.573,-158.284 378.922,-147.435"/>
<polygon fill="midnightblue" stroke="midnightblue" points="380.447,-150.592 388.361,-143.548 377.782,-144.119 380.447,-150.592"/>
</g>
<!-- Node21&#45;&gt;Node5 -->
<g id="edge26" class="edge"><title>Node21&#45;&gt;Node5</title>
<path fill="none" stroke="midnightblue" d="M438.095,-125.447C445.53,-123.565 453.488,-121.634 460.906,-120 522.284,-106.484 593.122,-93.6356 641.648,-85.2511"/>
<polygon fill="midnightblue" stroke="midnightblue" points="642.391,-88.6749 651.653,-83.531 641.205,-81.7761 642.391,-88.6749"/>
</g>
<!-- Node21&#45;&gt;Node11 -->
<g id="edge28" class="edge"><title>Node21&#45;&gt;Node11</title>
<path fill="none" stroke="midnightblue" d="M427.095,-125.435C450.444,-115.622 490.089,-98.9593 517.107,-87.604"/>
<polygon fill="midnightblue" stroke="midnightblue" points="518.573,-90.7844 526.436,-83.6831 515.861,-84.3312 518.573,-90.7844"/>
</g>
<!-- Node21&#45;&gt;Node18 -->
<g id="edge27" class="edge"><title>Node21&#45;&gt;Node18</title>
<path fill="none" stroke="midnightblue" d="M397.756,-125.435C386.336,-116.362 367.547,-101.434 353.482,-90.2589"/>
<polygon fill="midnightblue" stroke="midnightblue" points="355.45,-87.3522 345.443,-83.8718 351.095,-92.8329 355.45,-87.3522"/>
</g>
<!-- Node22 -->
<g id="node22" class="node"><title>Node22</title>
<polygon fill="white" stroke="#bfbfbf" points="421.291,-65.5 421.291,-83.5 464.522,-83.5 464.522,-65.5 421.291,-65.5"/>
<text text-anchor="middle" x="442.906" y="-71.5" font-family="Helvetica,sans-Serif" font-size="10.00">cmath</text>
</g>
<!-- Node21&#45;&gt;Node22 -->
<g id="edge29" class="edge"><title>Node21&#45;&gt;Node22</title>
<path fill="none" stroke="midnightblue" d="M412.773,-125.435C417.887,-116.961 426.082,-103.38 432.636,-92.5192"/>
<polygon fill="midnightblue" stroke="midnightblue" points="435.684,-94.242 437.854,-83.8718 429.691,-90.6253 435.684,-94.242"/>
</g>
<!-- Node23&#45;&gt;Node18 -->
<g id="edge33" class="edge"><title>Node23&#45;&gt;Node18</title>
<path fill="none" stroke="midnightblue" d="M356.918,-255.422C353.49,-227.404 342.056,-133.941 337.161,-93.9313"/>
<polygon fill="midnightblue" stroke="midnightblue" points="340.605,-93.2607 335.917,-83.7598 333.657,-94.1108 340.605,-93.2607"/>
</g>
<!-- Node23&#45;&gt;Node20 -->
<g id="edge34" class="edge"><title>Node23&#45;&gt;Node20</title>
<path fill="none" stroke="midnightblue" d="M344.441,-255.264C329.403,-246.066 304.591,-230.89 284.895,-218.843"/>
<polygon fill="midnightblue" stroke="midnightblue" points="286.617,-215.793 276.26,-213.561 282.964,-221.764 286.617,-215.793"/>
</g>
<!-- Node23&#45;&gt;Node24 -->
<g id="edge35" class="edge"><title>Node23&#45;&gt;Node24</title>
<path fill="none" stroke="midnightblue" d="M367.319,-255.264C378.918,-245.115 398.835,-227.687 413.088,-215.216"/>
<polygon fill="midnightblue" stroke="midnightblue" points="415.498,-217.758 420.719,-208.539 410.888,-212.49 415.498,-217.758"/>
</g>
<!-- Node26&#45;&gt;Node4 -->
<g id="edge39" class="edge"><title>Node26&#45;&gt;Node4</title>
<path fill="none" stroke="midnightblue" d="M537.906,-320.207C537.906,-291.251 537.906,-194.203 537.906,-153.601"/>
<polygon fill="midnightblue" stroke="midnightblue" points="541.406,-153.547 537.906,-143.547 534.406,-153.547 541.406,-153.547"/>
</g>
<!-- Node28 -->
<g id="node28" class="node"><title>Node28</title>
<g id="a_node28"><a xlink:href="xmm_model_results_8hpp.html" target="_top" xlink:title="../../core/model/xmmModel\lResults.hpp">
<polygon fill="white" stroke="black" points="851,-250.5 851,-278.5 984.812,-278.5 984.812,-250.5 851,-250.5"/>
<text text-anchor="start" x="859" y="-266.5" font-family="Helvetica,sans-Serif" font-size="10.00">../../core/model/xmmModel</text>
<text text-anchor="middle" x="917.906" y="-256.5" font-family="Helvetica,sans-Serif" font-size="10.00">Results.hpp</text>
</a>
</g>
</g>
<!-- Node27&#45;&gt;Node28 -->
<g id="edge41" class="edge"><title>Node27&#45;&gt;Node28</title>
<path fill="none" stroke="midnightblue" d="M754.97,-320.393C783.857,-310.661 832.999,-294.105 869.778,-281.714"/>
<polygon fill="midnightblue" stroke="midnightblue" points="870.959,-285.01 879.318,-278.5 868.724,-278.376 870.959,-285.01"/>
</g>
<!-- Node28&#45;&gt;Node9 -->
<g id="edge42" class="edge"><title>Node28&#45;&gt;Node9</title>
<path fill="none" stroke="midnightblue" d="M932.129,-250.215C965.755,-217.168 1044.32,-129.292 1002.91,-65 1002.6,-64.5299 953.396,-42.2984 921.209,-27.7919"/>
<polygon fill="midnightblue" stroke="midnightblue" points="922.394,-24.4871 911.839,-23.5705 919.518,-30.8693 922.394,-24.4871"/>
</g>
<!-- Node28&#45;&gt;Node10 -->
<g id="edge43" class="edge"><title>Node28&#45;&gt;Node10</title>
<path fill="none" stroke="midnightblue" d="M909.25,-250.166C882.054,-208.274 798.336,-79.3178 768.016,-32.613"/>
<polygon fill="midnightblue" stroke="midnightblue" points="770.777,-30.4378 762.396,-23.956 764.905,-34.2494 770.777,-30.4378"/>
</g>
<!-- Node29&#45;&gt;Node15 -->
<g id="edge46" class="edge"><title>Node29&#45;&gt;Node15</title>
<path fill="none" stroke="midnightblue" d="M626.439,-380.496C582.152,-371.515 509.309,-356.743 454.26,-345.579"/>
<polygon fill="midnightblue" stroke="midnightblue" points="454.696,-342.096 444.2,-343.538 453.304,-348.956 454.696,-342.096"/>
</g>
<!-- Node29&#45;&gt;Node25 -->
<g id="edge52" class="edge"><title>Node29&#45;&gt;Node25</title>
<path fill="none" stroke="midnightblue" d="M661.938,-380.442C655.467,-366.035 644.63,-335.457 657.906,-315 662.609,-307.753 706.725,-289.519 737.899,-277.322"/>
<polygon fill="midnightblue" stroke="midnightblue" points="739.444,-280.477 747.5,-273.596 736.911,-273.952 739.444,-280.477"/>
</g>
<!-- Node29&#45;&gt;Node28 -->
<g id="edge45" class="edge"><title>Node29&#45;&gt;Node28</title>
<path fill="none" stroke="midnightblue" d="M726.941,-380.458C760.93,-374.106 803.08,-363.017 836.906,-344 862.725,-329.485 886.31,-304.72 901.288,-286.883"/>
<polygon fill="midnightblue" stroke="midnightblue" points="904.308,-288.718 907.921,-278.758 898.886,-284.291 904.308,-288.718"/>
</g>
<!-- Node30 -->
<g id="node30" class="node"><title>Node30</title>
<g id="a_node30"><a xlink:href="xmm_gmm_parameters_8hpp.html" target="_top" xlink:title="xmmGmmParameters.hpp">
<polygon fill="white" stroke="black" points="633.283,-190.5 633.283,-208.5 766.529,-208.5 766.529,-190.5 633.283,-190.5"/>
<text text-anchor="middle" x="699.906" y="-196.5" font-family="Helvetica,sans-Serif" font-size="10.00">xmmGmmParameters.hpp</text>
</a>
</g>
</g>
<!-- Node29&#45;&gt;Node30 -->
<g id="edge47" class="edge"><title>Node29&#45;&gt;Node30</title>
<path fill="none" stroke="midnightblue" d="M733.099,-383.506C759.581,-377.851 787.531,-366.486 803.906,-344 828.5,-310.228 826.214,-285.323 803.906,-250 791.831,-230.88 770.129,-218.993 749.662,-211.679"/>
<polygon fill="midnightblue" stroke="midnightblue" points="750.667,-208.326 740.074,-208.538 748.487,-214.978 750.667,-208.326"/>
</g>
<!-- Node30&#45;&gt;Node4 -->
<g id="edge51" class="edge"><title>Node30&#45;&gt;Node4</title>
<path fill="none" stroke="midnightblue" d="M679.059,-190.393C650.869,-179.43 600.411,-159.807 568.08,-147.234"/>
<polygon fill="midnightblue" stroke="midnightblue" points="569.262,-143.939 558.673,-143.576 566.725,-150.463 569.262,-143.939"/>
</g>
<!-- Node31 -->
<g id="node31" class="node"><title>Node31</title>
<g id="a_node31"><a xlink:href="xmm_gaussian_distribution_8hpp.html" target="_top" xlink:title="../../core/distributions\l/xmmGaussianDistribution.hpp">
<polygon fill="white" stroke="black" points="623.823,-120.5 623.823,-148.5 775.99,-148.5 775.99,-120.5 623.823,-120.5"/>
<text text-anchor="start" x="631.823" y="-136.5" font-family="Helvetica,sans-Serif" font-size="10.00">../../core/distributions</text>
<text text-anchor="middle" x="699.906" y="-126.5" font-family="Helvetica,sans-Serif" font-size="10.00">/xmmGaussianDistribution.hpp</text>
</a>
</g>
</g>
<!-- Node30&#45;&gt;Node31 -->
<g id="edge48" class="edge"><title>Node30&#45;&gt;Node31</title>
<path fill="none" stroke="midnightblue" d="M699.906,-190.264C699.906,-182.359 699.906,-170.038 699.906,-159.083"/>
<polygon fill="midnightblue" stroke="midnightblue" points="703.406,-158.798 699.906,-148.798 696.406,-158.798 703.406,-158.798"/>
</g>
<!-- Node31&#45;&gt;Node5 -->
<g id="edge49" class="edge"><title>Node31&#45;&gt;Node5</title>
<path fill="none" stroke="midnightblue" d="M699.906,-120.339C699.906,-112.531 699.906,-102.512 699.906,-93.9265"/>
<polygon fill="midnightblue" stroke="midnightblue" points="703.406,-93.7714 699.906,-83.7715 696.406,-93.7715 703.406,-93.7714"/>
</g>
<!-- Node31&#45;&gt;Node11 -->
<g id="edge50" class="edge"><title>Node31&#45;&gt;Node11</title>
<path fill="none" stroke="midnightblue" d="M665.346,-120.484C638.884,-110.518 602.698,-96.8893 577.111,-87.2523"/>
<polygon fill="midnightblue" stroke="midnightblue" points="578.12,-83.8926 567.528,-83.6434 575.653,-90.4434 578.12,-83.8926"/>
</g>
</g>
</svg>
