<?xml version="1.0" encoding="UTF-8" standalone="no"?>
<!DOCTYPE svg PUBLIC "-//W3C//DTD SVG 1.1//EN"
 "http://www.w3.org/Graphics/SVG/1.1/DTD/svg11.dtd">
<!-- Generated by graphviz version 2.38.0 (20140413.2041)
 -->
<!-- Title: xmmTrainingSet.cpp Pages: 1 -->
<svg width="725pt" height="257pt"
 viewBox="0.00 0.00 725.31 257.00" xmlns="http://www.w3.org/2000/svg" xmlns:xlink="http://www.w3.org/1999/xlink">
<g id="graph0" class="graph" transform="scale(1 1) rotate(0) translate(4 253)">
<title>xmmTrainingSet.cpp</title>
<polygon fill="white" stroke="none" points="-4,4 -4,-253 721.315,-253 721.315,4 -4,4"/>
<!-- Node1 -->
<g id="node1" class="node"><title>Node1</title>
<polygon fill="#bfbfbf" stroke="black" points="306.06,-230.5 306.06,-248.5 413.393,-248.5 413.393,-230.5 306.06,-230.5"/>
<text text-anchor="middle" x="359.727" y="-236.5" font-family="Helvetica,sans-Serif" font-size="10.00">xmmTrainingSet.cpp</text>
</g>
<!-- Node2 -->
<g id="node2" class="node"><title>Node2</title>
<g id="a_node2"><a xlink:href="xmm_training_set_8hpp.html" target="_top" xlink:title="xmmTrainingSet.hpp">
<polygon fill="white" stroke="black" points="97.7793,-175.5 97.7793,-193.5 205.674,-193.5 205.674,-175.5 97.7793,-175.5"/>
<text text-anchor="middle" x="151.727" y="-181.5" font-family="Helvetica,sans-Serif" font-size="10.00">xmmTrainingSet.hpp</text>
</a>
</g>
</g>
<!-- Node1&#45;&gt;Node2 -->
<g id="edge1" class="edge"><title>Node1&#45;&gt;Node2</title>
<path fill="none" stroke="midnightblue" d="M328.136,-230.45C292.067,-221.26 232.931,-206.192 193.184,-196.064"/>
<polygon fill="midnightblue" stroke="midnightblue" points="193.828,-192.616 183.273,-193.538 192.099,-199.399 193.828,-192.616"/>
</g>
<!-- Node6 -->
<g id="node6" class="node"><title>Node6</title>
<polygon fill="white" stroke="#bfbfbf" points="414.34,-5.5 414.34,-23.5 453.113,-23.5 453.113,-5.5 414.34,-5.5"/>
<text text-anchor="middle" x="433.727" y="-11.5" font-family="Helvetica,sans-Serif" font-size="10.00">limits</text>
</g>
<!-- Node1&#45;&gt;Node6 -->
<g id="edge20" class="edge"><title>Node1&#45;&gt;Node6</title>
<path fill="none" stroke="midnightblue" d="M366.367,-230.475C383.928,-208.662 431.369,-145.769 447.727,-84 452.283,-66.7954 447.027,-46.8276 441.705,-32.9058"/>
<polygon fill="midnightblue" stroke="midnightblue" points="444.887,-31.4442 437.783,-23.5841 438.435,-34.1588 444.887,-31.4442"/>
</g>
<!-- Node3 -->
<g id="node3" class="node"><title>Node3</title>
<g id="a_node3"><a xlink:href="xmm_phrase_8hpp.html" target="_top" xlink:title="xmmPhrase.hpp">
<polygon fill="white" stroke="black" points="210.323,-120.5 210.323,-138.5 299.13,-138.5 299.13,-120.5 210.323,-120.5"/>
<text text-anchor="middle" x="254.727" y="-126.5" font-family="Helvetica,sans-Serif" font-size="10.00">xmmPhrase.hpp</text>
</a>
</g>
</g>
<!-- Node2&#45;&gt;Node3 -->
<g id="edge2" class="edge"><title>Node2&#45;&gt;Node3</title>
<path fill="none" stroke="midnightblue" d="M167.37,-175.45C184.007,-166.89 210.555,-153.229 230.022,-143.212"/>
<polygon fill="midnightblue" stroke="midnightblue" points="231.645,-146.313 238.936,-138.625 228.443,-140.089 231.645,-146.313"/>
</g>
<!-- Node11 -->
<g id="node11" class="node"><title>Node11</title>
<polygon fill="white" stroke="#bfbfbf" points="0,-5.5 0,-23.5 35.4531,-23.5 35.4531,-5.5 0,-5.5"/>
<text text-anchor="middle" x="17.7266" y="-11.5" font-family="Helvetica,sans-Serif" font-size="10.00">map</text>
</g>
<!-- Node2&#45;&gt;Node11 -->
<g id="edge18" class="edge"><title>Node2&#45;&gt;Node11</title>
<path fill="none" stroke="midnightblue" d="M135.481,-175.418C121.051,-167.622 100.084,-154.71 85.7266,-139 55.9638,-106.433 34.4014,-58.5007 24.2468,-32.986"/>
<polygon fill="midnightblue" stroke="midnightblue" points="27.4657,-31.6052 20.6026,-23.5337 20.9343,-34.1234 27.4657,-31.6052"/>
</g>
<!-- Node12 -->
<g id="node12" class="node"><title>Node12</title>
<polygon fill="white" stroke="#bfbfbf" points="64.0566,-5.5 64.0566,-23.5 93.3965,-23.5 93.3965,-5.5 64.0566,-5.5"/>
<text text-anchor="middle" x="78.7266" y="-11.5" font-family="Helvetica,sans-Serif" font-size="10.00">set</text>
</g>
<!-- Node2&#45;&gt;Node12 -->
<g id="edge19" class="edge"><title>Node2&#45;&gt;Node12</title>
<path fill="none" stroke="midnightblue" d="M141.222,-175.326C122.362,-159.901 83.3633,-124.396 68.7266,-84 62.7235,-67.432 66.8775,-47.3716 71.5228,-33.2544"/>
<polygon fill="midnightblue" stroke="midnightblue" points="74.8427,-34.3671 75.0108,-23.7736 68.2732,-31.9502 74.8427,-34.3671"/>
</g>
<!-- Node4 -->
<g id="node4" class="node"><title>Node4</title>
<g id="a_node4"><a xlink:href="xmm_attribute_8hpp.html" target="_top" xlink:title="../common/xmmAttribute.hpp">
<polygon fill="white" stroke="black" points="294.815,-65.5 294.815,-83.5 438.638,-83.5 438.638,-65.5 294.815,-65.5"/>
<text text-anchor="middle" x="366.727" y="-71.5" font-family="Helvetica,sans-Serif" font-size="10.00">../common/xmmAttribute.hpp</text>
</a>
</g>
</g>
<!-- Node3&#45;&gt;Node4 -->
<g id="edge3" class="edge"><title>Node3&#45;&gt;Node4</title>
<path fill="none" stroke="midnightblue" d="M271.737,-120.45C289.992,-111.812 319.221,-97.9803 340.439,-87.9396"/>
<polygon fill="midnightblue" stroke="midnightblue" points="342.014,-91.0664 349.556,-83.6253 339.02,-84.7391 342.014,-91.0664"/>
</g>
<!-- Node10 -->
<g id="node10" class="node"><title>Node10</title>
<g id="a_node10"><a xlink:href="xmm_events_8hpp.html" target="_top" xlink:title="../common/xmmEvents.hpp">
<polygon fill="white" stroke="black" points="78.1504,-65.5 78.1504,-83.5 215.303,-83.5 215.303,-65.5 78.1504,-65.5"/>
<text text-anchor="middle" x="146.727" y="-71.5" font-family="Helvetica,sans-Serif" font-size="10.00">../common/xmmEvents.hpp</text>
</a>
</g>
</g>
<!-- Node3&#45;&gt;Node10 -->
<g id="edge9" class="edge"><title>Node3&#45;&gt;Node10</title>
<path fill="none" stroke="midnightblue" d="M238.324,-120.45C220.8,-111.851 192.789,-98.1048 172.352,-88.0755"/>
<polygon fill="midnightblue" stroke="midnightblue" points="173.803,-84.8888 163.284,-83.6253 170.719,-91.1729 173.803,-84.8888"/>
</g>
<!-- Node13 -->
<g id="node13" class="node"><title>Node13</title>
<g id="a_node13"><a xlink:href="xmm_json_8hpp.html" target="_top" xlink:title="../common/xmmJson.hpp">
<polygon fill="white" stroke="black" points="494.875,-65.5 494.875,-83.5 622.579,-83.5 622.579,-65.5 494.875,-65.5"/>
<text text-anchor="middle" x="558.727" y="-71.5" font-family="Helvetica,sans-Serif" font-size="10.00">../common/xmmJson.hpp</text>
</a>
</g>
</g>
<!-- Node3&#45;&gt;Node13 -->
<g id="edge13" class="edge"><title>Node3&#45;&gt;Node13</title>
<path fill="none" stroke="midnightblue" d="M299.256,-120.737C353.164,-111.338 443.997,-95.5023 502.634,-85.2793"/>
<polygon fill="midnightblue" stroke="midnightblue" points="503.583,-88.6668 512.833,-83.5012 502.381,-81.7708 503.583,-88.6668"/>
</g>
<!-- Node16 -->
<g id="node16" class="node"><title>Node16</title>
<polygon fill="white" stroke="#bfbfbf" points="233.111,-65.5 233.111,-83.5 276.342,-83.5 276.342,-65.5 233.111,-65.5"/>
<text text-anchor="middle" x="254.727" y="-71.5" font-family="Helvetica,sans-Serif" font-size="10.00">cmath</text>
</g>
<!-- Node3&#45;&gt;Node16 -->
<g id="edge17" class="edge"><title>Node3&#45;&gt;Node16</title>
<path fill="none" stroke="midnightblue" d="M254.727,-120.219C254.727,-113.177 254.727,-102.808 254.727,-93.8277"/>
<polygon fill="midnightblue" stroke="midnightblue" points="258.227,-93.5495 254.727,-83.5496 251.227,-93.5496 258.227,-93.5495"/>
</g>
<!-- Node5 -->
<g id="node5" class="node"><title>Node5</title>
<polygon fill="white" stroke="#bfbfbf" points="159.323,-5.5 159.323,-23.5 218.13,-23.5 218.13,-5.5 159.323,-5.5"/>
<text text-anchor="middle" x="188.727" y="-11.5" font-family="Helvetica,sans-Serif" font-size="10.00">functional</text>
</g>
<!-- Node4&#45;&gt;Node5 -->
<g id="edge4" class="edge"><title>Node4&#45;&gt;Node5</title>
<path fill="none" stroke="midnightblue" d="M341.976,-65.4353C311.111,-55.3782 258.171,-38.128 223.31,-26.7686"/>
<polygon fill="midnightblue" stroke="midnightblue" points="224.145,-23.3598 213.553,-23.5894 221.976,-30.0154 224.145,-23.3598"/>
</g>
<!-- Node4&#45;&gt;Node6 -->
<g id="edge5" class="edge"><title>Node4&#45;&gt;Node6</title>
<path fill="none" stroke="midnightblue" d="M376.043,-65.4353C386.425,-56.4475 403.444,-41.7151 416.311,-30.5762"/>
<polygon fill="midnightblue" stroke="midnightblue" points="418.786,-33.063 424.056,-23.8718 414.204,-27.7706 418.786,-33.063"/>
</g>
<!-- Node7 -->
<g id="node7" class="node"><title>Node7</title>
<polygon fill="white" stroke="#bfbfbf" points="337.325,-5.5 337.325,-23.5 396.128,-23.5 396.128,-5.5 337.325,-5.5"/>
<text text-anchor="middle" x="366.727" y="-11.5" font-family="Helvetica,sans-Serif" font-size="10.00">stdexcept</text>
</g>
<!-- Node4&#45;&gt;Node7 -->
<g id="edge6" class="edge"><title>Node4&#45;&gt;Node7</title>
<path fill="none" stroke="midnightblue" d="M366.727,-65.4353C366.727,-57.3891 366.727,-44.7388 366.727,-34.1846"/>
<polygon fill="midnightblue" stroke="midnightblue" points="370.227,-33.8717 366.727,-23.8718 363.227,-33.8718 370.227,-33.8717"/>
</g>
<!-- Node8 -->
<g id="node8" class="node"><title>Node8</title>
<polygon fill="white" stroke="#bfbfbf" points="278.5,-5.5 278.5,-23.5 318.953,-23.5 318.953,-5.5 278.5,-5.5"/>
<text text-anchor="middle" x="298.727" y="-11.5" font-family="Helvetica,sans-Serif" font-size="10.00">string</text>
</g>
<!-- Node4&#45;&gt;Node8 -->
<g id="edge7" class="edge"><title>Node4&#45;&gt;Node8</title>
<path fill="none" stroke="midnightblue" d="M357.271,-65.4353C346.734,-56.4475 329.462,-41.7151 316.402,-30.5762"/>
<polygon fill="midnightblue" stroke="midnightblue" points="318.421,-27.6983 308.542,-23.8718 313.879,-33.0242 318.421,-27.6983"/>
</g>
<!-- Node9 -->
<g id="node9" class="node"><title>Node9</title>
<polygon fill="white" stroke="#bfbfbf" points="471.111,-5.5 471.111,-23.5 514.342,-23.5 514.342,-5.5 471.111,-5.5"/>
<text text-anchor="middle" x="492.727" y="-11.5" font-family="Helvetica,sans-Serif" font-size="10.00">vector</text>
</g>
<!-- Node4&#45;&gt;Node9 -->
<g id="edge8" class="edge"><title>Node4&#45;&gt;Node9</title>
<path fill="none" stroke="midnightblue" d="M384.246,-65.4353C405.379,-55.7078 441.129,-39.2511 465.78,-27.9041"/>
<polygon fill="midnightblue" stroke="midnightblue" points="467.329,-31.044 474.949,-23.6831 464.402,-24.6853 467.329,-31.044"/>
</g>
<!-- Node10&#45;&gt;Node5 -->
<g id="edge10" class="edge"><title>Node10&#45;&gt;Node5</title>
<path fill="none" stroke="midnightblue" d="M152.566,-65.4353C158.765,-56.8755 168.737,-43.1052 176.64,-32.1909"/>
<polygon fill="midnightblue" stroke="midnightblue" points="179.634,-34.024 182.664,-23.8718 173.964,-29.9184 179.634,-34.024"/>
</g>
<!-- Node10&#45;&gt;Node11 -->
<g id="edge11" class="edge"><title>Node10&#45;&gt;Node11</title>
<path fill="none" stroke="midnightblue" d="M128.79,-65.4353C107.032,-55.6528 70.1382,-39.0649 44.8882,-27.7122"/>
<polygon fill="midnightblue" stroke="midnightblue" points="46.0669,-24.4047 35.5111,-23.4962 43.1964,-30.7891 46.0669,-24.4047"/>
</g>
<!-- Node10&#45;&gt;Node12 -->
<g id="edge12" class="edge"><title>Node10&#45;&gt;Node12</title>
<path fill="none" stroke="midnightblue" d="M137.271,-65.4353C126.734,-56.4475 109.462,-41.7151 96.4021,-30.5762"/>
<polygon fill="midnightblue" stroke="midnightblue" points="98.4214,-27.6983 88.5417,-23.8718 93.8788,-33.0242 98.4214,-27.6983"/>
</g>
<!-- Node13&#45;&gt;Node9 -->
<g id="edge16" class="edge"><title>Node13&#45;&gt;Node9</title>
<path fill="none" stroke="midnightblue" d="M549.55,-65.4353C539.322,-56.4475 522.558,-41.7151 509.882,-30.5762"/>
<polygon fill="midnightblue" stroke="midnightblue" points="512.075,-27.8438 502.253,-23.8718 507.454,-33.102 512.075,-27.8438"/>
</g>
<!-- Node14 -->
<g id="node14" class="node"><title>Node14</title>
<polygon fill="white" stroke="#bfbfbf" points="600.138,-0.5 600.138,-28.5 717.315,-28.5 717.315,-0.5 600.138,-0.5"/>
<text text-anchor="start" x="608.138" y="-16.5" font-family="Helvetica,sans-Serif" font-size="10.00">../../../dependencies</text>
<text text-anchor="middle" x="658.727" y="-6.5" font-family="Helvetica,sans-Serif" font-size="10.00">/jsoncpp/include/json.h</text>
</g>
<!-- Node13&#45;&gt;Node14 -->
<g id="edge14" class="edge"><title>Node13&#45;&gt;Node14</title>
<path fill="none" stroke="midnightblue" d="M572.631,-65.4353C586.744,-57.25 609.071,-44.3001 627.452,-33.6391"/>
<polygon fill="midnightblue" stroke="midnightblue" points="629.211,-36.6652 636.105,-28.6203 625.699,-30.6099 629.211,-36.6652"/>
</g>
<!-- Node15 -->
<g id="node15" class="node"><title>Node15</title>
<polygon fill="white" stroke="#bfbfbf" points="533.057,-5.5 533.057,-23.5 582.396,-23.5 582.396,-5.5 533.057,-5.5"/>
<text text-anchor="middle" x="557.727" y="-11.5" font-family="Helvetica,sans-Serif" font-size="10.00">fstream</text>
</g>
<!-- Node13&#45;&gt;Node15 -->
<g id="edge15" class="edge"><title>Node13&#45;&gt;Node15</title>
<path fill="none" stroke="midnightblue" d="M558.588,-65.4353C558.449,-57.3891 558.231,-44.7388 558.049,-34.1846"/>
<polygon fill="midnightblue" stroke="midnightblue" points="561.543,-33.8099 557.871,-23.8718 554.544,-33.9306 561.543,-33.8099"/>
</g>
</g>
</svg>
