<?xml version="1.0" encoding="UTF-8" standalone="no"?>
<!DOCTYPE svg PUBLIC "-//W3C//DTD SVG 1.1//EN"
 "http://www.w3.org/Graphics/SVG/1.1/DTD/svg11.dtd">
<!-- Generated by graphviz version 2.38.0 (20140413.2041)
 -->
<!-- Title: xmmModelSingleClass.hpp Pages: 1 -->
<svg width="887pt" height="322pt"
 viewBox="0.00 0.00 887.46 322.00" xmlns="http://www.w3.org/2000/svg" xmlns:xlink="http://www.w3.org/1999/xlink">
<g id="graph0" class="graph" transform="scale(1 1) rotate(0) translate(4 318)">
<title>xmmModelSingleClass.hpp</title>
<polygon fill="white" stroke="none" points="-4,4 -4,-318 883.46,-318 883.46,4 -4,4"/>
<!-- Node1 -->
<g id="node1" class="node"><title>Node1</title>
<polygon fill="#bfbfbf" stroke="black" points="636.823,-295.5 636.823,-313.5 773.985,-313.5 773.985,-295.5 636.823,-295.5"/>
<text text-anchor="middle" x="705.404" y="-301.5" font-family="Helvetica,sans-Serif" font-size="10.00">xmmModelSingleClass.hpp</text>
</g>
<!-- Node2 -->
<g id="node2" class="node"><title>Node2</title>
<g id="a_node2"><a xlink:href="xmm_circularbuffer_8hpp.html" target="_top" xlink:title="../common/xmmCircularbuffer.hpp">
<polygon fill="white" stroke="black" points="3.46484,-65.5 3.46484,-83.5 169.343,-83.5 169.343,-65.5 3.46484,-65.5"/>
<text text-anchor="middle" x="86.4038" y="-71.5" font-family="Helvetica,sans-Serif" font-size="10.00">../common/xmmCircularbuffer.hpp</text>
</a>
</g>
</g>
<!-- Node1&#45;&gt;Node2 -->
<g id="edge1" class="edge"><title>Node1&#45;&gt;Node2</title>
<path fill="none" stroke="midnightblue" d="M672.815,-295.466C640.457,-287.235 589.577,-273.606 546.404,-259 379.503,-202.534 185.052,-118.888 114.101,-87.7566"/>
<polygon fill="midnightblue" stroke="midnightblue" points="115.11,-84.3767 104.547,-83.554 112.291,-90.7842 115.11,-84.3767"/>
</g>
<!-- Node6 -->
<g id="node6" class="node"><title>Node6</title>
<g id="a_node6"><a xlink:href="xmm_events_8hpp.html" target="_top" xlink:title="../common/xmmEvents.hpp">
<polygon fill="white" stroke="black" points="595.828,-65.5 595.828,-83.5 732.98,-83.5 732.98,-65.5 595.828,-65.5"/>
<text text-anchor="middle" x="664.404" y="-71.5" font-family="Helvetica,sans-Serif" font-size="10.00">../common/xmmEvents.hpp</text>
</a>
</g>
</g>
<!-- Node1&#45;&gt;Node6 -->
<g id="edge5" class="edge"><title>Node1&#45;&gt;Node6</title>
<path fill="none" stroke="midnightblue" d="M720.423,-295.486C732.966,-287.9 750.093,-275.262 758.404,-259 775.413,-225.719 776.576,-209.585 762.404,-175 746.997,-137.4 709.763,-106.388 685.883,-89.4515"/>
<polygon fill="midnightblue" stroke="midnightblue" points="687.682,-86.4415 677.458,-83.6654 683.719,-92.2118 687.682,-86.4415"/>
</g>
<!-- Node10 -->
<g id="node10" class="node"><title>Node10</title>
<g id="a_node10"><a xlink:href="xmm_training_set_8hpp.html" target="_top" xlink:title="../trainingset/xmmTraining\lSet.hpp">
<polygon fill="white" stroke="black" points="502.067,-175.5 502.067,-203.5 632.74,-203.5 632.74,-175.5 502.067,-175.5"/>
<text text-anchor="start" x="510.067" y="-191.5" font-family="Helvetica,sans-Serif" font-size="10.00">../trainingset/xmmTraining</text>
<text text-anchor="middle" x="567.404" y="-181.5" font-family="Helvetica,sans-Serif" font-size="10.00">Set.hpp</text>
</a>
</g>
</g>
<!-- Node1&#45;&gt;Node10 -->
<g id="edge9" class="edge"><title>Node1&#45;&gt;Node10</title>
<path fill="none" stroke="midnightblue" d="M636.473,-300.53C606.903,-295.406 574.952,-283.897 556.404,-259 546.64,-245.894 550.317,-227.437 555.929,-212.984"/>
<polygon fill="midnightblue" stroke="midnightblue" points="559.175,-214.296 559.982,-203.732 552.764,-211.487 559.175,-214.296"/>
</g>
<!-- Node19 -->
<g id="node19" class="node"><title>Node19</title>
<g id="a_node19"><a xlink:href="xmm_model_shared_parameters_8hpp.html" target="_top" xlink:title="xmmModelSharedParameters.hpp">
<polygon fill="white" stroke="black" points="565.259,-240.5 565.259,-258.5 733.549,-258.5 733.549,-240.5 565.259,-240.5"/>
<text text-anchor="middle" x="649.404" y="-246.5" font-family="Helvetica,sans-Serif" font-size="10.00">xmmModelSharedParameters.hpp</text>
</a>
</g>
</g>
<!-- Node1&#45;&gt;Node19 -->
<g id="edge25" class="edge"><title>Node1&#45;&gt;Node19</title>
<path fill="none" stroke="midnightblue" d="M696.654,-295.219C688.304,-287.316 675.527,-275.224 665.365,-265.606"/>
<polygon fill="midnightblue" stroke="midnightblue" points="667.578,-262.881 657.909,-258.55 662.766,-267.965 667.578,-262.881"/>
</g>
<!-- Node20 -->
<g id="node20" class="node"><title>Node20</title>
<polygon fill="white" stroke="#bfbfbf" points="709.788,-180.5 709.788,-198.5 753.02,-198.5 753.02,-180.5 709.788,-180.5"/>
<text text-anchor="middle" x="731.404" y="-186.5" font-family="Helvetica,sans-Serif" font-size="10.00">mutex</text>
</g>
<!-- Node1&#45;&gt;Node20 -->
<g id="edge30" class="edge"><title>Node1&#45;&gt;Node20</title>
<path fill="none" stroke="midnightblue" d="M715.147,-295.493C724.178,-287.381 737.008,-273.93 742.404,-259 748.407,-242.391 743.925,-222.336 738.999,-208.232"/>
<polygon fill="midnightblue" stroke="midnightblue" points="742.202,-206.81 735.312,-198.761 735.679,-209.35 742.202,-206.81"/>
</g>
<!-- Node21 -->
<g id="node21" class="node"><title>Node21</title>
<polygon fill="white" stroke="#bfbfbf" points="827.347,-240.5 827.347,-258.5 879.46,-258.5 879.46,-240.5 827.347,-240.5"/>
<text text-anchor="middle" x="853.404" y="-246.5" font-family="Helvetica,sans-Serif" font-size="10.00">memory</text>
</g>
<!-- Node1&#45;&gt;Node21 -->
<g id="edge29" class="edge"><title>Node1&#45;&gt;Node21</title>
<path fill="none" stroke="midnightblue" d="M727.882,-295.45C752.765,-286.539 793.079,-272.103 821.287,-262.001"/>
<polygon fill="midnightblue" stroke="midnightblue" points="822.48,-265.292 830.714,-258.625 820.12,-258.702 822.48,-265.292"/>
</g>
<!-- Node3 -->
<g id="node3" class="node"><title>Node3</title>
<polygon fill="white" stroke="#bfbfbf" points="0,-5.5 0,-23.5 58.8076,-23.5 58.8076,-5.5 0,-5.5"/>
<text text-anchor="middle" x="29.4038" y="-11.5" font-family="Helvetica,sans-Serif" font-size="10.00">exception</text>
</g>
<!-- Node2&#45;&gt;Node3 -->
<g id="edge2" class="edge"><title>Node2&#45;&gt;Node3</title>
<path fill="none" stroke="midnightblue" d="M78.4782,-65.4353C69.8136,-56.6187 55.7164,-42.2743 44.8494,-31.2165"/>
<polygon fill="midnightblue" stroke="midnightblue" points="47.1369,-28.5508 37.6312,-23.8718 42.1443,-33.4573 47.1369,-28.5508"/>
</g>
<!-- Node4 -->
<g id="node4" class="node"><title>Node4</title>
<polygon fill="white" stroke="#bfbfbf" points="77.0024,-5.5 77.0024,-23.5 135.805,-23.5 135.805,-5.5 77.0024,-5.5"/>
<text text-anchor="middle" x="106.404" y="-11.5" font-family="Helvetica,sans-Serif" font-size="10.00">stdexcept</text>
</g>
<!-- Node2&#45;&gt;Node4 -->
<g id="edge3" class="edge"><title>Node2&#45;&gt;Node4</title>
<path fill="none" stroke="midnightblue" d="M89.1847,-65.4353C92.0183,-57.2179 96.5078,-44.1985 100.192,-33.5138"/>
<polygon fill="midnightblue" stroke="midnightblue" points="103.566,-34.4665 103.517,-23.8718 96.9482,-32.1845 103.566,-34.4665"/>
</g>
<!-- Node5 -->
<g id="node5" class="node"><title>Node5</title>
<polygon fill="white" stroke="#bfbfbf" points="220.788,-5.5 220.788,-23.5 264.02,-23.5 264.02,-5.5 220.788,-5.5"/>
<text text-anchor="middle" x="242.404" y="-11.5" font-family="Helvetica,sans-Serif" font-size="10.00">vector</text>
</g>
<!-- Node2&#45;&gt;Node5 -->
<g id="edge4" class="edge"><title>Node2&#45;&gt;Node5</title>
<path fill="none" stroke="midnightblue" d="M111.257,-65.4043C136.836,-56.9134 177.734,-42.8949 212.404,-29 213.438,-28.5857 214.488,-28.1562 215.546,-27.7161"/>
<polygon fill="midnightblue" stroke="midnightblue" points="217.271,-30.7834 225.059,-23.6002 214.492,-24.359 217.271,-30.7834"/>
</g>
<!-- Node7 -->
<g id="node7" class="node"><title>Node7</title>
<polygon fill="white" stroke="#bfbfbf" points="553,-5.5 553,-23.5 611.808,-23.5 611.808,-5.5 553,-5.5"/>
<text text-anchor="middle" x="582.404" y="-11.5" font-family="Helvetica,sans-Serif" font-size="10.00">functional</text>
</g>
<!-- Node6&#45;&gt;Node7 -->
<g id="edge6" class="edge"><title>Node6&#45;&gt;Node7</title>
<path fill="none" stroke="midnightblue" d="M653.002,-65.4353C639.98,-56.2243 618.427,-40.9797 602.555,-29.753"/>
<polygon fill="midnightblue" stroke="midnightblue" points="604.158,-26.6004 593.973,-23.6831 600.116,-32.3153 604.158,-26.6004"/>
</g>
<!-- Node8 -->
<g id="node8" class="node"><title>Node8</title>
<polygon fill="white" stroke="#bfbfbf" points="714.677,-5.5 714.677,-23.5 750.13,-23.5 750.13,-5.5 714.677,-5.5"/>
<text text-anchor="middle" x="732.404" y="-11.5" font-family="Helvetica,sans-Serif" font-size="10.00">map</text>
</g>
<!-- Node6&#45;&gt;Node8 -->
<g id="edge7" class="edge"><title>Node6&#45;&gt;Node8</title>
<path fill="none" stroke="midnightblue" d="M673.859,-65.4353C684.396,-56.4475 701.669,-41.7151 714.728,-30.5762"/>
<polygon fill="midnightblue" stroke="midnightblue" points="717.252,-33.0242 722.589,-23.8718 712.709,-27.6983 717.252,-33.0242"/>
</g>
<!-- Node9 -->
<g id="node9" class="node"><title>Node9</title>
<polygon fill="white" stroke="#bfbfbf" points="639.734,-5.5 639.734,-23.5 669.074,-23.5 669.074,-5.5 639.734,-5.5"/>
<text text-anchor="middle" x="654.404" y="-11.5" font-family="Helvetica,sans-Serif" font-size="10.00">set</text>
</g>
<!-- Node6&#45;&gt;Node9 -->
<g id="edge8" class="edge"><title>Node6&#45;&gt;Node9</title>
<path fill="none" stroke="midnightblue" d="M663.013,-65.4353C661.611,-57.3035 659.398,-44.4692 657.567,-33.8485"/>
<polygon fill="midnightblue" stroke="midnightblue" points="660.995,-33.1317 655.847,-23.8718 654.097,-34.3211 660.995,-33.1317"/>
</g>
<!-- Node10&#45;&gt;Node8 -->
<g id="edge23" class="edge"><title>Node10&#45;&gt;Node8</title>
<path fill="none" stroke="midnightblue" d="M613.373,-175.381C655.373,-160.674 714.98,-132.317 742.404,-84 751.283,-68.356 746.361,-47.5899 740.741,-33.0385"/>
<polygon fill="midnightblue" stroke="midnightblue" points="743.889,-31.4981 736.713,-23.7032 737.462,-34.2716 743.889,-31.4981"/>
</g>
<!-- Node10&#45;&gt;Node9 -->
<g id="edge24" class="edge"><title>Node10&#45;&gt;Node9</title>
<path fill="none" stroke="midnightblue" d="M566.266,-175.126C564.882,-151.179 564.962,-100.201 586.404,-65 596.783,-47.9599 615.455,-35.008 630.611,-26.6348"/>
<polygon fill="midnightblue" stroke="midnightblue" points="632.231,-29.7374 639.487,-22.0173 629,-23.5274 632.231,-29.7374"/>
</g>
<!-- Node11 -->
<g id="node11" class="node"><title>Node11</title>
<g id="a_node11"><a xlink:href="xmm_phrase_8hpp.html" target="_top" xlink:title="xmmPhrase.hpp">
<polygon fill="white" stroke="black" points="451,-120.5 451,-138.5 539.808,-138.5 539.808,-120.5 451,-120.5"/>
<text text-anchor="middle" x="495.404" y="-126.5" font-family="Helvetica,sans-Serif" font-size="10.00">xmmPhrase.hpp</text>
</a>
</g>
</g>
<!-- Node10&#45;&gt;Node11 -->
<g id="edge10" class="edge"><title>Node10&#45;&gt;Node11</title>
<path fill="none" stroke="midnightblue" d="M551.066,-175.339C539.957,-166.39 525.245,-154.538 513.736,-145.267"/>
<polygon fill="midnightblue" stroke="midnightblue" points="515.655,-142.319 505.672,-138.771 511.264,-147.77 515.655,-142.319"/>
</g>
<!-- Node11&#45;&gt;Node6 -->
<g id="edge17" class="edge"><title>Node11&#45;&gt;Node6</title>
<path fill="none" stroke="midnightblue" d="M521.071,-120.45C549.817,-111.436 596.596,-96.7653 628.851,-86.6496"/>
<polygon fill="midnightblue" stroke="midnightblue" points="630.278,-89.8704 638.772,-83.5383 628.183,-83.1911 630.278,-89.8704"/>
</g>
<!-- Node12 -->
<g id="node12" class="node"><title>Node12</title>
<g id="a_node12"><a xlink:href="xmm_attribute_8hpp.html" target="_top" xlink:title="../common/xmmAttribute.hpp">
<polygon fill="white" stroke="black" points="333.493,-65.5 333.493,-83.5 477.315,-83.5 477.315,-65.5 333.493,-65.5"/>
<text text-anchor="middle" x="405.404" y="-71.5" font-family="Helvetica,sans-Serif" font-size="10.00">../common/xmmAttribute.hpp</text>
</a>
</g>
</g>
<!-- Node11&#45;&gt;Node12 -->
<g id="edge11" class="edge"><title>Node11&#45;&gt;Node12</title>
<path fill="none" stroke="midnightblue" d="M481.735,-120.45C467.462,-112.045 444.841,-98.7241 427.924,-88.7618"/>
<polygon fill="midnightblue" stroke="midnightblue" points="429.594,-85.6838 419.202,-83.6253 426.042,-91.7157 429.594,-85.6838"/>
</g>
<!-- Node15 -->
<g id="node15" class="node"><title>Node15</title>
<g id="a_node15"><a xlink:href="xmm_json_8hpp.html" target="_top" xlink:title="../common/xmmJson.hpp">
<polygon fill="white" stroke="black" points="187.552,-65.5 187.552,-83.5 315.256,-83.5 315.256,-65.5 187.552,-65.5"/>
<text text-anchor="middle" x="251.404" y="-71.5" font-family="Helvetica,sans-Serif" font-size="10.00">../common/xmmJson.hpp</text>
</a>
</g>
</g>
<!-- Node11&#45;&gt;Node15 -->
<g id="edge18" class="edge"><title>Node11&#45;&gt;Node15</title>
<path fill="none" stroke="midnightblue" d="M458.345,-120.45C415.495,-111.143 344.891,-95.8067 298.266,-85.6791"/>
<polygon fill="midnightblue" stroke="midnightblue" points="298.925,-82.2408 288.41,-83.5383 297.44,-89.0813 298.925,-82.2408"/>
</g>
<!-- Node18 -->
<g id="node18" class="node"><title>Node18</title>
<polygon fill="white" stroke="#bfbfbf" points="495.788,-65.5 495.788,-83.5 539.02,-83.5 539.02,-65.5 495.788,-65.5"/>
<text text-anchor="middle" x="517.404" y="-71.5" font-family="Helvetica,sans-Serif" font-size="10.00">cmath</text>
</g>
<!-- Node11&#45;&gt;Node18 -->
<g id="edge22" class="edge"><title>Node11&#45;&gt;Node18</title>
<path fill="none" stroke="midnightblue" d="M498.841,-120.219C501.862,-112.942 506.357,-102.113 510.167,-92.9345"/>
<polygon fill="midnightblue" stroke="midnightblue" points="513.461,-94.1273 514.062,-83.5496 506.996,-91.4436 513.461,-94.1273"/>
</g>
<!-- Node12&#45;&gt;Node4 -->
<g id="edge14" class="edge"><title>Node12&#45;&gt;Node4</title>
<path fill="none" stroke="midnightblue" d="M339.578,-65.4787C286.401,-58.2349 209.899,-46.0809 144.404,-29 141.914,-28.3507 139.356,-27.6096 136.801,-26.8165"/>
<polygon fill="midnightblue" stroke="midnightblue" points="137.702,-23.4275 127.108,-23.5835 135.487,-30.0679 137.702,-23.4275"/>
</g>
<!-- Node12&#45;&gt;Node5 -->
<g id="edge16" class="edge"><title>Node12&#45;&gt;Node5</title>
<path fill="none" stroke="midnightblue" d="M378.881,-65.4854C351.836,-57.113 308.798,-43.236 272.404,-29 271.207,-28.5319 269.989,-28.0417 268.762,-27.5371"/>
<polygon fill="midnightblue" stroke="midnightblue" points="269.981,-24.2511 259.412,-23.5087 267.211,-30.6799 269.981,-24.2511"/>
</g>
<!-- Node12&#45;&gt;Node7 -->
<g id="edge12" class="edge"><title>Node12&#45;&gt;Node7</title>
<path fill="none" stroke="midnightblue" d="M430.015,-65.4353C460.707,-55.3782 513.349,-38.128 548.015,-26.7686"/>
<polygon fill="midnightblue" stroke="midnightblue" points="549.304,-30.0294 557.717,-23.5894 547.124,-23.3774 549.304,-30.0294"/>
</g>
<!-- Node13 -->
<g id="node13" class="node"><title>Node13</title>
<polygon fill="white" stroke="#bfbfbf" points="476.017,-5.5 476.017,-23.5 514.791,-23.5 514.791,-5.5 476.017,-5.5"/>
<text text-anchor="middle" x="495.404" y="-11.5" font-family="Helvetica,sans-Serif" font-size="10.00">limits</text>
</g>
<!-- Node12&#45;&gt;Node13 -->
<g id="edge13" class="edge"><title>Node12&#45;&gt;Node13</title>
<path fill="none" stroke="midnightblue" d="M417.918,-65.4353C432.478,-56.0521 456.754,-40.4077 474.257,-29.1277"/>
<polygon fill="midnightblue" stroke="midnightblue" points="476.196,-32.0422 482.706,-23.6831 472.404,-26.1582 476.196,-32.0422"/>
</g>
<!-- Node14 -->
<g id="node14" class="node"><title>Node14</title>
<polygon fill="white" stroke="#bfbfbf" points="417.177,-5.5 417.177,-23.5 457.63,-23.5 457.63,-5.5 417.177,-5.5"/>
<text text-anchor="middle" x="437.404" y="-11.5" font-family="Helvetica,sans-Serif" font-size="10.00">string</text>
</g>
<!-- Node12&#45;&gt;Node14 -->
<g id="edge15" class="edge"><title>Node12&#45;&gt;Node14</title>
<path fill="none" stroke="midnightblue" d="M409.853,-65.4353C414.481,-57.0467 421.871,-43.6539 427.832,-32.8491"/>
<polygon fill="midnightblue" stroke="midnightblue" points="431.019,-34.3183 432.785,-23.8718 424.89,-30.9368 431.019,-34.3183"/>
</g>
<!-- Node15&#45;&gt;Node5 -->
<g id="edge21" class="edge"><title>Node15&#45;&gt;Node5</title>
<path fill="none" stroke="midnightblue" d="M250.152,-65.4353C248.891,-57.3035 246.899,-44.4692 245.251,-33.8485"/>
<polygon fill="midnightblue" stroke="midnightblue" points="248.695,-33.2168 243.703,-23.8718 241.778,-34.2902 248.695,-33.2168"/>
</g>
<!-- Node16 -->
<g id="node16" class="node"><title>Node16</title>
<polygon fill="white" stroke="#bfbfbf" points="281.815,-0.5 281.815,-28.5 398.992,-28.5 398.992,-0.5 281.815,-0.5"/>
<text text-anchor="start" x="289.815" y="-16.5" font-family="Helvetica,sans-Serif" font-size="10.00">../../../dependencies</text>
<text text-anchor="middle" x="340.404" y="-6.5" font-family="Helvetica,sans-Serif" font-size="10.00">/jsoncpp/include/json.h</text>
</g>
<!-- Node15&#45;&gt;Node16 -->
<g id="edge19" class="edge"><title>Node15&#45;&gt;Node16</title>
<path fill="none" stroke="midnightblue" d="M263.779,-65.4353C276.111,-57.3989 295.49,-44.7694 311.674,-34.2229"/>
<polygon fill="midnightblue" stroke="midnightblue" points="313.804,-37.0125 320.271,-28.6203 309.982,-31.1479 313.804,-37.0125"/>
</g>
<!-- Node17 -->
<g id="node17" class="node"><title>Node17</title>
<polygon fill="white" stroke="#bfbfbf" points="153.734,-5.5 153.734,-23.5 203.074,-23.5 203.074,-5.5 153.734,-5.5"/>
<text text-anchor="middle" x="178.404" y="-11.5" font-family="Helvetica,sans-Serif" font-size="10.00">fstream</text>
</g>
<!-- Node15&#45;&gt;Node17 -->
<g id="edge20" class="edge"><title>Node15&#45;&gt;Node17</title>
<path fill="none" stroke="midnightblue" d="M241.253,-65.4353C229.834,-56.3619 211.045,-41.434 196.98,-30.2589"/>
<polygon fill="midnightblue" stroke="midnightblue" points="198.948,-27.3522 188.941,-23.8718 194.593,-32.8329 198.948,-27.3522"/>
</g>
<!-- Node19&#45;&gt;Node6 -->
<g id="edge26" class="edge"><title>Node19&#45;&gt;Node6</title>
<path fill="none" stroke="midnightblue" d="M650.127,-240.156C652.419,-213.724 659.557,-131.396 662.787,-94.1437"/>
<polygon fill="midnightblue" stroke="midnightblue" points="666.311,-94.0254 663.688,-83.7604 659.337,-93.4207 666.311,-94.0254"/>
</g>
<!-- Node19&#45;&gt;Node10 -->
<g id="edge27" class="edge"><title>Node19&#45;&gt;Node10</title>
<path fill="none" stroke="midnightblue" d="M638.002,-240.435C626.745,-232.473 609.115,-220.003 594.289,-209.516"/>
<polygon fill="midnightblue" stroke="midnightblue" points="596.139,-206.538 585.953,-203.62 592.096,-212.252 596.139,-206.538"/>
</g>
<!-- Node19&#45;&gt;Node20 -->
<g id="edge28" class="edge"><title>Node19&#45;&gt;Node20</title>
<path fill="none" stroke="midnightblue" d="M660.806,-240.435C673.828,-231.224 695.381,-215.98 711.253,-204.753"/>
<polygon fill="midnightblue" stroke="midnightblue" points="713.692,-207.315 719.835,-198.683 709.649,-201.6 713.692,-207.315"/>
</g>
</g>
</svg>
