<?xml version="1.0" encoding="UTF-8" standalone="no"?>
<!DOCTYPE svg PUBLIC "-//W3C//DTD SVG 1.1//EN"
 "http://www.w3.org/Graphics/SVG/1.1/DTD/svg11.dtd">
<!-- Generated by graphviz version 2.38.0 (20140413.2041)
 -->
<!-- Title: xmmGaussianDistribution.cpp Pages: 1 -->
<svg width="734pt" height="202pt"
 viewBox="0.00 0.00 734.20 202.00" xmlns="http://www.w3.org/2000/svg" xmlns:xlink="http://www.w3.org/1999/xlink">
<g id="graph0" class="graph" transform="scale(1 1) rotate(0) translate(4 198)">
<title>xmmGaussianDistribution.cpp</title>
<polygon fill="white" stroke="none" points="-4,4 -4,-198 730.204,-198 730.204,4 -4,4"/>
<!-- Node1 -->
<g id="node1" class="node"><title>Node1</title>
<polygon fill="#bfbfbf" stroke="black" points="291.202,-175.5 291.202,-193.5 440.029,-193.5 440.029,-175.5 291.202,-175.5"/>
<text text-anchor="middle" x="365.616" y="-181.5" font-family="Helvetica,sans-Serif" font-size="10.00">xmmGaussianDistribution.cpp</text>
</g>
<!-- Node2 -->
<g id="node2" class="node"><title>Node2</title>
<g id="a_node2"><a xlink:href="xmm_matrix_8hpp.html" target="_top" xlink:title="../common/xmmMatrix.hpp">
<polygon fill="white" stroke="black" points="119.714,-65.5 119.714,-83.5 253.517,-83.5 253.517,-65.5 119.714,-65.5"/>
<text text-anchor="middle" x="186.616" y="-71.5" font-family="Helvetica,sans-Serif" font-size="10.00">../common/xmmMatrix.hpp</text>
</a>
</g>
</g>
<!-- Node1&#45;&gt;Node2 -->
<g id="edge1" class="edge"><title>Node1&#45;&gt;Node2</title>
<path fill="none" stroke="midnightblue" d="M349.242,-175.45C332.112,-166.884 304.572,-152.704 281.616,-139 254.827,-123.008 225.1,-102.7 206.155,-89.4144"/>
<polygon fill="midnightblue" stroke="midnightblue" points="207.969,-86.4112 197.781,-83.506 203.934,-92.1309 207.969,-86.4112"/>
</g>
<!-- Node8 -->
<g id="node8" class="node"><title>Node8</title>
<g id="a_node8"><a xlink:href="xmm_gaussian_distribution_8hpp.html" target="_top" xlink:title="xmmGaussianDistribution.hpp">
<polygon fill="white" stroke="black" points="290.921,-120.5 290.921,-138.5 440.31,-138.5 440.31,-120.5 290.921,-120.5"/>
<text text-anchor="middle" x="365.616" y="-126.5" font-family="Helvetica,sans-Serif" font-size="10.00">xmmGaussianDistribution.hpp</text>
</a>
</g>
</g>
<!-- Node1&#45;&gt;Node8 -->
<g id="edge7" class="edge"><title>Node1&#45;&gt;Node8</title>
<path fill="none" stroke="midnightblue" d="M365.616,-175.219C365.616,-168.177 365.616,-157.808 365.616,-148.828"/>
<polygon fill="midnightblue" stroke="midnightblue" points="369.116,-148.55 365.616,-138.55 362.116,-148.55 369.116,-148.55"/>
</g>
<!-- Node16 -->
<g id="node16" class="node"><title>Node16</title>
<polygon fill="white" stroke="#bfbfbf" points="458.052,-120.5 458.052,-138.5 515.18,-138.5 515.18,-120.5 458.052,-120.5"/>
<text text-anchor="middle" x="486.616" y="-126.5" font-family="Helvetica,sans-Serif" font-size="10.00">algorithm</text>
</g>
<!-- Node1&#45;&gt;Node16 -->
<g id="edge18" class="edge"><title>Node1&#45;&gt;Node16</title>
<path fill="none" stroke="midnightblue" d="M383.993,-175.45C403.893,-166.734 435.863,-152.731 458.833,-142.669"/>
<polygon fill="midnightblue" stroke="midnightblue" points="460.31,-145.843 468.065,-138.625 457.501,-139.432 460.31,-145.843"/>
</g>
<!-- Node3 -->
<g id="node3" class="node"><title>Node3</title>
<polygon fill="white" stroke="#bfbfbf" points="0,-5.5 0,-23.5 43.2314,-23.5 43.2314,-5.5 0,-5.5"/>
<text text-anchor="middle" x="21.6157" y="-11.5" font-family="Helvetica,sans-Serif" font-size="10.00">cmath</text>
</g>
<!-- Node2&#45;&gt;Node3 -->
<g id="edge2" class="edge"><title>Node2&#45;&gt;Node3</title>
<path fill="none" stroke="midnightblue" d="M160.179,-65.4941C132.97,-57.0747 89.4725,-43.1123 52.6157,-29 51.4131,-28.5395 50.189,-28.0588 48.9558,-27.5648"/>
<polygon fill="midnightblue" stroke="midnightblue" points="50.1104,-24.2541 39.534,-23.6293 47.4124,-30.7132 50.1104,-24.2541"/>
</g>
<!-- Node4 -->
<g id="node4" class="node"><title>Node4</title>
<polygon fill="white" stroke="#bfbfbf" points="61.2119,-5.5 61.2119,-23.5 120.02,-23.5 120.02,-5.5 61.2119,-5.5"/>
<text text-anchor="middle" x="90.6157" y="-11.5" font-family="Helvetica,sans-Serif" font-size="10.00">exception</text>
</g>
<!-- Node2&#45;&gt;Node4 -->
<g id="edge3" class="edge"><title>Node2&#45;&gt;Node4</title>
<path fill="none" stroke="midnightblue" d="M173.267,-65.4353C157.665,-56.0091 131.605,-40.2641 112.915,-28.9728"/>
<polygon fill="midnightblue" stroke="midnightblue" points="114.529,-25.8586 104.16,-23.6831 110.909,-31.85 114.529,-25.8586"/>
</g>
<!-- Node5 -->
<g id="node5" class="node"><title>Node5</title>
<polygon fill="white" stroke="#bfbfbf" points="138.443,-5.5 138.443,-23.5 192.788,-23.5 192.788,-5.5 138.443,-5.5"/>
<text text-anchor="middle" x="165.616" y="-11.5" font-family="Helvetica,sans-Serif" font-size="10.00">iostream</text>
</g>
<!-- Node2&#45;&gt;Node5 -->
<g id="edge4" class="edge"><title>Node2&#45;&gt;Node5</title>
<path fill="none" stroke="midnightblue" d="M183.696,-65.4353C180.72,-57.2179 176.007,-44.1985 172.138,-33.5138"/>
<polygon fill="midnightblue" stroke="midnightblue" points="175.342,-32.0829 168.647,-23.8718 168.76,-34.466 175.342,-32.0829"/>
</g>
<!-- Node6 -->
<g id="node6" class="node"><title>Node6</title>
<polygon fill="white" stroke="#bfbfbf" points="211.214,-5.5 211.214,-23.5 270.017,-23.5 270.017,-5.5 211.214,-5.5"/>
<text text-anchor="middle" x="240.616" y="-11.5" font-family="Helvetica,sans-Serif" font-size="10.00">stdexcept</text>
</g>
<!-- Node2&#45;&gt;Node6 -->
<g id="edge5" class="edge"><title>Node2&#45;&gt;Node6</title>
<path fill="none" stroke="midnightblue" d="M194.124,-65.4353C202.333,-56.6187 215.688,-42.2743 225.983,-31.2165"/>
<polygon fill="midnightblue" stroke="midnightblue" points="228.569,-33.5757 232.821,-23.8718 223.445,-28.8057 228.569,-33.5757"/>
</g>
<!-- Node7 -->
<g id="node7" class="node"><title>Node7</title>
<polygon fill="white" stroke="#bfbfbf" points="404,-5.5 404,-23.5 447.231,-23.5 447.231,-5.5 404,-5.5"/>
<text text-anchor="middle" x="425.616" y="-11.5" font-family="Helvetica,sans-Serif" font-size="10.00">vector</text>
</g>
<!-- Node2&#45;&gt;Node7 -->
<g id="edge6" class="edge"><title>Node2&#45;&gt;Node7</title>
<path fill="none" stroke="midnightblue" d="M237.795,-65.4939C280.361,-58.1387 342.228,-45.8241 394.616,-29 396.23,-28.4817 397.874,-27.9086 399.521,-27.2996"/>
<polygon fill="midnightblue" stroke="midnightblue" points="400.836,-30.5433 408.796,-23.5516 398.213,-24.0531 400.836,-30.5433"/>
</g>
<!-- Node9 -->
<g id="node9" class="node"><title>Node9</title>
<g id="a_node9"><a xlink:href="xmm_attribute_8hpp.html" target="_top" xlink:title="../common/xmmAttribute.hpp">
<polygon fill="white" stroke="black" points="293.705,-65.5 293.705,-83.5 437.527,-83.5 437.527,-65.5 293.705,-65.5"/>
<text text-anchor="middle" x="365.616" y="-71.5" font-family="Helvetica,sans-Serif" font-size="10.00">../common/xmmAttribute.hpp</text>
</a>
</g>
</g>
<!-- Node8&#45;&gt;Node9 -->
<g id="edge8" class="edge"><title>Node8&#45;&gt;Node9</title>
<path fill="none" stroke="midnightblue" d="M365.616,-120.219C365.616,-113.177 365.616,-102.808 365.616,-93.8277"/>
<polygon fill="midnightblue" stroke="midnightblue" points="369.116,-93.5495 365.616,-83.5496 362.116,-93.5496 369.116,-93.5495"/>
</g>
<!-- Node13 -->
<g id="node13" class="node"><title>Node13</title>
<g id="a_node13"><a xlink:href="xmm_json_8hpp.html" target="_top" xlink:title="../common/xmmJson.hpp">
<polygon fill="white" stroke="black" points="478.764,-65.5 478.764,-83.5 606.468,-83.5 606.468,-65.5 478.764,-65.5"/>
<text text-anchor="middle" x="542.616" y="-71.5" font-family="Helvetica,sans-Serif" font-size="10.00">../common/xmmJson.hpp</text>
</a>
</g>
</g>
<!-- Node8&#45;&gt;Node13 -->
<g id="edge14" class="edge"><title>Node8&#45;&gt;Node13</title>
<path fill="none" stroke="midnightblue" d="M392.498,-120.45C422.735,-111.396 472.022,-96.6382 505.818,-86.5185"/>
<polygon fill="midnightblue" stroke="midnightblue" points="507.195,-89.7598 515.771,-83.5383 505.187,-83.054 507.195,-89.7598"/>
</g>
<!-- Node9&#45;&gt;Node6 -->
<g id="edge11" class="edge"><title>Node9&#45;&gt;Node6</title>
<path fill="none" stroke="midnightblue" d="M348.235,-65.4353C327.27,-55.7078 291.803,-39.2511 267.349,-27.9041"/>
<polygon fill="midnightblue" stroke="midnightblue" points="268.796,-24.7173 258.252,-23.6831 265.85,-31.0671 268.796,-24.7173"/>
</g>
<!-- Node9&#45;&gt;Node7 -->
<g id="edge13" class="edge"><title>Node9&#45;&gt;Node7</title>
<path fill="none" stroke="midnightblue" d="M373.958,-65.4353C383.168,-56.5331 398.207,-41.9952 409.689,-30.8954"/>
<polygon fill="midnightblue" stroke="midnightblue" points="412.198,-33.3385 416.955,-23.8718 407.333,-28.3055 412.198,-33.3385"/>
</g>
<!-- Node10 -->
<g id="node10" class="node"><title>Node10</title>
<polygon fill="white" stroke="#bfbfbf" points="465.212,-5.5 465.212,-23.5 524.02,-23.5 524.02,-5.5 465.212,-5.5"/>
<text text-anchor="middle" x="494.616" y="-11.5" font-family="Helvetica,sans-Serif" font-size="10.00">functional</text>
</g>
<!-- Node9&#45;&gt;Node10 -->
<g id="edge9" class="edge"><title>Node9&#45;&gt;Node10</title>
<path fill="none" stroke="midnightblue" d="M383.553,-65.4353C405.188,-55.7078 441.79,-39.2511 467.027,-27.9041"/>
<polygon fill="midnightblue" stroke="midnightblue" points="468.73,-30.9761 476.415,-23.6831 465.859,-24.5917 468.73,-30.9761"/>
</g>
<!-- Node11 -->
<g id="node11" class="node"><title>Node11</title>
<polygon fill="white" stroke="#bfbfbf" points="288.229,-5.5 288.229,-23.5 327.002,-23.5 327.002,-5.5 288.229,-5.5"/>
<text text-anchor="middle" x="307.616" y="-11.5" font-family="Helvetica,sans-Serif" font-size="10.00">limits</text>
</g>
<!-- Node9&#45;&gt;Node11 -->
<g id="edge10" class="edge"><title>Node9&#45;&gt;Node11</title>
<path fill="none" stroke="midnightblue" d="M357.551,-65.4353C348.734,-56.6187 334.39,-42.2743 323.332,-31.2165"/>
<polygon fill="midnightblue" stroke="midnightblue" points="325.533,-28.468 315.987,-23.8718 320.584,-33.4177 325.533,-28.468"/>
</g>
<!-- Node12 -->
<g id="node12" class="node"><title>Node12</title>
<polygon fill="white" stroke="#bfbfbf" points="345.389,-5.5 345.389,-23.5 385.842,-23.5 385.842,-5.5 345.389,-5.5"/>
<text text-anchor="middle" x="365.616" y="-11.5" font-family="Helvetica,sans-Serif" font-size="10.00">string</text>
</g>
<!-- Node9&#45;&gt;Node12 -->
<g id="edge12" class="edge"><title>Node9&#45;&gt;Node12</title>
<path fill="none" stroke="midnightblue" d="M365.616,-65.4353C365.616,-57.3891 365.616,-44.7388 365.616,-34.1846"/>
<polygon fill="midnightblue" stroke="midnightblue" points="369.116,-33.8717 365.616,-23.8718 362.116,-33.8718 369.116,-33.8717"/>
</g>
<!-- Node13&#45;&gt;Node7 -->
<g id="edge17" class="edge"><title>Node13&#45;&gt;Node7</title>
<path fill="none" stroke="midnightblue" d="M526.347,-65.4353C506.898,-55.7939 474.114,-39.5418 451.248,-28.2065"/>
<polygon fill="midnightblue" stroke="midnightblue" points="452.637,-24.9888 442.123,-23.6831 449.528,-31.2605 452.637,-24.9888"/>
</g>
<!-- Node14 -->
<g id="node14" class="node"><title>Node14</title>
<polygon fill="white" stroke="#bfbfbf" points="609.027,-0.5 609.027,-28.5 726.204,-28.5 726.204,-0.5 609.027,-0.5"/>
<text text-anchor="start" x="617.027" y="-16.5" font-family="Helvetica,sans-Serif" font-size="10.00">../../../dependencies</text>
<text text-anchor="middle" x="667.616" y="-6.5" font-family="Helvetica,sans-Serif" font-size="10.00">/jsoncpp/include/json.h</text>
</g>
<!-- Node13&#45;&gt;Node14 -->
<g id="edge15" class="edge"><title>Node13&#45;&gt;Node14</title>
<path fill="none" stroke="midnightblue" d="M559.996,-65.4353C578.038,-57.064 606.82,-43.709 630.082,-32.9159"/>
<polygon fill="midnightblue" stroke="midnightblue" points="631.741,-36.0042 639.339,-28.6203 628.795,-29.6545 631.741,-36.0042"/>
</g>
<!-- Node15 -->
<g id="node15" class="node"><title>Node15</title>
<polygon fill="white" stroke="#bfbfbf" points="541.946,-5.5 541.946,-23.5 591.286,-23.5 591.286,-5.5 541.946,-5.5"/>
<text text-anchor="middle" x="566.616" y="-11.5" font-family="Helvetica,sans-Serif" font-size="10.00">fstream</text>
</g>
<!-- Node13&#45;&gt;Node15 -->
<g id="edge16" class="edge"><title>Node13&#45;&gt;Node15</title>
<path fill="none" stroke="midnightblue" d="M545.953,-65.4353C549.389,-57.1323 554.853,-43.9267 559.3,-33.1807"/>
<polygon fill="midnightblue" stroke="midnightblue" points="562.562,-34.4502 563.152,-23.8718 556.094,-31.7737 562.562,-34.4502"/>
</g>
</g>
</svg>
