<?xml version="1.0" encoding="UTF-8" standalone="no"?>
<!DOCTYPE svg PUBLIC "-//W3C//DTD SVG 1.1//EN"
 "http://www.w3.org/Graphics/SVG/1.1/DTD/svg11.dtd">
<!-- Generated by graphviz version 2.38.0 (20140413.2041)
 -->
<!-- Title: xmmAttribute.hpp Pages: 1 -->
<svg width="1284pt" height="467pt"
 viewBox="0.00 0.00 1284.28 467.00" xmlns="http://www.w3.org/2000/svg" xmlns:xlink="http://www.w3.org/1999/xlink">
<g id="graph0" class="graph" transform="scale(1 1) rotate(0) translate(4 463)">
<title>xmmAttribute.hpp</title>
<polygon fill="white" stroke="none" points="-4,4 -4,-463 1280.28,-463 1280.28,4 -4,4"/>
<!-- Node1 -->
<g id="node1" class="node"><title>Node1</title>
<polygon fill="#bfbfbf" stroke="black" points="530.231,-440.5 530.231,-458.5 624.596,-458.5 624.596,-440.5 530.231,-440.5"/>
<text text-anchor="middle" x="577.414" y="-446.5" font-family="Helvetica,sans-Serif" font-size="10.00">xmmAttribute.hpp</text>
</g>
<!-- Node2 -->
<g id="node2" class="node"><title>Node2</title>
<g id="a_node2"><a xlink:href="xmm_gaussian_distribution_8hpp.html" target="_top" xlink:title="xmmGaussianDistribution.hpp">
<polygon fill="white" stroke="black" points="252.719,-275.5 252.719,-293.5 402.108,-293.5 402.108,-275.5 252.719,-275.5"/>
<text text-anchor="middle" x="327.414" y="-281.5" font-family="Helvetica,sans-Serif" font-size="10.00">xmmGaussianDistribution.hpp</text>
</a>
</g>
</g>
<!-- Node1&#45;&gt;Node2 -->
<g id="edge1" class="edge"><title>Node1&#45;&gt;Node2</title>
<path fill="none" stroke="midnightblue" d="M556.571,-434.911C506.394,-402.195 380.062,-319.827 339.886,-293.632"/>
<polygon fill="midnightblue" stroke="midnightblue" points="554.728,-437.887 565.016,-440.417 558.551,-432.023 554.728,-437.887"/>
</g>
<!-- Node17 -->
<g id="node17" class="node"><title>Node17</title>
<g id="a_node17"><a xlink:href="xmm_model_parameters_8hpp.html" target="_top" xlink:title="xmmModelParameters.hpp">
<polygon fill="white" stroke="black" points="461.392,-275.5 461.392,-293.5 597.436,-293.5 597.436,-275.5 461.392,-275.5"/>
<text text-anchor="middle" x="529.414" y="-281.5" font-family="Helvetica,sans-Serif" font-size="10.00">xmmModelParameters.hpp</text>
</a>
</g>
</g>
<!-- Node1&#45;&gt;Node17 -->
<g id="edge20" class="edge"><title>Node1&#45;&gt;Node17</title>
<path fill="none" stroke="midnightblue" d="M572.055,-430.302C561.666,-395.023 539.161,-318.601 531.798,-293.597"/>
<polygon fill="midnightblue" stroke="midnightblue" points="568.785,-431.589 574.967,-440.193 575.5,-429.611 568.785,-431.589"/>
</g>
<!-- Node24 -->
<g id="node24" class="node"><title>Node24</title>
<g id="a_node24"><a xlink:href="xmm_phrase_8hpp.html" target="_top" xlink:title="xmmPhrase.hpp">
<polygon fill="white" stroke="black" points="575.01,-385.5 575.01,-403.5 663.817,-403.5 663.817,-385.5 575.01,-385.5"/>
<text text-anchor="middle" x="619.414" y="-391.5" font-family="Helvetica,sans-Serif" font-size="10.00">xmmPhrase.hpp</text>
</a>
</g>
</g>
<!-- Node1&#45;&gt;Node24 -->
<g id="edge34" class="edge"><title>Node1&#45;&gt;Node24</title>
<path fill="none" stroke="midnightblue" d="M590.297,-432.243C597.835,-422.73 607.022,-411.137 613.035,-403.55"/>
<polygon fill="midnightblue" stroke="midnightblue" points="587.444,-430.207 583.976,-440.219 592.93,-434.555 587.444,-430.207"/>
</g>
<!-- Node32 -->
<g id="node32" class="node"><title>Node32</title>
<g id="a_node32"><a xlink:href="xmm_attribute_8cpp.html" target="_top" xlink:title="xmmAttribute.cpp">
<polygon fill="white" stroke="black" points="681.512,-385.5 681.512,-403.5 775.315,-403.5 775.315,-385.5 681.512,-385.5"/>
<text text-anchor="middle" x="728.414" y="-391.5" font-family="Helvetica,sans-Serif" font-size="10.00">xmmAttribute.cpp</text>
</a>
</g>
</g>
<!-- Node1&#45;&gt;Node32 -->
<g id="edge46" class="edge"><title>Node1&#45;&gt;Node32</title>
<path fill="none" stroke="midnightblue" d="M609.938,-437.084C638.647,-427.007 679.787,-412.567 705.264,-403.625"/>
<polygon fill="midnightblue" stroke="midnightblue" points="608.624,-433.836 600.347,-440.45 610.942,-440.441 608.624,-433.836"/>
</g>
<!-- Node3 -->
<g id="node3" class="node"><title>Node3</title>
<g id="a_node3"><a xlink:href="xmm_gmm_8hpp.html" target="_top" xlink:title="xmmGmm.hpp">
<polygon fill="white" stroke="black" points="570.633,-110.5 570.633,-128.5 652.194,-128.5 652.194,-110.5 570.633,-110.5"/>
<text text-anchor="middle" x="611.414" y="-116.5" font-family="Helvetica,sans-Serif" font-size="10.00">xmmGmm.hpp</text>
</a>
</g>
</g>
<!-- Node2&#45;&gt;Node3 -->
<g id="edge2" class="edge"><title>Node2&#45;&gt;Node3</title>
<path fill="none" stroke="midnightblue" d="M324.428,-265.166C321.325,-239.094 320.074,-191.535 346.414,-165 354.26,-157.095 497.912,-136.215 570.354,-126.121"/>
<polygon fill="midnightblue" stroke="midnightblue" points="320.98,-265.779 325.844,-275.191 327.911,-264.799 320.98,-265.779"/>
</g>
<!-- Node8 -->
<g id="node8" class="node"><title>Node8</title>
<g id="a_node8"><a xlink:href="xmm_gmm_parameters_8hpp.html" target="_top" xlink:title="xmmGmmParameters.hpp">
<polygon fill="white" stroke="black" points="434.791,-220.5 434.791,-238.5 568.037,-238.5 568.037,-220.5 434.791,-220.5"/>
<text text-anchor="middle" x="501.414" y="-226.5" font-family="Helvetica,sans-Serif" font-size="10.00">xmmGmmParameters.hpp</text>
</a>
</g>
</g>
<!-- Node2&#45;&gt;Node8 -->
<g id="edge8" class="edge"><title>Node2&#45;&gt;Node8</title>
<path fill="none" stroke="midnightblue" d="M363.629,-272.469C396.864,-262.345 445.315,-247.588 475.024,-238.538"/>
<polygon fill="midnightblue" stroke="midnightblue" points="362.387,-269.188 353.84,-275.45 364.426,-275.885 362.387,-269.188"/>
</g>
<!-- Node14 -->
<g id="node14" class="node"><title>Node14</title>
<g id="a_node14"><a xlink:href="xmm_hmm_parameters_8hpp.html" target="_top" xlink:title="xmmHmmParameters.hpp">
<polygon fill="white" stroke="black" points="167.069,-220.5 167.069,-238.5 299.758,-238.5 299.758,-220.5 167.069,-220.5"/>
<text text-anchor="middle" x="233.414" y="-226.5" font-family="Helvetica,sans-Serif" font-size="10.00">xmmHmmParameters.hpp</text>
</a>
</g>
</g>
<!-- Node2&#45;&gt;Node14 -->
<g id="edge16" class="edge"><title>Node2&#45;&gt;Node14</title>
<path fill="none" stroke="midnightblue" d="M304.051,-270.328C286.418,-260.386 262.784,-247.06 247.825,-238.625"/>
<polygon fill="midnightblue" stroke="midnightblue" points="302.707,-273.588 313.137,-275.45 306.145,-267.49 302.707,-273.588"/>
</g>
<!-- Node16 -->
<g id="node16" class="node"><title>Node16</title>
<g id="a_node16"><a xlink:href="xmm_gaussian_distribution_8cpp.html" target="_top" xlink:title="xmmGaussianDistribution.cpp">
<polygon fill="white" stroke="black" points="0,-220.5 0,-238.5 148.827,-238.5 148.827,-220.5 0,-220.5"/>
<text text-anchor="middle" x="74.4136" y="-226.5" font-family="Helvetica,sans-Serif" font-size="10.00">xmmGaussianDistribution.cpp</text>
</a>
</g>
</g>
<!-- Node2&#45;&gt;Node16 -->
<g id="edge19" class="edge"><title>Node2&#45;&gt;Node16</title>
<path fill="none" stroke="midnightblue" d="M279.068,-273.372C230.706,-263.241 157.286,-247.861 112.785,-238.538"/>
<polygon fill="midnightblue" stroke="midnightblue" points="278.483,-276.826 288.988,-275.45 279.918,-269.974 278.483,-276.826"/>
</g>
<!-- Node4 -->
<g id="node4" class="node"><title>Node4</title>
<g id="a_node4"><a xlink:href="xmm_8h.html" target="_top" xlink:title="xmm.h">
<polygon fill="white" stroke="black" points="683.414,-0.5 683.414,-18.5 729.414,-18.5 729.414,-0.5 683.414,-0.5"/>
<text text-anchor="middle" x="706.414" y="-6.5" font-family="Helvetica,sans-Serif" font-size="10.00">xmm.h</text>
</a>
</g>
</g>
<!-- Node3&#45;&gt;Node4 -->
<g id="edge3" class="edge"><title>Node3&#45;&gt;Node4</title>
<path fill="none" stroke="midnightblue" d="M643.345,-106.397C658.648,-99.1214 676.071,-88.4373 687.414,-74 700.494,-57.3503 704.587,-31.8303 705.854,-18.7924"/>
<polygon fill="midnightblue" stroke="midnightblue" points="641.872,-103.221 634.163,-110.489 644.722,-109.615 641.872,-103.221"/>
</g>
<!-- Node5 -->
<g id="node5" class="node"><title>Node5</title>
<g id="a_node5"><a xlink:href="xmm_hierarchical_hmm_8hpp.html" target="_top" xlink:title="xmmHierarchicalHmm.hpp">
<polygon fill="white" stroke="black" points="544.515,-55.5 544.515,-73.5 678.312,-73.5 678.312,-55.5 544.515,-55.5"/>
<text text-anchor="middle" x="611.414" y="-61.5" font-family="Helvetica,sans-Serif" font-size="10.00">xmmHierarchicalHmm.hpp</text>
</a>
</g>
</g>
<!-- Node3&#45;&gt;Node5 -->
<g id="edge4" class="edge"><title>Node3&#45;&gt;Node5</title>
<path fill="none" stroke="midnightblue" d="M611.414,-100.175C611.414,-91.0945 611.414,-80.5949 611.414,-73.5496"/>
<polygon fill="midnightblue" stroke="midnightblue" points="607.914,-100.219 611.414,-110.219 614.914,-100.219 607.914,-100.219"/>
</g>
<!-- Node7 -->
<g id="node7" class="node"><title>Node7</title>
<g id="a_node7"><a xlink:href="xmm_gmm_8cpp.html" target="_top" xlink:title="xmmGmm.cpp">
<polygon fill="white" stroke="black" points="837.914,-55.5 837.914,-73.5 918.914,-73.5 918.914,-55.5 837.914,-55.5"/>
<text text-anchor="middle" x="878.414" y="-61.5" font-family="Helvetica,sans-Serif" font-size="10.00">xmmGmm.cpp</text>
</a>
</g>
</g>
<!-- Node3&#45;&gt;Node7 -->
<g id="edge7" class="edge"><title>Node3&#45;&gt;Node7</title>
<path fill="none" stroke="midnightblue" d="M661.795,-108.499C712.823,-98.37 790.759,-82.8996 837.919,-73.5383"/>
<polygon fill="midnightblue" stroke="midnightblue" points="661.092,-105.07 651.965,-110.45 662.455,-111.936 661.092,-105.07"/>
</g>
<!-- Node5&#45;&gt;Node4 -->
<g id="edge5" class="edge"><title>Node5&#45;&gt;Node4</title>
<path fill="none" stroke="midnightblue" d="M635.024,-50.3277C652.845,-40.3856 676.731,-27.0598 691.849,-18.6253"/>
<polygon fill="midnightblue" stroke="midnightblue" points="632.87,-47.5218 625.842,-55.4504 636.28,-53.6349 632.87,-47.5218"/>
</g>
<!-- Node6 -->
<g id="node6" class="node"><title>Node6</title>
<g id="a_node6"><a xlink:href="xmm_hierarchical_hmm_8cpp.html" target="_top" xlink:title="xmmHierarchicalHmm.cpp">
<polygon fill="white" stroke="black" points="531.795,-0.5 531.795,-18.5 665.032,-18.5 665.032,-0.5 531.795,-0.5"/>
<text text-anchor="middle" x="598.414" y="-6.5" font-family="Helvetica,sans-Serif" font-size="10.00">xmmHierarchicalHmm.cpp</text>
</a>
</g>
</g>
<!-- Node5&#45;&gt;Node6 -->
<g id="edge6" class="edge"><title>Node5&#45;&gt;Node6</title>
<path fill="none" stroke="midnightblue" d="M606.992,-45.4734C604.748,-36.3257 602.135,-25.6724 600.388,-18.5496"/>
<polygon fill="midnightblue" stroke="midnightblue" points="603.601,-46.3404 609.382,-55.2188 610.399,-44.6728 603.601,-46.3404"/>
</g>
<!-- Node9 -->
<g id="node9" class="node"><title>Node9</title>
<g id="a_node9"><a xlink:href="xmm_gmm_single_class_8hpp.html" target="_top" xlink:title="xmmGmmSingleClass.hpp">
<polygon fill="white" stroke="black" points="506.231,-165.5 506.231,-183.5 640.596,-183.5 640.596,-165.5 506.231,-165.5"/>
<text text-anchor="middle" x="573.414" y="-171.5" font-family="Helvetica,sans-Serif" font-size="10.00">xmmGmmSingleClass.hpp</text>
</a>
</g>
</g>
<!-- Node8&#45;&gt;Node9 -->
<g id="edge9" class="edge"><title>Node8&#45;&gt;Node9</title>
<path fill="none" stroke="midnightblue" d="M520.444,-214.492C533.815,-204.649 551.235,-191.826 562.375,-183.625"/>
<polygon fill="midnightblue" stroke="midnightblue" points="518.327,-211.704 512.349,-220.45 522.477,-217.341 518.327,-211.704"/>
</g>
<!-- Node13 -->
<g id="node13" class="node"><title>Node13</title>
<g id="a_node13"><a xlink:href="xmm_gmm_parameters_8cpp.html" target="_top" xlink:title="xmmGmmParameters.cpp">
<polygon fill="white" stroke="black" points="355.071,-165.5 355.071,-183.5 487.756,-183.5 487.756,-165.5 355.071,-165.5"/>
<text text-anchor="middle" x="421.414" y="-171.5" font-family="Helvetica,sans-Serif" font-size="10.00">xmmGmmParameters.cpp</text>
</a>
</g>
</g>
<!-- Node8&#45;&gt;Node13 -->
<g id="edge15" class="edge"><title>Node8&#45;&gt;Node13</title>
<path fill="none" stroke="midnightblue" d="M480.692,-214.772C465.781,-204.894 446.174,-191.904 433.678,-183.625"/>
<polygon fill="midnightblue" stroke="midnightblue" points="478.994,-217.845 489.263,-220.45 482.86,-212.01 478.994,-217.845"/>
</g>
<!-- Node9&#45;&gt;Node3 -->
<g id="edge10" class="edge"><title>Node9&#45;&gt;Node3</title>
<path fill="none" stroke="midnightblue" d="M585.279,-156.951C592.059,-147.494 600.258,-136.059 605.642,-128.55"/>
<polygon fill="midnightblue" stroke="midnightblue" points="582.334,-155.052 579.351,-165.219 588.022,-159.131 582.334,-155.052"/>
</g>
<!-- Node10 -->
<g id="node10" class="node"><title>Node10</title>
<g id="a_node10"><a xlink:href="xmm_hmm_single_class_8hpp.html" target="_top" xlink:title="xmmHmmSingleClass.hpp">
<polygon fill="white" stroke="black" points="405.51,-110.5 405.51,-128.5 539.317,-128.5 539.317,-110.5 405.51,-110.5"/>
<text text-anchor="middle" x="472.414" y="-116.5" font-family="Helvetica,sans-Serif" font-size="10.00">xmmHmmSingleClass.hpp</text>
</a>
</g>
</g>
<!-- Node9&#45;&gt;Node10 -->
<g id="edge11" class="edge"><title>Node9&#45;&gt;Node10</title>
<path fill="none" stroke="midnightblue" d="M549.097,-160.74C530.073,-150.757 504.194,-137.177 487.898,-128.625"/>
<polygon fill="midnightblue" stroke="midnightblue" points="547.593,-163.903 558.074,-165.45 550.845,-157.705 547.593,-163.903"/>
</g>
<!-- Node12 -->
<g id="node12" class="node"><title>Node12</title>
<g id="a_node12"><a xlink:href="xmm_gmm_single_class_8cpp.html" target="_top" xlink:title="xmmGmmSingleClass.cpp">
<polygon fill="white" stroke="black" points="670.512,-110.5 670.512,-128.5 804.315,-128.5 804.315,-110.5 670.512,-110.5"/>
<text text-anchor="middle" x="737.414" y="-116.5" font-family="Helvetica,sans-Serif" font-size="10.00">xmmGmmSingleClass.cpp</text>
</a>
</g>
</g>
<!-- Node9&#45;&gt;Node12 -->
<g id="edge14" class="edge"><title>Node9&#45;&gt;Node12</title>
<path fill="none" stroke="midnightblue" d="M607.953,-162.338C639.266,-152.218 684.66,-137.549 712.54,-128.538"/>
<polygon fill="midnightblue" stroke="midnightblue" points="606.761,-159.045 598.322,-165.45 608.913,-165.706 606.761,-159.045"/>
</g>
<!-- Node10&#45;&gt;Node5 -->
<g id="edge12" class="edge"><title>Node10&#45;&gt;Node5</title>
<path fill="none" stroke="midnightblue" d="M503.048,-106.819C529.441,-96.7556 566.857,-82.4894 590.104,-73.6253"/>
<polygon fill="midnightblue" stroke="midnightblue" points="501.622,-103.617 493.525,-110.45 504.115,-110.158 501.622,-103.617"/>
</g>
<!-- Node11 -->
<g id="node11" class="node"><title>Node11</title>
<g id="a_node11"><a xlink:href="xmm_hmm_single_class_8cpp.html" target="_top" xlink:title="xmmHmmSingleClass.cpp">
<polygon fill="white" stroke="black" points="392.791,-55.5 392.791,-73.5 526.037,-73.5 526.037,-55.5 392.791,-55.5"/>
<text text-anchor="middle" x="459.414" y="-61.5" font-family="Helvetica,sans-Serif" font-size="10.00">xmmHmmSingleClass.cpp</text>
</a>
</g>
</g>
<!-- Node10&#45;&gt;Node11 -->
<g id="edge13" class="edge"><title>Node10&#45;&gt;Node11</title>
<path fill="none" stroke="midnightblue" d="M467.992,-100.473C465.748,-91.3257 463.135,-80.6724 461.388,-73.5496"/>
<polygon fill="midnightblue" stroke="midnightblue" points="464.601,-101.34 470.382,-110.219 471.399,-99.6728 464.601,-101.34"/>
</g>
<!-- Node14&#45;&gt;Node10 -->
<g id="edge17" class="edge"><title>Node14&#45;&gt;Node10</title>
<path fill="none" stroke="midnightblue" d="M200.791,-216.529C173.219,-204.634 140.803,-185.282 158.414,-165 189.728,-128.934 322.825,-121.315 405.357,-120.149"/>
<polygon fill="midnightblue" stroke="midnightblue" points="199.671,-219.853 210.251,-220.415 202.331,-213.378 199.671,-219.853"/>
</g>
<!-- Node15 -->
<g id="node15" class="node"><title>Node15</title>
<g id="a_node15"><a xlink:href="xmm_hmm_parameters_8cpp.html" target="_top" xlink:title="xmmHmmParameters.cpp">
<polygon fill="white" stroke="black" points="167.35,-165.5 167.35,-183.5 299.478,-183.5 299.478,-165.5 167.35,-165.5"/>
<text text-anchor="middle" x="233.414" y="-171.5" font-family="Helvetica,sans-Serif" font-size="10.00">xmmHmmParameters.cpp</text>
</a>
</g>
</g>
<!-- Node14&#45;&gt;Node15 -->
<g id="edge18" class="edge"><title>Node14&#45;&gt;Node15</title>
<path fill="none" stroke="midnightblue" d="M233.414,-210.175C233.414,-201.094 233.414,-190.595 233.414,-183.55"/>
<polygon fill="midnightblue" stroke="midnightblue" points="229.914,-210.219 233.414,-220.219 236.914,-210.219 229.914,-210.219"/>
</g>
<!-- Node17&#45;&gt;Node8 -->
<g id="edge29" class="edge"><title>Node17&#45;&gt;Node8</title>
<path fill="none" stroke="midnightblue" d="M520.36,-266.363C515.426,-257.024 509.552,-245.905 505.666,-238.55"/>
<polygon fill="midnightblue" stroke="midnightblue" points="517.273,-268.012 525.039,-275.219 523.462,-264.742 517.273,-268.012"/>
</g>
<!-- Node17&#45;&gt;Node14 -->
<g id="edge30" class="edge"><title>Node17&#45;&gt;Node14</title>
<path fill="none" stroke="midnightblue" d="M474.266,-273.626C417.71,-263.499 330.806,-247.939 278.307,-238.538"/>
<polygon fill="midnightblue" stroke="midnightblue" points="473.997,-277.133 484.458,-275.45 475.231,-270.243 473.997,-277.133"/>
</g>
<!-- Node18 -->
<g id="node18" class="node"><title>Node18</title>
<g id="a_node18"><a xlink:href="xmm_model_configuration_8hpp.html" target="_top" xlink:title="xmmModelConfiguration.hpp">
<polygon fill="white" stroke="black" points="782.493,-220.5 782.493,-238.5 926.334,-238.5 926.334,-220.5 782.493,-220.5"/>
<text text-anchor="middle" x="854.414" y="-226.5" font-family="Helvetica,sans-Serif" font-size="10.00">xmmModelConfiguration.hpp</text>
</a>
</g>
</g>
<!-- Node17&#45;&gt;Node18 -->
<g id="edge21" class="edge"><title>Node17&#45;&gt;Node18</title>
<path fill="none" stroke="midnightblue" d="M588.809,-273.814C650.872,-263.693 747.12,-247.997 805.122,-238.538"/>
<polygon fill="midnightblue" stroke="midnightblue" points="588.08,-270.386 578.774,-275.45 589.207,-277.295 588.08,-270.386"/>
</g>
<!-- Node22 -->
<g id="node22" class="node"><title>Node22</title>
<g id="a_node22"><a xlink:href="xmm_k_means_parameters_8hpp.html" target="_top" xlink:title="xmmKMeansParameters.hpp">
<polygon fill="white" stroke="black" points="944.667,-220.5 944.667,-238.5 1090.16,-238.5 1090.16,-220.5 944.667,-220.5"/>
<text text-anchor="middle" x="1017.41" y="-226.5" font-family="Helvetica,sans-Serif" font-size="10.00">xmmKMeansParameters.hpp</text>
</a>
</g>
</g>
<!-- Node17&#45;&gt;Node22 -->
<g id="edge31" class="edge"><title>Node17&#45;&gt;Node22</title>
<path fill="none" stroke="midnightblue" d="M607.709,-274.997C700.607,-264.907 854.252,-248.22 944.653,-238.402"/>
<polygon fill="midnightblue" stroke="midnightblue" points="607.088,-271.543 597.525,-276.103 607.844,-278.502 607.088,-271.543"/>
</g>
<!-- Node19 -->
<g id="node19" class="node"><title>Node19</title>
<g id="a_node19"><a xlink:href="xmm_model_8hpp.html" target="_top" xlink:title="xmmModel.hpp">
<polygon fill="white" stroke="black" points="812.234,-165.5 812.234,-183.5 896.593,-183.5 896.593,-165.5 812.234,-165.5"/>
<text text-anchor="middle" x="854.414" y="-171.5" font-family="Helvetica,sans-Serif" font-size="10.00">xmmModel.hpp</text>
</a>
</g>
</g>
<!-- Node18&#45;&gt;Node19 -->
<g id="edge22" class="edge"><title>Node18&#45;&gt;Node19</title>
<path fill="none" stroke="midnightblue" d="M854.414,-210.175C854.414,-201.094 854.414,-190.595 854.414,-183.55"/>
<polygon fill="midnightblue" stroke="midnightblue" points="850.914,-210.219 854.414,-220.219 857.914,-210.219 850.914,-210.219"/>
</g>
<!-- Node20 -->
<g id="node20" class="node"><title>Node20</title>
<g id="a_node20"><a xlink:href="xmm_k_means_8hpp.html" target="_top" xlink:title="xmmKMeans.hpp">
<polygon fill="white" stroke="black" points="914.51,-165.5 914.51,-183.5 1008.32,-183.5 1008.32,-165.5 914.51,-165.5"/>
<text text-anchor="middle" x="961.414" y="-171.5" font-family="Helvetica,sans-Serif" font-size="10.00">xmmKMeans.hpp</text>
</a>
</g>
</g>
<!-- Node18&#45;&gt;Node20 -->
<g id="edge25" class="edge"><title>Node18&#45;&gt;Node20</title>
<path fill="none" stroke="midnightblue" d="M879.899,-215.877C900.079,-205.881 927.666,-192.216 945.01,-183.625"/>
<polygon fill="midnightblue" stroke="midnightblue" points="878.072,-212.875 870.665,-220.45 881.179,-219.148 878.072,-212.875"/>
</g>
<!-- Node19&#45;&gt;Node3 -->
<g id="edge23" class="edge"><title>Node19&#45;&gt;Node3</title>
<path fill="none" stroke="midnightblue" d="M807.687,-163.309C761.234,-153.177 690.921,-137.841 648.268,-128.538"/>
<polygon fill="midnightblue" stroke="midnightblue" points="806.991,-166.739 817.507,-165.45 808.483,-159.9 806.991,-166.739"/>
</g>
<!-- Node19&#45;&gt;Node5 -->
<g id="edge24" class="edge"><title>Node19&#45;&gt;Node5</title>
<path fill="none" stroke="midnightblue" d="M847.629,-156.002C841.07,-141.441 829.718,-121.326 813.414,-110 773.894,-82.5461 720.401,-71.6406 678.391,-67.4814"/>
<polygon fill="midnightblue" stroke="midnightblue" points="844.478,-157.539 851.561,-165.418 850.937,-154.842 844.478,-157.539"/>
</g>
<!-- Node20&#45;&gt;Node7 -->
<g id="edge27" class="edge"><title>Node20&#45;&gt;Node7</title>
<path fill="none" stroke="midnightblue" d="M966.965,-155.404C969.982,-141.917 971.623,-123.564 963.414,-110 952.115,-91.3322 930.122,-80.1171 911.339,-73.6156"/>
<polygon fill="midnightblue" stroke="midnightblue" points="963.5,-154.812 964.293,-165.377 970.262,-156.623 963.5,-154.812"/>
</g>
<!-- Node20&#45;&gt;Node12 -->
<g id="edge28" class="edge"><title>Node20&#45;&gt;Node12</title>
<path fill="none" stroke="midnightblue" d="M917.53,-163.117C874.705,-152.984 810.457,-137.783 771.387,-128.538"/>
<polygon fill="midnightblue" stroke="midnightblue" points="916.856,-166.554 927.393,-165.45 918.467,-159.742 916.856,-166.554"/>
</g>
<!-- Node21 -->
<g id="node21" class="node"><title>Node21</title>
<g id="a_node21"><a xlink:href="xmm_k_means_8cpp.html" target="_top" xlink:title="xmmKMeans.cpp">
<polygon fill="white" stroke="black" points="860.791,-110.5 860.791,-128.5 954.037,-128.5 954.037,-110.5 860.791,-110.5"/>
<text text-anchor="middle" x="907.414" y="-116.5" font-family="Helvetica,sans-Serif" font-size="10.00">xmmKMeans.cpp</text>
</a>
</g>
</g>
<!-- Node20&#45;&gt;Node21 -->
<g id="edge26" class="edge"><title>Node20&#45;&gt;Node21</title>
<path fill="none" stroke="midnightblue" d="M945.733,-158.11C935.885,-148.444 923.582,-136.369 915.615,-128.55"/>
<polygon fill="midnightblue" stroke="midnightblue" points="943.388,-160.712 952.976,-165.219 948.291,-155.716 943.388,-160.712"/>
</g>
<!-- Node22&#45;&gt;Node20 -->
<g id="edge32" class="edge"><title>Node22&#45;&gt;Node20</title>
<path fill="none" stroke="midnightblue" d="M1001.15,-213.11C990.939,-203.444 978.181,-191.369 969.919,-183.55"/>
<polygon fill="midnightblue" stroke="midnightblue" points="998.995,-215.887 1008.66,-220.219 1003.81,-210.803 998.995,-215.887"/>
</g>
<!-- Node23 -->
<g id="node23" class="node"><title>Node23</title>
<g id="a_node23"><a xlink:href="xmm_k_means_parameters_8cpp.html" target="_top" xlink:title="xmmKMeansParameters.cpp">
<polygon fill="white" stroke="black" points="1025.95,-165.5 1025.95,-183.5 1170.88,-183.5 1170.88,-165.5 1025.95,-165.5"/>
<text text-anchor="middle" x="1098.41" y="-171.5" font-family="Helvetica,sans-Serif" font-size="10.00">xmmKMeansParameters.cpp</text>
</a>
</g>
</g>
<!-- Node22&#45;&gt;Node23 -->
<g id="edge33" class="edge"><title>Node22&#45;&gt;Node23</title>
<path fill="none" stroke="midnightblue" d="M1038.39,-214.772C1053.49,-204.894 1073.34,-191.904 1086,-183.625"/>
<polygon fill="midnightblue" stroke="midnightblue" points="1036.17,-212.046 1029.72,-220.45 1040,-217.904 1036.17,-212.046"/>
</g>
<!-- Node25 -->
<g id="node25" class="node"><title>Node25</title>
<g id="a_node25"><a xlink:href="xmm_training_set_8hpp.html" target="_top" xlink:title="xmmTrainingSet.hpp">
<polygon fill="white" stroke="black" points="571.466,-330.5 571.466,-348.5 679.361,-348.5 679.361,-330.5 571.466,-330.5"/>
<text text-anchor="middle" x="625.414" y="-336.5" font-family="Helvetica,sans-Serif" font-size="10.00">xmmTrainingSet.hpp</text>
</a>
</g>
</g>
<!-- Node24&#45;&gt;Node25 -->
<g id="edge35" class="edge"><title>Node24&#45;&gt;Node25</title>
<path fill="none" stroke="midnightblue" d="M621.488,-375.175C622.516,-366.094 623.705,-355.595 624.502,-348.55"/>
<polygon fill="midnightblue" stroke="midnightblue" points="617.998,-374.888 620.351,-385.219 624.954,-375.676 617.998,-374.888"/>
</g>
<!-- Node31 -->
<g id="node31" class="node"><title>Node31</title>
<g id="a_node31"><a xlink:href="xmm_phrase_8cpp.html" target="_top" xlink:title="xmmPhrase.cpp">
<polygon fill="white" stroke="black" points="697.291,-330.5 697.291,-348.5 785.537,-348.5 785.537,-330.5 697.291,-330.5"/>
<text text-anchor="middle" x="741.414" y="-336.5" font-family="Helvetica,sans-Serif" font-size="10.00">xmmPhrase.cpp</text>
</a>
</g>
</g>
<!-- Node24&#45;&gt;Node31 -->
<g id="edge45" class="edge"><title>Node24&#45;&gt;Node31</title>
<path fill="none" stroke="midnightblue" d="M647.225,-381.418C670.333,-371.379 702.576,-357.372 722.71,-348.625"/>
<polygon fill="midnightblue" stroke="midnightblue" points="645.72,-378.256 637.943,-385.45 648.509,-384.676 645.72,-378.256"/>
</g>
<!-- Node26 -->
<g id="node26" class="node"><title>Node26</title>
<g id="a_node26"><a xlink:href="xmm_model_single_class_8hpp.html" target="_top" xlink:title="xmmModelSingleClass.hpp">
<polygon fill="white" stroke="black" points="626.833,-220.5 626.833,-238.5 763.995,-238.5 763.995,-220.5 626.833,-220.5"/>
<text text-anchor="middle" x="695.414" y="-226.5" font-family="Helvetica,sans-Serif" font-size="10.00">xmmModelSingleClass.hpp</text>
</a>
</g>
</g>
<!-- Node25&#45;&gt;Node26 -->
<g id="edge36" class="edge"><title>Node25&#45;&gt;Node26</title>
<path fill="none" stroke="midnightblue" d="M628.004,-320.603C630.57,-307.219 635.459,-288.908 644.414,-275 654.337,-259.587 671.105,-246.434 682.69,-238.51"/>
<polygon fill="midnightblue" stroke="midnightblue" points="624.549,-320.042 626.357,-330.481 631.454,-321.193 624.549,-320.042"/>
</g>
<!-- Node28 -->
<g id="node28" class="node"><title>Node28</title>
<g id="a_node28"><a xlink:href="xmm_model_shared_parameters_8hpp.html" target="_top" xlink:title="xmmModelSharedParameters.hpp">
<polygon fill="white" stroke="black" points="779.269,-275.5 779.269,-293.5 947.559,-293.5 947.559,-275.5 779.269,-275.5"/>
<text text-anchor="middle" x="863.414" y="-281.5" font-family="Helvetica,sans-Serif" font-size="10.00">xmmModelSharedParameters.hpp</text>
</a>
</g>
</g>
<!-- Node25&#45;&gt;Node28 -->
<g id="edge41" class="edge"><title>Node25&#45;&gt;Node28</title>
<path fill="none" stroke="midnightblue" d="M671.465,-328.245C716.965,-318.113 785.63,-302.822 827.317,-293.538"/>
<polygon fill="midnightblue" stroke="midnightblue" points="670.561,-324.86 661.561,-330.45 672.082,-331.693 670.561,-324.86"/>
</g>
<!-- Node30 -->
<g id="node30" class="node"><title>Node30</title>
<g id="a_node30"><a xlink:href="xmm_training_set_8cpp.html" target="_top" xlink:title="xmmTrainingSet.cpp">
<polygon fill="white" stroke="black" points="653.747,-275.5 653.747,-293.5 761.08,-293.5 761.08,-275.5 653.747,-275.5"/>
<text text-anchor="middle" x="707.414" y="-281.5" font-family="Helvetica,sans-Serif" font-size="10.00">xmmTrainingSet.cpp</text>
</a>
</g>
</g>
<!-- Node25&#45;&gt;Node30 -->
<g id="edge44" class="edge"><title>Node25&#45;&gt;Node30</title>
<path fill="none" stroke="midnightblue" d="M646.653,-324.772C661.936,-314.894 682.034,-301.904 694.842,-293.625"/>
<polygon fill="midnightblue" stroke="midnightblue" points="644.366,-322.083 637.868,-330.45 648.166,-327.962 644.366,-322.083"/>
</g>
<!-- Node26&#45;&gt;Node9 -->
<g id="edge38" class="edge"><title>Node26&#45;&gt;Node9</title>
<path fill="none" stroke="midnightblue" d="M667.602,-216.418C644.495,-206.379 612.252,-192.372 592.117,-183.625"/>
<polygon fill="midnightblue" stroke="midnightblue" points="666.318,-219.676 676.884,-220.45 669.107,-213.256 666.318,-219.676"/>
</g>
<!-- Node26&#45;&gt;Node19 -->
<g id="edge37" class="edge"><title>Node26&#45;&gt;Node19</title>
<path fill="none" stroke="midnightblue" d="M729.295,-217.206C759.639,-207.091 803.385,-192.51 830.299,-183.538"/>
<polygon fill="midnightblue" stroke="midnightblue" points="727.942,-213.968 719.562,-220.45 730.156,-220.608 727.942,-213.968"/>
</g>
<!-- Node26&#45;&gt;Node20 -->
<g id="edge40" class="edge"><title>Node26&#45;&gt;Node20</title>
<path fill="none" stroke="midnightblue" d="M745.924,-218.436C796.767,-208.306 874.185,-192.88 921.07,-183.538"/>
<polygon fill="midnightblue" stroke="midnightblue" points="744.937,-215.064 735.813,-220.45 746.304,-221.929 744.937,-215.064"/>
</g>
<!-- Node27 -->
<g id="node27" class="node"><title>Node27</title>
<g id="a_node27"><a xlink:href="xmm_model_single_class_8cpp.html" target="_top" xlink:title="xmmModelSingleClass.cpp">
<polygon fill="white" stroke="black" points="658.113,-165.5 658.113,-183.5 794.714,-183.5 794.714,-165.5 658.113,-165.5"/>
<text text-anchor="middle" x="726.414" y="-171.5" font-family="Helvetica,sans-Serif" font-size="10.00">xmmModelSingleClass.cpp</text>
</a>
</g>
</g>
<!-- Node26&#45;&gt;Node27 -->
<g id="edge39" class="edge"><title>Node26&#45;&gt;Node27</title>
<path fill="none" stroke="midnightblue" d="M705.437,-211.363C710.899,-202.024 717.403,-190.905 721.705,-183.55"/>
<polygon fill="midnightblue" stroke="midnightblue" points="702.285,-209.82 700.257,-220.219 708.327,-213.354 702.285,-209.82"/>
</g>
<!-- Node28&#45;&gt;Node26 -->
<g id="edge42" class="edge"><title>Node28&#45;&gt;Node26</title>
<path fill="none" stroke="midnightblue" d="M828.031,-272.338C795.955,-262.218 749.454,-247.549 720.893,-238.538"/>
<polygon fill="midnightblue" stroke="midnightblue" points="827.308,-275.78 837.898,-275.45 829.414,-269.104 827.308,-275.78"/>
</g>
<!-- Node29 -->
<g id="node29" class="node"><title>Node29</title>
<g id="a_node29"><a xlink:href="xmm_model_shared_parameters_8cpp.html" target="_top" xlink:title="xmmModelSharedParameters.cpp">
<polygon fill="white" stroke="black" points="1108.55,-220.5 1108.55,-238.5 1276.28,-238.5 1276.28,-220.5 1108.55,-220.5"/>
<text text-anchor="middle" x="1192.41" y="-226.5" font-family="Helvetica,sans-Serif" font-size="10.00">xmmModelSharedParameters.cpp</text>
</a>
</g>
</g>
<!-- Node28&#45;&gt;Node29 -->
<g id="edge43" class="edge"><title>Node28&#45;&gt;Node29</title>
<path fill="none" stroke="midnightblue" d="M923.54,-273.814C986.367,-263.693 1083.8,-247.997 1142.52,-238.538"/>
<polygon fill="midnightblue" stroke="midnightblue" points="922.698,-270.404 913.382,-275.45 923.811,-277.315 922.698,-270.404"/>
</g>
</g>
</svg>
