<?xml version="1.0" encoding="UTF-8" standalone="no"?>
<!DOCTYPE svg PUBLIC "-//W3C//DTD SVG 1.1//EN"
 "http://www.w3.org/Graphics/SVG/1.1/DTD/svg11.dtd">
<!-- Generated by graphviz version 2.38.0 (20140413.2041)
 -->
<!-- Title: xmmModel.hpp Pages: 1 -->
<svg width="253pt" height="192pt"
 viewBox="0.00 0.00 253.23 192.00" xmlns="http://www.w3.org/2000/svg" xmlns:xlink="http://www.w3.org/1999/xlink">
<g id="graph0" class="graph" transform="scale(1 1) rotate(0) translate(4 188)">
<title>xmmModel.hpp</title>
<polygon fill="white" stroke="none" points="-4,4 -4,-188 249.226,-188 249.226,4 -4,4"/>
<!-- Node1 -->
<g id="node1" class="node"><title>Node1</title>
<polygon fill="#bfbfbf" stroke="black" points="73.147,-165.5 73.147,-183.5 157.506,-183.5 157.506,-165.5 73.147,-165.5"/>
<text text-anchor="middle" x="115.327" y="-171.5" font-family="Helvetica,sans-Serif" font-size="10.00">xmmModel.hpp</text>
</g>
<!-- Node2 -->
<g id="node2" class="node"><title>Node2</title>
<g id="a_node2"><a xlink:href="xmm_gmm_8hpp.html" target="_top" xlink:title="xmmGmm.hpp">
<polygon fill="white" stroke="black" points="26.5459,-110.5 26.5459,-128.5 108.107,-128.5 108.107,-110.5 26.5459,-110.5"/>
<text text-anchor="middle" x="67.3267" y="-116.5" font-family="Helvetica,sans-Serif" font-size="10.00">xmmGmm.hpp</text>
</a>
</g>
</g>
<!-- Node1&#45;&gt;Node2 -->
<g id="edge1" class="edge"><title>Node1&#45;&gt;Node2</title>
<path fill="none" stroke="midnightblue" d="M100.866,-157.533C92.2027,-147.967 81.5585,-136.214 74.6169,-128.55"/>
<polygon fill="midnightblue" stroke="midnightblue" points="98.5196,-160.156 107.827,-165.219 103.708,-155.457 98.5196,-160.156"/>
</g>
<!-- Node4 -->
<g id="node4" class="node"><title>Node4</title>
<g id="a_node4"><a xlink:href="xmm_hierarchical_hmm_8hpp.html" target="_top" xlink:title="xmmHierarchicalHmm.hpp">
<polygon fill="white" stroke="black" points="111.428,-55.5 111.428,-73.5 245.226,-73.5 245.226,-55.5 111.428,-55.5"/>
<text text-anchor="middle" x="178.327" y="-61.5" font-family="Helvetica,sans-Serif" font-size="10.00">xmmHierarchicalHmm.hpp</text>
</a>
</g>
</g>
<!-- Node1&#45;&gt;Node4 -->
<g id="edge7" class="edge"><title>Node1&#45;&gt;Node4</title>
<path fill="none" stroke="midnightblue" d="M125.231,-156.522C138.967,-132.973 163.27,-91.3109 173.537,-73.7118"/>
<polygon fill="midnightblue" stroke="midnightblue" points="122.077,-154.981 120.062,-165.382 128.124,-158.508 122.077,-154.981"/>
</g>
<!-- Node3 -->
<g id="node3" class="node"><title>Node3</title>
<g id="a_node3"><a xlink:href="xmm_8h.html" target="_top" xlink:title="xmm.h">
<polygon fill="white" stroke="black" points="4.32669,-0.5 4.32669,-18.5 50.3267,-18.5 50.3267,-0.5 4.32669,-0.5"/>
<text text-anchor="middle" x="27.3267" y="-6.5" font-family="Helvetica,sans-Serif" font-size="10.00">xmm.h</text>
</a>
</g>
</g>
<!-- Node2&#45;&gt;Node3 -->
<g id="edge2" class="edge"><title>Node2&#45;&gt;Node3</title>
<path fill="none" stroke="midnightblue" d="M37.5915,-105.74C24.5828,-98.476 10.6409,-87.9942 3.32669,-74 -6.60888,-54.9904 9.71306,-30.9151 19.9794,-18.585"/>
<polygon fill="midnightblue" stroke="midnightblue" points="36.2964,-109.01 46.7908,-110.465 39.4946,-102.783 36.2964,-109.01"/>
</g>
<!-- Node2&#45;&gt;Node4 -->
<g id="edge3" class="edge"><title>Node2&#45;&gt;Node4</title>
<path fill="none" stroke="midnightblue" d="M93.4796,-106.013C114.439,-96.0052 143.236,-82.2551 161.31,-73.6253"/>
<polygon fill="midnightblue" stroke="midnightblue" points="91.7012,-102.983 84.1852,-110.45 94.7174,-109.3 91.7012,-102.983"/>
</g>
<!-- Node6 -->
<g id="node6" class="node"><title>Node6</title>
<g id="a_node6"><a xlink:href="xmm_gmm_8cpp.html" target="_top" xlink:title="xmmGmm.cpp">
<polygon fill="white" stroke="black" points="12.8267,-55.5 12.8267,-73.5 93.8267,-73.5 93.8267,-55.5 12.8267,-55.5"/>
<text text-anchor="middle" x="53.3267" y="-61.5" font-family="Helvetica,sans-Serif" font-size="10.00">xmmGmm.cpp</text>
</a>
</g>
</g>
<!-- Node2&#45;&gt;Node6 -->
<g id="edge6" class="edge"><title>Node2&#45;&gt;Node6</title>
<path fill="none" stroke="midnightblue" d="M62.565,-100.473C60.1486,-91.3257 57.3345,-80.6724 55.453,-73.5496"/>
<polygon fill="midnightblue" stroke="midnightblue" points="59.2013,-101.444 65.1392,-110.219 65.9691,-99.6565 59.2013,-101.444"/>
</g>
<!-- Node4&#45;&gt;Node3 -->
<g id="edge4" class="edge"><title>Node4&#45;&gt;Node3</title>
<path fill="none" stroke="midnightblue" d="M145.803,-52.0842C117.093,-42.0074 75.9529,-27.5675 50.4762,-18.6253"/>
<polygon fill="midnightblue" stroke="midnightblue" points="144.798,-55.441 155.393,-55.4504 147.117,-48.836 144.798,-55.441"/>
</g>
<!-- Node5 -->
<g id="node5" class="node"><title>Node5</title>
<g id="a_node5"><a xlink:href="xmm_hierarchical_hmm_8cpp.html" target="_top" xlink:title="xmmHierarchicalHmm.cpp">
<polygon fill="white" stroke="black" points="111.709,-0.5 111.709,-18.5 244.945,-18.5 244.945,-0.5 111.709,-0.5"/>
<text text-anchor="middle" x="178.327" y="-6.5" font-family="Helvetica,sans-Serif" font-size="10.00">xmmHierarchicalHmm.cpp</text>
</a>
</g>
</g>
<!-- Node4&#45;&gt;Node5 -->
<g id="edge5" class="edge"><title>Node4&#45;&gt;Node5</title>
<path fill="none" stroke="midnightblue" d="M178.327,-45.1746C178.327,-36.0945 178.327,-25.5949 178.327,-18.5496"/>
<polygon fill="midnightblue" stroke="midnightblue" points="174.827,-45.2187 178.327,-55.2188 181.827,-45.2188 174.827,-45.2187"/>
</g>
</g>
</svg>
