<?xml version="1.0" encoding="UTF-8" standalone="no"?>
<!DOCTYPE svg PUBLIC "-//W3C//DTD SVG 1.1//EN"
 "http://www.w3.org/Graphics/SVG/1.1/DTD/svg11.dtd">
<!-- Generated by graphviz version 2.38.0 (20140413.2041)
 -->
<!-- Title: xmmHierarchicalHmm.hpp Pages: 1 -->
<svg width="206pt" height="82pt"
 viewBox="0.00 0.00 205.62 82.00" xmlns="http://www.w3.org/2000/svg" xmlns:xlink="http://www.w3.org/1999/xlink">
<g id="graph0" class="graph" transform="scale(1 1) rotate(0) translate(4 78)">
<title>xmmHierarchicalHmm.hpp</title>
<polygon fill="white" stroke="none" points="-4,4 -4,-78 201.618,-78 201.618,4 -4,4"/>
<!-- Node1 -->
<g id="node1" class="node"><title>Node1</title>
<polygon fill="#bfbfbf" stroke="black" points="10.1011,-55.5 10.1011,-73.5 143.899,-73.5 143.899,-55.5 10.1011,-55.5"/>
<text text-anchor="middle" x="77" y="-61.5" font-family="Helvetica,sans-Serif" font-size="10.00">xmmHierarchicalHmm.hpp</text>
</g>
<!-- Node2 -->
<g id="node2" class="node"><title>Node2</title>
<g id="a_node2"><a xlink:href="xmm_8h.html" target="_top" xlink:title="xmm.h">
<polygon fill="white" stroke="black" points="0,-0.5 0,-18.5 46,-18.5 46,-0.5 0,-0.5"/>
<text text-anchor="middle" x="23" y="-6.5" font-family="Helvetica,sans-Serif" font-size="10.00">xmm.h</text>
</a>
</g>
</g>
<!-- Node1&#45;&gt;Node2 -->
<g id="edge1" class="edge"><title>Node1&#45;&gt;Node2</title>
<path fill="none" stroke="midnightblue" d="M61.3198,-48.1101C51.471,-38.4438 39.1686,-26.3692 31.2014,-18.5496"/>
<polygon fill="midnightblue" stroke="midnightblue" points="58.974,-50.7119 68.5625,-55.2188 63.8773,-45.7161 58.974,-50.7119"/>
</g>
<!-- Node3 -->
<g id="node3" class="node"><title>Node3</title>
<g id="a_node3"><a xlink:href="xmm_hierarchical_hmm_8cpp.html" target="_top" xlink:title="xmmHierarchicalHmm.cpp">
<polygon fill="white" stroke="black" points="64.3818,-0.5 64.3818,-18.5 197.618,-18.5 197.618,-0.5 64.3818,-0.5"/>
<text text-anchor="middle" x="131" y="-6.5" font-family="Helvetica,sans-Serif" font-size="10.00">xmmHierarchicalHmm.cpp</text>
</a>
</g>
</g>
<!-- Node1&#45;&gt;Node3 -->
<g id="edge2" class="edge"><title>Node1&#45;&gt;Node3</title>
<path fill="none" stroke="midnightblue" d="M92.6802,-48.1101C102.529,-38.4438 114.831,-26.3692 122.799,-18.5496"/>
<polygon fill="midnightblue" stroke="midnightblue" points="90.1227,-45.7161 85.4375,-55.2188 95.026,-50.7119 90.1227,-45.7161"/>
</g>
</g>
</svg>
