<?xml version="1.0" encoding="UTF-8" standalone="no"?>
<!DOCTYPE svg PUBLIC "-//W3C//DTD SVG 1.1//EN"
 "http://www.w3.org/Graphics/SVG/1.1/DTD/svg11.dtd">
<!-- Generated by graphviz version 2.38.0 (20140413.2041)
 -->
<!-- Title: xmmModelConfiguration.hpp Pages: 1 -->
<svg width="499pt" height="247pt"
 viewBox="0.00 0.00 499.24 247.00" xmlns="http://www.w3.org/2000/svg" xmlns:xlink="http://www.w3.org/1999/xlink">
<g id="graph0" class="graph" transform="scale(1 1) rotate(0) translate(4 243)">
<title>xmmModelConfiguration.hpp</title>
<polygon fill="white" stroke="none" points="-4,4 -4,-243 495.241,-243 495.241,4 -4,4"/>
<!-- Node1 -->
<g id="node1" class="node"><title>Node1</title>
<polygon fill="#bfbfbf" stroke="black" points="162.697,-220.5 162.697,-238.5 306.539,-238.5 306.539,-220.5 162.697,-220.5"/>
<text text-anchor="middle" x="234.618" y="-226.5" font-family="Helvetica,sans-Serif" font-size="10.00">xmmModelConfiguration.hpp</text>
</g>
<!-- Node2 -->
<g id="node2" class="node"><title>Node2</title>
<g id="a_node2"><a xlink:href="xmm_model_8hpp.html" target="_top" xlink:title="xmmModel.hpp">
<polygon fill="white" stroke="black" points="106.438,-165.5 106.438,-183.5 190.798,-183.5 190.798,-165.5 106.438,-165.5"/>
<text text-anchor="middle" x="148.618" y="-171.5" font-family="Helvetica,sans-Serif" font-size="10.00">xmmModel.hpp</text>
</a>
</g>
</g>
<!-- Node1&#45;&gt;Node2 -->
<g id="edge1" class="edge"><title>Node1&#45;&gt;Node2</title>
<path fill="none" stroke="midnightblue" d="M212.795,-215.051C196.712,-205.139 175.362,-191.982 161.803,-183.625"/>
<polygon fill="midnightblue" stroke="midnightblue" points="211.207,-218.184 221.557,-220.45 214.88,-212.224 211.207,-218.184"/>
</g>
<!-- Node8 -->
<g id="node8" class="node"><title>Node8</title>
<g id="a_node8"><a xlink:href="xmm_k_means_8hpp.html" target="_top" xlink:title="xmmKMeans.hpp">
<polygon fill="white" stroke="black" points="274.714,-165.5 274.714,-183.5 368.522,-183.5 368.522,-165.5 274.714,-165.5"/>
<text text-anchor="middle" x="321.618" y="-171.5" font-family="Helvetica,sans-Serif" font-size="10.00">xmmKMeans.hpp</text>
</a>
</g>
</g>
<!-- Node1&#45;&gt;Node8 -->
<g id="edge9" class="edge"><title>Node1&#45;&gt;Node8</title>
<path fill="none" stroke="midnightblue" d="M256.695,-215.051C272.965,-205.139 294.563,-191.982 308.28,-183.625"/>
<polygon fill="midnightblue" stroke="midnightblue" points="254.551,-212.259 247.832,-220.45 258.193,-218.237 254.551,-212.259"/>
</g>
<!-- Node3 -->
<g id="node3" class="node"><title>Node3</title>
<g id="a_node3"><a xlink:href="xmm_gmm_8hpp.html" target="_top" xlink:title="xmmGmm.hpp">
<polygon fill="white" stroke="black" points="107.837,-110.5 107.837,-128.5 189.399,-128.5 189.399,-110.5 107.837,-110.5"/>
<text text-anchor="middle" x="148.618" y="-116.5" font-family="Helvetica,sans-Serif" font-size="10.00">xmmGmm.hpp</text>
</a>
</g>
</g>
<!-- Node2&#45;&gt;Node3 -->
<g id="edge2" class="edge"><title>Node2&#45;&gt;Node3</title>
<path fill="none" stroke="midnightblue" d="M148.618,-155.175C148.618,-146.094 148.618,-135.595 148.618,-128.55"/>
<polygon fill="midnightblue" stroke="midnightblue" points="145.118,-155.219 148.618,-165.219 152.118,-155.219 145.118,-155.219"/>
</g>
<!-- Node5 -->
<g id="node5" class="node"><title>Node5</title>
<g id="a_node5"><a xlink:href="xmm_hierarchical_hmm_8hpp.html" target="_top" xlink:title="xmmHierarchicalHmm.hpp">
<polygon fill="white" stroke="black" points="12.7192,-55.5 12.7192,-73.5 146.517,-73.5 146.517,-55.5 12.7192,-55.5"/>
<text text-anchor="middle" x="79.6182" y="-61.5" font-family="Helvetica,sans-Serif" font-size="10.00">xmmHierarchicalHmm.hpp</text>
</a>
</g>
</g>
<!-- Node2&#45;&gt;Node5 -->
<g id="edge8" class="edge"><title>Node2&#45;&gt;Node5</title>
<path fill="none" stroke="midnightblue" d="M128.091,-159.491C117.923,-151.603 106.227,-140.945 98.6182,-129 87.2435,-111.142 82.4045,-86.1504 80.5823,-73.5055"/>
<polygon fill="midnightblue" stroke="midnightblue" points="126.023,-162.315 136.148,-165.434 130.178,-156.681 126.023,-162.315"/>
</g>
<!-- Node4 -->
<g id="node4" class="node"><title>Node4</title>
<g id="a_node4"><a xlink:href="xmm_8h.html" target="_top" xlink:title="xmm.h">
<polygon fill="white" stroke="black" points="151.618,-0.5 151.618,-18.5 197.618,-18.5 197.618,-0.5 151.618,-0.5"/>
<text text-anchor="middle" x="174.618" y="-6.5" font-family="Helvetica,sans-Serif" font-size="10.00">xmm.h</text>
</a>
</g>
</g>
<!-- Node3&#45;&gt;Node4 -->
<g id="edge3" class="edge"><title>Node3&#45;&gt;Node4</title>
<path fill="none" stroke="midnightblue" d="M152.936,-100.566C158.642,-76.8614 168.461,-36.0752 172.641,-18.7118"/>
<polygon fill="midnightblue" stroke="midnightblue" points="149.51,-99.841 150.572,-110.382 156.316,-101.479 149.51,-99.841"/>
</g>
<!-- Node3&#45;&gt;Node5 -->
<g id="edge4" class="edge"><title>Node3&#45;&gt;Node5</title>
<path fill="none" stroke="midnightblue" d="M130.014,-104.21C117.25,-94.4052 100.77,-81.7474 90.1964,-73.6253"/>
<polygon fill="midnightblue" stroke="midnightblue" points="128.076,-107.135 138.139,-110.45 132.34,-101.583 128.076,-107.135"/>
</g>
<!-- Node7 -->
<g id="node7" class="node"><title>Node7</title>
<g id="a_node7"><a xlink:href="xmm_gmm_8cpp.html" target="_top" xlink:title="xmmGmm.cpp">
<polygon fill="white" stroke="black" points="266.118,-55.5 266.118,-73.5 347.118,-73.5 347.118,-55.5 266.118,-55.5"/>
<text text-anchor="middle" x="306.618" y="-61.5" font-family="Helvetica,sans-Serif" font-size="10.00">xmmGmm.cpp</text>
</a>
</g>
</g>
<!-- Node3&#45;&gt;Node7 -->
<g id="edge7" class="edge"><title>Node3&#45;&gt;Node7</title>
<path fill="none" stroke="midnightblue" d="M182.287,-107.206C212.44,-97.0914 255.911,-82.5095 282.655,-73.5383"/>
<polygon fill="midnightblue" stroke="midnightblue" points="180.983,-103.952 172.615,-110.45 183.209,-110.588 180.983,-103.952"/>
</g>
<!-- Node5&#45;&gt;Node4 -->
<g id="edge5" class="edge"><title>Node5&#45;&gt;Node4</title>
<path fill="none" stroke="midnightblue" d="M103.229,-50.3277C121.05,-40.3856 144.935,-27.0598 160.054,-18.6253"/>
<polygon fill="midnightblue" stroke="midnightblue" points="101.074,-47.5218 94.0466,-55.4504 104.485,-53.6349 101.074,-47.5218"/>
</g>
<!-- Node6 -->
<g id="node6" class="node"><title>Node6</title>
<g id="a_node6"><a xlink:href="xmm_hierarchical_hmm_8cpp.html" target="_top" xlink:title="xmmHierarchicalHmm.cpp">
<polygon fill="white" stroke="black" points="0,-0.5 0,-18.5 133.236,-18.5 133.236,-0.5 0,-0.5"/>
<text text-anchor="middle" x="66.6182" y="-6.5" font-family="Helvetica,sans-Serif" font-size="10.00">xmmHierarchicalHmm.cpp</text>
</a>
</g>
</g>
<!-- Node5&#45;&gt;Node6 -->
<g id="edge6" class="edge"><title>Node5&#45;&gt;Node6</title>
<path fill="none" stroke="midnightblue" d="M75.1965,-45.4734C72.9528,-36.3257 70.3397,-25.6724 68.5926,-18.5496"/>
<polygon fill="midnightblue" stroke="midnightblue" points="71.8054,-46.3404 77.5869,-55.2188 78.6039,-44.6728 71.8054,-46.3404"/>
</g>
<!-- Node8&#45;&gt;Node7 -->
<g id="edge11" class="edge"><title>Node8&#45;&gt;Node7</title>
<path fill="none" stroke="midnightblue" d="M336.753,-157.534C346.93,-144.782 357.355,-126.395 350.618,-110 344.259,-94.5241 329.628,-81.5641 318.979,-73.6934"/>
<polygon fill="midnightblue" stroke="midnightblue" points="333.867,-155.52 329.961,-165.368 339.156,-160.105 333.867,-155.52"/>
</g>
<!-- Node9 -->
<g id="node9" class="node"><title>Node9</title>
<g id="a_node9"><a xlink:href="xmm_k_means_8cpp.html" target="_top" xlink:title="xmmKMeans.cpp">
<polygon fill="white" stroke="black" points="397.995,-110.5 397.995,-128.5 491.241,-128.5 491.241,-110.5 397.995,-110.5"/>
<text text-anchor="middle" x="444.618" y="-116.5" font-family="Helvetica,sans-Serif" font-size="10.00">xmmKMeans.cpp</text>
</a>
</g>
</g>
<!-- Node8&#45;&gt;Node9 -->
<g id="edge10" class="edge"><title>Node8&#45;&gt;Node9</title>
<path fill="none" stroke="midnightblue" d="M349.657,-161.418C372.955,-151.379 405.462,-137.372 425.761,-128.625"/>
<polygon fill="midnightblue" stroke="midnightblue" points="348.098,-158.279 340.299,-165.45 350.868,-164.707 348.098,-158.279"/>
</g>
<!-- Node10 -->
<g id="node10" class="node"><title>Node10</title>
<g id="a_node10"><a xlink:href="xmm_gmm_single_class_8cpp.html" target="_top" xlink:title="xmmGmmSingleClass.cpp">
<polygon fill="white" stroke="black" points="207.717,-110.5 207.717,-128.5 341.52,-128.5 341.52,-110.5 207.717,-110.5"/>
<text text-anchor="middle" x="274.618" y="-116.5" font-family="Helvetica,sans-Serif" font-size="10.00">xmmGmmSingleClass.cpp</text>
</a>
</g>
</g>
<!-- Node8&#45;&gt;Node10 -->
<g id="edge12" class="edge"><title>Node8&#45;&gt;Node10</title>
<path fill="none" stroke="midnightblue" d="M307.459,-157.533C298.976,-147.967 288.554,-136.214 281.756,-128.55"/>
<polygon fill="midnightblue" stroke="midnightblue" points="305.021,-160.059 314.274,-165.219 310.258,-155.415 305.021,-160.059"/>
</g>
</g>
</svg>
