<?xml version="1.0" encoding="UTF-8" standalone="no"?>
<!DOCTYPE svg PUBLIC "-//W3C//DTD SVG 1.1//EN"
 "http://www.w3.org/Graphics/SVG/1.1/DTD/svg11.dtd">
<!-- Generated by graphviz version 2.38.0 (20140413.2041)
 -->
<!-- Title: xmmGaussianDistribution.hpp Pages: 1 -->
<svg width="634pt" height="302pt"
 viewBox="0.00 0.00 634.21 302.00" xmlns="http://www.w3.org/2000/svg" xmlns:xlink="http://www.w3.org/1999/xlink">
<g id="graph0" class="graph" transform="scale(1 1) rotate(0) translate(4 298)">
<title>xmmGaussianDistribution.hpp</title>
<polygon fill="white" stroke="none" points="-4,4 -4,-298 630.211,-298 630.211,4 -4,4"/>
<!-- Node1 -->
<g id="node1" class="node"><title>Node1</title>
<polygon fill="#bfbfbf" stroke="black" points="242.103,-275.5 242.103,-293.5 391.492,-293.5 391.492,-275.5 242.103,-275.5"/>
<text text-anchor="middle" x="316.797" y="-281.5" font-family="Helvetica,sans-Serif" font-size="10.00">xmmGaussianDistribution.hpp</text>
</g>
<!-- Node2 -->
<g id="node2" class="node"><title>Node2</title>
<g id="a_node2"><a xlink:href="xmm_gmm_8hpp.html" target="_top" xlink:title="xmmGmm.hpp">
<polygon fill="white" stroke="black" points="11.0165,-110.5 11.0165,-128.5 92.578,-128.5 92.578,-110.5 11.0165,-110.5"/>
<text text-anchor="middle" x="51.7972" y="-116.5" font-family="Helvetica,sans-Serif" font-size="10.00">xmmGmm.hpp</text>
</a>
</g>
</g>
<!-- Node1&#45;&gt;Node2 -->
<g id="edge1" class="edge"><title>Node1&#45;&gt;Node2</title>
<path fill="none" stroke="midnightblue" d="M243.184,-273.524C187.095,-261.884 112.61,-236.954 70.7972,-184 57.676,-167.382 53.6011,-141.848 52.3469,-128.8"/>
<polygon fill="midnightblue" stroke="midnightblue" points="242.588,-276.974 253.077,-275.48 243.946,-270.107 242.588,-276.974"/>
</g>
<!-- Node7 -->
<g id="node7" class="node"><title>Node7</title>
<g id="a_node7"><a xlink:href="xmm_gmm_parameters_8hpp.html" target="_top" xlink:title="xmmGmmParameters.hpp">
<polygon fill="white" stroke="black" points="175.174,-220.5 175.174,-238.5 308.42,-238.5 308.42,-220.5 175.174,-220.5"/>
<text text-anchor="middle" x="241.797" y="-226.5" font-family="Helvetica,sans-Serif" font-size="10.00">xmmGmmParameters.hpp</text>
</a>
</g>
</g>
<!-- Node1&#45;&gt;Node7 -->
<g id="edge7" class="edge"><title>Node1&#45;&gt;Node7</title>
<path fill="none" stroke="midnightblue" d="M296.974,-269.492C283.046,-259.649 264.899,-246.826 253.295,-238.625"/>
<polygon fill="midnightblue" stroke="midnightblue" points="295.22,-272.538 305.406,-275.45 299.26,-266.821 295.22,-272.538"/>
</g>
<!-- Node13 -->
<g id="node13" class="node"><title>Node13</title>
<g id="a_node13"><a xlink:href="xmm_hmm_parameters_8hpp.html" target="_top" xlink:title="xmmHmmParameters.hpp">
<polygon fill="white" stroke="black" points="326.452,-220.5 326.452,-238.5 459.142,-238.5 459.142,-220.5 326.452,-220.5"/>
<text text-anchor="middle" x="392.797" y="-226.5" font-family="Helvetica,sans-Serif" font-size="10.00">xmmHmmParameters.hpp</text>
</a>
</g>
</g>
<!-- Node1&#45;&gt;Node13 -->
<g id="edge15" class="edge"><title>Node1&#45;&gt;Node13</title>
<path fill="none" stroke="midnightblue" d="M336.885,-269.492C350.999,-259.649 369.387,-246.826 381.146,-238.625"/>
<polygon fill="midnightblue" stroke="midnightblue" points="334.54,-266.859 328.34,-275.45 338.545,-272.601 334.54,-266.859"/>
</g>
<!-- Node15 -->
<g id="node15" class="node"><title>Node15</title>
<g id="a_node15"><a xlink:href="xmm_gaussian_distribution_8cpp.html" target="_top" xlink:title="xmmGaussianDistribution.cpp">
<polygon fill="white" stroke="black" points="477.384,-220.5 477.384,-238.5 626.211,-238.5 626.211,-220.5 477.384,-220.5"/>
<text text-anchor="middle" x="551.797" y="-226.5" font-family="Helvetica,sans-Serif" font-size="10.00">xmmGaussianDistribution.cpp</text>
</a>
</g>
</g>
<!-- Node1&#45;&gt;Node15 -->
<g id="edge18" class="edge"><title>Node1&#45;&gt;Node15</title>
<path fill="none" stroke="midnightblue" d="M362.268,-273.245C407.194,-263.113 474.994,-247.822 516.156,-238.538"/>
<polygon fill="midnightblue" stroke="midnightblue" points="361.474,-269.836 352.489,-275.45 363.014,-276.665 361.474,-269.836"/>
</g>
<!-- Node3 -->
<g id="node3" class="node"><title>Node3</title>
<g id="a_node3"><a xlink:href="xmm_8h.html" target="_top" xlink:title="xmm.h">
<polygon fill="white" stroke="black" points="3.79722,-0.5 3.79722,-18.5 49.7972,-18.5 49.7972,-0.5 3.79722,-0.5"/>
<text text-anchor="middle" x="26.7972" y="-6.5" font-family="Helvetica,sans-Serif" font-size="10.00">xmm.h</text>
</a>
</g>
</g>
<!-- Node2&#45;&gt;Node3 -->
<g id="edge2" class="edge"><title>Node2&#45;&gt;Node3</title>
<path fill="none" stroke="midnightblue" d="M29.4093,-104.602C19.2636,-96.9551 8.32099,-86.4782 2.79722,-74 -5.78982,-54.6019 9.5639,-31.0889 19.437,-18.8378"/>
<polygon fill="midnightblue" stroke="midnightblue" points="27.4086,-107.474 37.6078,-110.343 31.4234,-101.74 27.4086,-107.474"/>
</g>
<!-- Node4 -->
<g id="node4" class="node"><title>Node4</title>
<g id="a_node4"><a xlink:href="xmm_hierarchical_hmm_8hpp.html" target="_top" xlink:title="xmmHierarchicalHmm.hpp">
<polygon fill="white" stroke="black" points="110.898,-55.5 110.898,-73.5 244.696,-73.5 244.696,-55.5 110.898,-55.5"/>
<text text-anchor="middle" x="177.797" y="-61.5" font-family="Helvetica,sans-Serif" font-size="10.00">xmmHierarchicalHmm.hpp</text>
</a>
</g>
</g>
<!-- Node2&#45;&gt;Node4 -->
<g id="edge3" class="edge"><title>Node2&#45;&gt;Node4</title>
<path fill="none" stroke="midnightblue" d="M80.2013,-106.552C104.088,-96.5046 137.593,-82.4113 158.48,-73.6253"/>
<polygon fill="midnightblue" stroke="midnightblue" points="78.7946,-103.347 70.9339,-110.45 81.5087,-109.799 78.7946,-103.347"/>
</g>
<!-- Node6 -->
<g id="node6" class="node"><title>Node6</title>
<g id="a_node6"><a xlink:href="xmm_gmm_8cpp.html" target="_top" xlink:title="xmmGmm.cpp">
<polygon fill="white" stroke="black" points="12.2972,-55.5 12.2972,-73.5 93.2972,-73.5 93.2972,-55.5 12.2972,-55.5"/>
<text text-anchor="middle" x="52.7972" y="-61.5" font-family="Helvetica,sans-Serif" font-size="10.00">xmmGmm.cpp</text>
</a>
</g>
</g>
<!-- Node2&#45;&gt;Node6 -->
<g id="edge6" class="edge"><title>Node2&#45;&gt;Node6</title>
<path fill="none" stroke="midnightblue" d="M52.143,-100.175C52.3143,-91.0945 52.5124,-80.5949 52.6453,-73.5496"/>
<polygon fill="midnightblue" stroke="midnightblue" points="48.6428,-100.154 51.9535,-110.219 55.6416,-100.287 48.6428,-100.154"/>
</g>
<!-- Node4&#45;&gt;Node3 -->
<g id="edge4" class="edge"><title>Node4&#45;&gt;Node3</title>
<path fill="none" stroke="midnightblue" d="M145.273,-52.0842C116.563,-42.0074 75.4234,-27.5675 49.9467,-18.6253"/>
<polygon fill="midnightblue" stroke="midnightblue" points="144.269,-55.441 154.864,-55.4504 146.587,-48.836 144.269,-55.441"/>
</g>
<!-- Node5 -->
<g id="node5" class="node"><title>Node5</title>
<g id="a_node5"><a xlink:href="xmm_hierarchical_hmm_8cpp.html" target="_top" xlink:title="xmmHierarchicalHmm.cpp">
<polygon fill="white" stroke="black" points="111.179,-0.5 111.179,-18.5 244.415,-18.5 244.415,-0.5 111.179,-0.5"/>
<text text-anchor="middle" x="177.797" y="-6.5" font-family="Helvetica,sans-Serif" font-size="10.00">xmmHierarchicalHmm.cpp</text>
</a>
</g>
</g>
<!-- Node4&#45;&gt;Node5 -->
<g id="edge5" class="edge"><title>Node4&#45;&gt;Node5</title>
<path fill="none" stroke="midnightblue" d="M177.797,-45.1746C177.797,-36.0945 177.797,-25.5949 177.797,-18.5496"/>
<polygon fill="midnightblue" stroke="midnightblue" points="174.297,-45.2187 177.797,-55.2188 181.297,-45.2188 174.297,-45.2187"/>
</g>
<!-- Node8 -->
<g id="node8" class="node"><title>Node8</title>
<g id="a_node8"><a xlink:href="xmm_gmm_single_class_8hpp.html" target="_top" xlink:title="xmmGmmSingleClass.hpp">
<polygon fill="white" stroke="black" points="79.6151,-165.5 79.6151,-183.5 213.979,-183.5 213.979,-165.5 79.6151,-165.5"/>
<text text-anchor="middle" x="146.797" y="-171.5" font-family="Helvetica,sans-Serif" font-size="10.00">xmmGmmSingleClass.hpp</text>
</a>
</g>
</g>
<!-- Node7&#45;&gt;Node8 -->
<g id="edge8" class="edge"><title>Node7&#45;&gt;Node8</title>
<path fill="none" stroke="midnightblue" d="M218.187,-215.328C200.366,-205.386 176.48,-192.06 161.361,-183.625"/>
<polygon fill="midnightblue" stroke="midnightblue" points="216.931,-218.635 227.369,-220.45 220.341,-212.522 216.931,-218.635"/>
</g>
<!-- Node12 -->
<g id="node12" class="node"><title>Node12</title>
<g id="a_node12"><a xlink:href="xmm_gmm_parameters_8cpp.html" target="_top" xlink:title="xmmGmmParameters.cpp">
<polygon fill="white" stroke="black" points="232.455,-165.5 232.455,-183.5 365.14,-183.5 365.14,-165.5 232.455,-165.5"/>
<text text-anchor="middle" x="298.797" y="-171.5" font-family="Helvetica,sans-Serif" font-size="10.00">xmmGmmParameters.cpp</text>
</a>
</g>
</g>
<!-- Node7&#45;&gt;Node12 -->
<g id="edge14" class="edge"><title>Node7&#45;&gt;Node12</title>
<path fill="none" stroke="midnightblue" d="M258.041,-213.397C268.487,-203.683 281.647,-191.447 290.14,-183.55"/>
<polygon fill="midnightblue" stroke="midnightblue" points="255.644,-210.846 250.703,-220.219 260.41,-215.972 255.644,-210.846"/>
</g>
<!-- Node8&#45;&gt;Node2 -->
<g id="edge9" class="edge"><title>Node8&#45;&gt;Node2</title>
<path fill="none" stroke="midnightblue" d="M123.187,-160.328C105.366,-150.386 81.4799,-137.06 66.3615,-128.625"/>
<polygon fill="midnightblue" stroke="midnightblue" points="121.931,-163.635 132.369,-165.45 125.341,-157.522 121.931,-163.635"/>
</g>
<!-- Node9 -->
<g id="node9" class="node"><title>Node9</title>
<g id="a_node9"><a xlink:href="xmm_hmm_single_class_8hpp.html" target="_top" xlink:title="xmmHmmSingleClass.hpp">
<polygon fill="white" stroke="black" points="262.893,-110.5 262.893,-128.5 396.701,-128.5 396.701,-110.5 262.893,-110.5"/>
<text text-anchor="middle" x="329.797" y="-116.5" font-family="Helvetica,sans-Serif" font-size="10.00">xmmHmmSingleClass.hpp</text>
</a>
</g>
</g>
<!-- Node8&#45;&gt;Node9 -->
<g id="edge10" class="edge"><title>Node8&#45;&gt;Node9</title>
<path fill="none" stroke="midnightblue" d="M184.435,-162.6C219.401,-152.473 270.662,-137.627 302.042,-128.538"/>
<polygon fill="midnightblue" stroke="midnightblue" points="183.223,-159.307 174.591,-165.45 185.17,-166.03 183.223,-159.307"/>
</g>
<!-- Node11 -->
<g id="node11" class="node"><title>Node11</title>
<g id="a_node11"><a xlink:href="xmm_gmm_single_class_8cpp.html" target="_top" xlink:title="xmmGmmSingleClass.cpp">
<polygon fill="white" stroke="black" points="110.896,-110.5 110.896,-128.5 244.699,-128.5 244.699,-110.5 110.896,-110.5"/>
<text text-anchor="middle" x="177.797" y="-116.5" font-family="Helvetica,sans-Serif" font-size="10.00">xmmGmmSingleClass.cpp</text>
</a>
</g>
</g>
<!-- Node8&#45;&gt;Node11 -->
<g id="edge13" class="edge"><title>Node8&#45;&gt;Node11</title>
<path fill="none" stroke="midnightblue" d="M156.821,-156.363C162.283,-147.024 168.787,-135.905 173.089,-128.55"/>
<polygon fill="midnightblue" stroke="midnightblue" points="153.669,-154.82 151.641,-165.219 159.711,-158.354 153.669,-154.82"/>
</g>
<!-- Node9&#45;&gt;Node4 -->
<g id="edge11" class="edge"><title>Node9&#45;&gt;Node4</title>
<path fill="none" stroke="midnightblue" d="M297.058,-107.084C268.158,-97.0074 226.745,-82.5675 201.1,-73.6253"/>
<polygon fill="midnightblue" stroke="midnightblue" points="296.117,-110.463 306.712,-110.45 298.422,-103.853 296.117,-110.463"/>
</g>
<!-- Node10 -->
<g id="node10" class="node"><title>Node10</title>
<g id="a_node10"><a xlink:href="xmm_hmm_single_class_8cpp.html" target="_top" xlink:title="xmmHmmSingleClass.cpp">
<polygon fill="white" stroke="black" points="263.174,-55.5 263.174,-73.5 396.42,-73.5 396.42,-55.5 263.174,-55.5"/>
<text text-anchor="middle" x="329.797" y="-61.5" font-family="Helvetica,sans-Serif" font-size="10.00">xmmHmmSingleClass.cpp</text>
</a>
</g>
</g>
<!-- Node9&#45;&gt;Node10 -->
<g id="edge12" class="edge"><title>Node9&#45;&gt;Node10</title>
<path fill="none" stroke="midnightblue" d="M329.797,-100.175C329.797,-91.0945 329.797,-80.5949 329.797,-73.5496"/>
<polygon fill="midnightblue" stroke="midnightblue" points="326.297,-100.219 329.797,-110.219 333.297,-100.219 326.297,-100.219"/>
</g>
<!-- Node13&#45;&gt;Node9 -->
<g id="edge16" class="edge"><title>Node13&#45;&gt;Node9</title>
<path fill="none" stroke="midnightblue" d="M389.736,-209.953C386.98,-196.743 382.059,-178.933 373.797,-165 365.042,-150.235 350.333,-136.744 340.355,-128.58"/>
<polygon fill="midnightblue" stroke="midnightblue" points="386.365,-210.971 391.63,-220.165 393.247,-209.695 386.365,-210.971"/>
</g>
<!-- Node14 -->
<g id="node14" class="node"><title>Node14</title>
<g id="a_node14"><a xlink:href="xmm_hmm_parameters_8cpp.html" target="_top" xlink:title="xmmHmmParameters.cpp">
<polygon fill="white" stroke="black" points="420.733,-165.5 420.733,-183.5 552.861,-183.5 552.861,-165.5 420.733,-165.5"/>
<text text-anchor="middle" x="486.797" y="-171.5" font-family="Helvetica,sans-Serif" font-size="10.00">xmmHmmParameters.cpp</text>
</a>
</g>
</g>
<!-- Node13&#45;&gt;Node14 -->
<g id="edge17" class="edge"><title>Node13&#45;&gt;Node14</title>
<path fill="none" stroke="midnightblue" d="M416.159,-215.328C433.793,-205.386 457.427,-192.06 472.386,-183.625"/>
<polygon fill="midnightblue" stroke="midnightblue" points="414.066,-212.49 407.074,-220.45 417.504,-218.588 414.066,-212.49"/>
</g>
</g>
</svg>
