<?xml version="1.0" encoding="UTF-8" standalone="no"?>
<!DOCTYPE svg PUBLIC "-//W3C//DTD SVG 1.1//EN"
 "http://www.w3.org/Graphics/SVG/1.1/DTD/svg11.dtd">
<!-- Generated by graphviz version 2.38.0 (20140413.2041)
 -->
<!-- Title: xmmPhrase.cpp Pages: 1 -->
<svg width="623pt" height="202pt"
 viewBox="0.00 0.00 623.40 202.00" xmlns="http://www.w3.org/2000/svg" xmlns:xlink="http://www.w3.org/1999/xlink">
<g id="graph0" class="graph" transform="scale(1 1) rotate(0) translate(4 198)">
<title>xmmPhrase.cpp</title>
<polygon fill="white" stroke="none" points="-4,4 -4,-198 619.396,-198 619.396,4 -4,4"/>
<!-- Node1 -->
<g id="node1" class="node"><title>Node1</title>
<polygon fill="#bfbfbf" stroke="black" points="194.604,-175.5 194.604,-193.5 282.85,-193.5 282.85,-175.5 194.604,-175.5"/>
<text text-anchor="middle" x="238.727" y="-181.5" font-family="Helvetica,sans-Serif" font-size="10.00">xmmPhrase.cpp</text>
</g>
<!-- Node2 -->
<g id="node2" class="node"><title>Node2</title>
<g id="a_node2"><a xlink:href="xmm_phrase_8hpp.html" target="_top" xlink:title="xmmPhrase.hpp">
<polygon fill="white" stroke="black" points="244.323,-120.5 244.323,-138.5 333.13,-138.5 333.13,-120.5 244.323,-120.5"/>
<text text-anchor="middle" x="288.727" y="-126.5" font-family="Helvetica,sans-Serif" font-size="10.00">xmmPhrase.hpp</text>
</a>
</g>
</g>
<!-- Node1&#45;&gt;Node2 -->
<g id="edge1" class="edge"><title>Node1&#45;&gt;Node2</title>
<path fill="none" stroke="midnightblue" d="M246.539,-175.219C253.921,-167.394 265.176,-155.463 274.206,-145.892"/>
<polygon fill="midnightblue" stroke="midnightblue" points="276.816,-148.225 281.133,-138.55 271.725,-143.422 276.816,-148.225"/>
</g>
<!-- Node5 -->
<g id="node5" class="node"><title>Node5</title>
<polygon fill="white" stroke="#bfbfbf" points="177.34,-5.5 177.34,-23.5 216.113,-23.5 216.113,-5.5 177.34,-5.5"/>
<text text-anchor="middle" x="196.727" y="-11.5" font-family="Helvetica,sans-Serif" font-size="10.00">limits</text>
</g>
<!-- Node1&#45;&gt;Node5 -->
<g id="edge17" class="edge"><title>Node1&#45;&gt;Node5</title>
<path fill="none" stroke="midnightblue" d="M235.752,-175.354C229.698,-158.508 215.833,-118.524 207.727,-84 203.769,-67.1441 200.787,-47.6196 198.934,-33.7382"/>
<polygon fill="midnightblue" stroke="midnightblue" points="202.377,-33.0672 197.645,-23.5875 195.432,-33.9487 202.377,-33.0672"/>
</g>
<!-- Node3 -->
<g id="node3" class="node"><title>Node3</title>
<g id="a_node3"><a xlink:href="xmm_attribute_8hpp.html" target="_top" xlink:title="../common/xmmAttribute.hpp">
<polygon fill="white" stroke="black" points="216.815,-65.5 216.815,-83.5 360.638,-83.5 360.638,-65.5 216.815,-65.5"/>
<text text-anchor="middle" x="288.727" y="-71.5" font-family="Helvetica,sans-Serif" font-size="10.00">../common/xmmAttribute.hpp</text>
</a>
</g>
</g>
<!-- Node2&#45;&gt;Node3 -->
<g id="edge2" class="edge"><title>Node2&#45;&gt;Node3</title>
<path fill="none" stroke="midnightblue" d="M288.727,-120.219C288.727,-113.177 288.727,-102.808 288.727,-93.8277"/>
<polygon fill="midnightblue" stroke="midnightblue" points="292.227,-93.5495 288.727,-83.5496 285.227,-93.5496 292.227,-93.5495"/>
</g>
<!-- Node9 -->
<g id="node9" class="node"><title>Node9</title>
<g id="a_node9"><a xlink:href="xmm_events_8hpp.html" target="_top" xlink:title="../common/xmmEvents.hpp">
<polygon fill="white" stroke="black" points="7.15039,-65.5 7.15039,-83.5 144.303,-83.5 144.303,-65.5 7.15039,-65.5"/>
<text text-anchor="middle" x="75.7266" y="-71.5" font-family="Helvetica,sans-Serif" font-size="10.00">../common/xmmEvents.hpp</text>
</a>
</g>
</g>
<!-- Node2&#45;&gt;Node9 -->
<g id="edge8" class="edge"><title>Node2&#45;&gt;Node9</title>
<path fill="none" stroke="midnightblue" d="M256.376,-120.45C219.362,-111.24 158.626,-96.1276 117.922,-85.9993"/>
<polygon fill="midnightblue" stroke="midnightblue" points="118.581,-82.5566 108.031,-83.5383 116.89,-89.3495 118.581,-82.5566"/>
</g>
<!-- Node12 -->
<g id="node12" class="node"><title>Node12</title>
<g id="a_node12"><a xlink:href="xmm_json_8hpp.html" target="_top" xlink:title="../common/xmmJson.hpp">
<polygon fill="white" stroke="black" points="378.875,-65.5 378.875,-83.5 506.579,-83.5 506.579,-65.5 378.875,-65.5"/>
<text text-anchor="middle" x="442.727" y="-71.5" font-family="Helvetica,sans-Serif" font-size="10.00">../common/xmmJson.hpp</text>
</a>
</g>
</g>
<!-- Node2&#45;&gt;Node12 -->
<g id="edge12" class="edge"><title>Node2&#45;&gt;Node12</title>
<path fill="none" stroke="midnightblue" d="M312.116,-120.45C338.083,-111.514 380.2,-97.0189 409.563,-86.9134"/>
<polygon fill="midnightblue" stroke="midnightblue" points="411.053,-90.1021 419.37,-83.5383 408.775,-83.4831 411.053,-90.1021"/>
</g>
<!-- Node15 -->
<g id="node15" class="node"><title>Node15</title>
<polygon fill="white" stroke="#bfbfbf" points="524.111,-65.5 524.111,-83.5 567.342,-83.5 567.342,-65.5 524.111,-65.5"/>
<text text-anchor="middle" x="545.727" y="-71.5" font-family="Helvetica,sans-Serif" font-size="10.00">cmath</text>
</g>
<!-- Node2&#45;&gt;Node15 -->
<g id="edge16" class="edge"><title>Node2&#45;&gt;Node15</title>
<path fill="none" stroke="midnightblue" d="M333.328,-120.879C377.118,-113.147 446.007,-100.319 513.83,-84.3146"/>
<polygon fill="midnightblue" stroke="midnightblue" points="514.911,-87.6551 523.826,-81.9305 513.287,-80.8461 514.911,-87.6551"/>
</g>
<!-- Node4 -->
<g id="node4" class="node"><title>Node4</title>
<polygon fill="white" stroke="#bfbfbf" points="100.323,-5.5 100.323,-23.5 159.13,-23.5 159.13,-5.5 100.323,-5.5"/>
<text text-anchor="middle" x="129.727" y="-11.5" font-family="Helvetica,sans-Serif" font-size="10.00">functional</text>
</g>
<!-- Node3&#45;&gt;Node4 -->
<g id="edge3" class="edge"><title>Node3&#45;&gt;Node4</title>
<path fill="none" stroke="midnightblue" d="M266.618,-65.4353C239.284,-55.4645 192.569,-38.4237 161.424,-27.0624"/>
<polygon fill="midnightblue" stroke="midnightblue" points="162.497,-23.7284 151.903,-23.5894 160.098,-30.3045 162.497,-23.7284"/>
</g>
<!-- Node3&#45;&gt;Node5 -->
<g id="edge4" class="edge"><title>Node3&#45;&gt;Node5</title>
<path fill="none" stroke="midnightblue" d="M275.934,-65.4353C261.051,-56.0521 236.235,-40.4077 218.343,-29.1277"/>
<polygon fill="midnightblue" stroke="midnightblue" points="220.033,-26.0554 209.707,-23.6831 216.299,-31.9769 220.033,-26.0554"/>
</g>
<!-- Node6 -->
<g id="node6" class="node"><title>Node6</title>
<polygon fill="white" stroke="#bfbfbf" points="234.325,-5.5 234.325,-23.5 293.128,-23.5 293.128,-5.5 234.325,-5.5"/>
<text text-anchor="middle" x="263.727" y="-11.5" font-family="Helvetica,sans-Serif" font-size="10.00">stdexcept</text>
</g>
<!-- Node3&#45;&gt;Node6 -->
<g id="edge5" class="edge"><title>Node3&#45;&gt;Node6</title>
<path fill="none" stroke="midnightblue" d="M285.25,-65.4353C281.672,-57.1323 275.979,-43.9267 271.348,-33.1807"/>
<polygon fill="midnightblue" stroke="midnightblue" points="274.508,-31.6696 267.335,-23.8718 268.079,-34.4404 274.508,-31.6696"/>
</g>
<!-- Node7 -->
<g id="node7" class="node"><title>Node7</title>
<polygon fill="white" stroke="#bfbfbf" points="311.5,-5.5 311.5,-23.5 351.953,-23.5 351.953,-5.5 311.5,-5.5"/>
<text text-anchor="middle" x="331.727" y="-11.5" font-family="Helvetica,sans-Serif" font-size="10.00">string</text>
</g>
<!-- Node3&#45;&gt;Node7 -->
<g id="edge6" class="edge"><title>Node3&#45;&gt;Node7</title>
<path fill="none" stroke="midnightblue" d="M294.706,-65.4353C301.052,-56.8755 311.261,-43.1052 319.352,-32.1909"/>
<polygon fill="midnightblue" stroke="midnightblue" points="322.376,-33.9894 325.52,-23.8718 316.753,-29.8204 322.376,-33.9894"/>
</g>
<!-- Node8 -->
<g id="node8" class="node"><title>Node8</title>
<polygon fill="white" stroke="#bfbfbf" points="370.111,-5.5 370.111,-23.5 413.342,-23.5 413.342,-5.5 370.111,-5.5"/>
<text text-anchor="middle" x="391.727" y="-11.5" font-family="Helvetica,sans-Serif" font-size="10.00">vector</text>
</g>
<!-- Node3&#45;&gt;Node8 -->
<g id="edge7" class="edge"><title>Node3&#45;&gt;Node8</title>
<path fill="none" stroke="midnightblue" d="M303.048,-65.4353C319.941,-55.923 348.261,-39.9759 368.348,-28.6645"/>
<polygon fill="midnightblue" stroke="midnightblue" points="370.198,-31.6395 377.194,-23.6831 366.764,-25.5401 370.198,-31.6395"/>
</g>
<!-- Node9&#45;&gt;Node4 -->
<g id="edge9" class="edge"><title>Node9&#45;&gt;Node4</title>
<path fill="none" stroke="midnightblue" d="M83.235,-65.4353C91.4436,-56.6187 104.799,-42.2743 115.094,-31.2165"/>
<polygon fill="midnightblue" stroke="midnightblue" points="117.68,-33.5757 121.932,-23.8718 112.556,-28.8057 117.68,-33.5757"/>
</g>
<!-- Node10 -->
<g id="node10" class="node"><title>Node10</title>
<polygon fill="white" stroke="#bfbfbf" points="0,-5.5 0,-23.5 35.4531,-23.5 35.4531,-5.5 0,-5.5"/>
<text text-anchor="middle" x="17.7266" y="-11.5" font-family="Helvetica,sans-Serif" font-size="10.00">map</text>
</g>
<!-- Node9&#45;&gt;Node10 -->
<g id="edge10" class="edge"><title>Node9&#45;&gt;Node10</title>
<path fill="none" stroke="midnightblue" d="M67.6619,-65.4353C58.8453,-56.6187 44.5008,-42.2743 33.4431,-31.2165"/>
<polygon fill="midnightblue" stroke="midnightblue" points="35.6443,-28.468 26.0983,-23.8718 30.6945,-33.4177 35.6443,-28.468"/>
</g>
<!-- Node11 -->
<g id="node11" class="node"><title>Node11</title>
<polygon fill="white" stroke="#bfbfbf" points="53.0566,-5.5 53.0566,-23.5 82.3965,-23.5 82.3965,-5.5 53.0566,-5.5"/>
<text text-anchor="middle" x="67.7266" y="-11.5" font-family="Helvetica,sans-Serif" font-size="10.00">set</text>
</g>
<!-- Node9&#45;&gt;Node11 -->
<g id="edge11" class="edge"><title>Node9&#45;&gt;Node11</title>
<path fill="none" stroke="midnightblue" d="M74.6142,-65.4353C73.4926,-57.3035 71.7223,-44.4692 70.2574,-33.8485"/>
<polygon fill="midnightblue" stroke="midnightblue" points="73.7149,-33.2997 68.8813,-23.8718 66.7806,-34.2562 73.7149,-33.2997"/>
</g>
<!-- Node12&#45;&gt;Node8 -->
<g id="edge15" class="edge"><title>Node12&#45;&gt;Node8</title>
<path fill="none" stroke="midnightblue" d="M435.635,-65.4353C427.958,-56.7043 415.514,-42.5523 405.83,-31.5395"/>
<polygon fill="midnightblue" stroke="midnightblue" points="408.32,-29.0703 399.088,-23.8718 403.063,-33.6927 408.32,-29.0703"/>
</g>
<!-- Node13 -->
<g id="node13" class="node"><title>Node13</title>
<polygon fill="white" stroke="#bfbfbf" points="431.138,-0.5 431.138,-28.5 548.315,-28.5 548.315,-0.5 431.138,-0.5"/>
<text text-anchor="start" x="439.138" y="-16.5" font-family="Helvetica,sans-Serif" font-size="10.00">../../../dependencies</text>
<text text-anchor="middle" x="489.727" y="-6.5" font-family="Helvetica,sans-Serif" font-size="10.00">/jsoncpp/include/json.h</text>
</g>
<!-- Node12&#45;&gt;Node13 -->
<g id="edge13" class="edge"><title>Node12&#45;&gt;Node13</title>
<path fill="none" stroke="midnightblue" d="M449.262,-65.4353C455.252,-58.0428 464.392,-46.7638 472.471,-36.7947"/>
<polygon fill="midnightblue" stroke="midnightblue" points="475.338,-38.8157 478.914,-28.8428 469.899,-34.4086 475.338,-38.8157"/>
</g>
<!-- Node14 -->
<g id="node14" class="node"><title>Node14</title>
<polygon fill="white" stroke="#bfbfbf" points="566.057,-5.5 566.057,-23.5 615.396,-23.5 615.396,-5.5 566.057,-5.5"/>
<text text-anchor="middle" x="590.727" y="-11.5" font-family="Helvetica,sans-Serif" font-size="10.00">fstream</text>
</g>
<!-- Node12&#45;&gt;Node14 -->
<g id="edge14" class="edge"><title>Node12&#45;&gt;Node14</title>
<path fill="none" stroke="midnightblue" d="M463.97,-65.4193C487.085,-56.5939 525.106,-41.9824 557.727,-29 559.092,-28.4564 560.489,-27.8974 561.899,-27.3307"/>
<polygon fill="midnightblue" stroke="midnightblue" points="563.255,-30.5575 571.208,-23.5569 560.625,-24.0702 563.255,-30.5575"/>
</g>
</g>
</svg>
