<?xml version="1.0" encoding="UTF-8" standalone="no"?>
<!DOCTYPE svg PUBLIC "-//W3C//DTD SVG 1.1//EN"
 "http://www.w3.org/Graphics/SVG/1.1/DTD/svg11.dtd">
<!-- Generated by graphviz version 2.38.0 (20140413.2041)
 -->
<!-- Title: xmmModelSingleClass.cpp Pages: 1 -->
<svg width="801pt" height="377pt"
 viewBox="0.00 0.00 800.61 377.00" xmlns="http://www.w3.org/2000/svg" xmlns:xlink="http://www.w3.org/1999/xlink">
<g id="graph0" class="graph" transform="scale(1 1) rotate(0) translate(4 373)">
<title>xmmModelSingleClass.cpp</title>
<polygon fill="white" stroke="none" points="-4,4 -4,-373 796.609,-373 796.609,4 -4,4"/>
<!-- Node1 -->
<g id="node1" class="node"><title>Node1</title>
<polygon fill="#bfbfbf" stroke="black" points="284.37,-350.5 284.37,-368.5 420.97,-368.5 420.97,-350.5 284.37,-350.5"/>
<text text-anchor="middle" x="352.67" y="-356.5" font-family="Helvetica,sans-Serif" font-size="10.00">xmmModelSingleClass.cpp</text>
</g>
<!-- Node2 -->
<g id="node2" class="node"><title>Node2</title>
<g id="a_node2"><a xlink:href="xmm_model_single_class_8hpp.html" target="_top" xlink:title="xmmModelSingleClass.hpp">
<polygon fill="white" stroke="black" points="190.089,-295.5 190.089,-313.5 327.251,-313.5 327.251,-295.5 190.089,-295.5"/>
<text text-anchor="middle" x="258.67" y="-301.5" font-family="Helvetica,sans-Serif" font-size="10.00">xmmModelSingleClass.hpp</text>
</a>
</g>
</g>
<!-- Node1&#45;&gt;Node2 -->
<g id="edge1" class="edge"><title>Node1&#45;&gt;Node2</title>
<path fill="none" stroke="midnightblue" d="M338.393,-350.45C323.486,-342.045 299.86,-328.724 282.191,-318.762"/>
<polygon fill="midnightblue" stroke="midnightblue" points="283.511,-315.488 273.081,-313.625 280.073,-321.586 283.511,-315.488"/>
</g>
<!-- Node19 -->
<g id="node19" class="node"><title>Node19</title>
<polygon fill="white" stroke="#bfbfbf" points="565.054,-65.5 565.054,-83.5 608.286,-83.5 608.286,-65.5 565.054,-65.5"/>
<text text-anchor="middle" x="586.67" y="-71.5" font-family="Helvetica,sans-Serif" font-size="10.00">cmath</text>
</g>
<!-- Node1&#45;&gt;Node19 -->
<g id="edge32" class="edge"><title>Node1&#45;&gt;Node19</title>
<path fill="none" stroke="midnightblue" d="M390.351,-350.445C437.369,-337.923 511.67,-308.897 511.67,-250.5 511.67,-250.5 511.67,-250.5 511.67,-188.5 511.67,-147.578 546.237,-110.138 568.437,-90.313"/>
<polygon fill="midnightblue" stroke="midnightblue" points="570.938,-92.7786 576.241,-83.6069 566.376,-87.4693 570.938,-92.7786"/>
</g>
<!-- Node3 -->
<g id="node3" class="node"><title>Node3</title>
<g id="a_node3"><a xlink:href="xmm_circularbuffer_8hpp.html" target="_top" xlink:title="../common/xmmCircularbuffer.hpp">
<polygon fill="white" stroke="black" points="626.731,-65.5 626.731,-83.5 792.609,-83.5 792.609,-65.5 626.731,-65.5"/>
<text text-anchor="middle" x="709.67" y="-71.5" font-family="Helvetica,sans-Serif" font-size="10.00">../common/xmmCircularbuffer.hpp</text>
</a>
</g>
</g>
<!-- Node2&#45;&gt;Node3 -->
<g id="edge2" class="edge"><title>Node2&#45;&gt;Node3</title>
<path fill="none" stroke="midnightblue" d="M280.469,-295.488C302.881,-287.065 338.648,-273.099 368.67,-259 491.805,-201.173 633.331,-120.115 687.242,-88.6804"/>
<polygon fill="midnightblue" stroke="midnightblue" points="689.116,-91.6393 695.982,-83.5707 685.583,-85.5962 689.116,-91.6393"/>
</g>
<!-- Node7 -->
<g id="node7" class="node"><title>Node7</title>
<g id="a_node7"><a xlink:href="xmm_events_8hpp.html" target="_top" xlink:title="../common/xmmEvents.hpp">
<polygon fill="white" stroke="black" points="102.094,-65.5 102.094,-83.5 239.246,-83.5 239.246,-65.5 102.094,-65.5"/>
<text text-anchor="middle" x="170.67" y="-71.5" font-family="Helvetica,sans-Serif" font-size="10.00">../common/xmmEvents.hpp</text>
</a>
</g>
</g>
<!-- Node2&#45;&gt;Node7 -->
<g id="edge6" class="edge"><title>Node2&#45;&gt;Node7</title>
<path fill="none" stroke="midnightblue" d="M189.851,-297.372C138.384,-291.196 74.1715,-279.554 57.6699,-259 10.7769,-200.59 106.343,-121.308 150.225,-89.5256"/>
<polygon fill="midnightblue" stroke="midnightblue" points="152.367,-92.2976 158.496,-83.6553 148.315,-86.5894 152.367,-92.2976"/>
</g>
<!-- Node11 -->
<g id="node11" class="node"><title>Node11</title>
<g id="a_node11"><a xlink:href="xmm_training_set_8hpp.html" target="_top" xlink:title="../trainingset/xmmTraining\lSet.hpp">
<polygon fill="white" stroke="black" points="81.3335,-175.5 81.3335,-203.5 212.006,-203.5 212.006,-175.5 81.3335,-175.5"/>
<text text-anchor="start" x="89.3335" y="-191.5" font-family="Helvetica,sans-Serif" font-size="10.00">../trainingset/xmmTraining</text>
<text text-anchor="middle" x="146.67" y="-181.5" font-family="Helvetica,sans-Serif" font-size="10.00">Set.hpp</text>
</a>
</g>
</g>
<!-- Node2&#45;&gt;Node11 -->
<g id="edge10" class="edge"><title>Node2&#45;&gt;Node11</title>
<path fill="none" stroke="midnightblue" d="M226.383,-295.485C206.205,-288.882 181.191,-277.52 165.67,-259 155.057,-246.337 150.348,-228.185 148.271,-213.748"/>
<polygon fill="midnightblue" stroke="midnightblue" points="151.724,-213.137 147.141,-203.585 144.767,-213.91 151.724,-213.137"/>
</g>
<!-- Node20 -->
<g id="node20" class="node"><title>Node20</title>
<g id="a_node20"><a xlink:href="xmm_model_shared_parameters_8hpp.html" target="_top" xlink:title="xmmModelSharedParameters.hpp">
<polygon fill="white" stroke="black" points="174.525,-240.5 174.525,-258.5 342.815,-258.5 342.815,-240.5 174.525,-240.5"/>
<text text-anchor="middle" x="258.67" y="-246.5" font-family="Helvetica,sans-Serif" font-size="10.00">xmmModelSharedParameters.hpp</text>
</a>
</g>
</g>
<!-- Node2&#45;&gt;Node20 -->
<g id="edge26" class="edge"><title>Node2&#45;&gt;Node20</title>
<path fill="none" stroke="midnightblue" d="M258.67,-295.219C258.67,-288.177 258.67,-277.808 258.67,-268.828"/>
<polygon fill="midnightblue" stroke="midnightblue" points="262.17,-268.55 258.67,-258.55 255.17,-268.55 262.17,-268.55"/>
</g>
<!-- Node21 -->
<g id="node21" class="node"><title>Node21</title>
<polygon fill="white" stroke="#bfbfbf" points="312.054,-180.5 312.054,-198.5 355.286,-198.5 355.286,-180.5 312.054,-180.5"/>
<text text-anchor="middle" x="333.67" y="-186.5" font-family="Helvetica,sans-Serif" font-size="10.00">mutex</text>
</g>
<!-- Node2&#45;&gt;Node21 -->
<g id="edge31" class="edge"><title>Node2&#45;&gt;Node21</title>
<path fill="none" stroke="midnightblue" d="M296.959,-295.49C316.93,-289.159 339.647,-278.081 351.67,-259 361.671,-243.127 353.357,-221.842 345.007,-207.235"/>
<polygon fill="midnightblue" stroke="midnightblue" points="347.964,-205.362 339.706,-198.724 342.022,-209.062 347.964,-205.362"/>
</g>
<!-- Node22 -->
<g id="node22" class="node"><title>Node22</title>
<polygon fill="white" stroke="#bfbfbf" points="66.6133,-240.5 66.6133,-258.5 118.727,-258.5 118.727,-240.5 66.6133,-240.5"/>
<text text-anchor="middle" x="92.6699" y="-246.5" font-family="Helvetica,sans-Serif" font-size="10.00">memory</text>
</g>
<!-- Node2&#45;&gt;Node22 -->
<g id="edge30" class="edge"><title>Node2&#45;&gt;Node22</title>
<path fill="none" stroke="midnightblue" d="M233.458,-295.45C205.223,-286.436 159.274,-271.765 127.591,-261.65"/>
<polygon fill="midnightblue" stroke="midnightblue" points="128.437,-258.246 117.847,-258.538 126.308,-264.914 128.437,-258.246"/>
</g>
<!-- Node4 -->
<g id="node4" class="node"><title>Node4</title>
<polygon fill="white" stroke="#bfbfbf" points="680.266,-5.5 680.266,-23.5 739.074,-23.5 739.074,-5.5 680.266,-5.5"/>
<text text-anchor="middle" x="709.67" y="-11.5" font-family="Helvetica,sans-Serif" font-size="10.00">exception</text>
</g>
<!-- Node3&#45;&gt;Node4 -->
<g id="edge3" class="edge"><title>Node3&#45;&gt;Node4</title>
<path fill="none" stroke="midnightblue" d="M709.67,-65.4353C709.67,-57.3891 709.67,-44.7388 709.67,-34.1846"/>
<polygon fill="midnightblue" stroke="midnightblue" points="713.17,-33.8717 709.67,-23.8718 706.17,-33.8718 713.17,-33.8717"/>
</g>
<!-- Node5 -->
<g id="node5" class="node"><title>Node5</title>
<polygon fill="white" stroke="#bfbfbf" points="600.269,-5.5 600.269,-23.5 659.071,-23.5 659.071,-5.5 600.269,-5.5"/>
<text text-anchor="middle" x="629.67" y="-11.5" font-family="Helvetica,sans-Serif" font-size="10.00">stdexcept</text>
</g>
<!-- Node3&#45;&gt;Node5 -->
<g id="edge4" class="edge"><title>Node3&#45;&gt;Node5</title>
<path fill="none" stroke="midnightblue" d="M698.546,-65.4353C685.841,-56.2243 664.814,-40.9797 649.329,-29.753"/>
<polygon fill="midnightblue" stroke="midnightblue" points="651.108,-26.7192 640.957,-23.6831 646.999,-32.3865 651.108,-26.7192"/>
</g>
<!-- Node6 -->
<g id="node6" class="node"><title>Node6</title>
<polygon fill="white" stroke="#bfbfbf" points="536.054,-5.5 536.054,-23.5 579.286,-23.5 579.286,-5.5 536.054,-5.5"/>
<text text-anchor="middle" x="557.67" y="-11.5" font-family="Helvetica,sans-Serif" font-size="10.00">vector</text>
</g>
<!-- Node3&#45;&gt;Node6 -->
<g id="edge5" class="edge"><title>Node3&#45;&gt;Node6</title>
<path fill="none" stroke="midnightblue" d="M687.878,-65.411C664.165,-56.5785 625.156,-41.961 591.67,-29 590.263,-28.4555 588.825,-27.8959 587.373,-27.3286"/>
<polygon fill="midnightblue" stroke="midnightblue" points="588.37,-23.9598 577.783,-23.5529 585.806,-30.4731 588.37,-23.9598"/>
</g>
<!-- Node8 -->
<g id="node8" class="node"><title>Node8</title>
<polygon fill="white" stroke="#bfbfbf" points="141.266,-5.5 141.266,-23.5 200.074,-23.5 200.074,-5.5 141.266,-5.5"/>
<text text-anchor="middle" x="170.67" y="-11.5" font-family="Helvetica,sans-Serif" font-size="10.00">functional</text>
</g>
<!-- Node7&#45;&gt;Node8 -->
<g id="edge7" class="edge"><title>Node7&#45;&gt;Node8</title>
<path fill="none" stroke="midnightblue" d="M170.67,-65.4353C170.67,-57.3891 170.67,-44.7388 170.67,-34.1846"/>
<polygon fill="midnightblue" stroke="midnightblue" points="174.17,-33.8717 170.67,-23.8718 167.17,-33.8718 174.17,-33.8717"/>
</g>
<!-- Node9 -->
<g id="node9" class="node"><title>Node9</title>
<polygon fill="white" stroke="#bfbfbf" points="73.9434,-5.5 73.9434,-23.5 109.396,-23.5 109.396,-5.5 73.9434,-5.5"/>
<text text-anchor="middle" x="91.6699" y="-11.5" font-family="Helvetica,sans-Serif" font-size="10.00">map</text>
</g>
<!-- Node7&#45;&gt;Node9 -->
<g id="edge8" class="edge"><title>Node7&#45;&gt;Node9</title>
<path fill="none" stroke="midnightblue" d="M159.685,-65.4353C147.139,-56.2243 126.375,-40.9797 111.083,-29.753"/>
<polygon fill="midnightblue" stroke="midnightblue" points="112.948,-26.7799 102.816,-23.6831 108.805,-32.4225 112.948,-26.7799"/>
</g>
<!-- Node10 -->
<g id="node10" class="node"><title>Node10</title>
<polygon fill="white" stroke="#bfbfbf" points="0,-5.5 0,-23.5 29.3398,-23.5 29.3398,-5.5 0,-5.5"/>
<text text-anchor="middle" x="14.6699" y="-11.5" font-family="Helvetica,sans-Serif" font-size="10.00">set</text>
</g>
<!-- Node7&#45;&gt;Node10 -->
<g id="edge9" class="edge"><title>Node7&#45;&gt;Node10</title>
<path fill="none" stroke="midnightblue" d="M148.979,-65.4353C120.221,-54.7434 69.5973,-35.9217 39.3913,-24.6913"/>
<polygon fill="midnightblue" stroke="midnightblue" points="40.2207,-21.2656 29.6279,-21.0613 37.7813,-27.8268 40.2207,-21.2656"/>
</g>
<!-- Node11&#45;&gt;Node9 -->
<g id="edge24" class="edge"><title>Node11&#45;&gt;Node9</title>
<path fill="none" stroke="midnightblue" d="M137.367,-175.448C124.421,-156.42 101.564,-119.456 92.6699,-84 88.51,-67.4167 88.7066,-47.8586 89.6787,-33.8954"/>
<polygon fill="midnightblue" stroke="midnightblue" points="93.1884,-33.9439 90.5992,-23.6703 86.2166,-33.3162 93.1884,-33.9439"/>
</g>
<!-- Node11&#45;&gt;Node10 -->
<g id="edge25" class="edge"><title>Node11&#45;&gt;Node10</title>
<path fill="none" stroke="midnightblue" d="M134.319,-175.39C125.27,-165.602 112.846,-151.768 102.67,-139 73.12,-101.921 41.5951,-55.8912 25.4983,-31.8548"/>
<polygon fill="midnightblue" stroke="midnightblue" points="28.4014,-29.8997 19.9443,-23.5178 22.5757,-33.7806 28.4014,-29.8997"/>
</g>
<!-- Node12 -->
<g id="node12" class="node"><title>Node12</title>
<g id="a_node12"><a xlink:href="xmm_phrase_8hpp.html" target="_top" xlink:title="xmmPhrase.hpp">
<polygon fill="white" stroke="black" points="276.266,-120.5 276.266,-138.5 365.074,-138.5 365.074,-120.5 276.266,-120.5"/>
<text text-anchor="middle" x="320.67" y="-126.5" font-family="Helvetica,sans-Serif" font-size="10.00">xmmPhrase.hpp</text>
</a>
</g>
</g>
<!-- Node11&#45;&gt;Node12 -->
<g id="edge11" class="edge"><title>Node11&#45;&gt;Node12</title>
<path fill="none" stroke="midnightblue" d="M185.719,-175.484C216.103,-165.356 257.836,-151.445 286.815,-141.785"/>
<polygon fill="midnightblue" stroke="midnightblue" points="288.114,-145.041 296.494,-138.559 285.9,-138.401 288.114,-145.041"/>
</g>
<!-- Node12&#45;&gt;Node7 -->
<g id="edge18" class="edge"><title>Node12&#45;&gt;Node7</title>
<path fill="none" stroke="midnightblue" d="M297.888,-120.45C272.668,-111.539 231.81,-97.1029 203.221,-87.0014"/>
<polygon fill="midnightblue" stroke="midnightblue" points="204.261,-83.6568 193.666,-83.6253 201.929,-90.2569 204.261,-83.6568"/>
</g>
<!-- Node13 -->
<g id="node13" class="node"><title>Node13</title>
<g id="a_node13"><a xlink:href="xmm_attribute_8hpp.html" target="_top" xlink:title="../common/xmmAttribute.hpp">
<polygon fill="white" stroke="black" points="402.759,-65.5 402.759,-83.5 546.581,-83.5 546.581,-65.5 402.759,-65.5"/>
<text text-anchor="middle" x="474.67" y="-71.5" font-family="Helvetica,sans-Serif" font-size="10.00">../common/xmmAttribute.hpp</text>
</a>
</g>
</g>
<!-- Node12&#45;&gt;Node13 -->
<g id="edge12" class="edge"><title>Node12&#45;&gt;Node13</title>
<path fill="none" stroke="midnightblue" d="M344.059,-120.45C370.027,-111.514 412.143,-97.0189 441.506,-86.9134"/>
<polygon fill="midnightblue" stroke="midnightblue" points="442.997,-90.1021 451.313,-83.5383 440.719,-83.4831 442.997,-90.1021"/>
</g>
<!-- Node16 -->
<g id="node16" class="node"><title>Node16</title>
<g id="a_node16"><a xlink:href="xmm_json_8hpp.html" target="_top" xlink:title="../common/xmmJson.hpp">
<polygon fill="white" stroke="black" points="256.818,-65.5 256.818,-83.5 384.522,-83.5 384.522,-65.5 256.818,-65.5"/>
<text text-anchor="middle" x="320.67" y="-71.5" font-family="Helvetica,sans-Serif" font-size="10.00">../common/xmmJson.hpp</text>
</a>
</g>
</g>
<!-- Node12&#45;&gt;Node16 -->
<g id="edge19" class="edge"><title>Node12&#45;&gt;Node16</title>
<path fill="none" stroke="midnightblue" d="M320.67,-120.219C320.67,-113.177 320.67,-102.808 320.67,-93.8277"/>
<polygon fill="midnightblue" stroke="midnightblue" points="324.17,-93.5495 320.67,-83.5496 317.17,-93.5496 324.17,-93.5495"/>
</g>
<!-- Node12&#45;&gt;Node19 -->
<g id="edge23" class="edge"><title>Node12&#45;&gt;Node19</title>
<path fill="none" stroke="midnightblue" d="M365.507,-121.115C410.83,-113.404 483.075,-100.442 554.915,-84.0093"/>
<polygon fill="midnightblue" stroke="midnightblue" points="556.091,-87.3298 565.046,-81.6678 554.515,-80.5096 556.091,-87.3298"/>
</g>
<!-- Node13&#45;&gt;Node5 -->
<g id="edge15" class="edge"><title>Node13&#45;&gt;Node5</title>
<path fill="none" stroke="midnightblue" d="M496.222,-65.4353C522.678,-55.5356 567.76,-38.6664 598.118,-27.3064"/>
<polygon fill="midnightblue" stroke="midnightblue" points="599.662,-30.4658 607.801,-23.6831 597.209,-23.9098 599.662,-30.4658"/>
</g>
<!-- Node13&#45;&gt;Node6 -->
<g id="edge17" class="edge"><title>Node13&#45;&gt;Node6</title>
<path fill="none" stroke="midnightblue" d="M486.211,-65.4353C499.515,-56.1382 521.616,-40.6942 537.722,-29.4393"/>
<polygon fill="midnightblue" stroke="midnightblue" points="539.767,-32.2801 545.96,-23.6831 535.758,-26.5422 539.767,-32.2801"/>
</g>
<!-- Node13&#45;&gt;Node8 -->
<g id="edge13" class="edge"><title>Node13&#45;&gt;Node8</title>
<path fill="none" stroke="midnightblue" d="M406.749,-65.4845C352.586,-58.2932 275.071,-46.2069 208.67,-29 206.179,-28.3546 203.621,-27.6163 201.065,-26.825"/>
<polygon fill="midnightblue" stroke="midnightblue" points="201.965,-23.4358 191.371,-23.5955 199.752,-30.077 201.965,-23.4358"/>
</g>
<!-- Node14 -->
<g id="node14" class="node"><title>Node14</title>
<polygon fill="white" stroke="#bfbfbf" points="479.283,-5.5 479.283,-23.5 518.057,-23.5 518.057,-5.5 479.283,-5.5"/>
<text text-anchor="middle" x="498.67" y="-11.5" font-family="Helvetica,sans-Serif" font-size="10.00">limits</text>
</g>
<!-- Node13&#45;&gt;Node14 -->
<g id="edge14" class="edge"><title>Node13&#45;&gt;Node14</title>
<path fill="none" stroke="midnightblue" d="M478.007,-65.4353C481.443,-57.1323 486.907,-43.9267 491.354,-33.1807"/>
<polygon fill="midnightblue" stroke="midnightblue" points="494.616,-34.4502 495.206,-23.8718 488.148,-31.7737 494.616,-34.4502"/>
</g>
<!-- Node15 -->
<g id="node15" class="node"><title>Node15</title>
<polygon fill="white" stroke="#bfbfbf" points="420.443,-5.5 420.443,-23.5 460.896,-23.5 460.896,-5.5 420.443,-5.5"/>
<text text-anchor="middle" x="440.67" y="-11.5" font-family="Helvetica,sans-Serif" font-size="10.00">string</text>
</g>
<!-- Node13&#45;&gt;Node15 -->
<g id="edge16" class="edge"><title>Node13&#45;&gt;Node15</title>
<path fill="none" stroke="midnightblue" d="M469.942,-65.4353C464.975,-56.9611 457.013,-43.38 450.647,-32.5192"/>
<polygon fill="midnightblue" stroke="midnightblue" points="453.654,-30.7287 445.578,-23.8718 447.615,-34.2688 453.654,-30.7287"/>
</g>
<!-- Node16&#45;&gt;Node6 -->
<g id="edge22" class="edge"><title>Node16&#45;&gt;Node6</title>
<path fill="none" stroke="midnightblue" d="M371.355,-65.4398C413.509,-58.0525 474.78,-45.721 526.67,-29 528.283,-28.4801 529.927,-27.9058 531.574,-27.2959"/>
<polygon fill="midnightblue" stroke="midnightblue" points="532.89,-30.5391 540.848,-23.5453 530.266,-24.0496 532.89,-30.5391"/>
</g>
<!-- Node17 -->
<g id="node17" class="node"><title>Node17</title>
<polygon fill="white" stroke="#bfbfbf" points="218.082,-0.5 218.082,-28.5 335.258,-28.5 335.258,-0.5 218.082,-0.5"/>
<text text-anchor="start" x="226.082" y="-16.5" font-family="Helvetica,sans-Serif" font-size="10.00">../../../dependencies</text>
<text text-anchor="middle" x="276.67" y="-6.5" font-family="Helvetica,sans-Serif" font-size="10.00">/jsoncpp/include/json.h</text>
</g>
<!-- Node16&#45;&gt;Node17 -->
<g id="edge20" class="edge"><title>Node16&#45;&gt;Node17</title>
<path fill="none" stroke="midnightblue" d="M314.552,-65.4353C309,-58.1167 300.558,-46.989 293.052,-37.0942"/>
<polygon fill="midnightblue" stroke="midnightblue" points="295.624,-34.6943 286.792,-28.8428 290.047,-38.9251 295.624,-34.6943"/>
</g>
<!-- Node18 -->
<g id="node18" class="node"><title>Node18</title>
<polygon fill="white" stroke="#bfbfbf" points="353,-5.5 353,-23.5 402.34,-23.5 402.34,-5.5 353,-5.5"/>
<text text-anchor="middle" x="377.67" y="-11.5" font-family="Helvetica,sans-Serif" font-size="10.00">fstream</text>
</g>
<!-- Node16&#45;&gt;Node18 -->
<g id="edge21" class="edge"><title>Node16&#45;&gt;Node18</title>
<path fill="none" stroke="midnightblue" d="M328.596,-65.4353C337.26,-56.6187 351.357,-42.2743 362.224,-31.2165"/>
<polygon fill="midnightblue" stroke="midnightblue" points="364.929,-33.4573 369.443,-23.8718 359.937,-28.5508 364.929,-33.4573"/>
</g>
<!-- Node20&#45;&gt;Node7 -->
<g id="edge27" class="edge"><title>Node20&#45;&gt;Node7</title>
<path fill="none" stroke="midnightblue" d="M254.425,-240.156C240.806,-213.38 198.01,-129.249 179.427,-92.7153"/>
<polygon fill="midnightblue" stroke="midnightblue" points="182.525,-91.0867 174.872,-83.7604 176.286,-94.2604 182.525,-91.0867"/>
</g>
<!-- Node20&#45;&gt;Node11 -->
<g id="edge28" class="edge"><title>Node20&#45;&gt;Node11</title>
<path fill="none" stroke="midnightblue" d="M243.097,-240.435C227.147,-232.176 201.828,-219.064 181.137,-208.349"/>
<polygon fill="midnightblue" stroke="midnightblue" points="182.495,-205.111 172.006,-203.62 179.276,-211.327 182.495,-205.111"/>
</g>
<!-- Node20&#45;&gt;Node21 -->
<g id="edge29" class="edge"><title>Node20&#45;&gt;Node21</title>
<path fill="none" stroke="midnightblue" d="M269.098,-240.435C280.831,-231.362 300.135,-216.434 314.585,-205.259"/>
<polygon fill="midnightblue" stroke="midnightblue" points="317.075,-207.758 322.844,-198.872 312.793,-202.221 317.075,-207.758"/>
</g>
</g>
</svg>
