<?xml version="1.0" encoding="UTF-8" standalone="no"?>
<!DOCTYPE svg PUBLIC "-//W3C//DTD SVG 1.1//EN"
 "http://www.w3.org/Graphics/SVG/1.1/DTD/svg11.dtd">
<!-- Generated by graphviz version 2.38.0 (20140413.2041)
 -->
<!-- Title: xmmGmmParameters.cpp Pages: 1 -->
<svg width="523pt" height="267pt"
 viewBox="0.00 0.00 522.98 267.00" xmlns="http://www.w3.org/2000/svg" xmlns:xlink="http://www.w3.org/1999/xlink">
<g id="graph0" class="graph" transform="scale(1 1) rotate(0) translate(4 263)">
<title>xmmGmmParameters.cpp</title>
<polygon fill="white" stroke="none" points="-4,4 -4,-263 518.975,-263 518.975,4 -4,4"/>
<!-- Node1 -->
<g id="node1" class="node"><title>Node1</title>
<polygon fill="#bfbfbf" stroke="black" points="188.044,-240.5 188.044,-258.5 320.729,-258.5 320.729,-240.5 188.044,-240.5"/>
<text text-anchor="middle" x="254.387" y="-246.5" font-family="Helvetica,sans-Serif" font-size="10.00">xmmGmmParameters.cpp</text>
</g>
<!-- Node2 -->
<g id="node2" class="node"><title>Node2</title>
<g id="a_node2"><a xlink:href="xmm_gmm_parameters_8hpp.html" target="_top" xlink:title="xmmGmmParameters.hpp">
<polygon fill="white" stroke="black" points="187.764,-185.5 187.764,-203.5 321.01,-203.5 321.01,-185.5 187.764,-185.5"/>
<text text-anchor="middle" x="254.387" y="-191.5" font-family="Helvetica,sans-Serif" font-size="10.00">xmmGmmParameters.hpp</text>
</a>
</g>
</g>
<!-- Node1&#45;&gt;Node2 -->
<g id="edge1" class="edge"><title>Node1&#45;&gt;Node2</title>
<path fill="none" stroke="midnightblue" d="M254.387,-240.219C254.387,-233.177 254.387,-222.808 254.387,-213.828"/>
<polygon fill="midnightblue" stroke="midnightblue" points="257.887,-213.55 254.387,-203.55 250.887,-213.55 257.887,-213.55"/>
</g>
<!-- Node3 -->
<g id="node3" class="node"><title>Node3</title>
<g id="a_node3"><a xlink:href="xmm_gaussian_distribution_8hpp.html" target="_top" xlink:title="../../core/distributions\l/xmmGaussianDistribution.hpp">
<polygon fill="white" stroke="black" points="98.3032,-120.5 98.3032,-148.5 250.47,-148.5 250.47,-120.5 98.3032,-120.5"/>
<text text-anchor="start" x="106.303" y="-136.5" font-family="Helvetica,sans-Serif" font-size="10.00">../../core/distributions</text>
<text text-anchor="middle" x="174.387" y="-126.5" font-family="Helvetica,sans-Serif" font-size="10.00">/xmmGaussianDistribution.hpp</text>
</a>
</g>
</g>
<!-- Node2&#45;&gt;Node3 -->
<g id="edge2" class="edge"><title>Node2&#45;&gt;Node3</title>
<path fill="none" stroke="midnightblue" d="M243.263,-185.435C232.281,-177.473 215.08,-165.003 200.616,-154.516"/>
<polygon fill="midnightblue" stroke="midnightblue" points="202.634,-151.656 192.484,-148.62 198.525,-157.324 202.634,-151.656"/>
</g>
<!-- Node13 -->
<g id="node13" class="node"><title>Node13</title>
<g id="a_node13"><a xlink:href="xmm_model_parameters_8hpp.html" target="_top" xlink:title="../../core/model/xmmModel\lParameters.hpp">
<polygon fill="white" stroke="black" points="268.48,-120.5 268.48,-148.5 402.293,-148.5 402.293,-120.5 268.48,-120.5"/>
<text text-anchor="start" x="276.48" y="-136.5" font-family="Helvetica,sans-Serif" font-size="10.00">../../core/model/xmmModel</text>
<text text-anchor="middle" x="335.387" y="-126.5" font-family="Helvetica,sans-Serif" font-size="10.00">Parameters.hpp</text>
</a>
</g>
</g>
<!-- Node2&#45;&gt;Node13 -->
<g id="edge13" class="edge"><title>Node2&#45;&gt;Node13</title>
<path fill="none" stroke="midnightblue" d="M265.649,-185.435C276.769,-177.473 294.184,-165.003 308.829,-154.516"/>
<polygon fill="midnightblue" stroke="midnightblue" points="310.971,-157.288 317.063,-148.62 306.895,-151.597 310.971,-157.288"/>
</g>
<!-- Node4 -->
<g id="node4" class="node"><title>Node4</title>
<g id="a_node4"><a xlink:href="xmm_attribute_8hpp.html" target="_top" xlink:title="../common/xmmAttribute.hpp">
<polygon fill="white" stroke="black" points="102.476,-65.5 102.476,-83.5 246.298,-83.5 246.298,-65.5 102.476,-65.5"/>
<text text-anchor="middle" x="174.387" y="-71.5" font-family="Helvetica,sans-Serif" font-size="10.00">../common/xmmAttribute.hpp</text>
</a>
</g>
</g>
<!-- Node3&#45;&gt;Node4 -->
<g id="edge3" class="edge"><title>Node3&#45;&gt;Node4</title>
<path fill="none" stroke="midnightblue" d="M174.387,-120.339C174.387,-112.531 174.387,-102.512 174.387,-93.9265"/>
<polygon fill="midnightblue" stroke="midnightblue" points="177.887,-93.7714 174.387,-83.7715 170.887,-93.7715 177.887,-93.7714"/>
</g>
<!-- Node10 -->
<g id="node10" class="node"><title>Node10</title>
<g id="a_node10"><a xlink:href="xmm_json_8hpp.html" target="_top" xlink:title="../common/xmmJson.hpp">
<polygon fill="white" stroke="black" points="271.535,-65.5 271.535,-83.5 399.239,-83.5 399.239,-65.5 271.535,-65.5"/>
<text text-anchor="middle" x="335.387" y="-71.5" font-family="Helvetica,sans-Serif" font-size="10.00">../common/xmmJson.hpp</text>
</a>
</g>
</g>
<!-- Node3&#45;&gt;Node10 -->
<g id="edge9" class="edge"><title>Node3&#45;&gt;Node10</title>
<path fill="none" stroke="midnightblue" d="M210.518,-120.484C238.305,-110.474 276.348,-96.7686 303.119,-87.1246"/>
<polygon fill="midnightblue" stroke="midnightblue" points="304.56,-90.3256 312.782,-83.6434 302.187,-83.7399 304.56,-90.3256"/>
</g>
<!-- Node5 -->
<g id="node5" class="node"><title>Node5</title>
<polygon fill="white" stroke="#bfbfbf" points="192.983,-5.5 192.983,-23.5 251.791,-23.5 251.791,-5.5 192.983,-5.5"/>
<text text-anchor="middle" x="222.387" y="-11.5" font-family="Helvetica,sans-Serif" font-size="10.00">functional</text>
</g>
<!-- Node4&#45;&gt;Node5 -->
<g id="edge4" class="edge"><title>Node4&#45;&gt;Node5</title>
<path fill="none" stroke="midnightblue" d="M181.061,-65.4353C188.216,-56.7899 199.769,-42.8292 208.844,-31.8643"/>
<polygon fill="midnightblue" stroke="midnightblue" points="211.779,-33.8072 215.458,-23.8718 206.386,-29.3442 211.779,-33.8072"/>
</g>
<!-- Node6 -->
<g id="node6" class="node"><title>Node6</title>
<polygon fill="white" stroke="#bfbfbf" points="0,-5.5 0,-23.5 38.7734,-23.5 38.7734,-5.5 0,-5.5"/>
<text text-anchor="middle" x="19.3867" y="-11.5" font-family="Helvetica,sans-Serif" font-size="10.00">limits</text>
</g>
<!-- Node4&#45;&gt;Node6 -->
<g id="edge5" class="edge"><title>Node4&#45;&gt;Node6</title>
<path fill="none" stroke="midnightblue" d="M149.496,-65.4961C123.888,-57.0783 82.9668,-43.1171 48.3867,-29 47.3841,-28.5907 46.366,-28.1654 45.3405,-27.729"/>
<polygon fill="midnightblue" stroke="midnightblue" points="46.6931,-24.5 36.134,-23.6293 43.8455,-30.8946 46.6931,-24.5"/>
</g>
<!-- Node7 -->
<g id="node7" class="node"><title>Node7</title>
<polygon fill="white" stroke="#bfbfbf" points="56.9854,-5.5 56.9854,-23.5 115.788,-23.5 115.788,-5.5 56.9854,-5.5"/>
<text text-anchor="middle" x="86.3867" y="-11.5" font-family="Helvetica,sans-Serif" font-size="10.00">stdexcept</text>
</g>
<!-- Node4&#45;&gt;Node7 -->
<g id="edge6" class="edge"><title>Node4&#45;&gt;Node7</title>
<path fill="none" stroke="midnightblue" d="M162.151,-65.4353C148.045,-56.1382 124.612,-40.6942 107.536,-29.4393"/>
<polygon fill="midnightblue" stroke="midnightblue" points="109.078,-26.264 98.8025,-23.6831 105.226,-32.1087 109.078,-26.264"/>
</g>
<!-- Node8 -->
<g id="node8" class="node"><title>Node8</title>
<polygon fill="white" stroke="#bfbfbf" points="134.16,-5.5 134.16,-23.5 174.613,-23.5 174.613,-5.5 134.16,-5.5"/>
<text text-anchor="middle" x="154.387" y="-11.5" font-family="Helvetica,sans-Serif" font-size="10.00">string</text>
</g>
<!-- Node4&#45;&gt;Node8 -->
<g id="edge7" class="edge"><title>Node4&#45;&gt;Node8</title>
<path fill="none" stroke="midnightblue" d="M171.606,-65.4353C168.772,-57.2179 164.283,-44.1985 160.598,-33.5138"/>
<polygon fill="midnightblue" stroke="midnightblue" points="163.842,-32.1845 157.274,-23.8718 157.225,-34.4665 163.842,-32.1845"/>
</g>
<!-- Node9 -->
<g id="node9" class="node"><title>Node9</title>
<polygon fill="white" stroke="#bfbfbf" points="269.771,-5.5 269.771,-23.5 313.002,-23.5 313.002,-5.5 269.771,-5.5"/>
<text text-anchor="middle" x="291.387" y="-11.5" font-family="Helvetica,sans-Serif" font-size="10.00">vector</text>
</g>
<!-- Node4&#45;&gt;Node9 -->
<g id="edge8" class="edge"><title>Node4&#45;&gt;Node9</title>
<path fill="none" stroke="midnightblue" d="M190.655,-65.4353C210.104,-55.7939 242.889,-39.5418 265.755,-28.2065"/>
<polygon fill="midnightblue" stroke="midnightblue" points="267.474,-31.2605 274.879,-23.6831 264.365,-24.9888 267.474,-31.2605"/>
</g>
<!-- Node10&#45;&gt;Node9 -->
<g id="edge12" class="edge"><title>Node10&#45;&gt;Node9</title>
<path fill="none" stroke="midnightblue" d="M329.269,-65.4353C322.71,-56.7899 312.119,-42.8292 303.801,-31.8643"/>
<polygon fill="midnightblue" stroke="midnightblue" points="306.57,-29.7233 297.738,-23.8718 300.993,-33.9541 306.57,-29.7233"/>
</g>
<!-- Node11 -->
<g id="node11" class="node"><title>Node11</title>
<polygon fill="white" stroke="#bfbfbf" points="397.798,-0.5 397.798,-28.5 514.975,-28.5 514.975,-0.5 397.798,-0.5"/>
<text text-anchor="start" x="405.798" y="-16.5" font-family="Helvetica,sans-Serif" font-size="10.00">../../../dependencies</text>
<text text-anchor="middle" x="456.387" y="-6.5" font-family="Helvetica,sans-Serif" font-size="10.00">/jsoncpp/include/json.h</text>
</g>
<!-- Node10&#45;&gt;Node11 -->
<g id="edge10" class="edge"><title>Node10&#45;&gt;Node11</title>
<path fill="none" stroke="midnightblue" d="M352.211,-65.4353C369.598,-57.1012 397.289,-43.8276 419.753,-33.0599"/>
<polygon fill="midnightblue" stroke="midnightblue" points="421.51,-36.099 429.015,-28.6203 418.485,-29.7867 421.51,-36.099"/>
</g>
<!-- Node12 -->
<g id="node12" class="node"><title>Node12</title>
<polygon fill="white" stroke="#bfbfbf" points="330.717,-5.5 330.717,-23.5 380.057,-23.5 380.057,-5.5 330.717,-5.5"/>
<text text-anchor="middle" x="355.387" y="-11.5" font-family="Helvetica,sans-Serif" font-size="10.00">fstream</text>
</g>
<!-- Node10&#45;&gt;Node12 -->
<g id="edge11" class="edge"><title>Node10&#45;&gt;Node12</title>
<path fill="none" stroke="midnightblue" d="M338.168,-65.4353C341.001,-57.2179 345.491,-44.1985 349.175,-33.5138"/>
<polygon fill="midnightblue" stroke="midnightblue" points="352.549,-34.4665 352.5,-23.8718 345.931,-32.1845 352.549,-34.4665"/>
</g>
<!-- Node13&#45;&gt;Node4 -->
<g id="edge14" class="edge"><title>Node13&#45;&gt;Node4</title>
<path fill="none" stroke="midnightblue" d="M299.255,-120.484C271.469,-110.474 233.425,-96.7686 206.655,-87.1246"/>
<polygon fill="midnightblue" stroke="midnightblue" points="207.586,-83.7399 196.992,-83.6434 205.214,-90.3256 207.586,-83.7399"/>
</g>
<!-- Node13&#45;&gt;Node10 -->
<g id="edge15" class="edge"><title>Node13&#45;&gt;Node10</title>
<path fill="none" stroke="midnightblue" d="M335.387,-120.339C335.387,-112.531 335.387,-102.512 335.387,-93.9265"/>
<polygon fill="midnightblue" stroke="midnightblue" points="338.887,-93.7714 335.387,-83.7715 331.887,-93.7715 338.887,-93.7714"/>
</g>
</g>
</svg>
