<?xml version="1.0" encoding="UTF-8" standalone="no"?>
<!DOCTYPE svg PUBLIC "-//W3C//DTD SVG 1.1//EN"
 "http://www.w3.org/Graphics/SVG/1.1/DTD/svg11.dtd">
<!-- Generated by graphviz version 2.38.0 (20140413.2041)
 -->
<!-- Title: xmmKMeans.hpp Pages: 1 -->
<svg width="1065pt" height="397pt"
 viewBox="0.00 0.00 1064.92 397.00" xmlns="http://www.w3.org/2000/svg" xmlns:xlink="http://www.w3.org/1999/xlink">
<g id="graph0" class="graph" transform="scale(1 1) rotate(0) translate(4 393)">
<title>xmmKMeans.hpp</title>
<polygon fill="white" stroke="none" points="-4,4 -4,-393 1060.92,-393 1060.92,4 -4,4"/>
<!-- Node1 -->
<g id="node1" class="node"><title>Node1</title>
<polygon fill="#bfbfbf" stroke="black" points="431.685,-370.5 431.685,-388.5 525.492,-388.5 525.492,-370.5 431.685,-370.5"/>
<text text-anchor="middle" x="478.588" y="-376.5" font-family="Helvetica,sans-Serif" font-size="10.00">xmmKMeans.hpp</text>
</g>
<!-- Node2 -->
<g id="node2" class="node"><title>Node2</title>
<g id="a_node2"><a xlink:href="xmm_model_configuration_8hpp.html" target="_top" xlink:title="../../core/model/xmmModel\lConfiguration.hpp">
<polygon fill="white" stroke="black" points="459.682,-185.5 459.682,-213.5 593.495,-213.5 593.495,-185.5 459.682,-185.5"/>
<text text-anchor="start" x="467.682" y="-201.5" font-family="Helvetica,sans-Serif" font-size="10.00">../../core/model/xmmModel</text>
<text text-anchor="middle" x="526.588" y="-191.5" font-family="Helvetica,sans-Serif" font-size="10.00">Configuration.hpp</text>
</a>
</g>
</g>
<!-- Node1&#45;&gt;Node2 -->
<g id="edge1" class="edge"><title>Node1&#45;&gt;Node2</title>
<path fill="none" stroke="midnightblue" d="M486.383,-370.405C493.945,-362.023 505.063,-348.187 510.588,-334 524.883,-297.294 527.284,-250.971 527.261,-223.66"/>
<polygon fill="midnightblue" stroke="midnightblue" points="530.759,-223.485 527.138,-213.529 523.76,-223.571 530.759,-223.485"/>
</g>
<!-- Node14 -->
<g id="node14" class="node"><title>Node14</title>
<g id="a_node14"><a xlink:href="xmm_model_single_class_8hpp.html" target="_top" xlink:title="../../core/model/xmmModel\lSingleClass.hpp">
<polygon fill="white" stroke="black" points="646.682,-305.5 646.682,-333.5 780.495,-333.5 780.495,-305.5 646.682,-305.5"/>
<text text-anchor="start" x="654.682" y="-321.5" font-family="Helvetica,sans-Serif" font-size="10.00">../../core/model/xmmModel</text>
<text text-anchor="middle" x="713.588" y="-311.5" font-family="Helvetica,sans-Serif" font-size="10.00">SingleClass.hpp</text>
</a>
</g>
</g>
<!-- Node1&#45;&gt;Node14 -->
<g id="edge14" class="edge"><title>Node1&#45;&gt;Node14</title>
<path fill="none" stroke="midnightblue" d="M511.264,-370.435C547.26,-361.551 605.996,-347.055 650.934,-335.964"/>
<polygon fill="midnightblue" stroke="midnightblue" points="652.007,-339.304 660.877,-333.51 650.33,-332.508 652.007,-339.304"/>
</g>
<!-- Node25 -->
<g id="node25" class="node"><title>Node25</title>
<g id="a_node25"><a xlink:href="xmm_k_means_parameters_8hpp.html" target="_top" xlink:title="xmmKMeansParameters.hpp">
<polygon fill="white" stroke="black" points="355.842,-310.5 355.842,-328.5 501.334,-328.5 501.334,-310.5 355.842,-310.5"/>
<text text-anchor="middle" x="428.588" y="-316.5" font-family="Helvetica,sans-Serif" font-size="10.00">xmmKMeansParameters.hpp</text>
</a>
</g>
</g>
<!-- Node1&#45;&gt;Node25 -->
<g id="edge37" class="edge"><title>Node1&#45;&gt;Node25</title>
<path fill="none" stroke="midnightblue" d="M471.636,-370.435C464.109,-361.704 451.909,-347.552 442.416,-336.54"/>
<polygon fill="midnightblue" stroke="midnightblue" points="444.986,-334.161 435.805,-328.872 439.684,-338.731 444.986,-334.161"/>
</g>
<!-- Node26 -->
<g id="node26" class="node"><title>Node26</title>
<g id="a_node26"><a xlink:href="xmm_k_means_results_8hpp.html" target="_top" xlink:title="xmmKMeansResults.hpp">
<polygon fill="white" stroke="black" points="207.012,-310.5 207.012,-328.5 334.165,-328.5 334.165,-310.5 207.012,-310.5"/>
<text text-anchor="middle" x="270.588" y="-316.5" font-family="Helvetica,sans-Serif" font-size="10.00">xmmKMeansResults.hpp</text>
</a>
</g>
</g>
<!-- Node1&#45;&gt;Node26 -->
<g id="edge39" class="edge"><title>Node1&#45;&gt;Node26</title>
<path fill="none" stroke="midnightblue" d="M449.667,-370.435C413.135,-360.249 350.14,-342.683 309.437,-331.333"/>
<polygon fill="midnightblue" stroke="midnightblue" points="310.171,-327.904 299.599,-328.589 308.291,-334.647 310.171,-327.904"/>
</g>
<!-- Node3 -->
<g id="node3" class="node"><title>Node3</title>
<g id="a_node3"><a xlink:href="xmm_model_parameters_8hpp.html" target="_top" xlink:title="xmmModelParameters.hpp">
<polygon fill="white" stroke="black" points="391.566,-130.5 391.566,-148.5 527.61,-148.5 527.61,-130.5 391.566,-130.5"/>
<text text-anchor="middle" x="459.588" y="-136.5" font-family="Helvetica,sans-Serif" font-size="10.00">xmmModelParameters.hpp</text>
</a>
</g>
</g>
<!-- Node2&#45;&gt;Node3 -->
<g id="edge2" class="edge"><title>Node2&#45;&gt;Node3</title>
<path fill="none" stroke="midnightblue" d="M511.385,-185.339C501.149,-176.478 487.625,-164.77 476.963,-155.541"/>
<polygon fill="midnightblue" stroke="midnightblue" points="478.995,-152.67 469.143,-148.771 474.413,-157.963 478.995,-152.67"/>
</g>
<!-- Node13 -->
<g id="node13" class="node"><title>Node13</title>
<polygon fill="white" stroke="#bfbfbf" points="838.862,-5.5 838.862,-23.5 874.315,-23.5 874.315,-5.5 838.862,-5.5"/>
<text text-anchor="middle" x="856.588" y="-11.5" font-family="Helvetica,sans-Serif" font-size="10.00">map</text>
</g>
<!-- Node2&#45;&gt;Node13 -->
<g id="edge13" class="edge"><title>Node2&#45;&gt;Node13</title>
<path fill="none" stroke="midnightblue" d="M546.626,-185.302C576.079,-165.793 632.652,-127.903 679.588,-94 696.811,-81.56 698.913,-75.1293 717.588,-65 754.088,-45.2027 800.093,-30.6306 828.933,-22.6037"/>
<polygon fill="midnightblue" stroke="midnightblue" points="829.998,-25.9414 838.733,-19.945 828.165,-19.1857 829.998,-25.9414"/>
</g>
<!-- Node4 -->
<g id="node4" class="node"><title>Node4</title>
<g id="a_node4"><a xlink:href="xmm_attribute_8hpp.html" target="_top" xlink:title="../common/xmmAttribute.hpp">
<polygon fill="white" stroke="black" points="526.677,-70.5 526.677,-88.5 670.5,-88.5 670.5,-70.5 526.677,-70.5"/>
<text text-anchor="middle" x="598.588" y="-76.5" font-family="Helvetica,sans-Serif" font-size="10.00">../common/xmmAttribute.hpp</text>
</a>
</g>
</g>
<!-- Node3&#45;&gt;Node4 -->
<g id="edge3" class="edge"><title>Node3&#45;&gt;Node4</title>
<path fill="none" stroke="midnightblue" d="M478.916,-130.435C502.435,-120.622 542.367,-103.959 569.58,-92.604"/>
<polygon fill="midnightblue" stroke="midnightblue" points="571.096,-95.7641 578.977,-88.6831 568.4,-89.304 571.096,-95.7641"/>
</g>
<!-- Node10 -->
<g id="node10" class="node"><title>Node10</title>
<g id="a_node10"><a xlink:href="xmm_json_8hpp.html" target="_top" xlink:title="../common/xmmJson.hpp">
<polygon fill="white" stroke="black" points="44.7363,-70.5 44.7363,-88.5 172.44,-88.5 172.44,-70.5 44.7363,-70.5"/>
<text text-anchor="middle" x="108.588" y="-76.5" font-family="Helvetica,sans-Serif" font-size="10.00">../common/xmmJson.hpp</text>
</a>
</g>
</g>
<!-- Node3&#45;&gt;Node10 -->
<g id="edge9" class="edge"><title>Node3&#45;&gt;Node10</title>
<path fill="none" stroke="midnightblue" d="M407.006,-130.47C351.057,-121.836 259.98,-107.521 181.588,-94 174.932,-92.852 167.942,-91.6082 161.034,-90.3561"/>
<polygon fill="midnightblue" stroke="midnightblue" points="161.485,-86.8807 151.019,-88.5257 160.227,-93.7666 161.485,-86.8807"/>
</g>
<!-- Node5 -->
<g id="node5" class="node"><title>Node5</title>
<polygon fill="white" stroke="#bfbfbf" points="699.185,-5.5 699.185,-23.5 757.992,-23.5 757.992,-5.5 699.185,-5.5"/>
<text text-anchor="middle" x="728.588" y="-11.5" font-family="Helvetica,sans-Serif" font-size="10.00">functional</text>
</g>
<!-- Node4&#45;&gt;Node5 -->
<g id="edge4" class="edge"><title>Node4&#45;&gt;Node5</title>
<path fill="none" stroke="midnightblue" d="M615.317,-70.3928C637.451,-59.6664 676.693,-40.6491 702.677,-28.0569"/>
<polygon fill="midnightblue" stroke="midnightblue" points="704.451,-31.0868 711.923,-23.5761 701.398,-24.7875 704.451,-31.0868"/>
</g>
<!-- Node6 -->
<g id="node6" class="node"><title>Node6</title>
<polygon fill="white" stroke="#bfbfbf" points="579.202,-5.5 579.202,-23.5 617.975,-23.5 617.975,-5.5 579.202,-5.5"/>
<text text-anchor="middle" x="598.588" y="-11.5" font-family="Helvetica,sans-Serif" font-size="10.00">limits</text>
</g>
<!-- Node4&#45;&gt;Node6 -->
<g id="edge5" class="edge"><title>Node4&#45;&gt;Node6</title>
<path fill="none" stroke="midnightblue" d="M598.588,-70.2639C598.588,-61.0635 598.588,-45.881 598.588,-33.8326"/>
<polygon fill="midnightblue" stroke="midnightblue" points="602.088,-33.5389 598.588,-23.539 595.088,-33.539 602.088,-33.5389"/>
</g>
<!-- Node7 -->
<g id="node7" class="node"><title>Node7</title>
<polygon fill="white" stroke="#bfbfbf" points="488.187,-5.5 488.187,-23.5 546.99,-23.5 546.99,-5.5 488.187,-5.5"/>
<text text-anchor="middle" x="517.588" y="-11.5" font-family="Helvetica,sans-Serif" font-size="10.00">stdexcept</text>
</g>
<!-- Node4&#45;&gt;Node7 -->
<g id="edge6" class="edge"><title>Node4&#45;&gt;Node7</title>
<path fill="none" stroke="midnightblue" d="M587.999,-70.2639C574.829,-60.0202 552.123,-42.3606 536.061,-29.8679"/>
<polygon fill="midnightblue" stroke="midnightblue" points="537.967,-26.9157 527.924,-23.539 533.669,-32.4412 537.967,-26.9157"/>
</g>
<!-- Node8 -->
<g id="node8" class="node"><title>Node8</title>
<polygon fill="white" stroke="#bfbfbf" points="327.362,-5.5 327.362,-23.5 367.815,-23.5 367.815,-5.5 327.362,-5.5"/>
<text text-anchor="middle" x="347.588" y="-11.5" font-family="Helvetica,sans-Serif" font-size="10.00">string</text>
</g>
<!-- Node4&#45;&gt;Node8 -->
<g id="edge7" class="edge"><title>Node4&#45;&gt;Node8</title>
<path fill="none" stroke="midnightblue" d="M559.414,-70.4766C516.833,-61.485 446.927,-45.9324 387.588,-29 384.245,-28.046 380.767,-26.982 377.32,-25.8815"/>
<polygon fill="midnightblue" stroke="midnightblue" points="378.413,-22.5568 367.82,-22.7445 376.218,-29.2038 378.413,-22.5568"/>
</g>
<!-- Node9 -->
<g id="node9" class="node"><title>Node9</title>
<polygon fill="white" stroke="#bfbfbf" points="245.973,-5.5 245.973,-23.5 289.204,-23.5 289.204,-5.5 245.973,-5.5"/>
<text text-anchor="middle" x="267.588" y="-11.5" font-family="Helvetica,sans-Serif" font-size="10.00">vector</text>
</g>
<!-- Node4&#45;&gt;Node9 -->
<g id="edge8" class="edge"><title>Node4&#45;&gt;Node9</title>
<path fill="none" stroke="midnightblue" d="M550.396,-70.4826C482.442,-59.0911 361.916,-38.5467 318.588,-29 312.249,-27.6032 305.511,-25.945 299.08,-24.2773"/>
<polygon fill="midnightblue" stroke="midnightblue" points="299.894,-20.8721 289.33,-21.6849 298.095,-27.6371 299.894,-20.8721"/>
</g>
<!-- Node10&#45;&gt;Node9 -->
<g id="edge12" class="edge"><title>Node10&#45;&gt;Node9</title>
<path fill="none" stroke="midnightblue" d="M129.049,-70.3928C156.598,-59.4773 205.815,-39.9763 237.562,-27.3973"/>
<polygon fill="midnightblue" stroke="midnightblue" points="239.198,-30.5136 247.206,-23.5761 236.62,-24.0059 239.198,-30.5136"/>
</g>
<!-- Node11 -->
<g id="node11" class="node"><title>Node11</title>
<polygon fill="white" stroke="#bfbfbf" points="0,-0.5 0,-28.5 117.177,-28.5 117.177,-0.5 0,-0.5"/>
<text text-anchor="start" x="8" y="-16.5" font-family="Helvetica,sans-Serif" font-size="10.00">../../../dependencies</text>
<text text-anchor="middle" x="58.5884" y="-6.5" font-family="Helvetica,sans-Serif" font-size="10.00">/jsoncpp/include/json.h</text>
</g>
<!-- Node10&#45;&gt;Node11 -->
<g id="edge10" class="edge"><title>Node10&#45;&gt;Node11</title>
<path fill="none" stroke="midnightblue" d="M102.052,-70.2639C95.3207,-61.7827 84.5551,-48.218 75.4226,-36.7111"/>
<polygon fill="midnightblue" stroke="midnightblue" points="78.1006,-34.4552 69.1424,-28.7981 72.6175,-38.8068 78.1006,-34.4552"/>
</g>
<!-- Node12 -->
<g id="node12" class="node"><title>Node12</title>
<polygon fill="white" stroke="#bfbfbf" points="134.918,-5.5 134.918,-23.5 184.258,-23.5 184.258,-5.5 134.918,-5.5"/>
<text text-anchor="middle" x="159.588" y="-11.5" font-family="Helvetica,sans-Serif" font-size="10.00">fstream</text>
</g>
<!-- Node10&#45;&gt;Node12 -->
<g id="edge11" class="edge"><title>Node10&#45;&gt;Node12</title>
<path fill="none" stroke="midnightblue" d="M115.256,-70.2639C123.164,-60.4945 136.533,-43.9798 146.527,-31.635"/>
<polygon fill="midnightblue" stroke="midnightblue" points="149.509,-33.5137 153.081,-23.539 144.068,-29.1092 149.509,-33.5137"/>
</g>
<!-- Node15 -->
<g id="node15" class="node"><title>Node15</title>
<g id="a_node15"><a xlink:href="xmm_circularbuffer_8hpp.html" target="_top" xlink:title="../common/xmmCircularbuffer.hpp">
<polygon fill="white" stroke="black" points="342.649,-70.5 342.649,-88.5 508.527,-88.5 508.527,-70.5 342.649,-70.5"/>
<text text-anchor="middle" x="425.588" y="-76.5" font-family="Helvetica,sans-Serif" font-size="10.00">../common/xmmCircularbuffer.hpp</text>
</a>
</g>
</g>
<!-- Node14&#45;&gt;Node15 -->
<g id="edge15" class="edge"><title>Node14&#45;&gt;Node15</title>
<path fill="none" stroke="midnightblue" d="M702.452,-305.041C674.855,-271.696 605.318,-187.732 602.588,-185 575.604,-157.985 568.998,-150.189 536.588,-130 511.627,-114.451 480.944,-101.16 458.168,-92.2782"/>
<polygon fill="midnightblue" stroke="midnightblue" points="459.211,-88.93 448.621,-88.6316 456.713,-95.4693 459.211,-88.93"/>
</g>
<!-- Node17 -->
<g id="node17" class="node"><title>Node17</title>
<g id="a_node17"><a xlink:href="xmm_events_8hpp.html" target="_top" xlink:title="../common/xmmEvents.hpp">
<polygon fill="white" stroke="black" points="788.012,-70.5 788.012,-88.5 925.165,-88.5 925.165,-70.5 788.012,-70.5"/>
<text text-anchor="middle" x="856.588" y="-76.5" font-family="Helvetica,sans-Serif" font-size="10.00">../common/xmmEvents.hpp</text>
</a>
</g>
</g>
<!-- Node14&#45;&gt;Node17 -->
<g id="edge19" class="edge"><title>Node14&#45;&gt;Node17</title>
<path fill="none" stroke="midnightblue" d="M780.75,-312.572C838.542,-305.914 915.541,-292.785 934.588,-269 947.367,-253.042 918.093,-215.085 917.588,-214 898.331,-172.546 876.112,-123.642 864.536,-98.0796"/>
<polygon fill="midnightblue" stroke="midnightblue" points="867.578,-96.3111 860.266,-88.6433 861.2,-99.1969 867.578,-96.3111"/>
</g>
<!-- Node19 -->
<g id="node19" class="node"><title>Node19</title>
<g id="a_node19"><a xlink:href="xmm_training_set_8hpp.html" target="_top" xlink:title="../trainingset/xmmTraining\lSet.hpp">
<polygon fill="white" stroke="black" points="926.252,-185.5 926.252,-213.5 1056.92,-213.5 1056.92,-185.5 926.252,-185.5"/>
<text text-anchor="start" x="934.252" y="-201.5" font-family="Helvetica,sans-Serif" font-size="10.00">../trainingset/xmmTraining</text>
<text text-anchor="middle" x="991.588" y="-191.5" font-family="Helvetica,sans-Serif" font-size="10.00">Set.hpp</text>
</a>
</g>
</g>
<!-- Node14&#45;&gt;Node19 -->
<g id="edge23" class="edge"><title>Node14&#45;&gt;Node19</title>
<path fill="none" stroke="midnightblue" d="M780.653,-312.947C846.244,-306.222 940.15,-292.734 967.588,-269 980.626,-257.723 986.583,-238.938 989.304,-223.889"/>
<polygon fill="midnightblue" stroke="midnightblue" points="992.802,-224.151 990.768,-213.753 985.874,-223.15 992.802,-224.151"/>
</g>
<!-- Node22 -->
<g id="node22" class="node"><title>Node22</title>
<g id="a_node22"><a xlink:href="xmm_model_shared_parameters_8hpp.html" target="_top" xlink:title="xmmModelSharedParameters.hpp">
<polygon fill="white" stroke="black" points="757.443,-250.5 757.443,-268.5 925.733,-268.5 925.733,-250.5 757.443,-250.5"/>
<text text-anchor="middle" x="841.588" y="-256.5" font-family="Helvetica,sans-Serif" font-size="10.00">xmmModelSharedParameters.hpp</text>
</a>
</g>
</g>
<!-- Node14&#45;&gt;Node22 -->
<g id="edge31" class="edge"><title>Node14&#45;&gt;Node22</title>
<path fill="none" stroke="midnightblue" d="M742.314,-305.484C763.821,-295.738 793.058,-282.491 814.228,-272.898"/>
<polygon fill="midnightblue" stroke="midnightblue" points="815.953,-275.959 823.617,-268.643 813.064,-269.583 815.953,-275.959"/>
</g>
<!-- Node23 -->
<g id="node23" class="node"><title>Node23</title>
<polygon fill="white" stroke="#bfbfbf" points="716.973,-190.5 716.973,-208.5 760.204,-208.5 760.204,-190.5 716.973,-190.5"/>
<text text-anchor="middle" x="738.588" y="-196.5" font-family="Helvetica,sans-Serif" font-size="10.00">mutex</text>
</g>
<!-- Node14&#45;&gt;Node23 -->
<g id="edge36" class="edge"><title>Node14&#45;&gt;Node23</title>
<path fill="none" stroke="midnightblue" d="M699.166,-305.491C685.83,-291.802 669.364,-269.57 678.588,-250 685.887,-234.518 700.666,-222.232 713.73,-213.773"/>
<polygon fill="midnightblue" stroke="midnightblue" points="715.643,-216.707 722.387,-208.536 712.019,-210.717 715.643,-216.707"/>
</g>
<!-- Node24 -->
<g id="node24" class="node"><title>Node24</title>
<polygon fill="white" stroke="#bfbfbf" points="687.532,-250.5 687.532,-268.5 739.645,-268.5 739.645,-250.5 687.532,-250.5"/>
<text text-anchor="middle" x="713.588" y="-256.5" font-family="Helvetica,sans-Serif" font-size="10.00">memory</text>
</g>
<!-- Node14&#45;&gt;Node24 -->
<g id="edge35" class="edge"><title>Node14&#45;&gt;Node24</title>
<path fill="none" stroke="midnightblue" d="M713.588,-305.339C713.588,-297.531 713.588,-287.512 713.588,-278.927"/>
<polygon fill="midnightblue" stroke="midnightblue" points="717.088,-278.771 713.588,-268.771 710.088,-278.772 717.088,-278.771"/>
</g>
<!-- Node15&#45;&gt;Node7 -->
<g id="edge17" class="edge"><title>Node15&#45;&gt;Node7</title>
<path fill="none" stroke="midnightblue" d="M437.616,-70.2639C452.782,-59.8779 479.082,-41.8686 497.362,-29.3504"/>
<polygon fill="midnightblue" stroke="midnightblue" points="499.576,-32.0769 505.849,-23.539 495.62,-26.3013 499.576,-32.0769"/>
</g>
<!-- Node15&#45;&gt;Node9 -->
<g id="edge18" class="edge"><title>Node15&#45;&gt;Node9</title>
<path fill="none" stroke="midnightblue" d="M405.256,-70.3928C377.881,-59.4773 328.973,-39.9763 297.426,-27.3973"/>
<polygon fill="midnightblue" stroke="midnightblue" points="298.428,-24.0288 287.843,-23.5761 295.835,-30.531 298.428,-24.0288"/>
</g>
<!-- Node16 -->
<g id="node16" class="node"><title>Node16</title>
<polygon fill="white" stroke="#bfbfbf" points="396.185,-5.5 396.185,-23.5 454.992,-23.5 454.992,-5.5 396.185,-5.5"/>
<text text-anchor="middle" x="425.588" y="-11.5" font-family="Helvetica,sans-Serif" font-size="10.00">exception</text>
</g>
<!-- Node15&#45;&gt;Node16 -->
<g id="edge16" class="edge"><title>Node15&#45;&gt;Node16</title>
<path fill="none" stroke="midnightblue" d="M425.588,-70.2639C425.588,-61.0635 425.588,-45.881 425.588,-33.8326"/>
<polygon fill="midnightblue" stroke="midnightblue" points="429.088,-33.5389 425.588,-23.539 422.088,-33.539 429.088,-33.5389"/>
</g>
<!-- Node17&#45;&gt;Node5 -->
<g id="edge20" class="edge"><title>Node17&#45;&gt;Node5</title>
<path fill="none" stroke="midnightblue" d="M840.117,-70.3928C818.323,-59.6664 779.685,-40.6491 754.101,-28.0569"/>
<polygon fill="midnightblue" stroke="midnightblue" points="755.515,-24.8518 744.997,-23.5761 752.423,-31.1323 755.515,-24.8518"/>
</g>
<!-- Node17&#45;&gt;Node13 -->
<g id="edge21" class="edge"><title>Node17&#45;&gt;Node13</title>
<path fill="none" stroke="midnightblue" d="M856.588,-70.2639C856.588,-61.0635 856.588,-45.881 856.588,-33.8326"/>
<polygon fill="midnightblue" stroke="midnightblue" points="860.088,-33.5389 856.588,-23.539 853.088,-33.539 860.088,-33.5389"/>
</g>
<!-- Node18 -->
<g id="node18" class="node"><title>Node18</title>
<polygon fill="white" stroke="#bfbfbf" points="933.918,-5.5 933.918,-23.5 963.258,-23.5 963.258,-5.5 933.918,-5.5"/>
<text text-anchor="middle" x="948.588" y="-11.5" font-family="Helvetica,sans-Serif" font-size="10.00">set</text>
</g>
<!-- Node17&#45;&gt;Node18 -->
<g id="edge22" class="edge"><title>Node17&#45;&gt;Node18</title>
<path fill="none" stroke="midnightblue" d="M868.616,-70.2639C883.782,-59.8779 910.082,-41.8686 928.362,-29.3504"/>
<polygon fill="midnightblue" stroke="midnightblue" points="930.576,-32.0769 936.849,-23.539 926.62,-26.3013 930.576,-32.0769"/>
</g>
<!-- Node19&#45;&gt;Node13 -->
<g id="edge29" class="edge"><title>Node19&#45;&gt;Node13</title>
<path fill="none" stroke="midnightblue" d="M988.749,-185.357C982.658,-159.711 966.25,-102.254 934.588,-65 920.783,-48.7566 900.287,-36.0368 883.77,-27.5603"/>
<polygon fill="midnightblue" stroke="midnightblue" points="885.105,-24.3173 874.585,-23.0653 882.028,-30.6048 885.105,-24.3173"/>
</g>
<!-- Node19&#45;&gt;Node18 -->
<g id="edge30" class="edge"><title>Node19&#45;&gt;Node18</title>
<path fill="none" stroke="midnightblue" d="M990.071,-185.43C987.088,-161.313 979.68,-108.322 967.588,-65 964.568,-54.1777 960.108,-42.4221 956.268,-33.0837"/>
<polygon fill="midnightblue" stroke="midnightblue" points="959.434,-31.5844 952.306,-23.7459 952.99,-34.3186 959.434,-31.5844"/>
</g>
<!-- Node20 -->
<g id="node20" class="node"><title>Node20</title>
<g id="a_node20"><a xlink:href="xmm_phrase_8hpp.html" target="_top" xlink:title="xmmPhrase.hpp">
<polygon fill="white" stroke="black" points="704.185,-130.5 704.185,-148.5 792.992,-148.5 792.992,-130.5 704.185,-130.5"/>
<text text-anchor="middle" x="748.588" y="-136.5" font-family="Helvetica,sans-Serif" font-size="10.00">xmmPhrase.hpp</text>
</a>
</g>
</g>
<!-- Node19&#45;&gt;Node20 -->
<g id="edge24" class="edge"><title>Node19&#45;&gt;Node20</title>
<path fill="none" stroke="midnightblue" d="M937.054,-185.484C893.324,-175.046 832.762,-160.591 792.208,-150.911"/>
<polygon fill="midnightblue" stroke="midnightblue" points="792.891,-147.476 782.352,-148.559 791.266,-154.285 792.891,-147.476"/>
</g>
<!-- Node20&#45;&gt;Node4 -->
<g id="edge25" class="edge"><title>Node20&#45;&gt;Node4</title>
<path fill="none" stroke="midnightblue" d="M727.732,-130.435C702.129,-120.536 658.502,-103.666 629.122,-92.3064"/>
<polygon fill="midnightblue" stroke="midnightblue" points="630.341,-89.0252 619.752,-88.6831 627.816,-95.5541 630.341,-89.0252"/>
</g>
<!-- Node20&#45;&gt;Node10 -->
<g id="edge27" class="edge"><title>Node20&#45;&gt;Node10</title>
<path fill="none" stroke="midnightblue" d="M703.95,-136.586C608.016,-132.124 375.184,-119.427 181.588,-94 173.861,-92.9851 165.712,-91.6964 157.77,-90.32"/>
<polygon fill="midnightblue" stroke="midnightblue" points="158.331,-86.8648 147.87,-88.5435 157.094,-93.7547 158.331,-86.8648"/>
</g>
<!-- Node20&#45;&gt;Node17 -->
<g id="edge26" class="edge"><title>Node20&#45;&gt;Node17</title>
<path fill="none" stroke="midnightblue" d="M763.605,-130.435C781.398,-120.88 811.281,-104.832 832.36,-93.5113"/>
<polygon fill="midnightblue" stroke="midnightblue" points="834.197,-96.4979 841.351,-88.6831 830.885,-90.331 834.197,-96.4979"/>
</g>
<!-- Node21 -->
<g id="node21" class="node"><title>Node21</title>
<polygon fill="white" stroke="#bfbfbf" points="726.973,-70.5 726.973,-88.5 770.204,-88.5 770.204,-70.5 726.973,-70.5"/>
<text text-anchor="middle" x="748.588" y="-76.5" font-family="Helvetica,sans-Serif" font-size="10.00">cmath</text>
</g>
<!-- Node20&#45;&gt;Node21 -->
<g id="edge28" class="edge"><title>Node20&#45;&gt;Node21</title>
<path fill="none" stroke="midnightblue" d="M748.588,-130.435C748.588,-122.389 748.588,-109.739 748.588,-99.1846"/>
<polygon fill="midnightblue" stroke="midnightblue" points="752.088,-98.8717 748.588,-88.8718 745.088,-98.8718 752.088,-98.8717"/>
</g>
<!-- Node22&#45;&gt;Node17 -->
<g id="edge32" class="edge"><title>Node22&#45;&gt;Node17</title>
<path fill="none" stroke="midnightblue" d="M842.272,-250.389C844.536,-223.516 851.832,-136.94 855.045,-98.8152"/>
<polygon fill="midnightblue" stroke="midnightblue" points="858.549,-98.9171 855.901,-88.6585 851.573,-98.3292 858.549,-98.9171"/>
</g>
<!-- Node22&#45;&gt;Node19 -->
<g id="edge33" class="edge"><title>Node22&#45;&gt;Node19</title>
<path fill="none" stroke="midnightblue" d="M862.445,-250.435C884.552,-241.887 920.098,-228.143 948.306,-217.236"/>
<polygon fill="midnightblue" stroke="midnightblue" points="949.878,-220.381 957.943,-213.51 947.354,-213.852 949.878,-220.381"/>
</g>
<!-- Node22&#45;&gt;Node23 -->
<g id="edge34" class="edge"><title>Node22&#45;&gt;Node23</title>
<path fill="none" stroke="midnightblue" d="M827.267,-250.435C810.374,-240.923 782.054,-224.976 761.967,-213.665"/>
<polygon fill="midnightblue" stroke="midnightblue" points="763.551,-210.54 753.12,-208.683 760.117,-216.64 763.551,-210.54"/>
</g>
<!-- Node25&#45;&gt;Node3 -->
<g id="edge38" class="edge"><title>Node25&#45;&gt;Node3</title>
<path fill="none" stroke="midnightblue" d="M429.825,-310.355C433.019,-289.478 441.899,-232.363 450.588,-185 452.192,-176.259 454.129,-166.585 455.794,-158.496"/>
<polygon fill="midnightblue" stroke="midnightblue" points="459.225,-159.188 457.841,-148.685 452.373,-157.759 459.225,-159.188"/>
</g>
<!-- Node27 -->
<g id="node27" class="node"><title>Node27</title>
<g id="a_node27"><a xlink:href="xmm_model_results_8hpp.html" target="_top" xlink:title="../../core/model/xmmModel\lResults.hpp">
<polygon fill="white" stroke="black" points="190.682,-65.5 190.682,-93.5 324.495,-93.5 324.495,-65.5 190.682,-65.5"/>
<text text-anchor="start" x="198.682" y="-81.5" font-family="Helvetica,sans-Serif" font-size="10.00">../../core/model/xmmModel</text>
<text text-anchor="middle" x="257.588" y="-71.5" font-family="Helvetica,sans-Serif" font-size="10.00">Results.hpp</text>
</a>
</g>
</g>
<!-- Node26&#45;&gt;Node27 -->
<g id="edge40" class="edge"><title>Node26&#45;&gt;Node27</title>
<path fill="none" stroke="midnightblue" d="M270.141,-310.308C268.352,-277.563 261.678,-155.371 258.858,-103.751"/>
<polygon fill="midnightblue" stroke="midnightblue" points="262.344,-103.385 258.303,-93.591 255.354,-103.767 262.344,-103.385"/>
</g>
<!-- Node27&#45;&gt;Node8 -->
<g id="edge41" class="edge"><title>Node27&#45;&gt;Node8</title>
<path fill="none" stroke="midnightblue" d="M276.236,-65.4464C291.301,-54.9015 312.448,-40.0984 327.807,-29.3471"/>
<polygon fill="midnightblue" stroke="midnightblue" points="329.906,-32.15 336.091,-23.548 325.892,-26.4153 329.906,-32.15"/>
</g>
<!-- Node27&#45;&gt;Node9 -->
<g id="edge42" class="edge"><title>Node27&#45;&gt;Node9</title>
<path fill="none" stroke="midnightblue" d="M259.66,-65.4464C261.107,-56.3336 263.058,-44.0406 264.663,-33.9308"/>
<polygon fill="midnightblue" stroke="midnightblue" points="268.171,-34.1552 266.282,-23.7301 261.258,-33.0577 268.171,-34.1552"/>
</g>
</g>
</svg>
