<?xml version="1.0" encoding="UTF-8" standalone="no"?>
<!DOCTYPE svg PUBLIC "-//W3C//DTD SVG 1.1//EN"
 "http://www.w3.org/Graphics/SVG/1.1/DTD/svg11.dtd">
<!-- Generated by graphviz version 2.38.0 (20140413.2041)
 -->
<!-- Title: xmmGmm.cpp Pages: 1 -->
<svg width="1036pt" height="497pt"
 viewBox="0.00 0.00 1035.73 497.00" xmlns="http://www.w3.org/2000/svg" xmlns:xlink="http://www.w3.org/1999/xlink">
<g id="graph0" class="graph" transform="scale(1 1) rotate(0) translate(4 493)">
<title>xmmGmm.cpp</title>
<polygon fill="white" stroke="none" points="-4,4 -4,-493 1031.73,-493 1031.73,4 -4,4"/>
<!-- Node1 -->
<g id="node1" class="node"><title>Node1</title>
<polygon fill="#bfbfbf" stroke="black" points="475.227,-470.5 475.227,-488.5 556.227,-488.5 556.227,-470.5 475.227,-470.5"/>
<text text-anchor="middle" x="515.727" y="-476.5" font-family="Helvetica,sans-Serif" font-size="10.00">xmmGmm.cpp</text>
</g>
<!-- Node2 -->
<g id="node2" class="node"><title>Node2</title>
<g id="a_node2"><a xlink:href="xmm_gmm_8hpp.html" target="_top" xlink:title="xmmGmm.hpp">
<polygon fill="white" stroke="black" points="418.946,-415.5 418.946,-433.5 500.507,-433.5 500.507,-415.5 418.946,-415.5"/>
<text text-anchor="middle" x="459.727" y="-421.5" font-family="Helvetica,sans-Serif" font-size="10.00">xmmGmm.hpp</text>
</a>
</g>
</g>
<!-- Node1&#45;&gt;Node2 -->
<g id="edge1" class="edge"><title>Node1&#45;&gt;Node2</title>
<path fill="none" stroke="midnightblue" d="M506.977,-470.219C498.627,-462.316 485.85,-450.224 475.687,-440.606"/>
<polygon fill="midnightblue" stroke="midnightblue" points="477.901,-437.881 468.232,-433.55 473.089,-442.965 477.901,-437.881"/>
</g>
<!-- Node33 -->
<g id="node33" class="node"><title>Node33</title>
<g id="a_node33"><a xlink:href="xmm_k_means_8hpp.html" target="_top" xlink:title="../kmeans/xmmKMeans.hpp">
<polygon fill="white" stroke="black" points="523.759,-360.5 523.759,-378.5 663.694,-378.5 663.694,-360.5 523.759,-360.5"/>
<text text-anchor="middle" x="593.727" y="-366.5" font-family="Helvetica,sans-Serif" font-size="10.00">../kmeans/xmmKMeans.hpp</text>
</a>
</g>
</g>
<!-- Node1&#45;&gt;Node33 -->
<g id="edge54" class="edge"><title>Node1&#45;&gt;Node33</title>
<path fill="none" stroke="midnightblue" d="M521.589,-470.382C534.35,-452.713 564.858,-410.472 581.827,-386.976"/>
<polygon fill="midnightblue" stroke="midnightblue" points="584.778,-388.868 587.796,-378.712 579.104,-384.769 584.778,-388.868"/>
</g>
<!-- Node3 -->
<g id="node3" class="node"><title>Node3</title>
<g id="a_node3"><a xlink:href="xmm_gaussian_distribution_8hpp.html" target="_top" xlink:title="../../core/distributions\l/xmmGaussianDistribution.hpp">
<polygon fill="white" stroke="black" points="757.643,-120.5 757.643,-148.5 909.81,-148.5 909.81,-120.5 757.643,-120.5"/>
<text text-anchor="start" x="765.643" y="-136.5" font-family="Helvetica,sans-Serif" font-size="10.00">../../core/distributions</text>
<text text-anchor="middle" x="833.727" y="-126.5" font-family="Helvetica,sans-Serif" font-size="10.00">/xmmGaussianDistribution.hpp</text>
</a>
</g>
</g>
<!-- Node2&#45;&gt;Node3 -->
<g id="edge2" class="edge"><title>Node2&#45;&gt;Node3</title>
<path fill="none" stroke="midnightblue" d="M500.576,-420.069C630.813,-408.591 1027.73,-369.202 1027.73,-315.5 1027.73,-315.5 1027.73,-315.5 1027.73,-258.5 1027.73,-199.623 963.205,-167.747 908.581,-151.311"/>
<polygon fill="midnightblue" stroke="midnightblue" points="909.443,-147.917 898.865,-148.515 907.507,-154.644 909.443,-147.917"/>
</g>
<!-- Node13 -->
<g id="node13" class="node"><title>Node13</title>
<g id="a_node13"><a xlink:href="xmm_model_8hpp.html" target="_top" xlink:title="../../core/model/xmmModel.hpp">
<polygon fill="white" stroke="black" points="145.089,-360.5 145.089,-378.5 298.364,-378.5 298.364,-360.5 145.089,-360.5"/>
<text text-anchor="middle" x="221.727" y="-366.5" font-family="Helvetica,sans-Serif" font-size="10.00">../../core/model/xmmModel.hpp</text>
</a>
</g>
</g>
<!-- Node2&#45;&gt;Node13 -->
<g id="edge13" class="edge"><title>Node2&#45;&gt;Node13</title>
<path fill="none" stroke="midnightblue" d="M423.579,-415.45C381.871,-406.162 313.204,-390.871 267.723,-380.743"/>
<polygon fill="midnightblue" stroke="midnightblue" points="268.345,-377.296 257.823,-378.538 266.823,-384.128 268.345,-377.296"/>
</g>
<!-- Node31 -->
<g id="node31" class="node"><title>Node31</title>
<g id="a_node31"><a xlink:href="xmm_gmm_single_class_8hpp.html" target="_top" xlink:title="xmmGmmSingleClass.hpp">
<polygon fill="white" stroke="black" points="371.544,-360.5 371.544,-378.5 505.909,-378.5 505.909,-360.5 371.544,-360.5"/>
<text text-anchor="middle" x="438.727" y="-366.5" font-family="Helvetica,sans-Serif" font-size="10.00">xmmGmmSingleClass.hpp</text>
</a>
</g>
</g>
<!-- Node2&#45;&gt;Node31 -->
<g id="edge47" class="edge"><title>Node2&#45;&gt;Node31</title>
<path fill="none" stroke="midnightblue" d="M456.445,-415.219C453.562,-407.942 449.271,-397.113 445.635,-387.934"/>
<polygon fill="midnightblue" stroke="midnightblue" points="448.854,-386.557 441.916,-378.55 442.346,-389.136 448.854,-386.557"/>
</g>
<!-- Node4 -->
<g id="node4" class="node"><title>Node4</title>
<g id="a_node4"><a xlink:href="xmm_attribute_8hpp.html" target="_top" xlink:title="../common/xmmAttribute.hpp">
<polygon fill="white" stroke="black" points="563.815,-65.5 563.815,-83.5 707.638,-83.5 707.638,-65.5 563.815,-65.5"/>
<text text-anchor="middle" x="635.727" y="-71.5" font-family="Helvetica,sans-Serif" font-size="10.00">../common/xmmAttribute.hpp</text>
</a>
</g>
</g>
<!-- Node3&#45;&gt;Node4 -->
<g id="edge3" class="edge"><title>Node3&#45;&gt;Node4</title>
<path fill="none" stroke="midnightblue" d="M789.291,-120.484C754.263,-110.223 705.981,-96.0797 672.963,-86.4076"/>
<polygon fill="midnightblue" stroke="midnightblue" points="673.818,-83.0111 663.237,-83.5587 671.85,-89.7288 673.818,-83.0111"/>
</g>
<!-- Node10 -->
<g id="node10" class="node"><title>Node10</title>
<g id="a_node10"><a xlink:href="xmm_json_8hpp.html" target="_top" xlink:title="../common/xmmJson.hpp">
<polygon fill="white" stroke="black" points="767.875,-65.5 767.875,-83.5 895.579,-83.5 895.579,-65.5 767.875,-65.5"/>
<text text-anchor="middle" x="831.727" y="-71.5" font-family="Helvetica,sans-Serif" font-size="10.00">../common/xmmJson.hpp</text>
</a>
</g>
</g>
<!-- Node3&#45;&gt;Node10 -->
<g id="edge9" class="edge"><title>Node3&#45;&gt;Node10</title>
<path fill="none" stroke="midnightblue" d="M833.273,-120.339C833.003,-112.531 832.658,-102.512 832.362,-93.9265"/>
<polygon fill="midnightblue" stroke="midnightblue" points="835.854,-93.6449 832.012,-83.7715 828.859,-93.8862 835.854,-93.6449"/>
</g>
<!-- Node5 -->
<g id="node5" class="node"><title>Node5</title>
<polygon fill="white" stroke="#bfbfbf" points="406.323,-5.5 406.323,-23.5 465.13,-23.5 465.13,-5.5 406.323,-5.5"/>
<text text-anchor="middle" x="435.727" y="-11.5" font-family="Helvetica,sans-Serif" font-size="10.00">functional</text>
</g>
<!-- Node4&#45;&gt;Node5 -->
<g id="edge4" class="edge"><title>Node4&#45;&gt;Node5</title>
<path fill="none" stroke="midnightblue" d="M604.39,-65.4699C571.819,-56.9764 519.449,-42.9055 474.727,-29 472.475,-28.3 470.158,-27.5568 467.83,-26.7933"/>
<polygon fill="midnightblue" stroke="midnightblue" points="468.925,-23.4691 458.331,-23.5972 466.693,-30.1036 468.925,-23.4691"/>
</g>
<!-- Node6 -->
<g id="node6" class="node"><title>Node6</title>
<polygon fill="white" stroke="#bfbfbf" points="619.34,-5.5 619.34,-23.5 658.113,-23.5 658.113,-5.5 619.34,-5.5"/>
<text text-anchor="middle" x="638.727" y="-11.5" font-family="Helvetica,sans-Serif" font-size="10.00">limits</text>
</g>
<!-- Node4&#45;&gt;Node6 -->
<g id="edge5" class="edge"><title>Node4&#45;&gt;Node6</title>
<path fill="none" stroke="midnightblue" d="M636.144,-65.4353C636.56,-57.3891 637.214,-44.7388 637.76,-34.1846"/>
<polygon fill="midnightblue" stroke="midnightblue" points="641.272,-34.0392 638.294,-23.8718 634.282,-33.6776 641.272,-34.0392"/>
</g>
<!-- Node7 -->
<g id="node7" class="node"><title>Node7</title>
<polygon fill="white" stroke="#bfbfbf" points="483.325,-5.5 483.325,-23.5 542.128,-23.5 542.128,-5.5 483.325,-5.5"/>
<text text-anchor="middle" x="512.727" y="-11.5" font-family="Helvetica,sans-Serif" font-size="10.00">stdexcept</text>
</g>
<!-- Node4&#45;&gt;Node7 -->
<g id="edge6" class="edge"><title>Node4&#45;&gt;Node7</title>
<path fill="none" stroke="midnightblue" d="M618.624,-65.4353C598.086,-55.7508 563.404,-39.3966 539.352,-28.055"/>
<polygon fill="midnightblue" stroke="midnightblue" points="540.618,-24.7825 530.08,-23.6831 537.633,-31.1139 540.618,-24.7825"/>
</g>
<!-- Node8 -->
<g id="node8" class="node"><title>Node8</title>
<polygon fill="white" stroke="#bfbfbf" points="560.5,-5.5 560.5,-23.5 600.953,-23.5 600.953,-5.5 560.5,-5.5"/>
<text text-anchor="middle" x="580.727" y="-11.5" font-family="Helvetica,sans-Serif" font-size="10.00">string</text>
</g>
<!-- Node4&#45;&gt;Node8 -->
<g id="edge7" class="edge"><title>Node4&#45;&gt;Node8</title>
<path fill="none" stroke="midnightblue" d="M628.079,-65.4353C619.718,-56.6187 606.116,-42.2743 595.63,-31.2165"/>
<polygon fill="midnightblue" stroke="midnightblue" points="598.086,-28.7197 588.665,-23.8718 593.007,-33.5364 598.086,-28.7197"/>
</g>
<!-- Node9 -->
<g id="node9" class="node"><title>Node9</title>
<polygon fill="white" stroke="#bfbfbf" points="696.111,-5.5 696.111,-23.5 739.342,-23.5 739.342,-5.5 696.111,-5.5"/>
<text text-anchor="middle" x="717.727" y="-11.5" font-family="Helvetica,sans-Serif" font-size="10.00">vector</text>
</g>
<!-- Node4&#45;&gt;Node9 -->
<g id="edge8" class="edge"><title>Node4&#45;&gt;Node9</title>
<path fill="none" stroke="midnightblue" d="M647.128,-65.4353C660.151,-56.2243 681.704,-40.9797 697.576,-29.753"/>
<polygon fill="midnightblue" stroke="midnightblue" points="700.014,-32.3153 706.157,-23.6831 695.972,-26.6004 700.014,-32.3153"/>
</g>
<!-- Node10&#45;&gt;Node9 -->
<g id="edge12" class="edge"><title>Node10&#45;&gt;Node9</title>
<path fill="none" stroke="midnightblue" d="M815.875,-65.4353C797.009,-55.8369 765.266,-39.6868 743,-28.3586"/>
<polygon fill="midnightblue" stroke="midnightblue" points="744.311,-25.0983 733.811,-23.6831 741.136,-31.3372 744.311,-25.0983"/>
</g>
<!-- Node11 -->
<g id="node11" class="node"><title>Node11</title>
<polygon fill="white" stroke="#bfbfbf" points="770.138,-0.5 770.138,-28.5 887.315,-28.5 887.315,-0.5 770.138,-0.5"/>
<text text-anchor="start" x="778.138" y="-16.5" font-family="Helvetica,sans-Serif" font-size="10.00">../../../dependencies</text>
<text text-anchor="middle" x="828.727" y="-6.5" font-family="Helvetica,sans-Serif" font-size="10.00">/jsoncpp/include/json.h</text>
</g>
<!-- Node10&#45;&gt;Node11 -->
<g id="edge10" class="edge"><title>Node10&#45;&gt;Node11</title>
<path fill="none" stroke="midnightblue" d="M831.309,-65.4353C830.954,-58.5603 830.424,-48.3238 829.937,-38.9057"/>
<polygon fill="midnightblue" stroke="midnightblue" points="833.429,-38.6486 829.417,-28.8428 826.438,-39.0102 833.429,-38.6486"/>
</g>
<!-- Node12 -->
<g id="node12" class="node"><title>Node12</title>
<polygon fill="white" stroke="#bfbfbf" points="905.057,-5.5 905.057,-23.5 954.396,-23.5 954.396,-5.5 905.057,-5.5"/>
<text text-anchor="middle" x="929.727" y="-11.5" font-family="Helvetica,sans-Serif" font-size="10.00">fstream</text>
</g>
<!-- Node10&#45;&gt;Node12 -->
<g id="edge11" class="edge"><title>Node10&#45;&gt;Node12</title>
<path fill="none" stroke="midnightblue" d="M845.353,-65.4353C861.353,-55.9661 888.127,-40.1201 907.223,-28.8184"/>
<polygon fill="midnightblue" stroke="midnightblue" points="909.077,-31.7884 915.9,-23.6831 905.511,-25.7644 909.077,-31.7884"/>
</g>
<!-- Node14 -->
<g id="node14" class="node"><title>Node14</title>
<g id="a_node14"><a xlink:href="xmm_model_configuration_8hpp.html" target="_top" xlink:title="xmmModelConfiguration.hpp">
<polygon fill="white" stroke="black" points="357.806,-305.5 357.806,-323.5 501.647,-323.5 501.647,-305.5 357.806,-305.5"/>
<text text-anchor="middle" x="429.727" y="-311.5" font-family="Helvetica,sans-Serif" font-size="10.00">xmmModelConfiguration.hpp</text>
</a>
</g>
</g>
<!-- Node13&#45;&gt;Node14 -->
<g id="edge14" class="edge"><title>Node13&#45;&gt;Node14</title>
<path fill="none" stroke="midnightblue" d="M253.317,-360.45C289.386,-351.26 348.522,-336.192 388.269,-326.064"/>
<polygon fill="midnightblue" stroke="midnightblue" points="389.354,-329.399 398.18,-323.538 387.625,-322.616 389.354,-329.399"/>
</g>
<!-- Node17 -->
<g id="node17" class="node"><title>Node17</title>
<g id="a_node17"><a xlink:href="xmm_model_results_8hpp.html" target="_top" xlink:title="xmmModelResults.hpp">
<polygon fill="white" stroke="black" points="476.875,-250.5 476.875,-268.5 594.579,-268.5 594.579,-250.5 476.875,-250.5"/>
<text text-anchor="middle" x="535.727" y="-256.5" font-family="Helvetica,sans-Serif" font-size="10.00">xmmModelResults.hpp</text>
</a>
</g>
</g>
<!-- Node13&#45;&gt;Node17 -->
<g id="edge19" class="edge"><title>Node13&#45;&gt;Node17</title>
<path fill="none" stroke="midnightblue" d="M235.354,-360.366C258.118,-347.087 305.634,-320.663 348.727,-305 391.156,-289.577 440.963,-278.028 478.501,-270.565"/>
<polygon fill="midnightblue" stroke="midnightblue" points="479.601,-273.917 488.747,-268.569 478.262,-267.046 479.601,-273.917"/>
</g>
<!-- Node18 -->
<g id="node18" class="node"><title>Node18</title>
<g id="a_node18"><a xlink:href="xmm_model_single_class_8hpp.html" target="_top" xlink:title="xmmModelSingleClass.hpp">
<polygon fill="white" stroke="black" points="126.146,-305.5 126.146,-323.5 263.308,-323.5 263.308,-305.5 126.146,-305.5"/>
<text text-anchor="middle" x="194.727" y="-311.5" font-family="Helvetica,sans-Serif" font-size="10.00">xmmModelSingleClass.hpp</text>
</a>
</g>
</g>
<!-- Node13&#45;&gt;Node18 -->
<g id="edge22" class="edge"><title>Node13&#45;&gt;Node18</title>
<path fill="none" stroke="midnightblue" d="M217.508,-360.219C213.761,-352.864 208.165,-341.88 203.458,-332.639"/>
<polygon fill="midnightblue" stroke="midnightblue" points="206.485,-330.871 198.827,-323.55 200.248,-334.049 206.485,-330.871"/>
</g>
<!-- Node29 -->
<g id="node29" class="node"><title>Node29</title>
<polygon fill="white" stroke="#bfbfbf" points="0,-305.5 0,-323.5 45.4531,-323.5 45.4531,-305.5 0,-305.5"/>
<text text-anchor="middle" x="22.7266" y="-311.5" font-family="Helvetica,sans-Serif" font-size="10.00">atomic</text>
</g>
<!-- Node13&#45;&gt;Node29 -->
<g id="edge45" class="edge"><title>Node13&#45;&gt;Node29</title>
<path fill="none" stroke="midnightblue" d="M191.503,-360.45C154.829,-350.683 93.2299,-334.277 55.4606,-324.218"/>
<polygon fill="midnightblue" stroke="midnightblue" points="56.0441,-320.752 45.4801,-321.56 54.2425,-327.516 56.0441,-320.752"/>
</g>
<!-- Node30 -->
<g id="node30" class="node"><title>Node30</title>
<polygon fill="white" stroke="#bfbfbf" points="63.5493,-305.5 63.5493,-323.5 107.904,-323.5 107.904,-305.5 63.5493,-305.5"/>
<text text-anchor="middle" x="85.7266" y="-311.5" font-family="Helvetica,sans-Serif" font-size="10.00">thread</text>
</g>
<!-- Node13&#45;&gt;Node30 -->
<g id="edge46" class="edge"><title>Node13&#45;&gt;Node30</title>
<path fill="none" stroke="midnightblue" d="M201.071,-360.45C178.405,-351.617 141.806,-337.355 115.921,-327.267"/>
<polygon fill="midnightblue" stroke="midnightblue" points="117.165,-323.995 106.576,-323.625 114.623,-330.518 117.165,-323.995"/>
</g>
<!-- Node15 -->
<g id="node15" class="node"><title>Node15</title>
<g id="a_node15"><a xlink:href="xmm_model_parameters_8hpp.html" target="_top" xlink:title="xmmModelParameters.hpp">
<polygon fill="white" stroke="black" points="669.705,-250.5 669.705,-268.5 805.749,-268.5 805.749,-250.5 669.705,-250.5"/>
<text text-anchor="middle" x="737.727" y="-256.5" font-family="Helvetica,sans-Serif" font-size="10.00">xmmModelParameters.hpp</text>
</a>
</g>
</g>
<!-- Node14&#45;&gt;Node15 -->
<g id="edge15" class="edge"><title>Node14&#45;&gt;Node15</title>
<path fill="none" stroke="midnightblue" d="M476.505,-305.45C531.388,-296.006 622.341,-280.355 681.144,-270.237"/>
<polygon fill="midnightblue" stroke="midnightblue" points="681.752,-273.684 691.013,-268.538 680.565,-266.785 681.752,-273.684"/>
</g>
<!-- Node16 -->
<g id="node16" class="node"><title>Node16</title>
<polygon fill="white" stroke="#bfbfbf" points="196,-5.5 196,-23.5 231.453,-23.5 231.453,-5.5 196,-5.5"/>
<text text-anchor="middle" x="213.727" y="-11.5" font-family="Helvetica,sans-Serif" font-size="10.00">map</text>
</g>
<!-- Node14&#45;&gt;Node16 -->
<g id="edge18" class="edge"><title>Node14&#45;&gt;Node16</title>
<path fill="none" stroke="midnightblue" d="M427.884,-305.289C424.864,-292.795 418.136,-268.508 407.727,-250 405.99,-246.912 270.856,-84.2356 227.179,-31.683"/>
<polygon fill="midnightblue" stroke="midnightblue" points="229.644,-29.1734 220.56,-23.7202 224.261,-33.6478 229.644,-29.1734"/>
</g>
<!-- Node15&#45;&gt;Node4 -->
<g id="edge16" class="edge"><title>Node15&#45;&gt;Node4</title>
<path fill="none" stroke="midnightblue" d="M733.079,-250.161C717.48,-222.176 666.78,-131.214 645.388,-92.8344"/>
<polygon fill="midnightblue" stroke="midnightblue" points="648.327,-90.9184 640.402,-83.8876 642.213,-94.3265 648.327,-90.9184"/>
</g>
<!-- Node15&#45;&gt;Node10 -->
<g id="edge17" class="edge"><title>Node15&#45;&gt;Node10</title>
<path fill="none" stroke="midnightblue" d="M767.882,-250.394C810.39,-237.156 886.351,-206.426 918.727,-149 925.056,-137.773 925.452,-130.995 918.727,-120 909.106,-104.273 891.976,-93.879 875.445,-87.1247"/>
<polygon fill="midnightblue" stroke="midnightblue" points="876.436,-83.759 865.843,-83.5556 873.997,-90.3205 876.436,-83.759"/>
</g>
<!-- Node17&#45;&gt;Node8 -->
<g id="edge20" class="edge"><title>Node17&#45;&gt;Node8</title>
<path fill="none" stroke="midnightblue" d="M535.421,-250.172C534.654,-222.924 534.018,-134.204 554.727,-65 558.155,-53.5425 564.306,-41.6483 569.764,-32.3914"/>
<polygon fill="midnightblue" stroke="midnightblue" points="572.776,-34.1745 575.058,-23.8283 566.823,-30.4932 572.776,-34.1745"/>
</g>
<!-- Node17&#45;&gt;Node9 -->
<g id="edge21" class="edge"><title>Node17&#45;&gt;Node9</title>
<path fill="none" stroke="midnightblue" d="M549.912,-250.415C586.015,-228.913 681.043,-166.295 716.727,-84 723.671,-67.985 722.981,-47.8185 721.129,-33.5245"/>
<polygon fill="midnightblue" stroke="midnightblue" points="724.562,-32.8282 719.517,-23.5114 717.651,-33.9406 724.562,-32.8282"/>
</g>
<!-- Node19 -->
<g id="node19" class="node"><title>Node19</title>
<g id="a_node19"><a xlink:href="xmm_circularbuffer_8hpp.html" target="_top" xlink:title="../common/xmmCircularbuffer.hpp">
<polygon fill="white" stroke="black" points="279.788,-65.5 279.788,-83.5 445.666,-83.5 445.666,-65.5 279.788,-65.5"/>
<text text-anchor="middle" x="362.727" y="-71.5" font-family="Helvetica,sans-Serif" font-size="10.00">../common/xmmCircularbuffer.hpp</text>
</a>
</g>
</g>
<!-- Node18&#45;&gt;Node19 -->
<g id="edge23" class="edge"><title>Node18&#45;&gt;Node19</title>
<path fill="none" stroke="midnightblue" d="M218.93,-305.474C237.141,-298.371 261.631,-286.407 277.727,-269 326.715,-216.021 350.598,-130.251 359.039,-93.3325"/>
<polygon fill="midnightblue" stroke="midnightblue" points="362.465,-94.0498 361.173,-83.534 355.625,-92.5599 362.465,-94.0498"/>
</g>
<!-- Node21 -->
<g id="node21" class="node"><title>Node21</title>
<g id="a_node21"><a xlink:href="xmm_events_8hpp.html" target="_top" xlink:title="../common/xmmEvents.hpp">
<polygon fill="white" stroke="black" points="48.1504,-65.5 48.1504,-83.5 185.303,-83.5 185.303,-65.5 48.1504,-65.5"/>
<text text-anchor="middle" x="116.727" y="-71.5" font-family="Helvetica,sans-Serif" font-size="10.00">../common/xmmEvents.hpp</text>
</a>
</g>
</g>
<!-- Node18&#45;&gt;Node21 -->
<g id="edge27" class="edge"><title>Node18&#45;&gt;Node21</title>
<path fill="none" stroke="midnightblue" d="M141.63,-305.489C115.617,-299.254 85.3266,-288.266 63.7266,-269 43.5484,-251.003 43.6481,-240.382 37.7266,-214 26.5669,-164.281 72.3022,-114.453 98.8813,-90.38"/>
<polygon fill="midnightblue" stroke="midnightblue" points="101.521,-92.7211 106.741,-83.5017 96.911,-87.4533 101.521,-92.7211"/>
</g>
<!-- Node23 -->
<g id="node23" class="node"><title>Node23</title>
<g id="a_node23"><a xlink:href="xmm_training_set_8hpp.html" target="_top" xlink:title="../trainingset/xmmTraining\lSet.hpp">
<polygon fill="white" stroke="black" points="146.39,-185.5 146.39,-213.5 277.063,-213.5 277.063,-185.5 146.39,-185.5"/>
<text text-anchor="start" x="154.39" y="-201.5" font-family="Helvetica,sans-Serif" font-size="10.00">../trainingset/xmmTraining</text>
<text text-anchor="middle" x="211.727" y="-191.5" font-family="Helvetica,sans-Serif" font-size="10.00">Set.hpp</text>
</a>
</g>
</g>
<!-- Node18&#45;&gt;Node23 -->
<g id="edge31" class="edge"><title>Node18&#45;&gt;Node23</title>
<path fill="none" stroke="midnightblue" d="M216.849,-305.429C232.489,-298.42 252.289,-286.597 261.727,-269 271.148,-251.432 256.617,-233.285 240.835,-220.087"/>
<polygon fill="midnightblue" stroke="midnightblue" points="242.628,-217.047 232.588,-213.665 238.327,-222.57 242.628,-217.047"/>
</g>
<!-- Node26 -->
<g id="node26" class="node"><title>Node26</title>
<g id="a_node26"><a xlink:href="xmm_model_shared_parameters_8hpp.html" target="_top" xlink:title="xmmModelSharedParameters.hpp">
<polygon fill="white" stroke="black" points="84.5815,-250.5 84.5815,-268.5 252.872,-268.5 252.872,-250.5 84.5815,-250.5"/>
<text text-anchor="middle" x="168.727" y="-256.5" font-family="Helvetica,sans-Serif" font-size="10.00">xmmModelSharedParameters.hpp</text>
</a>
</g>
</g>
<!-- Node18&#45;&gt;Node26 -->
<g id="edge39" class="edge"><title>Node18&#45;&gt;Node26</title>
<path fill="none" stroke="midnightblue" d="M190.664,-305.219C187.056,-297.864 181.668,-286.88 177.134,-277.639"/>
<polygon fill="midnightblue" stroke="midnightblue" points="180.222,-275.986 172.675,-268.55 173.937,-279.069 180.222,-275.986"/>
</g>
<!-- Node27 -->
<g id="node27" class="node"><title>Node27</title>
<polygon fill="white" stroke="#bfbfbf" points="47.1108,-190.5 47.1108,-208.5 90.3423,-208.5 90.3423,-190.5 47.1108,-190.5"/>
<text text-anchor="middle" x="68.7266" y="-196.5" font-family="Helvetica,sans-Serif" font-size="10.00">mutex</text>
</g>
<!-- Node18&#45;&gt;Node27 -->
<g id="edge44" class="edge"><title>Node18&#45;&gt;Node27</title>
<path fill="none" stroke="midnightblue" d="M137.842,-305.496C115.047,-299.321 90.6872,-288.381 75.7266,-269 64.7832,-254.823 64.2508,-233.78 65.692,-218.762"/>
<polygon fill="midnightblue" stroke="midnightblue" points="69.1857,-219.041 67.039,-208.666 62.2472,-218.115 69.1857,-219.041"/>
</g>
<!-- Node28 -->
<g id="node28" class="node"><title>Node28</title>
<polygon fill="white" stroke="#bfbfbf" points="346.67,-250.5 346.67,-268.5 398.783,-268.5 398.783,-250.5 346.67,-250.5"/>
<text text-anchor="middle" x="372.727" y="-256.5" font-family="Helvetica,sans-Serif" font-size="10.00">memory</text>
</g>
<!-- Node18&#45;&gt;Node28 -->
<g id="edge43" class="edge"><title>Node18&#45;&gt;Node28</title>
<path fill="none" stroke="midnightblue" d="M221.761,-305.45C252.433,-296.318 302.598,-281.381 336.604,-271.256"/>
<polygon fill="midnightblue" stroke="midnightblue" points="338.014,-274.488 346.599,-268.279 336.016,-267.779 338.014,-274.488"/>
</g>
<!-- Node19&#45;&gt;Node7 -->
<g id="edge25" class="edge"><title>Node19&#45;&gt;Node7</title>
<path fill="none" stroke="midnightblue" d="M383.583,-65.4353C409.186,-55.5356 452.813,-38.6664 482.193,-27.3064"/>
<polygon fill="midnightblue" stroke="midnightblue" points="483.499,-30.5541 491.563,-23.6831 480.974,-24.0252 483.499,-30.5541"/>
</g>
<!-- Node19&#45;&gt;Node9 -->
<g id="edge26" class="edge"><title>Node19&#45;&gt;Node9</title>
<path fill="none" stroke="midnightblue" d="M433.152,-65.4906C495.02,-57.9083 587.299,-45.2712 666.727,-29 673.086,-27.6972 679.833,-26.0811 686.266,-24.4249"/>
<polygon fill="midnightblue" stroke="midnightblue" points="687.253,-27.7842 696.015,-21.8287 685.451,-21.0199 687.253,-27.7842"/>
</g>
<!-- Node20 -->
<g id="node20" class="node"><title>Node20</title>
<polygon fill="white" stroke="#bfbfbf" points="329.323,-5.5 329.323,-23.5 388.13,-23.5 388.13,-5.5 329.323,-5.5"/>
<text text-anchor="middle" x="358.727" y="-11.5" font-family="Helvetica,sans-Serif" font-size="10.00">exception</text>
</g>
<!-- Node19&#45;&gt;Node20 -->
<g id="edge24" class="edge"><title>Node19&#45;&gt;Node20</title>
<path fill="none" stroke="midnightblue" d="M362.17,-65.4353C361.61,-57.3035 360.724,-44.4692 359.992,-33.8485"/>
<polygon fill="midnightblue" stroke="midnightblue" points="363.484,-33.6072 359.304,-23.8718 356.5,-34.0889 363.484,-33.6072"/>
</g>
<!-- Node21&#45;&gt;Node5 -->
<g id="edge28" class="edge"><title>Node21&#45;&gt;Node5</title>
<path fill="none" stroke="midnightblue" d="M185.585,-65.98C242.683,-58.9299 325.704,-46.7895 396.727,-29 399.372,-28.3374 402.093,-27.5734 404.808,-26.7527"/>
<polygon fill="midnightblue" stroke="midnightblue" points="406.045,-30.0312 414.474,-23.613 403.882,-23.3736 406.045,-30.0312"/>
</g>
<!-- Node21&#45;&gt;Node16 -->
<g id="edge29" class="edge"><title>Node21&#45;&gt;Node16</title>
<path fill="none" stroke="midnightblue" d="M130.214,-65.4353C146.051,-55.9661 172.552,-40.1201 191.453,-28.8184"/>
<polygon fill="midnightblue" stroke="midnightblue" points="193.254,-31.8191 200.041,-23.6831 189.662,-25.8112 193.254,-31.8191"/>
</g>
<!-- Node22 -->
<g id="node22" class="node"><title>Node22</title>
<polygon fill="white" stroke="#bfbfbf" points="35.0566,-5.5 35.0566,-23.5 64.3965,-23.5 64.3965,-5.5 35.0566,-5.5"/>
<text text-anchor="middle" x="49.7266" y="-11.5" font-family="Helvetica,sans-Serif" font-size="10.00">set</text>
</g>
<!-- Node21&#45;&gt;Node22 -->
<g id="edge30" class="edge"><title>Node21&#45;&gt;Node22</title>
<path fill="none" stroke="midnightblue" d="M107.41,-65.4353C97.028,-56.4475 80.0095,-41.7151 67.1422,-30.5762"/>
<polygon fill="midnightblue" stroke="midnightblue" points="69.2488,-27.7706 59.3974,-23.8718 64.6673,-33.063 69.2488,-27.7706"/>
</g>
<!-- Node23&#45;&gt;Node16 -->
<g id="edge37" class="edge"><title>Node23&#45;&gt;Node16</title>
<path fill="none" stroke="midnightblue" d="M211.87,-185.339C212.221,-153.245 213.121,-70.8846 213.525,-33.9295"/>
<polygon fill="midnightblue" stroke="midnightblue" points="217.028,-33.6854 213.638,-23.6478 210.028,-33.6089 217.028,-33.6854"/>
</g>
<!-- Node23&#45;&gt;Node22 -->
<g id="edge38" class="edge"><title>Node23&#45;&gt;Node22</title>
<path fill="none" stroke="midnightblue" d="M172.73,-185.375C130.979,-168.979 66.9411,-136.508 38.7266,-84 30.1936,-68.1198 35.3983,-47.3937 41.1939,-32.9162"/>
<polygon fill="midnightblue" stroke="midnightblue" points="44.4554,-34.196 45.3304,-23.6374 38.0619,-31.3458 44.4554,-34.196"/>
</g>
<!-- Node24 -->
<g id="node24" class="node"><title>Node24</title>
<g id="a_node24"><a xlink:href="xmm_phrase_8hpp.html" target="_top" xlink:title="xmmPhrase.hpp">
<polygon fill="white" stroke="black" points="419.323,-125.5 419.323,-143.5 508.13,-143.5 508.13,-125.5 419.323,-125.5"/>
<text text-anchor="middle" x="463.727" y="-131.5" font-family="Helvetica,sans-Serif" font-size="10.00">xmmPhrase.hpp</text>
</a>
</g>
</g>
<!-- Node23&#45;&gt;Node24 -->
<g id="edge32" class="edge"><title>Node23&#45;&gt;Node24</title>
<path fill="none" stroke="midnightblue" d="M263.941,-185.446C310.654,-173.768 378.258,-156.867 421.601,-146.031"/>
<polygon fill="midnightblue" stroke="midnightblue" points="422.682,-149.369 431.535,-143.548 420.984,-142.578 422.682,-149.369"/>
</g>
<!-- Node24&#45;&gt;Node4 -->
<g id="edge33" class="edge"><title>Node24&#45;&gt;Node4</title>
<path fill="none" stroke="midnightblue" d="M487.642,-125.435C517.339,-115.421 568.184,-98.276 601.875,-86.9152"/>
<polygon fill="midnightblue" stroke="midnightblue" points="603.38,-90.1013 611.737,-83.5894 601.143,-83.4683 603.38,-90.1013"/>
</g>
<!-- Node24&#45;&gt;Node10 -->
<g id="edge35" class="edge"><title>Node24&#45;&gt;Node10</title>
<path fill="none" stroke="midnightblue" d="M508.483,-126.446C574.159,-116.095 696.835,-96.7601 770.715,-85.116"/>
<polygon fill="midnightblue" stroke="midnightblue" points="771.471,-88.54 780.805,-83.5257 770.382,-81.6254 771.471,-88.54"/>
</g>
<!-- Node24&#45;&gt;Node21 -->
<g id="edge34" class="edge"><title>Node24&#45;&gt;Node21</title>
<path fill="none" stroke="midnightblue" d="M419.073,-126.036C356.829,-115.632 243.901,-96.7568 175.067,-85.2515"/>
<polygon fill="midnightblue" stroke="midnightblue" points="175.268,-81.7366 164.828,-83.54 174.114,-88.6408 175.268,-81.7366"/>
</g>
<!-- Node25 -->
<g id="node25" class="node"><title>Node25</title>
<polygon fill="white" stroke="#bfbfbf" points="464.111,-65.5 464.111,-83.5 507.342,-83.5 507.342,-65.5 464.111,-65.5"/>
<text text-anchor="middle" x="485.727" y="-71.5" font-family="Helvetica,sans-Serif" font-size="10.00">cmath</text>
</g>
<!-- Node24&#45;&gt;Node25 -->
<g id="edge36" class="edge"><title>Node24&#45;&gt;Node25</title>
<path fill="none" stroke="midnightblue" d="M466.786,-125.435C469.903,-117.218 474.841,-104.198 478.894,-93.5138"/>
<polygon fill="midnightblue" stroke="midnightblue" points="482.277,-94.463 482.551,-83.8718 475.732,-91.9804 482.277,-94.463"/>
</g>
<!-- Node26&#45;&gt;Node21 -->
<g id="edge40" class="edge"><title>Node26&#45;&gt;Node21</title>
<path fill="none" stroke="midnightblue" d="M161.272,-250.323C154.021,-241.878 143.307,-227.993 137.727,-214 121.482,-173.267 117.703,-121.202 116.888,-93.9776"/>
<polygon fill="midnightblue" stroke="midnightblue" points="120.381,-93.5717 116.691,-83.6405 113.383,-93.7056 120.381,-93.5717"/>
</g>
<!-- Node26&#45;&gt;Node23 -->
<g id="edge41" class="edge"><title>Node26&#45;&gt;Node23</title>
<path fill="none" stroke="midnightblue" d="M174.706,-250.435C180.131,-243.117 188.381,-231.989 195.717,-222.094"/>
<polygon fill="midnightblue" stroke="midnightblue" points="198.69,-223.96 201.835,-213.843 193.067,-219.791 198.69,-223.96"/>
</g>
<!-- Node26&#45;&gt;Node27 -->
<g id="edge42" class="edge"><title>Node26&#45;&gt;Node27</title>
<path fill="none" stroke="midnightblue" d="M154.822,-250.435C138.496,-240.966 111.175,-225.12 91.6893,-213.818"/>
<polygon fill="midnightblue" stroke="midnightblue" points="93.2418,-210.673 82.8354,-208.683 89.7297,-216.728 93.2418,-210.673"/>
</g>
<!-- Node31&#45;&gt;Node17 -->
<g id="edge48" class="edge"><title>Node31&#45;&gt;Node17</title>
<path fill="none" stroke="midnightblue" d="M458.588,-360.482C474.599,-353.119 496.686,-340.801 510.727,-324 521.648,-310.931 528.187,-292.517 531.821,-278.882"/>
<polygon fill="midnightblue" stroke="midnightblue" points="535.317,-279.312 534.224,-268.774 528.506,-277.694 535.317,-279.312"/>
</g>
<!-- Node31&#45;&gt;Node18 -->
<g id="edge49" class="edge"><title>Node31&#45;&gt;Node18</title>
<path fill="none" stroke="midnightblue" d="M401.668,-360.45C358.818,-351.143 288.214,-335.807 241.589,-325.679"/>
<polygon fill="midnightblue" stroke="midnightblue" points="242.248,-322.241 231.733,-323.538 240.762,-329.081 242.248,-322.241"/>
</g>
<!-- Node31&#45;&gt;Node28 -->
<g id="edge53" class="edge"><title>Node31&#45;&gt;Node28</title>
<path fill="none" stroke="midnightblue" d="M402.556,-360.465C382.999,-354.078 360.499,-342.953 348.727,-324 339.531,-309.196 348.967,-290.307 358.578,-276.992"/>
<polygon fill="midnightblue" stroke="midnightblue" points="361.603,-278.807 365.033,-268.783 356.1,-274.48 361.603,-278.807"/>
</g>
<!-- Node32 -->
<g id="node32" class="node"><title>Node32</title>
<g id="a_node32"><a xlink:href="xmm_gmm_parameters_8hpp.html" target="_top" xlink:title="xmmGmmParameters.hpp">
<polygon fill="white" stroke="black" points="703.104,-305.5 703.104,-323.5 836.35,-323.5 836.35,-305.5 703.104,-305.5"/>
<text text-anchor="middle" x="769.727" y="-311.5" font-family="Helvetica,sans-Serif" font-size="10.00">xmmGmmParameters.hpp</text>
</a>
</g>
</g>
<!-- Node31&#45;&gt;Node32 -->
<g id="edge50" class="edge"><title>Node31&#45;&gt;Node32</title>
<path fill="none" stroke="midnightblue" d="M488.998,-360.45C548.102,-350.987 646.129,-335.291 709.31,-325.174"/>
<polygon fill="midnightblue" stroke="midnightblue" points="710.204,-328.575 719.525,-323.538 709.097,-321.663 710.204,-328.575"/>
</g>
<!-- Node32&#45;&gt;Node3 -->
<g id="edge51" class="edge"><title>Node32&#45;&gt;Node3</title>
<path fill="none" stroke="midnightblue" d="M781.435,-305.443C791.998,-297.486 807.022,-284.311 814.727,-269 832.483,-233.71 835.086,-186.937 834.798,-159.153"/>
<polygon fill="midnightblue" stroke="midnightblue" points="838.289,-158.743 834.546,-148.831 831.291,-158.913 838.289,-158.743"/>
</g>
<!-- Node32&#45;&gt;Node15 -->
<g id="edge52" class="edge"><title>Node32&#45;&gt;Node15</title>
<path fill="none" stroke="midnightblue" d="M764.727,-305.219C760.239,-297.786 753.513,-286.646 747.897,-277.345"/>
<polygon fill="midnightblue" stroke="midnightblue" points="750.752,-275.301 742.587,-268.55 744.759,-278.919 750.752,-275.301"/>
</g>
<!-- Node33&#45;&gt;Node14 -->
<g id="edge55" class="edge"><title>Node33&#45;&gt;Node14</title>
<path fill="none" stroke="midnightblue" d="M568.818,-360.45C540.923,-351.436 495.529,-336.765 464.227,-326.65"/>
<polygon fill="midnightblue" stroke="midnightblue" points="465.192,-323.283 454.6,-323.538 463.039,-329.944 465.192,-323.283"/>
</g>
<!-- Node33&#45;&gt;Node18 -->
<g id="edge56" class="edge"><title>Node33&#45;&gt;Node18</title>
<path fill="none" stroke="midnightblue" d="M533.127,-360.45C461.147,-350.889 341.275,-334.966 265.213,-324.863"/>
<polygon fill="midnightblue" stroke="midnightblue" points="265.615,-321.386 255.241,-323.538 264.693,-328.325 265.615,-321.386"/>
</g>
<!-- Node34 -->
<g id="node34" class="node"><title>Node34</title>
<g id="a_node34"><a xlink:href="xmm_k_means_parameters_8hpp.html" target="_top" xlink:title="xmmKMeansParameters.hpp">
<polygon fill="white" stroke="black" points="853.98,-305.5 853.98,-323.5 999.473,-323.5 999.473,-305.5 853.98,-305.5"/>
<text text-anchor="middle" x="926.727" y="-311.5" font-family="Helvetica,sans-Serif" font-size="10.00">xmmKMeansParameters.hpp</text>
</a>
</g>
</g>
<!-- Node33&#45;&gt;Node34 -->
<g id="edge57" class="edge"><title>Node33&#45;&gt;Node34</title>
<path fill="none" stroke="midnightblue" d="M644.302,-360.45C703.885,-350.967 802.789,-335.226 866.338,-325.111"/>
<polygon fill="midnightblue" stroke="midnightblue" points="866.896,-328.567 876.222,-323.538 865.796,-321.654 866.896,-328.567"/>
</g>
<!-- Node35 -->
<g id="node35" class="node"><title>Node35</title>
<g id="a_node35"><a xlink:href="xmm_k_means_results_8hpp.html" target="_top" xlink:title="xmmKMeansResults.hpp">
<polygon fill="white" stroke="black" points="558.15,-305.5 558.15,-323.5 685.303,-323.5 685.303,-305.5 558.15,-305.5"/>
<text text-anchor="middle" x="621.727" y="-311.5" font-family="Helvetica,sans-Serif" font-size="10.00">xmmKMeansResults.hpp</text>
</a>
</g>
</g>
<!-- Node33&#45;&gt;Node35 -->
<g id="edge59" class="edge"><title>Node33&#45;&gt;Node35</title>
<path fill="none" stroke="midnightblue" d="M598.102,-360.219C601.987,-352.864 607.79,-341.88 612.672,-332.639"/>
<polygon fill="midnightblue" stroke="midnightblue" points="615.897,-334.026 617.474,-323.55 609.708,-330.757 615.897,-334.026"/>
</g>
<!-- Node34&#45;&gt;Node15 -->
<g id="edge58" class="edge"><title>Node34&#45;&gt;Node15</title>
<path fill="none" stroke="midnightblue" d="M898.022,-305.45C865.456,-296.318 812.197,-281.383 776.089,-271.258"/>
<polygon fill="midnightblue" stroke="midnightblue" points="776.965,-267.868 766.391,-268.538 775.075,-274.608 776.965,-267.868"/>
</g>
<!-- Node35&#45;&gt;Node17 -->
<g id="edge60" class="edge"><title>Node35&#45;&gt;Node17</title>
<path fill="none" stroke="midnightblue" d="M608.665,-305.45C595.153,-297.123 573.811,-283.97 557.696,-274.039"/>
<polygon fill="midnightblue" stroke="midnightblue" points="559.261,-270.892 548.911,-268.625 555.588,-276.851 559.261,-270.892"/>
</g>
</g>
</svg>
