<?xml version="1.0" encoding="UTF-8" standalone="no"?>
<!DOCTYPE svg PUBLIC "-//W3C//DTD SVG 1.1//EN"
 "http://www.w3.org/Graphics/SVG/1.1/DTD/svg11.dtd">
<!-- Generated by graphviz version 2.38.0 (20140413.2041)
 -->
<!-- Title: xmmModelParameters.hpp Pages: 1 -->
<svg width="859pt" height="302pt"
 viewBox="0.00 0.00 858.81 302.00" xmlns="http://www.w3.org/2000/svg" xmlns:xlink="http://www.w3.org/1999/xlink">
<g id="graph0" class="graph" transform="scale(1 1) rotate(0) translate(4 298)">
<title>xmmModelParameters.hpp</title>
<polygon fill="white" stroke="none" points="-4,4 -4,-298 854.808,-298 854.808,4 -4,4"/>
<!-- Node1 -->
<g id="node1" class="node"><title>Node1</title>
<polygon fill="#bfbfbf" stroke="black" points="372.32,-275.5 372.32,-293.5 508.364,-293.5 508.364,-275.5 372.32,-275.5"/>
<text text-anchor="middle" x="440.342" y="-281.5" font-family="Helvetica,sans-Serif" font-size="10.00">xmmModelParameters.hpp</text>
</g>
<!-- Node2 -->
<g id="node2" class="node"><title>Node2</title>
<g id="a_node2"><a xlink:href="xmm_model_configuration_8hpp.html" target="_top" xlink:title="xmmModelConfiguration.hpp">
<polygon fill="white" stroke="black" points="290.421,-220.5 290.421,-238.5 434.263,-238.5 434.263,-220.5 290.421,-220.5"/>
<text text-anchor="middle" x="362.342" y="-226.5" font-family="Helvetica,sans-Serif" font-size="10.00">xmmModelConfiguration.hpp</text>
</a>
</g>
</g>
<!-- Node1&#45;&gt;Node2 -->
<g id="edge1" class="edge"><title>Node1&#45;&gt;Node2</title>
<path fill="none" stroke="midnightblue" d="M420.139,-269.772C405.601,-259.894 386.483,-246.904 374.3,-238.625"/>
<polygon fill="midnightblue" stroke="midnightblue" points="418.257,-272.725 428.496,-275.45 422.192,-266.935 418.257,-272.725"/>
</g>
<!-- Node12 -->
<g id="node12" class="node"><title>Node12</title>
<g id="a_node12"><a xlink:href="xmm_gmm_parameters_8hpp.html" target="_top" xlink:title="xmmGmmParameters.hpp">
<polygon fill="white" stroke="black" points="138.719,-220.5 138.719,-238.5 271.965,-238.5 271.965,-220.5 138.719,-220.5"/>
<text text-anchor="middle" x="205.342" y="-226.5" font-family="Helvetica,sans-Serif" font-size="10.00">xmmGmmParameters.hpp</text>
</a>
</g>
</g>
<!-- Node1&#45;&gt;Node12 -->
<g id="edge14" class="edge"><title>Node1&#45;&gt;Node12</title>
<path fill="none" stroke="midnightblue" d="M394.871,-273.245C349.945,-263.113 282.145,-247.822 240.984,-238.538"/>
<polygon fill="midnightblue" stroke="midnightblue" points="394.126,-276.665 404.651,-275.45 395.666,-269.836 394.126,-276.665"/>
</g>
<!-- Node17 -->
<g id="node17" class="node"><title>Node17</title>
<g id="a_node17"><a xlink:href="xmm_hmm_parameters_8hpp.html" target="_top" xlink:title="xmmHmmParameters.hpp">
<polygon fill="white" stroke="black" points="451.998,-220.5 451.998,-238.5 584.687,-238.5 584.687,-220.5 451.998,-220.5"/>
<text text-anchor="middle" x="518.342" y="-226.5" font-family="Helvetica,sans-Serif" font-size="10.00">xmmHmmParameters.hpp</text>
</a>
</g>
</g>
<!-- Node1&#45;&gt;Node17 -->
<g id="edge22" class="edge"><title>Node1&#45;&gt;Node17</title>
<path fill="none" stroke="midnightblue" d="M460.546,-269.772C475.084,-259.894 494.201,-246.904 506.384,-238.625"/>
<polygon fill="midnightblue" stroke="midnightblue" points="458.493,-266.935 452.189,-275.45 462.427,-272.725 458.493,-266.935"/>
</g>
<!-- Node19 -->
<g id="node19" class="node"><title>Node19</title>
<g id="a_node19"><a xlink:href="xmm_k_means_parameters_8hpp.html" target="_top" xlink:title="xmmKMeansParameters.hpp">
<polygon fill="white" stroke="black" points="602.596,-220.5 602.596,-238.5 748.088,-238.5 748.088,-220.5 602.596,-220.5"/>
<text text-anchor="middle" x="675.342" y="-226.5" font-family="Helvetica,sans-Serif" font-size="10.00">xmmKMeansParameters.hpp</text>
</a>
</g>
</g>
<!-- Node1&#45;&gt;Node19 -->
<g id="edge25" class="edge"><title>Node1&#45;&gt;Node19</title>
<path fill="none" stroke="midnightblue" d="M485.813,-273.245C530.739,-263.113 598.539,-247.822 639.701,-238.538"/>
<polygon fill="midnightblue" stroke="midnightblue" points="485.019,-269.836 476.034,-275.45 486.559,-276.665 485.019,-269.836"/>
</g>
<!-- Node3 -->
<g id="node3" class="node"><title>Node3</title>
<g id="a_node3"><a xlink:href="xmm_model_8hpp.html" target="_top" xlink:title="xmmModel.hpp">
<polygon fill="white" stroke="black" points="151.163,-165.5 151.163,-183.5 235.522,-183.5 235.522,-165.5 151.163,-165.5"/>
<text text-anchor="middle" x="193.342" y="-171.5" font-family="Helvetica,sans-Serif" font-size="10.00">xmmModel.hpp</text>
</a>
</g>
</g>
<!-- Node2&#45;&gt;Node3 -->
<g id="edge2" class="edge"><title>Node2&#45;&gt;Node3</title>
<path fill="none" stroke="midnightblue" d="M326.749,-217.338C294.482,-207.218 247.705,-192.549 218.974,-183.538"/>
<polygon fill="midnightblue" stroke="midnightblue" points="326.086,-220.798 336.675,-220.45 328.18,-214.118 326.086,-220.798"/>
</g>
<!-- Node9 -->
<g id="node9" class="node"><title>Node9</title>
<g id="a_node9"><a xlink:href="xmm_k_means_8hpp.html" target="_top" xlink:title="xmmKMeans.hpp">
<polygon fill="white" stroke="black" points="443.438,-165.5 443.438,-183.5 537.246,-183.5 537.246,-165.5 443.438,-165.5"/>
<text text-anchor="middle" x="490.342" y="-171.5" font-family="Helvetica,sans-Serif" font-size="10.00">xmmKMeans.hpp</text>
</a>
</g>
</g>
<!-- Node2&#45;&gt;Node9 -->
<g id="edge10" class="edge"><title>Node2&#45;&gt;Node9</title>
<path fill="none" stroke="midnightblue" d="M391.197,-216.552C415.463,-206.505 449.5,-192.411 470.719,-183.625"/>
<polygon fill="midnightblue" stroke="midnightblue" points="389.683,-213.391 381.783,-220.45 392.361,-219.858 389.683,-213.391"/>
</g>
<!-- Node4 -->
<g id="node4" class="node"><title>Node4</title>
<g id="a_node4"><a xlink:href="xmm_gmm_8hpp.html" target="_top" xlink:title="xmmGmm.hpp">
<polygon fill="white" stroke="black" points="153.562,-110.5 153.562,-128.5 235.123,-128.5 235.123,-110.5 153.562,-110.5"/>
<text text-anchor="middle" x="194.342" y="-116.5" font-family="Helvetica,sans-Serif" font-size="10.00">xmmGmm.hpp</text>
</a>
</g>
</g>
<!-- Node3&#45;&gt;Node4 -->
<g id="edge3" class="edge"><title>Node3&#45;&gt;Node4</title>
<path fill="none" stroke="midnightblue" d="M193.688,-155.175C193.859,-146.094 194.057,-135.595 194.19,-128.55"/>
<polygon fill="midnightblue" stroke="midnightblue" points="190.188,-155.154 193.499,-165.219 197.187,-155.287 190.188,-155.154"/>
</g>
<!-- Node6 -->
<g id="node6" class="node"><title>Node6</title>
<g id="a_node6"><a xlink:href="xmm_hierarchical_hmm_8hpp.html" target="_top" xlink:title="xmmHierarchicalHmm.hpp">
<polygon fill="white" stroke="black" points="127.443,-55.5 127.443,-73.5 261.241,-73.5 261.241,-55.5 127.443,-55.5"/>
<text text-anchor="middle" x="194.342" y="-61.5" font-family="Helvetica,sans-Serif" font-size="10.00">xmmHierarchicalHmm.hpp</text>
</a>
</g>
</g>
<!-- Node3&#45;&gt;Node6 -->
<g id="edge9" class="edge"><title>Node3&#45;&gt;Node6</title>
<path fill="none" stroke="midnightblue" d="M170.657,-159.627C154.054,-147.552 135.799,-129.041 144.342,-110 151.573,-93.8846 167.844,-81.2182 179.871,-73.5865"/>
<polygon fill="midnightblue" stroke="midnightblue" points="168.8,-162.596 179.038,-165.323 172.735,-156.807 168.8,-162.596"/>
</g>
<!-- Node5 -->
<g id="node5" class="node"><title>Node5</title>
<g id="a_node5"><a xlink:href="xmm_8h.html" target="_top" xlink:title="xmm.h">
<polygon fill="white" stroke="black" points="76.3423,-0.5 76.3423,-18.5 122.342,-18.5 122.342,-0.5 76.3423,-0.5"/>
<text text-anchor="middle" x="99.3423" y="-6.5" font-family="Helvetica,sans-Serif" font-size="10.00">xmm.h</text>
</a>
</g>
</g>
<!-- Node4&#45;&gt;Node5 -->
<g id="edge4" class="edge"><title>Node4&#45;&gt;Node5</title>
<path fill="none" stroke="midnightblue" d="M162.411,-106.397C147.107,-99.1214 129.685,-88.4373 118.342,-74 105.262,-57.3503 101.169,-31.8303 99.9017,-18.7924"/>
<polygon fill="midnightblue" stroke="midnightblue" points="161.034,-109.615 171.593,-110.489 163.884,-103.221 161.034,-109.615"/>
</g>
<!-- Node4&#45;&gt;Node6 -->
<g id="edge5" class="edge"><title>Node4&#45;&gt;Node6</title>
<path fill="none" stroke="midnightblue" d="M194.342,-100.175C194.342,-91.0945 194.342,-80.5949 194.342,-73.5496"/>
<polygon fill="midnightblue" stroke="midnightblue" points="190.842,-100.219 194.342,-110.219 197.842,-100.219 190.842,-100.219"/>
</g>
<!-- Node8 -->
<g id="node8" class="node"><title>Node8</title>
<g id="a_node8"><a xlink:href="xmm_gmm_8cpp.html" target="_top" xlink:title="xmmGmm.cpp">
<polygon fill="white" stroke="black" points="478.842,-55.5 478.842,-73.5 559.842,-73.5 559.842,-55.5 478.842,-55.5"/>
<text text-anchor="middle" x="519.342" y="-61.5" font-family="Helvetica,sans-Serif" font-size="10.00">xmmGmm.cpp</text>
</a>
</g>
</g>
<!-- Node4&#45;&gt;Node8 -->
<g id="edge8" class="edge"><title>Node4&#45;&gt;Node8</title>
<path fill="none" stroke="midnightblue" d="M245.294,-109.853C334.59,-95.0648 427.067,-80.2192 478.788,-71.9589"/>
<polygon fill="midnightblue" stroke="midnightblue" points="244.561,-106.427 235.268,-111.515 245.706,-113.332 244.561,-106.427"/>
</g>
<!-- Node6&#45;&gt;Node5 -->
<g id="edge6" class="edge"><title>Node6&#45;&gt;Node5</title>
<path fill="none" stroke="midnightblue" d="M170.732,-50.3277C152.911,-40.3856 129.025,-27.0598 113.907,-18.6253"/>
<polygon fill="midnightblue" stroke="midnightblue" points="169.476,-53.6349 179.914,-55.4504 172.886,-47.5218 169.476,-53.6349"/>
</g>
<!-- Node7 -->
<g id="node7" class="node"><title>Node7</title>
<g id="a_node7"><a xlink:href="xmm_hierarchical_hmm_8cpp.html" target="_top" xlink:title="xmmHierarchicalHmm.cpp">
<polygon fill="white" stroke="black" points="140.724,-0.5 140.724,-18.5 273.96,-18.5 273.96,-0.5 140.724,-0.5"/>
<text text-anchor="middle" x="207.342" y="-6.5" font-family="Helvetica,sans-Serif" font-size="10.00">xmmHierarchicalHmm.cpp</text>
</a>
</g>
</g>
<!-- Node6&#45;&gt;Node7 -->
<g id="edge7" class="edge"><title>Node6&#45;&gt;Node7</title>
<path fill="none" stroke="midnightblue" d="M198.764,-45.4734C201.008,-36.3257 203.621,-25.6724 205.368,-18.5496"/>
<polygon fill="midnightblue" stroke="midnightblue" points="195.357,-44.6728 196.374,-55.2188 202.155,-46.3404 195.357,-44.6728"/>
</g>
<!-- Node9&#45;&gt;Node8 -->
<g id="edge12" class="edge"><title>Node9&#45;&gt;Node8</title>
<path fill="none" stroke="midnightblue" d="M516.978,-160.345C528.891,-152.924 541.722,-142.424 548.342,-129 557.991,-109.435 539.734,-85.9897 528.044,-73.7936"/>
<polygon fill="midnightblue" stroke="midnightblue" points="515.086,-157.396 508.165,-165.417 518.578,-163.463 515.086,-157.396"/>
</g>
<!-- Node10 -->
<g id="node10" class="node"><title>Node10</title>
<g id="a_node10"><a xlink:href="xmm_k_means_8cpp.html" target="_top" xlink:title="xmmKMeans.cpp">
<polygon fill="white" stroke="black" points="595.719,-110.5 595.719,-128.5 688.965,-128.5 688.965,-110.5 595.719,-110.5"/>
<text text-anchor="middle" x="642.342" y="-116.5" font-family="Helvetica,sans-Serif" font-size="10.00">xmmKMeans.cpp</text>
</a>
</g>
</g>
<!-- Node9&#45;&gt;Node10 -->
<g id="edge11" class="edge"><title>Node9&#45;&gt;Node10</title>
<path fill="none" stroke="midnightblue" d="M523.082,-162.084C551.982,-152.007 593.394,-137.567 619.04,-128.625"/>
<polygon fill="midnightblue" stroke="midnightblue" points="521.718,-158.853 513.428,-165.45 524.023,-165.463 521.718,-158.853"/>
</g>
<!-- Node11 -->
<g id="node11" class="node"><title>Node11</title>
<g id="a_node11"><a xlink:href="xmm_gmm_single_class_8cpp.html" target="_top" xlink:title="xmmGmmSingleClass.cpp">
<polygon fill="white" stroke="black" points="405.441,-110.5 405.441,-128.5 539.244,-128.5 539.244,-110.5 405.441,-110.5"/>
<text text-anchor="middle" x="472.342" y="-116.5" font-family="Helvetica,sans-Serif" font-size="10.00">xmmGmmSingleClass.cpp</text>
</a>
</g>
</g>
<!-- Node9&#45;&gt;Node11 -->
<g id="edge13" class="edge"><title>Node9&#45;&gt;Node11</title>
<path fill="none" stroke="midnightblue" d="M484.22,-155.473C481.113,-146.326 477.495,-135.672 475.076,-128.55"/>
<polygon fill="midnightblue" stroke="midnightblue" points="481,-156.875 487.53,-165.219 487.628,-154.624 481,-156.875"/>
</g>
<!-- Node13 -->
<g id="node13" class="node"><title>Node13</title>
<g id="a_node13"><a xlink:href="xmm_gmm_single_class_8hpp.html" target="_top" xlink:title="xmmGmmSingleClass.hpp">
<polygon fill="white" stroke="black" points="253.16,-165.5 253.16,-183.5 387.524,-183.5 387.524,-165.5 253.16,-165.5"/>
<text text-anchor="middle" x="320.342" y="-171.5" font-family="Helvetica,sans-Serif" font-size="10.00">xmmGmmSingleClass.hpp</text>
</a>
</g>
</g>
<!-- Node12&#45;&gt;Node13 -->
<g id="edge15" class="edge"><title>Node12&#45;&gt;Node13</title>
<path fill="none" stroke="midnightblue" d="M232.143,-216.148C253.882,-206.13 283.902,-192.294 302.712,-183.625"/>
<polygon fill="midnightblue" stroke="midnightblue" points="230.425,-213.086 222.808,-220.45 233.355,-219.443 230.425,-213.086"/>
</g>
<!-- Node16 -->
<g id="node16" class="node"><title>Node16</title>
<g id="a_node16"><a xlink:href="xmm_gmm_parameters_8cpp.html" target="_top" xlink:title="xmmGmmParameters.cpp">
<polygon fill="white" stroke="black" points="0,-165.5 0,-183.5 132.685,-183.5 132.685,-165.5 0,-165.5"/>
<text text-anchor="middle" x="66.3423" y="-171.5" font-family="Helvetica,sans-Serif" font-size="10.00">xmmGmmParameters.cpp</text>
</a>
</g>
</g>
<!-- Node12&#45;&gt;Node16 -->
<g id="edge21" class="edge"><title>Node12&#45;&gt;Node16</title>
<path fill="none" stroke="midnightblue" d="M174.708,-216.819C148.314,-206.756 110.899,-192.489 87.6521,-183.625"/>
<polygon fill="midnightblue" stroke="midnightblue" points="173.64,-220.158 184.231,-220.45 176.134,-213.617 173.64,-220.158"/>
</g>
<!-- Node13&#45;&gt;Node4 -->
<g id="edge16" class="edge"><title>Node13&#45;&gt;Node4</title>
<path fill="none" stroke="midnightblue" d="M291.938,-161.552C268.051,-151.505 234.546,-137.411 213.659,-128.625"/>
<polygon fill="midnightblue" stroke="midnightblue" points="290.631,-164.799 301.206,-165.45 293.345,-158.347 290.631,-164.799"/>
</g>
<!-- Node13&#45;&gt;Node11 -->
<g id="edge20" class="edge"><title>Node13&#45;&gt;Node11</title>
<path fill="none" stroke="midnightblue" d="M353.082,-162.084C381.982,-152.007 423.394,-137.567 449.04,-128.625"/>
<polygon fill="midnightblue" stroke="midnightblue" points="351.718,-158.853 343.428,-165.45 354.023,-165.463 351.718,-158.853"/>
</g>
<!-- Node14 -->
<g id="node14" class="node"><title>Node14</title>
<g id="a_node14"><a xlink:href="xmm_hmm_single_class_8hpp.html" target="_top" xlink:title="xmmHmmSingleClass.hpp">
<polygon fill="white" stroke="black" points="253.438,-110.5 253.438,-128.5 387.246,-128.5 387.246,-110.5 253.438,-110.5"/>
<text text-anchor="middle" x="320.342" y="-116.5" font-family="Helvetica,sans-Serif" font-size="10.00">xmmHmmSingleClass.hpp</text>
</a>
</g>
</g>
<!-- Node13&#45;&gt;Node14 -->
<g id="edge17" class="edge"><title>Node13&#45;&gt;Node14</title>
<path fill="none" stroke="midnightblue" d="M320.342,-155.175C320.342,-146.094 320.342,-135.595 320.342,-128.55"/>
<polygon fill="midnightblue" stroke="midnightblue" points="316.842,-155.219 320.342,-165.219 323.842,-155.219 316.842,-155.219"/>
</g>
<!-- Node14&#45;&gt;Node6 -->
<g id="edge18" class="edge"><title>Node14&#45;&gt;Node6</title>
<path fill="none" stroke="midnightblue" d="M291.938,-106.552C268.051,-96.5046 234.546,-82.4113 213.659,-73.6253"/>
<polygon fill="midnightblue" stroke="midnightblue" points="290.631,-109.799 301.206,-110.45 293.345,-103.347 290.631,-109.799"/>
</g>
<!-- Node15 -->
<g id="node15" class="node"><title>Node15</title>
<g id="a_node15"><a xlink:href="xmm_hmm_single_class_8cpp.html" target="_top" xlink:title="xmmHmmSingleClass.cpp">
<polygon fill="white" stroke="black" points="279.719,-55.5 279.719,-73.5 412.965,-73.5 412.965,-55.5 279.719,-55.5"/>
<text text-anchor="middle" x="346.342" y="-61.5" font-family="Helvetica,sans-Serif" font-size="10.00">xmmHmmSingleClass.cpp</text>
</a>
</g>
</g>
<!-- Node14&#45;&gt;Node15 -->
<g id="edge19" class="edge"><title>Node14&#45;&gt;Node15</title>
<path fill="none" stroke="midnightblue" d="M328.894,-101.068C333.445,-91.7905 338.823,-80.8272 342.393,-73.5496"/>
<polygon fill="midnightblue" stroke="midnightblue" points="325.667,-99.6993 324.405,-110.219 331.951,-102.782 325.667,-99.6993"/>
</g>
<!-- Node17&#45;&gt;Node14 -->
<g id="edge23" class="edge"><title>Node17&#45;&gt;Node14</title>
<path fill="none" stroke="midnightblue" d="M493.677,-215.608C476.9,-206.796 454.223,-194.801 434.342,-184 398.311,-164.424 356.243,-140.786 334.685,-128.617"/>
<polygon fill="midnightblue" stroke="midnightblue" points="492.326,-218.851 502.808,-220.395 495.577,-212.652 492.326,-218.851"/>
</g>
<!-- Node18 -->
<g id="node18" class="node"><title>Node18</title>
<g id="a_node18"><a xlink:href="xmm_hmm_parameters_8cpp.html" target="_top" xlink:title="xmmHmmParameters.cpp">
<polygon fill="white" stroke="black" points="555.278,-165.5 555.278,-183.5 687.406,-183.5 687.406,-165.5 555.278,-165.5"/>
<text text-anchor="middle" x="621.342" y="-171.5" font-family="Helvetica,sans-Serif" font-size="10.00">xmmHmmParameters.cpp</text>
</a>
</g>
</g>
<!-- Node17&#45;&gt;Node18 -->
<g id="edge24" class="edge"><title>Node17&#45;&gt;Node18</title>
<path fill="none" stroke="midnightblue" d="M543.14,-215.74C562.541,-205.757 588.932,-192.177 605.552,-183.625"/>
<polygon fill="midnightblue" stroke="midnightblue" points="541.276,-212.763 533.986,-220.45 544.479,-218.987 541.276,-212.763"/>
</g>
<!-- Node19&#45;&gt;Node9 -->
<g id="edge26" class="edge"><title>Node19&#45;&gt;Node9</title>
<path fill="none" stroke="midnightblue" d="M637.294,-217.6C601.945,-207.473 550.124,-192.627 518.401,-183.538"/>
<polygon fill="midnightblue" stroke="midnightblue" points="636.668,-221.061 647.245,-220.45 638.595,-214.332 636.668,-221.061"/>
</g>
<!-- Node20 -->
<g id="node20" class="node"><title>Node20</title>
<g id="a_node20"><a xlink:href="xmm_k_means_parameters_8cpp.html" target="_top" xlink:title="xmmKMeansParameters.cpp">
<polygon fill="white" stroke="black" points="705.877,-165.5 705.877,-183.5 850.808,-183.5 850.808,-165.5 705.877,-165.5"/>
<text text-anchor="middle" x="778.342" y="-171.5" font-family="Helvetica,sans-Serif" font-size="10.00">xmmKMeansParameters.cpp</text>
</a>
</g>
</g>
<!-- Node19&#45;&gt;Node20 -->
<g id="edge27" class="edge"><title>Node19&#45;&gt;Node20</title>
<path fill="none" stroke="midnightblue" d="M700.14,-215.74C719.541,-205.757 745.932,-192.177 762.552,-183.625"/>
<polygon fill="midnightblue" stroke="midnightblue" points="698.276,-212.763 690.986,-220.45 701.479,-218.987 698.276,-212.763"/>
</g>
</g>
</svg>
