<?xml version="1.0" encoding="UTF-8" standalone="no"?>
<!DOCTYPE svg PUBLIC "-//W3C//DTD SVG 1.1//EN"
 "http://www.w3.org/Graphics/SVG/1.1/DTD/svg11.dtd">
<!-- Generated by graphviz version 2.38.0 (20140413.2041)
 -->
<!-- Title: xmmGmm.hpp Pages: 1 -->
<svg width="938pt" height="442pt"
 viewBox="0.00 0.00 938.15 442.00" xmlns="http://www.w3.org/2000/svg" xmlns:xlink="http://www.w3.org/1999/xlink">
<g id="graph0" class="graph" transform="scale(1 1) rotate(0) translate(4 438)">
<title>xmmGmm.hpp</title>
<polygon fill="white" stroke="none" points="-4,4 -4,-438 934.147,-438 934.147,4 -4,4"/>
<!-- Node1 -->
<g id="node1" class="node"><title>Node1</title>
<polygon fill="#bfbfbf" stroke="black" points="316.446,-415.5 316.446,-433.5 398.007,-433.5 398.007,-415.5 316.446,-415.5"/>
<text text-anchor="middle" x="357.227" y="-421.5" font-family="Helvetica,sans-Serif" font-size="10.00">xmmGmm.hpp</text>
</g>
<!-- Node2 -->
<g id="node2" class="node"><title>Node2</title>
<g id="a_node2"><a xlink:href="xmm_gaussian_distribution_8hpp.html" target="_top" xlink:title="../../core/distributions\l/xmmGaussianDistribution.hpp">
<polygon fill="white" stroke="black" points="245.143,-120.5 245.143,-148.5 397.31,-148.5 397.31,-120.5 245.143,-120.5"/>
<text text-anchor="start" x="253.143" y="-136.5" font-family="Helvetica,sans-Serif" font-size="10.00">../../core/distributions</text>
<text text-anchor="middle" x="321.227" y="-126.5" font-family="Helvetica,sans-Serif" font-size="10.00">/xmmGaussianDistribution.hpp</text>
</a>
</g>
</g>
<!-- Node1&#45;&gt;Node2 -->
<g id="edge1" class="edge"><title>Node1&#45;&gt;Node2</title>
<path fill="none" stroke="midnightblue" d="M330.605,-415.375C313.341,-408.598 292.106,-397.079 281.227,-379 236.739,-305.076 242.244,-265.132 274.227,-185 278.666,-173.877 286.925,-163.822 295.296,-155.724"/>
<polygon fill="midnightblue" stroke="midnightblue" points="297.823,-158.159 302.909,-148.864 293.137,-152.959 297.823,-158.159"/>
</g>
<!-- Node12 -->
<g id="node12" class="node"><title>Node12</title>
<g id="a_node12"><a xlink:href="xmm_model_8hpp.html" target="_top" xlink:title="../../core/model/xmmModel.hpp">
<polygon fill="white" stroke="black" points="469.589,-360.5 469.589,-378.5 622.864,-378.5 622.864,-360.5 469.589,-360.5"/>
<text text-anchor="middle" x="546.227" y="-366.5" font-family="Helvetica,sans-Serif" font-size="10.00">../../core/model/xmmModel.hpp</text>
</a>
</g>
</g>
<!-- Node1&#45;&gt;Node12 -->
<g id="edge12" class="edge"><title>Node1&#45;&gt;Node12</title>
<path fill="none" stroke="midnightblue" d="M385.932,-415.45C418.497,-406.318 471.756,-391.383 507.864,-381.258"/>
<polygon fill="midnightblue" stroke="midnightblue" points="508.878,-384.608 517.562,-378.538 506.988,-377.868 508.878,-384.608"/>
</g>
<!-- Node30 -->
<g id="node30" class="node"><title>Node30</title>
<g id="a_node30"><a xlink:href="xmm_gmm_single_class_8hpp.html" target="_top" xlink:title="xmmGmmSingleClass.hpp">
<polygon fill="white" stroke="black" points="290.044,-360.5 290.044,-378.5 424.409,-378.5 424.409,-360.5 290.044,-360.5"/>
<text text-anchor="middle" x="357.227" y="-366.5" font-family="Helvetica,sans-Serif" font-size="10.00">xmmGmmSingleClass.hpp</text>
</a>
</g>
</g>
<!-- Node1&#45;&gt;Node30 -->
<g id="edge46" class="edge"><title>Node1&#45;&gt;Node30</title>
<path fill="none" stroke="midnightblue" d="M357.227,-415.219C357.227,-408.177 357.227,-397.808 357.227,-388.828"/>
<polygon fill="midnightblue" stroke="midnightblue" points="360.727,-388.55 357.227,-378.55 353.727,-388.55 360.727,-388.55"/>
</g>
<!-- Node3 -->
<g id="node3" class="node"><title>Node3</title>
<g id="a_node3"><a xlink:href="xmm_attribute_8hpp.html" target="_top" xlink:title="../common/xmmAttribute.hpp">
<polygon fill="white" stroke="black" points="249.315,-65.5 249.315,-83.5 393.138,-83.5 393.138,-65.5 249.315,-65.5"/>
<text text-anchor="middle" x="321.227" y="-71.5" font-family="Helvetica,sans-Serif" font-size="10.00">../common/xmmAttribute.hpp</text>
</a>
</g>
</g>
<!-- Node2&#45;&gt;Node3 -->
<g id="edge2" class="edge"><title>Node2&#45;&gt;Node3</title>
<path fill="none" stroke="midnightblue" d="M321.227,-120.339C321.227,-112.531 321.227,-102.512 321.227,-93.9265"/>
<polygon fill="midnightblue" stroke="midnightblue" points="324.727,-93.7714 321.227,-83.7715 317.727,-93.7715 324.727,-93.7714"/>
</g>
<!-- Node9 -->
<g id="node9" class="node"><title>Node9</title>
<g id="a_node9"><a xlink:href="xmm_json_8hpp.html" target="_top" xlink:title="../common/xmmJson.hpp">
<polygon fill="white" stroke="black" points="419.375,-65.5 419.375,-83.5 547.079,-83.5 547.079,-65.5 419.375,-65.5"/>
<text text-anchor="middle" x="483.227" y="-71.5" font-family="Helvetica,sans-Serif" font-size="10.00">../common/xmmJson.hpp</text>
</a>
</g>
</g>
<!-- Node2&#45;&gt;Node9 -->
<g id="edge8" class="edge"><title>Node2&#45;&gt;Node9</title>
<path fill="none" stroke="midnightblue" d="M357.583,-120.484C385.542,-110.474 423.821,-96.7686 450.758,-87.1246"/>
<polygon fill="midnightblue" stroke="midnightblue" points="452.246,-90.3094 460.481,-83.6434 449.887,-83.719 452.246,-90.3094"/>
</g>
<!-- Node4 -->
<g id="node4" class="node"><title>Node4</title>
<polygon fill="white" stroke="#bfbfbf" points="349.823,-5.5 349.823,-23.5 408.63,-23.5 408.63,-5.5 349.823,-5.5"/>
<text text-anchor="middle" x="379.227" y="-11.5" font-family="Helvetica,sans-Serif" font-size="10.00">functional</text>
</g>
<!-- Node3&#45;&gt;Node4 -->
<g id="edge3" class="edge"><title>Node3&#45;&gt;Node4</title>
<path fill="none" stroke="midnightblue" d="M329.291,-65.4353C338.108,-56.6187 352.452,-42.2743 363.51,-31.2165"/>
<polygon fill="midnightblue" stroke="midnightblue" points="366.259,-33.4177 370.855,-23.8718 361.309,-28.468 366.259,-33.4177"/>
</g>
<!-- Node5 -->
<g id="node5" class="node"><title>Node5</title>
<polygon fill="white" stroke="#bfbfbf" points="292.84,-5.5 292.84,-23.5 331.613,-23.5 331.613,-5.5 292.84,-5.5"/>
<text text-anchor="middle" x="312.227" y="-11.5" font-family="Helvetica,sans-Serif" font-size="10.00">limits</text>
</g>
<!-- Node3&#45;&gt;Node5 -->
<g id="edge4" class="edge"><title>Node3&#45;&gt;Node5</title>
<path fill="none" stroke="midnightblue" d="M319.975,-65.4353C318.713,-57.3035 316.722,-44.4692 315.074,-33.8485"/>
<polygon fill="midnightblue" stroke="midnightblue" points="318.518,-33.2168 313.526,-23.8718 311.6,-34.2902 318.518,-33.2168"/>
</g>
<!-- Node6 -->
<g id="node6" class="node"><title>Node6</title>
<polygon fill="white" stroke="#bfbfbf" points="154.825,-5.5 154.825,-23.5 213.628,-23.5 213.628,-5.5 154.825,-5.5"/>
<text text-anchor="middle" x="184.227" y="-11.5" font-family="Helvetica,sans-Serif" font-size="10.00">stdexcept</text>
</g>
<!-- Node3&#45;&gt;Node6 -->
<g id="edge5" class="edge"><title>Node3&#45;&gt;Node6</title>
<path fill="none" stroke="midnightblue" d="M302.177,-65.4353C278.997,-55.6217 239.639,-38.9593 212.817,-27.604"/>
<polygon fill="midnightblue" stroke="midnightblue" points="214.129,-24.3587 203.556,-23.6831 211.4,-30.8049 214.129,-24.3587"/>
</g>
<!-- Node7 -->
<g id="node7" class="node"><title>Node7</title>
<polygon fill="white" stroke="#bfbfbf" points="0,-5.5 0,-23.5 40.4531,-23.5 40.4531,-5.5 0,-5.5"/>
<text text-anchor="middle" x="20.2266" y="-11.5" font-family="Helvetica,sans-Serif" font-size="10.00">string</text>
</g>
<!-- Node3&#45;&gt;Node7 -->
<g id="edge6" class="edge"><title>Node3&#45;&gt;Node7</title>
<path fill="none" stroke="midnightblue" d="M267.351,-65.4905C216.128,-57.5209 137.051,-44.2961 69.2266,-29 63.1608,-27.632 56.7216,-25.9942 50.5742,-24.3388"/>
<polygon fill="midnightblue" stroke="midnightblue" points="51.1929,-20.8785 40.6214,-21.5808 49.3236,-27.6243 51.1929,-20.8785"/>
</g>
<!-- Node8 -->
<g id="node8" class="node"><title>Node8</title>
<polygon fill="white" stroke="#bfbfbf" points="231.611,-5.5 231.611,-23.5 274.842,-23.5 274.842,-5.5 231.611,-5.5"/>
<text text-anchor="middle" x="253.227" y="-11.5" font-family="Helvetica,sans-Serif" font-size="10.00">vector</text>
</g>
<!-- Node3&#45;&gt;Node8 -->
<g id="edge7" class="edge"><title>Node3&#45;&gt;Node8</title>
<path fill="none" stroke="midnightblue" d="M311.771,-65.4353C301.234,-56.4475 283.962,-41.7151 270.902,-30.5762"/>
<polygon fill="midnightblue" stroke="midnightblue" points="272.921,-27.6983 263.042,-23.8718 268.379,-33.0242 272.921,-27.6983"/>
</g>
<!-- Node9&#45;&gt;Node8 -->
<g id="edge11" class="edge"><title>Node9&#45;&gt;Node8</title>
<path fill="none" stroke="midnightblue" d="M435.499,-65.4758C394.753,-58.0002 334.879,-45.5251 284.227,-29 282.615,-28.4743 280.973,-27.8954 279.327,-27.2821"/>
<polygon fill="midnightblue" stroke="midnightblue" points="280.638,-24.0368 270.056,-23.5223 278.007,-30.5237 280.638,-24.0368"/>
</g>
<!-- Node10 -->
<g id="node10" class="node"><title>Node10</title>
<polygon fill="white" stroke="#bfbfbf" points="426.638,-0.5 426.638,-28.5 543.815,-28.5 543.815,-0.5 426.638,-0.5"/>
<text text-anchor="start" x="434.638" y="-16.5" font-family="Helvetica,sans-Serif" font-size="10.00">../../../dependencies</text>
<text text-anchor="middle" x="485.227" y="-6.5" font-family="Helvetica,sans-Serif" font-size="10.00">/jsoncpp/include/json.h</text>
</g>
<!-- Node9&#45;&gt;Node10 -->
<g id="edge9" class="edge"><title>Node9&#45;&gt;Node10</title>
<path fill="none" stroke="midnightblue" d="M483.505,-65.4353C483.742,-58.5603 484.095,-48.3238 484.419,-38.9057"/>
<polygon fill="midnightblue" stroke="midnightblue" points="487.92,-38.9575 484.766,-28.8428 480.924,-38.7162 487.92,-38.9575"/>
</g>
<!-- Node11 -->
<g id="node11" class="node"><title>Node11</title>
<polygon fill="white" stroke="#bfbfbf" points="561.557,-5.5 561.557,-23.5 610.896,-23.5 610.896,-5.5 561.557,-5.5"/>
<text text-anchor="middle" x="586.227" y="-11.5" font-family="Helvetica,sans-Serif" font-size="10.00">fstream</text>
</g>
<!-- Node9&#45;&gt;Node11 -->
<g id="edge10" class="edge"><title>Node9&#45;&gt;Node11</title>
<path fill="none" stroke="midnightblue" d="M497.548,-65.4353C514.441,-55.923 542.761,-39.9759 562.848,-28.6645"/>
<polygon fill="midnightblue" stroke="midnightblue" points="564.698,-31.6395 571.694,-23.6831 561.264,-25.5401 564.698,-31.6395"/>
</g>
<!-- Node13 -->
<g id="node13" class="node"><title>Node13</title>
<g id="a_node13"><a xlink:href="xmm_model_configuration_8hpp.html" target="_top" xlink:title="xmmModelConfiguration.hpp">
<polygon fill="white" stroke="black" points="786.306,-190.5 786.306,-208.5 930.147,-208.5 930.147,-190.5 786.306,-190.5"/>
<text text-anchor="middle" x="858.227" y="-196.5" font-family="Helvetica,sans-Serif" font-size="10.00">xmmModelConfiguration.hpp</text>
</a>
</g>
</g>
<!-- Node12&#45;&gt;Node13 -->
<g id="edge13" class="edge"><title>Node12&#45;&gt;Node13</title>
<path fill="none" stroke="midnightblue" d="M571.166,-360.39C595.897,-352.101 634.695,-338.429 667.227,-324 715.383,-302.641 728.09,-297.763 772.227,-269 797.556,-252.493 824.464,-230.19 841.3,-215.582"/>
<polygon fill="midnightblue" stroke="midnightblue" points="843.917,-217.942 849.125,-208.716 839.3,-212.681 843.917,-217.942"/>
</g>
<!-- Node16 -->
<g id="node16" class="node"><title>Node16</title>
<g id="a_node16"><a xlink:href="xmm_model_results_8hpp.html" target="_top" xlink:title="xmmModelResults.hpp">
<polygon fill="white" stroke="black" points="109.375,-250.5 109.375,-268.5 227.079,-268.5 227.079,-250.5 109.375,-250.5"/>
<text text-anchor="middle" x="168.227" y="-256.5" font-family="Helvetica,sans-Serif" font-size="10.00">xmmModelResults.hpp</text>
</a>
</g>
</g>
<!-- Node12&#45;&gt;Node16 -->
<g id="edge18" class="edge"><title>Node12&#45;&gt;Node16</title>
<path fill="none" stroke="midnightblue" d="M517,-360.486C484.9,-351.658 431.843,-336.987 386.227,-324 322.521,-305.863 248.526,-284.178 205.194,-271.417"/>
<polygon fill="midnightblue" stroke="midnightblue" points="205.966,-267.996 195.385,-268.526 203.988,-274.71 205.966,-267.996"/>
</g>
<!-- Node17 -->
<g id="node17" class="node"><title>Node17</title>
<g id="a_node17"><a xlink:href="xmm_model_single_class_8hpp.html" target="_top" xlink:title="xmmModelSingleClass.hpp">
<polygon fill="white" stroke="black" points="395.646,-305.5 395.646,-323.5 532.808,-323.5 532.808,-305.5 395.646,-305.5"/>
<text text-anchor="middle" x="464.227" y="-311.5" font-family="Helvetica,sans-Serif" font-size="10.00">xmmModelSingleClass.hpp</text>
</a>
</g>
</g>
<!-- Node12&#45;&gt;Node17 -->
<g id="edge21" class="edge"><title>Node12&#45;&gt;Node17</title>
<path fill="none" stroke="midnightblue" d="M533.773,-360.45C521.009,-352.201 500.919,-339.216 485.606,-329.319"/>
<polygon fill="midnightblue" stroke="midnightblue" points="487.096,-326.114 476.798,-323.625 483.296,-331.993 487.096,-326.114"/>
</g>
<!-- Node28 -->
<g id="node28" class="node"><title>Node28</title>
<polygon fill="white" stroke="#bfbfbf" points="550.5,-305.5 550.5,-323.5 595.953,-323.5 595.953,-305.5 550.5,-305.5"/>
<text text-anchor="middle" x="573.227" y="-311.5" font-family="Helvetica,sans-Serif" font-size="10.00">atomic</text>
</g>
<!-- Node12&#45;&gt;Node28 -->
<g id="edge44" class="edge"><title>Node12&#45;&gt;Node28</title>
<path fill="none" stroke="midnightblue" d="M550.445,-360.219C554.192,-352.864 559.788,-341.88 564.495,-332.639"/>
<polygon fill="midnightblue" stroke="midnightblue" points="567.705,-334.049 569.126,-323.55 561.468,-330.871 567.705,-334.049"/>
</g>
<!-- Node29 -->
<g id="node29" class="node"><title>Node29</title>
<polygon fill="white" stroke="#bfbfbf" points="614.049,-305.5 614.049,-323.5 658.404,-323.5 658.404,-305.5 614.049,-305.5"/>
<text text-anchor="middle" x="636.227" y="-311.5" font-family="Helvetica,sans-Serif" font-size="10.00">thread</text>
</g>
<!-- Node12&#45;&gt;Node29 -->
<g id="edge45" class="edge"><title>Node12&#45;&gt;Node29</title>
<path fill="none" stroke="midnightblue" d="M559.896,-360.45C574.168,-352.045 596.789,-338.724 613.706,-328.762"/>
<polygon fill="midnightblue" stroke="midnightblue" points="615.588,-331.716 622.429,-323.625 612.036,-325.684 615.588,-331.716"/>
</g>
<!-- Node14 -->
<g id="node14" class="node"><title>Node14</title>
<g id="a_node14"><a xlink:href="xmm_model_parameters_8hpp.html" target="_top" xlink:title="xmmModelParameters.hpp">
<polygon fill="white" stroke="black" points="415.205,-125.5 415.205,-143.5 551.249,-143.5 551.249,-125.5 415.205,-125.5"/>
<text text-anchor="middle" x="483.227" y="-131.5" font-family="Helvetica,sans-Serif" font-size="10.00">xmmModelParameters.hpp</text>
</a>
</g>
</g>
<!-- Node13&#45;&gt;Node14 -->
<g id="edge14" class="edge"><title>Node13&#45;&gt;Node14</title>
<path fill="none" stroke="midnightblue" d="M809.163,-190.488C750.083,-180.809 647.853,-163.959 560.227,-149 553.395,-147.834 546.226,-146.596 539.124,-145.361"/>
<polygon fill="midnightblue" stroke="midnightblue" points="539.269,-141.833 528.817,-143.563 538.066,-148.729 539.269,-141.833"/>
</g>
<!-- Node15 -->
<g id="node15" class="node"><title>Node15</title>
<polygon fill="white" stroke="#bfbfbf" points="811.5,-5.5 811.5,-23.5 846.953,-23.5 846.953,-5.5 811.5,-5.5"/>
<text text-anchor="middle" x="829.227" y="-11.5" font-family="Helvetica,sans-Serif" font-size="10.00">map</text>
</g>
<!-- Node13&#45;&gt;Node15 -->
<g id="edge17" class="edge"><title>Node13&#45;&gt;Node15</title>
<path fill="none" stroke="midnightblue" d="M857.774,-190.302C856.513,-169.301 852.433,-111.917 843.227,-65 841.15,-54.4178 837.918,-42.8056 835.082,-33.4893"/>
<polygon fill="midnightblue" stroke="midnightblue" points="838.374,-32.2909 832.028,-23.8069 831.698,-34.3966 838.374,-32.2909"/>
</g>
<!-- Node14&#45;&gt;Node3 -->
<g id="edge15" class="edge"><title>Node14&#45;&gt;Node3</title>
<path fill="none" stroke="midnightblue" d="M460.701,-125.435C432.852,-115.465 385.255,-98.4237 353.522,-87.0624"/>
<polygon fill="midnightblue" stroke="midnightblue" points="354.416,-83.6651 343.821,-83.5894 352.056,-90.2554 354.416,-83.6651"/>
</g>
<!-- Node14&#45;&gt;Node9 -->
<g id="edge16" class="edge"><title>Node14&#45;&gt;Node9</title>
<path fill="none" stroke="midnightblue" d="M483.227,-125.435C483.227,-117.389 483.227,-104.739 483.227,-94.1846"/>
<polygon fill="midnightblue" stroke="midnightblue" points="486.727,-93.8717 483.227,-83.8718 479.727,-93.8718 486.727,-93.8717"/>
</g>
<!-- Node16&#45;&gt;Node7 -->
<g id="edge19" class="edge"><title>Node16&#45;&gt;Node7</title>
<path fill="none" stroke="midnightblue" d="M157.003,-250.29C127.304,-227.775 46.9723,-161.539 18.2266,-84 12.2221,-67.8036 13.6717,-47.9456 16.0516,-33.7889"/>
<polygon fill="midnightblue" stroke="midnightblue" points="19.513,-34.3278 18.0351,-23.8365 12.648,-32.9595 19.513,-34.3278"/>
</g>
<!-- Node16&#45;&gt;Node8 -->
<g id="edge20" class="edge"><title>Node16&#45;&gt;Node8</title>
<path fill="none" stroke="midnightblue" d="M171.055,-250.415C183.052,-216.115 229.907,-82.166 246.969,-33.3899"/>
<polygon fill="midnightblue" stroke="midnightblue" points="250.303,-34.4594 250.301,-23.8646 243.695,-32.1482 250.303,-34.4594"/>
</g>
<!-- Node18 -->
<g id="node18" class="node"><title>Node18</title>
<g id="a_node18"><a xlink:href="xmm_circularbuffer_8hpp.html" target="_top" xlink:title="../common/xmmCircularbuffer.hpp">
<polygon fill="white" stroke="black" points="27.2876,-65.5 27.2876,-83.5 193.166,-83.5 193.166,-65.5 27.2876,-65.5"/>
<text text-anchor="middle" x="110.227" y="-71.5" font-family="Helvetica,sans-Serif" font-size="10.00">../common/xmmCircularbuffer.hpp</text>
</a>
</g>
</g>
<!-- Node17&#45;&gt;Node18 -->
<g id="edge22" class="edge"><title>Node17&#45;&gt;Node18</title>
<path fill="none" stroke="midnightblue" d="M458.773,-305.109C449.461,-291.459 429.159,-264.514 405.227,-250 353.598,-218.69 327.651,-242.136 274.227,-214 211.203,-180.808 150.869,-119.975 124.34,-91.2776"/>
<polygon fill="midnightblue" stroke="midnightblue" points="126.825,-88.8085 117.502,-83.776 121.652,-93.5242 126.825,-88.8085"/>
</g>
<!-- Node20 -->
<g id="node20" class="node"><title>Node20</title>
<g id="a_node20"><a xlink:href="xmm_events_8hpp.html" target="_top" xlink:title="../common/xmmEvents.hpp">
<polygon fill="white" stroke="black" points="625.65,-65.5 625.65,-83.5 762.803,-83.5 762.803,-65.5 625.65,-65.5"/>
<text text-anchor="middle" x="694.227" y="-71.5" font-family="Helvetica,sans-Serif" font-size="10.00">../common/xmmEvents.hpp</text>
</a>
</g>
</g>
<!-- Node17&#45;&gt;Node20 -->
<g id="edge26" class="edge"><title>Node17&#45;&gt;Node20</title>
<path fill="none" stroke="midnightblue" d="M524.112,-305.483C579.738,-297.316 657.957,-283.779 685.227,-269 724.247,-247.853 747.825,-228.541 739.227,-185 732.451,-150.69 714.802,-113.614 703.728,-92.6066"/>
<polygon fill="midnightblue" stroke="midnightblue" points="706.73,-90.8 698.895,-83.6672 700.572,-94.1286 706.73,-90.8"/>
</g>
<!-- Node22 -->
<g id="node22" class="node"><title>Node22</title>
<g id="a_node22"><a xlink:href="xmm_training_set_8hpp.html" target="_top" xlink:title="../trainingset/xmmTraining\lSet.hpp">
<polygon fill="white" stroke="black" points="599.89,-185.5 599.89,-213.5 730.563,-213.5 730.563,-185.5 599.89,-185.5"/>
<text text-anchor="start" x="607.89" y="-201.5" font-family="Helvetica,sans-Serif" font-size="10.00">../trainingset/xmmTraining</text>
<text text-anchor="middle" x="665.227" y="-191.5" font-family="Helvetica,sans-Serif" font-size="10.00">Set.hpp</text>
</a>
</g>
</g>
<!-- Node17&#45;&gt;Node22 -->
<g id="edge30" class="edge"><title>Node17&#45;&gt;Node22</title>
<path fill="none" stroke="midnightblue" d="M516.584,-305.484C573.522,-296.236 657.742,-280.789 667.227,-269 677.309,-256.468 676.185,-238.07 672.879,-223.495"/>
<polygon fill="midnightblue" stroke="midnightblue" points="676.216,-222.429 670.215,-213.697 669.461,-224.265 676.216,-222.429"/>
</g>
<!-- Node25 -->
<g id="node25" class="node"><title>Node25</title>
<g id="a_node25"><a xlink:href="xmm_model_shared_parameters_8hpp.html" target="_top" xlink:title="xmmModelSharedParameters.hpp">
<polygon fill="white" stroke="black" points="490.082,-250.5 490.082,-268.5 658.372,-268.5 658.372,-250.5 490.082,-250.5"/>
<text text-anchor="middle" x="574.227" y="-256.5" font-family="Helvetica,sans-Serif" font-size="10.00">xmmModelSharedParameters.hpp</text>
</a>
</g>
</g>
<!-- Node17&#45;&gt;Node25 -->
<g id="edge38" class="edge"><title>Node17&#45;&gt;Node25</title>
<path fill="none" stroke="midnightblue" d="M480.933,-305.45C498.782,-296.851 527.311,-283.105 548.126,-273.075"/>
<polygon fill="midnightblue" stroke="midnightblue" points="549.873,-276.119 557.363,-268.625 546.835,-269.813 549.873,-276.119"/>
</g>
<!-- Node26 -->
<g id="node26" class="node"><title>Node26</title>
<polygon fill="white" stroke="#bfbfbf" points="475.611,-190.5 475.611,-208.5 518.842,-208.5 518.842,-190.5 475.611,-190.5"/>
<text text-anchor="middle" x="497.227" y="-196.5" font-family="Helvetica,sans-Serif" font-size="10.00">mutex</text>
</g>
<!-- Node17&#45;&gt;Node26 -->
<g id="edge43" class="edge"><title>Node17&#45;&gt;Node26</title>
<path fill="none" stroke="midnightblue" d="M466.294,-305.242C469.368,-293.091 475.409,-269.702 481.227,-250 484.352,-239.416 488.138,-227.659 491.243,-218.26"/>
<polygon fill="midnightblue" stroke="midnightblue" points="494.648,-219.114 494.495,-208.52 488.008,-216.897 494.648,-219.114"/>
</g>
<!-- Node27 -->
<g id="node27" class="node"><title>Node27</title>
<polygon fill="white" stroke="#bfbfbf" points="344.17,-250.5 344.17,-268.5 396.283,-268.5 396.283,-250.5 344.17,-250.5"/>
<text text-anchor="middle" x="370.227" y="-256.5" font-family="Helvetica,sans-Serif" font-size="10.00">memory</text>
</g>
<!-- Node17&#45;&gt;Node27 -->
<g id="edge42" class="edge"><title>Node17&#45;&gt;Node27</title>
<path fill="none" stroke="midnightblue" d="M449.95,-305.45C435.043,-297.045 411.417,-283.724 393.748,-273.762"/>
<polygon fill="midnightblue" stroke="midnightblue" points="395.067,-270.488 384.637,-268.625 391.629,-276.586 395.067,-270.488"/>
</g>
<!-- Node18&#45;&gt;Node6 -->
<g id="edge24" class="edge"><title>Node18&#45;&gt;Node6</title>
<path fill="none" stroke="midnightblue" d="M120.516,-65.4353C132.092,-56.3619 151.138,-41.434 165.396,-30.2589"/>
<polygon fill="midnightblue" stroke="midnightblue" points="167.834,-32.7953 173.545,-23.8718 163.516,-27.2859 167.834,-32.7953"/>
</g>
<!-- Node18&#45;&gt;Node8 -->
<g id="edge25" class="edge"><title>Node18&#45;&gt;Node8</title>
<path fill="none" stroke="midnightblue" d="M130.951,-65.4985C153.493,-56.741 190.548,-42.187 222.227,-29 223.256,-28.5714 224.304,-28.132 225.361,-27.6859"/>
<polygon fill="midnightblue" stroke="midnightblue" points="227.097,-30.75 234.91,-23.5941 224.339,-24.3159 227.097,-30.75"/>
</g>
<!-- Node19 -->
<g id="node19" class="node"><title>Node19</title>
<polygon fill="white" stroke="#bfbfbf" points="77.8228,-5.5 77.8228,-23.5 136.63,-23.5 136.63,-5.5 77.8228,-5.5"/>
<text text-anchor="middle" x="107.227" y="-11.5" font-family="Helvetica,sans-Serif" font-size="10.00">exception</text>
</g>
<!-- Node18&#45;&gt;Node19 -->
<g id="edge23" class="edge"><title>Node18&#45;&gt;Node19</title>
<path fill="none" stroke="midnightblue" d="M109.809,-65.4353C109.393,-57.3891 108.739,-44.7388 108.193,-34.1846"/>
<polygon fill="midnightblue" stroke="midnightblue" points="111.672,-33.6776 107.66,-23.8718 104.681,-34.0392 111.672,-33.6776"/>
</g>
<!-- Node20&#45;&gt;Node4 -->
<g id="edge27" class="edge"><title>Node20&#45;&gt;Node4</title>
<path fill="none" stroke="midnightblue" d="M625.499,-65.9924C569.011,-58.9808 487.184,-46.8871 417.227,-29 414.734,-28.3626 412.174,-27.6301 409.617,-26.8428"/>
<polygon fill="midnightblue" stroke="midnightblue" points="410.515,-23.4531 399.921,-23.6205 408.307,-30.0958 410.515,-23.4531"/>
</g>
<!-- Node20&#45;&gt;Node15 -->
<g id="edge28" class="edge"><title>Node20&#45;&gt;Node15</title>
<path fill="none" stroke="midnightblue" d="M712.998,-65.4353C736.125,-55.4992 775.594,-38.542 802.038,-27.1811"/>
<polygon fill="midnightblue" stroke="midnightblue" points="803.667,-30.2904 811.474,-23.1272 800.904,-23.8589 803.667,-30.2904"/>
</g>
<!-- Node21 -->
<g id="node21" class="node"><title>Node21</title>
<polygon fill="white" stroke="#bfbfbf" points="721.557,-5.5 721.557,-23.5 750.896,-23.5 750.896,-5.5 721.557,-5.5"/>
<text text-anchor="middle" x="736.227" y="-11.5" font-family="Helvetica,sans-Serif" font-size="10.00">set</text>
</g>
<!-- Node20&#45;&gt;Node21 -->
<g id="edge29" class="edge"><title>Node20&#45;&gt;Node21</title>
<path fill="none" stroke="midnightblue" d="M700.066,-65.4353C706.265,-56.8755 716.237,-43.1052 724.14,-32.1909"/>
<polygon fill="midnightblue" stroke="midnightblue" points="727.134,-34.024 730.164,-23.8718 721.464,-29.9184 727.134,-34.024"/>
</g>
<!-- Node22&#45;&gt;Node15 -->
<g id="edge36" class="edge"><title>Node22&#45;&gt;Node15</title>
<path fill="none" stroke="midnightblue" d="M698.557,-185.33C716.634,-176.956 738.44,-164.719 754.227,-149 788.818,-114.556 812.373,-60.8391 822.927,-33.2187"/>
<polygon fill="midnightblue" stroke="midnightblue" points="826.259,-34.2985 826.438,-23.7051 819.692,-31.8748 826.259,-34.2985"/>
</g>
<!-- Node22&#45;&gt;Node21 -->
<g id="edge37" class="edge"><title>Node22&#45;&gt;Node21</title>
<path fill="none" stroke="midnightblue" d="M684.457,-185.316C710.168,-166.384 754.553,-128.797 772.227,-84 779.728,-64.9866 765.598,-44.3789 752.899,-30.7872"/>
<polygon fill="midnightblue" stroke="midnightblue" points="755.311,-28.2494 745.761,-23.6605 750.365,-33.2029 755.311,-28.2494"/>
</g>
<!-- Node23 -->
<g id="node23" class="node"><title>Node23</title>
<g id="a_node23"><a xlink:href="xmm_phrase_8hpp.html" target="_top" xlink:title="xmmPhrase.hpp">
<polygon fill="white" stroke="black" points="568.823,-125.5 568.823,-143.5 657.63,-143.5 657.63,-125.5 568.823,-125.5"/>
<text text-anchor="middle" x="613.227" y="-131.5" font-family="Helvetica,sans-Serif" font-size="10.00">xmmPhrase.hpp</text>
</a>
</g>
</g>
<!-- Node22&#45;&gt;Node23 -->
<g id="edge31" class="edge"><title>Node22&#45;&gt;Node23</title>
<path fill="none" stroke="midnightblue" d="M654.452,-185.446C646.364,-175.648 635.242,-162.172 626.588,-151.687"/>
<polygon fill="midnightblue" stroke="midnightblue" points="629.085,-149.214 620.02,-143.73 623.686,-153.67 629.085,-149.214"/>
</g>
<!-- Node23&#45;&gt;Node3 -->
<g id="edge32" class="edge"><title>Node23&#45;&gt;Node3</title>
<path fill="none" stroke="midnightblue" d="M583.038,-125.447C575.603,-123.565 567.645,-121.634 560.227,-120 498.849,-106.484 428.01,-93.6356 379.484,-85.2511"/>
<polygon fill="midnightblue" stroke="midnightblue" points="379.928,-81.7761 369.479,-83.531 378.742,-88.6749 379.928,-81.7761"/>
</g>
<!-- Node23&#45;&gt;Node9 -->
<g id="edge34" class="edge"><title>Node23&#45;&gt;Node9</title>
<path fill="none" stroke="midnightblue" d="M595.151,-125.435C573.348,-115.708 536.462,-99.2511 511.029,-87.9041"/>
<polygon fill="midnightblue" stroke="midnightblue" points="512.126,-84.5613 501.568,-83.6831 509.274,-90.9539 512.126,-84.5613"/>
</g>
<!-- Node23&#45;&gt;Node20 -->
<g id="edge33" class="edge"><title>Node23&#45;&gt;Node20</title>
<path fill="none" stroke="midnightblue" d="M624.489,-125.435C637.353,-116.224 658.643,-100.98 674.322,-89.753"/>
<polygon fill="midnightblue" stroke="midnightblue" points="676.705,-92.3507 682.798,-83.6831 672.63,-86.6594 676.705,-92.3507"/>
</g>
<!-- Node24 -->
<g id="node24" class="node"><title>Node24</title>
<polygon fill="white" stroke="#bfbfbf" points="564.611,-65.5 564.611,-83.5 607.842,-83.5 607.842,-65.5 564.611,-65.5"/>
<text text-anchor="middle" x="586.227" y="-71.5" font-family="Helvetica,sans-Serif" font-size="10.00">cmath</text>
</g>
<!-- Node23&#45;&gt;Node24 -->
<g id="edge35" class="edge"><title>Node23&#45;&gt;Node24</title>
<path fill="none" stroke="midnightblue" d="M609.472,-125.435C605.607,-117.132 599.46,-103.927 594.457,-93.1807"/>
<polygon fill="midnightblue" stroke="midnightblue" points="597.517,-91.4605 590.124,-83.8718 591.171,-94.4147 597.517,-91.4605"/>
</g>
<!-- Node25&#45;&gt;Node20 -->
<g id="edge39" class="edge"><title>Node25&#45;&gt;Node20</title>
<path fill="none" stroke="midnightblue" d="M573.932,-250.236C573.841,-235.502 575.671,-204.423 591.227,-185 614.34,-156.14 641.196,-176.214 666.227,-149 680.497,-133.485 687.738,-109.954 691.239,-93.717"/>
<polygon fill="midnightblue" stroke="midnightblue" points="694.69,-94.305 693.105,-83.8293 687.811,-93.0067 694.69,-94.305"/>
</g>
<!-- Node25&#45;&gt;Node22 -->
<g id="edge40" class="edge"><title>Node25&#45;&gt;Node22</title>
<path fill="none" stroke="midnightblue" d="M586.88,-250.435C599.489,-242.399 619.304,-229.769 635.851,-219.223"/>
<polygon fill="midnightblue" stroke="midnightblue" points="638.09,-221.947 644.641,-213.62 634.327,-216.044 638.09,-221.947"/>
</g>
<!-- Node25&#45;&gt;Node26 -->
<g id="edge41" class="edge"><title>Node25&#45;&gt;Node26</title>
<path fill="none" stroke="midnightblue" d="M563.52,-250.435C551.361,-241.276 531.282,-226.152 516.402,-214.944"/>
<polygon fill="midnightblue" stroke="midnightblue" points="518.434,-212.093 508.341,-208.872 514.223,-217.684 518.434,-212.093"/>
</g>
<!-- Node30&#45;&gt;Node16 -->
<g id="edge47" class="edge"><title>Node30&#45;&gt;Node16</title>
<path fill="none" stroke="midnightblue" d="M342.433,-360.386C326.339,-351.532 299.877,-336.896 277.227,-324 247.219,-306.916 212.828,-286.789 190.836,-273.847"/>
<polygon fill="midnightblue" stroke="midnightblue" points="192.334,-270.668 181.941,-268.607 188.781,-276.699 192.334,-270.668"/>
</g>
<!-- Node30&#45;&gt;Node17 -->
<g id="edge48" class="edge"><title>Node30&#45;&gt;Node17</title>
<path fill="none" stroke="midnightblue" d="M373.478,-360.45C390.839,-351.851 418.59,-338.105 438.838,-328.075"/>
<polygon fill="midnightblue" stroke="midnightblue" points="440.415,-331.2 447.823,-323.625 437.308,-324.928 440.415,-331.2"/>
</g>
<!-- Node30&#45;&gt;Node27 -->
<g id="edge52" class="edge"><title>Node30&#45;&gt;Node27</title>
<path fill="none" stroke="midnightblue" d="M358.204,-360.382C360.274,-343.182 365.147,-302.698 368.013,-278.887"/>
<polygon fill="midnightblue" stroke="midnightblue" points="371.518,-279.058 369.238,-268.712 364.568,-278.222 371.518,-279.058"/>
</g>
<!-- Node31 -->
<g id="node31" class="node"><title>Node31</title>
<g id="a_node31"><a xlink:href="xmm_gmm_parameters_8hpp.html" target="_top" xlink:title="xmmGmmParameters.hpp">
<polygon fill="white" stroke="black" points="283.604,-190.5 283.604,-208.5 416.85,-208.5 416.85,-190.5 283.604,-190.5"/>
<text text-anchor="middle" x="350.227" y="-196.5" font-family="Helvetica,sans-Serif" font-size="10.00">xmmGmmParameters.hpp</text>
</a>
</g>
</g>
<!-- Node30&#45;&gt;Node31 -->
<g id="edge49" class="edge"><title>Node30&#45;&gt;Node31</title>
<path fill="none" stroke="midnightblue" d="M353.876,-360.488C346.31,-341.419 329.031,-291.811 335.227,-250 336.816,-239.274 340.243,-227.654 343.421,-218.369"/>
<polygon fill="midnightblue" stroke="midnightblue" points="346.795,-219.33 346.912,-208.736 340.214,-216.945 346.795,-219.33"/>
</g>
<!-- Node31&#45;&gt;Node2 -->
<g id="edge50" class="edge"><title>Node31&#45;&gt;Node2</title>
<path fill="none" stroke="midnightblue" d="M346.435,-190.264C342.683,-182.112 336.769,-169.264 331.612,-158.061"/>
<polygon fill="midnightblue" stroke="midnightblue" points="334.709,-156.418 327.348,-148.798 328.35,-159.345 334.709,-156.418"/>
</g>
<!-- Node31&#45;&gt;Node14 -->
<g id="edge51" class="edge"><title>Node31&#45;&gt;Node14</title>
<path fill="none" stroke="midnightblue" d="M367.342,-190.393C390.086,-179.619 430.488,-160.481 457.068,-147.891"/>
<polygon fill="midnightblue" stroke="midnightblue" points="458.638,-151.02 466.177,-143.576 455.641,-144.694 458.638,-151.02"/>
</g>
</g>
</svg>
