<?xml version="1.0" encoding="UTF-8" standalone="no"?>
<!DOCTYPE svg PUBLIC "-//W3C//DTD SVG 1.1//EN"
 "http://www.w3.org/Graphics/SVG/1.1/DTD/svg11.dtd">
<!-- Generated by graphviz version 2.38.0 (20140413.2041)
 -->
<!-- Title: xmmModelSingleClass.hpp Pages: 1 -->
<svg width="621pt" height="247pt"
 viewBox="0.00 0.00 620.62 247.00" xmlns="http://www.w3.org/2000/svg" xmlns:xlink="http://www.w3.org/1999/xlink">
<g id="graph0" class="graph" transform="scale(1 1) rotate(0) translate(4 243)">
<title>xmmModelSingleClass.hpp</title>
<polygon fill="white" stroke="none" points="-4,4 -4,-243 616.623,-243 616.623,4 -4,4"/>
<!-- Node1 -->
<g id="node1" class="node"><title>Node1</title>
<polygon fill="#bfbfbf" stroke="black" points="256.419,-220.5 256.419,-238.5 393.581,-238.5 393.581,-220.5 256.419,-220.5"/>
<text text-anchor="middle" x="325" y="-226.5" font-family="Helvetica,sans-Serif" font-size="10.00">xmmModelSingleClass.hpp</text>
</g>
<!-- Node2 -->
<g id="node2" class="node"><title>Node2</title>
<g id="a_node2"><a xlink:href="xmm_model_8hpp.html" target="_top" xlink:title="xmmModel.hpp">
<polygon fill="white" stroke="black" points="75.8203,-165.5 75.8203,-183.5 160.18,-183.5 160.18,-165.5 75.8203,-165.5"/>
<text text-anchor="middle" x="118" y="-171.5" font-family="Helvetica,sans-Serif" font-size="10.00">xmmModel.hpp</text>
</a>
</g>
</g>
<!-- Node1&#45;&gt;Node2 -->
<g id="edge1" class="edge"><title>Node1&#45;&gt;Node2</title>
<path fill="none" stroke="midnightblue" d="M283.693,-217.924C244.122,-207.792 185.271,-192.724 149.395,-183.538"/>
<polygon fill="midnightblue" stroke="midnightblue" points="283.005,-221.361 293.561,-220.45 284.742,-214.579 283.005,-221.361"/>
</g>
<!-- Node8 -->
<g id="node8" class="node"><title>Node8</title>
<g id="a_node8"><a xlink:href="xmm_gmm_single_class_8hpp.html" target="_top" xlink:title="xmmGmmSingleClass.hpp">
<polygon fill="white" stroke="black" points="187.818,-165.5 187.818,-183.5 322.182,-183.5 322.182,-165.5 187.818,-165.5"/>
<text text-anchor="middle" x="255" y="-171.5" font-family="Helvetica,sans-Serif" font-size="10.00">xmmGmmSingleClass.hpp</text>
</a>
</g>
</g>
<!-- Node1&#45;&gt;Node8 -->
<g id="edge9" class="edge"><title>Node1&#45;&gt;Node8</title>
<path fill="none" stroke="midnightblue" d="M306.126,-214.21C293.177,-204.405 276.459,-191.747 265.732,-183.625"/>
<polygon fill="midnightblue" stroke="midnightblue" points="304.283,-217.204 314.369,-220.45 308.509,-211.624 304.283,-217.204"/>
</g>
<!-- Node12 -->
<g id="node12" class="node"><title>Node12</title>
<g id="a_node12"><a xlink:href="xmm_model_single_class_8cpp.html" target="_top" xlink:title="xmmModelSingleClass.cpp">
<polygon fill="white" stroke="black" points="460.7,-165.5 460.7,-183.5 597.3,-183.5 597.3,-165.5 460.7,-165.5"/>
<text text-anchor="middle" x="529" y="-171.5" font-family="Helvetica,sans-Serif" font-size="10.00">xmmModelSingleClass.cpp</text>
</a>
</g>
</g>
<!-- Node1&#45;&gt;Node12 -->
<g id="edge15" class="edge"><title>Node1&#45;&gt;Node12</title>
<path fill="none" stroke="midnightblue" d="M365.957,-217.859C404.952,-207.728 462.779,-192.705 498.06,-183.538"/>
<polygon fill="midnightblue" stroke="midnightblue" points="364.782,-214.548 355.983,-220.45 366.542,-221.323 364.782,-214.548"/>
</g>
<!-- Node13 -->
<g id="node13" class="node"><title>Node13</title>
<g id="a_node13"><a xlink:href="xmm_k_means_8hpp.html" target="_top" xlink:title="xmmKMeans.hpp">
<polygon fill="white" stroke="black" points="349.096,-165.5 349.096,-183.5 442.904,-183.5 442.904,-165.5 349.096,-165.5"/>
<text text-anchor="middle" x="396" y="-171.5" font-family="Helvetica,sans-Serif" font-size="10.00">xmmKMeans.hpp</text>
</a>
</g>
</g>
<!-- Node1&#45;&gt;Node13 -->
<g id="edge16" class="edge"><title>Node1&#45;&gt;Node13</title>
<path fill="none" stroke="midnightblue" d="M344.144,-214.21C357.278,-204.405 374.235,-191.747 385.115,-183.625"/>
<polygon fill="midnightblue" stroke="midnightblue" points="341.703,-211.664 335.783,-220.45 345.891,-217.273 341.703,-211.664"/>
</g>
<!-- Node3 -->
<g id="node3" class="node"><title>Node3</title>
<g id="a_node3"><a xlink:href="xmm_gmm_8hpp.html" target="_top" xlink:title="xmmGmm.hpp">
<polygon fill="white" stroke="black" points="77.2192,-110.5 77.2192,-128.5 158.781,-128.5 158.781,-110.5 77.2192,-110.5"/>
<text text-anchor="middle" x="118" y="-116.5" font-family="Helvetica,sans-Serif" font-size="10.00">xmmGmm.hpp</text>
</a>
</g>
</g>
<!-- Node2&#45;&gt;Node3 -->
<g id="edge2" class="edge"><title>Node2&#45;&gt;Node3</title>
<path fill="none" stroke="midnightblue" d="M118,-155.175C118,-146.094 118,-135.595 118,-128.55"/>
<polygon fill="midnightblue" stroke="midnightblue" points="114.5,-155.219 118,-165.219 121.5,-155.219 114.5,-155.219"/>
</g>
<!-- Node5 -->
<g id="node5" class="node"><title>Node5</title>
<g id="a_node5"><a xlink:href="xmm_hierarchical_hmm_8hpp.html" target="_top" xlink:title="xmmHierarchicalHmm.hpp">
<polygon fill="white" stroke="black" points="51.1011,-55.5 51.1011,-73.5 184.899,-73.5 184.899,-55.5 51.1011,-55.5"/>
<text text-anchor="middle" x="118" y="-61.5" font-family="Helvetica,sans-Serif" font-size="10.00">xmmHierarchicalHmm.hpp</text>
</a>
</g>
</g>
<!-- Node2&#45;&gt;Node5 -->
<g id="edge8" class="edge"><title>Node2&#45;&gt;Node5</title>
<path fill="none" stroke="midnightblue" d="M94.9078,-159.702C77.9997,-147.673 59.3909,-129.187 68,-110 75.2309,-93.8846 91.502,-81.2182 103.529,-73.5865"/>
<polygon fill="midnightblue" stroke="midnightblue" points="93.1757,-162.753 103.441,-165.373 97.0503,-156.923 93.1757,-162.753"/>
</g>
<!-- Node4 -->
<g id="node4" class="node"><title>Node4</title>
<g id="a_node4"><a xlink:href="xmm_8h.html" target="_top" xlink:title="xmm.h">
<polygon fill="white" stroke="black" points="0,-0.5 0,-18.5 46,-18.5 46,-0.5 0,-0.5"/>
<text text-anchor="middle" x="23" y="-6.5" font-family="Helvetica,sans-Serif" font-size="10.00">xmm.h</text>
</a>
</g>
</g>
<!-- Node3&#45;&gt;Node4 -->
<g id="edge3" class="edge"><title>Node3&#45;&gt;Node4</title>
<path fill="none" stroke="midnightblue" d="M86.069,-106.397C70.7652,-99.1214 53.3422,-88.4373 42,-74 28.9197,-57.3503 24.8269,-31.8303 23.5594,-18.7924"/>
<polygon fill="midnightblue" stroke="midnightblue" points="84.6919,-109.615 95.2506,-110.489 87.5418,-103.221 84.6919,-109.615"/>
</g>
<!-- Node3&#45;&gt;Node5 -->
<g id="edge4" class="edge"><title>Node3&#45;&gt;Node5</title>
<path fill="none" stroke="midnightblue" d="M118,-100.175C118,-91.0945 118,-80.5949 118,-73.5496"/>
<polygon fill="midnightblue" stroke="midnightblue" points="114.5,-100.219 118,-110.219 121.5,-100.219 114.5,-100.219"/>
</g>
<!-- Node7 -->
<g id="node7" class="node"><title>Node7</title>
<g id="a_node7"><a xlink:href="xmm_gmm_8cpp.html" target="_top" xlink:title="xmmGmm.cpp">
<polygon fill="white" stroke="black" points="402.5,-55.5 402.5,-73.5 483.5,-73.5 483.5,-55.5 402.5,-55.5"/>
<text text-anchor="middle" x="443" y="-61.5" font-family="Helvetica,sans-Serif" font-size="10.00">xmmGmm.cpp</text>
</a>
</g>
</g>
<!-- Node3&#45;&gt;Node7 -->
<g id="edge7" class="edge"><title>Node3&#45;&gt;Node7</title>
<path fill="none" stroke="midnightblue" d="M168.952,-109.853C258.248,-95.0648 350.725,-80.2192 402.446,-71.9589"/>
<polygon fill="midnightblue" stroke="midnightblue" points="168.218,-106.427 158.925,-111.515 169.363,-113.332 168.218,-106.427"/>
</g>
<!-- Node5&#45;&gt;Node4 -->
<g id="edge5" class="edge"><title>Node5&#45;&gt;Node4</title>
<path fill="none" stroke="midnightblue" d="M94.3893,-50.3277C76.5686,-40.3856 52.6827,-27.0598 37.5642,-18.6253"/>
<polygon fill="midnightblue" stroke="midnightblue" points="93.1334,-53.6349 103.572,-55.4504 96.5439,-47.5218 93.1334,-53.6349"/>
</g>
<!-- Node6 -->
<g id="node6" class="node"><title>Node6</title>
<g id="a_node6"><a xlink:href="xmm_hierarchical_hmm_8cpp.html" target="_top" xlink:title="xmmHierarchicalHmm.cpp">
<polygon fill="white" stroke="black" points="64.3818,-0.5 64.3818,-18.5 197.618,-18.5 197.618,-0.5 64.3818,-0.5"/>
<text text-anchor="middle" x="131" y="-6.5" font-family="Helvetica,sans-Serif" font-size="10.00">xmmHierarchicalHmm.cpp</text>
</a>
</g>
</g>
<!-- Node5&#45;&gt;Node6 -->
<g id="edge6" class="edge"><title>Node5&#45;&gt;Node6</title>
<path fill="none" stroke="midnightblue" d="M122.422,-45.4734C124.665,-36.3257 127.278,-25.6724 129.026,-18.5496"/>
<polygon fill="midnightblue" stroke="midnightblue" points="119.014,-44.6728 120.031,-55.2188 125.813,-46.3404 119.014,-44.6728"/>
</g>
<!-- Node8&#45;&gt;Node3 -->
<g id="edge10" class="edge"><title>Node8&#45;&gt;Node3</title>
<path fill="none" stroke="midnightblue" d="M224.806,-161.819C198.793,-151.756 161.916,-137.489 139.003,-128.625"/>
<polygon fill="midnightblue" stroke="midnightblue" points="223.603,-165.107 234.193,-165.45 226.129,-158.578 223.603,-165.107"/>
</g>
<!-- Node9 -->
<g id="node9" class="node"><title>Node9</title>
<g id="a_node9"><a xlink:href="xmm_hmm_single_class_8hpp.html" target="_top" xlink:title="xmmHmmSingleClass.hpp">
<polygon fill="white" stroke="black" points="177.096,-110.5 177.096,-128.5 310.904,-128.5 310.904,-110.5 177.096,-110.5"/>
<text text-anchor="middle" x="244" y="-116.5" font-family="Helvetica,sans-Serif" font-size="10.00">xmmHmmSingleClass.hpp</text>
</a>
</g>
</g>
<!-- Node8&#45;&gt;Node9 -->
<g id="edge11" class="edge"><title>Node8&#45;&gt;Node9</title>
<path fill="none" stroke="midnightblue" d="M251.197,-155.175C249.312,-146.094 247.133,-135.595 245.671,-128.55"/>
<polygon fill="midnightblue" stroke="midnightblue" points="247.822,-156.139 253.281,-165.219 254.676,-154.716 247.822,-156.139"/>
</g>
<!-- Node11 -->
<g id="node11" class="node"><title>Node11</title>
<g id="a_node11"><a xlink:href="xmm_gmm_single_class_8cpp.html" target="_top" xlink:title="xmmGmmSingleClass.cpp">
<polygon fill="white" stroke="black" points="329.099,-110.5 329.099,-128.5 462.901,-128.5 462.901,-110.5 329.099,-110.5"/>
<text text-anchor="middle" x="396" y="-116.5" font-family="Helvetica,sans-Serif" font-size="10.00">xmmGmmSingleClass.cpp</text>
</a>
</g>
</g>
<!-- Node8&#45;&gt;Node11 -->
<g id="edge14" class="edge"><title>Node8&#45;&gt;Node11</title>
<path fill="none" stroke="midnightblue" d="M286.075,-161.819C312.848,-151.756 350.802,-137.489 374.384,-128.625"/>
<polygon fill="midnightblue" stroke="midnightblue" points="284.544,-158.656 276.415,-165.45 287.007,-165.208 284.544,-158.656"/>
</g>
<!-- Node9&#45;&gt;Node5 -->
<g id="edge12" class="edge"><title>Node9&#45;&gt;Node5</title>
<path fill="none" stroke="midnightblue" d="M215.596,-106.552C191.709,-96.5046 158.204,-82.4113 137.317,-73.6253"/>
<polygon fill="midnightblue" stroke="midnightblue" points="214.288,-109.799 224.863,-110.45 217.003,-103.347 214.288,-109.799"/>
</g>
<!-- Node10 -->
<g id="node10" class="node"><title>Node10</title>
<g id="a_node10"><a xlink:href="xmm_hmm_single_class_8cpp.html" target="_top" xlink:title="xmmHmmSingleClass.cpp">
<polygon fill="white" stroke="black" points="203.377,-55.5 203.377,-73.5 336.623,-73.5 336.623,-55.5 203.377,-55.5"/>
<text text-anchor="middle" x="270" y="-61.5" font-family="Helvetica,sans-Serif" font-size="10.00">xmmHmmSingleClass.cpp</text>
</a>
</g>
</g>
<!-- Node9&#45;&gt;Node10 -->
<g id="edge13" class="edge"><title>Node9&#45;&gt;Node10</title>
<path fill="none" stroke="midnightblue" d="M252.552,-101.068C257.103,-91.7905 262.481,-80.8272 266.051,-73.5496"/>
<polygon fill="midnightblue" stroke="midnightblue" points="249.325,-99.6993 248.062,-110.219 255.609,-102.782 249.325,-99.6993"/>
</g>
<!-- Node13&#45;&gt;Node7 -->
<g id="edge18" class="edge"><title>Node13&#45;&gt;Node7</title>
<path fill="none" stroke="midnightblue" d="M432.851,-161.273C447.765,-154.302 463.454,-143.907 472,-129 482.97,-109.864 463.685,-85.842 451.619,-73.5533"/>
<polygon fill="midnightblue" stroke="midnightblue" points="431.069,-158.228 423.245,-165.373 433.817,-164.667 431.069,-158.228"/>
</g>
<!-- Node13&#45;&gt;Node11 -->
<g id="edge19" class="edge"><title>Node13&#45;&gt;Node11</title>
<path fill="none" stroke="midnightblue" d="M396,-155.175C396,-146.094 396,-135.595 396,-128.55"/>
<polygon fill="midnightblue" stroke="midnightblue" points="392.5,-155.219 396,-165.219 399.5,-155.219 392.5,-155.219"/>
</g>
<!-- Node14 -->
<g id="node14" class="node"><title>Node14</title>
<g id="a_node14"><a xlink:href="xmm_k_means_8cpp.html" target="_top" xlink:title="xmmKMeans.cpp">
<polygon fill="white" stroke="black" points="519.377,-110.5 519.377,-128.5 612.623,-128.5 612.623,-110.5 519.377,-110.5"/>
<text text-anchor="middle" x="566" y="-116.5" font-family="Helvetica,sans-Serif" font-size="10.00">xmmKMeans.cpp</text>
</a>
</g>
</g>
<!-- Node13&#45;&gt;Node14 -->
<g id="edge17" class="edge"><title>Node13&#45;&gt;Node14</title>
<path fill="none" stroke="midnightblue" d="M431.383,-162.469C463.854,-152.345 511.191,-137.588 540.217,-128.538"/>
<polygon fill="midnightblue" stroke="midnightblue" points="430.324,-159.133 421.819,-165.45 432.408,-165.815 430.324,-159.133"/>
</g>
</g>
</svg>
