<?xml version="1.0" encoding="UTF-8" standalone="no"?>
<!DOCTYPE svg PUBLIC "-//W3C//DTD SVG 1.1//EN"
 "http://www.w3.org/Graphics/SVG/1.1/DTD/svg11.dtd">
<!-- Generated by graphviz version 2.38.0 (20140413.2041)
 -->
<!-- Title: xmmModelResults.hpp Pages: 1 -->
<svg width="707pt" height="247pt"
 viewBox="0.00 0.00 706.62 247.00" xmlns="http://www.w3.org/2000/svg" xmlns:xlink="http://www.w3.org/1999/xlink">
<g id="graph0" class="graph" transform="scale(1 1) rotate(0) translate(4 243)">
<title>xmmModelResults.hpp</title>
<polygon fill="white" stroke="none" points="-4,4 -4,-243 702.623,-243 702.623,4 -4,4"/>
<!-- Node1 -->
<g id="node1" class="node"><title>Node1</title>
<polygon fill="#bfbfbf" stroke="black" points="251.148,-220.5 251.148,-238.5 368.852,-238.5 368.852,-220.5 251.148,-220.5"/>
<text text-anchor="middle" x="310" y="-226.5" font-family="Helvetica,sans-Serif" font-size="10.00">xmmModelResults.hpp</text>
</g>
<!-- Node2 -->
<g id="node2" class="node"><title>Node2</title>
<g id="a_node2"><a xlink:href="xmm_model_8hpp.html" target="_top" xlink:title="xmmModel.hpp">
<polygon fill="white" stroke="black" points="69.8203,-165.5 69.8203,-183.5 154.18,-183.5 154.18,-165.5 69.8203,-165.5"/>
<text text-anchor="middle" x="112" y="-171.5" font-family="Helvetica,sans-Serif" font-size="10.00">xmmModel.hpp</text>
</a>
</g>
</g>
<!-- Node1&#45;&gt;Node2 -->
<g id="edge1" class="edge"><title>Node1&#45;&gt;Node2</title>
<path fill="none" stroke="midnightblue" d="M270.248,-217.859C232.399,-207.728 176.274,-192.705 142.03,-183.538"/>
<polygon fill="midnightblue" stroke="midnightblue" points="269.363,-221.246 279.928,-220.45 271.173,-214.484 269.363,-221.246"/>
</g>
<!-- Node8 -->
<g id="node8" class="node"><title>Node8</title>
<g id="a_node8"><a xlink:href="xmm_gmm_single_class_8hpp.html" target="_top" xlink:title="xmmGmmSingleClass.hpp">
<polygon fill="white" stroke="black" points="171.818,-165.5 171.818,-183.5 306.182,-183.5 306.182,-165.5 171.818,-165.5"/>
<text text-anchor="middle" x="239" y="-171.5" font-family="Helvetica,sans-Serif" font-size="10.00">xmmGmmSingleClass.hpp</text>
</a>
</g>
</g>
<!-- Node1&#45;&gt;Node8 -->
<g id="edge9" class="edge"><title>Node1&#45;&gt;Node8</title>
<path fill="none" stroke="midnightblue" d="M290.856,-214.21C277.722,-204.405 260.765,-191.747 249.885,-183.625"/>
<polygon fill="midnightblue" stroke="midnightblue" points="289.109,-217.273 299.217,-220.45 293.297,-211.664 289.109,-217.273"/>
</g>
<!-- Node12 -->
<g id="node12" class="node"><title>Node12</title>
<g id="a_node12"><a xlink:href="xmm_hmm_results_8hpp.html" target="_top" xlink:title="xmmHmmResults.hpp">
<polygon fill="white" stroke="black" points="323.825,-165.5 323.825,-183.5 438.175,-183.5 438.175,-165.5 323.825,-165.5"/>
<text text-anchor="middle" x="381" y="-171.5" font-family="Helvetica,sans-Serif" font-size="10.00">xmmHmmResults.hpp</text>
</a>
</g>
</g>
<!-- Node1&#45;&gt;Node12 -->
<g id="edge15" class="edge"><title>Node1&#45;&gt;Node12</title>
<path fill="none" stroke="midnightblue" d="M329.144,-214.21C342.278,-204.405 359.235,-191.747 370.115,-183.625"/>
<polygon fill="midnightblue" stroke="midnightblue" points="326.703,-211.664 320.783,-220.45 330.891,-217.273 326.703,-211.664"/>
</g>
<!-- Node13 -->
<g id="node13" class="node"><title>Node13</title>
<g id="a_node13"><a xlink:href="xmm_k_means_results_8hpp.html" target="_top" xlink:title="xmmKMeansResults.hpp">
<polygon fill="white" stroke="black" points="456.424,-165.5 456.424,-183.5 583.576,-183.5 583.576,-165.5 456.424,-165.5"/>
<text text-anchor="middle" x="520" y="-171.5" font-family="Helvetica,sans-Serif" font-size="10.00">xmmKMeansResults.hpp</text>
</a>
</g>
</g>
<!-- Node1&#45;&gt;Node13 -->
<g id="edge17" class="edge"><title>Node1&#45;&gt;Node13</title>
<path fill="none" stroke="midnightblue" d="M351.65,-217.988C391.797,-207.856 451.676,-192.744 488.15,-183.538"/>
<polygon fill="midnightblue" stroke="midnightblue" points="350.734,-214.61 341.894,-220.45 352.447,-221.397 350.734,-214.61"/>
</g>
<!-- Node3 -->
<g id="node3" class="node"><title>Node3</title>
<g id="a_node3"><a xlink:href="xmm_gmm_8hpp.html" target="_top" xlink:title="xmmGmm.hpp">
<polygon fill="white" stroke="black" points="103.219,-110.5 103.219,-128.5 184.781,-128.5 184.781,-110.5 103.219,-110.5"/>
<text text-anchor="middle" x="144" y="-116.5" font-family="Helvetica,sans-Serif" font-size="10.00">xmmGmm.hpp</text>
</a>
</g>
</g>
<!-- Node2&#45;&gt;Node3 -->
<g id="edge2" class="edge"><title>Node2&#45;&gt;Node3</title>
<path fill="none" stroke="midnightblue" d="M122.169,-156.658C127.844,-147.259 134.652,-135.982 139.14,-128.55"/>
<polygon fill="midnightblue" stroke="midnightblue" points="119.173,-154.849 117,-165.219 125.165,-158.467 119.173,-154.849"/>
</g>
<!-- Node5 -->
<g id="node5" class="node"><title>Node5</title>
<g id="a_node5"><a xlink:href="xmm_hierarchical_hmm_8hpp.html" target="_top" xlink:title="xmmHierarchicalHmm.hpp">
<polygon fill="white" stroke="black" points="51.1011,-55.5 51.1011,-73.5 184.899,-73.5 184.899,-55.5 51.1011,-55.5"/>
<text text-anchor="middle" x="118" y="-61.5" font-family="Helvetica,sans-Serif" font-size="10.00">xmmHierarchicalHmm.hpp</text>
</a>
</g>
</g>
<!-- Node2&#45;&gt;Node5 -->
<g id="edge8" class="edge"><title>Node2&#45;&gt;Node5</title>
<path fill="none" stroke="midnightblue" d="M102.105,-156.332C95.9934,-143.596 90.016,-125.78 94,-110 97.4809,-96.2128 106.167,-82.0549 112.077,-73.5166"/>
<polygon fill="midnightblue" stroke="midnightblue" points="99.0857,-158.11 106.848,-165.321 105.277,-154.843 99.0857,-158.11"/>
</g>
<!-- Node4 -->
<g id="node4" class="node"><title>Node4</title>
<g id="a_node4"><a xlink:href="xmm_8h.html" target="_top" xlink:title="xmm.h">
<polygon fill="white" stroke="black" points="0,-0.5 0,-18.5 46,-18.5 46,-0.5 0,-0.5"/>
<text text-anchor="middle" x="23" y="-6.5" font-family="Helvetica,sans-Serif" font-size="10.00">xmm.h</text>
</a>
</g>
</g>
<!-- Node3&#45;&gt;Node4 -->
<g id="edge3" class="edge"><title>Node3&#45;&gt;Node4</title>
<path fill="none" stroke="midnightblue" d="M96.698,-107.33C77.3678,-100.589 56.2495,-90.0814 42,-74 27.8054,-57.9806 24.2074,-31.7182 23.301,-18.5537"/>
<polygon fill="midnightblue" stroke="midnightblue" points="95.7088,-110.688 106.301,-110.433 97.8613,-104.028 95.7088,-110.688"/>
</g>
<!-- Node3&#45;&gt;Node5 -->
<g id="edge4" class="edge"><title>Node3&#45;&gt;Node5</title>
<path fill="none" stroke="midnightblue" d="M135.448,-101.068C130.897,-91.7905 125.519,-80.8272 121.949,-73.5496"/>
<polygon fill="midnightblue" stroke="midnightblue" points="132.391,-102.782 139.938,-110.219 138.675,-99.6993 132.391,-102.782"/>
</g>
<!-- Node7 -->
<g id="node7" class="node"><title>Node7</title>
<g id="a_node7"><a xlink:href="xmm_gmm_8cpp.html" target="_top" xlink:title="xmmGmm.cpp">
<polygon fill="white" stroke="black" points="354.5,-55.5 354.5,-73.5 435.5,-73.5 435.5,-55.5 354.5,-55.5"/>
<text text-anchor="middle" x="395" y="-61.5" font-family="Helvetica,sans-Serif" font-size="10.00">xmmGmm.cpp</text>
</a>
</g>
</g>
<!-- Node3&#45;&gt;Node7 -->
<g id="edge7" class="edge"><title>Node3&#45;&gt;Node7</title>
<path fill="none" stroke="midnightblue" d="M191.963,-108.372C239.943,-98.2412 312.783,-82.8606 356.932,-73.5383"/>
<polygon fill="midnightblue" stroke="midnightblue" points="191.183,-104.96 182.121,-110.45 192.629,-111.809 191.183,-104.96"/>
</g>
<!-- Node5&#45;&gt;Node4 -->
<g id="edge5" class="edge"><title>Node5&#45;&gt;Node4</title>
<path fill="none" stroke="midnightblue" d="M94.3893,-50.3277C76.5686,-40.3856 52.6827,-27.0598 37.5642,-18.6253"/>
<polygon fill="midnightblue" stroke="midnightblue" points="93.1334,-53.6349 103.572,-55.4504 96.5439,-47.5218 93.1334,-53.6349"/>
</g>
<!-- Node6 -->
<g id="node6" class="node"><title>Node6</title>
<g id="a_node6"><a xlink:href="xmm_hierarchical_hmm_8cpp.html" target="_top" xlink:title="xmmHierarchicalHmm.cpp">
<polygon fill="white" stroke="black" points="64.3818,-0.5 64.3818,-18.5 197.618,-18.5 197.618,-0.5 64.3818,-0.5"/>
<text text-anchor="middle" x="131" y="-6.5" font-family="Helvetica,sans-Serif" font-size="10.00">xmmHierarchicalHmm.cpp</text>
</a>
</g>
</g>
<!-- Node5&#45;&gt;Node6 -->
<g id="edge6" class="edge"><title>Node5&#45;&gt;Node6</title>
<path fill="none" stroke="midnightblue" d="M122.422,-45.4734C124.665,-36.3257 127.278,-25.6724 129.026,-18.5496"/>
<polygon fill="midnightblue" stroke="midnightblue" points="119.014,-44.6728 120.031,-55.2188 125.813,-46.3404 119.014,-44.6728"/>
</g>
<!-- Node8&#45;&gt;Node3 -->
<g id="edge10" class="edge"><title>Node8&#45;&gt;Node3</title>
<path fill="none" stroke="midnightblue" d="M215.389,-160.328C197.569,-150.386 173.683,-137.06 158.564,-128.625"/>
<polygon fill="midnightblue" stroke="midnightblue" points="214.133,-163.635 224.572,-165.45 217.544,-157.522 214.133,-163.635"/>
</g>
<!-- Node9 -->
<g id="node9" class="node"><title>Node9</title>
<g id="a_node9"><a xlink:href="xmm_hmm_single_class_8hpp.html" target="_top" xlink:title="xmmHmmSingleClass.hpp">
<polygon fill="white" stroke="black" points="203.096,-110.5 203.096,-128.5 336.904,-128.5 336.904,-110.5 203.096,-110.5"/>
<text text-anchor="middle" x="270" y="-116.5" font-family="Helvetica,sans-Serif" font-size="10.00">xmmHmmSingleClass.hpp</text>
</a>
</g>
</g>
<!-- Node8&#45;&gt;Node9 -->
<g id="edge11" class="edge"><title>Node8&#45;&gt;Node9</title>
<path fill="none" stroke="midnightblue" d="M249.023,-156.363C254.486,-147.024 260.99,-135.905 265.292,-128.55"/>
<polygon fill="midnightblue" stroke="midnightblue" points="245.871,-154.82 243.844,-165.219 251.914,-158.354 245.871,-154.82"/>
</g>
<!-- Node11 -->
<g id="node11" class="node"><title>Node11</title>
<g id="a_node11"><a xlink:href="xmm_gmm_single_class_8cpp.html" target="_top" xlink:title="xmmGmmSingleClass.cpp">
<polygon fill="white" stroke="black" points="453.099,-55.5 453.099,-73.5 586.901,-73.5 586.901,-55.5 453.099,-55.5"/>
<text text-anchor="middle" x="520" y="-61.5" font-family="Helvetica,sans-Serif" font-size="10.00">xmmGmmSingleClass.cpp</text>
</a>
</g>
</g>
<!-- Node8&#45;&gt;Node11 -->
<g id="edge14" class="edge"><title>Node8&#45;&gt;Node11</title>
<path fill="none" stroke="midnightblue" d="M269.755,-161.68C327.311,-139.559 449.909,-92.439 499.018,-73.5644"/>
<polygon fill="midnightblue" stroke="midnightblue" points="268.199,-158.528 260.121,-165.382 270.711,-165.062 268.199,-158.528"/>
</g>
<!-- Node9&#45;&gt;Node5 -->
<g id="edge12" class="edge"><title>Node9&#45;&gt;Node5</title>
<path fill="none" stroke="midnightblue" d="M237.26,-107.084C208.361,-97.0074 166.948,-82.5675 141.303,-73.6253"/>
<polygon fill="midnightblue" stroke="midnightblue" points="236.32,-110.463 246.914,-110.45 238.624,-103.853 236.32,-110.463"/>
</g>
<!-- Node10 -->
<g id="node10" class="node"><title>Node10</title>
<g id="a_node10"><a xlink:href="xmm_hmm_single_class_8cpp.html" target="_top" xlink:title="xmmHmmSingleClass.cpp">
<polygon fill="white" stroke="black" points="203.377,-55.5 203.377,-73.5 336.623,-73.5 336.623,-55.5 203.377,-55.5"/>
<text text-anchor="middle" x="270" y="-61.5" font-family="Helvetica,sans-Serif" font-size="10.00">xmmHmmSingleClass.cpp</text>
</a>
</g>
</g>
<!-- Node9&#45;&gt;Node10 -->
<g id="edge13" class="edge"><title>Node9&#45;&gt;Node10</title>
<path fill="none" stroke="midnightblue" d="M270,-100.175C270,-91.0945 270,-80.5949 270,-73.5496"/>
<polygon fill="midnightblue" stroke="midnightblue" points="266.5,-100.219 270,-110.219 273.5,-100.219 266.5,-100.219"/>
</g>
<!-- Node12&#45;&gt;Node9 -->
<g id="edge16" class="edge"><title>Node12&#45;&gt;Node9</title>
<path fill="none" stroke="midnightblue" d="M354.847,-161.013C333.888,-151.005 305.091,-137.255 287.017,-128.625"/>
<polygon fill="midnightblue" stroke="midnightblue" points="353.609,-164.3 364.141,-165.45 356.625,-157.983 353.609,-164.3"/>
</g>
<!-- Node14 -->
<g id="node14" class="node"><title>Node14</title>
<g id="a_node14"><a xlink:href="xmm_k_means_8hpp.html" target="_top" xlink:title="xmmKMeans.hpp">
<polygon fill="white" stroke="black" points="473.096,-110.5 473.096,-128.5 566.904,-128.5 566.904,-110.5 473.096,-110.5"/>
<text text-anchor="middle" x="520" y="-116.5" font-family="Helvetica,sans-Serif" font-size="10.00">xmmKMeans.hpp</text>
</a>
</g>
</g>
<!-- Node13&#45;&gt;Node14 -->
<g id="edge18" class="edge"><title>Node13&#45;&gt;Node14</title>
<path fill="none" stroke="midnightblue" d="M520,-155.175C520,-146.094 520,-135.595 520,-128.55"/>
<polygon fill="midnightblue" stroke="midnightblue" points="516.5,-155.219 520,-165.219 523.5,-155.219 516.5,-155.219"/>
</g>
<!-- Node14&#45;&gt;Node7 -->
<g id="edge20" class="edge"><title>Node14&#45;&gt;Node7</title>
<path fill="none" stroke="midnightblue" d="M491.505,-106.418C467.829,-96.3794 434.793,-82.3722 414.163,-73.6253"/>
<polygon fill="midnightblue" stroke="midnightblue" points="490.442,-109.769 501.015,-110.45 493.175,-103.324 490.442,-109.769"/>
</g>
<!-- Node14&#45;&gt;Node11 -->
<g id="edge21" class="edge"><title>Node14&#45;&gt;Node11</title>
<path fill="none" stroke="midnightblue" d="M520,-100.175C520,-91.0945 520,-80.5949 520,-73.5496"/>
<polygon fill="midnightblue" stroke="midnightblue" points="516.5,-100.219 520,-110.219 523.5,-100.219 516.5,-100.219"/>
</g>
<!-- Node15 -->
<g id="node15" class="node"><title>Node15</title>
<g id="a_node15"><a xlink:href="xmm_k_means_8cpp.html" target="_top" xlink:title="xmmKMeans.cpp">
<polygon fill="white" stroke="black" points="605.377,-55.5 605.377,-73.5 698.623,-73.5 698.623,-55.5 605.377,-55.5"/>
<text text-anchor="middle" x="652" y="-61.5" font-family="Helvetica,sans-Serif" font-size="10.00">xmmKMeans.cpp</text>
</a>
</g>
</g>
<!-- Node14&#45;&gt;Node15 -->
<g id="edge19" class="edge"><title>Node14&#45;&gt;Node15</title>
<path fill="none" stroke="midnightblue" d="M549.424,-106.686C574.469,-96.63 609.784,-82.4503 631.763,-73.6253"/>
<polygon fill="midnightblue" stroke="midnightblue" points="548.024,-103.476 540.048,-110.45 550.632,-109.972 548.024,-103.476"/>
</g>
</g>
</svg>
