<?xml version="1.0" encoding="UTF-8" standalone="no"?>
<!DOCTYPE svg PUBLIC "-//W3C//DTD SVG 1.1//EN"
 "http://www.w3.org/Graphics/SVG/1.1/DTD/svg11.dtd">
<!-- Generated by graphviz version 2.38.0 (20140413.2041)
 -->
<!-- Title: xmmHmmParameters.hpp Pages: 1 -->
<svg width="378pt" height="192pt"
 viewBox="0.00 0.00 378.06 192.00" xmlns="http://www.w3.org/2000/svg" xmlns:xlink="http://www.w3.org/1999/xlink">
<g id="graph0" class="graph" transform="scale(1 1) rotate(0) translate(4 188)">
<title>xmmHmmParameters.hpp</title>
<polygon fill="white" stroke="none" points="-4,4 -4,-188 374.064,-188 374.064,4 -4,4"/>
<!-- Node1 -->
<g id="node1" class="node"><title>Node1</title>
<polygon fill="#bfbfbf" stroke="black" points="161.655,-165.5 161.655,-183.5 294.345,-183.5 294.345,-165.5 161.655,-165.5"/>
<text text-anchor="middle" x="228" y="-171.5" font-family="Helvetica,sans-Serif" font-size="10.00">xmmHmmParameters.hpp</text>
</g>
<!-- Node2 -->
<g id="node2" class="node"><title>Node2</title>
<g id="a_node2"><a xlink:href="xmm_hmm_single_class_8hpp.html" target="_top" xlink:title="xmmHmmSingleClass.hpp">
<polygon fill="white" stroke="black" points="86.0962,-110.5 86.0962,-128.5 219.904,-128.5 219.904,-110.5 86.0962,-110.5"/>
<text text-anchor="middle" x="153" y="-116.5" font-family="Helvetica,sans-Serif" font-size="10.00">xmmHmmSingleClass.hpp</text>
</a>
</g>
</g>
<!-- Node1&#45;&gt;Node2 -->
<g id="edge1" class="edge"><title>Node1&#45;&gt;Node2</title>
<path fill="none" stroke="midnightblue" d="M208.177,-159.492C194.249,-149.649 176.102,-136.826 164.498,-128.625"/>
<polygon fill="midnightblue" stroke="midnightblue" points="206.423,-162.538 216.609,-165.45 210.462,-156.821 206.423,-162.538"/>
</g>
<!-- Node7 -->
<g id="node7" class="node"><title>Node7</title>
<g id="a_node7"><a xlink:href="xmm_hmm_parameters_8cpp.html" target="_top" xlink:title="xmmHmmParameters.cpp">
<polygon fill="white" stroke="black" points="237.936,-110.5 237.936,-128.5 370.064,-128.5 370.064,-110.5 237.936,-110.5"/>
<text text-anchor="middle" x="304" y="-116.5" font-family="Helvetica,sans-Serif" font-size="10.00">xmmHmmParameters.cpp</text>
</a>
</g>
</g>
<!-- Node1&#45;&gt;Node7 -->
<g id="edge6" class="edge"><title>Node1&#45;&gt;Node7</title>
<path fill="none" stroke="midnightblue" d="M248.088,-159.492C262.201,-149.649 280.59,-136.826 292.349,-128.625"/>
<polygon fill="midnightblue" stroke="midnightblue" points="245.743,-156.859 239.543,-165.45 249.747,-162.601 245.743,-156.859"/>
</g>
<!-- Node3 -->
<g id="node3" class="node"><title>Node3</title>
<g id="a_node3"><a xlink:href="xmm_hierarchical_hmm_8hpp.html" target="_top" xlink:title="xmmHierarchicalHmm.hpp">
<polygon fill="white" stroke="black" points="10.1011,-55.5 10.1011,-73.5 143.899,-73.5 143.899,-55.5 10.1011,-55.5"/>
<text text-anchor="middle" x="77" y="-61.5" font-family="Helvetica,sans-Serif" font-size="10.00">xmmHierarchicalHmm.hpp</text>
</a>
</g>
</g>
<!-- Node2&#45;&gt;Node3 -->
<g id="edge2" class="edge"><title>Node2&#45;&gt;Node3</title>
<path fill="none" stroke="midnightblue" d="M132.912,-104.492C118.799,-94.6491 100.41,-81.8255 88.6514,-73.6253"/>
<polygon fill="midnightblue" stroke="midnightblue" points="131.253,-107.601 141.457,-110.45 135.257,-101.859 131.253,-107.601"/>
</g>
<!-- Node6 -->
<g id="node6" class="node"><title>Node6</title>
<g id="a_node6"><a xlink:href="xmm_hmm_single_class_8cpp.html" target="_top" xlink:title="xmmHmmSingleClass.cpp">
<polygon fill="white" stroke="black" points="162.377,-55.5 162.377,-73.5 295.623,-73.5 295.623,-55.5 162.377,-55.5"/>
<text text-anchor="middle" x="229" y="-61.5" font-family="Helvetica,sans-Serif" font-size="10.00">xmmHmmSingleClass.cpp</text>
</a>
</g>
</g>
<!-- Node2&#45;&gt;Node6 -->
<g id="edge5" class="edge"><title>Node2&#45;&gt;Node6</title>
<path fill="none" stroke="midnightblue" d="M173.088,-104.492C187.201,-94.6491 205.59,-81.8255 217.349,-73.6253"/>
<polygon fill="midnightblue" stroke="midnightblue" points="170.743,-101.859 164.543,-110.45 174.747,-107.601 170.743,-101.859"/>
</g>
<!-- Node4 -->
<g id="node4" class="node"><title>Node4</title>
<g id="a_node4"><a xlink:href="xmm_8h.html" target="_top" xlink:title="xmm.h">
<polygon fill="white" stroke="black" points="0,-0.5 0,-18.5 46,-18.5 46,-0.5 0,-0.5"/>
<text text-anchor="middle" x="23" y="-6.5" font-family="Helvetica,sans-Serif" font-size="10.00">xmm.h</text>
</a>
</g>
</g>
<!-- Node3&#45;&gt;Node4 -->
<g id="edge3" class="edge"><title>Node3&#45;&gt;Node4</title>
<path fill="none" stroke="midnightblue" d="M61.3198,-48.1101C51.471,-38.4438 39.1686,-26.3692 31.2014,-18.5496"/>
<polygon fill="midnightblue" stroke="midnightblue" points="58.974,-50.7119 68.5625,-55.2188 63.8773,-45.7161 58.974,-50.7119"/>
</g>
<!-- Node5 -->
<g id="node5" class="node"><title>Node5</title>
<g id="a_node5"><a xlink:href="xmm_hierarchical_hmm_8cpp.html" target="_top" xlink:title="xmmHierarchicalHmm.cpp">
<polygon fill="white" stroke="black" points="64.3818,-0.5 64.3818,-18.5 197.618,-18.5 197.618,-0.5 64.3818,-0.5"/>
<text text-anchor="middle" x="131" y="-6.5" font-family="Helvetica,sans-Serif" font-size="10.00">xmmHierarchicalHmm.cpp</text>
</a>
</g>
</g>
<!-- Node3&#45;&gt;Node5 -->
<g id="edge4" class="edge"><title>Node3&#45;&gt;Node5</title>
<path fill="none" stroke="midnightblue" d="M92.6802,-48.1101C102.529,-38.4438 114.831,-26.3692 122.799,-18.5496"/>
<polygon fill="midnightblue" stroke="midnightblue" points="90.1227,-45.7161 85.4375,-55.2188 95.026,-50.7119 90.1227,-45.7161"/>
</g>
</g>
</svg>
