<?xml version="1.0" encoding="UTF-8" standalone="no"?>
<!DOCTYPE svg PUBLIC "-//W3C//DTD SVG 1.1//EN"
 "http://www.w3.org/Graphics/SVG/1.1/DTD/svg11.dtd">
<!-- Generated by graphviz version 2.38.0 (20140413.2041)
 -->
<!-- Title: xmmCircularbuffer.hpp Pages: 1 -->
<svg width="205pt" height="82pt"
 viewBox="0.00 0.00 205.02 82.00" xmlns="http://www.w3.org/2000/svg" xmlns:xlink="http://www.w3.org/1999/xlink">
<g id="graph0" class="graph" transform="scale(1 1) rotate(0) translate(4 78)">
<title>xmmCircularbuffer.hpp</title>
<polygon fill="white" stroke="none" points="-4,4 -4,-78 201.02,-78 201.02,4 -4,4"/>
<!-- Node1 -->
<g id="node1" class="node"><title>Node1</title>
<polygon fill="#bfbfbf" stroke="black" points="48.1938,-55.5 48.1938,-73.5 164.614,-73.5 164.614,-55.5 48.1938,-55.5"/>
<text text-anchor="middle" x="106.404" y="-61.5" font-family="Helvetica,sans-Serif" font-size="10.00">xmmCircularbuffer.hpp</text>
</g>
<!-- Node2 -->
<g id="node2" class="node"><title>Node2</title>
<polygon fill="white" stroke="#bfbfbf" points="0,-0.5 0,-18.5 58.8076,-18.5 58.8076,-0.5 0,-0.5"/>
<text text-anchor="middle" x="29.4038" y="-6.5" font-family="Helvetica,sans-Serif" font-size="10.00">exception</text>
</g>
<!-- Node1&#45;&gt;Node2 -->
<g id="edge1" class="edge"><title>Node1&#45;&gt;Node2</title>
<path fill="none" stroke="midnightblue" d="M94.7092,-55.4504C82.7241,-47.201 63.8589,-34.2158 49.48,-24.3187"/>
<polygon fill="midnightblue" stroke="midnightblue" points="51.4303,-21.4121 41.2085,-18.6253 47.4614,-27.1782 51.4303,-21.4121"/>
</g>
<!-- Node3 -->
<g id="node3" class="node"><title>Node3</title>
<polygon fill="white" stroke="#bfbfbf" points="77.0024,-0.5 77.0024,-18.5 135.805,-18.5 135.805,-0.5 77.0024,-0.5"/>
<text text-anchor="middle" x="106.404" y="-6.5" font-family="Helvetica,sans-Serif" font-size="10.00">stdexcept</text>
</g>
<!-- Node1&#45;&gt;Node3 -->
<g id="edge2" class="edge"><title>Node1&#45;&gt;Node3</title>
<path fill="none" stroke="midnightblue" d="M106.404,-55.2188C106.404,-48.1769 106.404,-37.8083 106.404,-28.8277"/>
<polygon fill="midnightblue" stroke="midnightblue" points="109.904,-28.5495 106.404,-18.5496 102.904,-28.5496 109.904,-28.5495"/>
</g>
<!-- Node4 -->
<g id="node4" class="node"><title>Node4</title>
<polygon fill="white" stroke="#bfbfbf" points="153.788,-0.5 153.788,-18.5 197.02,-18.5 197.02,-0.5 153.788,-0.5"/>
<text text-anchor="middle" x="175.404" y="-6.5" font-family="Helvetica,sans-Serif" font-size="10.00">vector</text>
</g>
<!-- Node1&#45;&gt;Node4 -->
<g id="edge3" class="edge"><title>Node1&#45;&gt;Node4</title>
<path fill="none" stroke="midnightblue" d="M116.883,-55.4504C127.421,-47.3566 143.893,-34.7042 156.68,-24.8822"/>
<polygon fill="midnightblue" stroke="midnightblue" points="159.027,-27.4926 164.826,-18.6253 154.763,-21.9412 159.027,-27.4926"/>
</g>
</g>
</svg>
