<?xml version="1.0" encoding="UTF-8" standalone="no"?>
<!DOCTYPE svg PUBLIC "-//W3C//DTD SVG 1.1//EN"
 "http://www.w3.org/Graphics/SVG/1.1/DTD/svg11.dtd">
<!-- Generated by graphviz version 2.38.0 (20140413.2041)
 -->
<!-- Title: xmmEvents.hpp Pages: 1 -->
<svg width="167pt" height="82pt"
 viewBox="0.00 0.00 167.07 82.00" xmlns="http://www.w3.org/2000/svg" xmlns:xlink="http://www.w3.org/1999/xlink">
<g id="graph0" class="graph" transform="scale(1 1) rotate(0) translate(4 78)">
<title>xmmEvents.hpp</title>
<polygon fill="white" stroke="none" points="-4,4 -4,-78 163.074,-78 163.074,4 -4,4"/>
<!-- Node1 -->
<g id="node1" class="node"><title>Node1</title>
<polygon fill="#bfbfbf" stroke="black" points="50.5566,-55.5 50.5566,-73.5 138.251,-73.5 138.251,-55.5 50.5566,-55.5"/>
<text text-anchor="middle" x="94.4038" y="-61.5" font-family="Helvetica,sans-Serif" font-size="10.00">xmmEvents.hpp</text>
</g>
<!-- Node2 -->
<g id="node2" class="node"><title>Node2</title>
<polygon fill="white" stroke="#bfbfbf" points="0,-0.5 0,-18.5 58.8076,-18.5 58.8076,-0.5 0,-0.5"/>
<text text-anchor="middle" x="29.4038" y="-6.5" font-family="Helvetica,sans-Serif" font-size="10.00">functional</text>
</g>
<!-- Node1&#45;&gt;Node2 -->
<g id="edge1" class="edge"><title>Node1&#45;&gt;Node2</title>
<path fill="none" stroke="midnightblue" d="M84.5317,-55.4504C74.7008,-47.4345 59.386,-34.9471 47.3907,-25.1663"/>
<polygon fill="midnightblue" stroke="midnightblue" points="49.3308,-22.2322 39.3688,-18.6253 44.9072,-27.6573 49.3308,-22.2322"/>
</g>
<!-- Node3 -->
<g id="node3" class="node"><title>Node3</title>
<polygon fill="white" stroke="#bfbfbf" points="76.6772,-0.5 76.6772,-18.5 112.13,-18.5 112.13,-0.5 76.6772,-0.5"/>
<text text-anchor="middle" x="94.4038" y="-6.5" font-family="Helvetica,sans-Serif" font-size="10.00">map</text>
</g>
<!-- Node1&#45;&gt;Node3 -->
<g id="edge2" class="edge"><title>Node1&#45;&gt;Node3</title>
<path fill="none" stroke="midnightblue" d="M94.4038,-55.2188C94.4038,-48.1769 94.4038,-37.8083 94.4038,-28.8277"/>
<polygon fill="midnightblue" stroke="midnightblue" points="97.9039,-28.5495 94.4038,-18.5496 90.9039,-28.5496 97.9039,-28.5495"/>
</g>
<!-- Node4 -->
<g id="node4" class="node"><title>Node4</title>
<polygon fill="white" stroke="#bfbfbf" points="129.734,-0.5 129.734,-18.5 159.074,-18.5 159.074,-0.5 129.734,-0.5"/>
<text text-anchor="middle" x="144.404" y="-6.5" font-family="Helvetica,sans-Serif" font-size="10.00">set</text>
</g>
<!-- Node1&#45;&gt;Node4 -->
<g id="edge3" class="edge"><title>Node1&#45;&gt;Node4</title>
<path fill="none" stroke="midnightblue" d="M102.216,-55.2188C109.598,-47.3944 120.854,-35.4631 129.883,-25.8921"/>
<polygon fill="midnightblue" stroke="midnightblue" points="132.494,-28.2253 136.81,-18.5496 127.402,-23.4217 132.494,-28.2253"/>
</g>
</g>
</svg>
