<?xml version="1.0" encoding="UTF-8" standalone="no"?>
<!DOCTYPE svg PUBLIC "-//W3C//DTD SVG 1.1//EN"
 "http://www.w3.org/Graphics/SVG/1.1/DTD/svg11.dtd">
<!-- Generated by graphviz version 2.38.0 (20140413.2041)
 -->
<!-- Title: xmmGmm.hpp Pages: 1 -->
<svg width="292pt" height="137pt"
 viewBox="0.00 0.00 291.50 137.00" xmlns="http://www.w3.org/2000/svg" xmlns:xlink="http://www.w3.org/1999/xlink">
<g id="graph0" class="graph" transform="scale(1 1) rotate(0) translate(4 133)">
<title>xmmGmm.hpp</title>
<polygon fill="white" stroke="none" points="-4,4 -4,-133 287.5,-133 287.5,4 -4,4"/>
<!-- Node1 -->
<g id="node1" class="node"><title>Node1</title>
<polygon fill="#bfbfbf" stroke="black" points="77.2192,-110.5 77.2192,-128.5 158.781,-128.5 158.781,-110.5 77.2192,-110.5"/>
<text text-anchor="middle" x="118" y="-116.5" font-family="Helvetica,sans-Serif" font-size="10.00">xmmGmm.hpp</text>
</g>
<!-- Node2 -->
<g id="node2" class="node"><title>Node2</title>
<g id="a_node2"><a xlink:href="xmm_8h.html" target="_top" xlink:title="xmm.h">
<polygon fill="white" stroke="black" points="0,-0.5 0,-18.5 46,-18.5 46,-0.5 0,-0.5"/>
<text text-anchor="middle" x="23" y="-6.5" font-family="Helvetica,sans-Serif" font-size="10.00">xmm.h</text>
</a>
</g>
</g>
<!-- Node1&#45;&gt;Node2 -->
<g id="edge1" class="edge"><title>Node1&#45;&gt;Node2</title>
<path fill="none" stroke="midnightblue" d="M86.069,-106.397C70.7652,-99.1214 53.3422,-88.4373 42,-74 28.9197,-57.3503 24.8269,-31.8303 23.5594,-18.7924"/>
<polygon fill="midnightblue" stroke="midnightblue" points="84.6919,-109.615 95.2506,-110.489 87.5418,-103.221 84.6919,-109.615"/>
</g>
<!-- Node3 -->
<g id="node3" class="node"><title>Node3</title>
<g id="a_node3"><a xlink:href="xmm_hierarchical_hmm_8hpp.html" target="_top" xlink:title="xmmHierarchicalHmm.hpp">
<polygon fill="white" stroke="black" points="51.1011,-55.5 51.1011,-73.5 184.899,-73.5 184.899,-55.5 51.1011,-55.5"/>
<text text-anchor="middle" x="118" y="-61.5" font-family="Helvetica,sans-Serif" font-size="10.00">xmmHierarchicalHmm.hpp</text>
</a>
</g>
</g>
<!-- Node1&#45;&gt;Node3 -->
<g id="edge2" class="edge"><title>Node1&#45;&gt;Node3</title>
<path fill="none" stroke="midnightblue" d="M118,-100.175C118,-91.0945 118,-80.5949 118,-73.5496"/>
<polygon fill="midnightblue" stroke="midnightblue" points="114.5,-100.219 118,-110.219 121.5,-100.219 114.5,-100.219"/>
</g>
<!-- Node5 -->
<g id="node5" class="node"><title>Node5</title>
<g id="a_node5"><a xlink:href="xmm_gmm_8cpp.html" target="_top" xlink:title="xmmGmm.cpp">
<polygon fill="white" stroke="black" points="202.5,-55.5 202.5,-73.5 283.5,-73.5 283.5,-55.5 202.5,-55.5"/>
<text text-anchor="middle" x="243" y="-61.5" font-family="Helvetica,sans-Serif" font-size="10.00">xmmGmm.cpp</text>
</a>
</g>
</g>
<!-- Node1&#45;&gt;Node5 -->
<g id="edge5" class="edge"><title>Node1&#45;&gt;Node5</title>
<path fill="none" stroke="midnightblue" d="M146.495,-106.418C170.171,-96.3794 203.207,-82.3722 223.837,-73.6253"/>
<polygon fill="midnightblue" stroke="midnightblue" points="144.825,-103.324 136.985,-110.45 147.558,-109.769 144.825,-103.324"/>
</g>
<!-- Node3&#45;&gt;Node2 -->
<g id="edge3" class="edge"><title>Node3&#45;&gt;Node2</title>
<path fill="none" stroke="midnightblue" d="M94.3893,-50.3277C76.5686,-40.3856 52.6827,-27.0598 37.5642,-18.6253"/>
<polygon fill="midnightblue" stroke="midnightblue" points="93.1334,-53.6349 103.572,-55.4504 96.5439,-47.5218 93.1334,-53.6349"/>
</g>
<!-- Node4 -->
<g id="node4" class="node"><title>Node4</title>
<g id="a_node4"><a xlink:href="xmm_hierarchical_hmm_8cpp.html" target="_top" xlink:title="xmmHierarchicalHmm.cpp">
<polygon fill="white" stroke="black" points="64.3818,-0.5 64.3818,-18.5 197.618,-18.5 197.618,-0.5 64.3818,-0.5"/>
<text text-anchor="middle" x="131" y="-6.5" font-family="Helvetica,sans-Serif" font-size="10.00">xmmHierarchicalHmm.cpp</text>
</a>
</g>
</g>
<!-- Node3&#45;&gt;Node4 -->
<g id="edge4" class="edge"><title>Node3&#45;&gt;Node4</title>
<path fill="none" stroke="midnightblue" d="M122.422,-45.4734C124.665,-36.3257 127.278,-25.6724 129.026,-18.5496"/>
<polygon fill="midnightblue" stroke="midnightblue" points="119.014,-44.6728 120.031,-55.2188 125.813,-46.3404 119.014,-44.6728"/>
</g>
</g>
</svg>
