<?xml version="1.0" encoding="UTF-8" standalone="no"?>
<!DOCTYPE svg PUBLIC "-//W3C//DTD SVG 1.1//EN"
 "http://www.w3.org/Graphics/SVG/1.1/DTD/svg11.dtd">
<!-- Generated by graphviz version 2.38.0 (20140413.2041)
 -->
<!-- Title: xmmGmmParameters.hpp Pages: 1 -->
<svg width="406pt" height="247pt"
 viewBox="0.00 0.00 405.74 247.00" xmlns="http://www.w3.org/2000/svg" xmlns:xlink="http://www.w3.org/1999/xlink">
<g id="graph0" class="graph" transform="scale(1 1) rotate(0) translate(4 243)">
<title>xmmGmmParameters.hpp</title>
<polygon fill="white" stroke="none" points="-4,4 -4,-243 401.739,-243 401.739,4 -4,4"/>
<!-- Node1 -->
<g id="node1" class="node"><title>Node1</title>
<polygon fill="#bfbfbf" stroke="black" points="188.214,-220.5 188.214,-238.5 321.46,-238.5 321.46,-220.5 188.214,-220.5"/>
<text text-anchor="middle" x="254.837" y="-226.5" font-family="Helvetica,sans-Serif" font-size="10.00">xmmGmmParameters.hpp</text>
</g>
<!-- Node2 -->
<g id="node2" class="node"><title>Node2</title>
<g id="a_node2"><a xlink:href="xmm_gmm_single_class_8hpp.html" target="_top" xlink:title="xmmGmmSingleClass.hpp">
<polygon fill="white" stroke="black" points="111.655,-165.5 111.655,-183.5 246.019,-183.5 246.019,-165.5 111.655,-165.5"/>
<text text-anchor="middle" x="178.837" y="-171.5" font-family="Helvetica,sans-Serif" font-size="10.00">xmmGmmSingleClass.hpp</text>
</a>
</g>
</g>
<!-- Node1&#45;&gt;Node2 -->
<g id="edge1" class="edge"><title>Node1&#45;&gt;Node2</title>
<path fill="none" stroke="midnightblue" d="M234.75,-214.492C220.636,-204.649 202.248,-191.826 190.489,-183.625"/>
<polygon fill="midnightblue" stroke="midnightblue" points="233.09,-217.601 243.295,-220.45 237.094,-211.859 233.09,-217.601"/>
</g>
<!-- Node11 -->
<g id="node11" class="node"><title>Node11</title>
<g id="a_node11"><a xlink:href="xmm_gmm_parameters_8cpp.html" target="_top" xlink:title="xmmGmmParameters.cpp">
<polygon fill="white" stroke="black" points="264.495,-165.5 264.495,-183.5 397.18,-183.5 397.18,-165.5 264.495,-165.5"/>
<text text-anchor="middle" x="330.837" y="-171.5" font-family="Helvetica,sans-Serif" font-size="10.00">xmmGmmParameters.cpp</text>
</a>
</g>
</g>
<!-- Node1&#45;&gt;Node11 -->
<g id="edge12" class="edge"><title>Node1&#45;&gt;Node11</title>
<path fill="none" stroke="midnightblue" d="M274.925,-214.492C289.039,-204.649 307.427,-191.826 319.186,-183.625"/>
<polygon fill="midnightblue" stroke="midnightblue" points="272.58,-211.859 266.38,-220.45 276.585,-217.601 272.58,-211.859"/>
</g>
<!-- Node3 -->
<g id="node3" class="node"><title>Node3</title>
<g id="a_node3"><a xlink:href="xmm_gmm_8hpp.html" target="_top" xlink:title="xmmGmm.hpp">
<polygon fill="white" stroke="black" points="12.0566,-110.5 12.0566,-128.5 93.6181,-128.5 93.6181,-110.5 12.0566,-110.5"/>
<text text-anchor="middle" x="52.8373" y="-116.5" font-family="Helvetica,sans-Serif" font-size="10.00">xmmGmm.hpp</text>
</a>
</g>
</g>
<!-- Node2&#45;&gt;Node3 -->
<g id="edge2" class="edge"><title>Node2&#45;&gt;Node3</title>
<path fill="none" stroke="midnightblue" d="M150.433,-161.552C126.546,-151.505 93.0415,-137.411 72.1541,-128.625"/>
<polygon fill="midnightblue" stroke="midnightblue" points="149.126,-164.799 159.701,-165.45 151.84,-158.347 149.126,-164.799"/>
</g>
<!-- Node8 -->
<g id="node8" class="node"><title>Node8</title>
<g id="a_node8"><a xlink:href="xmm_hmm_single_class_8hpp.html" target="_top" xlink:title="xmmHmmSingleClass.hpp">
<polygon fill="white" stroke="black" points="111.934,-110.5 111.934,-128.5 245.741,-128.5 245.741,-110.5 111.934,-110.5"/>
<text text-anchor="middle" x="178.837" y="-116.5" font-family="Helvetica,sans-Serif" font-size="10.00">xmmHmmSingleClass.hpp</text>
</a>
</g>
</g>
<!-- Node2&#45;&gt;Node8 -->
<g id="edge8" class="edge"><title>Node2&#45;&gt;Node8</title>
<path fill="none" stroke="midnightblue" d="M178.837,-155.175C178.837,-146.094 178.837,-135.595 178.837,-128.55"/>
<polygon fill="midnightblue" stroke="midnightblue" points="175.337,-155.219 178.837,-165.219 182.337,-155.219 175.337,-155.219"/>
</g>
<!-- Node10 -->
<g id="node10" class="node"><title>Node10</title>
<g id="a_node10"><a xlink:href="xmm_gmm_single_class_8cpp.html" target="_top" xlink:title="xmmGmmSingleClass.cpp">
<polygon fill="white" stroke="black" points="263.936,-110.5 263.936,-128.5 397.739,-128.5 397.739,-110.5 263.936,-110.5"/>
<text text-anchor="middle" x="330.837" y="-116.5" font-family="Helvetica,sans-Serif" font-size="10.00">xmmGmmSingleClass.cpp</text>
</a>
</g>
</g>
<!-- Node2&#45;&gt;Node10 -->
<g id="edge11" class="edge"><title>Node2&#45;&gt;Node10</title>
<path fill="none" stroke="midnightblue" d="M211.577,-162.084C240.477,-152.007 281.889,-137.567 307.535,-128.625"/>
<polygon fill="midnightblue" stroke="midnightblue" points="210.213,-158.853 201.923,-165.45 212.518,-165.463 210.213,-158.853"/>
</g>
<!-- Node4 -->
<g id="node4" class="node"><title>Node4</title>
<g id="a_node4"><a xlink:href="xmm_8h.html" target="_top" xlink:title="xmm.h">
<polygon fill="white" stroke="black" points="3.83732,-0.5 3.83732,-18.5 49.8373,-18.5 49.8373,-0.5 3.83732,-0.5"/>
<text text-anchor="middle" x="26.8373" y="-6.5" font-family="Helvetica,sans-Serif" font-size="10.00">xmm.h</text>
</a>
</g>
</g>
<!-- Node3&#45;&gt;Node4 -->
<g id="edge3" class="edge"><title>Node3&#45;&gt;Node4</title>
<path fill="none" stroke="midnightblue" d="M30.0034,-104.699C19.6533,-97.0752 8.48645,-86.5902 2.83732,-74 -5.84703,-54.6452 9.54623,-31.1147 19.4514,-18.8492"/>
<polygon fill="midnightblue" stroke="midnightblue" points="28.1351,-107.661 38.3663,-110.414 32.0844,-101.882 28.1351,-107.661"/>
</g>
<!-- Node5 -->
<g id="node5" class="node"><title>Node5</title>
<g id="a_node5"><a xlink:href="xmm_hierarchical_hmm_8hpp.html" target="_top" xlink:title="xmmHierarchicalHmm.hpp">
<polygon fill="white" stroke="black" points="110.938,-55.5 110.938,-73.5 244.736,-73.5 244.736,-55.5 110.938,-55.5"/>
<text text-anchor="middle" x="177.837" y="-61.5" font-family="Helvetica,sans-Serif" font-size="10.00">xmmHierarchicalHmm.hpp</text>
</a>
</g>
</g>
<!-- Node3&#45;&gt;Node5 -->
<g id="edge4" class="edge"><title>Node3&#45;&gt;Node5</title>
<path fill="none" stroke="midnightblue" d="M81.3325,-106.418C105.009,-96.3794 138.044,-82.3722 158.674,-73.6253"/>
<polygon fill="midnightblue" stroke="midnightblue" points="79.6625,-103.324 71.8221,-110.45 82.395,-109.769 79.6625,-103.324"/>
</g>
<!-- Node7 -->
<g id="node7" class="node"><title>Node7</title>
<g id="a_node7"><a xlink:href="xmm_gmm_8cpp.html" target="_top" xlink:title="xmmGmm.cpp">
<polygon fill="white" stroke="black" points="12.3373,-55.5 12.3373,-73.5 93.3373,-73.5 93.3373,-55.5 12.3373,-55.5"/>
<text text-anchor="middle" x="52.8373" y="-61.5" font-family="Helvetica,sans-Serif" font-size="10.00">xmmGmm.cpp</text>
</a>
</g>
</g>
<!-- Node3&#45;&gt;Node7 -->
<g id="edge7" class="edge"><title>Node3&#45;&gt;Node7</title>
<path fill="none" stroke="midnightblue" d="M52.8373,-100.175C52.8373,-91.0945 52.8373,-80.5949 52.8373,-73.5496"/>
<polygon fill="midnightblue" stroke="midnightblue" points="49.3374,-100.219 52.8373,-110.219 56.3374,-100.219 49.3374,-100.219"/>
</g>
<!-- Node5&#45;&gt;Node4 -->
<g id="edge5" class="edge"><title>Node5&#45;&gt;Node4</title>
<path fill="none" stroke="midnightblue" d="M145.313,-52.0842C116.604,-42.0074 75.4635,-27.5675 49.9868,-18.6253"/>
<polygon fill="midnightblue" stroke="midnightblue" points="144.309,-55.441 154.904,-55.4504 146.627,-48.836 144.309,-55.441"/>
</g>
<!-- Node6 -->
<g id="node6" class="node"><title>Node6</title>
<g id="a_node6"><a xlink:href="xmm_hierarchical_hmm_8cpp.html" target="_top" xlink:title="xmmHierarchicalHmm.cpp">
<polygon fill="white" stroke="black" points="111.219,-0.5 111.219,-18.5 244.455,-18.5 244.455,-0.5 111.219,-0.5"/>
<text text-anchor="middle" x="177.837" y="-6.5" font-family="Helvetica,sans-Serif" font-size="10.00">xmmHierarchicalHmm.cpp</text>
</a>
</g>
</g>
<!-- Node5&#45;&gt;Node6 -->
<g id="edge6" class="edge"><title>Node5&#45;&gt;Node6</title>
<path fill="none" stroke="midnightblue" d="M177.837,-45.1746C177.837,-36.0945 177.837,-25.5949 177.837,-18.5496"/>
<polygon fill="midnightblue" stroke="midnightblue" points="174.337,-45.2187 177.837,-55.2188 181.337,-45.2188 174.337,-45.2187"/>
</g>
<!-- Node8&#45;&gt;Node5 -->
<g id="edge9" class="edge"><title>Node8&#45;&gt;Node5</title>
<path fill="none" stroke="midnightblue" d="M178.492,-100.175C178.32,-91.0945 178.122,-80.5949 177.989,-73.5496"/>
<polygon fill="midnightblue" stroke="midnightblue" points="174.993,-100.287 178.681,-110.219 181.992,-100.154 174.993,-100.287"/>
</g>
<!-- Node9 -->
<g id="node9" class="node"><title>Node9</title>
<g id="a_node9"><a xlink:href="xmm_hmm_single_class_8cpp.html" target="_top" xlink:title="xmmHmmSingleClass.cpp">
<polygon fill="white" stroke="black" points="263.214,-55.5 263.214,-73.5 396.46,-73.5 396.46,-55.5 263.214,-55.5"/>
<text text-anchor="middle" x="329.837" y="-61.5" font-family="Helvetica,sans-Serif" font-size="10.00">xmmHmmSingleClass.cpp</text>
</a>
</g>
</g>
<!-- Node8&#45;&gt;Node9 -->
<g id="edge10" class="edge"><title>Node8&#45;&gt;Node9</title>
<path fill="none" stroke="midnightblue" d="M211.361,-107.084C240.071,-97.0074 281.211,-82.5675 306.688,-73.6253"/>
<polygon fill="midnightblue" stroke="midnightblue" points="210.047,-103.836 201.771,-110.45 212.366,-110.441 210.047,-103.836"/>
</g>
</g>
</svg>
