<?xml version="1.0" encoding="UTF-8" standalone="no"?>
<!DOCTYPE svg PUBLIC "-//W3C//DTD SVG 1.1//EN"
 "http://www.w3.org/Graphics/SVG/1.1/DTD/svg11.dtd">
<!-- Generated by graphviz version 2.38.0 (20140413.2041)
 -->
<!-- Title: xmmAttribute.cpp Pages: 1 -->
<svg width="321pt" height="137pt"
 viewBox="0.00 0.00 320.63 137.00" xmlns="http://www.w3.org/2000/svg" xmlns:xlink="http://www.w3.org/1999/xlink">
<g id="graph0" class="graph" transform="scale(1 1) rotate(0) translate(4 133)">
<title>xmmAttribute.cpp</title>
<polygon fill="white" stroke="none" points="-4,4 -4,-133 316.63,-133 316.63,4 -4,4"/>
<!-- Node1 -->
<g id="node1" class="node"><title>Node1</title>
<polygon fill="#bfbfbf" stroke="black" points="180.502,-110.5 180.502,-128.5 274.305,-128.5 274.305,-110.5 180.502,-110.5"/>
<text text-anchor="middle" x="227.404" y="-116.5" font-family="Helvetica,sans-Serif" font-size="10.00">xmmAttribute.cpp</text>
</g>
<!-- Node2 -->
<g id="node2" class="node"><title>Node2</title>
<g id="a_node2"><a xlink:href="xmm_attribute_8hpp.html" target="_top" xlink:title="xmmAttribute.hpp">
<polygon fill="white" stroke="black" points="129.222,-55.5 129.222,-73.5 223.586,-73.5 223.586,-55.5 129.222,-55.5"/>
<text text-anchor="middle" x="176.404" y="-61.5" font-family="Helvetica,sans-Serif" font-size="10.00">xmmAttribute.hpp</text>
</a>
</g>
</g>
<!-- Node1&#45;&gt;Node2 -->
<g id="edge1" class="edge"><title>Node1&#45;&gt;Node2</title>
<path fill="none" stroke="midnightblue" d="M219.435,-110.219C211.906,-102.394 200.425,-90.4631 191.215,-80.8921"/>
<polygon fill="midnightblue" stroke="midnightblue" points="193.605,-78.3285 184.15,-73.5496 188.561,-83.1821 193.605,-78.3285"/>
</g>
<!-- Node6 -->
<g id="node6" class="node"><title>Node6</title>
<polygon fill="white" stroke="#bfbfbf" points="272.177,-0.5 272.177,-18.5 312.63,-18.5 312.63,-0.5 272.177,-0.5"/>
<text text-anchor="middle" x="292.404" y="-6.5" font-family="Helvetica,sans-Serif" font-size="10.00">string</text>
</g>
<!-- Node1&#45;&gt;Node6 -->
<g id="edge7" class="edge"><title>Node1&#45;&gt;Node6</title>
<path fill="none" stroke="midnightblue" d="M232.289,-110.382C242.877,-92.7913 268.122,-50.8457 282.299,-27.2894"/>
<polygon fill="midnightblue" stroke="midnightblue" points="285.304,-29.0845 287.462,-18.7118 279.306,-25.4749 285.304,-29.0845"/>
</g>
<!-- Node3 -->
<g id="node3" class="node"><title>Node3</title>
<polygon fill="white" stroke="#bfbfbf" points="0,-0.5 0,-18.5 58.8076,-18.5 58.8076,-0.5 0,-0.5"/>
<text text-anchor="middle" x="29.4038" y="-6.5" font-family="Helvetica,sans-Serif" font-size="10.00">functional</text>
</g>
<!-- Node2&#45;&gt;Node3 -->
<g id="edge2" class="edge"><title>Node2&#45;&gt;Node3</title>
<path fill="none" stroke="midnightblue" d="M154.078,-55.4504C129.47,-46.5784 89.6706,-32.2288 61.6716,-22.134"/>
<polygon fill="midnightblue" stroke="midnightblue" points="62.5344,-18.7246 51.9401,-18.6253 60.1602,-25.3096 62.5344,-18.7246"/>
</g>
<!-- Node4 -->
<g id="node4" class="node"><title>Node4</title>
<polygon fill="white" stroke="#bfbfbf" points="77.0171,-0.5 77.0171,-18.5 115.791,-18.5 115.791,-0.5 77.0171,-0.5"/>
<text text-anchor="middle" x="96.4038" y="-6.5" font-family="Helvetica,sans-Serif" font-size="10.00">limits</text>
</g>
<!-- Node2&#45;&gt;Node4 -->
<g id="edge3" class="edge"><title>Node2&#45;&gt;Node4</title>
<path fill="none" stroke="midnightblue" d="M164.254,-55.4504C151.802,-47.201 132.201,-34.2158 117.262,-24.3187"/>
<polygon fill="midnightblue" stroke="midnightblue" points="118.938,-21.2305 108.668,-18.6253 115.072,-27.0661 118.938,-21.2305"/>
</g>
<!-- Node5 -->
<g id="node5" class="node"><title>Node5</title>
<polygon fill="white" stroke="#bfbfbf" points="134.002,-0.5 134.002,-18.5 192.805,-18.5 192.805,-0.5 134.002,-0.5"/>
<text text-anchor="middle" x="163.404" y="-6.5" font-family="Helvetica,sans-Serif" font-size="10.00">stdexcept</text>
</g>
<!-- Node2&#45;&gt;Node5 -->
<g id="edge4" class="edge"><title>Node2&#45;&gt;Node5</title>
<path fill="none" stroke="midnightblue" d="M174.373,-55.2188C172.626,-48.0986 170.045,-37.5775 167.826,-28.5289"/>
<polygon fill="midnightblue" stroke="midnightblue" points="171.16,-27.4279 165.378,-18.5496 164.361,-29.0955 171.16,-27.4279"/>
</g>
<!-- Node2&#45;&gt;Node6 -->
<g id="edge5" class="edge"><title>Node2&#45;&gt;Node6</title>
<path fill="none" stroke="midnightblue" d="M194.022,-55.4504C213.014,-46.7729 243.475,-32.8556 265.474,-22.8041"/>
<polygon fill="midnightblue" stroke="midnightblue" points="266.979,-25.9646 274.62,-18.6253 264.07,-19.5977 266.979,-25.9646"/>
</g>
<!-- Node7 -->
<g id="node7" class="node"><title>Node7</title>
<polygon fill="white" stroke="#bfbfbf" points="210.788,-0.5 210.788,-18.5 254.02,-18.5 254.02,-0.5 210.788,-0.5"/>
<text text-anchor="middle" x="232.404" y="-6.5" font-family="Helvetica,sans-Serif" font-size="10.00">vector</text>
</g>
<!-- Node2&#45;&gt;Node7 -->
<g id="edge6" class="edge"><title>Node2&#45;&gt;Node7</title>
<path fill="none" stroke="midnightblue" d="M185.154,-55.2188C193.504,-47.3162 206.28,-35.2241 216.443,-25.6057"/>
<polygon fill="midnightblue" stroke="midnightblue" points="219.042,-27.9655 223.899,-18.5496 214.23,-22.8814 219.042,-27.9655"/>
</g>
</g>
</svg>
