<?xml version="1.0" encoding="UTF-8" standalone="no"?>
<!DOCTYPE svg PUBLIC "-//W3C//DTD SVG 1.1//EN"
 "http://www.w3.org/Graphics/SVG/1.1/DTD/svg11.dtd">
<!-- Generated by graphviz version 2.38.0 (20140413.2041)
 -->
<!-- Title: xmmHierarchicalHmm.cpp Pages: 1 -->
<svg width="1044pt" height="552pt"
 viewBox="0.00 0.00 1043.92 552.00" xmlns="http://www.w3.org/2000/svg" xmlns:xlink="http://www.w3.org/1999/xlink">
<g id="graph0" class="graph" transform="scale(1 1) rotate(0) translate(4 548)">
<title>xmmHierarchicalHmm.cpp</title>
<polygon fill="white" stroke="none" points="-4,4 -4,-548 1039.92,-548 1039.92,4 -4,4"/>
<!-- Node1 -->
<g id="node1" class="node"><title>Node1</title>
<polygon fill="#bfbfbf" stroke="black" points="494.382,-525.5 494.382,-543.5 627.618,-543.5 627.618,-525.5 494.382,-525.5"/>
<text text-anchor="middle" x="561" y="-531.5" font-family="Helvetica,sans-Serif" font-size="10.00">xmmHierarchicalHmm.cpp</text>
</g>
<!-- Node2 -->
<g id="node2" class="node"><title>Node2</title>
<g id="a_node2"><a xlink:href="xmm_hierarchical_hmm_8hpp.html" target="_top" xlink:title="xmmHierarchicalHmm.hpp">
<polygon fill="white" stroke="black" points="438.101,-470.5 438.101,-488.5 571.899,-488.5 571.899,-470.5 438.101,-470.5"/>
<text text-anchor="middle" x="505" y="-476.5" font-family="Helvetica,sans-Serif" font-size="10.00">xmmHierarchicalHmm.hpp</text>
</a>
</g>
</g>
<!-- Node1&#45;&gt;Node2 -->
<g id="edge1" class="edge"><title>Node1&#45;&gt;Node2</title>
<path fill="none" stroke="midnightblue" d="M552.25,-525.219C543.9,-517.316 531.124,-505.224 520.961,-495.606"/>
<polygon fill="midnightblue" stroke="midnightblue" points="523.174,-492.881 513.505,-488.55 518.362,-497.965 523.174,-492.881"/>
</g>
<!-- Node37 -->
<g id="node37" class="node"><title>Node37</title>
<polygon fill="white" stroke="#bfbfbf" points="589.436,-470.5 589.436,-488.5 646.564,-488.5 646.564,-470.5 589.436,-470.5"/>
<text text-anchor="middle" x="618" y="-476.5" font-family="Helvetica,sans-Serif" font-size="10.00">algorithm</text>
</g>
<!-- Node1&#45;&gt;Node37 -->
<g id="edge63" class="edge"><title>Node1&#45;&gt;Node37</title>
<path fill="none" stroke="midnightblue" d="M569.906,-525.219C578.405,-517.316 591.41,-505.224 601.754,-495.606"/>
<polygon fill="midnightblue" stroke="midnightblue" points="604.403,-497.922 609.343,-488.55 599.636,-492.796 604.403,-497.922"/>
</g>
<!-- Node3 -->
<g id="node3" class="node"><title>Node3</title>
<g id="a_node3"><a xlink:href="xmm_model_8hpp.html" target="_top" xlink:title="../../core/model/xmmModel.hpp">
<polygon fill="white" stroke="black" points="513.362,-360.5 513.362,-378.5 666.638,-378.5 666.638,-360.5 513.362,-360.5"/>
<text text-anchor="middle" x="590" y="-366.5" font-family="Helvetica,sans-Serif" font-size="10.00">../../core/model/xmmModel.hpp</text>
</a>
</g>
</g>
<!-- Node2&#45;&gt;Node3 -->
<g id="edge2" class="edge"><title>Node2&#45;&gt;Node3</title>
<path fill="none" stroke="midnightblue" d="M523.558,-470.37C538.443,-462.941 558.8,-450.588 571,-434 580.801,-420.674 585.586,-402.292 587.898,-388.734"/>
<polygon fill="midnightblue" stroke="midnightblue" points="591.382,-389.087 589.314,-378.696 584.451,-388.109 591.382,-389.087"/>
</g>
<!-- Node30 -->
<g id="node30" class="node"><title>Node30</title>
<g id="a_node30"><a xlink:href="xmm_gmm_8hpp.html" target="_top" xlink:title="../gmm/xmmGmm.hpp">
<polygon fill="white" stroke="black" points="447.552,-415.5 447.552,-433.5 562.448,-433.5 562.448,-415.5 447.552,-415.5"/>
<text text-anchor="middle" x="505" y="-421.5" font-family="Helvetica,sans-Serif" font-size="10.00">../gmm/xmmGmm.hpp</text>
</a>
</g>
</g>
<!-- Node2&#45;&gt;Node30 -->
<g id="edge44" class="edge"><title>Node2&#45;&gt;Node30</title>
<path fill="none" stroke="midnightblue" d="M505,-470.219C505,-463.177 505,-452.808 505,-443.828"/>
<polygon fill="midnightblue" stroke="midnightblue" points="508.5,-443.55 505,-433.55 501.5,-443.55 508.5,-443.55"/>
</g>
<!-- Node34 -->
<g id="node34" class="node"><title>Node34</title>
<g id="a_node34"><a xlink:href="xmm_hmm_single_class_8hpp.html" target="_top" xlink:title="xmmHmmSingleClass.hpp">
<polygon fill="white" stroke="black" points="296.096,-415.5 296.096,-433.5 429.904,-433.5 429.904,-415.5 296.096,-415.5"/>
<text text-anchor="middle" x="363" y="-421.5" font-family="Helvetica,sans-Serif" font-size="10.00">xmmHmmSingleClass.hpp</text>
</a>
</g>
</g>
<!-- Node2&#45;&gt;Node34 -->
<g id="edge56" class="edge"><title>Node2&#45;&gt;Node34</title>
<path fill="none" stroke="midnightblue" d="M483.433,-470.45C459.663,-461.578 421.217,-447.229 394.17,-437.134"/>
<polygon fill="midnightblue" stroke="midnightblue" points="395.362,-433.843 384.77,-433.625 392.915,-440.401 395.362,-433.843"/>
</g>
<!-- Node4 -->
<g id="node4" class="node"><title>Node4</title>
<g id="a_node4"><a xlink:href="xmm_model_configuration_8hpp.html" target="_top" xlink:title="xmmModelConfiguration.hpp">
<polygon fill="white" stroke="black" points="892.079,-190.5 892.079,-208.5 1035.92,-208.5 1035.92,-190.5 892.079,-190.5"/>
<text text-anchor="middle" x="964" y="-196.5" font-family="Helvetica,sans-Serif" font-size="10.00">xmmModelConfiguration.hpp</text>
</a>
</g>
</g>
<!-- Node3&#45;&gt;Node4 -->
<g id="edge3" class="edge"><title>Node3&#45;&gt;Node4</title>
<path fill="none" stroke="midnightblue" d="M610.487,-360.431C651.804,-344.04 747.924,-305.32 827,-269 866.816,-250.712 912.13,-227.59 939.372,-213.431"/>
<polygon fill="midnightblue" stroke="midnightblue" points="941.299,-216.374 948.547,-208.646 938.062,-210.167 941.299,-216.374"/>
</g>
<!-- Node16 -->
<g id="node16" class="node"><title>Node16</title>
<g id="a_node16"><a xlink:href="xmm_model_results_8hpp.html" target="_top" xlink:title="xmmModelResults.hpp">
<polygon fill="white" stroke="black" points="130.148,-305.5 130.148,-323.5 247.852,-323.5 247.852,-305.5 130.148,-305.5"/>
<text text-anchor="middle" x="189" y="-311.5" font-family="Helvetica,sans-Serif" font-size="10.00">xmmModelResults.hpp</text>
</a>
</g>
</g>
<!-- Node3&#45;&gt;Node16 -->
<g id="edge16" class="edge"><title>Node3&#45;&gt;Node16</title>
<path fill="none" stroke="midnightblue" d="M529.097,-360.45C456.127,-350.806 334.184,-334.689 257.856,-324.601"/>
<polygon fill="midnightblue" stroke="midnightblue" points="258.232,-321.12 247.859,-323.279 257.314,-328.06 258.232,-321.12"/>
</g>
<!-- Node17 -->
<g id="node17" class="node"><title>Node17</title>
<g id="a_node17"><a xlink:href="xmm_model_single_class_8hpp.html" target="_top" xlink:title="xmmModelSingleClass.hpp">
<polygon fill="white" stroke="black" points="505.419,-305.5 505.419,-323.5 642.581,-323.5 642.581,-305.5 505.419,-305.5"/>
<text text-anchor="middle" x="574" y="-311.5" font-family="Helvetica,sans-Serif" font-size="10.00">xmmModelSingleClass.hpp</text>
</a>
</g>
</g>
<!-- Node3&#45;&gt;Node17 -->
<g id="edge19" class="edge"><title>Node3&#45;&gt;Node17</title>
<path fill="none" stroke="midnightblue" d="M587.5,-360.219C585.327,-353.02 582.104,-342.346 579.353,-333.231"/>
<polygon fill="midnightblue" stroke="midnightblue" points="582.671,-332.111 576.43,-323.55 575.97,-334.134 582.671,-332.111"/>
</g>
<!-- Node28 -->
<g id="node28" class="node"><title>Node28</title>
<polygon fill="white" stroke="#bfbfbf" points="894.273,-305.5 894.273,-323.5 939.727,-323.5 939.727,-305.5 894.273,-305.5"/>
<text text-anchor="middle" x="917" y="-311.5" font-family="Helvetica,sans-Serif" font-size="10.00">atomic</text>
</g>
<!-- Node3&#45;&gt;Node28 -->
<g id="edge42" class="edge"><title>Node3&#45;&gt;Node28</title>
<path fill="none" stroke="midnightblue" d="M651.045,-360.463C709.886,-352.402 801.329,-339.051 880,-324 881.274,-323.756 882.572,-323.5 883.881,-323.234"/>
<polygon fill="midnightblue" stroke="midnightblue" points="884.921,-326.59 893.963,-321.068 883.451,-319.746 884.921,-326.59"/>
</g>
<!-- Node29 -->
<g id="node29" class="node"><title>Node29</title>
<polygon fill="white" stroke="#bfbfbf" points="957.823,-305.5 957.823,-323.5 1002.18,-323.5 1002.18,-305.5 957.823,-305.5"/>
<text text-anchor="middle" x="980" y="-311.5" font-family="Helvetica,sans-Serif" font-size="10.00">thread</text>
</g>
<!-- Node3&#45;&gt;Node29 -->
<g id="edge43" class="edge"><title>Node3&#45;&gt;Node29</title>
<path fill="none" stroke="midnightblue" d="M666.845,-362.21C737.603,-355.681 845.58,-343.858 947.861,-323.967"/>
<polygon fill="midnightblue" stroke="midnightblue" points="948.608,-327.387 957.74,-322.017 947.252,-320.52 948.608,-327.387"/>
</g>
<!-- Node5 -->
<g id="node5" class="node"><title>Node5</title>
<g id="a_node5"><a xlink:href="xmm_model_parameters_8hpp.html" target="_top" xlink:title="xmmModelParameters.hpp">
<polygon fill="white" stroke="black" points="407.978,-125.5 407.978,-143.5 544.022,-143.5 544.022,-125.5 407.978,-125.5"/>
<text text-anchor="middle" x="476" y="-131.5" font-family="Helvetica,sans-Serif" font-size="10.00">xmmModelParameters.hpp</text>
</a>
</g>
</g>
<!-- Node4&#45;&gt;Node5 -->
<g id="edge4" class="edge"><title>Node4&#45;&gt;Node5</title>
<path fill="none" stroke="midnightblue" d="M918.658,-190.479C907.053,-188.554 894.581,-186.595 883,-185 736.844,-164.865 699.07,-169.75 553,-149 545.253,-147.899 537.089,-146.61 529.09,-145.272"/>
<polygon fill="midnightblue" stroke="midnightblue" points="529.537,-141.798 519.09,-143.563 528.357,-148.698 529.537,-141.798"/>
</g>
<!-- Node15 -->
<g id="node15" class="node"><title>Node15</title>
<polygon fill="white" stroke="#bfbfbf" points="816.273,-5.5 816.273,-23.5 851.727,-23.5 851.727,-5.5 816.273,-5.5"/>
<text text-anchor="middle" x="834" y="-11.5" font-family="Helvetica,sans-Serif" font-size="10.00">map</text>
</g>
<!-- Node4&#45;&gt;Node15 -->
<g id="edge15" class="edge"><title>Node4&#45;&gt;Node15</title>
<path fill="none" stroke="midnightblue" d="M958.076,-190.161C938.112,-162.057 873.027,-70.4383 845.968,-32.3473"/>
<polygon fill="midnightblue" stroke="midnightblue" points="848.603,-30.013 839.958,-23.8876 842.896,-34.067 848.603,-30.013"/>
</g>
<!-- Node6 -->
<g id="node6" class="node"><title>Node6</title>
<g id="a_node6"><a xlink:href="xmm_attribute_8hpp.html" target="_top" xlink:title="../common/xmmAttribute.hpp">
<polygon fill="white" stroke="black" points="250.089,-65.5 250.089,-83.5 393.911,-83.5 393.911,-65.5 250.089,-65.5"/>
<text text-anchor="middle" x="322" y="-71.5" font-family="Helvetica,sans-Serif" font-size="10.00">../common/xmmAttribute.hpp</text>
</a>
</g>
</g>
<!-- Node5&#45;&gt;Node6 -->
<g id="edge5" class="edge"><title>Node5&#45;&gt;Node6</title>
<path fill="none" stroke="midnightblue" d="M454.587,-125.435C428.302,-115.536 383.511,-98.6664 353.348,-87.3064"/>
<polygon fill="midnightblue" stroke="midnightblue" points="354.32,-83.9323 343.728,-83.6831 351.852,-90.4832 354.32,-83.9323"/>
</g>
<!-- Node12 -->
<g id="node12" class="node"><title>Node12</title>
<g id="a_node12"><a xlink:href="xmm_json_8hpp.html" target="_top" xlink:title="../common/xmmJson.hpp">
<polygon fill="white" stroke="black" points="412.148,-65.5 412.148,-83.5 539.852,-83.5 539.852,-65.5 412.148,-65.5"/>
<text text-anchor="middle" x="476" y="-71.5" font-family="Helvetica,sans-Serif" font-size="10.00">../common/xmmJson.hpp</text>
</a>
</g>
</g>
<!-- Node5&#45;&gt;Node12 -->
<g id="edge11" class="edge"><title>Node5&#45;&gt;Node12</title>
<path fill="none" stroke="midnightblue" d="M476,-125.435C476,-117.389 476,-104.739 476,-94.1846"/>
<polygon fill="midnightblue" stroke="midnightblue" points="479.5,-93.8717 476,-83.8718 472.5,-93.8718 479.5,-93.8717"/>
</g>
<!-- Node7 -->
<g id="node7" class="node"><title>Node7</title>
<polygon fill="white" stroke="#bfbfbf" points="619.596,-5.5 619.596,-23.5 678.404,-23.5 678.404,-5.5 619.596,-5.5"/>
<text text-anchor="middle" x="649" y="-11.5" font-family="Helvetica,sans-Serif" font-size="10.00">functional</text>
</g>
<!-- Node6&#45;&gt;Node7 -->
<g id="edge6" class="edge"><title>Node6&#45;&gt;Node7</title>
<path fill="none" stroke="midnightblue" d="M374.886,-65.4832C428.67,-57.1355 514.343,-43.3017 588,-29 594.939,-27.6526 602.299,-26.1163 609.415,-24.5747"/>
<polygon fill="midnightblue" stroke="midnightblue" points="610.576,-27.9028 619.589,-22.3334 609.07,-21.0667 610.576,-27.9028"/>
</g>
<!-- Node8 -->
<g id="node8" class="node"><title>Node8</title>
<polygon fill="white" stroke="#bfbfbf" points="302.613,-5.5 302.613,-23.5 341.387,-23.5 341.387,-5.5 302.613,-5.5"/>
<text text-anchor="middle" x="322" y="-11.5" font-family="Helvetica,sans-Serif" font-size="10.00">limits</text>
</g>
<!-- Node6&#45;&gt;Node8 -->
<g id="edge7" class="edge"><title>Node6&#45;&gt;Node8</title>
<path fill="none" stroke="midnightblue" d="M322,-65.4353C322,-57.3891 322,-44.7388 322,-34.1846"/>
<polygon fill="midnightblue" stroke="midnightblue" points="325.5,-33.8717 322,-23.8718 318.5,-33.8718 325.5,-33.8717"/>
</g>
<!-- Node9 -->
<g id="node9" class="node"><title>Node9</title>
<polygon fill="white" stroke="#bfbfbf" points="160.599,-5.5 160.599,-23.5 219.401,-23.5 219.401,-5.5 160.599,-5.5"/>
<text text-anchor="middle" x="190" y="-11.5" font-family="Helvetica,sans-Serif" font-size="10.00">stdexcept</text>
</g>
<!-- Node6&#45;&gt;Node9 -->
<g id="edge8" class="edge"><title>Node6&#45;&gt;Node9</title>
<path fill="none" stroke="midnightblue" d="M303.646,-65.4353C281.409,-55.6648 243.722,-39.1053 217.888,-27.7537"/>
<polygon fill="midnightblue" stroke="midnightblue" points="219.187,-24.5016 208.624,-23.6831 216.371,-30.9103 219.187,-24.5016"/>
</g>
<!-- Node10 -->
<g id="node10" class="node"><title>Node10</title>
<polygon fill="white" stroke="#bfbfbf" points="1.77344,-5.5 1.77344,-23.5 42.2266,-23.5 42.2266,-5.5 1.77344,-5.5"/>
<text text-anchor="middle" x="22" y="-11.5" font-family="Helvetica,sans-Serif" font-size="10.00">string</text>
</g>
<!-- Node6&#45;&gt;Node10 -->
<g id="edge9" class="edge"><title>Node6&#45;&gt;Node10</title>
<path fill="none" stroke="midnightblue" d="M269.771,-65.4437C219.217,-57.3452 140.531,-43.9459 73,-29 66.1504,-27.4841 58.8342,-25.6667 51.9437,-23.8641"/>
<polygon fill="midnightblue" stroke="midnightblue" points="52.8219,-20.476 42.2569,-21.2704 51.0113,-27.2378 52.8219,-20.476"/>
</g>
<!-- Node11 -->
<g id="node11" class="node"><title>Node11</title>
<polygon fill="white" stroke="#bfbfbf" points="240.384,-5.5 240.384,-23.5 283.616,-23.5 283.616,-5.5 240.384,-5.5"/>
<text text-anchor="middle" x="262" y="-11.5" font-family="Helvetica,sans-Serif" font-size="10.00">vector</text>
</g>
<!-- Node6&#45;&gt;Node11 -->
<g id="edge10" class="edge"><title>Node6&#45;&gt;Node11</title>
<path fill="none" stroke="midnightblue" d="M313.657,-65.4353C304.448,-56.5331 289.409,-41.9952 277.926,-30.8954"/>
<polygon fill="midnightblue" stroke="midnightblue" points="280.283,-28.3055 270.66,-23.8718 275.418,-33.3385 280.283,-28.3055"/>
</g>
<!-- Node12&#45;&gt;Node11 -->
<g id="edge14" class="edge"><title>Node12&#45;&gt;Node11</title>
<path fill="none" stroke="midnightblue" d="M434.995,-65.4297C397.759,-57.6419 341.558,-44.7344 294,-29 292.386,-28.4661 290.74,-27.8862 289.088,-27.2767"/>
<polygon fill="midnightblue" stroke="midnightblue" points="290.334,-24.0058 279.748,-23.5796 287.758,-30.5145 290.334,-24.0058"/>
</g>
<!-- Node13 -->
<g id="node13" class="node"><title>Node13</title>
<polygon fill="white" stroke="#bfbfbf" points="394.412,-0.5 394.412,-28.5 511.588,-28.5 511.588,-0.5 394.412,-0.5"/>
<text text-anchor="start" x="402.412" y="-16.5" font-family="Helvetica,sans-Serif" font-size="10.00">../../../dependencies</text>
<text text-anchor="middle" x="453" y="-6.5" font-family="Helvetica,sans-Serif" font-size="10.00">/jsoncpp/include/json.h</text>
</g>
<!-- Node12&#45;&gt;Node13 -->
<g id="edge12" class="edge"><title>Node12&#45;&gt;Node13</title>
<path fill="none" stroke="midnightblue" d="M472.802,-65.4353C470.017,-58.4124 465.841,-47.882 462.041,-38.2992"/>
<polygon fill="midnightblue" stroke="midnightblue" points="465.231,-36.8483 458.291,-28.8428 458.724,-39.4288 465.231,-36.8483"/>
</g>
<!-- Node14 -->
<g id="node14" class="node"><title>Node14</title>
<polygon fill="white" stroke="#bfbfbf" points="529.33,-5.5 529.33,-23.5 578.67,-23.5 578.67,-5.5 529.33,-5.5"/>
<text text-anchor="middle" x="554" y="-11.5" font-family="Helvetica,sans-Serif" font-size="10.00">fstream</text>
</g>
<!-- Node12&#45;&gt;Node14 -->
<g id="edge13" class="edge"><title>Node12&#45;&gt;Node14</title>
<path fill="none" stroke="midnightblue" d="M486.846,-65.4353C499.163,-56.2763 519.503,-41.1518 534.576,-29.9437"/>
<polygon fill="midnightblue" stroke="midnightblue" points="536.805,-32.6474 542.741,-23.8718 532.628,-27.0302 536.805,-32.6474"/>
</g>
<!-- Node16&#45;&gt;Node10 -->
<g id="edge17" class="edge"><title>Node16&#45;&gt;Node10</title>
<path fill="none" stroke="midnightblue" d="M137.854,-305.497C81.8807,-293.491 0,-264.917 0,-200.5 0,-200.5 0,-200.5 0,-133.5 0,-97.5037 10.0161,-56.361 16.5318,-33.4053"/>
<polygon fill="midnightblue" stroke="midnightblue" points="19.9225,-34.2808 19.3899,-23.6993 13.2076,-32.3034 19.9225,-34.2808"/>
</g>
<!-- Node16&#45;&gt;Node11 -->
<g id="edge18" class="edge"><title>Node16&#45;&gt;Node11</title>
<path fill="none" stroke="midnightblue" d="M190.111,-305.192C194.486,-273.448 211.735,-156.985 241,-65 244.455,-54.1416 249.389,-42.3844 253.607,-33.054"/>
<polygon fill="midnightblue" stroke="midnightblue" points="256.901,-34.2713 257.947,-23.7282 250.554,-31.3176 256.901,-34.2713"/>
</g>
<!-- Node18 -->
<g id="node18" class="node"><title>Node18</title>
<g id="a_node18"><a xlink:href="xmm_circularbuffer_8hpp.html" target="_top" xlink:title="../common/xmmCircularbuffer.hpp">
<polygon fill="white" stroke="black" points="28.061,-65.5 28.061,-83.5 193.939,-83.5 193.939,-65.5 28.061,-65.5"/>
<text text-anchor="middle" x="111" y="-71.5" font-family="Helvetica,sans-Serif" font-size="10.00">../common/xmmCircularbuffer.hpp</text>
</a>
</g>
</g>
<!-- Node17&#45;&gt;Node18 -->
<g id="edge20" class="edge"><title>Node17&#45;&gt;Node18</title>
<path fill="none" stroke="midnightblue" d="M560.374,-305.361C537.613,-292.075 490.101,-265.64 447,-250 381.74,-226.318 357.844,-243.501 295,-214 225.195,-181.231 156.133,-119.226 126.316,-90.6364"/>
<polygon fill="midnightblue" stroke="midnightblue" points="128.591,-87.9668 118.978,-83.5109 123.714,-92.9885 128.591,-87.9668"/>
</g>
<!-- Node20 -->
<g id="node20" class="node"><title>Node20</title>
<g id="a_node20"><a xlink:href="xmm_events_8hpp.html" target="_top" xlink:title="../common/xmmEvents.hpp">
<polygon fill="white" stroke="black" points="630.424,-65.5 630.424,-83.5 767.576,-83.5 767.576,-65.5 630.424,-65.5"/>
<text text-anchor="middle" x="699" y="-71.5" font-family="Helvetica,sans-Serif" font-size="10.00">../common/xmmEvents.hpp</text>
</a>
</g>
</g>
<!-- Node17&#45;&gt;Node20 -->
<g id="edge24" class="edge"><title>Node17&#45;&gt;Node20</title>
<path fill="none" stroke="midnightblue" d="M577.874,-305.276C583.581,-293.165 594.589,-269.827 604,-250 617.725,-221.086 619.194,-212.831 635,-185 644.497,-168.279 649.061,-165.462 659,-149 670.348,-130.205 682.237,-107.987 690.074,-92.9364"/>
<polygon fill="midnightblue" stroke="midnightblue" points="693.318,-94.2836 694.796,-83.7924 687.098,-91.0719 693.318,-94.2836"/>
</g>
<!-- Node22 -->
<g id="node22" class="node"><title>Node22</title>
<g id="a_node22"><a xlink:href="xmm_training_set_8hpp.html" target="_top" xlink:title="../trainingset/xmmTraining\lSet.hpp">
<polygon fill="white" stroke="black" points="743.664,-185.5 743.664,-213.5 874.336,-213.5 874.336,-185.5 743.664,-185.5"/>
<text text-anchor="start" x="751.664" y="-201.5" font-family="Helvetica,sans-Serif" font-size="10.00">../trainingset/xmmTraining</text>
<text text-anchor="middle" x="809" y="-191.5" font-family="Helvetica,sans-Serif" font-size="10.00">Set.hpp</text>
</a>
</g>
</g>
<!-- Node17&#45;&gt;Node22 -->
<g id="edge28" class="edge"><title>Node17&#45;&gt;Node22</title>
<path fill="none" stroke="midnightblue" d="M642.628,-309.967C704.263,-305.187 788.172,-294.142 809,-269 819.256,-256.619 818.68,-238.212 815.853,-223.596"/>
<polygon fill="midnightblue" stroke="midnightblue" points="819.234,-222.685 813.518,-213.764 812.423,-224.302 819.234,-222.685"/>
</g>
<!-- Node25 -->
<g id="node25" class="node"><title>Node25</title>
<g id="a_node25"><a xlink:href="xmm_model_shared_parameters_8hpp.html" target="_top" xlink:title="xmmModelSharedParameters.hpp">
<polygon fill="white" stroke="black" points="631.855,-250.5 631.855,-268.5 800.145,-268.5 800.145,-250.5 631.855,-250.5"/>
<text text-anchor="middle" x="716" y="-256.5" font-family="Helvetica,sans-Serif" font-size="10.00">xmmModelSharedParameters.hpp</text>
</a>
</g>
</g>
<!-- Node17&#45;&gt;Node25 -->
<g id="edge36" class="edge"><title>Node17&#45;&gt;Node25</title>
<path fill="none" stroke="midnightblue" d="M595.567,-305.45C619.337,-296.578 657.783,-282.229 684.83,-272.134"/>
<polygon fill="midnightblue" stroke="midnightblue" points="686.085,-275.401 694.23,-268.625 683.638,-268.843 686.085,-275.401"/>
</g>
<!-- Node26 -->
<g id="node26" class="node"><title>Node26</title>
<polygon fill="white" stroke="#bfbfbf" points="644.384,-190.5 644.384,-208.5 687.616,-208.5 687.616,-190.5 644.384,-190.5"/>
<text text-anchor="middle" x="666" y="-196.5" font-family="Helvetica,sans-Serif" font-size="10.00">mutex</text>
</g>
<!-- Node17&#45;&gt;Node26 -->
<g id="edge41" class="edge"><title>Node17&#45;&gt;Node26</title>
<path fill="none" stroke="midnightblue" d="M580.192,-305.16C589.345,-292.907 607.118,-269.391 623,-250 632.372,-238.557 643.308,-225.978 651.806,-216.364"/>
<polygon fill="midnightblue" stroke="midnightblue" points="654.518,-218.581 658.546,-208.781 649.286,-213.93 654.518,-218.581"/>
</g>
<!-- Node27 -->
<g id="node27" class="node"><title>Node27</title>
<polygon fill="white" stroke="#bfbfbf" points="385.943,-250.5 385.943,-268.5 438.057,-268.5 438.057,-250.5 385.943,-250.5"/>
<text text-anchor="middle" x="412" y="-256.5" font-family="Helvetica,sans-Serif" font-size="10.00">memory</text>
</g>
<!-- Node17&#45;&gt;Node27 -->
<g id="edge40" class="edge"><title>Node17&#45;&gt;Node27</title>
<path fill="none" stroke="midnightblue" d="M549.396,-305.45C521.841,-296.436 477,-281.765 446.08,-271.65"/>
<polygon fill="midnightblue" stroke="midnightblue" points="447.163,-268.321 436.57,-268.538 444.986,-274.974 447.163,-268.321"/>
</g>
<!-- Node18&#45;&gt;Node9 -->
<g id="edge22" class="edge"><title>Node18&#45;&gt;Node9</title>
<path fill="none" stroke="midnightblue" d="M121.985,-65.4353C134.531,-56.2243 155.295,-40.9797 170.586,-29.753"/>
<polygon fill="midnightblue" stroke="midnightblue" points="172.865,-32.4225 178.854,-23.6831 168.722,-26.7799 172.865,-32.4225"/>
</g>
<!-- Node18&#45;&gt;Node11 -->
<g id="edge23" class="edge"><title>Node18&#45;&gt;Node11</title>
<path fill="none" stroke="midnightblue" d="M132.6,-65.3919C156.107,-56.5431 194.78,-41.9117 228,-29 229.406,-28.4536 230.844,-27.8923 232.295,-27.3237"/>
<polygon fill="midnightblue" stroke="midnightblue" points="233.864,-30.4675 241.883,-23.5435 231.296,-23.9553 233.864,-30.4675"/>
</g>
<!-- Node19 -->
<g id="node19" class="node"><title>Node19</title>
<polygon fill="white" stroke="#bfbfbf" points="81.5962,-5.5 81.5962,-23.5 140.404,-23.5 140.404,-5.5 81.5962,-5.5"/>
<text text-anchor="middle" x="111" y="-11.5" font-family="Helvetica,sans-Serif" font-size="10.00">exception</text>
</g>
<!-- Node18&#45;&gt;Node19 -->
<g id="edge21" class="edge"><title>Node18&#45;&gt;Node19</title>
<path fill="none" stroke="midnightblue" d="M111,-65.4353C111,-57.3891 111,-44.7388 111,-34.1846"/>
<polygon fill="midnightblue" stroke="midnightblue" points="114.5,-33.8717 111,-23.8718 107.5,-33.8718 114.5,-33.8717"/>
</g>
<!-- Node20&#45;&gt;Node7 -->
<g id="edge25" class="edge"><title>Node20&#45;&gt;Node7</title>
<path fill="none" stroke="midnightblue" d="M692.048,-65.4353C684.521,-56.7043 672.321,-42.5523 662.827,-31.5395"/>
<polygon fill="midnightblue" stroke="midnightblue" points="665.397,-29.1606 656.217,-23.8718 660.096,-33.7312 665.397,-29.1606"/>
</g>
<!-- Node20&#45;&gt;Node15 -->
<g id="edge26" class="edge"><title>Node20&#45;&gt;Node15</title>
<path fill="none" stroke="midnightblue" d="M717.771,-65.4353C740.899,-55.4992 780.368,-38.542 806.811,-27.1811"/>
<polygon fill="midnightblue" stroke="midnightblue" points="808.441,-30.2904 816.247,-23.1272 805.677,-23.8589 808.441,-30.2904"/>
</g>
<!-- Node21 -->
<g id="node21" class="node"><title>Node21</title>
<polygon fill="white" stroke="#bfbfbf" points="707.33,-5.5 707.33,-23.5 736.67,-23.5 736.67,-5.5 707.33,-5.5"/>
<text text-anchor="middle" x="722" y="-11.5" font-family="Helvetica,sans-Serif" font-size="10.00">set</text>
</g>
<!-- Node20&#45;&gt;Node21 -->
<g id="edge27" class="edge"><title>Node20&#45;&gt;Node21</title>
<path fill="none" stroke="midnightblue" d="M702.198,-65.4353C705.491,-57.1323 710.727,-43.9267 714.989,-33.1807"/>
<polygon fill="midnightblue" stroke="midnightblue" points="718.247,-34.4578 718.68,-23.8718 711.74,-31.8773 718.247,-34.4578"/>
</g>
<!-- Node22&#45;&gt;Node15 -->
<g id="edge34" class="edge"><title>Node22&#45;&gt;Node15</title>
<path fill="none" stroke="midnightblue" d="M810.798,-185.339C815.182,-153.245 826.434,-70.8846 831.482,-33.9295"/>
<polygon fill="midnightblue" stroke="midnightblue" points="835.001,-34.0295 832.887,-23.6478 828.065,-33.082 835.001,-34.0295"/>
</g>
<!-- Node22&#45;&gt;Node21 -->
<g id="edge35" class="edge"><title>Node22&#45;&gt;Node21</title>
<path fill="none" stroke="midnightblue" d="M808.412,-185.407C806.762,-160.336 800.516,-104.533 777,-65 768.626,-50.9231 754.951,-38.5896 743.332,-29.7547"/>
<polygon fill="midnightblue" stroke="midnightblue" points="745.124,-26.7316 734.969,-23.7097 741.023,-32.4046 745.124,-26.7316"/>
</g>
<!-- Node23 -->
<g id="node23" class="node"><title>Node23</title>
<g id="a_node23"><a xlink:href="xmm_phrase_8hpp.html" target="_top" xlink:title="xmmPhrase.hpp">
<polygon fill="white" stroke="black" points="561.596,-125.5 561.596,-143.5 650.404,-143.5 650.404,-125.5 561.596,-125.5"/>
<text text-anchor="middle" x="606" y="-131.5" font-family="Helvetica,sans-Serif" font-size="10.00">xmmPhrase.hpp</text>
</a>
</g>
</g>
<!-- Node22&#45;&gt;Node23 -->
<g id="edge29" class="edge"><title>Node22&#45;&gt;Node23</title>
<path fill="none" stroke="midnightblue" d="M766.938,-185.446C729.944,-173.965 676.684,-157.436 641.719,-146.585"/>
<polygon fill="midnightblue" stroke="midnightblue" points="642.52,-143.169 631.932,-143.548 640.446,-149.855 642.52,-143.169"/>
</g>
<!-- Node23&#45;&gt;Node6 -->
<g id="edge30" class="edge"><title>Node23&#45;&gt;Node6</title>
<path fill="none" stroke="midnightblue" d="M575.804,-125.48C568.369,-123.596 560.413,-121.657 553,-120 493.586,-106.723 425.043,-93.8199 378.147,-85.3572"/>
<polygon fill="midnightblue" stroke="midnightblue" points="378.647,-81.891 368.185,-83.5676 377.409,-88.7808 378.647,-81.891"/>
</g>
<!-- Node23&#45;&gt;Node12 -->
<g id="edge32" class="edge"><title>Node23&#45;&gt;Node12</title>
<path fill="none" stroke="midnightblue" d="M587.924,-125.435C566.121,-115.708 529.235,-99.2511 503.802,-87.9041"/>
<polygon fill="midnightblue" stroke="midnightblue" points="504.9,-84.5613 494.342,-83.6831 502.048,-90.9539 504.9,-84.5613"/>
</g>
<!-- Node23&#45;&gt;Node20 -->
<g id="edge31" class="edge"><title>Node23&#45;&gt;Node20</title>
<path fill="none" stroke="midnightblue" d="M618.931,-125.435C633.977,-116.052 659.062,-100.408 677.149,-89.1277"/>
<polygon fill="midnightblue" stroke="midnightblue" points="679.246,-91.9448 685.879,-83.6831 675.542,-86.0052 679.246,-91.9448"/>
</g>
<!-- Node24 -->
<g id="node24" class="node"><title>Node24</title>
<polygon fill="white" stroke="#bfbfbf" points="569.384,-65.5 569.384,-83.5 612.616,-83.5 612.616,-65.5 569.384,-65.5"/>
<text text-anchor="middle" x="591" y="-71.5" font-family="Helvetica,sans-Serif" font-size="10.00">cmath</text>
</g>
<!-- Node23&#45;&gt;Node24 -->
<g id="edge33" class="edge"><title>Node23&#45;&gt;Node24</title>
<path fill="none" stroke="midnightblue" d="M603.914,-125.435C601.811,-117.304 598.492,-104.469 595.745,-93.8485"/>
<polygon fill="midnightblue" stroke="midnightblue" points="599.058,-92.6769 593.165,-83.8718 592.28,-94.4296 599.058,-92.6769"/>
</g>
<!-- Node25&#45;&gt;Node20 -->
<g id="edge37" class="edge"><title>Node25&#45;&gt;Node20</title>
<path fill="none" stroke="midnightblue" d="M715.225,-250.161C712.659,-222.533 704.39,-133.526 700.749,-94.3297"/>
<polygon fill="midnightblue" stroke="midnightblue" points="704.189,-93.521 699.779,-83.8876 697.219,-94.1685 704.189,-93.521"/>
</g>
<!-- Node25&#45;&gt;Node22 -->
<g id="edge38" class="edge"><title>Node25&#45;&gt;Node22</title>
<path fill="none" stroke="midnightblue" d="M728.931,-250.435C741.937,-242.324 762.444,-229.535 779.448,-218.93"/>
<polygon fill="midnightblue" stroke="midnightblue" points="781.329,-221.882 787.962,-213.62 777.625,-215.942 781.329,-221.882"/>
</g>
<!-- Node25&#45;&gt;Node26 -->
<g id="edge39" class="edge"><title>Node25&#45;&gt;Node26</title>
<path fill="none" stroke="midnightblue" d="M709.048,-250.435C701.521,-241.704 689.321,-227.552 679.827,-216.54"/>
<polygon fill="midnightblue" stroke="midnightblue" points="682.397,-214.161 673.217,-208.872 677.096,-218.731 682.397,-214.161"/>
</g>
<!-- Node30&#45;&gt;Node3 -->
<g id="edge48" class="edge"><title>Node30&#45;&gt;Node3</title>
<path fill="none" stroke="midnightblue" d="M517.91,-415.45C531.265,-407.123 552.359,-393.97 568.286,-384.039"/>
<polygon fill="midnightblue" stroke="midnightblue" points="570.335,-386.886 576.969,-378.625 566.631,-380.946 570.335,-386.886"/>
</g>
<!-- Node31 -->
<g id="node31" class="node"><title>Node31</title>
<g id="a_node31"><a xlink:href="xmm_gaussian_distribution_8hpp.html" target="_top" xlink:title="../../core/distributions\l/xmmGaussianDistribution.hpp">
<polygon fill="white" stroke="black" points="237.917,-120.5 237.917,-148.5 390.083,-148.5 390.083,-120.5 237.917,-120.5"/>
<text text-anchor="start" x="245.917" y="-136.5" font-family="Helvetica,sans-Serif" font-size="10.00">../../core/distributions</text>
<text text-anchor="middle" x="314" y="-126.5" font-family="Helvetica,sans-Serif" font-size="10.00">/xmmGaussianDistribution.hpp</text>
</a>
</g>
</g>
<!-- Node30&#45;&gt;Node31 -->
<g id="edge45" class="edge"><title>Node30&#45;&gt;Node31</title>
<path fill="none" stroke="midnightblue" d="M454.026,-415.484C395.694,-405.881 306.666,-389.748 295,-379 273.334,-359.04 276,-344.958 276,-315.5 276,-315.5 276,-315.5 276,-258.5 276,-221.963 291.496,-181.932 302.697,-157.769"/>
<polygon fill="midnightblue" stroke="midnightblue" points="305.861,-159.266 307.03,-148.736 299.549,-156.238 305.861,-159.266"/>
</g>
<!-- Node32 -->
<g id="node32" class="node"><title>Node32</title>
<g id="a_node32"><a xlink:href="xmm_gmm_single_class_8hpp.html" target="_top" xlink:title="xmmGmmSingleClass.hpp">
<polygon fill="white" stroke="black" points="303.818,-360.5 303.818,-378.5 438.182,-378.5 438.182,-360.5 303.818,-360.5"/>
<text text-anchor="middle" x="371" y="-366.5" font-family="Helvetica,sans-Serif" font-size="10.00">xmmGmmSingleClass.hpp</text>
</a>
</g>
</g>
<!-- Node30&#45;&gt;Node32 -->
<g id="edge49" class="edge"><title>Node30&#45;&gt;Node32</title>
<path fill="none" stroke="midnightblue" d="M484.648,-415.45C462.414,-406.656 426.572,-392.48 401.088,-382.401"/>
<polygon fill="midnightblue" stroke="midnightblue" points="402.13,-379.049 391.543,-378.625 399.555,-385.558 402.13,-379.049"/>
</g>
<!-- Node31&#45;&gt;Node6 -->
<g id="edge46" class="edge"><title>Node31&#45;&gt;Node6</title>
<path fill="none" stroke="midnightblue" d="M315.815,-120.339C316.892,-112.531 318.274,-102.512 319.458,-93.9265"/>
<polygon fill="midnightblue" stroke="midnightblue" points="322.96,-94.1559 320.859,-83.7715 316.025,-93.1994 322.96,-94.1559"/>
</g>
<!-- Node31&#45;&gt;Node12 -->
<g id="edge47" class="edge"><title>Node31&#45;&gt;Node12</title>
<path fill="none" stroke="midnightblue" d="M350.356,-120.484C378.315,-110.474 416.595,-96.7686 443.531,-87.1246"/>
<polygon fill="midnightblue" stroke="midnightblue" points="445.02,-90.3094 453.255,-83.6434 442.66,-83.719 445.02,-90.3094"/>
</g>
<!-- Node32&#45;&gt;Node16 -->
<g id="edge50" class="edge"><title>Node32&#45;&gt;Node16</title>
<path fill="none" stroke="midnightblue" d="M343.358,-360.45C312.133,-351.357 261.15,-336.511 226.389,-326.388"/>
<polygon fill="midnightblue" stroke="midnightblue" points="227.183,-322.974 216.603,-323.538 225.226,-329.695 227.183,-322.974"/>
</g>
<!-- Node32&#45;&gt;Node17 -->
<g id="edge51" class="edge"><title>Node32&#45;&gt;Node17</title>
<path fill="none" stroke="midnightblue" d="M401.831,-360.45C436.958,-351.279 494.502,-336.256 533.292,-326.128"/>
<polygon fill="midnightblue" stroke="midnightblue" points="534.42,-329.451 543.212,-323.538 532.652,-322.678 534.42,-329.451"/>
</g>
<!-- Node32&#45;&gt;Node27 -->
<g id="edge55" class="edge"><title>Node32&#45;&gt;Node27</title>
<path fill="none" stroke="midnightblue" d="M374.082,-360.382C380.671,-343.026 396.261,-301.96 405.265,-278.241"/>
<polygon fill="midnightblue" stroke="midnightblue" points="408.606,-279.303 408.883,-268.712 402.061,-276.819 408.606,-279.303"/>
</g>
<!-- Node33 -->
<g id="node33" class="node"><title>Node33</title>
<g id="a_node33"><a xlink:href="xmm_gmm_parameters_8hpp.html" target="_top" xlink:title="xmmGmmParameters.hpp">
<polygon fill="white" stroke="black" points="304.377,-190.5 304.377,-208.5 437.623,-208.5 437.623,-190.5 304.377,-190.5"/>
<text text-anchor="middle" x="371" y="-196.5" font-family="Helvetica,sans-Serif" font-size="10.00">xmmGmmParameters.hpp</text>
</a>
</g>
</g>
<!-- Node32&#45;&gt;Node33 -->
<g id="edge52" class="edge"><title>Node32&#45;&gt;Node33</title>
<path fill="none" stroke="midnightblue" d="M371,-360.397C371,-334.729 371,-254.781 371,-218.605"/>
<polygon fill="midnightblue" stroke="midnightblue" points="374.5,-218.522 371,-208.522 367.5,-218.522 374.5,-218.522"/>
</g>
<!-- Node33&#45;&gt;Node5 -->
<g id="edge54" class="edge"><title>Node33&#45;&gt;Node5</title>
<path fill="none" stroke="midnightblue" d="M384.727,-190.264C402.274,-179.736 432.877,-161.374 453.768,-148.839"/>
<polygon fill="midnightblue" stroke="midnightblue" points="455.828,-151.685 462.602,-143.539 452.226,-145.683 455.828,-151.685"/>
</g>
<!-- Node33&#45;&gt;Node31 -->
<g id="edge53" class="edge"><title>Node33&#45;&gt;Node31</title>
<path fill="none" stroke="midnightblue" d="M363.548,-190.264C355.8,-181.7 343.363,-167.954 332.888,-156.377"/>
<polygon fill="midnightblue" stroke="midnightblue" points="335.336,-153.865 326.032,-148.798 330.145,-158.562 335.336,-153.865"/>
</g>
<!-- Node34&#45;&gt;Node32 -->
<g id="edge57" class="edge"><title>Node34&#45;&gt;Node32</title>
<path fill="none" stroke="midnightblue" d="M364.25,-415.219C365.325,-408.099 366.913,-397.577 368.279,-388.529"/>
<polygon fill="midnightblue" stroke="midnightblue" points="371.753,-388.96 369.785,-378.55 364.832,-387.915 371.753,-388.96"/>
</g>
<!-- Node35 -->
<g id="node35" class="node"><title>Node35</title>
<g id="a_node35"><a xlink:href="xmm_hmm_parameters_8hpp.html" target="_top" xlink:title="xmmHmmParameters.hpp">
<polygon fill="white" stroke="black" points="455.655,-190.5 455.655,-208.5 588.345,-208.5 588.345,-190.5 455.655,-190.5"/>
<text text-anchor="middle" x="522" y="-196.5" font-family="Helvetica,sans-Serif" font-size="10.00">xmmHmmParameters.hpp</text>
</a>
</g>
</g>
<!-- Node34&#45;&gt;Node35 -->
<g id="edge58" class="edge"><title>Node34&#45;&gt;Node35</title>
<path fill="none" stroke="midnightblue" d="M387.958,-415.471C406.39,-408.426 430.963,-396.538 447,-379 490.815,-331.082 511.21,-253.849 518.582,-218.822"/>
<polygon fill="midnightblue" stroke="midnightblue" points="522.084,-219.155 520.598,-208.665 515.218,-217.792 522.084,-219.155"/>
</g>
<!-- Node36 -->
<g id="node36" class="node"><title>Node36</title>
<g id="a_node36"><a xlink:href="xmm_hmm_results_8hpp.html" target="_top" xlink:title="xmmHmmResults.hpp">
<polygon fill="white" stroke="black" points="132.825,-360.5 132.825,-378.5 247.175,-378.5 247.175,-360.5 132.825,-360.5"/>
<text text-anchor="middle" x="190" y="-366.5" font-family="Helvetica,sans-Serif" font-size="10.00">xmmHmmResults.hpp</text>
</a>
</g>
</g>
<!-- Node34&#45;&gt;Node36 -->
<g id="edge61" class="edge"><title>Node34&#45;&gt;Node36</title>
<path fill="none" stroke="midnightblue" d="M336.725,-415.45C307.172,-406.396 258.998,-391.638 225.966,-381.519"/>
<polygon fill="midnightblue" stroke="midnightblue" points="226.825,-378.121 216.238,-378.538 224.774,-384.814 226.825,-378.121"/>
</g>
<!-- Node35&#45;&gt;Node5 -->
<g id="edge60" class="edge"><title>Node35&#45;&gt;Node5</title>
<path fill="none" stroke="midnightblue" d="M515.986,-190.264C508.853,-180.494 496.795,-163.98 487.781,-151.635"/>
<polygon fill="midnightblue" stroke="midnightblue" points="490.593,-149.551 481.87,-143.539 484.94,-153.679 490.593,-149.551"/>
</g>
<!-- Node35&#45;&gt;Node31 -->
<g id="edge59" class="edge"><title>Node35&#45;&gt;Node31</title>
<path fill="none" stroke="midnightblue" d="M495.233,-190.393C462.898,-180.599 407.744,-163.894 366.751,-151.478"/>
<polygon fill="midnightblue" stroke="midnightblue" points="367.507,-148.049 356.921,-148.5 365.477,-154.749 367.507,-148.049"/>
</g>
<!-- Node36&#45;&gt;Node16 -->
<g id="edge62" class="edge"><title>Node36&#45;&gt;Node16</title>
<path fill="none" stroke="midnightblue" d="M189.844,-360.219C189.711,-353.177 189.515,-342.808 189.346,-333.828"/>
<polygon fill="midnightblue" stroke="midnightblue" points="192.84,-333.482 189.152,-323.55 185.841,-333.614 192.84,-333.482"/>
</g>
</g>
</svg>
