<?xml version="1.0" encoding="UTF-8" standalone="no"?>
<!DOCTYPE svg PUBLIC "-//W3C//DTD SVG 1.1//EN"
 "http://www.w3.org/Graphics/SVG/1.1/DTD/svg11.dtd">
<!-- Generated by graphviz version 2.38.0 (20140413.2041)
 -->
<!-- Title: xmmMatrix.hpp Pages: 1 -->
<svg width="339pt" height="82pt"
 viewBox="0.00 0.00 339.23 82.00" xmlns="http://www.w3.org/2000/svg" xmlns:xlink="http://www.w3.org/1999/xlink">
<g id="graph0" class="graph" transform="scale(1 1) rotate(0) translate(4 78)">
<title>xmmMatrix.hpp</title>
<polygon fill="white" stroke="none" points="-4,4 -4,-78 335.231,-78 335.231,4 -4,4"/>
<!-- Node1 -->
<g id="node1" class="node"><title>Node1</title>
<polygon fill="#bfbfbf" stroke="black" points="123.443,-55.5 123.443,-73.5 207.788,-73.5 207.788,-55.5 123.443,-55.5"/>
<text text-anchor="middle" x="165.616" y="-61.5" font-family="Helvetica,sans-Serif" font-size="10.00">xmmMatrix.hpp</text>
</g>
<!-- Node2 -->
<g id="node2" class="node"><title>Node2</title>
<polygon fill="white" stroke="#bfbfbf" points="0,-0.5 0,-18.5 43.2314,-18.5 43.2314,-0.5 0,-0.5"/>
<text text-anchor="middle" x="21.6157" y="-6.5" font-family="Helvetica,sans-Serif" font-size="10.00">cmath</text>
</g>
<!-- Node1&#45;&gt;Node2 -->
<g id="edge1" class="edge"><title>Node1&#45;&gt;Node2</title>
<path fill="none" stroke="midnightblue" d="M143.745,-55.4504C119.64,-46.5784 80.6526,-32.2288 53.225,-22.134"/>
<polygon fill="midnightblue" stroke="midnightblue" points="54.2855,-18.7948 43.692,-18.6253 51.8677,-25.364 54.2855,-18.7948"/>
</g>
<!-- Node3 -->
<g id="node3" class="node"><title>Node3</title>
<polygon fill="white" stroke="#bfbfbf" points="61.2119,-0.5 61.2119,-18.5 120.02,-18.5 120.02,-0.5 61.2119,-0.5"/>
<text text-anchor="middle" x="90.6157" y="-6.5" font-family="Helvetica,sans-Serif" font-size="10.00">exception</text>
</g>
<!-- Node1&#45;&gt;Node3 -->
<g id="edge2" class="edge"><title>Node1&#45;&gt;Node3</title>
<path fill="none" stroke="midnightblue" d="M154.225,-55.4504C142.661,-47.2788 124.522,-34.4604 110.568,-24.5996"/>
<polygon fill="midnightblue" stroke="midnightblue" points="112.3,-21.5381 102.114,-18.6253 108.261,-27.2548 112.3,-21.5381"/>
</g>
<!-- Node4 -->
<g id="node4" class="node"><title>Node4</title>
<polygon fill="white" stroke="#bfbfbf" points="138.443,-0.5 138.443,-18.5 192.788,-18.5 192.788,-0.5 138.443,-0.5"/>
<text text-anchor="middle" x="165.616" y="-6.5" font-family="Helvetica,sans-Serif" font-size="10.00">iostream</text>
</g>
<!-- Node1&#45;&gt;Node4 -->
<g id="edge3" class="edge"><title>Node1&#45;&gt;Node4</title>
<path fill="none" stroke="midnightblue" d="M165.616,-55.2188C165.616,-48.1769 165.616,-37.8083 165.616,-28.8277"/>
<polygon fill="midnightblue" stroke="midnightblue" points="169.116,-28.5495 165.616,-18.5496 162.116,-28.5496 169.116,-28.5495"/>
</g>
<!-- Node5 -->
<g id="node5" class="node"><title>Node5</title>
<polygon fill="white" stroke="#bfbfbf" points="211.214,-0.5 211.214,-18.5 270.017,-18.5 270.017,-0.5 211.214,-0.5"/>
<text text-anchor="middle" x="240.616" y="-6.5" font-family="Helvetica,sans-Serif" font-size="10.00">stdexcept</text>
</g>
<!-- Node1&#45;&gt;Node5 -->
<g id="edge4" class="edge"><title>Node1&#45;&gt;Node5</title>
<path fill="none" stroke="midnightblue" d="M177.007,-55.4504C188.57,-47.2788 206.709,-34.4604 220.663,-24.5996"/>
<polygon fill="midnightblue" stroke="midnightblue" points="222.971,-27.2548 229.118,-18.6253 218.931,-21.5381 222.971,-27.2548"/>
</g>
<!-- Node6 -->
<g id="node6" class="node"><title>Node6</title>
<polygon fill="white" stroke="#bfbfbf" points="288,-0.5 288,-18.5 331.231,-18.5 331.231,-0.5 288,-0.5"/>
<text text-anchor="middle" x="309.616" y="-6.5" font-family="Helvetica,sans-Serif" font-size="10.00">vector</text>
</g>
<!-- Node1&#45;&gt;Node6 -->
<g id="edge5" class="edge"><title>Node1&#45;&gt;Node6</title>
<path fill="none" stroke="midnightblue" d="M187.486,-55.4504C211.591,-46.5784 250.579,-32.2288 278.006,-22.134"/>
<polygon fill="midnightblue" stroke="midnightblue" points="279.364,-25.364 287.539,-18.6253 276.946,-18.7948 279.364,-25.364"/>
</g>
</g>
</svg>
