<?xml version="1.0" encoding="UTF-8" standalone="no"?>
<!DOCTYPE svg PUBLIC "-//W3C//DTD SVG 1.1//EN"
 "http://www.w3.org/Graphics/SVG/1.1/DTD/svg11.dtd">
<!-- Generated by graphviz version 2.38.0 (20140413.2041)
 -->
<!-- Title: xmmKMeansParameters.hpp Pages: 1 -->
<svg width="523pt" height="212pt"
 viewBox="0.00 0.00 523.07 212.00" xmlns="http://www.w3.org/2000/svg" xmlns:xlink="http://www.w3.org/1999/xlink">
<g id="graph0" class="graph" transform="scale(1 1) rotate(0) translate(4 208)">
<title>xmmKMeansParameters.hpp</title>
<polygon fill="white" stroke="none" points="-4,4 -4,-208 519.074,-208 519.074,4 -4,4"/>
<!-- Node1 -->
<g id="node1" class="node"><title>Node1</title>
<polygon fill="#bfbfbf" stroke="black" points="203.658,-185.5 203.658,-203.5 349.15,-203.5 349.15,-185.5 203.658,-185.5"/>
<text text-anchor="middle" x="276.404" y="-191.5" font-family="Helvetica,sans-Serif" font-size="10.00">xmmKMeansParameters.hpp</text>
</g>
<!-- Node2 -->
<g id="node2" class="node"><title>Node2</title>
<g id="a_node2"><a xlink:href="xmm_model_parameters_8hpp.html" target="_top" xlink:title="../../core/model/xmmModel\lParameters.hpp">
<polygon fill="white" stroke="black" points="209.498,-120.5 209.498,-148.5 343.31,-148.5 343.31,-120.5 209.498,-120.5"/>
<text text-anchor="start" x="217.498" y="-136.5" font-family="Helvetica,sans-Serif" font-size="10.00">../../core/model/xmmModel</text>
<text text-anchor="middle" x="276.404" y="-126.5" font-family="Helvetica,sans-Serif" font-size="10.00">Parameters.hpp</text>
</a>
</g>
</g>
<!-- Node1&#45;&gt;Node2 -->
<g id="edge1" class="edge"><title>Node1&#45;&gt;Node2</title>
<path fill="none" stroke="midnightblue" d="M276.404,-185.435C276.404,-178.56 276.404,-168.324 276.404,-158.906"/>
<polygon fill="midnightblue" stroke="midnightblue" points="279.904,-158.843 276.404,-148.843 272.904,-158.843 279.904,-158.843"/>
</g>
<!-- Node3 -->
<g id="node3" class="node"><title>Node3</title>
<g id="a_node3"><a xlink:href="xmm_attribute_8hpp.html" target="_top" xlink:title="../common/xmmAttribute.hpp">
<polygon fill="white" stroke="black" points="109.493,-65.5 109.493,-83.5 253.315,-83.5 253.315,-65.5 109.493,-65.5"/>
<text text-anchor="middle" x="181.404" y="-71.5" font-family="Helvetica,sans-Serif" font-size="10.00">../common/xmmAttribute.hpp</text>
</a>
</g>
</g>
<!-- Node2&#45;&gt;Node3 -->
<g id="edge2" class="edge"><title>Node2&#45;&gt;Node3</title>
<path fill="none" stroke="midnightblue" d="M254.847,-120.339C239.524,-110.984 219.004,-98.4562 203.55,-89.021"/>
<polygon fill="midnightblue" stroke="midnightblue" points="205.033,-85.8255 194.674,-83.6018 201.385,-91.8 205.033,-85.8255"/>
</g>
<!-- Node9 -->
<g id="node9" class="node"><title>Node9</title>
<g id="a_node9"><a xlink:href="xmm_json_8hpp.html" target="_top" xlink:title="../common/xmmJson.hpp">
<polygon fill="white" stroke="black" points="307.552,-65.5 307.552,-83.5 435.256,-83.5 435.256,-65.5 307.552,-65.5"/>
<text text-anchor="middle" x="371.404" y="-71.5" font-family="Helvetica,sans-Serif" font-size="10.00">../common/xmmJson.hpp</text>
</a>
</g>
</g>
<!-- Node2&#45;&gt;Node9 -->
<g id="edge8" class="edge"><title>Node2&#45;&gt;Node9</title>
<path fill="none" stroke="midnightblue" d="M297.961,-120.339C313.284,-110.984 333.803,-98.4562 349.257,-89.021"/>
<polygon fill="midnightblue" stroke="midnightblue" points="351.422,-91.8 358.134,-83.6018 347.775,-85.8255 351.422,-91.8"/>
</g>
<!-- Node4 -->
<g id="node4" class="node"><title>Node4</title>
<polygon fill="white" stroke="#bfbfbf" points="0,-5.5 0,-23.5 58.8076,-23.5 58.8076,-5.5 0,-5.5"/>
<text text-anchor="middle" x="29.4038" y="-11.5" font-family="Helvetica,sans-Serif" font-size="10.00">functional</text>
</g>
<!-- Node3&#45;&gt;Node4 -->
<g id="edge3" class="edge"><title>Node3&#45;&gt;Node4</title>
<path fill="none" stroke="midnightblue" d="M160.269,-65.4353C134.325,-55.5356 90.1158,-38.6664 60.3448,-27.3064"/>
<polygon fill="midnightblue" stroke="midnightblue" points="61.44,-23.9782 50.8493,-23.6831 58.9444,-30.5183 61.44,-23.9782"/>
</g>
<!-- Node5 -->
<g id="node5" class="node"><title>Node5</title>
<polygon fill="white" stroke="#bfbfbf" points="77.0171,-5.5 77.0171,-23.5 115.791,-23.5 115.791,-5.5 77.0171,-5.5"/>
<text text-anchor="middle" x="96.4038" y="-11.5" font-family="Helvetica,sans-Serif" font-size="10.00">limits</text>
</g>
<!-- Node3&#45;&gt;Node5 -->
<g id="edge4" class="edge"><title>Node3&#45;&gt;Node5</title>
<path fill="none" stroke="midnightblue" d="M169.585,-65.4353C155.96,-56.1382 133.326,-40.6942 116.832,-29.4393"/>
<polygon fill="midnightblue" stroke="midnightblue" points="118.629,-26.4285 108.396,-23.6831 114.684,-32.2106 118.629,-26.4285"/>
</g>
<!-- Node6 -->
<g id="node6" class="node"><title>Node6</title>
<polygon fill="white" stroke="#bfbfbf" points="134.002,-5.5 134.002,-23.5 192.805,-23.5 192.805,-5.5 134.002,-5.5"/>
<text text-anchor="middle" x="163.404" y="-11.5" font-family="Helvetica,sans-Serif" font-size="10.00">stdexcept</text>
</g>
<!-- Node3&#45;&gt;Node6 -->
<g id="edge5" class="edge"><title>Node3&#45;&gt;Node6</title>
<path fill="none" stroke="midnightblue" d="M178.901,-65.4353C176.351,-57.2179 172.31,-44.1985 168.994,-33.5138"/>
<polygon fill="midnightblue" stroke="midnightblue" points="172.309,-32.385 166.002,-23.8718 165.623,-34.4598 172.309,-32.385"/>
</g>
<!-- Node7 -->
<g id="node7" class="node"><title>Node7</title>
<polygon fill="white" stroke="#bfbfbf" points="211.177,-5.5 211.177,-23.5 251.63,-23.5 251.63,-5.5 211.177,-5.5"/>
<text text-anchor="middle" x="231.404" y="-11.5" font-family="Helvetica,sans-Serif" font-size="10.00">string</text>
</g>
<!-- Node3&#45;&gt;Node7 -->
<g id="edge6" class="edge"><title>Node3&#45;&gt;Node7</title>
<path fill="none" stroke="midnightblue" d="M188.356,-65.4353C195.883,-56.7043 208.083,-42.5523 217.577,-31.5395"/>
<polygon fill="midnightblue" stroke="midnightblue" points="220.308,-33.7312 224.187,-23.8718 215.006,-29.1606 220.308,-33.7312"/>
</g>
<!-- Node8 -->
<g id="node8" class="node"><title>Node8</title>
<polygon fill="white" stroke="#bfbfbf" points="269.788,-5.5 269.788,-23.5 313.02,-23.5 313.02,-5.5 269.788,-5.5"/>
<text text-anchor="middle" x="291.404" y="-11.5" font-family="Helvetica,sans-Serif" font-size="10.00">vector</text>
</g>
<!-- Node3&#45;&gt;Node8 -->
<g id="edge7" class="edge"><title>Node3&#45;&gt;Node8</title>
<path fill="none" stroke="midnightblue" d="M196.699,-65.4353C214.903,-55.8369 245.532,-39.6868 267.017,-28.3586"/>
<polygon fill="midnightblue" stroke="midnightblue" points="268.671,-31.4433 275.884,-23.6831 265.406,-25.2513 268.671,-31.4433"/>
</g>
<!-- Node9&#45;&gt;Node8 -->
<g id="edge11" class="edge"><title>Node9&#45;&gt;Node8</title>
<path fill="none" stroke="midnightblue" d="M360.28,-65.4353C347.575,-56.2243 326.548,-40.9797 311.063,-29.753"/>
<polygon fill="midnightblue" stroke="midnightblue" points="312.841,-26.7192 302.691,-23.6831 308.733,-32.3865 312.841,-26.7192"/>
</g>
<!-- Node10 -->
<g id="node10" class="node"><title>Node10</title>
<polygon fill="white" stroke="#bfbfbf" points="330.815,-0.5 330.815,-28.5 447.992,-28.5 447.992,-0.5 330.815,-0.5"/>
<text text-anchor="start" x="338.815" y="-16.5" font-family="Helvetica,sans-Serif" font-size="10.00">../../../dependencies</text>
<text text-anchor="middle" x="389.404" y="-6.5" font-family="Helvetica,sans-Serif" font-size="10.00">/jsoncpp/include/json.h</text>
</g>
<!-- Node9&#45;&gt;Node10 -->
<g id="edge9" class="edge"><title>Node9&#45;&gt;Node10</title>
<path fill="none" stroke="midnightblue" d="M373.907,-65.4353C376.063,-58.4863 379.286,-48.1033 382.234,-38.6022"/>
<polygon fill="midnightblue" stroke="midnightblue" points="385.642,-39.4308 385.263,-28.8428 378.956,-37.356 385.642,-39.4308"/>
</g>
<!-- Node11 -->
<g id="node11" class="node"><title>Node11</title>
<polygon fill="white" stroke="#bfbfbf" points="465.734,-5.5 465.734,-23.5 515.074,-23.5 515.074,-5.5 465.734,-5.5"/>
<text text-anchor="middle" x="490.404" y="-11.5" font-family="Helvetica,sans-Serif" font-size="10.00">fstream</text>
</g>
<!-- Node9&#45;&gt;Node11 -->
<g id="edge10" class="edge"><title>Node9&#45;&gt;Node11</title>
<path fill="none" stroke="midnightblue" d="M387.95,-65.4353C407.732,-55.7939 441.077,-39.5418 464.334,-28.2065"/>
<polygon fill="midnightblue" stroke="midnightblue" points="466.159,-31.2107 473.614,-23.6831 463.092,-24.9182 466.159,-31.2107"/>
</g>
</g>
</svg>
