<?xml version="1.0" encoding="UTF-8" standalone="no"?>
<!DOCTYPE svg PUBLIC "-//W3C//DTD SVG 1.1//EN"
 "http://www.w3.org/Graphics/SVG/1.1/DTD/svg11.dtd">
<!-- Generated by graphviz version 2.38.0 (20140413.2041)
 -->
<!-- Title: xmmKMeansParameters.hpp Pages: 1 -->
<svg width="369pt" height="137pt"
 viewBox="0.00 0.00 369.09 137.00" xmlns="http://www.w3.org/2000/svg" xmlns:xlink="http://www.w3.org/1999/xlink">
<g id="graph0" class="graph" transform="scale(1 1) rotate(0) translate(4 133)">
<title>xmmKMeansParameters.hpp</title>
<polygon fill="white" stroke="none" points="-4,4 -4,-133 365.088,-133 365.088,4 -4,4"/>
<!-- Node1 -->
<g id="node1" class="node"><title>Node1</title>
<polygon fill="#bfbfbf" stroke="black" points="146.877,-110.5 146.877,-128.5 292.369,-128.5 292.369,-110.5 146.877,-110.5"/>
<text text-anchor="middle" x="219.623" y="-116.5" font-family="Helvetica,sans-Serif" font-size="10.00">xmmKMeansParameters.hpp</text>
</g>
<!-- Node2 -->
<g id="node2" class="node"><title>Node2</title>
<g id="a_node2"><a xlink:href="xmm_k_means_8hpp.html" target="_top" xlink:title="xmmKMeans.hpp">
<polygon fill="white" stroke="black" points="104.719,-55.5 104.719,-73.5 198.527,-73.5 198.527,-55.5 104.719,-55.5"/>
<text text-anchor="middle" x="151.623" y="-61.5" font-family="Helvetica,sans-Serif" font-size="10.00">xmmKMeans.hpp</text>
</a>
</g>
</g>
<!-- Node1&#45;&gt;Node2 -->
<g id="edge1" class="edge"><title>Node1&#45;&gt;Node2</title>
<path fill="none" stroke="midnightblue" d="M201.288,-104.21C188.709,-94.4052 172.469,-81.7474 162.048,-73.6253"/>
<polygon fill="midnightblue" stroke="midnightblue" points="199.256,-107.064 209.295,-110.45 203.56,-101.542 199.256,-107.064"/>
</g>
<!-- Node6 -->
<g id="node6" class="node"><title>Node6</title>
<g id="a_node6"><a xlink:href="xmm_k_means_parameters_8cpp.html" target="_top" xlink:title="xmmKMeansParameters.cpp">
<polygon fill="white" stroke="black" points="216.158,-55.5 216.158,-73.5 361.088,-73.5 361.088,-55.5 216.158,-55.5"/>
<text text-anchor="middle" x="288.623" y="-61.5" font-family="Helvetica,sans-Serif" font-size="10.00">xmmKMeansParameters.cpp</text>
</a>
</g>
</g>
<!-- Node1&#45;&gt;Node6 -->
<g id="edge5" class="edge"><title>Node1&#45;&gt;Node6</title>
<path fill="none" stroke="midnightblue" d="M238.228,-104.21C250.992,-94.4052 267.471,-81.7474 278.045,-73.6253"/>
<polygon fill="midnightblue" stroke="midnightblue" points="235.901,-101.583 230.103,-110.45 240.165,-107.135 235.901,-101.583"/>
</g>
<!-- Node3 -->
<g id="node3" class="node"><title>Node3</title>
<g id="a_node3"><a xlink:href="xmm_k_means_8cpp.html" target="_top" xlink:title="xmmKMeans.cpp">
<polygon fill="white" stroke="black" points="0,-0.5 0,-18.5 93.2461,-18.5 93.2461,-0.5 0,-0.5"/>
<text text-anchor="middle" x="46.623" y="-6.5" font-family="Helvetica,sans-Serif" font-size="10.00">xmmKMeans.cpp</text>
</a>
</g>
</g>
<!-- Node2&#45;&gt;Node3 -->
<g id="edge2" class="edge"><title>Node2&#45;&gt;Node3</title>
<path fill="none" stroke="midnightblue" d="M126.614,-50.8765C106.812,-40.8808 79.7397,-27.216 62.7204,-18.6253"/>
<polygon fill="midnightblue" stroke="midnightblue" points="125.171,-54.0688 135.676,-55.4504 128.326,-47.8197 125.171,-54.0688"/>
</g>
<!-- Node4 -->
<g id="node4" class="node"><title>Node4</title>
<g id="a_node4"><a xlink:href="xmm_gmm_8cpp.html" target="_top" xlink:title="xmmGmm.cpp">
<polygon fill="white" stroke="black" points="111.123,-0.5 111.123,-18.5 192.123,-18.5 192.123,-0.5 111.123,-0.5"/>
<text text-anchor="middle" x="151.623" y="-6.5" font-family="Helvetica,sans-Serif" font-size="10.00">xmmGmm.cpp</text>
</a>
</g>
</g>
<!-- Node2&#45;&gt;Node4 -->
<g id="edge3" class="edge"><title>Node2&#45;&gt;Node4</title>
<path fill="none" stroke="midnightblue" d="M151.623,-45.1746C151.623,-36.0945 151.623,-25.5949 151.623,-18.5496"/>
<polygon fill="midnightblue" stroke="midnightblue" points="148.123,-45.2187 151.623,-55.2188 155.123,-45.2188 148.123,-45.2187"/>
</g>
<!-- Node5 -->
<g id="node5" class="node"><title>Node5</title>
<g id="a_node5"><a xlink:href="xmm_gmm_single_class_8cpp.html" target="_top" xlink:title="xmmGmmSingleClass.cpp">
<polygon fill="white" stroke="black" points="209.722,-0.5 209.722,-18.5 343.524,-18.5 343.524,-0.5 209.722,-0.5"/>
<text text-anchor="middle" x="276.623" y="-6.5" font-family="Helvetica,sans-Serif" font-size="10.00">xmmGmmSingleClass.cpp</text>
</a>
</g>
</g>
<!-- Node2&#45;&gt;Node5 -->
<g id="edge4" class="edge"><title>Node2&#45;&gt;Node5</title>
<path fill="none" stroke="midnightblue" d="M180.118,-51.4181C203.794,-41.3794 236.83,-27.3722 257.46,-18.6253"/>
<polygon fill="midnightblue" stroke="midnightblue" points="178.448,-48.3245 170.608,-55.4504 181.181,-54.7691 178.448,-48.3245"/>
</g>
</g>
</svg>
