<?xml version="1.0" encoding="UTF-8" standalone="no"?>
<!DOCTYPE svg PUBLIC "-//W3C//DTD SVG 1.1//EN"
 "http://www.w3.org/Graphics/SVG/1.1/DTD/svg11.dtd">
<!-- Generated by graphviz version 2.38.0 (20140413.2041)
 -->
<!-- Title: xmmKMeans.cpp Pages: 1 -->
<svg width="1025pt" height="452pt"
 viewBox="0.00 0.00 1024.76 452.00" xmlns="http://www.w3.org/2000/svg" xmlns:xlink="http://www.w3.org/1999/xlink">
<g id="graph0" class="graph" transform="scale(1 1) rotate(0) translate(4 448)">
<title>xmmKMeans.cpp</title>
<polygon fill="white" stroke="none" points="-4,4 -4,-448 1020.76,-448 1020.76,4 -4,4"/>
<!-- Node1 -->
<g id="node1" class="node"><title>Node1</title>
<polygon fill="#bfbfbf" stroke="black" points="739.465,-425.5 739.465,-443.5 832.711,-443.5 832.711,-425.5 739.465,-425.5"/>
<text text-anchor="middle" x="786.088" y="-431.5" font-family="Helvetica,sans-Serif" font-size="10.00">xmmKMeans.cpp</text>
</g>
<!-- Node2 -->
<g id="node2" class="node"><title>Node2</title>
<g id="a_node2"><a xlink:href="xmm_k_means_8hpp.html" target="_top" xlink:title="xmmKMeans.hpp">
<polygon fill="white" stroke="black" points="547.185,-370.5 547.185,-388.5 640.992,-388.5 640.992,-370.5 547.185,-370.5"/>
<text text-anchor="middle" x="594.088" y="-376.5" font-family="Helvetica,sans-Serif" font-size="10.00">xmmKMeans.hpp</text>
</a>
</g>
</g>
<!-- Node1&#45;&gt;Node2 -->
<g id="edge1" class="edge"><title>Node1&#45;&gt;Node2</title>
<path fill="none" stroke="midnightblue" d="M756.928,-425.45C723.846,-416.318 669.741,-401.383 633.06,-391.258"/>
<polygon fill="midnightblue" stroke="midnightblue" points="633.779,-387.825 623.208,-388.538 631.916,-394.573 633.779,-387.825"/>
</g>
<!-- Node7 -->
<g id="node7" class="node"><title>Node7</title>
<polygon fill="white" stroke="#bfbfbf" points="910.702,-5.5 910.702,-23.5 949.475,-23.5 949.475,-5.5 910.702,-5.5"/>
<text text-anchor="middle" x="930.088" y="-11.5" font-family="Helvetica,sans-Serif" font-size="10.00">limits</text>
</g>
<!-- Node1&#45;&gt;Node7 -->
<g id="edge44" class="edge"><title>Node1&#45;&gt;Node7</title>
<path fill="none" stroke="midnightblue" d="M826.85,-425.499C877.713,-412.872 958.088,-383.026 958.088,-320.5 958.088,-320.5 958.088,-320.5 958.088,-138.5 958.088,-100.309 945.096,-57.0751 936.812,-33.3893"/>
<polygon fill="midnightblue" stroke="midnightblue" points="939.999,-31.9126 933.3,-23.7045 933.419,-34.2987 939.999,-31.9126"/>
</g>
<!-- Node3 -->
<g id="node3" class="node"><title>Node3</title>
<g id="a_node3"><a xlink:href="xmm_model_configuration_8hpp.html" target="_top" xlink:title="../../core/model/xmmModel\lConfiguration.hpp">
<polygon fill="white" stroke="black" points="435.182,-185.5 435.182,-213.5 568.995,-213.5 568.995,-185.5 435.182,-185.5"/>
<text text-anchor="start" x="443.182" y="-201.5" font-family="Helvetica,sans-Serif" font-size="10.00">../../core/model/xmmModel</text>
<text text-anchor="middle" x="502.088" y="-191.5" font-family="Helvetica,sans-Serif" font-size="10.00">Configuration.hpp</text>
</a>
</g>
</g>
<!-- Node2&#45;&gt;Node3 -->
<g id="edge2" class="edge"><title>Node2&#45;&gt;Node3</title>
<path fill="none" stroke="midnightblue" d="M570.449,-370.358C553.873,-363.369 532.681,-351.603 521.088,-334 499.036,-300.515 497.986,-252.083 499.707,-223.69"/>
<polygon fill="midnightblue" stroke="midnightblue" points="503.212,-223.765 500.496,-213.524 496.233,-223.223 503.212,-223.765"/>
</g>
<!-- Node15 -->
<g id="node15" class="node"><title>Node15</title>
<g id="a_node15"><a xlink:href="xmm_model_single_class_8hpp.html" target="_top" xlink:title="../../core/model/xmmModel\lSingleClass.hpp">
<polygon fill="white" stroke="black" points="154.182,-305.5 154.182,-333.5 287.995,-333.5 287.995,-305.5 154.182,-305.5"/>
<text text-anchor="start" x="162.182" y="-321.5" font-family="Helvetica,sans-Serif" font-size="10.00">../../core/model/xmmModel</text>
<text text-anchor="middle" x="221.088" y="-311.5" font-family="Helvetica,sans-Serif" font-size="10.00">SingleClass.hpp</text>
</a>
</g>
</g>
<!-- Node2&#45;&gt;Node15 -->
<g id="edge15" class="edge"><title>Node2&#45;&gt;Node15</title>
<path fill="none" stroke="midnightblue" d="M546.848,-371.154C484.314,-361.43 373.249,-344.16 298.402,-332.522"/>
<polygon fill="midnightblue" stroke="midnightblue" points="298.509,-328.997 288.09,-330.918 297.433,-335.913 298.509,-328.997"/>
</g>
<!-- Node26 -->
<g id="node26" class="node"><title>Node26</title>
<g id="a_node26"><a xlink:href="xmm_k_means_parameters_8hpp.html" target="_top" xlink:title="xmmKMeansParameters.hpp">
<polygon fill="white" stroke="black" points="675.342,-310.5 675.342,-328.5 820.834,-328.5 820.834,-310.5 675.342,-310.5"/>
<text text-anchor="middle" x="748.088" y="-316.5" font-family="Helvetica,sans-Serif" font-size="10.00">xmmKMeansParameters.hpp</text>
</a>
</g>
</g>
<!-- Node2&#45;&gt;Node26 -->
<g id="edge38" class="edge"><title>Node2&#45;&gt;Node26</title>
<path fill="none" stroke="midnightblue" d="M615.501,-370.435C641.787,-360.536 686.578,-343.666 716.74,-332.306"/>
<polygon fill="midnightblue" stroke="midnightblue" points="718.236,-335.483 726.361,-328.683 715.769,-328.932 718.236,-335.483"/>
</g>
<!-- Node27 -->
<g id="node27" class="node"><title>Node27</title>
<g id="a_node27"><a xlink:href="xmm_k_means_results_8hpp.html" target="_top" xlink:title="xmmKMeansResults.hpp">
<polygon fill="white" stroke="black" points="530.512,-310.5 530.512,-328.5 657.665,-328.5 657.665,-310.5 530.512,-310.5"/>
<text text-anchor="middle" x="594.088" y="-316.5" font-family="Helvetica,sans-Serif" font-size="10.00">xmmKMeansResults.hpp</text>
</a>
</g>
</g>
<!-- Node2&#45;&gt;Node27 -->
<g id="edge40" class="edge"><title>Node2&#45;&gt;Node27</title>
<path fill="none" stroke="midnightblue" d="M594.088,-370.435C594.088,-362.389 594.088,-349.739 594.088,-339.185"/>
<polygon fill="midnightblue" stroke="midnightblue" points="597.588,-338.872 594.088,-328.872 590.588,-338.872 597.588,-338.872"/>
</g>
<!-- Node4 -->
<g id="node4" class="node"><title>Node4</title>
<g id="a_node4"><a xlink:href="xmm_model_parameters_8hpp.html" target="_top" xlink:title="xmmModelParameters.hpp">
<polygon fill="white" stroke="black" points="507.066,-130.5 507.066,-148.5 643.11,-148.5 643.11,-130.5 507.066,-130.5"/>
<text text-anchor="middle" x="575.088" y="-136.5" font-family="Helvetica,sans-Serif" font-size="10.00">xmmModelParameters.hpp</text>
</a>
</g>
</g>
<!-- Node3&#45;&gt;Node4 -->
<g id="edge3" class="edge"><title>Node3&#45;&gt;Node4</title>
<path fill="none" stroke="midnightblue" d="M518.653,-185.339C530.027,-176.302 545.126,-164.306 556.844,-154.995"/>
<polygon fill="midnightblue" stroke="midnightblue" points="559.025,-157.733 564.678,-148.771 554.671,-152.252 559.025,-157.733"/>
</g>
<!-- Node14 -->
<g id="node14" class="node"><title>Node14</title>
<polygon fill="white" stroke="#bfbfbf" points="2.36178,-5.5 2.36178,-23.5 37.8149,-23.5 37.8149,-5.5 2.36178,-5.5"/>
<text text-anchor="middle" x="20.0883" y="-11.5" font-family="Helvetica,sans-Serif" font-size="10.00">map</text>
</g>
<!-- Node3&#45;&gt;Node14 -->
<g id="edge14" class="edge"><title>Node3&#45;&gt;Node14</title>
<path fill="none" stroke="midnightblue" d="M434.837,-192.113C320.211,-179.844 94.0323,-149.183 39.0883,-94 23.3438,-78.1869 19.8318,-51.6985 19.4282,-33.918"/>
<polygon fill="midnightblue" stroke="midnightblue" points="22.9299,-33.7201 19.5145,-23.6909 15.9302,-33.661 22.9299,-33.7201"/>
</g>
<!-- Node5 -->
<g id="node5" class="node"><title>Node5</title>
<g id="a_node5"><a xlink:href="xmm_attribute_8hpp.html" target="_top" xlink:title="../common/xmmAttribute.hpp">
<polygon fill="white" stroke="black" points="488.177,-70.5 488.177,-88.5 631.999,-88.5 631.999,-70.5 488.177,-70.5"/>
<text text-anchor="middle" x="560.088" y="-76.5" font-family="Helvetica,sans-Serif" font-size="10.00">../common/xmmAttribute.hpp</text>
</a>
</g>
</g>
<!-- Node4&#45;&gt;Node5 -->
<g id="edge4" class="edge"><title>Node4&#45;&gt;Node5</title>
<path fill="none" stroke="midnightblue" d="M573.003,-130.435C570.9,-122.304 567.58,-109.469 564.834,-98.8485"/>
<polygon fill="midnightblue" stroke="midnightblue" points="568.146,-97.6769 562.253,-88.8718 561.369,-99.4296 568.146,-97.6769"/>
</g>
<!-- Node11 -->
<g id="node11" class="node"><title>Node11</title>
<g id="a_node11"><a xlink:href="xmm_json_8hpp.html" target="_top" xlink:title="../common/xmmJson.hpp">
<polygon fill="white" stroke="black" points="802.236,-70.5 802.236,-88.5 929.94,-88.5 929.94,-70.5 802.236,-70.5"/>
<text text-anchor="middle" x="866.088" y="-76.5" font-family="Helvetica,sans-Serif" font-size="10.00">../common/xmmJson.hpp</text>
</a>
</g>
</g>
<!-- Node4&#45;&gt;Node11 -->
<g id="edge10" class="edge"><title>Node4&#45;&gt;Node11</title>
<path fill="none" stroke="midnightblue" d="M615.245,-130.496C667.607,-120.06 759.201,-101.804 816.032,-90.4768"/>
<polygon fill="midnightblue" stroke="midnightblue" points="816.754,-93.9019 825.877,-88.5147 815.385,-87.037 816.754,-93.9019"/>
</g>
<!-- Node6 -->
<g id="node6" class="node"><title>Node6</title>
<polygon fill="white" stroke="#bfbfbf" points="443.685,-5.5 443.685,-23.5 502.492,-23.5 502.492,-5.5 443.685,-5.5"/>
<text text-anchor="middle" x="473.088" y="-11.5" font-family="Helvetica,sans-Serif" font-size="10.00">functional</text>
</g>
<!-- Node5&#45;&gt;Node6 -->
<g id="edge5" class="edge"><title>Node5&#45;&gt;Node6</title>
<path fill="none" stroke="midnightblue" d="M548.715,-70.2639C534.438,-59.9254 509.729,-42.0329 492.452,-29.5222"/>
<polygon fill="midnightblue" stroke="midnightblue" points="494.342,-26.5693 484.19,-23.539 490.236,-32.2389 494.342,-26.5693"/>
</g>
<!-- Node5&#45;&gt;Node7 -->
<g id="edge6" class="edge"><title>Node5&#45;&gt;Node7</title>
<path fill="none" stroke="midnightblue" d="M606.74,-70.4948C617.978,-68.63 629.954,-66.6954 641.088,-65 756.852,-47.3728 789.986,-62.8393 902.088,-29 903.509,-28.5711 904.948,-28.0786 906.384,-27.5411"/>
<polygon fill="midnightblue" stroke="midnightblue" points="907.832,-30.7282 915.613,-23.538 905.046,-24.3062 907.832,-30.7282"/>
</g>
<!-- Node8 -->
<g id="node8" class="node"><title>Node8</title>
<polygon fill="white" stroke="#bfbfbf" points="525.687,-5.5 525.687,-23.5 584.49,-23.5 584.49,-5.5 525.687,-5.5"/>
<text text-anchor="middle" x="555.088" y="-11.5" font-family="Helvetica,sans-Serif" font-size="10.00">stdexcept</text>
</g>
<!-- Node5&#45;&gt;Node8 -->
<g id="edge7" class="edge"><title>Node5&#45;&gt;Node8</title>
<path fill="none" stroke="midnightblue" d="M559.435,-70.2639C558.704,-61.0635 557.5,-45.881 556.543,-33.8326"/>
<polygon fill="midnightblue" stroke="midnightblue" points="560.007,-33.2307 555.726,-23.539 553.029,-33.7846 560.007,-33.2307"/>
</g>
<!-- Node9 -->
<g id="node9" class="node"><title>Node9</title>
<polygon fill="white" stroke="#bfbfbf" points="619.862,-5.5 619.862,-23.5 660.315,-23.5 660.315,-5.5 619.862,-5.5"/>
<text text-anchor="middle" x="640.088" y="-11.5" font-family="Helvetica,sans-Serif" font-size="10.00">string</text>
</g>
<!-- Node5&#45;&gt;Node9 -->
<g id="edge8" class="edge"><title>Node5&#45;&gt;Node9</title>
<path fill="none" stroke="midnightblue" d="M570.547,-70.2639C583.555,-60.0202 605.98,-42.3606 621.843,-29.8679"/>
<polygon fill="midnightblue" stroke="midnightblue" points="624.189,-32.4756 629.88,-23.539 619.858,-26.9762 624.189,-32.4756"/>
</g>
<!-- Node10 -->
<g id="node10" class="node"><title>Node10</title>
<polygon fill="white" stroke="#bfbfbf" points="686.473,-5.5 686.473,-23.5 729.704,-23.5 729.704,-5.5 686.473,-5.5"/>
<text text-anchor="middle" x="708.088" y="-11.5" font-family="Helvetica,sans-Serif" font-size="10.00">vector</text>
</g>
<!-- Node5&#45;&gt;Node10 -->
<g id="edge9" class="edge"><title>Node5&#45;&gt;Node10</title>
<path fill="none" stroke="midnightblue" d="M579.134,-70.3928C604.665,-59.5246 650.192,-40.145 679.754,-27.561"/>
<polygon fill="midnightblue" stroke="midnightblue" points="681.286,-30.7132 689.116,-23.5761 678.544,-24.2724 681.286,-30.7132"/>
</g>
<!-- Node11&#45;&gt;Node10 -->
<g id="edge13" class="edge"><title>Node11&#45;&gt;Node10</title>
<path fill="none" stroke="midnightblue" d="M845.756,-70.3928C818.381,-59.4773 769.473,-39.9763 737.926,-27.3973"/>
<polygon fill="midnightblue" stroke="midnightblue" points="738.928,-24.0288 728.343,-23.5761 736.335,-30.531 738.928,-24.0288"/>
</g>
<!-- Node12 -->
<g id="node12" class="node"><title>Node12</title>
<polygon fill="white" stroke="#bfbfbf" points="775.5,-0.5 775.5,-28.5 892.677,-28.5 892.677,-0.5 775.5,-0.5"/>
<text text-anchor="start" x="783.5" y="-16.5" font-family="Helvetica,sans-Serif" font-size="10.00">../../../dependencies</text>
<text text-anchor="middle" x="834.088" y="-6.5" font-family="Helvetica,sans-Serif" font-size="10.00">/jsoncpp/include/json.h</text>
</g>
<!-- Node11&#45;&gt;Node12 -->
<g id="edge11" class="edge"><title>Node11&#45;&gt;Node12</title>
<path fill="none" stroke="midnightblue" d="M861.905,-70.2639C857.723,-62.0297 851.106,-49.0039 845.376,-37.7217"/>
<polygon fill="midnightblue" stroke="midnightblue" points="848.492,-36.1289 840.843,-28.7981 842.251,-39.299 848.492,-36.1289"/>
</g>
<!-- Node13 -->
<g id="node13" class="node"><title>Node13</title>
<polygon fill="white" stroke="#bfbfbf" points="967.418,-5.5 967.418,-23.5 1016.76,-23.5 1016.76,-5.5 967.418,-5.5"/>
<text text-anchor="middle" x="992.088" y="-11.5" font-family="Helvetica,sans-Serif" font-size="10.00">fstream</text>
</g>
<!-- Node11&#45;&gt;Node13 -->
<g id="edge12" class="edge"><title>Node11&#45;&gt;Node13</title>
<path fill="none" stroke="midnightblue" d="M882.303,-70.3928C903.756,-59.6664 941.79,-40.6491 966.975,-28.0569"/>
<polygon fill="midnightblue" stroke="midnightblue" points="968.557,-31.1787 975.936,-23.5761 965.427,-24.9177 968.557,-31.1787"/>
</g>
<!-- Node16 -->
<g id="node16" class="node"><title>Node16</title>
<g id="a_node16"><a xlink:href="xmm_circularbuffer_8hpp.html" target="_top" xlink:title="../common/xmmCircularbuffer.hpp">
<polygon fill="white" stroke="black" points="304.149,-70.5 304.149,-88.5 470.027,-88.5 470.027,-70.5 304.149,-70.5"/>
<text text-anchor="middle" x="387.088" y="-76.5" font-family="Helvetica,sans-Serif" font-size="10.00">../common/xmmCircularbuffer.hpp</text>
</a>
</g>
</g>
<!-- Node15&#45;&gt;Node16 -->
<g id="edge16" class="edge"><title>Node15&#45;&gt;Node16</title>
<path fill="none" stroke="midnightblue" d="M271.648,-305.459C292.254,-297.857 314.78,-286.259 330.088,-269 374.307,-219.149 384.234,-135.941 386.454,-99.0652"/>
<polygon fill="midnightblue" stroke="midnightblue" points="389.962,-98.9756 386.938,-88.8216 382.97,-98.6454 389.962,-98.9756"/>
</g>
<!-- Node18 -->
<g id="node18" class="node"><title>Node18</title>
<g id="a_node18"><a xlink:href="xmm_events_8hpp.html" target="_top" xlink:title="../common/xmmEvents.hpp">
<polygon fill="white" stroke="black" points="48.5122,-70.5 48.5122,-88.5 185.665,-88.5 185.665,-70.5 48.5122,-70.5"/>
<text text-anchor="middle" x="117.088" y="-76.5" font-family="Helvetica,sans-Serif" font-size="10.00">../common/xmmEvents.hpp</text>
</a>
</g>
</g>
<!-- Node15&#45;&gt;Node18 -->
<g id="edge20" class="edge"><title>Node15&#45;&gt;Node18</title>
<path fill="none" stroke="midnightblue" d="M154.178,-312.911C118.642,-306.898 76.2128,-294.499 46.0883,-269 25.4508,-251.531 26.0099,-240.382 20.0883,-214 17.2656,-201.424 15.3783,-196.997 20.0883,-185 35.4888,-145.772 73.3063,-112.502 96.9132,-94.6155"/>
<polygon fill="midnightblue" stroke="midnightblue" points="99.2037,-97.2757 105.189,-88.5332 95.0581,-91.6354 99.2037,-97.2757"/>
</g>
<!-- Node20 -->
<g id="node20" class="node"><title>Node20</title>
<g id="a_node20"><a xlink:href="xmm_training_set_8hpp.html" target="_top" xlink:title="../trainingset/xmmTraining\lSet.hpp">
<polygon fill="white" stroke="black" points="155.752,-185.5 155.752,-213.5 286.425,-213.5 286.425,-185.5 155.752,-185.5"/>
<text text-anchor="start" x="163.752" y="-201.5" font-family="Helvetica,sans-Serif" font-size="10.00">../trainingset/xmmTraining</text>
<text text-anchor="middle" x="221.088" y="-191.5" font-family="Helvetica,sans-Serif" font-size="10.00">Set.hpp</text>
</a>
</g>
</g>
<!-- Node15&#45;&gt;Node20 -->
<g id="edge24" class="edge"><title>Node15&#45;&gt;Node20</title>
<path fill="none" stroke="midnightblue" d="M265.879,-305.447C296.571,-293.978 329.213,-275.185 314.088,-250 305.51,-235.717 291.261,-225.331 276.463,-217.877"/>
<polygon fill="midnightblue" stroke="midnightblue" points="277.77,-214.625 267.225,-213.606 274.833,-220.979 277.77,-214.625"/>
</g>
<!-- Node23 -->
<g id="node23" class="node"><title>Node23</title>
<g id="a_node23"><a xlink:href="xmm_model_shared_parameters_8hpp.html" target="_top" xlink:title="xmmModelSharedParameters.hpp">
<polygon fill="white" stroke="black" points="136.943,-250.5 136.943,-268.5 305.233,-268.5 305.233,-250.5 136.943,-250.5"/>
<text text-anchor="middle" x="221.088" y="-256.5" font-family="Helvetica,sans-Serif" font-size="10.00">xmmModelSharedParameters.hpp</text>
</a>
</g>
</g>
<!-- Node15&#45;&gt;Node23 -->
<g id="edge32" class="edge"><title>Node15&#45;&gt;Node23</title>
<path fill="none" stroke="midnightblue" d="M221.088,-305.339C221.088,-297.531 221.088,-287.512 221.088,-278.927"/>
<polygon fill="midnightblue" stroke="midnightblue" points="224.588,-278.771 221.088,-268.771 217.588,-278.772 224.588,-278.771"/>
</g>
<!-- Node24 -->
<g id="node24" class="node"><title>Node24</title>
<polygon fill="white" stroke="#bfbfbf" points="29.4726,-190.5 29.4726,-208.5 72.7041,-208.5 72.7041,-190.5 29.4726,-190.5"/>
<text text-anchor="middle" x="51.0883" y="-196.5" font-family="Helvetica,sans-Serif" font-size="10.00">mutex</text>
</g>
<!-- Node15&#45;&gt;Node24 -->
<g id="edge37" class="edge"><title>Node15&#45;&gt;Node24</title>
<path fill="none" stroke="midnightblue" d="M153.952,-315.105C120.058,-309.707 81.3068,-297.195 58.0883,-269 46.7038,-255.175 46.2466,-234.072 47.826,-218.944"/>
<polygon fill="midnightblue" stroke="midnightblue" points="51.3315,-219.155 49.2836,-208.76 44.4021,-218.163 51.3315,-219.155"/>
</g>
<!-- Node25 -->
<g id="node25" class="node"><title>Node25</title>
<polygon fill="white" stroke="#bfbfbf" points="67.0317,-250.5 67.0317,-268.5 119.145,-268.5 119.145,-250.5 67.0317,-250.5"/>
<text text-anchor="middle" x="93.0883" y="-256.5" font-family="Helvetica,sans-Serif" font-size="10.00">memory</text>
</g>
<!-- Node15&#45;&gt;Node25 -->
<g id="edge36" class="edge"><title>Node15&#45;&gt;Node25</title>
<path fill="none" stroke="midnightblue" d="M192.363,-305.484C170.855,-295.738 141.619,-282.491 120.449,-272.898"/>
<polygon fill="midnightblue" stroke="midnightblue" points="121.613,-269.583 111.06,-268.643 118.724,-275.959 121.613,-269.583"/>
</g>
<!-- Node16&#45;&gt;Node8 -->
<g id="edge18" class="edge"><title>Node16&#45;&gt;Node8</title>
<path fill="none" stroke="midnightblue" d="M408.707,-70.3928C437.941,-59.4301 490.269,-39.8073 523.797,-27.2343"/>
<polygon fill="midnightblue" stroke="midnightblue" points="525.418,-30.3645 533.552,-23.5761 522.96,-23.8102 525.418,-30.3645"/>
</g>
<!-- Node16&#45;&gt;Node10 -->
<g id="edge19" class="edge"><title>Node16&#45;&gt;Node10</title>
<path fill="none" stroke="midnightblue" d="M438.62,-70.4659C507.663,-59.5273 626.444,-40.0483 669.088,-29 671.728,-28.316 674.445,-27.537 677.158,-26.7063"/>
<polygon fill="midnightblue" stroke="midnightblue" points="678.402,-29.9823 686.82,-23.5492 676.227,-23.3285 678.402,-29.9823"/>
</g>
<!-- Node17 -->
<g id="node17" class="node"><title>Node17</title>
<polygon fill="white" stroke="#bfbfbf" points="357.685,-5.5 357.685,-23.5 416.492,-23.5 416.492,-5.5 357.685,-5.5"/>
<text text-anchor="middle" x="387.088" y="-11.5" font-family="Helvetica,sans-Serif" font-size="10.00">exception</text>
</g>
<!-- Node16&#45;&gt;Node17 -->
<g id="edge17" class="edge"><title>Node16&#45;&gt;Node17</title>
<path fill="none" stroke="midnightblue" d="M387.088,-70.2639C387.088,-61.0635 387.088,-45.881 387.088,-33.8326"/>
<polygon fill="midnightblue" stroke="midnightblue" points="390.588,-33.5389 387.088,-23.539 383.588,-33.539 390.588,-33.5389"/>
</g>
<!-- Node18&#45;&gt;Node6 -->
<g id="edge21" class="edge"><title>Node18&#45;&gt;Node6</title>
<path fill="none" stroke="midnightblue" d="M180.607,-70.4625C243.164,-62.0376 341.256,-47.4615 425.088,-29 428.926,-28.1549 432.911,-27.1851 436.872,-26.1614"/>
<polygon fill="midnightblue" stroke="midnightblue" points="437.824,-29.5298 446.567,-23.5459 436,-22.7714 437.824,-29.5298"/>
</g>
<!-- Node18&#45;&gt;Node14 -->
<g id="edge22" class="edge"><title>Node18&#45;&gt;Node14</title>
<path fill="none" stroke="midnightblue" d="M104.407,-70.2639C88.2702,-59.7831 60.1802,-41.539 40.8876,-29.0088"/>
<polygon fill="midnightblue" stroke="midnightblue" points="42.7587,-26.0506 32.4658,-23.539 38.9458,-31.9211 42.7587,-26.0506"/>
</g>
<!-- Node19 -->
<g id="node19" class="node"><title>Node19</title>
<polygon fill="white" stroke="#bfbfbf" points="150.418,-5.5 150.418,-23.5 179.758,-23.5 179.758,-5.5 150.418,-5.5"/>
<text text-anchor="middle" x="165.088" y="-11.5" font-family="Helvetica,sans-Serif" font-size="10.00">set</text>
</g>
<!-- Node18&#45;&gt;Node19 -->
<g id="edge23" class="edge"><title>Node18&#45;&gt;Node19</title>
<path fill="none" stroke="midnightblue" d="M123.364,-70.2639C130.807,-60.4945 143.389,-43.9798 152.795,-31.635"/>
<polygon fill="midnightblue" stroke="midnightblue" points="155.687,-33.6145 158.963,-23.539 150.119,-29.3722 155.687,-33.6145"/>
</g>
<!-- Node20&#45;&gt;Node14 -->
<g id="edge30" class="edge"><title>Node20&#45;&gt;Node14</title>
<path fill="none" stroke="midnightblue" d="M155.72,-186.129C105.215,-172.768 38.6179,-145.979 6.08835,-94 -5.58852,-75.3414 2.64007,-49.5783 10.5523,-32.7336"/>
<polygon fill="midnightblue" stroke="midnightblue" points="13.8166,-34.0375 15.257,-23.541 7.58532,-30.8483 13.8166,-34.0375"/>
</g>
<!-- Node20&#45;&gt;Node19 -->
<g id="edge31" class="edge"><title>Node20&#45;&gt;Node19</title>
<path fill="none" stroke="midnightblue" d="M220.054,-185.188C217.813,-160.678 211.339,-107.071 195.088,-65 190.581,-53.3295 183.362,-41.3029 177.135,-32.0268"/>
<polygon fill="midnightblue" stroke="midnightblue" points="179.972,-29.9763 171.376,-23.7826 174.234,-33.9849 179.972,-29.9763"/>
</g>
<!-- Node21 -->
<g id="node21" class="node"><title>Node21</title>
<g id="a_node21"><a xlink:href="xmm_phrase_8hpp.html" target="_top" xlink:title="xmmPhrase.hpp">
<polygon fill="white" stroke="black" points="270.685,-130.5 270.685,-148.5 359.492,-148.5 359.492,-130.5 270.685,-130.5"/>
<text text-anchor="middle" x="315.088" y="-136.5" font-family="Helvetica,sans-Serif" font-size="10.00">xmmPhrase.hpp</text>
</a>
</g>
</g>
<!-- Node20&#45;&gt;Node21 -->
<g id="edge25" class="edge"><title>Node20&#45;&gt;Node21</title>
<path fill="none" stroke="midnightblue" d="M242.418,-185.339C257.58,-175.984 277.883,-163.456 293.175,-154.021"/>
<polygon fill="midnightblue" stroke="midnightblue" points="295.285,-156.832 301.958,-148.602 291.61,-150.874 295.285,-156.832"/>
</g>
<!-- Node21&#45;&gt;Node5 -->
<g id="edge26" class="edge"><title>Node21&#45;&gt;Node5</title>
<path fill="none" stroke="midnightblue" d="M348.897,-130.496C392.526,-120.168 468.505,-102.181 516.45,-90.8308"/>
<polygon fill="midnightblue" stroke="midnightblue" points="517.308,-94.2243 526.233,-88.5147 515.696,-87.4126 517.308,-94.2243"/>
</g>
<!-- Node21&#45;&gt;Node11 -->
<g id="edge28" class="edge"><title>Node21&#45;&gt;Node11</title>
<path fill="none" stroke="midnightblue" d="M359.725,-135.692C444.467,-130.062 634.378,-116.017 793.088,-94 800.633,-92.9533 808.585,-91.6704 816.355,-90.316"/>
<polygon fill="midnightblue" stroke="midnightblue" points="817.189,-93.7221 826.413,-88.5084 815.951,-86.8325 817.189,-93.7221"/>
</g>
<!-- Node21&#45;&gt;Node18 -->
<g id="edge27" class="edge"><title>Node21&#45;&gt;Node18</title>
<path fill="none" stroke="midnightblue" d="M287.557,-130.435C252.929,-120.292 193.323,-102.831 154.563,-91.4774"/>
<polygon fill="midnightblue" stroke="midnightblue" points="155.285,-88.0418 144.704,-88.5894 153.317,-94.7595 155.285,-88.0418"/>
</g>
<!-- Node22 -->
<g id="node22" class="node"><title>Node22</title>
<polygon fill="white" stroke="#bfbfbf" points="242.473,-70.5 242.473,-88.5 285.704,-88.5 285.704,-70.5 242.473,-70.5"/>
<text text-anchor="middle" x="264.088" y="-76.5" font-family="Helvetica,sans-Serif" font-size="10.00">cmath</text>
</g>
<!-- Node21&#45;&gt;Node22 -->
<g id="edge29" class="edge"><title>Node21&#45;&gt;Node22</title>
<path fill="none" stroke="midnightblue" d="M307.997,-130.435C300.32,-121.704 287.876,-107.552 278.192,-96.5395"/>
<polygon fill="midnightblue" stroke="midnightblue" points="280.682,-94.0703 271.45,-88.8718 275.425,-98.6927 280.682,-94.0703"/>
</g>
<!-- Node23&#45;&gt;Node18 -->
<g id="edge33" class="edge"><title>Node23&#45;&gt;Node18</title>
<path fill="none" stroke="midnightblue" d="M198.245,-250.451C181.558,-243.396 159.723,-231.504 147.088,-214 121.785,-178.944 117.297,-126.258 116.816,-98.7282"/>
<polygon fill="midnightblue" stroke="midnightblue" points="120.316,-98.5913 116.807,-88.5946 113.316,-98.5979 120.316,-98.5913"/>
</g>
<!-- Node23&#45;&gt;Node20 -->
<g id="edge34" class="edge"><title>Node23&#45;&gt;Node20</title>
<path fill="none" stroke="midnightblue" d="M221.088,-250.435C221.088,-243.56 221.088,-233.324 221.088,-223.906"/>
<polygon fill="midnightblue" stroke="midnightblue" points="224.588,-223.843 221.088,-213.843 217.588,-223.843 224.588,-223.843"/>
</g>
<!-- Node23&#45;&gt;Node24 -->
<g id="edge35" class="edge"><title>Node23&#45;&gt;Node24</title>
<path fill="none" stroke="midnightblue" d="M195.799,-250.42C168.785,-241.714 124.761,-227.314 87.0883,-214 85.4442,-213.419 83.7606,-212.816 82.0629,-212.201"/>
<polygon fill="midnightblue" stroke="midnightblue" points="82.9531,-208.8 72.3596,-208.63 80.5352,-215.369 82.9531,-208.8"/>
</g>
<!-- Node26&#45;&gt;Node4 -->
<g id="edge39" class="edge"><title>Node26&#45;&gt;Node4</title>
<path fill="none" stroke="midnightblue" d="M740.205,-310.389C713.412,-282.821 625.552,-192.422 590.11,-155.956"/>
<polygon fill="midnightblue" stroke="midnightblue" points="592.497,-153.39 583.018,-148.658 587.477,-158.269 592.497,-153.39"/>
</g>
<!-- Node28 -->
<g id="node28" class="node"><title>Node28</title>
<g id="a_node28"><a xlink:href="xmm_model_results_8hpp.html" target="_top" xlink:title="../../core/model/xmmModel\lResults.hpp">
<polygon fill="white" stroke="black" points="650.182,-65.5 650.182,-93.5 783.995,-93.5 783.995,-65.5 650.182,-65.5"/>
<text text-anchor="start" x="658.182" y="-81.5" font-family="Helvetica,sans-Serif" font-size="10.00">../../core/model/xmmModel</text>
<text text-anchor="middle" x="717.088" y="-71.5" font-family="Helvetica,sans-Serif" font-size="10.00">Results.hpp</text>
</a>
</g>
</g>
<!-- Node27&#45;&gt;Node28 -->
<g id="edge41" class="edge"><title>Node27&#45;&gt;Node28</title>
<path fill="none" stroke="midnightblue" d="M598.322,-310.308C615.351,-277.357 679.191,-153.83 705.571,-102.785"/>
<polygon fill="midnightblue" stroke="midnightblue" points="708.841,-104.082 710.323,-93.591 702.622,-100.868 708.841,-104.082"/>
</g>
<!-- Node28&#45;&gt;Node9 -->
<g id="edge42" class="edge"><title>Node28&#45;&gt;Node9</title>
<path fill="none" stroke="midnightblue" d="M701.134,-65.4464C688.559,-55.1577 671.029,-40.8153 657.979,-30.1379"/>
<polygon fill="midnightblue" stroke="midnightblue" points="660.103,-27.3536 650.147,-23.7301 655.671,-32.7714 660.103,-27.3536"/>
</g>
<!-- Node28&#45;&gt;Node10 -->
<g id="edge43" class="edge"><title>Node28&#45;&gt;Node10</title>
<path fill="none" stroke="midnightblue" d="M715.224,-65.4464C713.922,-56.3336 712.166,-44.0406 710.721,-33.9308"/>
<polygon fill="midnightblue" stroke="midnightblue" points="714.143,-33.1346 709.264,-23.7301 707.214,-34.1246 714.143,-33.1346"/>
</g>
</g>
</svg>
