<?xml version="1.0" encoding="UTF-8" standalone="no"?>
<!DOCTYPE svg PUBLIC "-//W3C//DTD SVG 1.1//EN"
 "http://www.w3.org/Graphics/SVG/1.1/DTD/svg11.dtd">
<!-- Generated by graphviz version 2.38.0 (20140413.2041)
 -->
<!-- Title: xmmModel.hpp Pages: 1 -->
<svg width="966pt" height="377pt"
 viewBox="0.00 0.00 966.19 377.00" xmlns="http://www.w3.org/2000/svg" xmlns:xlink="http://www.w3.org/1999/xlink">
<g id="graph0" class="graph" transform="scale(1 1) rotate(0) translate(4 373)">
<title>xmmModel.hpp</title>
<polygon fill="white" stroke="none" points="-4,4 -4,-373 962.188,-373 962.188,4 -4,4"/>
<!-- Node1 -->
<g id="node1" class="node"><title>Node1</title>
<polygon fill="#bfbfbf" stroke="black" points="611.672,-350.5 611.672,-368.5 696.032,-368.5 696.032,-350.5 611.672,-350.5"/>
<text text-anchor="middle" x="653.852" y="-356.5" font-family="Helvetica,sans-Serif" font-size="10.00">xmmModel.hpp</text>
</g>
<!-- Node2 -->
<g id="node2" class="node"><title>Node2</title>
<g id="a_node2"><a xlink:href="xmm_model_configuration_8hpp.html" target="_top" xlink:title="xmmModelConfiguration.hpp">
<polygon fill="white" stroke="black" points="382.931,-180.5 382.931,-198.5 526.773,-198.5 526.773,-180.5 382.931,-180.5"/>
<text text-anchor="middle" x="454.852" y="-186.5" font-family="Helvetica,sans-Serif" font-size="10.00">xmmModelConfiguration.hpp</text>
</a>
</g>
</g>
<!-- Node1&#45;&gt;Node2 -->
<g id="edge1" class="edge"><title>Node1&#45;&gt;Node2</title>
<path fill="none" stroke="midnightblue" d="M636.575,-350.39C620.179,-342.3 595.233,-328.95 575.852,-314 532.268,-280.38 489.037,-231.555 468.017,-206.56"/>
<polygon fill="midnightblue" stroke="midnightblue" points="470.629,-204.227 461.544,-198.777 465.247,-208.703 470.629,-204.227"/>
</g>
<!-- Node14 -->
<g id="node14" class="node"><title>Node14</title>
<g id="a_node14"><a xlink:href="xmm_model_results_8hpp.html" target="_top" xlink:title="xmmModelResults.hpp">
<polygon fill="white" stroke="black" points="0,-65.5 0,-83.5 117.704,-83.5 117.704,-65.5 0,-65.5"/>
<text text-anchor="middle" x="58.8521" y="-71.5" font-family="Helvetica,sans-Serif" font-size="10.00">xmmModelResults.hpp</text>
</a>
</g>
</g>
<!-- Node1&#45;&gt;Node14 -->
<g id="edge14" class="edge"><title>Node1&#45;&gt;Node14</title>
<path fill="none" stroke="midnightblue" d="M611.396,-357.243C499.818,-352.793 206.852,-333.231 206.852,-250.5 206.852,-250.5 206.852,-250.5 206.852,-188.5 206.852,-133.65 141.842,-101.87 97.9945,-86.6721"/>
<polygon fill="midnightblue" stroke="midnightblue" points="99.0398,-83.3314 88.4464,-83.5058 96.8363,-89.9756 99.0398,-83.3314"/>
</g>
<!-- Node15 -->
<g id="node15" class="node"><title>Node15</title>
<g id="a_node15"><a xlink:href="xmm_model_single_class_8hpp.html" target="_top" xlink:title="xmmModelSingleClass.hpp">
<polygon fill="white" stroke="black" points="585.271,-295.5 585.271,-313.5 722.433,-313.5 722.433,-295.5 585.271,-295.5"/>
<text text-anchor="middle" x="653.852" y="-301.5" font-family="Helvetica,sans-Serif" font-size="10.00">xmmModelSingleClass.hpp</text>
</a>
</g>
</g>
<!-- Node1&#45;&gt;Node15 -->
<g id="edge17" class="edge"><title>Node1&#45;&gt;Node15</title>
<path fill="none" stroke="midnightblue" d="M653.852,-350.219C653.852,-343.177 653.852,-332.808 653.852,-323.828"/>
<polygon fill="midnightblue" stroke="midnightblue" points="657.352,-323.55 653.852,-313.55 650.352,-323.55 657.352,-323.55"/>
</g>
<!-- Node26 -->
<g id="node26" class="node"><title>Node26</title>
<polygon fill="white" stroke="#bfbfbf" points="740.125,-295.5 740.125,-313.5 785.579,-313.5 785.579,-295.5 740.125,-295.5"/>
<text text-anchor="middle" x="762.852" y="-301.5" font-family="Helvetica,sans-Serif" font-size="10.00">atomic</text>
</g>
<!-- Node1&#45;&gt;Node26 -->
<g id="edge40" class="edge"><title>Node1&#45;&gt;Node26</title>
<path fill="none" stroke="midnightblue" d="M670.407,-350.45C688.093,-341.851 716.363,-328.105 736.989,-318.075"/>
<polygon fill="midnightblue" stroke="midnightblue" points="738.679,-321.146 746.142,-313.625 735.618,-314.851 738.679,-321.146"/>
</g>
<!-- Node27 -->
<g id="node27" class="node"><title>Node27</title>
<polygon fill="white" stroke="#bfbfbf" points="803.675,-295.5 803.675,-313.5 848.029,-313.5 848.029,-295.5 803.675,-295.5"/>
<text text-anchor="middle" x="825.852" y="-301.5" font-family="Helvetica,sans-Serif" font-size="10.00">thread</text>
</g>
<!-- Node1&#45;&gt;Node27 -->
<g id="edge41" class="edge"><title>Node1&#45;&gt;Node27</title>
<path fill="none" stroke="midnightblue" d="M679.975,-350.45C710.55,-341.029 761.17,-325.431 794.015,-315.31"/>
<polygon fill="midnightblue" stroke="midnightblue" points="795.07,-318.648 803.596,-312.358 793.009,-311.958 795.07,-318.648"/>
</g>
<!-- Node3 -->
<g id="node3" class="node"><title>Node3</title>
<g id="a_node3"><a xlink:href="xmm_model_parameters_8hpp.html" target="_top" xlink:title="xmmModelParameters.hpp">
<polygon fill="white" stroke="black" points="386.83,-120.5 386.83,-138.5 522.874,-138.5 522.874,-120.5 386.83,-120.5"/>
<text text-anchor="middle" x="454.852" y="-126.5" font-family="Helvetica,sans-Serif" font-size="10.00">xmmModelParameters.hpp</text>
</a>
</g>
</g>
<!-- Node2&#45;&gt;Node3 -->
<g id="edge2" class="edge"><title>Node2&#45;&gt;Node3</title>
<path fill="none" stroke="midnightblue" d="M454.852,-180.435C454.852,-172.389 454.852,-159.739 454.852,-149.185"/>
<polygon fill="midnightblue" stroke="midnightblue" points="458.352,-148.872 454.852,-138.872 451.352,-148.872 458.352,-148.872"/>
</g>
<!-- Node13 -->
<g id="node13" class="node"><title>Node13</title>
<polygon fill="white" stroke="#bfbfbf" points="778.125,-5.5 778.125,-23.5 813.579,-23.5 813.579,-5.5 778.125,-5.5"/>
<text text-anchor="middle" x="795.852" y="-11.5" font-family="Helvetica,sans-Serif" font-size="10.00">map</text>
</g>
<!-- Node2&#45;&gt;Node13 -->
<g id="edge13" class="edge"><title>Node2&#45;&gt;Node13</title>
<path fill="none" stroke="midnightblue" d="M519.439,-180.497C576.743,-172.302 655.099,-158.071 679.852,-139 709.139,-116.435 692.926,-92.3061 717.852,-65 732.133,-49.3548 752.441,-36.6772 768.755,-28.0695"/>
<polygon fill="midnightblue" stroke="midnightblue" points="770.481,-31.1186 777.823,-23.48 767.32,-24.8729 770.481,-31.1186"/>
</g>
<!-- Node4 -->
<g id="node4" class="node"><title>Node4</title>
<g id="a_node4"><a xlink:href="xmm_attribute_8hpp.html" target="_top" xlink:title="../common/xmmAttribute.hpp">
<polygon fill="white" stroke="black" points="135.941,-65.5 135.941,-83.5 279.763,-83.5 279.763,-65.5 135.941,-65.5"/>
<text text-anchor="middle" x="207.852" y="-71.5" font-family="Helvetica,sans-Serif" font-size="10.00">../common/xmmAttribute.hpp</text>
</a>
</g>
</g>
<!-- Node3&#45;&gt;Node4 -->
<g id="edge3" class="edge"><title>Node3&#45;&gt;Node4</title>
<path fill="none" stroke="midnightblue" d="M417.338,-120.45C373.961,-111.143 302.489,-95.8067 255.29,-85.6791"/>
<polygon fill="midnightblue" stroke="midnightblue" points="255.825,-82.2143 245.314,-83.5383 254.357,-89.0585 255.825,-82.2143"/>
</g>
<!-- Node10 -->
<g id="node10" class="node"><title>Node10</title>
<g id="a_node10"><a xlink:href="xmm_json_8hpp.html" target="_top" xlink:title="../common/xmmJson.hpp">
<polygon fill="white" stroke="black" points="482,-65.5 482,-83.5 609.704,-83.5 609.704,-65.5 482,-65.5"/>
<text text-anchor="middle" x="545.852" y="-71.5" font-family="Helvetica,sans-Serif" font-size="10.00">../common/xmmJson.hpp</text>
</a>
</g>
</g>
<!-- Node3&#45;&gt;Node10 -->
<g id="edge9" class="edge"><title>Node3&#45;&gt;Node10</title>
<path fill="none" stroke="midnightblue" d="M468.673,-120.45C483.104,-112.045 505.977,-98.7241 523.082,-88.7618"/>
<polygon fill="midnightblue" stroke="midnightblue" points="525.021,-91.6826 531.901,-83.6253 521.498,-85.6337 525.021,-91.6826"/>
</g>
<!-- Node5 -->
<g id="node5" class="node"><title>Node5</title>
<polygon fill="white" stroke="#bfbfbf" points="695.448,-5.5 695.448,-23.5 754.256,-23.5 754.256,-5.5 695.448,-5.5"/>
<text text-anchor="middle" x="724.852" y="-11.5" font-family="Helvetica,sans-Serif" font-size="10.00">functional</text>
</g>
<!-- Node4&#45;&gt;Node5 -->
<g id="edge4" class="edge"><title>Node4&#45;&gt;Node5</title>
<path fill="none" stroke="midnightblue" d="M279.839,-65.9243C282.884,-65.6107 285.898,-65.3015 288.852,-65 450.139,-48.5398 491.333,-51.7611 651.852,-29 662.683,-27.4642 674.356,-25.4629 685.123,-23.4735"/>
<polygon fill="midnightblue" stroke="midnightblue" points="685.935,-26.8821 695.11,-21.5854 684.634,-20.0039 685.935,-26.8821"/>
</g>
<!-- Node6 -->
<g id="node6" class="node"><title>Node6</title>
<polygon fill="white" stroke="#bfbfbf" points="171.465,-5.5 171.465,-23.5 210.239,-23.5 210.239,-5.5 171.465,-5.5"/>
<text text-anchor="middle" x="190.852" y="-11.5" font-family="Helvetica,sans-Serif" font-size="10.00">limits</text>
</g>
<!-- Node4&#45;&gt;Node6 -->
<g id="edge5" class="edge"><title>Node4&#45;&gt;Node6</title>
<path fill="none" stroke="midnightblue" d="M205.488,-65.4353C203.08,-57.2179 199.264,-44.1985 196.132,-33.5138"/>
<polygon fill="midnightblue" stroke="midnightblue" points="199.477,-32.4836 193.306,-23.8718 192.76,-34.4525 199.477,-32.4836"/>
</g>
<!-- Node7 -->
<g id="node7" class="node"><title>Node7</title>
<polygon fill="white" stroke="#bfbfbf" points="228.451,-5.5 228.451,-23.5 287.253,-23.5 287.253,-5.5 228.451,-5.5"/>
<text text-anchor="middle" x="257.852" y="-11.5" font-family="Helvetica,sans-Serif" font-size="10.00">stdexcept</text>
</g>
<!-- Node4&#45;&gt;Node7 -->
<g id="edge6" class="edge"><title>Node4&#45;&gt;Node7</title>
<path fill="none" stroke="midnightblue" d="M214.804,-65.4353C222.331,-56.7043 234.531,-42.5523 244.025,-31.5395"/>
<polygon fill="midnightblue" stroke="midnightblue" points="246.757,-33.7312 250.635,-23.8718 241.455,-29.1606 246.757,-33.7312"/>
</g>
<!-- Node8 -->
<g id="node8" class="node"><title>Node8</title>
<polygon fill="white" stroke="#bfbfbf" points="83.6255,-5.5 83.6255,-23.5 124.079,-23.5 124.079,-5.5 83.6255,-5.5"/>
<text text-anchor="middle" x="103.852" y="-11.5" font-family="Helvetica,sans-Serif" font-size="10.00">string</text>
</g>
<!-- Node4&#45;&gt;Node8 -->
<g id="edge7" class="edge"><title>Node4&#45;&gt;Node8</title>
<path fill="none" stroke="midnightblue" d="M193.391,-65.4353C176.335,-55.923 147.74,-39.9759 127.457,-28.6645"/>
<polygon fill="midnightblue" stroke="midnightblue" points="128.964,-25.4971 118.525,-23.6831 125.554,-31.6106 128.964,-25.4971"/>
</g>
<!-- Node9 -->
<g id="node9" class="node"><title>Node9</title>
<polygon fill="white" stroke="#bfbfbf" points="305.236,-5.5 305.236,-23.5 348.468,-23.5 348.468,-5.5 305.236,-5.5"/>
<text text-anchor="middle" x="326.852" y="-11.5" font-family="Helvetica,sans-Serif" font-size="10.00">vector</text>
</g>
<!-- Node4&#45;&gt;Node9 -->
<g id="edge8" class="edge"><title>Node4&#45;&gt;Node9</title>
<path fill="none" stroke="midnightblue" d="M224.398,-65.4353C244.18,-55.7939 277.525,-39.5418 300.782,-28.2065"/>
<polygon fill="midnightblue" stroke="midnightblue" points="302.607,-31.2107 310.063,-23.6831 299.54,-24.9182 302.607,-31.2107"/>
</g>
<!-- Node10&#45;&gt;Node9 -->
<g id="edge12" class="edge"><title>Node10&#45;&gt;Node9</title>
<path fill="none" stroke="midnightblue" d="M502.307,-65.4876C463.805,-57.8633 406.38,-45.1662 357.852,-29 356.425,-28.5246 354.973,-28.0091 353.515,-27.4663"/>
<polygon fill="midnightblue" stroke="midnightblue" points="354.601,-24.1301 344.019,-23.6236 351.976,-30.619 354.601,-24.1301"/>
</g>
<!-- Node11 -->
<g id="node11" class="node"><title>Node11</title>
<polygon fill="white" stroke="#bfbfbf" points="458.264,-0.5 458.264,-28.5 575.44,-28.5 575.44,-0.5 458.264,-0.5"/>
<text text-anchor="start" x="466.264" y="-16.5" font-family="Helvetica,sans-Serif" font-size="10.00">../../../dependencies</text>
<text text-anchor="middle" x="516.852" y="-6.5" font-family="Helvetica,sans-Serif" font-size="10.00">/jsoncpp/include/json.h</text>
</g>
<!-- Node10&#45;&gt;Node11 -->
<g id="edge10" class="edge"><title>Node10&#45;&gt;Node11</title>
<path fill="none" stroke="midnightblue" d="M541.82,-65.4353C538.271,-58.3385 532.932,-47.6599 528.101,-37.9969"/>
<polygon fill="midnightblue" stroke="midnightblue" points="531.126,-36.2218 523.523,-28.8428 524.865,-39.3523 531.126,-36.2218"/>
</g>
<!-- Node12 -->
<g id="node12" class="node"><title>Node12</title>
<polygon fill="white" stroke="#bfbfbf" points="593.182,-5.5 593.182,-23.5 642.522,-23.5 642.522,-5.5 593.182,-5.5"/>
<text text-anchor="middle" x="617.852" y="-11.5" font-family="Helvetica,sans-Serif" font-size="10.00">fstream</text>
</g>
<!-- Node10&#45;&gt;Node12 -->
<g id="edge11" class="edge"><title>Node10&#45;&gt;Node12</title>
<path fill="none" stroke="midnightblue" d="M555.863,-65.4353C567.127,-56.3619 585.658,-41.434 599.531,-30.2589"/>
<polygon fill="midnightblue" stroke="midnightblue" points="601.868,-32.8707 607.46,-23.8718 597.476,-27.4194 601.868,-32.8707"/>
</g>
<!-- Node14&#45;&gt;Node8 -->
<g id="edge15" class="edge"><title>Node14&#45;&gt;Node8</title>
<path fill="none" stroke="midnightblue" d="M65.1091,-65.4353C71.8168,-56.7899 82.6483,-42.8292 91.1556,-31.8643"/>
<polygon fill="midnightblue" stroke="midnightblue" points="93.992,-33.9181 97.3567,-23.8718 88.4614,-29.6271 93.992,-33.9181"/>
</g>
<!-- Node14&#45;&gt;Node9 -->
<g id="edge16" class="edge"><title>Node14&#45;&gt;Node9</title>
<path fill="none" stroke="midnightblue" d="M118.182,-66.1408C166.668,-59.2307 236.626,-47.2015 295.852,-29 297.472,-28.5021 299.121,-27.9447 300.772,-27.3477"/>
<polygon fill="midnightblue" stroke="midnightblue" points="302.074,-30.5967 310.058,-23.6317 299.473,-24.0978 302.074,-30.5967"/>
</g>
<!-- Node16 -->
<g id="node16" class="node"><title>Node16</title>
<g id="a_node16"><a xlink:href="xmm_circularbuffer_8hpp.html" target="_top" xlink:title="../common/xmmCircularbuffer.hpp">
<polygon fill="white" stroke="black" points="297.913,-65.5 297.913,-83.5 463.791,-83.5 463.791,-65.5 297.913,-65.5"/>
<text text-anchor="middle" x="380.852" y="-71.5" font-family="Helvetica,sans-Serif" font-size="10.00">../common/xmmCircularbuffer.hpp</text>
</a>
</g>
</g>
<!-- Node15&#45;&gt;Node16 -->
<g id="edge18" class="edge"><title>Node15&#45;&gt;Node16</title>
<path fill="none" stroke="midnightblue" d="M637.993,-295.354C624.228,-287.601 604.565,-274.79 591.852,-259 549.653,-206.589 582.219,-164.618 531.852,-120 512.703,-103.037 487.37,-92.5292 462.935,-86.0241"/>
<polygon fill="midnightblue" stroke="midnightblue" points="463.451,-82.5468 452.905,-83.5568 461.779,-89.3442 463.451,-82.5468"/>
</g>
<!-- Node18 -->
<g id="node18" class="node"><title>Node18</title>
<g id="a_node18"><a xlink:href="xmm_events_8hpp.html" target="_top" xlink:title="../common/xmmEvents.hpp">
<polygon fill="white" stroke="black" points="727.276,-65.5 727.276,-83.5 864.428,-83.5 864.428,-65.5 727.276,-65.5"/>
<text text-anchor="middle" x="795.852" y="-71.5" font-family="Helvetica,sans-Serif" font-size="10.00">../common/xmmEvents.hpp</text>
</a>
</g>
</g>
<!-- Node15&#45;&gt;Node18 -->
<g id="edge22" class="edge"><title>Node15&#45;&gt;Node18</title>
<path fill="none" stroke="midnightblue" d="M656.654,-295.286C663.997,-274.312 685.09,-217.444 711.852,-175 732.228,-142.683 762.307,-109.674 780.399,-90.9692"/>
<polygon fill="midnightblue" stroke="midnightblue" points="783.071,-93.2439 787.574,-83.6535 778.073,-88.3427 783.071,-93.2439"/>
</g>
<!-- Node20 -->
<g id="node20" class="node"><title>Node20</title>
<g id="a_node20"><a xlink:href="xmm_training_set_8hpp.html" target="_top" xlink:title="../trainingset/xmmTraining\lSet.hpp">
<polygon fill="white" stroke="black" points="827.516,-175.5 827.516,-203.5 958.188,-203.5 958.188,-175.5 827.516,-175.5"/>
<text text-anchor="start" x="835.516" y="-191.5" font-family="Helvetica,sans-Serif" font-size="10.00">../trainingset/xmmTraining</text>
<text text-anchor="middle" x="892.852" y="-181.5" font-family="Helvetica,sans-Serif" font-size="10.00">Set.hpp</text>
</a>
</g>
</g>
<!-- Node15&#45;&gt;Node20 -->
<g id="edge26" class="edge"><title>Node15&#45;&gt;Node20</title>
<path fill="none" stroke="midnightblue" d="M714.823,-295.469C792.363,-284.962 917.099,-266.957 923.852,-259 935.754,-244.976 925.162,-225.638 913.233,-211.084"/>
<polygon fill="midnightblue" stroke="midnightblue" points="915.838,-208.746 906.602,-203.555 910.584,-213.372 915.838,-208.746"/>
</g>
<!-- Node23 -->
<g id="node23" class="node"><title>Node23</title>
<g id="a_node23"><a xlink:href="xmm_model_shared_parameters_8hpp.html" target="_top" xlink:title="xmmModelSharedParameters.hpp">
<polygon fill="white" stroke="black" points="746.707,-240.5 746.707,-258.5 914.997,-258.5 914.997,-240.5 746.707,-240.5"/>
<text text-anchor="middle" x="830.852" y="-246.5" font-family="Helvetica,sans-Serif" font-size="10.00">xmmModelSharedParameters.hpp</text>
</a>
</g>
</g>
<!-- Node15&#45;&gt;Node23 -->
<g id="edge34" class="edge"><title>Node15&#45;&gt;Node23</title>
<path fill="none" stroke="midnightblue" d="M680.735,-295.45C710.971,-286.396 760.259,-271.638 794.054,-261.519"/>
<polygon fill="midnightblue" stroke="midnightblue" points="795.431,-264.76 804.007,-258.538 793.423,-258.054 795.431,-264.76"/>
</g>
<!-- Node24 -->
<g id="node24" class="node"><title>Node24</title>
<polygon fill="white" stroke="#bfbfbf" points="721.236,-180.5 721.236,-198.5 764.468,-198.5 764.468,-180.5 721.236,-180.5"/>
<text text-anchor="middle" x="742.852" y="-186.5" font-family="Helvetica,sans-Serif" font-size="10.00">mutex</text>
</g>
<!-- Node15&#45;&gt;Node24 -->
<g id="edge39" class="edge"><title>Node15&#45;&gt;Node24</title>
<path fill="none" stroke="midnightblue" d="M662.059,-295.268C670.596,-286.555 684.18,-272.256 694.852,-259 708.467,-242.09 722.55,-221.569 731.911,-207.422"/>
<polygon fill="midnightblue" stroke="midnightblue" points="735.026,-209.053 737.574,-198.769 729.169,-205.22 735.026,-209.053"/>
</g>
<!-- Node25 -->
<g id="node25" class="node"><title>Node25</title>
<polygon fill="white" stroke="#bfbfbf" points="600.795,-240.5 600.795,-258.5 652.909,-258.5 652.909,-240.5 600.795,-240.5"/>
<text text-anchor="middle" x="626.852" y="-246.5" font-family="Helvetica,sans-Serif" font-size="10.00">memory</text>
</g>
<!-- Node15&#45;&gt;Node25 -->
<g id="edge38" class="edge"><title>Node15&#45;&gt;Node25</title>
<path fill="none" stroke="midnightblue" d="M649.633,-295.219C645.886,-287.864 640.291,-276.88 635.583,-267.639"/>
<polygon fill="midnightblue" stroke="midnightblue" points="638.611,-265.871 630.953,-258.55 632.373,-269.049 638.611,-265.871"/>
</g>
<!-- Node16&#45;&gt;Node7 -->
<g id="edge20" class="edge"><title>Node16&#45;&gt;Node7</title>
<path fill="none" stroke="midnightblue" d="M363.749,-65.4353C343.212,-55.7508 308.529,-39.3966 284.477,-28.055"/>
<polygon fill="midnightblue" stroke="midnightblue" points="285.744,-24.7825 275.206,-23.6831 282.758,-31.1139 285.744,-24.7825"/>
</g>
<!-- Node16&#45;&gt;Node9 -->
<g id="edge21" class="edge"><title>Node16&#45;&gt;Node9</title>
<path fill="none" stroke="midnightblue" d="M373.344,-65.4353C365.135,-56.6187 351.78,-42.2743 341.485,-31.2165"/>
<polygon fill="midnightblue" stroke="midnightblue" points="344.022,-28.8057 334.646,-23.8718 338.899,-33.5757 344.022,-28.8057"/>
</g>
<!-- Node17 -->
<g id="node17" class="node"><title>Node17</title>
<polygon fill="white" stroke="#bfbfbf" points="366.448,-5.5 366.448,-23.5 425.256,-23.5 425.256,-5.5 366.448,-5.5"/>
<text text-anchor="middle" x="395.852" y="-11.5" font-family="Helvetica,sans-Serif" font-size="10.00">exception</text>
</g>
<!-- Node16&#45;&gt;Node17 -->
<g id="edge19" class="edge"><title>Node16&#45;&gt;Node17</title>
<path fill="none" stroke="midnightblue" d="M382.938,-65.4353C385.041,-57.3035 388.36,-44.4692 391.107,-33.8485"/>
<polygon fill="midnightblue" stroke="midnightblue" points="394.572,-34.4296 393.687,-23.8718 387.795,-32.6769 394.572,-34.4296"/>
</g>
<!-- Node18&#45;&gt;Node5 -->
<g id="edge23" class="edge"><title>Node18&#45;&gt;Node5</title>
<path fill="none" stroke="midnightblue" d="M785.98,-65.4353C774.873,-56.3619 756.599,-41.434 742.919,-30.2589"/>
<polygon fill="midnightblue" stroke="midnightblue" points="745.059,-27.4877 735.1,-23.8718 740.63,-32.9088 745.059,-27.4877"/>
</g>
<!-- Node18&#45;&gt;Node13 -->
<g id="edge24" class="edge"><title>Node18&#45;&gt;Node13</title>
<path fill="none" stroke="midnightblue" d="M795.852,-65.4353C795.852,-57.3891 795.852,-44.7388 795.852,-34.1846"/>
<polygon fill="midnightblue" stroke="midnightblue" points="799.352,-33.8717 795.852,-23.8718 792.352,-33.8718 799.352,-33.8717"/>
</g>
<!-- Node19 -->
<g id="node19" class="node"><title>Node19</title>
<polygon fill="white" stroke="#bfbfbf" points="873.182,-5.5 873.182,-23.5 902.522,-23.5 902.522,-5.5 873.182,-5.5"/>
<text text-anchor="middle" x="887.852" y="-11.5" font-family="Helvetica,sans-Serif" font-size="10.00">set</text>
</g>
<!-- Node18&#45;&gt;Node19 -->
<g id="edge25" class="edge"><title>Node18&#45;&gt;Node19</title>
<path fill="none" stroke="midnightblue" d="M808.644,-65.4353C823.528,-56.0521 848.343,-40.4077 866.236,-29.1277"/>
<polygon fill="midnightblue" stroke="midnightblue" points="868.279,-31.9769 874.872,-23.6831 864.546,-26.0554 868.279,-31.9769"/>
</g>
<!-- Node20&#45;&gt;Node13 -->
<g id="edge32" class="edge"><title>Node20&#45;&gt;Node13</title>
<path fill="none" stroke="midnightblue" d="M894.184,-175.365C895.941,-151.359 896.524,-99.6812 873.852,-65 861.894,-46.7081 840.569,-33.865 823.235,-25.8524"/>
<polygon fill="midnightblue" stroke="midnightblue" points="824.159,-22.4393 813.591,-21.6882 821.384,-28.8658 824.159,-22.4393"/>
</g>
<!-- Node20&#45;&gt;Node19 -->
<g id="edge33" class="edge"><title>Node20&#45;&gt;Node19</title>
<path fill="none" stroke="midnightblue" d="M897.672,-175.267C900.993,-165.418 905.11,-151.562 906.852,-139 911.37,-106.423 912.845,-97.3382 906.852,-65 904.805,-53.9522 900.39,-42.1862 896.331,-32.8985"/>
<polygon fill="midnightblue" stroke="midnightblue" points="899.421,-31.2413 892.045,-23.6358 893.068,-34.1811 899.421,-31.2413"/>
</g>
<!-- Node21 -->
<g id="node21" class="node"><title>Node21</title>
<g id="a_node21"><a xlink:href="xmm_phrase_8hpp.html" target="_top" xlink:title="xmmPhrase.hpp">
<polygon fill="white" stroke="black" points="582.448,-120.5 582.448,-138.5 671.256,-138.5 671.256,-120.5 582.448,-120.5"/>
<text text-anchor="middle" x="626.852" y="-126.5" font-family="Helvetica,sans-Serif" font-size="10.00">xmmPhrase.hpp</text>
</a>
</g>
</g>
<!-- Node20&#45;&gt;Node21 -->
<g id="edge27" class="edge"><title>Node20&#45;&gt;Node21</title>
<path fill="none" stroke="midnightblue" d="M833.156,-175.484C784.983,-164.98 718.149,-150.407 673.757,-140.727"/>
<polygon fill="midnightblue" stroke="midnightblue" points="674.327,-137.27 663.811,-138.559 672.836,-144.109 674.327,-137.27"/>
</g>
<!-- Node21&#45;&gt;Node4 -->
<g id="edge28" class="edge"><title>Node21&#45;&gt;Node4</title>
<path fill="none" stroke="midnightblue" d="M582.408,-122.878C510.589,-113.794 368.292,-95.7943 281.252,-84.7845"/>
<polygon fill="midnightblue" stroke="midnightblue" points="281.541,-81.2933 271.181,-83.5106 280.663,-88.2379 281.541,-81.2933"/>
</g>
<!-- Node21&#45;&gt;Node10 -->
<g id="edge30" class="edge"><title>Node21&#45;&gt;Node10</title>
<path fill="none" stroke="midnightblue" d="M614.55,-120.45C601.942,-112.201 582.097,-99.2158 566.971,-89.3187"/>
<polygon fill="midnightblue" stroke="midnightblue" points="568.554,-86.1719 558.27,-83.6253 564.722,-92.0294 568.554,-86.1719"/>
</g>
<!-- Node21&#45;&gt;Node18 -->
<g id="edge29" class="edge"><title>Node21&#45;&gt;Node18</title>
<path fill="none" stroke="midnightblue" d="M652.52,-120.45C681.265,-111.436 728.044,-96.7653 760.299,-86.6496"/>
<polygon fill="midnightblue" stroke="midnightblue" points="761.726,-89.8704 770.22,-83.5383 759.631,-83.1911 761.726,-89.8704"/>
</g>
<!-- Node22 -->
<g id="node22" class="node"><title>Node22</title>
<polygon fill="white" stroke="#bfbfbf" points="627.236,-65.5 627.236,-83.5 670.468,-83.5 670.468,-65.5 627.236,-65.5"/>
<text text-anchor="middle" x="648.852" y="-71.5" font-family="Helvetica,sans-Serif" font-size="10.00">cmath</text>
</g>
<!-- Node21&#45;&gt;Node22 -->
<g id="edge31" class="edge"><title>Node21&#45;&gt;Node22</title>
<path fill="none" stroke="midnightblue" d="M630.29,-120.219C633.31,-112.942 637.805,-102.113 641.615,-92.9345"/>
<polygon fill="midnightblue" stroke="midnightblue" points="644.909,-94.1273 645.511,-83.5496 638.444,-91.4436 644.909,-94.1273"/>
</g>
<!-- Node23&#45;&gt;Node18 -->
<g id="edge35" class="edge"><title>Node23&#45;&gt;Node18</title>
<path fill="none" stroke="midnightblue" d="M828.427,-240.351C825.838,-231.467 821.719,-216.806 818.852,-204 810.132,-165.052 802.525,-118.879 798.626,-93.8532"/>
<polygon fill="midnightblue" stroke="midnightblue" points="802.039,-93.0207 797.063,-83.6672 795.12,-94.0824 802.039,-93.0207"/>
</g>
<!-- Node23&#45;&gt;Node20 -->
<g id="edge36" class="edge"><title>Node23&#45;&gt;Node20</title>
<path fill="none" stroke="midnightblue" d="M839.473,-240.435C847.612,-232.821 860.159,-221.084 871.044,-210.901"/>
<polygon fill="midnightblue" stroke="midnightblue" points="873.677,-213.23 878.589,-203.843 868.895,-208.118 873.677,-213.23"/>
</g>
<!-- Node23&#45;&gt;Node24 -->
<g id="edge37" class="edge"><title>Node23&#45;&gt;Node24</title>
<path fill="none" stroke="midnightblue" d="M818.616,-240.435C804.51,-231.138 781.078,-215.694 764.001,-204.439"/>
<polygon fill="midnightblue" stroke="midnightblue" points="765.544,-201.264 755.268,-198.683 761.691,-207.109 765.544,-201.264"/>
</g>
</g>
</svg>
