<?xml version="1.0" encoding="UTF-8" standalone="no"?>
<!DOCTYPE svg PUBLIC "-//W3C//DTD SVG 1.1//EN"
 "http://www.w3.org/Graphics/SVG/1.1/DTD/svg11.dtd">
<!-- Generated by graphviz version 2.38.0 (20140413.2041)
 -->
<!-- Title: xmmAttribute.hpp Pages: 1 -->
<svg width="321pt" height="82pt"
 viewBox="0.00 0.00 321.02 82.00" xmlns="http://www.w3.org/2000/svg" xmlns:xlink="http://www.w3.org/1999/xlink">
<g id="graph0" class="graph" transform="scale(1 1) rotate(0) translate(4 78)">
<title>xmmAttribute.hpp</title>
<polygon fill="white" stroke="none" points="-4,4 -4,-78 317.02,-78 317.02,4 -4,4"/>
<!-- Node1 -->
<g id="node1" class="node"><title>Node1</title>
<polygon fill="#bfbfbf" stroke="black" points="116.222,-55.5 116.222,-73.5 210.586,-73.5 210.586,-55.5 116.222,-55.5"/>
<text text-anchor="middle" x="163.404" y="-61.5" font-family="Helvetica,sans-Serif" font-size="10.00">xmmAttribute.hpp</text>
</g>
<!-- Node2 -->
<g id="node2" class="node"><title>Node2</title>
<polygon fill="white" stroke="#bfbfbf" points="0,-0.5 0,-18.5 58.8076,-18.5 58.8076,-0.5 0,-0.5"/>
<text text-anchor="middle" x="29.4038" y="-6.5" font-family="Helvetica,sans-Serif" font-size="10.00">functional</text>
</g>
<!-- Node1&#45;&gt;Node2 -->
<g id="edge1" class="edge"><title>Node1&#45;&gt;Node2</title>
<path fill="none" stroke="midnightblue" d="M143.052,-55.4504C120.818,-46.6562 84.9763,-32.4802 59.4921,-22.4006"/>
<polygon fill="midnightblue" stroke="midnightblue" points="60.5334,-19.0487 49.9471,-18.6253 57.9588,-25.558 60.5334,-19.0487"/>
</g>
<!-- Node3 -->
<g id="node3" class="node"><title>Node3</title>
<polygon fill="white" stroke="#bfbfbf" points="77.0171,-0.5 77.0171,-18.5 115.791,-18.5 115.791,-0.5 77.0171,-0.5"/>
<text text-anchor="middle" x="96.4038" y="-6.5" font-family="Helvetica,sans-Serif" font-size="10.00">limits</text>
</g>
<!-- Node1&#45;&gt;Node3 -->
<g id="edge2" class="edge"><title>Node1&#45;&gt;Node3</title>
<path fill="none" stroke="midnightblue" d="M153.228,-55.4504C142.996,-47.3566 127.002,-34.7042 114.585,-24.8822"/>
<polygon fill="midnightblue" stroke="midnightblue" points="116.69,-22.0844 106.675,-18.6253 112.347,-27.5744 116.69,-22.0844"/>
</g>
<!-- Node4 -->
<g id="node4" class="node"><title>Node4</title>
<polygon fill="white" stroke="#bfbfbf" points="134.002,-0.5 134.002,-18.5 192.805,-18.5 192.805,-0.5 134.002,-0.5"/>
<text text-anchor="middle" x="163.404" y="-6.5" font-family="Helvetica,sans-Serif" font-size="10.00">stdexcept</text>
</g>
<!-- Node1&#45;&gt;Node4 -->
<g id="edge3" class="edge"><title>Node1&#45;&gt;Node4</title>
<path fill="none" stroke="midnightblue" d="M163.404,-55.2188C163.404,-48.1769 163.404,-37.8083 163.404,-28.8277"/>
<polygon fill="midnightblue" stroke="midnightblue" points="166.904,-28.5495 163.404,-18.5496 159.904,-28.5496 166.904,-28.5495"/>
</g>
<!-- Node5 -->
<g id="node5" class="node"><title>Node5</title>
<polygon fill="white" stroke="#bfbfbf" points="211.177,-0.5 211.177,-18.5 251.63,-18.5 251.63,-0.5 211.177,-0.5"/>
<text text-anchor="middle" x="231.404" y="-6.5" font-family="Helvetica,sans-Serif" font-size="10.00">string</text>
</g>
<!-- Node1&#45;&gt;Node5 -->
<g id="edge4" class="edge"><title>Node1&#45;&gt;Node5</title>
<path fill="none" stroke="midnightblue" d="M173.732,-55.4504C184.116,-47.3566 200.349,-34.7042 212.951,-24.8822"/>
<polygon fill="midnightblue" stroke="midnightblue" points="215.243,-27.5333 220.979,-18.6253 210.94,-22.0122 215.243,-27.5333"/>
</g>
<!-- Node6 -->
<g id="node6" class="node"><title>Node6</title>
<polygon fill="white" stroke="#bfbfbf" points="269.788,-0.5 269.788,-18.5 313.02,-18.5 313.02,-0.5 269.788,-0.5"/>
<text text-anchor="middle" x="291.404" y="-6.5" font-family="Helvetica,sans-Serif" font-size="10.00">vector</text>
</g>
<!-- Node1&#45;&gt;Node6 -->
<g id="edge5" class="edge"><title>Node1&#45;&gt;Node6</title>
<path fill="none" stroke="midnightblue" d="M182.844,-55.4504C203.989,-46.6951 238.017,-32.6055 262.339,-22.5346"/>
<polygon fill="midnightblue" stroke="midnightblue" points="263.88,-25.6848 271.78,-18.6253 261.202,-19.2173 263.88,-25.6848"/>
</g>
</g>
</svg>
