<?xml version="1.0" encoding="UTF-8" standalone="no"?>
<!DOCTYPE svg PUBLIC "-//W3C//DTD SVG 1.1//EN"
 "http://www.w3.org/Graphics/SVG/1.1/DTD/svg11.dtd">
<!-- Generated by graphviz version 2.38.0 (20140413.2041)
 -->
<!-- Title: xmmTrainingSet.hpp Pages: 1 -->
<svg width="645pt" height="202pt"
 viewBox="0.00 0.00 644.54 202.00" xmlns="http://www.w3.org/2000/svg" xmlns:xlink="http://www.w3.org/1999/xlink">
<g id="graph0" class="graph" transform="scale(1 1) rotate(0) translate(4 198)">
<title>xmmTrainingSet.hpp</title>
<polygon fill="white" stroke="none" points="-4,4 -4,-198 640.536,-198 640.536,4 -4,4"/>
<!-- Node1 -->
<g id="node1" class="node"><title>Node1</title>
<polygon fill="#bfbfbf" stroke="black" points="0,-175.5 0,-193.5 107.895,-193.5 107.895,-175.5 0,-175.5"/>
<text text-anchor="middle" x="53.9473" y="-181.5" font-family="Helvetica,sans-Serif" font-size="10.00">xmmTrainingSet.hpp</text>
</g>
<!-- Node2 -->
<g id="node2" class="node"><title>Node2</title>
<g id="a_node2"><a xlink:href="xmm_phrase_8hpp.html" target="_top" xlink:title="xmmPhrase.hpp">
<polygon fill="white" stroke="black" points="264.543,-120.5 264.543,-138.5 353.351,-138.5 353.351,-120.5 264.543,-120.5"/>
<text text-anchor="middle" x="308.947" y="-126.5" font-family="Helvetica,sans-Serif" font-size="10.00">xmmPhrase.hpp</text>
</a>
</g>
</g>
<!-- Node1&#45;&gt;Node2 -->
<g id="edge1" class="edge"><title>Node1&#45;&gt;Node2</title>
<path fill="none" stroke="midnightblue" d="M92.6763,-175.45C137.552,-166.123 211.555,-150.742 260.279,-140.615"/>
<polygon fill="midnightblue" stroke="midnightblue" points="261.194,-144 270.272,-138.538 259.769,-137.147 261.194,-144"/>
</g>
<!-- Node10 -->
<g id="node10" class="node"><title>Node10</title>
<polygon fill="white" stroke="#bfbfbf" points="4.2207,-5.5 4.2207,-23.5 39.6738,-23.5 39.6738,-5.5 4.2207,-5.5"/>
<text text-anchor="middle" x="21.9473" y="-11.5" font-family="Helvetica,sans-Serif" font-size="10.00">map</text>
</g>
<!-- Node1&#45;&gt;Node10 -->
<g id="edge17" class="edge"><title>Node1&#45;&gt;Node10</title>
<path fill="none" stroke="midnightblue" d="M52.4038,-175.397C47.5147,-149.729 32.2865,-69.7809 25.3958,-33.6048"/>
<polygon fill="midnightblue" stroke="midnightblue" points="28.7846,-32.6902 23.4752,-23.5217 21.9082,-34 28.7846,-32.6902"/>
</g>
<!-- Node11 -->
<g id="node11" class="node"><title>Node11</title>
<polygon fill="white" stroke="#bfbfbf" points="68.2773,-5.5 68.2773,-23.5 97.6172,-23.5 97.6172,-5.5 68.2773,-5.5"/>
<text text-anchor="middle" x="82.9473" y="-11.5" font-family="Helvetica,sans-Serif" font-size="10.00">set</text>
</g>
<!-- Node1&#45;&gt;Node11 -->
<g id="edge18" class="edge"><title>Node1&#45;&gt;Node11</title>
<path fill="none" stroke="midnightblue" d="M55.1256,-175.435C57.9533,-156.252 65.447,-106.414 72.9473,-65 74.8355,-54.5734 77.1697,-42.959 79.1079,-33.6022"/>
<polygon fill="midnightblue" stroke="midnightblue" points="82.591,-34.0458 81.2191,-23.5402 75.7402,-32.6084 82.591,-34.0458"/>
</g>
<!-- Node3 -->
<g id="node3" class="node"><title>Node3</title>
<g id="a_node3"><a xlink:href="xmm_attribute_8hpp.html" target="_top" xlink:title="../common/xmmAttribute.hpp">
<polygon fill="white" stroke="black" points="237.036,-65.5 237.036,-83.5 380.858,-83.5 380.858,-65.5 237.036,-65.5"/>
<text text-anchor="middle" x="308.947" y="-71.5" font-family="Helvetica,sans-Serif" font-size="10.00">../common/xmmAttribute.hpp</text>
</a>
</g>
</g>
<!-- Node2&#45;&gt;Node3 -->
<g id="edge2" class="edge"><title>Node2&#45;&gt;Node3</title>
<path fill="none" stroke="midnightblue" d="M308.947,-120.219C308.947,-113.177 308.947,-102.808 308.947,-93.8277"/>
<polygon fill="midnightblue" stroke="midnightblue" points="312.447,-93.5495 308.947,-83.5496 305.447,-93.5496 312.447,-93.5495"/>
</g>
<!-- Node9 -->
<g id="node9" class="node"><title>Node9</title>
<g id="a_node9"><a xlink:href="xmm_events_8hpp.html" target="_top" xlink:title="../common/xmmEvents.hpp">
<polygon fill="white" stroke="black" points="82.3711,-65.5 82.3711,-83.5 219.523,-83.5 219.523,-65.5 82.3711,-65.5"/>
<text text-anchor="middle" x="150.947" y="-71.5" font-family="Helvetica,sans-Serif" font-size="10.00">../common/xmmEvents.hpp</text>
</a>
</g>
</g>
<!-- Node2&#45;&gt;Node9 -->
<g id="edge8" class="edge"><title>Node2&#45;&gt;Node9</title>
<path fill="none" stroke="midnightblue" d="M284.95,-120.45C258.192,-111.475 214.72,-96.8922 184.578,-86.7813"/>
<polygon fill="midnightblue" stroke="midnightblue" points="185.504,-83.4004 174.911,-83.5383 183.278,-90.0369 185.504,-83.4004"/>
</g>
<!-- Node12 -->
<g id="node12" class="node"><title>Node12</title>
<g id="a_node12"><a xlink:href="xmm_json_8hpp.html" target="_top" xlink:title="../common/xmmJson.hpp">
<polygon fill="white" stroke="black" points="399.095,-65.5 399.095,-83.5 526.799,-83.5 526.799,-65.5 399.095,-65.5"/>
<text text-anchor="middle" x="462.947" y="-71.5" font-family="Helvetica,sans-Serif" font-size="10.00">../common/xmmJson.hpp</text>
</a>
</g>
</g>
<!-- Node2&#45;&gt;Node12 -->
<g id="edge12" class="edge"><title>Node2&#45;&gt;Node12</title>
<path fill="none" stroke="midnightblue" d="M332.337,-120.45C358.304,-111.514 400.421,-97.0189 429.784,-86.9134"/>
<polygon fill="midnightblue" stroke="midnightblue" points="431.274,-90.1021 439.591,-83.5383 428.996,-83.4831 431.274,-90.1021"/>
</g>
<!-- Node15 -->
<g id="node15" class="node"><title>Node15</title>
<polygon fill="white" stroke="#bfbfbf" points="544.332,-65.5 544.332,-83.5 587.563,-83.5 587.563,-65.5 544.332,-65.5"/>
<text text-anchor="middle" x="565.947" y="-71.5" font-family="Helvetica,sans-Serif" font-size="10.00">cmath</text>
</g>
<!-- Node2&#45;&gt;Node15 -->
<g id="edge16" class="edge"><title>Node2&#45;&gt;Node15</title>
<path fill="none" stroke="midnightblue" d="M353.548,-120.879C397.339,-113.147 466.228,-100.319 534.051,-84.3146"/>
<polygon fill="midnightblue" stroke="midnightblue" points="535.132,-87.6551 544.047,-81.9305 533.508,-80.8461 535.132,-87.6551"/>
</g>
<!-- Node4 -->
<g id="node4" class="node"><title>Node4</title>
<polygon fill="white" stroke="#bfbfbf" points="121.543,-5.5 121.543,-23.5 180.351,-23.5 180.351,-5.5 121.543,-5.5"/>
<text text-anchor="middle" x="150.947" y="-11.5" font-family="Helvetica,sans-Serif" font-size="10.00">functional</text>
</g>
<!-- Node3&#45;&gt;Node4 -->
<g id="edge3" class="edge"><title>Node3&#45;&gt;Node4</title>
<path fill="none" stroke="midnightblue" d="M286.978,-65.4353C259.816,-55.4645 213.394,-38.4237 182.445,-27.0624"/>
<polygon fill="midnightblue" stroke="midnightblue" points="183.578,-23.7499 172.984,-23.5894 181.165,-30.3212 183.578,-23.7499"/>
</g>
<!-- Node5 -->
<g id="node5" class="node"><title>Node5</title>
<polygon fill="white" stroke="#bfbfbf" points="198.561,-5.5 198.561,-23.5 237.334,-23.5 237.334,-5.5 198.561,-5.5"/>
<text text-anchor="middle" x="217.947" y="-11.5" font-family="Helvetica,sans-Serif" font-size="10.00">limits</text>
</g>
<!-- Node3&#45;&gt;Node5 -->
<g id="edge4" class="edge"><title>Node3&#45;&gt;Node5</title>
<path fill="none" stroke="midnightblue" d="M296.294,-65.4353C281.572,-56.0521 257.027,-40.4077 239.329,-29.1277"/>
<polygon fill="midnightblue" stroke="midnightblue" points="241.1,-26.1064 230.786,-23.6831 237.338,-32.0094 241.1,-26.1064"/>
</g>
<!-- Node6 -->
<g id="node6" class="node"><title>Node6</title>
<polygon fill="white" stroke="#bfbfbf" points="255.546,-5.5 255.546,-23.5 314.349,-23.5 314.349,-5.5 255.546,-5.5"/>
<text text-anchor="middle" x="284.947" y="-11.5" font-family="Helvetica,sans-Serif" font-size="10.00">stdexcept</text>
</g>
<!-- Node3&#45;&gt;Node6 -->
<g id="edge5" class="edge"><title>Node3&#45;&gt;Node6</title>
<path fill="none" stroke="midnightblue" d="M305.61,-65.4353C302.174,-57.1323 296.71,-43.9267 292.263,-33.1807"/>
<polygon fill="midnightblue" stroke="midnightblue" points="295.469,-31.7737 288.411,-23.8718 289.001,-34.4502 295.469,-31.7737"/>
</g>
<!-- Node7 -->
<g id="node7" class="node"><title>Node7</title>
<polygon fill="white" stroke="#bfbfbf" points="332.721,-5.5 332.721,-23.5 373.174,-23.5 373.174,-5.5 332.721,-5.5"/>
<text text-anchor="middle" x="352.947" y="-11.5" font-family="Helvetica,sans-Serif" font-size="10.00">string</text>
</g>
<!-- Node3&#45;&gt;Node7 -->
<g id="edge6" class="edge"><title>Node3&#45;&gt;Node7</title>
<path fill="none" stroke="midnightblue" d="M315.065,-65.4353C321.624,-56.7899 332.215,-42.8292 340.533,-31.8643"/>
<polygon fill="midnightblue" stroke="midnightblue" points="343.341,-33.9541 346.596,-23.8718 337.764,-29.7233 343.341,-33.9541"/>
</g>
<!-- Node8 -->
<g id="node8" class="node"><title>Node8</title>
<polygon fill="white" stroke="#bfbfbf" points="391.332,-5.5 391.332,-23.5 434.563,-23.5 434.563,-5.5 391.332,-5.5"/>
<text text-anchor="middle" x="412.947" y="-11.5" font-family="Helvetica,sans-Serif" font-size="10.00">vector</text>
</g>
<!-- Node3&#45;&gt;Node8 -->
<g id="edge7" class="edge"><title>Node3&#45;&gt;Node8</title>
<path fill="none" stroke="midnightblue" d="M323.408,-65.4353C340.465,-55.923 369.059,-39.9759 389.342,-28.6645"/>
<polygon fill="midnightblue" stroke="midnightblue" points="391.245,-31.6106 398.274,-23.6831 387.836,-25.4971 391.245,-31.6106"/>
</g>
<!-- Node9&#45;&gt;Node4 -->
<g id="edge9" class="edge"><title>Node9&#45;&gt;Node4</title>
<path fill="none" stroke="midnightblue" d="M150.947,-65.4353C150.947,-57.3891 150.947,-44.7388 150.947,-34.1846"/>
<polygon fill="midnightblue" stroke="midnightblue" points="154.447,-33.8717 150.947,-23.8718 147.447,-33.8718 154.447,-33.8717"/>
</g>
<!-- Node9&#45;&gt;Node10 -->
<g id="edge10" class="edge"><title>Node9&#45;&gt;Node10</title>
<path fill="none" stroke="midnightblue" d="M133.01,-65.4353C111.253,-55.6528 74.3589,-39.0649 49.1089,-27.7122"/>
<polygon fill="midnightblue" stroke="midnightblue" points="50.2876,-24.4047 39.7318,-23.4962 47.4171,-30.7891 50.2876,-24.4047"/>
</g>
<!-- Node9&#45;&gt;Node11 -->
<g id="edge11" class="edge"><title>Node9&#45;&gt;Node11</title>
<path fill="none" stroke="midnightblue" d="M141.492,-65.4353C130.955,-56.4475 113.682,-41.7151 100.623,-30.5762"/>
<polygon fill="midnightblue" stroke="midnightblue" points="102.642,-27.6983 92.7624,-23.8718 98.0995,-33.0242 102.642,-27.6983"/>
</g>
<!-- Node12&#45;&gt;Node8 -->
<g id="edge15" class="edge"><title>Node12&#45;&gt;Node8</title>
<path fill="none" stroke="midnightblue" d="M455.995,-65.4353C448.468,-56.7043 436.268,-42.5523 426.774,-31.5395"/>
<polygon fill="midnightblue" stroke="midnightblue" points="429.345,-29.1606 420.164,-23.8718 424.043,-33.7312 429.345,-29.1606"/>
</g>
<!-- Node13 -->
<g id="node13" class="node"><title>Node13</title>
<polygon fill="white" stroke="#bfbfbf" points="519.359,-0.5 519.359,-28.5 636.536,-28.5 636.536,-0.5 519.359,-0.5"/>
<text text-anchor="start" x="527.359" y="-16.5" font-family="Helvetica,sans-Serif" font-size="10.00">../../../dependencies</text>
<text text-anchor="middle" x="577.947" y="-6.5" font-family="Helvetica,sans-Serif" font-size="10.00">/jsoncpp/include/json.h</text>
</g>
<!-- Node12&#45;&gt;Node13 -->
<g id="edge13" class="edge"><title>Node12&#45;&gt;Node13</title>
<path fill="none" stroke="midnightblue" d="M478.938,-65.4353C495.388,-57.1384 521.546,-43.946 542.844,-33.2043"/>
<polygon fill="midnightblue" stroke="midnightblue" points="544.58,-36.2486 551.933,-28.6203 541.428,-29.9985 544.58,-36.2486"/>
</g>
<!-- Node14 -->
<g id="node14" class="node"><title>Node14</title>
<polygon fill="white" stroke="#bfbfbf" points="452.277,-5.5 452.277,-23.5 501.617,-23.5 501.617,-5.5 452.277,-5.5"/>
<text text-anchor="middle" x="476.947" y="-11.5" font-family="Helvetica,sans-Serif" font-size="10.00">fstream</text>
</g>
<!-- Node12&#45;&gt;Node14 -->
<g id="edge14" class="edge"><title>Node12&#45;&gt;Node14</title>
<path fill="none" stroke="midnightblue" d="M464.894,-65.4353C466.857,-57.3035 469.955,-44.4692 472.518,-33.8485"/>
<polygon fill="midnightblue" stroke="midnightblue" points="475.982,-34.4138 474.926,-23.8718 469.178,-32.7713 475.982,-34.4138"/>
</g>
</g>
</svg>
