<?xml version="1.0" encoding="UTF-8" standalone="no"?>
<!DOCTYPE svg PUBLIC "-//W3C//DTD SVG 1.1//EN"
 "http://www.w3.org/Graphics/SVG/1.1/DTD/svg11.dtd">
<!-- Generated by graphviz version 2.38.0 (20140413.2041)
 -->
<!-- Title: xmmKMeansResults.hpp Pages: 1 -->
<svg width="142pt" height="147pt"
 viewBox="0.00 0.00 141.81 147.00" xmlns="http://www.w3.org/2000/svg" xmlns:xlink="http://www.w3.org/1999/xlink">
<g id="graph0" class="graph" transform="scale(1 1) rotate(0) translate(4 143)">
<title>xmmKMeansResults.hpp</title>
<polygon fill="white" stroke="none" points="-4,4 -4,-143 137.812,-143 137.812,4 -4,4"/>
<!-- Node1 -->
<g id="node1" class="node"><title>Node1</title>
<polygon fill="#bfbfbf" stroke="black" points="3.33008,-120.5 3.33008,-138.5 130.482,-138.5 130.482,-120.5 3.33008,-120.5"/>
<text text-anchor="middle" x="66.9062" y="-126.5" font-family="Helvetica,sans-Serif" font-size="10.00">xmmKMeansResults.hpp</text>
</g>
<!-- Node2 -->
<g id="node2" class="node"><title>Node2</title>
<g id="a_node2"><a xlink:href="xmm_model_results_8hpp.html" target="_top" xlink:title="../../core/model/xmmModel\lResults.hpp">
<polygon fill="white" stroke="black" points="0,-55.5 0,-83.5 133.812,-83.5 133.812,-55.5 0,-55.5"/>
<text text-anchor="start" x="8" y="-71.5" font-family="Helvetica,sans-Serif" font-size="10.00">../../core/model/xmmModel</text>
<text text-anchor="middle" x="66.9062" y="-61.5" font-family="Helvetica,sans-Serif" font-size="10.00">Results.hpp</text>
</a>
</g>
</g>
<!-- Node1&#45;&gt;Node2 -->
<g id="edge1" class="edge"><title>Node1&#45;&gt;Node2</title>
<path fill="none" stroke="midnightblue" d="M66.9062,-120.435C66.9062,-113.56 66.9062,-103.324 66.9062,-93.9057"/>
<polygon fill="midnightblue" stroke="midnightblue" points="70.4063,-93.8427 66.9062,-83.8428 63.4063,-93.8428 70.4063,-93.8427"/>
</g>
<!-- Node3 -->
<g id="node3" class="node"><title>Node3</title>
<polygon fill="white" stroke="#bfbfbf" points="16.6797,-0.5 16.6797,-18.5 57.1328,-18.5 57.1328,-0.5 16.6797,-0.5"/>
<text text-anchor="middle" x="36.9062" y="-6.5" font-family="Helvetica,sans-Serif" font-size="10.00">string</text>
</g>
<!-- Node2&#45;&gt;Node3 -->
<g id="edge2" class="edge"><title>Node2&#45;&gt;Node3</title>
<path fill="none" stroke="midnightblue" d="M60.0988,-55.3389C55.8784,-47.1796 50.41,-36.6072 45.8431,-27.7779"/>
<polygon fill="midnightblue" stroke="midnightblue" points="48.8876,-26.0457 41.1846,-18.7715 42.6701,-29.2617 48.8876,-26.0457"/>
</g>
<!-- Node4 -->
<g id="node4" class="node"><title>Node4</title>
<polygon fill="white" stroke="#bfbfbf" points="75.2905,-0.5 75.2905,-18.5 118.522,-18.5 118.522,-0.5 75.2905,-0.5"/>
<text text-anchor="middle" x="96.9062" y="-6.5" font-family="Helvetica,sans-Serif" font-size="10.00">vector</text>
</g>
<!-- Node2&#45;&gt;Node4 -->
<g id="edge3" class="edge"><title>Node2&#45;&gt;Node4</title>
<path fill="none" stroke="midnightblue" d="M73.7137,-55.3389C77.9341,-47.1796 83.4025,-36.6072 87.9694,-27.7779"/>
<polygon fill="midnightblue" stroke="midnightblue" points="91.1424,-29.2617 92.6279,-18.7715 84.9249,-26.0457 91.1424,-29.2617"/>
</g>
</g>
</svg>
