<?xml version="1.0" encoding="UTF-8" standalone="no"?>
<!DOCTYPE svg PUBLIC "-//W3C//DTD SVG 1.1//EN"
 "http://www.w3.org/Graphics/SVG/1.1/DTD/svg11.dtd">
<!-- Generated by graphviz version 2.38.0 (20140413.2041)
 -->
<!-- Title: xmmGmmSingleClass.hpp Pages: 1 -->
<svg width="1026pt" height="407pt"
 viewBox="0.00 0.00 1025.96 407.00" xmlns="http://www.w3.org/2000/svg" xmlns:xlink="http://www.w3.org/1999/xlink">
<g id="graph0" class="graph" transform="scale(1 1) rotate(0) translate(4 403)">
<title>xmmGmmSingleClass.hpp</title>
<polygon fill="white" stroke="none" points="-4,4 -4,-403 1021.96,-403 1021.96,4 -4,4"/>
<!-- Node1 -->
<g id="node1" class="node"><title>Node1</title>
<polygon fill="#bfbfbf" stroke="black" points="564.724,-380.5 564.724,-398.5 699.088,-398.5 699.088,-380.5 564.724,-380.5"/>
<text text-anchor="middle" x="631.906" y="-386.5" font-family="Helvetica,sans-Serif" font-size="10.00">xmmGmmSingleClass.hpp</text>
</g>
<!-- Node2 -->
<g id="node2" class="node"><title>Node2</title>
<g id="a_node2"><a xlink:href="xmm_model_results_8hpp.html" target="_top" xlink:title="../../core/model/xmmModel\lResults.hpp">
<polygon fill="white" stroke="black" points="0,-65.5 0,-93.5 133.812,-93.5 133.812,-65.5 0,-65.5"/>
<text text-anchor="start" x="8" y="-81.5" font-family="Helvetica,sans-Serif" font-size="10.00">../../core/model/xmmModel</text>
<text text-anchor="middle" x="66.9062" y="-71.5" font-family="Helvetica,sans-Serif" font-size="10.00">Results.hpp</text>
</a>
</g>
</g>
<!-- Node1&#45;&gt;Node2 -->
<g id="edge1" class="edge"><title>Node1&#45;&gt;Node2</title>
<path fill="none" stroke="midnightblue" d="M564.63,-387.837C419.477,-384.586 89.9062,-366.621 89.9062,-270.5 89.9062,-270.5 89.9062,-270.5 89.9062,-208.5 89.9062,-171.359 80.4094,-129.098 73.6206,-103.633"/>
<polygon fill="midnightblue" stroke="midnightblue" points="76.9448,-102.521 70.9125,-93.8112 70.1966,-104.382 76.9448,-102.521"/>
</g>
<!-- Node5 -->
<g id="node5" class="node"><title>Node5</title>
<g id="a_node5"><a xlink:href="xmm_model_single_class_8hpp.html" target="_top" xlink:title="../../core/model/xmmModel\lSingleClass.hpp">
<polygon fill="white" stroke="black" points="721,-315.5 721,-343.5 854.812,-343.5 854.812,-315.5 721,-315.5"/>
<text text-anchor="start" x="729" y="-331.5" font-family="Helvetica,sans-Serif" font-size="10.00">../../core/model/xmmModel</text>
<text text-anchor="middle" x="787.906" y="-321.5" font-family="Helvetica,sans-Serif" font-size="10.00">SingleClass.hpp</text>
</a>
</g>
</g>
<!-- Node1&#45;&gt;Node5 -->
<g id="edge4" class="edge"><title>Node1&#45;&gt;Node5</title>
<path fill="none" stroke="midnightblue" d="M653.597,-380.435C676.689,-371.85 713.879,-358.023 743.276,-347.093"/>
<polygon fill="midnightblue" stroke="midnightblue" points="744.762,-350.275 752.915,-343.51 742.322,-343.714 744.762,-350.275"/>
</g>
<!-- Node23 -->
<g id="node23" class="node"><title>Node23</title>
<polygon fill="white" stroke="#bfbfbf" points="965.85,-260.5 965.85,-278.5 1017.96,-278.5 1017.96,-260.5 965.85,-260.5"/>
<text text-anchor="middle" x="991.906" y="-266.5" font-family="Helvetica,sans-Serif" font-size="10.00">memory</text>
</g>
<!-- Node1&#45;&gt;Node23 -->
<g id="edge42" class="edge"><title>Node1&#45;&gt;Node23</title>
<path fill="none" stroke="midnightblue" d="M699.245,-381.574C746.428,-375.291 810.365,-363.871 863.906,-344 905.02,-328.741 948.367,-301.037 972.588,-284.345"/>
<polygon fill="midnightblue" stroke="midnightblue" points="974.703,-287.137 980.89,-278.537 970.69,-281.402 974.703,-287.137"/>
</g>
<!-- Node24 -->
<g id="node24" class="node"><title>Node24</title>
<g id="a_node24"><a xlink:href="xmm_gmm_parameters_8hpp.html" target="_top" xlink:title="xmmGmmParameters.hpp">
<polygon fill="white" stroke="black" points="310.283,-200.5 310.283,-218.5 443.529,-218.5 443.529,-200.5 310.283,-200.5"/>
<text text-anchor="middle" x="376.906" y="-206.5" font-family="Helvetica,sans-Serif" font-size="10.00">xmmGmmParameters.hpp</text>
</a>
</g>
</g>
<!-- Node1&#45;&gt;Node24 -->
<g id="edge35" class="edge"><title>Node1&#45;&gt;Node24</title>
<path fill="none" stroke="midnightblue" d="M620.287,-380.389C580.212,-352.416 447.461,-259.75 396.795,-224.383"/>
<polygon fill="midnightblue" stroke="midnightblue" points="398.797,-221.512 388.594,-218.658 394.79,-227.252 398.797,-221.512"/>
</g>
<!-- Node3 -->
<g id="node3" class="node"><title>Node3</title>
<polygon fill="white" stroke="#bfbfbf" points="96.6797,-5.5 96.6797,-23.5 137.133,-23.5 137.133,-5.5 96.6797,-5.5"/>
<text text-anchor="middle" x="116.906" y="-11.5" font-family="Helvetica,sans-Serif" font-size="10.00">string</text>
</g>
<!-- Node2&#45;&gt;Node3 -->
<g id="edge2" class="edge"><title>Node2&#45;&gt;Node3</title>
<path fill="none" stroke="midnightblue" d="M77.2663,-65.4464C85.043,-55.6477 95.7379,-42.1721 104.059,-31.6874"/>
<polygon fill="midnightblue" stroke="midnightblue" points="106.899,-33.7388 110.374,-23.7301 101.416,-29.3872 106.899,-33.7388"/>
</g>
<!-- Node4 -->
<g id="node4" class="node"><title>Node4</title>
<polygon fill="white" stroke="#bfbfbf" points="290.291,-5.5 290.291,-23.5 333.522,-23.5 333.522,-5.5 290.291,-5.5"/>
<text text-anchor="middle" x="311.906" y="-11.5" font-family="Helvetica,sans-Serif" font-size="10.00">vector</text>
</g>
<!-- Node2&#45;&gt;Node4 -->
<g id="edge3" class="edge"><title>Node2&#45;&gt;Node4</title>
<path fill="none" stroke="midnightblue" d="M134.19,-66.546C177.056,-58.0675 233.442,-45.3069 281.906,-29 283.327,-28.5219 284.772,-27.9999 286.221,-27.448"/>
<polygon fill="midnightblue" stroke="midnightblue" points="287.753,-30.6016 295.634,-23.5214 285.058,-24.1412 287.753,-30.6016"/>
</g>
<!-- Node6 -->
<g id="node6" class="node"><title>Node6</title>
<g id="a_node6"><a xlink:href="xmm_circularbuffer_8hpp.html" target="_top" xlink:title="../common/xmmCircularbuffer.hpp">
<polygon fill="white" stroke="black" points="459.967,-70.5 459.967,-88.5 625.845,-88.5 625.845,-70.5 459.967,-70.5"/>
<text text-anchor="middle" x="542.906" y="-76.5" font-family="Helvetica,sans-Serif" font-size="10.00">../common/xmmCircularbuffer.hpp</text>
</a>
</g>
</g>
<!-- Node5&#45;&gt;Node6 -->
<g id="edge5" class="edge"><title>Node5&#45;&gt;Node6</title>
<path fill="none" stroke="midnightblue" d="M752.096,-315.397C731.742,-306.904 706.492,-294.529 686.906,-279 620.429,-226.292 570.195,-135.371 551.194,-97.6604"/>
<polygon fill="midnightblue" stroke="midnightblue" points="554.242,-95.9274 546.676,-88.511 547.965,-99.027 554.242,-95.9274"/>
</g>
<!-- Node9 -->
<g id="node9" class="node"><title>Node9</title>
<g id="a_node9"><a xlink:href="xmm_events_8hpp.html" target="_top" xlink:title="../common/xmmEvents.hpp">
<polygon fill="white" stroke="black" points="744.33,-70.5 744.33,-88.5 881.482,-88.5 881.482,-70.5 744.33,-70.5"/>
<text text-anchor="middle" x="812.906" y="-76.5" font-family="Helvetica,sans-Serif" font-size="10.00">../common/xmmEvents.hpp</text>
</a>
</g>
</g>
<!-- Node5&#45;&gt;Node9 -->
<g id="edge9" class="edge"><title>Node5&#45;&gt;Node9</title>
<path fill="none" stroke="midnightblue" d="M843.19,-315.426C863.51,-307.96 884.941,-296.47 898.906,-279 914.472,-259.528 907.45,-248.807 909.906,-224 911.176,-211.174 914.343,-207.101 909.906,-195 894.251,-152.301 854.844,-114.595 831.357,-94.9261"/>
<polygon fill="midnightblue" stroke="midnightblue" points="833.46,-92.125 823.497,-88.52 829.037,-97.551 833.46,-92.125"/>
</g>
<!-- Node13 -->
<g id="node13" class="node"><title>Node13</title>
<g id="a_node13"><a xlink:href="xmm_training_set_8hpp.html" target="_top" xlink:title="../trainingset/xmmTraining\lSet.hpp">
<polygon fill="white" stroke="black" points="650.57,-195.5 650.57,-223.5 781.243,-223.5 781.243,-195.5 650.57,-195.5"/>
<text text-anchor="start" x="658.57" y="-211.5" font-family="Helvetica,sans-Serif" font-size="10.00">../trainingset/xmmTraining</text>
<text text-anchor="middle" x="715.906" y="-201.5" font-family="Helvetica,sans-Serif" font-size="10.00">Set.hpp</text>
</a>
</g>
</g>
<!-- Node5&#45;&gt;Node13 -->
<g id="edge13" class="edge"><title>Node5&#45;&gt;Node13</title>
<path fill="none" stroke="midnightblue" d="M741.77,-315.394C723.892,-307.813 705.265,-296.248 694.906,-279 686.238,-264.567 692.606,-246.247 700.534,-232.185"/>
<polygon fill="midnightblue" stroke="midnightblue" points="703.535,-233.987 705.827,-223.643 697.585,-230.301 703.535,-233.987"/>
</g>
<!-- Node21 -->
<g id="node21" class="node"><title>Node21</title>
<g id="a_node21"><a xlink:href="xmm_model_shared_parameters_8hpp.html" target="_top" xlink:title="xmmModelSharedParameters.hpp">
<polygon fill="white" stroke="black" points="703.761,-260.5 703.761,-278.5 872.051,-278.5 872.051,-260.5 703.761,-260.5"/>
<text text-anchor="middle" x="787.906" y="-266.5" font-family="Helvetica,sans-Serif" font-size="10.00">xmmModelSharedParameters.hpp</text>
</a>
</g>
</g>
<!-- Node5&#45;&gt;Node21 -->
<g id="edge29" class="edge"><title>Node5&#45;&gt;Node21</title>
<path fill="none" stroke="midnightblue" d="M787.906,-315.339C787.906,-307.531 787.906,-297.512 787.906,-288.927"/>
<polygon fill="midnightblue" stroke="midnightblue" points="791.406,-288.771 787.906,-278.771 784.406,-288.772 791.406,-288.771"/>
</g>
<!-- Node22 -->
<g id="node22" class="node"><title>Node22</title>
<polygon fill="white" stroke="#bfbfbf" points="857.291,-200.5 857.291,-218.5 900.522,-218.5 900.522,-200.5 857.291,-200.5"/>
<text text-anchor="middle" x="878.906" y="-206.5" font-family="Helvetica,sans-Serif" font-size="10.00">mutex</text>
</g>
<!-- Node5&#45;&gt;Node22 -->
<g id="edge34" class="edge"><title>Node5&#45;&gt;Node22</title>
<path fill="none" stroke="midnightblue" d="M834.043,-315.394C851.92,-307.813 870.548,-296.248 880.906,-279 889.985,-263.883 887.881,-243.308 884.499,-228.663"/>
<polygon fill="midnightblue" stroke="midnightblue" points="887.823,-227.545 881.829,-218.809 881.066,-229.376 887.823,-227.545"/>
</g>
<!-- Node5&#45;&gt;Node23 -->
<g id="edge33" class="edge"><title>Node5&#45;&gt;Node23</title>
<path fill="none" stroke="midnightblue" d="M833.688,-315.484C870.523,-305.011 921.583,-290.494 955.629,-280.814"/>
<polygon fill="midnightblue" stroke="midnightblue" points="956.952,-284.077 965.614,-277.975 955.038,-277.344 956.952,-284.077"/>
</g>
<!-- Node6&#45;&gt;Node4 -->
<g id="edge8" class="edge"><title>Node6&#45;&gt;Node4</title>
<path fill="none" stroke="midnightblue" d="M501.725,-70.4261C460.878,-61.9254 396.773,-47.2504 342.906,-29 341.482,-28.5173 340.032,-27.996 338.575,-27.4486"/>
<polygon fill="midnightblue" stroke="midnightblue" points="339.666,-24.1137 329.084,-23.5913 337.03,-30.5987 339.666,-24.1137"/>
</g>
<!-- Node7 -->
<g id="node7" class="node"><title>Node7</title>
<polygon fill="white" stroke="#bfbfbf" points="562.502,-5.5 562.502,-23.5 621.31,-23.5 621.31,-5.5 562.502,-5.5"/>
<text text-anchor="middle" x="591.906" y="-11.5" font-family="Helvetica,sans-Serif" font-size="10.00">exception</text>
</g>
<!-- Node6&#45;&gt;Node7 -->
<g id="edge6" class="edge"><title>Node6&#45;&gt;Node7</title>
<path fill="none" stroke="midnightblue" d="M549.312,-70.2639C556.911,-60.4945 569.755,-43.9798 579.357,-31.635"/>
<polygon fill="midnightblue" stroke="midnightblue" points="582.277,-33.5813 585.654,-23.539 576.752,-29.2837 582.277,-33.5813"/>
</g>
<!-- Node8 -->
<g id="node8" class="node"><title>Node8</title>
<polygon fill="white" stroke="#bfbfbf" points="408.505,-5.5 408.505,-23.5 467.308,-23.5 467.308,-5.5 408.505,-5.5"/>
<text text-anchor="middle" x="437.906" y="-11.5" font-family="Helvetica,sans-Serif" font-size="10.00">stdexcept</text>
</g>
<!-- Node6&#45;&gt;Node8 -->
<g id="edge7" class="edge"><title>Node6&#45;&gt;Node8</title>
<path fill="none" stroke="midnightblue" d="M529.179,-70.2639C511.632,-59.7357 481.029,-41.3738 460.138,-28.8391"/>
<polygon fill="midnightblue" stroke="midnightblue" points="461.68,-25.6828 451.305,-23.539 458.079,-31.6852 461.68,-25.6828"/>
</g>
<!-- Node10 -->
<g id="node10" class="node"><title>Node10</title>
<polygon fill="white" stroke="#bfbfbf" points="485.502,-5.5 485.502,-23.5 544.31,-23.5 544.31,-5.5 485.502,-5.5"/>
<text text-anchor="middle" x="514.906" y="-11.5" font-family="Helvetica,sans-Serif" font-size="10.00">functional</text>
</g>
<!-- Node9&#45;&gt;Node10 -->
<g id="edge10" class="edge"><title>Node9&#45;&gt;Node10</title>
<path fill="none" stroke="midnightblue" d="M758.822,-70.4989C706.067,-62.1481 623.787,-47.6678 553.906,-29 551.423,-28.3366 548.87,-27.594 546.315,-26.8075"/>
<polygon fill="midnightblue" stroke="midnightblue" points="547.191,-23.4117 536.599,-23.6305 545.016,-30.0651 547.191,-23.4117"/>
</g>
<!-- Node11 -->
<g id="node11" class="node"><title>Node11</title>
<polygon fill="white" stroke="#bfbfbf" points="745.18,-5.5 745.18,-23.5 780.633,-23.5 780.633,-5.5 745.18,-5.5"/>
<text text-anchor="middle" x="762.906" y="-11.5" font-family="Helvetica,sans-Serif" font-size="10.00">map</text>
</g>
<!-- Node9&#45;&gt;Node11 -->
<g id="edge11" class="edge"><title>Node9&#45;&gt;Node11</title>
<path fill="none" stroke="midnightblue" d="M806.37,-70.2639C798.616,-60.4945 785.509,-43.9798 775.712,-31.635"/>
<polygon fill="midnightblue" stroke="midnightblue" points="778.245,-29.1961 769.286,-23.539 772.761,-33.5477 778.245,-29.1961"/>
</g>
<!-- Node12 -->
<g id="node12" class="node"><title>Node12</title>
<polygon fill="white" stroke="#bfbfbf" points="846.236,-5.5 846.236,-23.5 875.576,-23.5 875.576,-5.5 846.236,-5.5"/>
<text text-anchor="middle" x="860.906" y="-11.5" font-family="Helvetica,sans-Serif" font-size="10.00">set</text>
</g>
<!-- Node9&#45;&gt;Node12 -->
<g id="edge12" class="edge"><title>Node9&#45;&gt;Node12</title>
<path fill="none" stroke="midnightblue" d="M819.181,-70.2639C826.625,-60.4945 839.207,-43.9798 848.613,-31.635"/>
<polygon fill="midnightblue" stroke="midnightblue" points="851.505,-33.6145 854.781,-23.539 845.937,-29.3722 851.505,-33.6145"/>
</g>
<!-- Node13&#45;&gt;Node11 -->
<g id="edge27" class="edge"><title>Node13&#45;&gt;Node11</title>
<path fill="none" stroke="midnightblue" d="M715.985,-195.461C716.495,-169.801 719.422,-111.229 734.906,-65 738.77,-53.4656 745.4,-41.5685 751.239,-32.3293"/>
<polygon fill="midnightblue" stroke="midnightblue" points="754.289,-34.0612 756.888,-23.7898 748.451,-30.199 754.289,-34.0612"/>
</g>
<!-- Node13&#45;&gt;Node12 -->
<g id="edge28" class="edge"><title>Node13&#45;&gt;Node12</title>
<path fill="none" stroke="midnightblue" d="M755.722,-195.358C797.95,-179.029 862.411,-146.696 890.906,-94 902.031,-73.426 887.458,-47.8358 875.01,-31.58"/>
<polygon fill="midnightblue" stroke="midnightblue" points="877.527,-29.1292 868.489,-23.6005 872.107,-33.5586 877.527,-29.1292"/>
</g>
<!-- Node14 -->
<g id="node14" class="node"><title>Node14</title>
<g id="a_node14"><a xlink:href="xmm_phrase_8hpp.html" target="_top" xlink:title="xmmPhrase.hpp">
<polygon fill="white" stroke="black" points="599.502,-135.5 599.502,-153.5 688.31,-153.5 688.31,-135.5 599.502,-135.5"/>
<text text-anchor="middle" x="643.906" y="-141.5" font-family="Helvetica,sans-Serif" font-size="10.00">xmmPhrase.hpp</text>
</a>
</g>
</g>
<!-- Node13&#45;&gt;Node14 -->
<g id="edge14" class="edge"><title>Node13&#45;&gt;Node14</title>
<path fill="none" stroke="midnightblue" d="M700.988,-195.446C689.341,-185.256 673.15,-171.088 660.985,-160.444"/>
<polygon fill="midnightblue" stroke="midnightblue" points="663.143,-157.681 653.312,-153.73 658.533,-162.949 663.143,-157.681"/>
</g>
<!-- Node14&#45;&gt;Node9 -->
<g id="edge21" class="edge"><title>Node14&#45;&gt;Node9</title>
<path fill="none" stroke="midnightblue" d="M665.654,-135.393C695.189,-124.383 748.155,-104.638 781.864,-92.0721"/>
<polygon fill="midnightblue" stroke="midnightblue" points="783.094,-95.3487 791.242,-88.5761 780.649,-88.7896 783.094,-95.3487"/>
</g>
<!-- Node15 -->
<g id="node15" class="node"><title>Node15</title>
<g id="a_node15"><a xlink:href="xmm_attribute_8hpp.html" target="_top" xlink:title="../common/xmmAttribute.hpp">
<polygon fill="white" stroke="black" points="297.995,-70.5 297.995,-88.5 441.817,-88.5 441.817,-70.5 297.995,-70.5"/>
<text text-anchor="middle" x="369.906" y="-76.5" font-family="Helvetica,sans-Serif" font-size="10.00">../common/xmmAttribute.hpp</text>
</a>
</g>
</g>
<!-- Node14&#45;&gt;Node15 -->
<g id="edge15" class="edge"><title>Node14&#45;&gt;Node15</title>
<path fill="none" stroke="midnightblue" d="M608.926,-135.457C559.59,-124.114 469.535,-103.407 415.16,-90.905"/>
<polygon fill="midnightblue" stroke="midnightblue" points="415.641,-87.4245 405.111,-88.5946 414.073,-94.2465 415.641,-87.4245"/>
</g>
<!-- Node17 -->
<g id="node17" class="node"><title>Node17</title>
<g id="a_node17"><a xlink:href="xmm_json_8hpp.html" target="_top" xlink:title="../common/xmmJson.hpp">
<polygon fill="white" stroke="black" points="152.054,-70.5 152.054,-88.5 279.758,-88.5 279.758,-70.5 152.054,-70.5"/>
<text text-anchor="middle" x="215.906" y="-76.5" font-family="Helvetica,sans-Serif" font-size="10.00">../common/xmmJson.hpp</text>
</a>
</g>
</g>
<!-- Node14&#45;&gt;Node17 -->
<g id="edge22" class="edge"><title>Node14&#45;&gt;Node17</title>
<path fill="none" stroke="midnightblue" d="M599.258,-137.92C531.877,-129.353 400.242,-112.048 288.906,-94 282.068,-92.8915 274.883,-91.6533 267.799,-90.3889"/>
<polygon fill="midnightblue" stroke="midnightblue" points="268.007,-86.8697 257.543,-88.5294 266.758,-93.7574 268.007,-86.8697"/>
</g>
<!-- Node20 -->
<g id="node20" class="node"><title>Node20</title>
<polygon fill="white" stroke="#bfbfbf" points="644.291,-70.5 644.291,-88.5 687.522,-88.5 687.522,-70.5 644.291,-70.5"/>
<text text-anchor="middle" x="665.906" y="-76.5" font-family="Helvetica,sans-Serif" font-size="10.00">cmath</text>
</g>
<!-- Node14&#45;&gt;Node20 -->
<g id="edge26" class="edge"><title>Node14&#45;&gt;Node20</title>
<path fill="none" stroke="midnightblue" d="M646.782,-135.264C650.061,-125.874 655.517,-110.252 659.763,-98.0914"/>
<polygon fill="midnightblue" stroke="midnightblue" points="663.106,-99.1338 663.099,-88.539 656.498,-96.826 663.106,-99.1338"/>
</g>
<!-- Node15&#45;&gt;Node3 -->
<g id="edge19" class="edge"><title>Node15&#45;&gt;Node3</title>
<path fill="none" stroke="midnightblue" d="M328.615,-70.4982C273.592,-59.642 179.29,-40.3076 145.906,-29 144.664,-28.5791 143.403,-28.1209 142.139,-27.6359"/>
<polygon fill="midnightblue" stroke="midnightblue" points="143.176,-24.273 132.605,-23.5667 140.428,-30.7111 143.176,-24.273"/>
</g>
<!-- Node15&#45;&gt;Node4 -->
<g id="edge20" class="edge"><title>Node15&#45;&gt;Node4</title>
<path fill="none" stroke="midnightblue" d="M362.324,-70.2639C353.155,-60.3048 337.533,-43.3359 326.103,-30.9206"/>
<polygon fill="midnightblue" stroke="midnightblue" points="328.655,-28.5254 319.307,-23.539 323.505,-33.2666 328.655,-28.5254"/>
</g>
<!-- Node15&#45;&gt;Node8 -->
<g id="edge18" class="edge"><title>Node15&#45;&gt;Node8</title>
<path fill="none" stroke="midnightblue" d="M378.796,-70.2639C389.648,-60.2099 408.211,-43.0121 421.643,-30.5672"/>
<polygon fill="midnightblue" stroke="midnightblue" points="424.272,-32.9027 429.229,-23.539 419.515,-27.7678 424.272,-32.9027"/>
</g>
<!-- Node15&#45;&gt;Node10 -->
<g id="edge16" class="edge"><title>Node15&#45;&gt;Node10</title>
<path fill="none" stroke="midnightblue" d="M388.566,-70.3928C413.58,-59.5246 458.184,-40.145 487.147,-27.561"/>
<polygon fill="midnightblue" stroke="midnightblue" points="488.542,-30.7712 496.318,-23.5761 485.752,-24.351 488.542,-30.7712"/>
</g>
<!-- Node16 -->
<g id="node16" class="node"><title>Node16</title>
<polygon fill="white" stroke="#bfbfbf" points="351.52,-5.5 351.52,-23.5 390.293,-23.5 390.293,-5.5 351.52,-5.5"/>
<text text-anchor="middle" x="370.906" y="-11.5" font-family="Helvetica,sans-Serif" font-size="10.00">limits</text>
</g>
<!-- Node15&#45;&gt;Node16 -->
<g id="edge17" class="edge"><title>Node15&#45;&gt;Node16</title>
<path fill="none" stroke="midnightblue" d="M370.037,-70.2639C370.183,-61.0635 370.424,-45.881 370.615,-33.8326"/>
<polygon fill="midnightblue" stroke="midnightblue" points="374.119,-33.5933 370.779,-23.539 367.12,-33.4821 374.119,-33.5933"/>
</g>
<!-- Node17&#45;&gt;Node4 -->
<g id="edge25" class="edge"><title>Node17&#45;&gt;Node4</title>
<path fill="none" stroke="midnightblue" d="M228.457,-70.2639C244.355,-59.8305 271.976,-41.704 291.062,-29.1792"/>
<polygon fill="midnightblue" stroke="midnightblue" points="293.216,-31.9518 299.656,-23.539 289.376,-26.0994 293.216,-31.9518"/>
</g>
<!-- Node18 -->
<g id="node18" class="node"><title>Node18</title>
<polygon fill="white" stroke="#bfbfbf" points="155.318,-0.5 155.318,-28.5 272.495,-28.5 272.495,-0.5 155.318,-0.5"/>
<text text-anchor="start" x="163.318" y="-16.5" font-family="Helvetica,sans-Serif" font-size="10.00">../../../dependencies</text>
<text text-anchor="middle" x="213.906" y="-6.5" font-family="Helvetica,sans-Serif" font-size="10.00">/jsoncpp/include/json.h</text>
</g>
<!-- Node17&#45;&gt;Node18 -->
<g id="edge23" class="edge"><title>Node17&#45;&gt;Node18</title>
<path fill="none" stroke="midnightblue" d="M215.645,-70.2639C215.394,-62.3591 215.003,-50.0383 214.655,-39.0835"/>
<polygon fill="midnightblue" stroke="midnightblue" points="218.144,-38.682 214.328,-28.7981 211.148,-38.9042 218.144,-38.682"/>
</g>
<!-- Node19 -->
<g id="node19" class="node"><title>Node19</title>
<polygon fill="white" stroke="#bfbfbf" points="29.2363,-5.5 29.2363,-23.5 78.5762,-23.5 78.5762,-5.5 29.2363,-5.5"/>
<text text-anchor="middle" x="53.9062" y="-11.5" font-family="Helvetica,sans-Serif" font-size="10.00">fstream</text>
</g>
<!-- Node17&#45;&gt;Node19 -->
<g id="edge24" class="edge"><title>Node17&#45;&gt;Node19</title>
<path fill="none" stroke="midnightblue" d="M195.044,-70.4979C169.689,-60.7578 125.618,-43.7785 87.9062,-29 86.5019,-28.4496 85.0654,-27.8852 83.6149,-27.3141"/>
<polygon fill="midnightblue" stroke="midnightblue" points="84.6168,-23.9466 74.0304,-23.525 82.0432,-30.4564 84.6168,-23.9466"/>
</g>
<!-- Node21&#45;&gt;Node9 -->
<g id="edge30" class="edge"><title>Node21&#45;&gt;Node9</title>
<path fill="none" stroke="midnightblue" d="M788.98,-260.422C792.714,-232.344 805.188,-138.54 810.489,-98.6745"/>
<polygon fill="midnightblue" stroke="midnightblue" points="813.959,-99.1339 811.808,-88.7598 807.02,-98.2111 813.959,-99.1339"/>
</g>
<!-- Node21&#45;&gt;Node13 -->
<g id="edge31" class="edge"><title>Node21&#45;&gt;Node13</title>
<path fill="none" stroke="midnightblue" d="M777.895,-260.435C768.196,-252.622 753.107,-240.468 740.245,-230.106"/>
<polygon fill="midnightblue" stroke="midnightblue" points="742.177,-227.168 732.194,-223.62 737.785,-232.619 742.177,-227.168"/>
</g>
<!-- Node21&#45;&gt;Node22 -->
<g id="edge32" class="edge"><title>Node21&#45;&gt;Node22</title>
<path fill="none" stroke="midnightblue" d="M800.559,-260.435C815.281,-251.052 839.827,-235.408 857.525,-224.128"/>
<polygon fill="midnightblue" stroke="midnightblue" points="859.516,-227.009 866.067,-218.683 855.753,-221.106 859.516,-227.009"/>
</g>
<!-- Node25 -->
<g id="node25" class="node"><title>Node25</title>
<g id="a_node25"><a xlink:href="xmm_gaussian_distribution_8hpp.html" target="_top" xlink:title="../../core/distributions\l/xmmGaussianDistribution.hpp">
<polygon fill="white" stroke="black" points="139.823,-130.5 139.823,-158.5 291.99,-158.5 291.99,-130.5 139.823,-130.5"/>
<text text-anchor="start" x="147.823" y="-146.5" font-family="Helvetica,sans-Serif" font-size="10.00">../../core/distributions</text>
<text text-anchor="middle" x="215.906" y="-136.5" font-family="Helvetica,sans-Serif" font-size="10.00">/xmmGaussianDistribution.hpp</text>
</a>
</g>
</g>
<!-- Node24&#45;&gt;Node25 -->
<g id="edge36" class="edge"><title>Node24&#45;&gt;Node25</title>
<path fill="none" stroke="midnightblue" d="M356.188,-200.393C331.636,-190.785 290.086,-174.527 258.561,-162.191"/>
<polygon fill="midnightblue" stroke="midnightblue" points="259.717,-158.885 249.129,-158.5 257.166,-165.404 259.717,-158.885"/>
</g>
<!-- Node26 -->
<g id="node26" class="node"><title>Node26</title>
<g id="a_node26"><a xlink:href="xmm_model_parameters_8hpp.html" target="_top" xlink:title="../../core/model/xmmModel\lParameters.hpp">
<polygon fill="white" stroke="black" points="310,-130.5 310,-158.5 443.812,-158.5 443.812,-130.5 310,-130.5"/>
<text text-anchor="start" x="318" y="-146.5" font-family="Helvetica,sans-Serif" font-size="10.00">../../core/model/xmmModel</text>
<text text-anchor="middle" x="376.906" y="-136.5" font-family="Helvetica,sans-Serif" font-size="10.00">Parameters.hpp</text>
</a>
</g>
</g>
<!-- Node24&#45;&gt;Node26 -->
<g id="edge39" class="edge"><title>Node24&#45;&gt;Node26</title>
<path fill="none" stroke="midnightblue" d="M376.906,-200.264C376.906,-192.359 376.906,-180.038 376.906,-169.083"/>
<polygon fill="midnightblue" stroke="midnightblue" points="380.406,-168.798 376.906,-158.798 373.406,-168.798 380.406,-168.798"/>
</g>
<!-- Node25&#45;&gt;Node15 -->
<g id="edge37" class="edge"><title>Node25&#45;&gt;Node15</title>
<path fill="none" stroke="midnightblue" d="M247.815,-130.446C275.157,-119.261 314.212,-103.284 340.733,-92.4345"/>
<polygon fill="midnightblue" stroke="midnightblue" points="342.303,-95.5738 350.233,-88.548 339.653,-89.095 342.303,-95.5738"/>
</g>
<!-- Node25&#45;&gt;Node17 -->
<g id="edge38" class="edge"><title>Node25&#45;&gt;Node17</title>
<path fill="none" stroke="midnightblue" d="M215.906,-130.446C215.906,-121.334 215.906,-109.041 215.906,-98.9308"/>
<polygon fill="midnightblue" stroke="midnightblue" points="219.406,-98.7301 215.906,-88.7301 212.406,-98.7301 219.406,-98.7301"/>
</g>
<!-- Node26&#45;&gt;Node15 -->
<g id="edge40" class="edge"><title>Node26&#45;&gt;Node15</title>
<path fill="none" stroke="midnightblue" d="M375.456,-130.446C374.443,-121.334 373.077,-109.041 371.954,-98.9308"/>
<polygon fill="midnightblue" stroke="midnightblue" points="375.404,-98.2824 370.821,-88.7301 368.447,-99.0555 375.404,-98.2824"/>
</g>
<!-- Node26&#45;&gt;Node17 -->
<g id="edge41" class="edge"><title>Node26&#45;&gt;Node17</title>
<path fill="none" stroke="midnightblue" d="M343.547,-130.446C314.836,-119.212 273.773,-103.143 246.04,-92.2914"/>
<polygon fill="midnightblue" stroke="midnightblue" points="247.061,-88.9327 236.473,-88.548 244.51,-95.4514 247.061,-88.9327"/>
</g>
</g>
</svg>
