<?xml version="1.0" encoding="UTF-8" standalone="no"?>
<!DOCTYPE svg PUBLIC "-//W3C//DTD SVG 1.1//EN"
 "http://www.w3.org/Graphics/SVG/1.1/DTD/svg11.dtd">
<!-- Generated by graphviz version 2.38.0 (20140413.2041)
 -->
<!-- Title: xmmModelResults.hpp Pages: 1 -->
<svg width="126pt" height="82pt"
 viewBox="0.00 0.00 125.70 82.00" xmlns="http://www.w3.org/2000/svg" xmlns:xlink="http://www.w3.org/1999/xlink">
<g id="graph0" class="graph" transform="scale(1 1) rotate(0) translate(4 78)">
<title>xmmModelResults.hpp</title>
<polygon fill="white" stroke="none" points="-4,4 -4,-78 121.704,-78 121.704,4 -4,4"/>
<!-- Node1 -->
<g id="node1" class="node"><title>Node1</title>
<polygon fill="#bfbfbf" stroke="black" points="0,-55.5 0,-73.5 117.704,-73.5 117.704,-55.5 0,-55.5"/>
<text text-anchor="middle" x="58.8521" y="-61.5" font-family="Helvetica,sans-Serif" font-size="10.00">xmmModelResults.hpp</text>
</g>
<!-- Node2 -->
<g id="node2" class="node"><title>Node2</title>
<polygon fill="white" stroke="#bfbfbf" points="8.62549,-0.5 8.62549,-18.5 49.0786,-18.5 49.0786,-0.5 8.62549,-0.5"/>
<text text-anchor="middle" x="28.8521" y="-6.5" font-family="Helvetica,sans-Serif" font-size="10.00">string</text>
</g>
<!-- Node1&#45;&gt;Node2 -->
<g id="edge1" class="edge"><title>Node1&#45;&gt;Node2</title>
<path fill="none" stroke="midnightblue" d="M54.1646,-55.2188C49.9571,-47.7856 43.6516,-36.646 38.3867,-27.3446"/>
<polygon fill="midnightblue" stroke="midnightblue" points="41.3803,-25.528 33.4084,-18.5496 35.2885,-28.9763 41.3803,-25.528"/>
</g>
<!-- Node3 -->
<g id="node3" class="node"><title>Node3</title>
<polygon fill="white" stroke="#bfbfbf" points="67.2363,-0.5 67.2363,-18.5 110.468,-18.5 110.468,-0.5 67.2363,-0.5"/>
<text text-anchor="middle" x="88.8521" y="-6.5" font-family="Helvetica,sans-Serif" font-size="10.00">vector</text>
</g>
<!-- Node1&#45;&gt;Node3 -->
<g id="edge2" class="edge"><title>Node1&#45;&gt;Node3</title>
<path fill="none" stroke="midnightblue" d="M63.5396,-55.2188C67.747,-47.7856 74.0525,-36.646 79.3174,-27.3446"/>
<polygon fill="midnightblue" stroke="midnightblue" points="82.4156,-28.9763 84.2957,-18.5496 76.3238,-25.528 82.4156,-28.9763"/>
</g>
</g>
</svg>
