<?xml version="1.0" encoding="UTF-8" standalone="no"?>
<!DOCTYPE svg PUBLIC "-//W3C//DTD SVG 1.1//EN"
 "http://www.w3.org/Graphics/SVG/1.1/DTD/svg11.dtd">
<!-- Generated by graphviz version 2.38.0 (20140413.2041)
 -->
<!-- Title: xmmJson.hpp Pages: 1 -->
<svg width="253pt" height="92pt"
 viewBox="0.00 0.00 253.20 92.00" xmlns="http://www.w3.org/2000/svg" xmlns:xlink="http://www.w3.org/1999/xlink">
<g id="graph0" class="graph" transform="scale(1 1) rotate(0) translate(4 88)">
<title>xmmJson.hpp</title>
<polygon fill="white" stroke="none" points="-4,4 -4,-88 249.204,-88 249.204,4 -4,4"/>
<!-- Node1 -->
<g id="node1" class="node"><title>Node1</title>
<polygon fill="#bfbfbf" stroke="black" points="120.465,-65.5 120.465,-83.5 198.711,-83.5 198.711,-65.5 120.465,-65.5"/>
<text text-anchor="middle" x="159.588" y="-71.5" font-family="Helvetica,sans-Serif" font-size="10.00">xmmJson.hpp</text>
</g>
<!-- Node2 -->
<g id="node2" class="node"><title>Node2</title>
<polygon fill="white" stroke="#bfbfbf" points="0,-0.5 0,-28.5 117.177,-28.5 117.177,-0.5 0,-0.5"/>
<text text-anchor="start" x="8" y="-16.5" font-family="Helvetica,sans-Serif" font-size="10.00">../../../dependencies</text>
<text text-anchor="middle" x="58.5884" y="-6.5" font-family="Helvetica,sans-Serif" font-size="10.00">/jsoncpp/include/json.h</text>
</g>
<!-- Node1&#45;&gt;Node2 -->
<g id="edge1" class="edge"><title>Node1&#45;&gt;Node2</title>
<path fill="none" stroke="midnightblue" d="M145.545,-65.4353C131.291,-57.25 108.74,-44.3001 90.1755,-33.6391"/>
<polygon fill="midnightblue" stroke="midnightblue" points="91.8507,-30.5651 81.4359,-28.6203 88.3647,-36.6354 91.8507,-30.5651"/>
</g>
<!-- Node3 -->
<g id="node3" class="node"><title>Node3</title>
<polygon fill="white" stroke="#bfbfbf" points="134.918,-5.5 134.918,-23.5 184.258,-23.5 184.258,-5.5 134.918,-5.5"/>
<text text-anchor="middle" x="159.588" y="-11.5" font-family="Helvetica,sans-Serif" font-size="10.00">fstream</text>
</g>
<!-- Node1&#45;&gt;Node3 -->
<g id="edge2" class="edge"><title>Node1&#45;&gt;Node3</title>
<path fill="none" stroke="midnightblue" d="M159.588,-65.4353C159.588,-57.3891 159.588,-44.7388 159.588,-34.1846"/>
<polygon fill="midnightblue" stroke="midnightblue" points="163.088,-33.8717 159.588,-23.8718 156.088,-33.8718 163.088,-33.8717"/>
</g>
<!-- Node4 -->
<g id="node4" class="node"><title>Node4</title>
<polygon fill="white" stroke="#bfbfbf" points="201.973,-5.5 201.973,-23.5 245.204,-23.5 245.204,-5.5 201.973,-5.5"/>
<text text-anchor="middle" x="223.588" y="-11.5" font-family="Helvetica,sans-Serif" font-size="10.00">vector</text>
</g>
<!-- Node1&#45;&gt;Node4 -->
<g id="edge3" class="edge"><title>Node1&#45;&gt;Node4</title>
<path fill="none" stroke="midnightblue" d="M168.487,-65.4353C178.31,-56.5331 194.352,-41.9952 206.6,-30.8954"/>
<polygon fill="midnightblue" stroke="midnightblue" points="209.291,-33.1804 214.351,-23.8718 204.59,-27.9935 209.291,-33.1804"/>
</g>
</g>
</svg>
