<?xml version="1.0" encoding="UTF-8" standalone="no"?>
<!DOCTYPE svg PUBLIC "-//W3C//DTD SVG 1.1//EN"
 "http://www.w3.org/Graphics/SVG/1.1/DTD/svg11.dtd">
<!-- Generated by graphviz version 2.38.0 (20140413.2041)
 -->
<!-- Title: xmmModelSharedParameters.cpp Pages: 1 -->
<svg width="703pt" height="322pt"
 viewBox="0.00 0.00 702.92 322.00" xmlns="http://www.w3.org/2000/svg" xmlns:xlink="http://www.w3.org/1999/xlink">
<g id="graph0" class="graph" transform="scale(1 1) rotate(0) translate(4 318)">
<title>xmmModelSharedParameters.cpp</title>
<polygon fill="white" stroke="none" points="-4,4 -4,-318 698.925,-318 698.925,4 -4,4"/>
<!-- Node1 -->
<g id="node1" class="node"><title>Node1</title>
<polygon fill="#bfbfbf" stroke="black" points="76.4722,-295.5 76.4722,-313.5 244.201,-313.5 244.201,-295.5 76.4722,-295.5"/>
<text text-anchor="middle" x="160.336" y="-301.5" font-family="Helvetica,sans-Serif" font-size="10.00">xmmModelSharedParameters.cpp</text>
</g>
<!-- Node2 -->
<g id="node2" class="node"><title>Node2</title>
<g id="a_node2"><a xlink:href="xmm_model_shared_parameters_8hpp.html" target="_top" xlink:title="xmmModelSharedParameters.hpp">
<polygon fill="white" stroke="black" points="76.1914,-240.5 76.1914,-258.5 244.481,-258.5 244.481,-240.5 76.1914,-240.5"/>
<text text-anchor="middle" x="160.336" y="-246.5" font-family="Helvetica,sans-Serif" font-size="10.00">xmmModelSharedParameters.hpp</text>
</a>
</g>
</g>
<!-- Node1&#45;&gt;Node2 -->
<g id="edge1" class="edge"><title>Node1&#45;&gt;Node2</title>
<path fill="none" stroke="midnightblue" d="M160.336,-295.219C160.336,-288.177 160.336,-277.808 160.336,-268.828"/>
<polygon fill="midnightblue" stroke="midnightblue" points="163.837,-268.55 160.336,-258.55 156.837,-268.55 163.837,-268.55"/>
</g>
<!-- Node3 -->
<g id="node3" class="node"><title>Node3</title>
<g id="a_node3"><a xlink:href="xmm_events_8hpp.html" target="_top" xlink:title="../common/xmmEvents.hpp">
<polygon fill="white" stroke="black" points="92.7603,-65.5 92.7603,-83.5 229.913,-83.5 229.913,-65.5 92.7603,-65.5"/>
<text text-anchor="middle" x="161.336" y="-71.5" font-family="Helvetica,sans-Serif" font-size="10.00">../common/xmmEvents.hpp</text>
</a>
</g>
</g>
<!-- Node2&#45;&gt;Node3 -->
<g id="edge2" class="edge"><title>Node2&#45;&gt;Node3</title>
<path fill="none" stroke="midnightblue" d="M160.385,-240.156C160.537,-213.724 161.013,-131.396 161.229,-94.1437"/>
<polygon fill="midnightblue" stroke="midnightblue" points="164.731,-93.7805 161.289,-83.7604 157.731,-93.74 164.731,-93.7805"/>
</g>
<!-- Node7 -->
<g id="node7" class="node"><title>Node7</title>
<g id="a_node7"><a xlink:href="xmm_training_set_8hpp.html" target="_top" xlink:title="../trainingset/xmmTraining\lSet.hpp">
<polygon fill="white" stroke="black" points="0,-175.5 0,-203.5 130.673,-203.5 130.673,-175.5 0,-175.5"/>
<text text-anchor="start" x="8" y="-191.5" font-family="Helvetica,sans-Serif" font-size="10.00">../trainingset/xmmTraining</text>
<text text-anchor="middle" x="65.3364" y="-181.5" font-family="Helvetica,sans-Serif" font-size="10.00">Set.hpp</text>
</a>
</g>
</g>
<!-- Node2&#45;&gt;Node7 -->
<g id="edge6" class="edge"><title>Node2&#45;&gt;Node7</title>
<path fill="none" stroke="midnightblue" d="M147.127,-240.435C133.842,-232.324 112.894,-219.535 95.5242,-208.93"/>
<polygon fill="midnightblue" stroke="midnightblue" points="97.1855,-205.844 86.8266,-203.62 93.5379,-211.819 97.1855,-205.844"/>
</g>
<!-- Node18 -->
<g id="node18" class="node"><title>Node18</title>
<polygon fill="white" stroke="#bfbfbf" points="188.721,-180.5 188.721,-198.5 231.952,-198.5 231.952,-180.5 188.721,-180.5"/>
<text text-anchor="middle" x="210.336" y="-186.5" font-family="Helvetica,sans-Serif" font-size="10.00">mutex</text>
</g>
<!-- Node2&#45;&gt;Node18 -->
<g id="edge22" class="edge"><title>Node2&#45;&gt;Node18</title>
<path fill="none" stroke="midnightblue" d="M167.289,-240.435C174.815,-231.704 187.016,-217.552 196.509,-206.54"/>
<polygon fill="midnightblue" stroke="midnightblue" points="199.241,-208.731 203.119,-198.872 193.939,-204.161 199.241,-208.731"/>
</g>
<!-- Node4 -->
<g id="node4" class="node"><title>Node4</title>
<polygon fill="white" stroke="#bfbfbf" points="155.933,-5.5 155.933,-23.5 214.74,-23.5 214.74,-5.5 155.933,-5.5"/>
<text text-anchor="middle" x="185.336" y="-11.5" font-family="Helvetica,sans-Serif" font-size="10.00">functional</text>
</g>
<!-- Node3&#45;&gt;Node4 -->
<g id="edge3" class="edge"><title>Node3&#45;&gt;Node4</title>
<path fill="none" stroke="midnightblue" d="M164.674,-65.4353C168.109,-57.1323 173.574,-43.9267 178.02,-33.1807"/>
<polygon fill="midnightblue" stroke="midnightblue" points="181.283,-34.4502 181.872,-23.8718 174.815,-31.7737 181.283,-34.4502"/>
</g>
<!-- Node5 -->
<g id="node5" class="node"><title>Node5</title>
<polygon fill="white" stroke="#bfbfbf" points="97.6099,-5.5 97.6099,-23.5 133.063,-23.5 133.063,-5.5 97.6099,-5.5"/>
<text text-anchor="middle" x="115.336" y="-11.5" font-family="Helvetica,sans-Serif" font-size="10.00">map</text>
</g>
<!-- Node3&#45;&gt;Node5 -->
<g id="edge4" class="edge"><title>Node3&#45;&gt;Node5</title>
<path fill="none" stroke="midnightblue" d="M154.94,-65.4353C148.084,-56.7899 137.011,-42.8292 128.315,-31.8643"/>
<polygon fill="midnightblue" stroke="midnightblue" points="130.932,-29.5319 121.976,-23.8718 125.448,-33.8816 130.932,-29.5319"/>
</g>
<!-- Node6 -->
<g id="node6" class="node"><title>Node6</title>
<polygon fill="white" stroke="#bfbfbf" points="40.6665,-5.5 40.6665,-23.5 70.0063,-23.5 70.0063,-5.5 40.6665,-5.5"/>
<text text-anchor="middle" x="55.3364" y="-11.5" font-family="Helvetica,sans-Serif" font-size="10.00">set</text>
</g>
<!-- Node3&#45;&gt;Node6 -->
<g id="edge5" class="edge"><title>Node3&#45;&gt;Node6</title>
<path fill="none" stroke="midnightblue" d="M146.598,-65.4353C129.134,-55.88 99.8043,-39.8315 79.1157,-28.5113"/>
<polygon fill="midnightblue" stroke="midnightblue" points="80.7445,-25.4129 70.2918,-23.6831 77.3844,-31.5537 80.7445,-25.4129"/>
</g>
<!-- Node7&#45;&gt;Node5 -->
<g id="edge20" class="edge"><title>Node7&#45;&gt;Node5</title>
<path fill="none" stroke="midnightblue" d="M65.4309,-175.428C65.988,-152.382 68.9368,-103.336 83.3364,-65 87.8162,-53.0734 95.5072,-41.0397 102.226,-31.824"/>
<polygon fill="midnightblue" stroke="midnightblue" points="105.177,-33.7271 108.467,-23.656 99.6146,-29.4774 105.177,-33.7271"/>
</g>
<!-- Node7&#45;&gt;Node6 -->
<g id="edge21" class="edge"><title>Node7&#45;&gt;Node6</title>
<path fill="none" stroke="midnightblue" d="M60.174,-175.298C56.6163,-165.464 52.2056,-151.613 50.3364,-139 44.8489,-101.969 49.1623,-58.0568 52.4672,-33.8383"/>
<polygon fill="midnightblue" stroke="midnightblue" points="55.9735,-34.0497 53.9612,-23.6477 49.0476,-33.0343 55.9735,-34.0497"/>
</g>
<!-- Node8 -->
<g id="node8" class="node"><title>Node8</title>
<g id="a_node8"><a xlink:href="xmm_phrase_8hpp.html" target="_top" xlink:title="xmmPhrase.hpp">
<polygon fill="white" stroke="black" points="224.933,-120.5 224.933,-138.5 313.74,-138.5 313.74,-120.5 224.933,-120.5"/>
<text text-anchor="middle" x="269.336" y="-126.5" font-family="Helvetica,sans-Serif" font-size="10.00">xmmPhrase.hpp</text>
</a>
</g>
</g>
<!-- Node7&#45;&gt;Node8 -->
<g id="edge7" class="edge"><title>Node7&#45;&gt;Node8</title>
<path fill="none" stroke="midnightblue" d="M111.118,-175.484C147.208,-165.223 196.953,-151.08 230.972,-141.408"/>
<polygon fill="midnightblue" stroke="midnightblue" points="232.33,-144.66 240.992,-138.559 230.416,-137.927 232.33,-144.66"/>
</g>
<!-- Node8&#45;&gt;Node3 -->
<g id="edge14" class="edge"><title>Node8&#45;&gt;Node3</title>
<path fill="none" stroke="midnightblue" d="M252.934,-120.45C235.41,-111.851 207.399,-98.1048 186.962,-88.0755"/>
<polygon fill="midnightblue" stroke="midnightblue" points="188.413,-84.8888 177.894,-83.6253 185.329,-91.1729 188.413,-84.8888"/>
</g>
<!-- Node9 -->
<g id="node9" class="node"><title>Node9</title>
<g id="a_node9"><a xlink:href="xmm_attribute_8hpp.html" target="_top" xlink:title="../common/xmmAttribute.hpp">
<polygon fill="white" stroke="black" points="309.425,-65.5 309.425,-83.5 453.248,-83.5 453.248,-65.5 309.425,-65.5"/>
<text text-anchor="middle" x="381.336" y="-71.5" font-family="Helvetica,sans-Serif" font-size="10.00">../common/xmmAttribute.hpp</text>
</a>
</g>
</g>
<!-- Node8&#45;&gt;Node9 -->
<g id="edge8" class="edge"><title>Node8&#45;&gt;Node9</title>
<path fill="none" stroke="midnightblue" d="M286.347,-120.45C304.602,-111.812 333.831,-97.9803 355.049,-87.9396"/>
<polygon fill="midnightblue" stroke="midnightblue" points="356.624,-91.0664 364.166,-83.6253 353.63,-84.7391 356.624,-91.0664"/>
</g>
<!-- Node14 -->
<g id="node14" class="node"><title>Node14</title>
<g id="a_node14"><a xlink:href="xmm_json_8hpp.html" target="_top" xlink:title="../common/xmmJson.hpp">
<polygon fill="white" stroke="black" points="471.484,-65.5 471.484,-83.5 599.188,-83.5 599.188,-65.5 471.484,-65.5"/>
<text text-anchor="middle" x="535.336" y="-71.5" font-family="Helvetica,sans-Serif" font-size="10.00">../common/xmmJson.hpp</text>
</a>
</g>
</g>
<!-- Node8&#45;&gt;Node14 -->
<g id="edge15" class="edge"><title>Node8&#45;&gt;Node14</title>
<path fill="none" stroke="midnightblue" d="M309.736,-120.45C356.646,-111.104 434.066,-95.678 484.887,-85.552"/>
<polygon fill="midnightblue" stroke="midnightblue" points="485.87,-88.925 494.993,-83.5383 484.502,-82.0599 485.87,-88.925"/>
</g>
<!-- Node17 -->
<g id="node17" class="node"><title>Node17</title>
<polygon fill="white" stroke="#bfbfbf" points="247.721,-65.5 247.721,-83.5 290.952,-83.5 290.952,-65.5 247.721,-65.5"/>
<text text-anchor="middle" x="269.336" y="-71.5" font-family="Helvetica,sans-Serif" font-size="10.00">cmath</text>
</g>
<!-- Node8&#45;&gt;Node17 -->
<g id="edge19" class="edge"><title>Node8&#45;&gt;Node17</title>
<path fill="none" stroke="midnightblue" d="M269.336,-120.219C269.336,-113.177 269.336,-102.808 269.336,-93.8277"/>
<polygon fill="midnightblue" stroke="midnightblue" points="272.837,-93.5495 269.336,-83.5496 265.837,-93.5496 272.837,-93.5495"/>
</g>
<!-- Node9&#45;&gt;Node4 -->
<g id="edge9" class="edge"><title>Node9&#45;&gt;Node4</title>
<path fill="none" stroke="midnightblue" d="M354.083,-65.4353C319.805,-55.2918 260.801,-37.8314 222.432,-26.4774"/>
<polygon fill="midnightblue" stroke="midnightblue" points="223.255,-23.0709 212.673,-23.5894 221.269,-29.7832 223.255,-23.0709"/>
</g>
<!-- Node10 -->
<g id="node10" class="node"><title>Node10</title>
<polygon fill="white" stroke="#bfbfbf" points="256.95,-5.5 256.95,-23.5 295.723,-23.5 295.723,-5.5 256.95,-5.5"/>
<text text-anchor="middle" x="276.336" y="-11.5" font-family="Helvetica,sans-Serif" font-size="10.00">limits</text>
</g>
<!-- Node9&#45;&gt;Node10 -->
<g id="edge10" class="edge"><title>Node9&#45;&gt;Node10</title>
<path fill="none" stroke="midnightblue" d="M366.737,-65.4353C349.516,-55.923 320.646,-39.9759 300.169,-28.6645"/>
<polygon fill="midnightblue" stroke="midnightblue" points="301.596,-25.4547 291.151,-23.6831 298.212,-31.582 301.596,-25.4547"/>
</g>
<!-- Node11 -->
<g id="node11" class="node"><title>Node11</title>
<polygon fill="white" stroke="#bfbfbf" points="313.935,-5.5 313.935,-23.5 372.738,-23.5 372.738,-5.5 313.935,-5.5"/>
<text text-anchor="middle" x="343.336" y="-11.5" font-family="Helvetica,sans-Serif" font-size="10.00">stdexcept</text>
</g>
<!-- Node9&#45;&gt;Node11 -->
<g id="edge11" class="edge"><title>Node9&#45;&gt;Node11</title>
<path fill="none" stroke="midnightblue" d="M376.053,-65.4353C370.501,-56.9611 361.603,-43.38 354.487,-32.5192"/>
<polygon fill="midnightblue" stroke="midnightblue" points="357.229,-30.3183 348.821,-23.8718 351.374,-34.1545 357.229,-30.3183"/>
</g>
<!-- Node12 -->
<g id="node12" class="node"><title>Node12</title>
<polygon fill="white" stroke="#bfbfbf" points="391.11,-5.5 391.11,-23.5 431.563,-23.5 431.563,-5.5 391.11,-5.5"/>
<text text-anchor="middle" x="411.336" y="-11.5" font-family="Helvetica,sans-Serif" font-size="10.00">string</text>
</g>
<!-- Node9&#45;&gt;Node12 -->
<g id="edge12" class="edge"><title>Node9&#45;&gt;Node12</title>
<path fill="none" stroke="midnightblue" d="M385.508,-65.4353C389.847,-57.0467 396.774,-43.6539 402.363,-32.8491"/>
<polygon fill="midnightblue" stroke="midnightblue" points="405.521,-34.3619 407.006,-23.8718 399.303,-31.1459 405.521,-34.3619"/>
</g>
<!-- Node13 -->
<g id="node13" class="node"><title>Node13</title>
<polygon fill="white" stroke="#bfbfbf" points="449.721,-5.5 449.721,-23.5 492.952,-23.5 492.952,-5.5 449.721,-5.5"/>
<text text-anchor="middle" x="471.336" y="-11.5" font-family="Helvetica,sans-Serif" font-size="10.00">vector</text>
</g>
<!-- Node9&#45;&gt;Node13 -->
<g id="edge13" class="edge"><title>Node9&#45;&gt;Node13</title>
<path fill="none" stroke="midnightblue" d="M393.851,-65.4353C408.411,-56.0521 432.687,-40.4077 450.19,-29.1277"/>
<polygon fill="midnightblue" stroke="midnightblue" points="452.129,-32.0422 458.638,-23.6831 448.337,-26.1582 452.129,-32.0422"/>
</g>
<!-- Node14&#45;&gt;Node13 -->
<g id="edge18" class="edge"><title>Node14&#45;&gt;Node13</title>
<path fill="none" stroke="midnightblue" d="M526.438,-65.4353C516.614,-56.5331 500.573,-41.9952 488.324,-30.8954"/>
<polygon fill="midnightblue" stroke="midnightblue" points="490.334,-27.9935 480.574,-23.8718 485.634,-33.1804 490.334,-27.9935"/>
</g>
<!-- Node15 -->
<g id="node15" class="node"><title>Node15</title>
<polygon fill="white" stroke="#bfbfbf" points="577.748,-0.5 577.748,-28.5 694.925,-28.5 694.925,-0.5 577.748,-0.5"/>
<text text-anchor="start" x="585.748" y="-16.5" font-family="Helvetica,sans-Serif" font-size="10.00">../../../dependencies</text>
<text text-anchor="middle" x="636.336" y="-6.5" font-family="Helvetica,sans-Serif" font-size="10.00">/jsoncpp/include/json.h</text>
</g>
<!-- Node14&#45;&gt;Node15 -->
<g id="edge16" class="edge"><title>Node14&#45;&gt;Node15</title>
<path fill="none" stroke="midnightblue" d="M549.38,-65.4353C563.634,-57.25 586.185,-44.3001 604.749,-33.6391"/>
<polygon fill="midnightblue" stroke="midnightblue" points="606.56,-36.6354 613.489,-28.6203 603.074,-30.5651 606.56,-36.6354"/>
</g>
<!-- Node16 -->
<g id="node16" class="node"><title>Node16</title>
<polygon fill="white" stroke="#bfbfbf" points="510.667,-5.5 510.667,-23.5 560.006,-23.5 560.006,-5.5 510.667,-5.5"/>
<text text-anchor="middle" x="535.336" y="-11.5" font-family="Helvetica,sans-Serif" font-size="10.00">fstream</text>
</g>
<!-- Node14&#45;&gt;Node16 -->
<g id="edge17" class="edge"><title>Node14&#45;&gt;Node16</title>
<path fill="none" stroke="midnightblue" d="M535.336,-65.4353C535.336,-57.3891 535.336,-44.7388 535.336,-34.1846"/>
<polygon fill="midnightblue" stroke="midnightblue" points="538.837,-33.8717 535.336,-23.8718 531.837,-33.8718 538.837,-33.8717"/>
</g>
</g>
</svg>
