<?xml version="1.0" encoding="UTF-8" standalone="no"?>
<!DOCTYPE svg PUBLIC "-//W3C//DTD SVG 1.1//EN"
 "http://www.w3.org/Graphics/SVG/1.1/DTD/svg11.dtd">
<!-- Generated by graphviz version 2.38.0 (20140413.2041)
 -->
<!-- Title: xmmPhrase.hpp Pages: 1 -->
<svg width="623pt" height="147pt"
 viewBox="0.00 0.00 623.40 147.00" xmlns="http://www.w3.org/2000/svg" xmlns:xlink="http://www.w3.org/1999/xlink">
<g id="graph0" class="graph" transform="scale(1 1) rotate(0) translate(4 143)">
<title>xmmPhrase.hpp</title>
<polygon fill="white" stroke="none" points="-4,4 -4,-143 619.396,-143 619.396,4 -4,4"/>
<!-- Node1 -->
<g id="node1" class="node"><title>Node1</title>
<polygon fill="#bfbfbf" stroke="black" points="296.323,-120.5 296.323,-138.5 385.13,-138.5 385.13,-120.5 296.323,-120.5"/>
<text text-anchor="middle" x="340.727" y="-126.5" font-family="Helvetica,sans-Serif" font-size="10.00">xmmPhrase.hpp</text>
</g>
<!-- Node2 -->
<g id="node2" class="node"><title>Node2</title>
<g id="a_node2"><a xlink:href="xmm_attribute_8hpp.html" target="_top" xlink:title="../common/xmmAttribute.hpp">
<polygon fill="white" stroke="black" points="191.815,-65.5 191.815,-83.5 335.638,-83.5 335.638,-65.5 191.815,-65.5"/>
<text text-anchor="middle" x="263.727" y="-71.5" font-family="Helvetica,sans-Serif" font-size="10.00">../common/xmmAttribute.hpp</text>
</a>
</g>
</g>
<!-- Node1&#45;&gt;Node2 -->
<g id="edge1" class="edge"><title>Node1&#45;&gt;Node2</title>
<path fill="none" stroke="midnightblue" d="M329.032,-120.45C317.047,-112.201 298.182,-99.2158 283.803,-89.3187"/>
<polygon fill="midnightblue" stroke="midnightblue" points="285.753,-86.4121 275.531,-83.6253 281.784,-92.1782 285.753,-86.4121"/>
</g>
<!-- Node8 -->
<g id="node8" class="node"><title>Node8</title>
<g id="a_node8"><a xlink:href="xmm_events_8hpp.html" target="_top" xlink:title="../common/xmmEvents.hpp">
<polygon fill="white" stroke="black" points="18.1504,-65.5 18.1504,-83.5 155.303,-83.5 155.303,-65.5 18.1504,-65.5"/>
<text text-anchor="middle" x="86.7266" y="-71.5" font-family="Helvetica,sans-Serif" font-size="10.00">../common/xmmEvents.hpp</text>
</a>
</g>
</g>
<!-- Node1&#45;&gt;Node8 -->
<g id="edge7" class="edge"><title>Node1&#45;&gt;Node8</title>
<path fill="none" stroke="midnightblue" d="M302.149,-120.45C257.45,-111.123 183.737,-95.7424 135.204,-85.6155"/>
<polygon fill="midnightblue" stroke="midnightblue" points="135.754,-82.1548 125.25,-83.5383 134.324,-89.0072 135.754,-82.1548"/>
</g>
<!-- Node11 -->
<g id="node11" class="node"><title>Node11</title>
<g id="a_node11"><a xlink:href="xmm_json_8hpp.html" target="_top" xlink:title="../common/xmmJson.hpp">
<polygon fill="white" stroke="black" points="353.875,-65.5 353.875,-83.5 481.579,-83.5 481.579,-65.5 353.875,-65.5"/>
<text text-anchor="middle" x="417.727" y="-71.5" font-family="Helvetica,sans-Serif" font-size="10.00">../common/xmmJson.hpp</text>
</a>
</g>
</g>
<!-- Node1&#45;&gt;Node11 -->
<g id="edge11" class="edge"><title>Node1&#45;&gt;Node11</title>
<path fill="none" stroke="midnightblue" d="M352.421,-120.45C364.406,-112.201 383.271,-99.2158 397.65,-89.3187"/>
<polygon fill="midnightblue" stroke="midnightblue" points="399.669,-92.1782 405.922,-83.6253 395.7,-86.4121 399.669,-92.1782"/>
</g>
<!-- Node14 -->
<g id="node14" class="node"><title>Node14</title>
<polygon fill="white" stroke="#bfbfbf" points="499.111,-65.5 499.111,-83.5 542.342,-83.5 542.342,-65.5 499.111,-65.5"/>
<text text-anchor="middle" x="520.727" y="-71.5" font-family="Helvetica,sans-Serif" font-size="10.00">cmath</text>
</g>
<!-- Node1&#45;&gt;Node14 -->
<g id="edge15" class="edge"><title>Node1&#45;&gt;Node14</title>
<path fill="none" stroke="midnightblue" d="M368.065,-120.45C400.597,-110.872 454.813,-94.9079 489.117,-84.8074"/>
<polygon fill="midnightblue" stroke="midnightblue" points="490.473,-88.0566 499.077,-81.8745 488.496,-81.3416 490.473,-88.0566"/>
</g>
<!-- Node3 -->
<g id="node3" class="node"><title>Node3</title>
<polygon fill="white" stroke="#bfbfbf" points="100.323,-5.5 100.323,-23.5 159.13,-23.5 159.13,-5.5 100.323,-5.5"/>
<text text-anchor="middle" x="129.727" y="-11.5" font-family="Helvetica,sans-Serif" font-size="10.00">functional</text>
</g>
<!-- Node2&#45;&gt;Node3 -->
<g id="edge2" class="edge"><title>Node2&#45;&gt;Node3</title>
<path fill="none" stroke="midnightblue" d="M245.094,-65.4353C222.521,-55.6648 184.263,-39.1053 158.037,-27.7537"/>
<polygon fill="midnightblue" stroke="midnightblue" points="159.2,-24.4434 148.632,-23.6831 156.419,-30.8675 159.2,-24.4434"/>
</g>
<!-- Node4 -->
<g id="node4" class="node"><title>Node4</title>
<polygon fill="white" stroke="#bfbfbf" points="177.34,-5.5 177.34,-23.5 216.113,-23.5 216.113,-5.5 177.34,-5.5"/>
<text text-anchor="middle" x="196.727" y="-11.5" font-family="Helvetica,sans-Serif" font-size="10.00">limits</text>
</g>
<!-- Node2&#45;&gt;Node4 -->
<g id="edge3" class="edge"><title>Node2&#45;&gt;Node4</title>
<path fill="none" stroke="midnightblue" d="M254.41,-65.4353C244.028,-56.4475 227.01,-41.7151 214.142,-30.5762"/>
<polygon fill="midnightblue" stroke="midnightblue" points="216.249,-27.7706 206.397,-23.8718 211.667,-33.063 216.249,-27.7706"/>
</g>
<!-- Node5 -->
<g id="node5" class="node"><title>Node5</title>
<polygon fill="white" stroke="#bfbfbf" points="234.325,-5.5 234.325,-23.5 293.128,-23.5 293.128,-5.5 234.325,-5.5"/>
<text text-anchor="middle" x="263.727" y="-11.5" font-family="Helvetica,sans-Serif" font-size="10.00">stdexcept</text>
</g>
<!-- Node2&#45;&gt;Node5 -->
<g id="edge4" class="edge"><title>Node2&#45;&gt;Node5</title>
<path fill="none" stroke="midnightblue" d="M263.727,-65.4353C263.727,-57.3891 263.727,-44.7388 263.727,-34.1846"/>
<polygon fill="midnightblue" stroke="midnightblue" points="267.227,-33.8717 263.727,-23.8718 260.227,-33.8718 267.227,-33.8717"/>
</g>
<!-- Node6 -->
<g id="node6" class="node"><title>Node6</title>
<polygon fill="white" stroke="#bfbfbf" points="311.5,-5.5 311.5,-23.5 351.953,-23.5 351.953,-5.5 311.5,-5.5"/>
<text text-anchor="middle" x="331.727" y="-11.5" font-family="Helvetica,sans-Serif" font-size="10.00">string</text>
</g>
<!-- Node2&#45;&gt;Node6 -->
<g id="edge5" class="edge"><title>Node2&#45;&gt;Node6</title>
<path fill="none" stroke="midnightblue" d="M273.182,-65.4353C283.719,-56.4475 300.992,-41.7151 314.051,-30.5762"/>
<polygon fill="midnightblue" stroke="midnightblue" points="316.574,-33.0242 321.911,-23.8718 312.032,-27.6983 316.574,-33.0242"/>
</g>
<!-- Node7 -->
<g id="node7" class="node"><title>Node7</title>
<polygon fill="white" stroke="#bfbfbf" points="370.111,-5.5 370.111,-23.5 413.342,-23.5 413.342,-5.5 370.111,-5.5"/>
<text text-anchor="middle" x="391.727" y="-11.5" font-family="Helvetica,sans-Serif" font-size="10.00">vector</text>
</g>
<!-- Node2&#45;&gt;Node7 -->
<g id="edge6" class="edge"><title>Node2&#45;&gt;Node7</title>
<path fill="none" stroke="midnightblue" d="M281.524,-65.4353C302.992,-55.7078 339.31,-39.2511 364.352,-27.9041"/>
<polygon fill="midnightblue" stroke="midnightblue" points="366.003,-30.9985 373.667,-23.6831 363.114,-24.6225 366.003,-30.9985"/>
</g>
<!-- Node8&#45;&gt;Node3 -->
<g id="edge8" class="edge"><title>Node8&#45;&gt;Node3</title>
<path fill="none" stroke="midnightblue" d="M92.7055,-65.4353C99.0516,-56.8755 109.261,-43.1052 117.352,-32.1909"/>
<polygon fill="midnightblue" stroke="midnightblue" points="120.376,-33.9894 123.52,-23.8718 114.753,-29.8204 120.376,-33.9894"/>
</g>
<!-- Node9 -->
<g id="node9" class="node"><title>Node9</title>
<polygon fill="white" stroke="#bfbfbf" points="0,-5.5 0,-23.5 35.4531,-23.5 35.4531,-5.5 0,-5.5"/>
<text text-anchor="middle" x="17.7266" y="-11.5" font-family="Helvetica,sans-Serif" font-size="10.00">map</text>
</g>
<!-- Node8&#45;&gt;Node9 -->
<g id="edge9" class="edge"><title>Node8&#45;&gt;Node9</title>
<path fill="none" stroke="midnightblue" d="M77.1324,-65.4353C66.44,-56.4475 48.9135,-41.7151 35.662,-30.5762"/>
<polygon fill="midnightblue" stroke="midnightblue" points="37.593,-27.6271 27.6861,-23.8718 33.0889,-32.9855 37.593,-27.6271"/>
</g>
<!-- Node10 -->
<g id="node10" class="node"><title>Node10</title>
<polygon fill="white" stroke="#bfbfbf" points="53.0566,-5.5 53.0566,-23.5 82.3965,-23.5 82.3965,-5.5 53.0566,-5.5"/>
<text text-anchor="middle" x="67.7266" y="-11.5" font-family="Helvetica,sans-Serif" font-size="10.00">set</text>
</g>
<!-- Node8&#45;&gt;Node10 -->
<g id="edge10" class="edge"><title>Node8&#45;&gt;Node10</title>
<path fill="none" stroke="midnightblue" d="M84.0847,-65.4353C81.3928,-57.2179 77.1278,-44.1985 73.6276,-33.5138"/>
<polygon fill="midnightblue" stroke="midnightblue" points="76.9083,-32.2852 70.469,-23.8718 70.2561,-34.4645 76.9083,-32.2852"/>
</g>
<!-- Node11&#45;&gt;Node7 -->
<g id="edge14" class="edge"><title>Node11&#45;&gt;Node7</title>
<path fill="none" stroke="midnightblue" d="M414.111,-65.4353C410.389,-57.1323 404.47,-43.9267 399.652,-33.1807"/>
<polygon fill="midnightblue" stroke="midnightblue" points="402.764,-31.5651 395.479,-23.8718 396.376,-34.4286 402.764,-31.5651"/>
</g>
<!-- Node12 -->
<g id="node12" class="node"><title>Node12</title>
<polygon fill="white" stroke="#bfbfbf" points="431.138,-0.5 431.138,-28.5 548.315,-28.5 548.315,-0.5 431.138,-0.5"/>
<text text-anchor="start" x="439.138" y="-16.5" font-family="Helvetica,sans-Serif" font-size="10.00">../../../dependencies</text>
<text text-anchor="middle" x="489.727" y="-6.5" font-family="Helvetica,sans-Serif" font-size="10.00">/jsoncpp/include/json.h</text>
</g>
<!-- Node11&#45;&gt;Node12 -->
<g id="edge12" class="edge"><title>Node11&#45;&gt;Node12</title>
<path fill="none" stroke="midnightblue" d="M427.738,-65.4353C437.437,-57.6221 452.526,-45.4675 465.388,-35.1064"/>
<polygon fill="midnightblue" stroke="midnightblue" points="467.847,-37.6193 473.439,-28.6203 463.456,-32.168 467.847,-37.6193"/>
</g>
<!-- Node13 -->
<g id="node13" class="node"><title>Node13</title>
<polygon fill="white" stroke="#bfbfbf" points="566.057,-5.5 566.057,-23.5 615.396,-23.5 615.396,-5.5 566.057,-5.5"/>
<text text-anchor="middle" x="590.727" y="-11.5" font-family="Helvetica,sans-Serif" font-size="10.00">fstream</text>
</g>
<!-- Node11&#45;&gt;Node13 -->
<g id="edge13" class="edge"><title>Node11&#45;&gt;Node13</title>
<path fill="none" stroke="midnightblue" d="M445.309,-65.4494C473.705,-56.9944 519.127,-43.0041 557.727,-29 559.145,-28.4854 560.592,-27.9464 562.05,-27.3924"/>
<polygon fill="midnightblue" stroke="midnightblue" points="563.613,-30.5386 571.633,-23.6156 561.046,-24.0261 563.613,-30.5386"/>
</g>
</g>
</svg>
