<?xml version="1.0" encoding="UTF-8" standalone="no"?>
<!DOCTYPE svg PUBLIC "-//W3C//DTD SVG 1.1//EN"
 "http://www.w3.org/Graphics/SVG/1.1/DTD/svg11.dtd">
<!-- Generated by graphviz version 2.38.0 (20140413.2041)
 -->
<!-- Title: xmmHmmSingleClass.hpp Pages: 1 -->
<svg width="939pt" height="452pt"
 viewBox="0.00 0.00 938.75 452.00" xmlns="http://www.w3.org/2000/svg" xmlns:xlink="http://www.w3.org/1999/xlink">
<g id="graph0" class="graph" transform="scale(1 1) rotate(0) translate(4 448)">
<title>xmmHmmSingleClass.hpp</title>
<polygon fill="white" stroke="none" points="-4,4 -4,-448 934.753,-448 934.753,4 -4,4"/>
<!-- Node1 -->
<g id="node1" class="node"><title>Node1</title>
<polygon fill="#bfbfbf" stroke="black" points="181.685,-425.5 181.685,-443.5 315.492,-443.5 315.492,-425.5 181.685,-425.5"/>
<text text-anchor="middle" x="248.588" y="-431.5" font-family="Helvetica,sans-Serif" font-size="10.00">xmmHmmSingleClass.hpp</text>
</g>
<!-- Node2 -->
<g id="node2" class="node"><title>Node2</title>
<g id="a_node2"><a xlink:href="xmm_gmm_single_class_8hpp.html" target="_top" xlink:title="../gmm/xmmGmmSingleClass.hpp">
<polygon fill="white" stroke="black" points="323.739,-370.5 323.739,-388.5 491.438,-388.5 491.438,-370.5 323.739,-370.5"/>
<text text-anchor="middle" x="407.588" y="-376.5" font-family="Helvetica,sans-Serif" font-size="10.00">../gmm/xmmGmmSingleClass.hpp</text>
</a>
</g>
</g>
<!-- Node1&#45;&gt;Node2 -->
<g id="edge1" class="edge"><title>Node1&#45;&gt;Node2</title>
<path fill="none" stroke="midnightblue" d="M272.737,-425.45C299.665,-416.475 343.412,-401.892 373.745,-391.781"/>
<polygon fill="midnightblue" stroke="midnightblue" points="375.093,-395.021 383.473,-388.538 372.88,-388.38 375.093,-395.021"/>
</g>
<!-- Node28 -->
<g id="node28" class="node"><title>Node28</title>
<g id="a_node28"><a xlink:href="xmm_hmm_parameters_8hpp.html" target="_top" xlink:title="xmmHmmParameters.hpp">
<polygon fill="white" stroke="black" points="92.2437,-190.5 92.2437,-208.5 224.933,-208.5 224.933,-190.5 92.2437,-190.5"/>
<text text-anchor="middle" x="158.588" y="-196.5" font-family="Helvetica,sans-Serif" font-size="10.00">xmmHmmParameters.hpp</text>
</a>
</g>
</g>
<!-- Node1&#45;&gt;Node28 -->
<g id="edge44" class="edge"><title>Node1&#45;&gt;Node28</title>
<path fill="none" stroke="midnightblue" d="M228.365,-425.428C213.149,-418.237 193.171,-406.179 182.588,-389 149.166,-334.743 152.517,-255.044 156.176,-219.188"/>
<polygon fill="midnightblue" stroke="midnightblue" points="159.704,-219.145 157.375,-208.809 152.75,-218.341 159.704,-219.145"/>
</g>
<!-- Node29 -->
<g id="node29" class="node"><title>Node29</title>
<g id="a_node29"><a xlink:href="xmm_hmm_results_8hpp.html" target="_top" xlink:title="xmmHmmResults.hpp">
<polygon fill="white" stroke="black" points="191.414,-370.5 191.414,-388.5 305.763,-388.5 305.763,-370.5 191.414,-370.5"/>
<text text-anchor="middle" x="248.588" y="-376.5" font-family="Helvetica,sans-Serif" font-size="10.00">xmmHmmResults.hpp</text>
</a>
</g>
</g>
<!-- Node1&#45;&gt;Node29 -->
<g id="edge47" class="edge"><title>Node1&#45;&gt;Node29</title>
<path fill="none" stroke="midnightblue" d="M248.588,-425.219C248.588,-418.177 248.588,-407.808 248.588,-398.828"/>
<polygon fill="midnightblue" stroke="midnightblue" points="252.088,-398.55 248.588,-388.55 245.088,-398.55 252.088,-398.55"/>
</g>
<!-- Node3 -->
<g id="node3" class="node"><title>Node3</title>
<g id="a_node3"><a xlink:href="xmm_model_results_8hpp.html" target="_top" xlink:title="../../core/model/xmmModel\lResults.hpp">
<polygon fill="white" stroke="black" points="195.682,-305.5 195.682,-333.5 329.495,-333.5 329.495,-305.5 195.682,-305.5"/>
<text text-anchor="start" x="203.682" y="-321.5" font-family="Helvetica,sans-Serif" font-size="10.00">../../core/model/xmmModel</text>
<text text-anchor="middle" x="262.588" y="-311.5" font-family="Helvetica,sans-Serif" font-size="10.00">Results.hpp</text>
</a>
</g>
</g>
<!-- Node2&#45;&gt;Node3 -->
<g id="edge2" class="edge"><title>Node2&#45;&gt;Node3</title>
<path fill="none" stroke="midnightblue" d="M387.427,-370.435C366.057,-361.887 331.696,-348.143 304.428,-337.236"/>
<polygon fill="midnightblue" stroke="midnightblue" points="305.697,-333.974 295.112,-333.51 303.097,-340.473 305.697,-333.974"/>
</g>
<!-- Node6 -->
<g id="node6" class="node"><title>Node6</title>
<g id="a_node6"><a xlink:href="xmm_model_single_class_8hpp.html" target="_top" xlink:title="../../core/model/xmmModel\lSingleClass.hpp">
<polygon fill="white" stroke="black" points="614.682,-305.5 614.682,-333.5 748.495,-333.5 748.495,-305.5 614.682,-305.5"/>
<text text-anchor="start" x="622.682" y="-321.5" font-family="Helvetica,sans-Serif" font-size="10.00">../../core/model/xmmModel</text>
<text text-anchor="middle" x="681.588" y="-311.5" font-family="Helvetica,sans-Serif" font-size="10.00">SingleClass.hpp</text>
</a>
</g>
</g>
<!-- Node2&#45;&gt;Node6 -->
<g id="edge5" class="edge"><title>Node2&#45;&gt;Node6</title>
<path fill="none" stroke="midnightblue" d="M445.399,-370.496C487.74,-361.534 557.325,-346.804 610.025,-335.648"/>
<polygon fill="midnightblue" stroke="midnightblue" points="610.934,-339.034 619.993,-333.538 609.485,-332.185 610.934,-339.034"/>
</g>
<!-- Node24 -->
<g id="node24" class="node"><title>Node24</title>
<polygon fill="white" stroke="#bfbfbf" points="441.532,-250.5 441.532,-268.5 493.645,-268.5 493.645,-250.5 441.532,-250.5"/>
<text text-anchor="middle" x="467.588" y="-256.5" font-family="Helvetica,sans-Serif" font-size="10.00">memory</text>
</g>
<!-- Node2&#45;&gt;Node24 -->
<g id="edge43" class="edge"><title>Node2&#45;&gt;Node24</title>
<path fill="none" stroke="midnightblue" d="M411.712,-370.389C421.389,-351.359 445.723,-303.502 458.857,-277.671"/>
<polygon fill="midnightblue" stroke="midnightblue" points="462.023,-279.168 463.435,-268.667 455.783,-275.995 462.023,-279.168"/>
</g>
<!-- Node25 -->
<g id="node25" class="node"><title>Node25</title>
<g id="a_node25"><a xlink:href="xmm_gmm_parameters_8hpp.html" target="_top" xlink:title="xmmGmmParameters.hpp">
<polygon fill="white" stroke="black" points="242.965,-190.5 242.965,-208.5 376.211,-208.5 376.211,-190.5 242.965,-190.5"/>
<text text-anchor="middle" x="309.588" y="-196.5" font-family="Helvetica,sans-Serif" font-size="10.00">xmmGmmParameters.hpp</text>
</a>
</g>
</g>
<!-- Node2&#45;&gt;Node25 -->
<g id="edge36" class="edge"><title>Node2&#45;&gt;Node25</title>
<path fill="none" stroke="midnightblue" d="M403.123,-370.389C388.2,-343.284 339.838,-255.443 319.135,-217.84"/>
<polygon fill="midnightblue" stroke="midnightblue" points="321.969,-215.731 314.08,-208.658 315.837,-219.107 321.969,-215.731"/>
</g>
<!-- Node4 -->
<g id="node4" class="node"><title>Node4</title>
<polygon fill="white" stroke="#bfbfbf" points="218.362,-5.5 218.362,-23.5 258.815,-23.5 258.815,-5.5 218.362,-5.5"/>
<text text-anchor="middle" x="238.588" y="-11.5" font-family="Helvetica,sans-Serif" font-size="10.00">string</text>
</g>
<!-- Node3&#45;&gt;Node4 -->
<g id="edge3" class="edge"><title>Node3&#45;&gt;Node4</title>
<path fill="none" stroke="midnightblue" d="M195.402,-310.546C131.349,-298.775 44.5884,-270.003 44.5884,-200.5 44.5884,-200.5 44.5884,-200.5 44.5884,-133.5 44.5884,-99.7069 51.9624,-87.0292 77.5884,-65 78.8672,-63.9007 161.967,-38.6634 208.258,-24.6601"/>
<polygon fill="midnightblue" stroke="midnightblue" points="209.519,-27.9354 218.078,-21.691 207.493,-21.2349 209.519,-27.9354"/>
</g>
<!-- Node5 -->
<g id="node5" class="node"><title>Node5</title>
<polygon fill="white" stroke="#bfbfbf" points="343.973,-5.5 343.973,-23.5 387.204,-23.5 387.204,-5.5 343.973,-5.5"/>
<text text-anchor="middle" x="365.588" y="-11.5" font-family="Helvetica,sans-Serif" font-size="10.00">vector</text>
</g>
<!-- Node3&#45;&gt;Node5 -->
<g id="edge4" class="edge"><title>Node3&#45;&gt;Node5</title>
<path fill="none" stroke="midnightblue" d="M301.016,-305.497C343.07,-288.543 404.588,-254.51 404.588,-200.5 404.588,-200.5 404.588,-200.5 404.588,-133.5 404.588,-96.0791 386.688,-55.2016 375.141,-32.7271"/>
<polygon fill="midnightblue" stroke="midnightblue" points="378.162,-30.9536 370.371,-23.7744 371.985,-34.2456 378.162,-30.9536"/>
</g>
<!-- Node7 -->
<g id="node7" class="node"><title>Node7</title>
<g id="a_node7"><a xlink:href="xmm_circularbuffer_8hpp.html" target="_top" xlink:title="../common/xmmCircularbuffer.hpp">
<polygon fill="white" stroke="black" points="432.649,-65.5 432.649,-83.5 598.527,-83.5 598.527,-65.5 432.649,-65.5"/>
<text text-anchor="middle" x="515.588" y="-71.5" font-family="Helvetica,sans-Serif" font-size="10.00">../common/xmmCircularbuffer.hpp</text>
</a>
</g>
</g>
<!-- Node6&#45;&gt;Node7 -->
<g id="edge6" class="edge"><title>Node6&#45;&gt;Node7</title>
<path fill="none" stroke="midnightblue" d="M672.275,-305.405C652.163,-277.067 603.283,-207.86 563.588,-149 550.587,-129.721 536.032,-107.314 526.395,-92.3556"/>
<polygon fill="midnightblue" stroke="midnightblue" points="529.189,-90.229 520.837,-83.7094 523.3,-94.014 529.189,-90.229"/>
</g>
<!-- Node10 -->
<g id="node10" class="node"><title>Node10</title>
<g id="a_node10"><a xlink:href="xmm_events_8hpp.html" target="_top" xlink:title="../common/xmmEvents.hpp">
<polygon fill="white" stroke="black" points="717.012,-65.5 717.012,-83.5 854.165,-83.5 854.165,-65.5 717.012,-65.5"/>
<text text-anchor="middle" x="785.588" y="-71.5" font-family="Helvetica,sans-Serif" font-size="10.00">../common/xmmEvents.hpp</text>
</a>
</g>
</g>
<!-- Node6&#45;&gt;Node10 -->
<g id="edge10" class="edge"><title>Node6&#45;&gt;Node10</title>
<path fill="none" stroke="midnightblue" d="M692.43,-305.274C713.456,-279.519 758.108,-224.254 762.588,-214 780.266,-173.546 784.443,-121.005 785.373,-93.7313"/>
<polygon fill="midnightblue" stroke="midnightblue" points="788.873,-93.7761 785.604,-83.6985 781.875,-93.6156 788.873,-93.7761"/>
</g>
<!-- Node14 -->
<g id="node14" class="node"><title>Node14</title>
<g id="a_node14"><a xlink:href="xmm_training_set_8hpp.html" target="_top" xlink:title="../trainingset/xmmTraining\lSet.hpp">
<polygon fill="white" stroke="black" points="623.252,-185.5 623.252,-213.5 753.925,-213.5 753.925,-185.5 623.252,-185.5"/>
<text text-anchor="start" x="631.252" y="-201.5" font-family="Helvetica,sans-Serif" font-size="10.00">../trainingset/xmmTraining</text>
<text text-anchor="middle" x="688.588" y="-191.5" font-family="Helvetica,sans-Serif" font-size="10.00">Set.hpp</text>
</a>
</g>
</g>
<!-- Node6&#45;&gt;Node14 -->
<g id="edge14" class="edge"><title>Node6&#45;&gt;Node14</title>
<path fill="none" stroke="midnightblue" d="M682.364,-305.421C683.531,-285.752 685.755,-248.262 687.204,-223.832"/>
<polygon fill="midnightblue" stroke="midnightblue" points="690.711,-223.827 687.809,-213.637 683.723,-223.413 690.711,-223.827"/>
</g>
<!-- Node22 -->
<g id="node22" class="node"><title>Node22</title>
<g id="a_node22"><a xlink:href="xmm_model_shared_parameters_8hpp.html" target="_top" xlink:title="xmmModelSharedParameters.hpp">
<polygon fill="white" stroke="black" points="747.443,-250.5 747.443,-268.5 915.733,-268.5 915.733,-250.5 747.443,-250.5"/>
<text text-anchor="middle" x="831.588" y="-256.5" font-family="Helvetica,sans-Serif" font-size="10.00">xmmModelSharedParameters.hpp</text>
</a>
</g>
</g>
<!-- Node6&#45;&gt;Node22 -->
<g id="edge30" class="edge"><title>Node6&#45;&gt;Node22</title>
<path fill="none" stroke="midnightblue" d="M715.251,-305.484C741.025,-295.518 776.271,-281.889 801.195,-272.252"/>
<polygon fill="midnightblue" stroke="midnightblue" points="802.463,-275.514 810.528,-268.643 799.939,-268.985 802.463,-275.514"/>
</g>
<!-- Node23 -->
<g id="node23" class="node"><title>Node23</title>
<polygon fill="white" stroke="#bfbfbf" points="885.973,-190.5 885.973,-208.5 929.204,-208.5 929.204,-190.5 885.973,-190.5"/>
<text text-anchor="middle" x="907.588" y="-196.5" font-family="Helvetica,sans-Serif" font-size="10.00">mutex</text>
</g>
<!-- Node6&#45;&gt;Node23 -->
<g id="edge35" class="edge"><title>Node6&#45;&gt;Node23</title>
<path fill="none" stroke="midnightblue" d="M748.683,-314.145C812.765,-308.421 902.731,-295.758 924.588,-269 936.543,-254.365 927.925,-232.504 919.182,-217.434"/>
<polygon fill="midnightblue" stroke="midnightblue" points="921.935,-215.239 913.634,-208.655 916.018,-218.979 921.935,-215.239"/>
</g>
<!-- Node6&#45;&gt;Node24 -->
<g id="edge34" class="edge"><title>Node6&#45;&gt;Node24</title>
<path fill="none" stroke="midnightblue" d="M633.563,-305.484C594.195,-294.814 539.337,-279.946 503.647,-270.273"/>
<polygon fill="midnightblue" stroke="midnightblue" points="504.238,-266.807 493.671,-267.569 502.407,-273.563 504.238,-266.807"/>
</g>
<!-- Node7&#45;&gt;Node5 -->
<g id="edge9" class="edge"><title>Node7&#45;&gt;Node5</title>
<path fill="none" stroke="midnightblue" d="M494.18,-65.3728C470.88,-56.5077 432.542,-41.8625 399.588,-29 398.183,-28.4515 396.746,-27.8887 395.295,-27.3187"/>
<polygon fill="midnightblue" stroke="midnightblue" points="396.296,-23.9508 385.709,-23.534 393.725,-30.4618 396.296,-23.9508"/>
</g>
<!-- Node8 -->
<g id="node8" class="node"><title>Node8</title>
<polygon fill="white" stroke="#bfbfbf" points="486.185,-5.5 486.185,-23.5 544.992,-23.5 544.992,-5.5 486.185,-5.5"/>
<text text-anchor="middle" x="515.588" y="-11.5" font-family="Helvetica,sans-Serif" font-size="10.00">exception</text>
</g>
<!-- Node7&#45;&gt;Node8 -->
<g id="edge7" class="edge"><title>Node7&#45;&gt;Node8</title>
<path fill="none" stroke="midnightblue" d="M515.588,-65.4353C515.588,-57.3891 515.588,-44.7388 515.588,-34.1846"/>
<polygon fill="midnightblue" stroke="midnightblue" points="519.088,-33.8717 515.588,-23.8718 512.088,-33.8718 519.088,-33.8717"/>
</g>
<!-- Node9 -->
<g id="node9" class="node"><title>Node9</title>
<polygon fill="white" stroke="#bfbfbf" points="408.187,-5.5 408.187,-23.5 466.99,-23.5 466.99,-5.5 408.187,-5.5"/>
<text text-anchor="middle" x="437.588" y="-11.5" font-family="Helvetica,sans-Serif" font-size="10.00">stdexcept</text>
</g>
<!-- Node7&#45;&gt;Node9 -->
<g id="edge8" class="edge"><title>Node7&#45;&gt;Node9</title>
<path fill="none" stroke="midnightblue" d="M504.743,-65.4353C492.426,-56.2763 472.086,-41.1518 457.013,-29.9437"/>
<polygon fill="midnightblue" stroke="midnightblue" points="458.96,-27.0302 448.847,-23.8718 454.783,-32.6474 458.96,-27.0302"/>
</g>
<!-- Node11 -->
<g id="node11" class="node"><title>Node11</title>
<polygon fill="white" stroke="#bfbfbf" points="619.185,-5.5 619.185,-23.5 677.992,-23.5 677.992,-5.5 619.185,-5.5"/>
<text text-anchor="middle" x="648.588" y="-11.5" font-family="Helvetica,sans-Serif" font-size="10.00">functional</text>
</g>
<!-- Node10&#45;&gt;Node11 -->
<g id="edge11" class="edge"><title>Node10&#45;&gt;Node11</title>
<path fill="none" stroke="midnightblue" d="M766.539,-65.4353C743.359,-55.6217 704.001,-38.9593 677.179,-27.604"/>
<polygon fill="midnightblue" stroke="midnightblue" points="678.491,-24.3587 667.918,-23.6831 675.762,-30.8049 678.491,-24.3587"/>
</g>
<!-- Node12 -->
<g id="node12" class="node"><title>Node12</title>
<polygon fill="white" stroke="#bfbfbf" points="802.862,-5.5 802.862,-23.5 838.315,-23.5 838.315,-5.5 802.862,-5.5"/>
<text text-anchor="middle" x="820.588" y="-11.5" font-family="Helvetica,sans-Serif" font-size="10.00">map</text>
</g>
<!-- Node10&#45;&gt;Node12 -->
<g id="edge12" class="edge"><title>Node10&#45;&gt;Node12</title>
<path fill="none" stroke="midnightblue" d="M790.455,-65.4353C795.569,-56.9611 803.764,-43.38 810.318,-32.5192"/>
<polygon fill="midnightblue" stroke="midnightblue" points="813.366,-34.242 815.536,-23.8718 807.373,-30.6253 813.366,-34.242"/>
</g>
<!-- Node13 -->
<g id="node13" class="node"><title>Node13</title>
<polygon fill="white" stroke="#bfbfbf" points="735.918,-5.5 735.918,-23.5 765.258,-23.5 765.258,-5.5 735.918,-5.5"/>
<text text-anchor="middle" x="750.588" y="-11.5" font-family="Helvetica,sans-Serif" font-size="10.00">set</text>
</g>
<!-- Node10&#45;&gt;Node13 -->
<g id="edge13" class="edge"><title>Node10&#45;&gt;Node13</title>
<path fill="none" stroke="midnightblue" d="M780.722,-65.4353C775.608,-56.9611 767.413,-43.38 760.859,-32.5192"/>
<polygon fill="midnightblue" stroke="midnightblue" points="763.804,-30.6253 755.64,-23.8718 757.81,-34.242 763.804,-30.6253"/>
</g>
<!-- Node14&#45;&gt;Node12 -->
<g id="edge28" class="edge"><title>Node14&#45;&gt;Node12</title>
<path fill="none" stroke="midnightblue" d="M728.404,-185.358C770.632,-169.029 835.093,-136.696 863.588,-84 873.996,-64.7524 855.799,-43.555 839.966,-29.9139"/>
<polygon fill="midnightblue" stroke="midnightblue" points="842.04,-27.0904 832.065,-23.5196 837.636,-32.5315 842.04,-27.0904"/>
</g>
<!-- Node14&#45;&gt;Node13 -->
<g id="edge29" class="edge"><title>Node14&#45;&gt;Node13</title>
<path fill="none" stroke="midnightblue" d="M688.057,-185.307C687.567,-160.538 688.92,-105.888 707.588,-65 713.585,-51.8651 724.196,-39.594 733.376,-30.5554"/>
<polygon fill="midnightblue" stroke="midnightblue" points="736.006,-32.8885 740.924,-23.504 731.227,-27.7735 736.006,-32.8885"/>
</g>
<!-- Node15 -->
<g id="node15" class="node"><title>Node15</title>
<g id="a_node15"><a xlink:href="xmm_phrase_8hpp.html" target="_top" xlink:title="xmmPhrase.hpp">
<polygon fill="white" stroke="black" points="572.185,-125.5 572.185,-143.5 660.992,-143.5 660.992,-125.5 572.185,-125.5"/>
<text text-anchor="middle" x="616.588" y="-131.5" font-family="Helvetica,sans-Serif" font-size="10.00">xmmPhrase.hpp</text>
</a>
</g>
</g>
<!-- Node14&#45;&gt;Node15 -->
<g id="edge15" class="edge"><title>Node14&#45;&gt;Node15</title>
<path fill="none" stroke="midnightblue" d="M673.67,-185.446C662.023,-175.256 645.832,-161.088 633.667,-150.444"/>
<polygon fill="midnightblue" stroke="midnightblue" points="635.825,-147.681 625.994,-143.73 631.215,-152.949 635.825,-147.681"/>
</g>
<!-- Node15&#45;&gt;Node10 -->
<g id="edge22" class="edge"><title>Node15&#45;&gt;Node10</title>
<path fill="none" stroke="midnightblue" d="M640.087,-125.435C669.266,-115.421 719.224,-98.276 752.327,-86.9152"/>
<polygon fill="midnightblue" stroke="midnightblue" points="753.695,-90.1461 762.017,-83.5894 751.423,-83.5251 753.695,-90.1461"/>
</g>
<!-- Node16 -->
<g id="node16" class="node"><title>Node16</title>
<g id="a_node16"><a xlink:href="xmm_attribute_8hpp.html" target="_top" xlink:title="../common/xmmAttribute.hpp">
<polygon fill="white" stroke="black" points="232.677,-65.5 232.677,-83.5 376.5,-83.5 376.5,-65.5 232.677,-65.5"/>
<text text-anchor="middle" x="304.588" y="-71.5" font-family="Helvetica,sans-Serif" font-size="10.00">../common/xmmAttribute.hpp</text>
</a>
</g>
</g>
<!-- Node15&#45;&gt;Node16 -->
<g id="edge16" class="edge"><title>Node15&#45;&gt;Node16</title>
<path fill="none" stroke="midnightblue" d="M573.534,-125.496C517.277,-115.038 418.782,-96.7283 357.879,-85.4066"/>
<polygon fill="midnightblue" stroke="midnightblue" points="358.173,-81.9014 347.702,-83.5147 356.894,-88.7835 358.173,-81.9014"/>
</g>
<!-- Node18 -->
<g id="node18" class="node"><title>Node18</title>
<g id="a_node18"><a xlink:href="xmm_json_8hpp.html" target="_top" xlink:title="../common/xmmJson.hpp">
<polygon fill="white" stroke="black" points="86.7363,-65.5 86.7363,-83.5 214.44,-83.5 214.44,-65.5 86.7363,-65.5"/>
<text text-anchor="middle" x="150.588" y="-71.5" font-family="Helvetica,sans-Serif" font-size="10.00">../common/xmmJson.hpp</text>
</a>
</g>
</g>
<!-- Node15&#45;&gt;Node18 -->
<g id="edge23" class="edge"><title>Node15&#45;&gt;Node18</title>
<path fill="none" stroke="midnightblue" d="M571.906,-127.939C491.71,-117.957 322.611,-96.9105 224.779,-84.7341"/>
<polygon fill="midnightblue" stroke="midnightblue" points="225.023,-81.2375 214.667,-83.4755 224.159,-88.1839 225.023,-81.2375"/>
</g>
<!-- Node21 -->
<g id="node21" class="node"><title>Node21</title>
<polygon fill="white" stroke="#bfbfbf" points="616.973,-65.5 616.973,-83.5 660.204,-83.5 660.204,-65.5 616.973,-65.5"/>
<text text-anchor="middle" x="638.588" y="-71.5" font-family="Helvetica,sans-Serif" font-size="10.00">cmath</text>
</g>
<!-- Node15&#45;&gt;Node21 -->
<g id="edge27" class="edge"><title>Node15&#45;&gt;Node21</title>
<path fill="none" stroke="midnightblue" d="M619.647,-125.435C622.764,-117.218 627.703,-104.198 631.756,-93.5138"/>
<polygon fill="midnightblue" stroke="midnightblue" points="635.139,-94.463 635.413,-83.8718 628.594,-91.9804 635.139,-94.463"/>
</g>
<!-- Node16&#45;&gt;Node4 -->
<g id="edge20" class="edge"><title>Node16&#45;&gt;Node4</title>
<path fill="none" stroke="midnightblue" d="M295.411,-65.4353C285.184,-56.4475 268.419,-41.7151 255.744,-30.5762"/>
<polygon fill="midnightblue" stroke="midnightblue" points="257.937,-27.8438 248.115,-23.8718 253.316,-33.102 257.937,-27.8438"/>
</g>
<!-- Node16&#45;&gt;Node5 -->
<g id="edge21" class="edge"><title>Node16&#45;&gt;Node5</title>
<path fill="none" stroke="midnightblue" d="M313.07,-65.4353C322.433,-56.5331 337.723,-41.9952 349.397,-30.8954"/>
<polygon fill="midnightblue" stroke="midnightblue" points="351.948,-33.2989 356.784,-23.8718 347.125,-28.2259 351.948,-33.2989"/>
</g>
<!-- Node16&#45;&gt;Node9 -->
<g id="edge19" class="edge"><title>Node16&#45;&gt;Node9</title>
<path fill="none" stroke="midnightblue" d="M323.081,-65.4353C345.486,-55.6648 383.459,-39.1053 409.489,-27.7537"/>
<polygon fill="midnightblue" stroke="midnightblue" points="411.056,-30.8887 418.824,-23.6831 408.258,-24.4723 411.056,-30.8887"/>
</g>
<!-- Node16&#45;&gt;Node11 -->
<g id="edge17" class="edge"><title>Node16&#45;&gt;Node11</title>
<path fill="none" stroke="midnightblue" d="M352.059,-65.4962C420.325,-53.9863 545,-32.9655 608.747,-22.2174"/>
<polygon fill="midnightblue" stroke="midnightblue" points="609.528,-25.6353 618.807,-20.5213 608.364,-18.7327 609.528,-25.6353"/>
</g>
<!-- Node17 -->
<g id="node17" class="node"><title>Node17</title>
<polygon fill="white" stroke="#bfbfbf" points="285.202,-5.5 285.202,-23.5 323.975,-23.5 323.975,-5.5 285.202,-5.5"/>
<text text-anchor="middle" x="304.588" y="-11.5" font-family="Helvetica,sans-Serif" font-size="10.00">limits</text>
</g>
<!-- Node16&#45;&gt;Node17 -->
<g id="edge18" class="edge"><title>Node16&#45;&gt;Node17</title>
<path fill="none" stroke="midnightblue" d="M304.588,-65.4353C304.588,-57.3891 304.588,-44.7388 304.588,-34.1846"/>
<polygon fill="midnightblue" stroke="midnightblue" points="308.088,-33.8717 304.588,-23.8718 301.088,-33.8718 308.088,-33.8717"/>
</g>
<!-- Node18&#45;&gt;Node5 -->
<g id="edge26" class="edge"><title>Node18&#45;&gt;Node5</title>
<path fill="none" stroke="midnightblue" d="M190.83,-65.4588C228.031,-57.6033 284.636,-44.5754 332.588,-29 334.248,-28.461 335.942,-27.877 337.643,-27.2645"/>
<polygon fill="midnightblue" stroke="midnightblue" points="339.193,-30.4183 347.267,-23.5588 336.678,-23.8858 339.193,-30.4183"/>
</g>
<!-- Node19 -->
<g id="node19" class="node"><title>Node19</title>
<polygon fill="white" stroke="#bfbfbf" points="0,-0.5 0,-28.5 117.177,-28.5 117.177,-0.5 0,-0.5"/>
<text text-anchor="start" x="8" y="-16.5" font-family="Helvetica,sans-Serif" font-size="10.00">../../../dependencies</text>
<text text-anchor="middle" x="58.5884" y="-6.5" font-family="Helvetica,sans-Serif" font-size="10.00">/jsoncpp/include/json.h</text>
</g>
<!-- Node18&#45;&gt;Node19 -->
<g id="edge24" class="edge"><title>Node18&#45;&gt;Node19</title>
<path fill="none" stroke="midnightblue" d="M137.796,-65.4353C125.049,-57.3989 105.016,-44.7694 88.2867,-34.2229"/>
<polygon fill="midnightblue" stroke="midnightblue" points="89.7258,-30.9926 79.3999,-28.6203 85.9926,-36.9141 89.7258,-30.9926"/>
</g>
<!-- Node20 -->
<g id="node20" class="node"><title>Node20</title>
<polygon fill="white" stroke="#bfbfbf" points="134.918,-5.5 134.918,-23.5 184.258,-23.5 184.258,-5.5 134.918,-5.5"/>
<text text-anchor="middle" x="159.588" y="-11.5" font-family="Helvetica,sans-Serif" font-size="10.00">fstream</text>
</g>
<!-- Node18&#45;&gt;Node20 -->
<g id="edge25" class="edge"><title>Node18&#45;&gt;Node20</title>
<path fill="none" stroke="midnightblue" d="M151.84,-65.4353C153.102,-57.3035 155.093,-44.4692 156.741,-33.8485"/>
<polygon fill="midnightblue" stroke="midnightblue" points="160.214,-34.2902 158.289,-23.8718 153.297,-33.2168 160.214,-34.2902"/>
</g>
<!-- Node22&#45;&gt;Node10 -->
<g id="edge31" class="edge"><title>Node22&#45;&gt;Node10</title>
<path fill="none" stroke="midnightblue" d="M829.796,-250.347C825.052,-228.909 811.633,-169.22 798.588,-120 796.264,-111.228 793.465,-101.551 791.061,-93.4675"/>
<polygon fill="midnightblue" stroke="midnightblue" points="794.344,-92.2326 788.108,-83.6672 787.642,-94.2518 794.344,-92.2326"/>
</g>
<!-- Node22&#45;&gt;Node14 -->
<g id="edge32" class="edge"><title>Node22&#45;&gt;Node14</title>
<path fill="none" stroke="midnightblue" d="M811.705,-250.435C790.722,-241.925 757.039,-228.263 730.204,-217.379"/>
<polygon fill="midnightblue" stroke="midnightblue" points="731.246,-214.025 720.664,-213.51 728.615,-220.512 731.246,-214.025"/>
</g>
<!-- Node22&#45;&gt;Node23 -->
<g id="edge33" class="edge"><title>Node22&#45;&gt;Node23</title>
<path fill="none" stroke="midnightblue" d="M842.156,-250.435C854.157,-241.276 873.976,-226.152 888.662,-214.944"/>
<polygon fill="midnightblue" stroke="midnightblue" points="890.792,-217.721 896.618,-208.872 886.546,-212.156 890.792,-217.721"/>
</g>
<!-- Node26 -->
<g id="node26" class="node"><title>Node26</title>
<g id="a_node26"><a xlink:href="xmm_gaussian_distribution_8hpp.html" target="_top" xlink:title="../../core/distributions\l/xmmGaussianDistribution.hpp">
<polygon fill="white" stroke="black" points="72.5049,-120.5 72.5049,-148.5 224.672,-148.5 224.672,-120.5 72.5049,-120.5"/>
<text text-anchor="start" x="80.5049" y="-136.5" font-family="Helvetica,sans-Serif" font-size="10.00">../../core/distributions</text>
<text text-anchor="middle" x="148.588" y="-126.5" font-family="Helvetica,sans-Serif" font-size="10.00">/xmmGaussianDistribution.hpp</text>
</a>
</g>
</g>
<!-- Node25&#45;&gt;Node26 -->
<g id="edge37" class="edge"><title>Node25&#45;&gt;Node26</title>
<path fill="none" stroke="midnightblue" d="M288.87,-190.393C264.318,-180.785 222.768,-164.527 191.243,-152.191"/>
<polygon fill="midnightblue" stroke="midnightblue" points="192.399,-148.885 181.811,-148.5 189.848,-155.404 192.399,-148.885"/>
</g>
<!-- Node27 -->
<g id="node27" class="node"><title>Node27</title>
<g id="a_node27"><a xlink:href="xmm_model_parameters_8hpp.html" target="_top" xlink:title="../../core/model/xmmModel\lParameters.hpp">
<polygon fill="white" stroke="black" points="242.682,-120.5 242.682,-148.5 376.495,-148.5 376.495,-120.5 242.682,-120.5"/>
<text text-anchor="start" x="250.682" y="-136.5" font-family="Helvetica,sans-Serif" font-size="10.00">../../core/model/xmmModel</text>
<text text-anchor="middle" x="309.588" y="-126.5" font-family="Helvetica,sans-Serif" font-size="10.00">Parameters.hpp</text>
</a>
</g>
</g>
<!-- Node25&#45;&gt;Node27 -->
<g id="edge40" class="edge"><title>Node25&#45;&gt;Node27</title>
<path fill="none" stroke="midnightblue" d="M309.588,-190.264C309.588,-182.359 309.588,-170.038 309.588,-159.083"/>
<polygon fill="midnightblue" stroke="midnightblue" points="313.088,-158.798 309.588,-148.798 306.088,-158.798 313.088,-158.798"/>
</g>
<!-- Node26&#45;&gt;Node16 -->
<g id="edge38" class="edge"><title>Node26&#45;&gt;Node16</title>
<path fill="none" stroke="midnightblue" d="M183.598,-120.484C210.403,-110.518 247.059,-96.8893 272.979,-87.2523"/>
<polygon fill="midnightblue" stroke="midnightblue" points="274.532,-90.409 282.685,-83.6434 272.093,-83.8478 274.532,-90.409"/>
</g>
<!-- Node26&#45;&gt;Node18 -->
<g id="edge39" class="edge"><title>Node26&#45;&gt;Node18</title>
<path fill="none" stroke="midnightblue" d="M149.042,-120.339C149.311,-112.531 149.657,-102.512 149.953,-93.9265"/>
<polygon fill="midnightblue" stroke="midnightblue" points="153.456,-93.8862 150.303,-83.7715 146.461,-93.6449 153.456,-93.8862"/>
</g>
<!-- Node27&#45;&gt;Node16 -->
<g id="edge41" class="edge"><title>Node27&#45;&gt;Node16</title>
<path fill="none" stroke="midnightblue" d="M308.454,-120.339C307.781,-112.531 306.917,-102.512 306.177,-93.9265"/>
<polygon fill="midnightblue" stroke="midnightblue" points="309.647,-93.4339 305.301,-83.7715 302.673,-94.0352 309.647,-93.4339"/>
</g>
<!-- Node27&#45;&gt;Node18 -->
<g id="edge42" class="edge"><title>Node27&#45;&gt;Node18</title>
<path fill="none" stroke="midnightblue" d="M273.906,-120.484C246.464,-110.474 208.894,-96.7686 182.456,-87.1246"/>
<polygon fill="midnightblue" stroke="midnightblue" points="183.506,-83.7823 172.913,-83.6434 181.108,-90.3585 183.506,-83.7823"/>
</g>
<!-- Node28&#45;&gt;Node26 -->
<g id="edge45" class="edge"><title>Node28&#45;&gt;Node26</title>
<path fill="none" stroke="midnightblue" d="M157.281,-190.264C156.013,-182.277 154.03,-169.781 152.278,-158.742"/>
<polygon fill="midnightblue" stroke="midnightblue" points="155.724,-158.126 150.699,-148.798 148.81,-159.223 155.724,-158.126"/>
</g>
<!-- Node28&#45;&gt;Node27 -->
<g id="edge46" class="edge"><title>Node28&#45;&gt;Node27</title>
<path fill="none" stroke="midnightblue" d="M178.02,-190.393C200.849,-180.868 239.346,-164.807 268.816,-152.511"/>
<polygon fill="midnightblue" stroke="midnightblue" points="270.548,-155.581 278.429,-148.5 267.852,-149.121 270.548,-155.581"/>
</g>
<!-- Node29&#45;&gt;Node3 -->
<g id="edge48" class="edge"><title>Node29&#45;&gt;Node3</title>
<path fill="none" stroke="midnightblue" d="M250.535,-370.435C252.212,-363.486 254.719,-353.103 257.012,-343.602"/>
<polygon fill="midnightblue" stroke="midnightblue" points="260.424,-344.385 259.368,-333.843 253.619,-342.742 260.424,-344.385"/>
</g>
</g>
</svg>
